<svg width="48" height="48" viewBox="0 0 48 48" fill="none" xmlns="http://www.w3.org/2000/svg">
<path d="M25.0039 47H3.00391C1.89934 47 1.00391 46.1046 1.00391 45V3.00001C1.00391 1.89544 1.89934 1.00001 3.00391 1.00001H29.5839C30.1164 0.998526 30.6274 1.20944 31.0039 1.58601L38.4039 9.00001C38.779 9.37499 38.9898 9.88362 38.9899 10.414V19M6.99791 31H18.9979M21.0039 25V16C21.0039 15.4477 20.5562 15 20.0039 15H18.0039C17.4516 15 17.0039 15.4477 17.0039 16V31M46.9979 47L40.5019 40.504M10.0039 21H12.0039C12.5562 21 13.0039 21.4477 13.0039 22V31H9.00391V22C9.00391 21.4477 9.45162 21 10.0039 21ZM24.9979 34.058C24.9979 39.0606 29.0533 43.116 34.0559 43.116C39.0585 43.116 43.1139 39.0606 43.1139 34.058C43.1139 29.0554 39.0585 25 34.0559 25C29.0533 25 24.9979 29.0554 24.9979 34.058Z" stroke="#2466A8" stroke-width="2" stroke-linecap="round" stroke-linejoin="round"/>
</svg>
