<svg width="48" height="48" viewBox="0 0 48 48" fill="none" xmlns="http://www.w3.org/2000/svg">
<path d="M7.828 7.828L10.038 11.564M7.828 40.172L10.038 36.564M38.038 11.564L40.174 7.826M38.038 36.564L40.172 40.172M24.954 38.564V36.564M24.954 11.564V9.564M1 5C1 7.20914 2.79086 9 5 9C7.20914 9 9 7.20914 9 5C9 2.79086 7.20914 1 5 1C2.79086 1 1 2.79086 1 5ZM21 5C21 7.20914 22.7909 9 25 9C27.2091 9 29 7.20914 29 5C29 2.79086 27.2091 1 25 1C22.7909 1 21 2.79086 21 5ZM21 43C21 45.2091 22.7909 47 25 47C27.2091 47 29 45.2091 29 43C29 40.7909 27.2091 39 25 39C22.7909 39 21 40.7909 21 43ZM39 5C39 7.20914 40.7909 9 43 9C45.2091 9 47 7.20914 47 5C47 2.79086 45.2091 1 43 1C40.7909 1 39 2.79086 39 5ZM39 43C39 45.2091 40.7909 47 43 47C45.2091 47 47 45.2091 47 43C47 40.7909 45.2091 39 43 39C40.7909 39 39 40.7909 39 43ZM1 43C1 45.2091 2.79086 47 5 47C7.20914 47 9 45.2091 9 43C9 40.7909 7.20914 39 5 39C2.79086 39 1 40.7909 1 43ZM17.332 32H15.478C12.3891 31.6195 10.0524 29.0218 10 25.91C9.99936 24.2582 10.6712 22.6774 11.8609 21.5315C13.0505 20.3856 14.6554 19.7735 16.306 19.836C17.9586 16.306 21.7985 14.3504 25.6254 15.0898C29.4523 15.8292 32.2873 19.0745 32.506 22.966C33.8506 22.6869 35.2495 23.0278 36.3149 23.8943C37.3803 24.7607 37.9992 26.0607 38 27.434C37.986 28.6941 37.4583 29.8939 36.539 30.7558C35.6197 31.6177 34.3884 32.0671 33.13 32H17.33H17.332Z" stroke="#2466A8" stroke-width="2" stroke-linecap="round" stroke-linejoin="round"/>
</svg>
