<svg width="48" height="48" viewBox="0 0 48 48" fill="none" xmlns="http://www.w3.org/2000/svg">
<path d="M30 37.84C26.1515 39.3968 21.8485 39.3968 18 37.84M33 9.78C37.9696 13.1588 40.6269 19.0372 39.88 25M15 9.78C10.0304 13.1588 7.37315 19.0372 8.12 25M19.5 5.5C19.5 7.98528 21.5147 10 24 10C26.4853 10 28.5 7.98528 28.5 5.5C28.5 3.01472 26.4853 1 24 1C21.5147 1 19.5 3.01472 19.5 5.5ZM33 19C31.9333 14.9027 28.2338 12.0431 24 12.0431C19.7662 12.0431 16.0667 14.9027 15 19H33ZM5.5 33.5C5.5 35.9853 7.51472 38 10 38C12.4853 38 14.5 35.9853 14.5 33.5C14.5 31.0147 12.4853 29 10 29C7.51472 29 5.5 31.0147 5.5 33.5ZM19 47C17.9333 42.9027 14.2338 40.0431 10 40.0431C5.76617 40.0431 2.06669 42.9027 1 47H19ZM33.5 33.5C33.5 35.9853 35.5147 38 38 38C40.4853 38 42.5 35.9853 42.5 33.5C42.5 31.0147 40.4853 29 38 29C35.5147 29 33.5 31.0147 33.5 33.5ZM47 47C45.9333 42.9027 42.2338 40.0431 38 40.0431C33.7662 40.0431 30.0667 42.9027 29 47H47Z" stroke="#2466A8" stroke-width="2" stroke-linecap="round" stroke-linejoin="round"/>
</svg>
