<svg xmlns="http://www.w3.org/2000/svg" fill="none" viewBox="40.74 29.84 274.52 254.66">
<g clip-path="url(#clip0_14120_3885)">
<path fill-rule="evenodd" clip-rule="evenodd" d="M135.645 149.995C137.521 157.309 140.731 163.993 145.275 170.047C142.438 172.408 139.705 174.926 137.076 177.599C135.139 180.116 134.879 182.807 136.296 185.672C137.153 187.348 138.151 188.91 139.289 190.359C137.925 190.871 137.318 191.87 137.467 193.354C137.495 194.757 138.103 195.841 139.289 196.609C134.623 200.466 129.244 202.332 123.153 202.208C120.849 201.846 118.767 200.978 116.906 199.604C115.564 198.176 114.74 196.484 114.434 194.526C114.261 192.352 114.304 190.182 114.564 188.015C114.536 187.019 114.319 186.064 113.914 185.151C110.832 182.007 107.058 180.314 102.592 180.073C97.8954 179.615 93.471 180.483 89.3191 182.677C84.2196 186.962 78.3204 189.392 71.6216 189.968C71.48 190.155 71.3064 190.285 71.1011 190.359C71.067 190.167 71.1105 189.993 71.2312 189.838C78.7875 182.06 86.3785 174.335 94.0038 166.661C95.055 167.875 96.3563 168.786 97.9077 169.396C101.899 170.633 105.976 171.154 110.14 170.958C113.764 170.377 117.321 169.509 120.81 168.354C121.499 168.224 122.193 168.181 122.892 168.224C124.718 168.245 126.453 167.854 128.098 167.052C129.597 165.991 130.248 164.559 130.05 162.755C128.803 161.242 127.198 160.547 125.235 160.672C122.356 160.473 119.97 161.428 118.078 163.536C117.742 164.279 117.612 165.06 117.687 165.88C117.525 166.358 117.178 166.662 116.646 166.791C115.558 167.259 114.43 167.606 113.263 167.833C109.888 168.215 106.504 168.302 103.113 168.093C101.866 167.851 100.652 167.504 99.4692 167.052C98.1112 166.417 96.8966 165.593 95.8256 164.578C100.457 159.639 105.142 154.735 109.88 149.864C111.671 148.543 113.666 147.675 115.865 147.26C118.381 147.086 120.897 147.086 123.413 147.26C127.522 148.049 131.6 148.961 135.645 149.995Z" fill="#ECEFF0"/>
<path fill-rule="evenodd" clip-rule="evenodd" d="M122.894 168.224C121.888 168.009 120.847 167.792 119.771 167.573C118.876 167.241 118.182 166.677 117.689 165.88C117.613 165.06 117.744 164.279 118.079 163.537C119.971 161.429 122.357 160.474 125.236 160.672C127.199 160.548 128.805 161.242 130.051 162.755C130.249 164.559 129.598 165.992 128.099 167.052C126.455 167.854 124.719 168.245 122.894 168.224Z" fill="#6C8093"/>
<path fill-rule="evenodd" clip-rule="evenodd" d="M261.873 164.057C260.706 164.272 259.491 164.402 258.229 164.448C258.548 164.861 258.462 165.208 257.969 165.489C258.749 165.576 259.53 165.663 260.311 165.75C259.622 165.879 258.928 165.923 258.229 165.88C257.535 165.88 256.841 165.88 256.147 165.88C254.635 165.58 253.073 165.363 251.462 165.229C250.427 165.024 249.429 164.721 248.469 164.317C248.01 164.977 247.62 165.671 247.298 166.401C247.138 166.372 247.007 166.285 246.908 166.14C244.921 169.296 242.796 172.334 240.531 175.255C225.984 190.859 208.026 197.5 186.658 195.177C178.522 194.531 170.975 192.144 164.016 188.015C159.118 184.666 154.564 180.846 150.352 176.557C149.918 175.949 149.485 175.342 149.051 174.734C148.838 174.39 148.535 174.216 148.14 174.213C147.793 173.692 147.446 173.172 147.099 172.651C146.616 171.682 146.009 170.814 145.277 170.047C140.734 163.993 137.524 157.309 135.647 149.994C135.647 149.387 135.647 148.779 135.647 148.172C135.053 148.147 134.532 147.973 134.086 147.651C134.52 147.651 134.953 147.651 135.387 147.651C133.373 125.514 140.487 106.894 156.728 91.7913C169.854 80.2223 185.209 74.8838 202.794 75.7757C202.837 74.9898 202.794 74.2085 202.664 73.432C198.449 70.0679 196.974 65.7275 198.24 60.4111C201.42 52.1947 207.406 47.7676 216.197 47.1299C225.775 48.033 231.024 53.2846 231.943 62.8851C231.851 68.363 229.683 72.79 225.436 76.1663C224.115 77.0663 222.683 77.7174 221.142 78.1195C220.843 79.0601 220.626 80.0148 220.492 80.9841C239.64 88.9096 251.395 103.059 255.757 123.432C257.91 137.068 255.784 150.003 249.38 162.234C250.049 162.811 250.829 163.115 251.723 163.146C255.089 163.645 258.473 163.949 261.873 164.057Z" fill="#1D2327"/>
<path fill-rule="evenodd" clip-rule="evenodd" d="M232.721 89.0576C249.059 102.456 256.303 119.73 254.452 140.881C251.2 160.734 241.006 175.795 223.872 186.063C208.519 194.111 192.47 195.847 175.724 191.271C168.032 188.77 161.178 184.864 155.164 179.552C166.855 187.248 179.695 189.939 193.682 187.625C209.31 185.424 222.107 178.262 232.07 166.141C244.498 151.041 249.183 133.767 246.124 114.318C244.75 107.922 242.234 102.02 238.577 96.6097C236.761 93.9709 234.809 91.4535 232.721 89.0576Z" fill="#5C6167"/>
<path fill-rule="evenodd" clip-rule="evenodd" d="M194.723 77.5985C204.594 77.5069 213.963 79.6337 222.831 83.9788C240.09 96.0004 247.421 112.537 244.823 133.588C243.278 145.182 238.767 155.426 231.289 164.317C227.847 167.936 224.247 171.365 220.489 174.604C207.712 183.986 193.398 187.805 177.546 186.062C156.396 182.45 143.167 170.254 137.857 149.474C135.85 139.549 136.544 129.826 139.939 120.307C145.956 103.958 156.67 91.7616 172.081 83.7183C179.318 80.411 186.866 78.3712 194.723 77.5985Z" fill="#8A8E93"/>
<path fill-rule="evenodd" clip-rule="evenodd" d="M192.904 84.6301C210.854 83.5603 224.257 90.7653 233.113 106.245C238.816 117.815 239.77 129.794 235.976 142.182C230.617 157.528 220.597 168.682 205.916 175.646C184.042 184.291 165.694 179.56 150.872 161.453C143.274 149.861 141.365 137.361 145.146 123.953C148.062 114.177 153.397 105.974 161.152 99.3436C167.664 92.9155 175.385 88.5754 184.315 86.3228C187.197 85.6679 190.06 85.1035 192.904 84.6301Z" fill="#1D2428"/>
<path fill-rule="evenodd" clip-rule="evenodd" d="M155.684 125.776C157.681 126.202 159.676 126.679 161.67 127.208C162.559 128.466 162.299 129.291 160.889 129.682C159.143 129.367 157.407 129.02 155.684 128.641C155.027 128.41 154.333 128.193 153.602 127.99C153.344 127.19 153.43 126.409 153.862 125.646C154.46 125.641 155.067 125.685 155.684 125.776Z" fill="#AAB2B8"/>
<path fill-rule="evenodd" clip-rule="evenodd" d="M231.162 107.027C221.233 94.0775 208.134 88.739 191.864 91.0109C175.477 94.9127 163.114 104.157 154.777 118.745C148.199 131.165 147.418 143.925 152.434 157.027C154.167 160.971 156.64 164.356 159.852 167.183C160.799 167.957 161.667 168.825 162.454 169.787C151.062 162.008 145.336 151.157 145.277 137.235C145.379 125.599 149.153 115.355 156.599 106.506C161.312 101.352 166.56 96.8812 172.344 93.0942C184.433 86.4473 197.099 84.9718 210.342 88.6671C219.714 92.0867 226.654 98.2065 231.162 107.027Z" fill="#595E64"/>
<path fill-rule="evenodd" clip-rule="evenodd" d="M231.159 107.026C232.168 108.697 233.035 110.433 233.762 112.235C231.143 109.219 228.28 106.224 225.174 103.25C219.086 98.5546 212.232 95.7335 204.613 94.7866C204.613 94.4395 204.613 94.0921 204.613 93.745C203.253 93.1268 202.299 93.4739 201.75 94.7866C184.014 95.9111 170.177 103.811 160.239 118.485C158.806 120.656 157.505 122.913 156.335 125.255C156.076 125.403 155.86 125.576 155.685 125.776C155.068 125.685 154.461 125.641 153.863 125.646C153.431 126.409 153.344 127.19 153.603 127.99C154.334 128.193 155.028 128.411 155.685 128.641C155.424 128.641 155.164 128.641 154.904 128.641C153.865 132.317 153.041 136.049 152.431 139.839C151.645 146.913 152.686 153.684 155.555 160.151C156.288 161.315 156.895 162.53 157.376 163.797C158.191 164.873 159.102 165.872 160.109 166.792C159.964 166.892 159.878 167.022 159.849 167.182C156.637 164.356 154.164 160.971 152.431 157.026C147.415 143.925 148.196 131.164 154.774 118.745C163.111 104.157 175.474 94.9124 191.86 91.0106C208.131 88.7387 221.23 94.0773 231.159 107.026Z" fill="#DEE1E3"/>
<path fill-rule="evenodd" clip-rule="evenodd" d="M201.752 94.7861C201.105 97.1153 200.498 99.459 199.93 101.817C199.903 102.7 200.337 103.048 201.232 102.859C201.705 102.82 202.096 102.647 202.403 102.338C202.963 99.7372 203.701 97.22 204.615 94.7861C212.234 95.733 219.087 98.5541 225.175 103.25C228.282 106.223 231.145 109.218 233.764 112.234C235.777 116.766 236.645 121.541 236.366 126.557C235.79 146.078 227.201 160.878 210.601 170.958C201.666 175.819 192.123 177.989 181.973 177.468C174.722 176.716 168.216 174.155 162.453 169.786C161.665 168.824 160.798 167.956 159.851 167.182C159.88 167.021 159.966 166.891 160.111 166.791C159.104 165.871 158.193 164.873 157.378 163.797C156.897 162.529 156.29 161.314 155.556 160.151C152.688 153.684 151.647 146.913 152.433 139.838C153.043 136.049 153.867 132.316 154.906 128.64C155.166 128.64 155.426 128.64 155.687 128.64C157.41 129.02 159.145 129.367 160.892 129.682C162.301 129.291 162.562 128.466 161.672 127.208C159.679 126.679 157.683 126.202 155.687 125.776C155.861 125.576 156.078 125.402 156.337 125.255C157.507 122.913 158.808 120.656 160.241 118.484C170.178 103.81 184.016 95.9106 201.752 94.7861Z" fill="#F9FAFB"/>
<path fill-rule="evenodd" clip-rule="evenodd" d="M162.972 157.026C174.296 151.652 185.66 146.314 197.066 141.01C204.589 132.313 212.05 123.589 219.448 114.838C219.919 114.494 220.44 114.364 221.01 114.447C221.463 114.869 221.94 115.26 222.441 115.619C222.615 116.053 222.615 116.487 222.441 116.921C214.943 125.978 207.352 134.963 199.668 143.875C188.36 149.446 176.909 154.828 165.314 160.02C163.147 160.149 162.366 159.151 162.972 157.026Z" fill="#DEE1E2"/>
<path fill-rule="evenodd" clip-rule="evenodd" d="M219.449 114.839C212.051 123.589 204.59 132.313 197.067 141.01C185.661 146.314 174.297 151.653 162.973 157.026C161.98 157.523 160.939 157.871 159.85 158.068C159.789 157.358 160.005 156.75 160.501 156.245C168.861 146.056 177.32 135.943 185.876 125.906C198.137 120.644 210.369 115.306 222.572 109.891C222.989 110.03 223.119 110.29 222.963 110.672C221.736 112.028 220.565 113.416 219.449 114.839Z" fill="#1B4D7E"/>
<path fill-rule="evenodd" clip-rule="evenodd" d="M224.654 139.058C226.695 139.329 228.69 139.807 230.64 140.49C231.329 140.619 232.023 140.663 232.722 140.62C232.764 141.578 232.504 142.446 231.941 143.224C229.348 142.633 226.746 142.068 224.134 141.532C223.673 140.529 223.847 139.705 224.654 139.058Z" fill="#AAB2B8"/>
<path fill-rule="evenodd" clip-rule="evenodd" d="M187.437 127.859C185.182 129.981 184.792 132.411 186.266 135.151C186.623 135.552 187.013 135.9 187.437 136.193C187.228 136.433 187.185 136.693 187.307 136.974C189.582 138.909 191.968 139.039 194.464 137.365C196.462 135.365 196.939 133.065 195.896 130.464C195.625 130.148 195.322 129.888 194.985 129.682C195.168 129.202 195.515 129.072 196.026 129.292C199.485 133.221 199.051 136.693 194.725 139.708C191.658 140.753 188.708 140.493 185.876 138.927C185.204 138.128 184.596 137.303 184.054 136.453C183.778 134.553 183.735 132.643 183.924 130.724C184.36 129.851 184.924 129.07 185.615 128.38C186.274 128.527 186.881 128.353 187.437 127.859Z" fill="#1B4D7E"/>
<path fill-rule="evenodd" clip-rule="evenodd" d="M194.984 129.683C195.32 129.888 195.624 130.149 195.894 130.464C196.938 133.065 196.461 135.366 194.463 137.365C191.967 139.039 189.581 138.909 187.306 136.974C187.184 136.694 187.227 136.433 187.436 136.193C187.724 136.479 188.071 136.653 188.477 136.714C193.604 137.139 195.773 134.795 194.984 129.683Z" fill="#1B4D7E"/>
<path fill-rule="evenodd" clip-rule="evenodd" d="M184.054 136.453C184.596 137.304 185.204 138.128 185.876 138.927C188.708 140.493 191.658 140.753 194.725 139.709C199.051 136.693 199.485 133.221 196.026 129.292C195.515 129.072 195.168 129.202 194.985 129.683C194.61 129.198 194.177 128.764 193.684 128.381C192.797 127.519 191.713 127.085 190.43 127.078C189.38 127.154 188.382 127.415 187.437 127.86C187.872 127.503 188.045 127.112 187.958 126.688C198.224 122.331 208.461 117.99 218.668 113.667C212.435 120.804 206.232 127.966 200.06 135.151C199.34 136.131 198.733 137.172 198.238 138.276C197.011 139.162 195.796 140.03 194.595 140.881C194.449 140.745 194.275 140.658 194.074 140.62C184.333 145.146 174.617 149.747 164.925 154.422C164.79 153.956 164.876 153.522 165.185 153.12C171.085 146.002 176.984 138.884 182.883 131.766C182.954 133.275 183.215 134.751 183.664 136.193C183.763 136.338 183.894 136.425 184.054 136.453Z" fill="url(#paint0_linear_14120_3885)"/>
<path fill-rule="evenodd" clip-rule="evenodd" d="M193.685 128.38C194.178 128.763 194.612 129.198 194.986 129.682C195.776 134.794 193.607 137.138 188.48 136.713C188.366 136.303 188.106 135.999 187.699 135.802C192.193 135.262 194.188 132.788 193.685 128.38Z" fill="#E3E6E7"/>
<path fill-rule="evenodd" clip-rule="evenodd" d="M193.682 128.38C194.185 132.788 192.19 135.262 187.697 135.802C188.103 136 188.364 136.304 188.477 136.714C188.071 136.653 187.724 136.479 187.436 136.193C187.012 135.9 186.622 135.552 186.265 135.151C184.79 132.411 185.181 129.981 187.436 127.859C188.38 127.415 189.378 127.154 190.429 127.078C191.712 127.085 192.796 127.519 193.682 128.38Z" fill="#FCFCFD"/>
<path fill-rule="evenodd" clip-rule="evenodd" d="M204.616 94.7868C203.701 97.2207 202.964 99.7379 202.403 102.339C202.096 102.647 201.706 102.821 201.232 102.86C200.337 103.048 199.904 102.701 199.931 101.818C200.498 99.4598 201.106 97.116 201.753 94.7868C202.301 93.4741 203.256 93.1269 204.616 93.7452C204.616 94.0923 204.616 94.4397 204.616 94.7868Z" fill="#AAB2B8"/>
<path fill-rule="evenodd" clip-rule="evenodd" d="M216.325 70.3077C216.114 70.608 215.854 70.608 215.545 70.3077C215.458 70.4814 215.371 70.6548 215.284 70.8285C215.083 72.9913 214.953 75.1616 214.894 77.339C214.862 77.8434 214.645 78.1905 214.243 78.3806C211.076 77.4864 207.866 76.7918 204.614 76.2973C204.571 74.2121 204.614 72.1288 204.744 70.0473C204.841 69.8087 204.971 69.5916 205.134 69.3962C208.986 68.3293 212.716 68.6332 216.325 70.3077Z" fill="#8A8D92"/>
<path fill-rule="evenodd" clip-rule="evenodd" d="M216.324 70.3076C219.27 71.63 220.354 73.887 219.577 77.0785C219.311 78.0959 218.921 79.0508 218.406 79.943C216.972 79.466 215.584 78.9451 214.242 78.3805C214.644 78.1904 214.861 77.8433 214.893 77.3389C214.952 75.1615 215.082 72.9912 215.283 70.8285C215.37 70.6548 215.457 70.4813 215.543 70.3076C215.852 70.6079 216.113 70.6079 216.324 70.3076Z" fill="#4F5155"/>
<path fill-rule="evenodd" clip-rule="evenodd" d="M213.202 49.2132C221.43 48.4434 226.939 51.9158 229.728 59.6298C230.725 65.4931 229.033 70.3975 224.653 74.3434C223.746 75.1017 222.704 75.4923 221.53 75.5152C221.65 74.216 221.389 73.0007 220.749 71.8694C223.555 69.3796 225.117 66.2546 225.434 62.4944C224.672 57.6093 221.809 54.8749 216.845 54.2913C210.786 53.6543 206.405 56.0415 203.702 61.4527C203.462 63.4764 203.592 65.4731 204.093 67.4423C203.542 68.7043 203.065 70.0064 202.661 71.3486C199.879 68.2837 199.011 64.7246 200.059 60.6715C202.485 54.5793 206.866 50.7598 213.202 49.2132Z" fill="#71767C"/>
<path fill-rule="evenodd" clip-rule="evenodd" d="M212.424 56.2444C215.605 55.9121 218.555 56.5631 221.273 58.1975C223.303 59.8642 224.04 61.991 223.485 64.5777C222.939 66.9433 221.68 68.8097 219.711 70.1767C218.526 69.5303 217.312 68.8358 216.068 68.0933C215.287 67.8329 214.506 67.5725 213.725 67.3121C211.155 66.941 208.596 66.8108 206.048 66.9215C204.379 63.1608 205.29 60.166 208.78 57.9371C209.99 57.2876 211.204 56.7233 212.424 56.2444Z" fill="#FCFCFC"/>
<path fill-rule="evenodd" clip-rule="evenodd" d="M63.2925 207.286C64.8225 207.758 66.3841 208.148 67.9771 208.458C80.0341 210.176 91.9193 212.694 103.632 216.01C107.595 217.245 111.499 218.634 115.344 220.177C121.93 223.256 128.523 226.251 135.124 229.161C133.36 229.051 131.626 228.748 129.919 228.25C110.158 222.135 90.205 216.84 70.0592 212.364C67.0033 211.661 64.4873 210.098 62.5117 207.677C62.7587 207.516 62.9756 207.559 63.1624 207.807C63.2832 207.652 63.3266 207.479 63.2925 207.286Z" fill="#E7E9EA"/>
<path fill-rule="evenodd" clip-rule="evenodd" d="M134.084 147.651C134.53 147.974 135.051 148.148 135.646 148.172C135.646 148.78 135.646 149.388 135.646 149.995C131.6 148.962 127.523 148.05 123.414 147.261C120.898 147.087 118.382 147.087 115.866 147.261C113.667 147.675 111.671 148.544 109.88 149.865C105.143 154.735 100.458 159.64 95.8264 164.578C95.2218 165.262 94.6143 165.957 94.0046 166.662C86.3793 174.335 78.7883 182.061 71.232 189.839C71.1112 189.994 71.0678 190.167 71.1019 190.36C67.8846 193.275 64.8916 196.4 62.123 199.735C60.7708 201.641 60.9877 203.334 62.7736 204.813C64.0062 205.447 65.3075 205.881 66.6775 206.115C74.8467 207.518 83.0014 208.994 91.1417 210.542C99.6982 212.422 108.026 215.026 116.126 218.355C122.137 221.275 128.21 224.053 134.345 226.688C136.813 227.613 139.329 228.351 141.892 228.901C142.533 229.17 143.226 229.344 143.974 229.422C147.4 230.194 150.87 230.671 154.384 230.855C162.8 231.178 171.215 231.525 179.629 231.896C187.132 232.582 194.506 233.97 201.751 236.063C208.36 237.833 214.953 239.656 221.531 241.532C227.41 243.04 232.485 241.695 236.756 237.495C242.282 228.284 248.051 219.256 254.063 210.412C254.32 210.075 254.581 209.727 254.844 209.37C262.479 197.17 270.07 184.93 277.617 172.651C278.529 169.92 277.618 168.14 274.884 167.313C269.31 166.655 263.758 166.177 258.227 165.881C258.927 165.923 259.621 165.88 260.309 165.75C259.529 165.664 258.748 165.577 257.967 165.49C258.46 165.209 258.547 164.862 258.227 164.448C259.49 164.403 260.704 164.273 261.871 164.058C266.043 164.239 270.207 164.542 274.363 164.969C279.257 165.868 280.993 168.689 279.568 173.433C266.059 195.52 252.222 217.395 238.057 239.058C234.03 243.204 229.129 244.809 223.353 243.875C211.345 240.633 199.286 237.595 187.177 234.761C177.928 233.681 168.645 233.16 159.329 233.198C155.934 232.949 152.551 232.645 149.179 232.287C144.386 231.739 139.701 230.697 135.125 229.162C128.525 226.251 121.932 223.257 115.346 220.177C111.501 218.634 107.597 217.246 103.634 216.011C91.9209 212.694 80.0357 210.177 67.9788 208.459C66.3857 208.149 64.8242 207.758 63.2941 207.287C58.8553 205.433 57.9444 202.482 60.5614 198.433C76.4806 181.809 92.3995 165.186 108.319 148.563C110.543 146.8 113.059 145.671 115.866 145.177C119.085 144.965 122.295 145.052 125.496 145.438C128.421 146.061 131.284 146.799 134.084 147.651Z" fill="#272C31"/>
<path fill-rule="evenodd" clip-rule="evenodd" d="M237.148 193.745C236.845 196.603 236.715 199.468 236.757 202.339C237.21 203.313 237.86 204.138 238.709 204.813C242.1 206.747 245.743 207.962 249.64 208.459C251.375 208.545 253.11 208.632 254.845 208.719C254.514 208.974 254.514 209.191 254.845 209.37C254.582 209.727 254.322 210.075 254.064 210.412C248.203 211.211 242.651 210.039 237.408 206.896C236.068 205.733 235.157 204.301 234.675 202.599C234.515 200.37 234.645 198.156 235.066 195.959C235.065 195.344 234.978 194.78 234.805 194.266C234.022 192.828 232.981 191.569 231.682 190.49C230.17 189.34 228.695 188.124 227.258 186.844C228.16 186.331 229.028 185.767 229.86 185.151C230.071 185.232 230.244 185.362 230.381 185.542C230.034 185.802 230.034 186.063 230.381 186.323C232.276 187.51 234.054 188.856 235.716 190.36C236.306 191.476 236.783 192.605 237.148 193.745Z" fill="#6C8093"/>
<path fill-rule="evenodd" clip-rule="evenodd" d="M139.29 196.609C139.896 197.173 140.59 197.608 141.372 197.911C135.959 202.683 129.627 204.896 122.373 204.552C113.253 202.848 109.696 197.423 111.702 188.276C111.302 186.614 110.347 185.355 108.839 184.5C103.571 182.189 98.1921 181.929 92.7035 183.718C89.8846 185.607 87.0218 187.429 84.115 189.187C81.331 190.061 78.5548 190.929 75.7867 191.791C74.0633 192.162 72.3281 192.336 70.5816 192.312C70.3213 192.226 70.061 192.139 69.8008 192.052C70.3968 191.589 70.8306 191.025 71.1021 190.359C71.3074 190.285 71.481 190.155 71.6226 189.968C78.3214 189.392 84.2206 186.962 89.3201 182.677C93.472 180.483 97.8964 179.615 102.593 180.073C107.059 180.314 110.833 182.007 113.915 185.151C114.32 186.064 114.537 187.019 114.565 188.015C114.305 190.182 114.262 192.352 114.435 194.526C114.741 196.484 115.565 198.176 116.907 199.604C118.768 200.978 120.85 201.846 123.154 202.208C129.245 202.332 134.624 200.466 139.29 196.609Z" fill="#6C8093"/>
<path fill-rule="evenodd" clip-rule="evenodd" d="M149.44 196.609C149.554 197.019 149.814 197.323 150.221 197.52C153.766 198.885 157.409 199.926 161.152 200.645C164.535 201.717 167.744 203.193 170.781 205.073C174.595 207.54 176.461 211.056 176.377 215.619C177.546 215.469 178.717 215.599 179.89 216.01C185.184 216.216 190.389 215.608 195.506 214.187C196.373 213.753 197.241 213.319 198.108 212.885C198.433 211.13 199.388 209.871 200.971 209.109C201 209.27 201.087 209.4 201.231 209.5C200.83 209.989 200.353 210.379 199.8 210.671C199.496 211.453 199.193 212.234 198.889 213.015C199.144 213.354 199.057 213.658 198.629 213.927C198.748 214.432 199.008 214.823 199.41 215.099C195.585 217.032 191.508 218.117 187.177 218.354C183.139 218.711 179.149 218.45 175.206 217.573C170.098 217.13 165.066 217.563 160.111 218.875C154.543 221.227 149.685 224.613 145.536 229.031C144.962 229.081 144.441 229.211 143.975 229.421C143.227 229.343 142.533 229.169 141.893 228.901C142.166 228.939 142.427 228.896 142.673 228.77C142.054 228.637 141.447 228.464 140.852 228.25C144.987 225.703 148.89 222.838 152.563 219.656C156.491 217.177 160.742 215.615 165.316 214.968C167.912 214.694 170.514 214.564 173.124 214.578C173.06 211.629 171.845 209.242 169.48 207.416C167 205.488 164.224 204.1 161.152 203.25C157.493 202.274 153.849 201.232 150.221 200.125C148.874 199.763 147.659 199.156 146.577 198.302C145.055 198.257 143.58 198.126 142.153 197.911C143.371 197.954 144.585 197.911 145.796 197.781C145.339 197.728 144.906 197.598 144.495 197.39C144.582 197.13 144.755 196.956 145.016 196.869C145.346 197.111 145.693 197.155 146.057 197C146.273 195.73 146.793 195.556 147.618 196.479C147.264 197.033 147.35 197.163 147.879 196.869C148.052 197.043 148.225 197.217 148.399 197.39C148.696 197.045 149.043 196.784 149.44 196.609Z" fill="#6C8093"/>
<path fill-rule="evenodd" clip-rule="evenodd" d="M141.371 189.318C143.022 189.275 144.67 189.318 146.316 189.448C150.506 190.539 151.547 192.926 149.439 196.61C149.043 196.785 148.695 197.046 148.398 197.391C148.225 197.217 148.051 197.044 147.878 196.87C147.35 197.164 147.263 197.034 147.617 196.479C146.792 195.557 146.272 195.73 146.056 197C145.692 197.155 145.345 197.112 145.015 196.87C144.755 196.957 144.581 197.13 144.494 197.391C144.905 197.599 145.339 197.729 145.796 197.782C144.584 197.911 143.37 197.955 142.152 197.912C141.892 197.912 141.631 197.912 141.371 197.912C140.59 197.608 139.896 197.174 139.289 196.61C138.103 195.842 137.496 194.757 137.467 193.354C137.318 191.87 137.925 190.872 139.289 190.36C139.928 189.936 140.622 189.589 141.371 189.318Z" fill="#6C8093"/>
<path fill-rule="evenodd" clip-rule="evenodd" d="M256.145 165.88C255.153 165.792 254.199 165.922 253.282 166.271C255.189 167.398 257.098 168.526 259.007 169.656C260.611 171.276 261.652 173.186 262.13 175.385C262.144 176.133 261.971 176.828 261.61 177.468C261.697 177.555 261.784 177.642 261.87 177.729C261.298 178.503 260.821 179.328 260.439 180.203C259.281 180.754 258.37 181.579 257.706 182.677C256.815 182.639 256.295 183.03 256.145 183.849C255.198 184.533 254.243 185.227 253.282 185.932C252.636 186.296 251.942 186.513 251.2 186.583C250.523 187.618 249.569 188.269 248.337 188.536C247.986 188.93 247.596 189.278 247.166 189.578C244.267 190.878 241.274 191.876 238.187 192.573C237.746 192.913 237.399 193.304 237.146 193.744C236.781 192.604 236.304 191.476 235.714 190.359C234.053 188.855 232.274 187.51 230.379 186.323C230.032 186.062 230.032 185.802 230.379 185.541C230.242 185.361 230.069 185.231 229.858 185.151C229.026 185.766 228.158 186.33 227.256 186.843C228.693 188.124 230.168 189.339 231.68 190.489C232.979 191.568 234.02 192.827 234.803 194.265C222.529 197.998 209.95 199.517 197.066 198.823C186.195 198.557 175.785 196.3 165.835 192.052C161.083 189.744 157.136 186.489 153.993 182.286C153.738 181.958 153.651 181.611 153.733 181.244C154.027 181.672 154.417 181.932 154.904 182.026C157.205 183.762 159.548 185.455 161.931 187.104C162.6 187.482 163.294 187.786 164.013 188.015C170.972 192.144 178.52 194.531 186.656 195.177C208.023 197.5 225.981 190.859 240.529 175.255C243.275 172.68 245.531 169.729 247.296 166.401C247.617 165.671 248.008 164.977 248.467 164.317C249.427 164.721 250.425 165.024 251.46 165.229C253.071 165.363 254.632 165.58 256.145 165.88Z" fill="#D3D8DB"/>
<path fill-rule="evenodd" clip-rule="evenodd" d="M141.372 197.911C141.633 197.911 141.893 197.911 142.153 197.911C143.581 198.127 145.056 198.257 146.578 198.302C147.66 199.156 148.874 199.764 150.221 200.125C153.85 201.233 157.493 202.274 161.152 203.25C164.224 204.1 167 205.489 169.48 207.416C171.846 209.242 173.06 211.629 173.124 214.578C170.515 214.564 167.912 214.694 165.316 214.969C160.742 215.615 156.492 217.177 152.564 219.656C148.891 222.839 144.987 225.703 140.852 228.25C141.447 228.464 142.055 228.638 142.674 228.771C142.427 228.896 142.167 228.94 141.893 228.901C139.33 228.35 136.814 227.612 134.345 226.687C128.211 224.052 122.138 221.274 116.127 218.354C108.027 215.026 99.6992 212.421 91.1427 210.541C83.0023 208.993 74.8477 207.518 66.6784 206.114C65.3084 205.88 64.0072 205.446 62.7746 204.812C60.9887 203.333 60.7718 201.64 62.1239 199.734C64.8925 196.4 67.8855 193.275 71.1028 190.359C70.8314 191.025 70.3975 191.589 69.8015 192.052C70.0618 192.139 70.3221 192.226 70.5823 192.312C72.3289 192.336 74.064 192.162 75.7875 191.791C78.5556 190.929 81.3317 190.061 84.1157 189.187C87.0225 187.429 89.8854 185.607 92.7042 183.719C98.1928 181.929 103.571 182.189 108.84 184.5C110.348 185.355 111.302 186.614 111.703 188.276C109.697 197.423 113.254 202.849 122.374 204.552C129.627 204.896 135.96 202.683 141.372 197.911Z" fill="#ECEEF0"/>
<path fill-rule="evenodd" clip-rule="evenodd" d="M148.137 174.214C148.532 174.217 148.835 174.39 149.048 174.735C149.481 175.342 149.915 175.95 150.349 176.558C154.561 180.847 159.115 184.666 164.012 188.016C163.294 187.787 162.6 187.483 161.93 187.104C159.547 185.456 157.205 183.763 154.903 182.026C152.356 179.653 150.101 177.049 148.137 174.214Z" fill="#5B5F64"/>
<path fill-rule="evenodd" clip-rule="evenodd" d="M145.275 170.047C146.007 170.814 146.614 171.682 147.097 172.651C144.373 174.116 141.901 175.939 139.68 178.12C138.34 179.81 137.906 181.72 138.378 183.849C139.338 185.714 140.336 187.537 141.371 189.318C140.622 189.589 139.928 189.936 139.289 190.359C138.151 188.911 137.153 187.348 136.296 185.672C134.879 182.807 135.14 180.116 137.077 177.599C139.705 174.926 142.438 172.408 145.275 170.047Z" fill="#6C8093"/>
<path fill-rule="evenodd" clip-rule="evenodd" d="M147.098 172.651C147.445 173.172 147.793 173.693 148.14 174.214C150.103 177.049 152.359 179.653 154.906 182.026C154.419 181.933 154.029 181.672 153.735 181.245C153.653 181.612 153.74 181.959 153.995 182.287C157.138 186.489 161.085 189.745 165.837 192.052C175.787 196.301 186.197 198.558 197.068 198.823C209.952 199.518 222.531 197.999 234.805 194.266C234.978 194.78 235.065 195.344 235.066 195.959C234.645 198.156 234.515 200.37 234.675 202.599C235.157 204.301 236.068 205.733 237.408 206.896C242.651 210.039 248.203 211.211 254.064 210.412C248.053 219.256 242.283 228.284 236.757 237.495C232.487 241.695 227.412 243.04 221.532 241.532C214.954 239.656 208.361 237.833 201.753 236.063C194.507 233.97 187.133 232.582 179.631 231.896C171.216 231.525 162.801 231.178 154.386 230.854C150.871 230.671 147.401 230.194 143.975 229.422C144.442 229.212 144.962 229.081 145.537 229.032C149.686 224.613 154.544 221.228 160.111 218.875C165.067 217.564 170.099 217.13 175.206 217.573C179.149 218.451 183.14 218.711 187.178 218.354C191.509 218.118 195.586 217.033 199.41 215.099C201.365 216.491 203.577 217.185 206.047 217.183C207.983 216.847 209.848 216.283 211.642 215.49C213.489 214.033 213.706 212.34 212.293 210.412C210.295 208.786 207.996 208.092 205.396 208.328C203.82 208.216 202.346 208.477 200.972 209.11C199.388 209.872 198.434 211.131 198.109 212.886C197.242 213.32 196.374 213.754 195.506 214.188C190.39 215.609 185.185 216.217 179.891 216.011C178.718 215.6 177.547 215.469 176.377 215.62C176.461 211.056 174.596 207.541 170.782 205.073C167.745 203.194 164.535 201.718 161.152 200.646C157.41 199.927 153.766 198.885 150.222 197.521C149.815 197.324 149.555 197.02 149.441 196.61C151.548 192.926 150.507 190.539 146.318 189.448C144.672 189.318 143.023 189.275 141.373 189.318C140.337 187.537 139.34 185.714 138.38 183.849C137.908 181.72 138.342 179.81 139.681 178.12C141.902 175.939 144.375 174.116 147.098 172.651Z" fill="#ECEEF0"/>
<path fill-rule="evenodd" clip-rule="evenodd" d="M199.41 215.099C199.008 214.823 198.748 214.432 198.629 213.927C199.057 213.659 199.144 213.355 198.889 213.016C199.193 212.235 199.496 211.453 199.8 210.672C200.353 210.38 200.83 209.989 201.231 209.5C201.087 209.4 201 209.27 200.971 209.11C202.345 208.477 203.819 208.216 205.396 208.328C207.995 208.092 210.294 208.786 212.292 210.412C213.705 212.34 213.489 214.032 211.642 215.49C209.848 216.283 207.982 216.847 206.046 217.182C203.576 217.185 201.364 216.491 199.41 215.099Z" fill="#6C8093"/>
<path fill-rule="evenodd" clip-rule="evenodd" d="M247.298 166.401C245.533 169.729 243.277 172.681 240.531 175.255C242.795 172.334 244.921 169.296 246.908 166.141C247.007 166.285 247.137 166.372 247.298 166.401Z" fill="#51555B"/>
<path fill-rule="evenodd" clip-rule="evenodd" d="M95.8257 164.578C96.8967 165.593 98.1113 166.418 99.4693 167.052C100.652 167.504 101.866 167.852 103.113 168.094C106.504 168.302 109.888 168.215 113.263 167.833C114.43 167.607 115.558 167.259 116.646 166.792C117.178 166.662 117.525 166.358 117.687 165.88C118.181 166.676 118.875 167.24 119.769 167.573C120.846 167.791 121.887 168.009 122.893 168.224C122.193 168.181 121.499 168.225 120.81 168.354C117.321 169.509 113.764 170.377 110.14 170.958C105.976 171.154 101.899 170.634 97.9078 169.396C96.3564 168.786 95.0551 167.875 94.0039 166.661C94.6137 165.957 95.2211 165.262 95.8257 164.578Z" fill="#6C8093"/>
<path fill-rule="evenodd" clip-rule="evenodd" d="M256.147 165.88C256.841 165.88 257.535 165.88 258.229 165.88C263.759 166.176 269.311 166.654 274.886 167.312C277.62 168.14 278.531 169.92 277.618 172.651C270.072 184.929 262.481 197.169 254.846 209.37C254.514 209.19 254.514 208.973 254.846 208.719C253.111 208.632 251.376 208.545 249.641 208.458C245.744 207.962 242.1 206.746 238.71 204.812C237.861 204.137 237.21 203.313 236.758 202.338C236.715 199.467 236.846 196.603 237.148 193.745C237.402 193.304 237.749 192.913 238.189 192.573C241.277 191.876 244.27 190.878 247.168 189.578C247.599 189.278 247.989 188.93 248.339 188.536C249.571 188.269 250.526 187.618 251.202 186.583C251.944 186.513 252.638 186.296 253.284 185.932C254.246 185.227 255.2 184.533 256.147 183.849C256.297 183.03 256.818 182.639 257.709 182.677C258.372 181.579 259.283 180.754 260.441 180.203C260.824 179.328 261.301 178.503 261.873 177.729C261.786 177.642 261.699 177.555 261.612 177.469C261.974 176.828 262.147 176.133 262.133 175.385C261.654 173.186 260.613 171.276 259.01 169.656C257.1 168.526 255.192 167.398 253.284 166.271C254.202 165.922 255.156 165.792 256.147 165.88Z" fill="#ECEEEF"/>
<path fill-rule="evenodd" clip-rule="evenodd" d="M182.234 165.359C183.24 165.171 183.934 165.518 184.316 166.401C183.472 169.237 182.604 172.058 181.713 174.865C181.175 175.044 180.654 175 180.151 174.734C180.024 171.424 180.718 168.299 182.234 165.359Z" fill="#ABB2B8"/>
<path fill-rule="evenodd" clip-rule="evenodd" d="M149.181 232.286C152.553 232.645 155.936 232.948 159.331 233.198C168.647 233.16 177.93 233.681 187.179 234.76C199.288 237.594 211.347 240.633 223.355 243.875C229.131 244.809 234.032 243.203 238.059 239.057C252.224 217.395 266.061 195.52 279.57 173.432C279.731 173.461 279.861 173.548 279.961 173.693C280.185 173.279 280.359 172.845 280.481 172.391C280.85 173.674 280.937 174.976 280.742 176.297C279.811 178.42 278.813 180.503 277.749 182.547C272.425 189.912 267.697 197.638 263.565 205.724C262.77 206.606 262.076 207.561 261.482 208.589C259.936 211.603 258.201 214.467 256.277 217.182C255.792 218.82 254.924 220.209 253.675 221.349C250.205 227.158 246.648 232.887 243.004 238.536C240.715 241.478 237.983 243.909 234.806 245.828C233.871 246.201 232.917 246.504 231.943 246.74C228.035 246.895 224.131 246.808 220.232 246.479C214.695 245.198 209.143 243.982 203.575 242.833C189.419 240.556 175.279 238.212 161.153 235.802C156.557 234.739 151.959 233.698 147.359 232.677C148.019 232.629 148.627 232.498 149.181 232.286Z" fill="#E6E9EA"/>
</g>
<path fill-rule="evenodd" clip-rule="evenodd" d="M103.91 100.346C135.937 72.677 159.959 25.669 202.066 30.1317C248.946 35.1002 283.375 77.4878 301.013 121.236C318.924 165.66 323.486 220.072 293.764 257.577C266.62 291.829 215.692 283.347 171.984 284.053C138.162 284.6 103.602 283.527 78.2824 261.061C52.2021 237.921 36.3361 202.982 41.8241 168.566C46.9206 136.604 79.4316 121.493 103.91 100.346Z" fill="#2466A8" fill-opacity="0.04"/>
<defs>
<linearGradient id="paint0_linear_14120_3885" x1="164.863" y1="154.422" x2="222.632" y2="147.694" gradientUnits="userSpaceOnUse">
<stop stop-color="#1B4D7E"/>
<stop offset="0.33" stop-color="#2D80D2"/>
<stop offset="1" stop-color="#1B4D7E"/>
</linearGradient>
<clipPath id="clip0_14120_3885">
<rect width="222" height="200" fill="white" transform="translate(59 47)"/>
</clipPath>
</defs>
</svg>