<svg width="46" height="46" viewBox="0 0 46 46" fill="none" xmlns="http://www.w3.org/2000/svg">
<path d="M32.8164 20.0725C33.5532 18.4874 33.958 16.7603 33.958 14.9529C33.958 7.24695 26.5994 1 17.522 1C8.4446 1 1.08594 7.24695 1.08594 14.9529C1.08594 19.3087 3.4371 23.1983 7.1208 25.7571L5.75116 33.9733L14.0107 28.5867C15.142 28.7957 16.3168 28.9059 17.522 28.9059C18.4685 28.9059 19.3964 28.8379 20.2992 28.7075M28.506 31.2915L30.814 33.5995L36.4558 27.9579M13.7832 11.4445C13.7832 9.79675 15.1014 8.31385 16.9139 8.31385C18.5617 8.31385 20.0446 9.63197 20.0446 11.4445C20.0446 13.0922 18.7264 14.5752 16.9139 14.5752V15.9648M20.045 30.6113C20.045 36.4421 25.613 41.1689 32.4814 41.1689C33.393 41.1689 34.2818 41.0855 35.1378 40.9275L41.3874 45.0033L40.3512 38.7867C43.1386 36.8505 44.9178 33.9073 44.9178 30.6113C44.9178 24.7805 39.3498 20.0537 32.4814 20.0537C25.613 20.0537 20.045 24.7805 20.045 30.6113ZM16.9141 20.5295C16.6988 20.5295 16.4834 20.7447 16.4834 20.9601C16.4834 21.1755 16.6988 21.3909 16.9141 21.3909C17.1295 21.3909 17.3447 21.1755 17.3447 20.9601C17.3447 20.7447 17.1295 20.5295 16.9141 20.5295Z" stroke="#2466A8" stroke-width="2" stroke-linecap="round" stroke-linejoin="round"/>
</svg>
