<svg width="32" height="49" viewBox="0 0 32 49" fill="none" xmlns="http://www.w3.org/2000/svg">
<path d="M1 23.4L14.89 32.662C15.5621 33.1104 16.4379 33.1104 17.11 32.662L31 23.4M1 30.4L14.89 39.662C15.5621 40.1104 16.4379 40.1104 17.11 39.662L31 30.4M1 20.144C0.999889 19.4062 1.40596 18.7283 2.05647 18.3802C2.70698 18.0322 3.49628 18.0705 4.11 18.48L14.89 25.668C15.5621 26.1164 16.4379 26.1164 17.11 25.668L27.89 18.48C28.5037 18.0705 29.293 18.0322 29.9435 18.3802C30.594 18.7283 31.0001 19.4062 31 20.144V36.344C31.0001 37.0125 30.6661 37.6369 30.11 38.008L17.11 46.674C16.4379 47.1224 15.5621 47.1224 14.89 46.674L1.89 38C1.33386 37.6289 0.999901 37.0045 1 36.336V20.144ZM16.942 1.57396L19 5.99996H23C23.414 5.98197 23.7944 6.22681 23.9494 6.61108C24.1045 6.99534 24.0005 7.43561 23.69 7.70996L20.218 11.132L22.14 15.548C22.3127 15.9629 22.2016 16.4416 21.8639 16.7381C21.5262 17.0346 21.0371 17.0828 20.648 16.858L16 14.244L11.352 16.858C10.9629 17.0828 10.4738 17.0346 10.1361 16.7381C9.79841 16.4416 9.68734 15.9629 9.86 15.548L11.782 11.132L8.312 7.71396C7.99849 7.44051 7.89227 6.99867 8.04724 6.6126C8.2022 6.22654 8.58444 5.98075 9 5.99996H13L15.058 1.57396C15.2399 1.22146 15.6033 1 16 1C16.3967 1 16.7601 1.22146 16.942 1.57396Z" stroke="#2466A8" stroke-width="2" stroke-linecap="round" stroke-linejoin="round"/>
</svg>
