<svg width="46" height="47" viewBox="0 0 46 47" fill="none" xmlns="http://www.w3.org/2000/svg">
<path d="M1.5 8H15.5M8.5 1V15M7.51659 45.6734C7.23061 45.3874 7.12173 44.9691 7.232 44.58L12.74 23.922C13.1623 22.4415 14.3195 21.2843 15.8 20.862L28 15.738L37.45 25.192L32.328 37.4C31.905 38.8801 30.7481 40.037 29.268 40.46L8.61 45.958C8.22089 46.0683 7.80257 45.9594 7.51659 45.6734ZM7.51659 45.6734L22.528 30.662M37.2884 9.27559L43.9125 15.8998C44.6936 16.6808 44.6936 17.9471 43.9125 18.7282L37.4467 25.194L27.9941 15.7414L34.4599 9.27559C35.241 8.49454 36.5073 8.49453 37.2884 9.27559Z" stroke="#2466A8" stroke-width="2" stroke-linecap="round" stroke-linejoin="round"/>
</svg>
