<svg width="42" height="48" viewBox="0 0 42 48" fill="none" xmlns="http://www.w3.org/2000/svg">
<path fill-rule="evenodd" clip-rule="evenodd" d="M16.414 6.414C16.7896 6.78947 17.0004 7.29892 17 7.83V19C17 20.1046 16.1046 21 15 21H3C1.89543 21 1 20.1046 1 19V3C1 1.89543 1.89543 1 3 1H10.172C10.7024 1.00011 11.211 1.2109 11.586 1.586L16.414 6.414ZM16.414 32.414C16.7896 32.7895 17.0004 33.2989 17 33.83V45C17 46.1046 16.1046 47 15 47H3C1.89543 47 1 46.1046 1 45V29C1 27.8954 1.89543 27 3 27H10.172C10.7024 27.0001 11.211 27.2109 11.586 27.586L16.414 32.414ZM40.414 6.414C40.7896 6.78947 41.0004 7.29892 41 7.83V19C41 20.1046 40.1046 21 39 21H27C25.8954 21 25 20.1046 25 19V3C25 1.89543 25.8954 1 27 1H34.172C34.7024 1.00011 35.211 1.2109 35.586 1.586L40.414 6.414ZM40.414 32.414C40.7896 32.7895 41.0004 33.2989 41 33.83V45C41 46.1046 40.1046 47 39 47H27C25.8954 47 25 46.1046 25 45V29C25 27.8954 25.8954 27 27 27H34.172C34.7024 27.0001 35.211 27.2109 35.586 27.586L40.414 32.414Z" stroke="#2466A8" stroke-width="2" stroke-linecap="round" stroke-linejoin="round"/>
</svg>
