<svg width="48" height="48" viewBox="0 0 48 48" fill="none" xmlns="http://www.w3.org/2000/svg">
<path d="M31.35 34.19L38.65 29.81M31.676 38.17L38.324 40.83M9 17H28M9 23H21M9 11H23M9 29H17M9 35H17M23 47H3C1.89543 47 1 46.1046 1 45V3C1 1.89543 1.89543 1 3 1H29.586C30.1164 1.00011 30.625 1.2109 31 1.586L38.414 9C38.7891 9.37499 38.9999 9.88361 39 10.414V17M23 36.5C23 38.9853 25.0147 41 27.5 41C29.9853 41 32 38.9853 32 36.5C32 34.0147 29.9853 32 27.5 32C25.0147 32 23 34.0147 23 36.5ZM38 42.5C38 44.9853 40.0147 47 42.5 47C44.9853 47 47 44.9853 47 42.5C47 40.0147 44.9853 38 42.5 38C40.0147 38 38 40.0147 38 42.5ZM38 27.5C38 29.9853 40.0147 32 42.5 32C44.9853 32 47 29.9853 47 27.5C47 25.0147 44.9853 23 42.5 23C40.0147 23 38 25.0147 38 27.5Z" stroke="#2466A8" stroke-width="2" stroke-linecap="round" stroke-linejoin="round"/>
</svg>
