<svg width="251" height="282" viewBox="0 0 251 282" fill="none" xmlns="http://www.w3.org/2000/svg">
<path fill-rule="evenodd" clip-rule="evenodd" d="M229.385 165.174C225.624 201.616 236.458 246.301 206.277 267.049C175.573 288.156 136.095 265.767 100.927 253.481C65.4026 241.07 17.748 234.744 8.99799 198.13C0.422688 162.247 47.3133 141.558 66.6754 110.155C86.6796 77.7101 84.5927 26.6853 121.207 16.1379C160.399 4.84808 203.279 30.8879 227.242 63.9016C248.104 92.6445 233.032 129.838 229.385 165.174Z" fill="#2466A8" fill-opacity="0.04"/>
<path fill-rule="evenodd" clip-rule="evenodd" d="M154.331 216.032C153.925 215.863 153.462 215.778 152.943 215.776C149.196 215.923 145.493 216.094 141.836 216.288C130.085 215.393 119.255 212.022 109.347 206.173C91.9412 195.792 80.2785 181.408 74.3589 163.023C73.8252 161.16 73.3625 159.282 72.9704 157.39C72.0741 152.218 71.6112 147.011 71.582 141.769C71.8225 139.25 72.0077 136.689 72.1374 134.086C73.498 122.639 77.6633 112.139 84.6331 102.588C85.9202 100.972 87.2161 99.3504 88.5207 97.7224C91.847 94.1427 95.4569 90.8136 99.3503 87.7352C98.8296 86.9027 98.2743 86.0917 97.6842 85.3025C95.1906 85.5324 93.108 84.8069 91.4363 83.1258C89.8627 80.821 88.2894 78.5163 86.7157 76.2116C85.7475 73.9422 86.3489 72.1068 88.5207 70.7058C93.0089 67.9107 97.5442 65.179 102.127 62.5112C103.659 61.9381 105.14 62.0233 106.57 62.7673C108.248 65.1368 109.96 67.4843 111.707 69.8095C113.282 72.3626 112.866 74.5819 110.458 76.4676C111.156 77.7591 111.989 78.9542 112.957 80.0528C122.238 75.8658 132.05 73.8172 142.391 73.9068C142.613 71.5194 142.798 69.1291 142.946 66.7365C140.538 66.5616 138.131 66.3483 135.727 66.0963C132.671 65.7542 131.051 64.1752 130.867 61.3588C130.682 56.2372 130.682 51.1155 130.867 45.9939C131.244 41.9831 133.604 40.4039 137.948 41.2564C140.546 41.6502 143.138 42.0771 145.723 42.5368C154.855 44.5355 164.019 46.4134 173.214 48.1706C177.317 49.0536 178.937 51.4011 178.073 55.2128C177.059 59.8067 176.134 64.4162 175.296 69.0413C174.583 71.1086 173.056 72.1329 170.715 72.1142C168.361 71.8507 166.047 71.4241 163.773 70.8338C163.651 72.7593 163.466 74.6799 163.217 76.5957C190.412 86.7445 207.397 105.054 214.172 131.525C217.995 148.792 215.774 165.352 207.508 181.205C198.56 197.053 184.907 207.851 166.549 213.6C162.54 214.689 158.467 215.5 154.331 216.032Z" fill="#414D52"/>
<path fill-rule="evenodd" clip-rule="evenodd" d="M136.007 46.2501C137.781 46.202 139.54 46.33 141.283 46.6342C151.987 48.974 162.724 51.1507 173.494 53.1643C172.619 57.4145 171.832 61.6824 171.134 65.9684C171.1 66.8048 170.637 67.2314 169.746 67.2488C161.394 65.4865 153.017 63.8219 144.615 62.2552C141.773 61.7249 138.904 61.426 136.007 61.3589C135.675 56.3279 135.675 51.2918 136.007 46.2501Z" fill="#2466A8"/>
<path fill-rule="evenodd" clip-rule="evenodd" d="M103.795 66.4805C104.061 66.5965 104.292 66.767 104.489 66.9926C105.622 68.9166 106.733 70.7947 107.821 72.6264C103.993 75.2175 100.244 77.9063 96.575 80.693C96.2048 80.8638 95.8344 80.8638 95.4642 80.693C93.6512 78.7768 92.2165 76.6856 91.1602 74.419C95.4623 71.862 99.6736 69.2157 103.795 66.4805Z" fill="#AFB4BA"/>
<path fill-rule="evenodd" clip-rule="evenodd" d="M147.669 67.7607C151.461 68.4424 155.256 69.1254 159.054 69.8094C158.987 71.7815 158.802 73.7449 158.498 75.6993C154.755 74.8332 150.96 74.2358 147.113 73.9067C147.39 71.8678 147.575 69.8191 147.669 67.7607Z" fill="#77808B"/>
<path fill-rule="evenodd" clip-rule="evenodd" d="M105.741 79.7969C106.637 80.2399 107.285 80.9229 107.684 81.8455C106.46 82.8445 105.118 83.698 103.658 84.4064C102.902 83.7823 102.532 83.014 102.547 82.1016C103.707 81.4209 104.771 80.6527 105.741 79.7969Z" fill="#656F79"/>
<path fill-rule="evenodd" clip-rule="evenodd" d="M136.84 78.7719C161.688 78.1307 181.542 86.9228 196.403 105.148C210.538 123.894 214.611 144.38 208.621 166.608C203.618 182.482 193.575 194.817 178.492 203.612C170.437 207.795 161.829 210.441 152.668 211.55C131.473 212.552 113.84 205.766 99.7691 191.192C85.1052 175.289 78.7185 156.851 80.609 135.878C82.9207 114.571 93.6115 97.9689 112.681 86.0703C120.157 81.9084 128.209 79.4757 136.84 78.7719Z" fill="#AFB3B9"/>
<path fill-rule="evenodd" clip-rule="evenodd" d="M138.784 88.759C163.781 88.5234 182.34 98.4253 194.459 118.464C204.122 135.51 204.956 152.923 196.958 170.705C192.813 178.826 187.213 185.954 180.158 192.088C169.071 199.746 156.576 203.075 142.671 202.075C123.307 199.232 108.821 189.97 99.214 174.29C88.6815 155.352 88.0337 136.146 97.2702 116.672C103.736 104.99 113.501 96.5818 126.566 91.4478C130.572 90.1395 134.645 89.2432 138.784 88.759Z" fill="#404D52"/>
<path fill-rule="evenodd" clip-rule="evenodd" d="M155.168 132.805C153.392 131.777 151.448 131.265 149.336 131.269C143.292 130.534 138.71 132.583 135.591 137.415C131.994 144.207 132.873 150.481 138.229 156.237C140.31 157.922 142.717 158.989 145.449 159.438C149.245 160.249 152.762 159.609 156.001 157.517C156.721 156.983 157.276 156.343 157.667 155.596C160.72 152.189 161.877 148.262 161.138 143.817C160.983 142.483 160.705 141.203 160.305 139.975C167.005 134.139 173.174 127.455 179.062 121C181.207 118.383 183.415 116.275 185.435 113.599C198.336 129.843 201.252 147.513 194.182 166.608C189.828 175.488 183.673 183.127 175.716 189.527C166.34 195.695 155.881 198.469 144.338 197.85C143.128 197.828 141.925 197.742 140.728 197.594C121.79 193.577 108.415 183.334 100.603 166.864C94.2723 152.428 93.8094 137.831 99.2145 123.074C110.224 99.5372 129.43 90.1049 156.834 94.7769C166.932 97.3546 175.355 102.305 182.103 109.63C179.159 112.857 176.012 115.93 172.662 118.849C166.866 123.554 161.034 128.207 155.168 132.805Z" fill="#FCFCFC"/>
<path fill-rule="evenodd" clip-rule="evenodd" d="M126.567 100.796C127.13 100.754 127.685 100.797 128.233 100.924C130.429 103.736 132.234 106.766 133.648 110.015C133.857 110.782 133.626 111.422 132.953 111.935C131.541 112.624 130.384 112.41 129.482 111.295C128.018 108.68 126.63 106.034 125.317 103.356C124.92 102.148 125.337 101.295 126.567 100.796Z" fill="#B5B9BE"/>
<path fill-rule="evenodd" clip-rule="evenodd" d="M151.833 97.4658C153.618 97.5032 154.358 98.3567 154.055 100.027C153.925 102.683 153.693 105.33 153.36 107.965C152.972 108.922 152.231 109.349 151.139 109.246C149.365 109.402 148.671 108.677 149.056 107.069C149.396 104.303 149.628 101.528 149.751 98.7462C150.353 98.1514 151.047 97.7245 151.833 97.4658Z" fill="#B6B9BF"/>
<path fill-rule="evenodd" clip-rule="evenodd" d="M183.268 119.349C184.342 121.113 185.71 123.106 187.373 125.328C187.56 125.486 187.756 125.546 187.96 125.508C190.333 129.668 191.991 134.049 192.934 138.651C193.216 140.938 192.657 143.025 191.257 144.912C190.995 145.033 190.733 145.154 190.472 145.276C189.16 138.337 186.526 131.841 182.57 125.789C177.258 117.997 170.082 112.204 161.04 108.41C158.773 107.855 156.553 107.194 154.38 106.425C153.489 104.912 153.818 103.642 155.367 102.615C158.323 102.573 161.131 103.173 163.792 104.415C171.889 107.666 178.381 112.644 183.268 119.349Z" fill="#2466A8"/>
<path fill-rule="evenodd" clip-rule="evenodd" d="M106.85 120.257C107.859 120.17 108.784 120.384 109.627 120.897C111.479 122.093 113.33 123.287 115.181 124.483C116.817 125.49 117.233 126.814 116.43 128.452C115.874 129.072 115.18 129.285 114.348 129.092C111.401 127.328 108.578 125.407 105.879 123.33C105.173 122.014 105.496 120.99 106.85 120.257Z" fill="#B4B8BE"/>
<path fill-rule="evenodd" clip-rule="evenodd" d="M149.336 131.269C151.447 131.265 153.391 131.777 155.167 132.805C155.081 133.056 154.896 133.226 154.612 133.317C152.871 132.528 151.112 131.845 149.336 131.269Z" fill="#858D97"/>
<path fill-rule="evenodd" clip-rule="evenodd" d="M145.168 135.623C147.4 135.531 149.529 135.915 151.555 136.775C149.704 138.141 147.853 139.507 146.001 140.872C143.736 142.721 143.458 144.812 145.168 147.146C146.976 149.038 149.105 149.422 151.555 148.299C153.175 146.805 154.795 145.311 156.414 143.817C157.124 147.479 156.06 150.595 153.221 153.164C149.913 155.203 146.488 155.374 142.947 153.676C138.28 149.911 137.123 145.43 139.476 140.232C140.987 138.283 142.885 136.747 145.168 135.623Z" fill="#79828D"/>
<path fill-rule="evenodd" clip-rule="evenodd" d="M106.57 144.585C108.178 144.482 109.751 144.61 111.291 144.97C112.662 145.983 112.754 147.093 111.569 148.299C110.862 148.578 110.122 148.749 109.347 148.811C106.477 149.004 103.608 149.089 100.739 149.067C99.4106 147.927 99.3178 146.731 100.461 145.482C102.51 145.07 104.547 144.772 106.57 144.585Z" fill="#B4B9BE"/>
<path fill-rule="evenodd" clip-rule="evenodd" d="M161.913 113.036C163.668 113.546 165.3 114.33 166.809 115.386C166.867 115.676 167.029 115.948 167.298 116.201C168.971 117.549 170.634 118.846 172.289 120.093C173.936 121.905 175.435 123.777 176.787 125.709C176.668 125.552 176.504 125.461 176.297 125.438C177.645 127.175 178.785 129.017 179.717 130.965C179.86 131.052 179.991 131.052 180.109 130.964C181.304 133.323 182.181 135.771 182.741 138.306C182.824 138.786 182.66 139.179 182.249 139.486C179.761 135.843 177.383 132.129 175.116 128.342C171.673 123.744 167.729 119.548 163.28 115.754C165.17 117.201 167.029 118.74 168.858 120.371C166.314 117.896 163.771 115.421 161.227 112.946C161.461 113.061 161.69 113.091 161.913 113.036Z" fill="#2466A8"/>
<path fill-rule="evenodd" clip-rule="evenodd" d="M157.667 155.597C157.277 156.343 156.721 156.983 156.001 157.517C152.763 159.609 149.245 160.249 145.449 159.438C148.012 159.574 150.511 159.275 152.947 158.542C154.72 157.797 156.294 156.816 157.667 155.597Z" fill="#949BA4"/>
<path fill-rule="evenodd" clip-rule="evenodd" d="M118.236 166.096C119.783 166.627 120.478 167.651 120.318 169.169C117.962 171.301 115.417 173.222 112.682 174.931C111.297 175.546 110.325 175.162 109.766 173.778C109.59 173.231 109.683 172.719 110.044 172.242C112.505 169.84 115.235 167.791 118.236 166.096Z" fill="#B6BABF"/>
<path fill-rule="evenodd" clip-rule="evenodd" d="M137.396 180.437C139.649 180.084 140.713 180.937 140.589 182.998C139.634 185.783 138.524 188.514 137.257 191.192C135.464 192.76 134.122 192.504 133.23 190.424C134.351 186.98 135.739 183.651 137.396 180.437Z" fill="#B5B9BF"/>
<path fill-rule="evenodd" clip-rule="evenodd" d="M161.831 178.388C162.538 178.286 163.139 178.457 163.636 178.9C165.008 181.516 166.304 184.162 167.524 186.838C168.249 188.277 167.832 189.343 166.274 190.039C165.313 190.304 164.526 190.091 163.914 189.399C162.749 186.944 161.638 184.469 160.582 181.973C159.741 180.376 160.158 179.181 161.831 178.388Z" fill="#B5B9BE"/>
<path fill-rule="evenodd" clip-rule="evenodd" d="M176.861 167.324C177.507 167.041 178.136 167.046 178.748 167.339C180.869 169.486 182.925 171.681 184.918 173.925C186.055 175.113 185.984 176.245 184.705 177.323C183.865 177.83 183.045 177.833 182.245 177.331C180.373 175.285 178.547 173.205 176.766 171.09C175.469 169.781 175.5 168.525 176.861 167.324Z" fill="#B5B9BE"/>
<path fill-rule="evenodd" clip-rule="evenodd" d="M182.939 150.353C183.427 149.87 184.015 149.66 184.701 149.725C187.525 151 190.31 152.342 193.054 153.751C194.584 154.469 194.968 155.546 194.206 156.983C193.626 157.741 192.865 158.023 191.922 157.828C189.368 156.561 186.843 155.248 184.347 153.888C182.621 153.111 182.151 151.933 182.939 150.353Z" fill="#B5B9BE"/>
<path fill-rule="evenodd" clip-rule="evenodd" d="M140.727 197.594C141.924 197.743 143.127 197.828 144.337 197.85C146.695 198.063 149.101 198.191 151.557 198.234C147.735 198.496 143.94 198.325 140.172 197.722C140.337 197.603 140.522 197.561 140.727 197.594Z" fill="#1A292E"/>
<path fill-rule="evenodd" clip-rule="evenodd" d="M154.332 216.032C150.172 216.257 146.006 216.342 141.836 216.289C145.494 216.094 149.196 215.923 152.943 215.776C153.462 215.778 153.925 215.863 154.332 216.032Z" fill="#1A292E"/>
<path fill-rule="evenodd" clip-rule="evenodd" d="M124.62 229.092C144.428 228.568 164.143 229.549 183.767 232.037C186.285 232.404 188.691 233.087 190.987 234.086C191.727 234.683 191.727 235.281 190.987 235.878C188.055 237.088 185.001 237.941 181.823 238.439C167.957 240.15 154.026 240.96 140.032 240.872C126.448 240.793 112.888 240.238 99.3513 239.207C94.0693 238.814 88.9785 237.704 84.0788 235.878C83.7167 235.672 83.5315 235.373 83.5234 234.982C83.8306 234.229 84.3859 233.674 85.1895 233.317C90.3455 231.856 95.6215 230.917 101.017 230.5C108.914 229.819 116.781 229.35 124.62 229.092Z" fill="#2466A8" fill-opacity="0.3"/>
<path d="M182.239 117.47L172.069 128.647L166.348 123.941L178.425 113.353L182.239 117.47Z" fill="#404D52"/>
</svg>
