<svg width="160" height="160" viewBox="0 0 160 160" fill="none" xmlns="http://www.w3.org/2000/svg">
<g clip-path="url(#clip0_13878_18098)">
<path fill-rule="evenodd" clip-rule="evenodd" d="M52.4491 6.91861C52.1118 6.92105 51.8523 7.06865 51.6709 7.36187C51.5968 11.425 51.5225 15.4883 51.4485 19.5514C51.3745 19.4776 51.3002 19.4036 51.2262 19.3298C51.0778 19.6992 51.0778 20.0685 51.2262 20.4379C51.3002 20.2163 51.3745 19.9947 51.4485 19.7731C51.4658 20.2511 51.503 20.6944 51.5597 21.1028C51.2286 21.1101 50.9322 21.2209 50.6703 21.4353C51.2244 21.9492 51.1501 22.1341 50.4479 21.9893C50.057 22.1285 49.7235 22.3501 49.4473 22.6542C49.3442 22.5226 49.307 22.3747 49.3362 22.211C49.3362 17.2613 49.3362 12.3115 49.3362 7.36187C47.6259 6.87805 46.7365 5.7329 46.668 3.92663C47.128 0.812307 48.9068 -0.369636 52.0044 0.380575C54.3742 1.84576 54.8558 3.8034 53.4497 6.25373C53.1986 6.61742 52.8651 6.83905 52.4491 6.91861Z" fill="#6C8093"/>
<path fill-rule="evenodd" clip-rule="evenodd" d="M78.6876 26.8651C78.6245 27.2895 78.6985 27.6588 78.91 27.9732C78.9471 58.1147 78.91 88.2561 78.7988 118.398C78.6354 119.353 78.5242 120.314 78.4653 121.279C75.8224 128.153 70.7826 131.44 63.3454 131.141C54.0665 129.206 50.472 123.628 52.5614 114.408C55.9116 106.846 61.7298 103.411 70.0159 104.103C70.6363 103.613 70.8215 102.985 70.5718 102.219C70.3115 101.91 69.9779 101.725 69.5713 101.665C65.4346 100.921 61.5806 101.66 58.009 103.881C52.3693 107.477 49.4047 112.611 49.115 119.284C49.2246 120.495 49.447 121.677 49.7821 122.83C47.6599 122.824 45.5845 122.529 43.5562 121.944C42.8496 121.609 42.1085 121.314 41.3327 121.057C36.9455 118.343 34.0181 114.502 32.5499 109.532C31.5644 103.409 33.7508 98.8657 39.1092 95.9023C41.7481 94.8651 44.4906 94.4218 47.3362 94.5726C49.5797 91.6444 52.5443 90.2038 56.2302 90.2508C57.7878 90.3754 59.3442 90.4124 60.8996 90.3616C61.7563 88.9877 61.3856 88.1753 59.7878 87.9237C54.4743 86.7192 49.953 88.0489 46.2244 91.913C38.1147 91.6579 32.7413 95.3148 30.104 102.884C24.9471 98.3646 22.4643 92.6763 22.6553 85.8182C22.849 85.2635 22.997 84.6724 23.1 84.0452C24.254 79.9329 26.6258 76.7193 30.2152 74.4044C35.1578 71.5307 40.42 70.7183 46.0021 71.9665C48.1862 72.6681 50.2986 73.5176 52.3391 74.5152C52.6666 74.4259 52.963 74.278 53.2285 74.0719C53.3904 73.4669 53.3535 72.8758 53.1173 72.2989C44.2257 67.0474 35.5541 67.3799 27.1023 73.2962C26.1057 74.1045 25.1423 74.9542 24.2117 75.845C21.1217 70.2129 20.4918 64.3028 22.3218 58.1147C23.6083 54.1402 25.8318 50.8158 28.9923 48.1414C31.5273 53.4494 35.7148 55.7027 41.5551 54.9011C42.4416 54.0988 42.4416 53.2861 41.5551 52.4632C36.2776 53.1046 32.8312 50.9253 31.2158 45.9251C30.398 40.2453 32.1397 35.4802 36.441 31.6301C39.7265 28.7035 43.5805 27.1889 48.0033 27.0867C47.5859 34.5283 50.9212 39.2934 58.009 41.3818C60.3977 41.7275 62.6953 41.4321 64.9019 40.4952C65.9569 39.2854 65.7346 38.4359 64.2348 37.9465C60.02 39.6107 56.2769 38.8718 53.0061 35.7302C50.0086 31.4224 49.9346 27.0637 52.7838 22.6542C57.6873 16.7163 63.876 14.8325 71.3501 17.0026C75.4896 19.0022 77.9354 22.2898 78.6876 26.8651Z" fill="white"/>
<path fill-rule="evenodd" clip-rule="evenodd" d="M17.7613 24.6485C15.9069 24.6117 14.054 24.6485 12.2025 24.7593C21.3929 24.9071 21.3929 25.0547 12.2025 25.2026C12.3822 25.2708 12.5305 25.3816 12.6472 25.535C11.8628 25.7014 11.1586 25.9969 10.5349 26.4215C10.3886 26.7779 10.4998 27.0365 10.8684 27.1972C10.5249 27.5713 10.3025 28.0146 10.2014 28.527C9.26505 28.867 8.30161 28.9408 7.31082 28.7486C7.82911 28.634 8.23668 28.4494 8.53374 28.1945C8.17576 28.2765 7.84223 28.1287 7.53317 27.7513C7.22521 28.6108 6.96595 28.6108 6.75494 27.7513C5.91579 27.9514 5.39682 27.582 5.19849 26.6431C4.89898 25.2999 5.15846 24.0809 5.97671 22.9863C5.92602 22.8978 5.85175 22.8611 5.75436 22.8755C6.17905 22.4185 6.69779 22.086 7.31082 21.8781C9.68018 21.2859 11.3109 22.0987 12.2025 24.316C14.0947 24.3539 15.9476 24.4648 17.7613 24.6485Z" fill="#6C8093"/>
<path fill-rule="evenodd" clip-rule="evenodd" d="M79.3529 117.733C79.39 87.8128 79.3529 57.893 79.2417 27.9732C79.0599 26.7999 78.9487 26.7999 78.9082 27.9732C78.6968 27.6587 78.6227 27.2894 78.6859 26.865C78.8566 26.6959 78.9678 26.4743 79.0194 26.2001C79.236 26.7272 79.3843 26.6532 79.4641 25.9785C79.6308 26.1173 79.8163 26.2281 80.02 26.311C79.8957 26.4716 79.8216 26.6563 79.7976 26.865C80.1594 27.0716 80.3446 27.5148 80.3535 28.1948C80.5274 27.2327 80.824 26.6418 81.2429 26.4218C81.3912 48.6584 81.3912 70.8953 81.2429 93.1319C81.2055 102.688 81.0944 109.337 80.9094 113.078C80.687 113.078 80.4647 113.078 80.2423 113.078C80.2423 112.857 80.2423 112.635 80.2423 112.414C80.02 112.414 79.7976 112.414 79.5753 112.414C79.4387 114.211 79.587 115.947 80.02 117.622C79.8092 117.729 79.5868 117.766 79.3529 117.733Z" fill="#6C8093"/>
<path fill-rule="evenodd" clip-rule="evenodd" d="M79.3542 117.733C79.1506 118.964 78.854 120.146 78.4648 121.279C78.5238 120.314 78.6349 119.353 78.7984 118.398C78.9095 88.2561 78.9467 58.1147 78.9095 27.9732C78.95 26.7999 79.0612 26.7999 79.2431 27.9732C79.3542 57.8931 79.3914 87.8129 79.3542 117.733Z" fill="#6C8093"/>
<path fill-rule="evenodd" clip-rule="evenodd" d="M140.499 86.0396C140.537 87.8141 140.499 89.5872 140.388 91.3586C140.266 91.9967 140.081 92.5878 139.832 93.1317C140.143 90.7469 140.366 88.3828 140.499 86.0396Z" fill="#6C8093"/>
<path fill-rule="evenodd" clip-rule="evenodd" d="M52.4494 6.91846C52.3864 7.09332 52.2753 7.24115 52.1158 7.36171C51.9675 11.351 51.9675 15.3403 52.1158 19.3296C56.7668 14.7552 62.3624 12.8714 68.9033 13.6781C74.2224 14.4633 77.9652 17.3077 80.132 22.2108C83.7299 15.3703 89.3998 12.5261 97.1418 13.6781C103.983 14.5737 108.949 18.0828 112.039 24.2055C117.01 24.5386 121.457 26.2008 125.38 29.1921C126.093 29.828 126.723 30.5296 127.27 31.2976C128.234 30.3373 129.197 29.3767 130.161 28.4164C130.346 25.3109 130.309 22.2081 130.05 19.108C127.433 17.2638 127.136 15.0844 129.16 12.57C131.319 11.3386 133.209 11.6711 134.83 13.5673C135.709 15.9483 135.079 17.7953 132.94 19.108C132.755 22.5778 132.644 26.0501 132.607 29.5245C131.715 31.0806 130.566 32.4474 129.16 33.6247C131.675 37.4045 132.972 41.5785 133.051 46.1467C138.744 51.3077 141.672 57.7349 141.834 65.4283C145.392 65.4653 148.949 65.4283 152.507 65.3175C154.11 62.7874 156.187 62.3441 158.733 63.9877C160.28 65.9762 160.207 67.897 158.511 69.7501C156.999 70.6794 155.442 70.7532 153.841 69.9717C153.234 69.4996 152.789 68.9086 152.507 68.1987C149.172 68.1249 145.837 68.0509 142.501 67.9771C142.279 67.8662 142.057 67.7554 141.834 67.6446C141.423 71.6747 140.162 75.4056 138.054 78.8368C139.348 81.081 140.162 83.4822 140.5 86.0398C140.367 88.383 140.144 90.7471 139.833 93.1319C138.51 98.4243 135.546 102.561 130.939 105.543C130.685 106.313 130.648 107.126 130.828 107.981C131.59 108.854 132.443 109.593 133.385 110.197C135.644 112.264 137.868 114.369 140.055 116.514C140.569 116.624 141.087 116.661 141.612 116.624C141.138 116.805 140.62 116.916 140.055 116.957C140.589 116.998 141.107 117.109 141.612 117.289C141.261 117.466 140.892 117.577 140.5 117.622C140.636 118.078 140.858 118.263 141.167 118.176C140.438 118.358 139.695 118.469 138.944 118.508C141.607 118.692 141.607 118.803 138.944 118.841C136.164 116.181 133.385 113.447 130.606 110.64C127.331 119.886 120.771 124.872 110.928 125.6C105.743 132.467 98.9244 134.979 90.4713 133.136C86.8299 131.895 83.9022 129.716 81.6885 126.598C81.2362 125.707 80.7915 124.82 80.3544 123.938C76.612 130.994 70.7197 134.282 62.6775 133.801C58.8704 133.104 55.5723 131.442 52.7829 128.814C51.9137 127.895 51.2095 126.861 50.6706 125.711C48.3323 125.557 46.0348 125.187 43.7777 124.603C43.83 124.471 43.9411 124.397 44.1112 124.381C46.2625 124.973 48.4491 125.157 50.6706 124.936C50.3072 124.826 49.9366 124.789 49.5588 124.825C49.5995 124.285 49.4512 123.805 49.1141 123.384C49.2624 123.31 49.4105 123.236 49.5588 123.162C48.4046 123.097 47.2559 122.986 46.1124 122.83C45.7319 122.817 45.4355 122.964 45.223 123.273C44.8139 122.978 44.7027 123.015 44.8895 123.384C44.7783 123.495 44.6671 123.606 44.5559 123.717C44.4419 123.269 44.1824 122.936 43.7777 122.719C43.926 122.645 44.0741 122.571 44.2224 122.498C43.926 122.35 43.6294 122.202 43.333 122.054C43.3837 121.966 43.458 121.929 43.5554 121.944C45.5836 122.529 47.6591 122.824 49.7812 122.83C49.4461 121.677 49.2237 120.495 49.1141 119.284C49.4038 112.611 52.3684 107.477 58.0081 103.881C61.5798 101.659 65.4338 100.921 69.5704 101.665C69.977 101.725 70.3106 101.91 70.5709 102.219C70.8206 102.985 70.6354 103.613 70.0151 104.102C61.7289 103.411 55.9107 106.846 52.5605 114.408C50.4711 123.628 54.0656 129.206 63.3445 131.141C70.7817 131.44 75.8215 128.153 78.4644 121.279C78.8535 120.145 79.1501 118.964 79.3538 117.733C79.5877 117.766 79.81 117.729 80.0208 117.622C79.5879 115.947 79.4396 114.211 79.5761 112.414C79.7985 112.414 80.0208 112.414 80.2432 112.414C80.2432 112.635 80.2432 112.857 80.2432 113.078C80.4655 113.078 80.6879 113.078 80.9102 113.078C81.0952 109.337 81.2064 102.688 81.2438 93.1319C81.3921 70.8952 81.3921 48.6584 81.2438 26.4217C80.8249 26.6418 80.5282 27.2327 80.3544 28.1948C80.3455 27.5148 80.1602 27.0716 79.7985 26.865C79.8225 26.6562 79.8965 26.4716 80.0208 26.3109C79.8172 26.228 79.6317 26.1172 79.465 25.9785C79.3851 26.6531 79.2368 26.7271 79.0202 26.2001C78.9687 26.4743 78.8575 26.6959 78.6867 26.865C77.9345 22.2897 75.4887 19.0021 71.3492 17.0025C63.8751 14.8324 57.6864 16.7162 52.7829 22.6541C49.9337 27.0636 50.0077 31.4223 53.0052 35.7301C56.276 38.8717 60.0191 39.6106 64.2339 37.9464C65.7337 38.4358 65.956 39.2853 64.901 40.4951C62.6944 41.432 60.3968 41.7274 58.0081 41.3817C50.9203 39.2933 47.585 34.5282 48.0024 27.0866C43.5796 27.1888 39.7256 28.7034 36.4401 31.63C32.1388 35.4801 30.3971 40.2451 31.2149 45.925C32.8303 50.9252 36.2767 53.1045 41.5542 52.4631C42.4407 53.286 42.4407 54.0987 41.5542 54.901C35.7139 55.7026 31.5264 53.4493 28.9914 48.1413C25.8309 50.8157 23.6074 54.1401 22.3209 58.1146C20.4909 64.3027 21.1209 70.2128 24.2109 75.8449C25.1414 74.9541 26.1048 74.1044 27.1014 73.2961C35.5532 67.3798 44.2248 67.0473 53.1164 72.2988C53.3526 72.8757 53.3895 73.4668 53.2276 74.0718C52.9621 74.2779 52.6657 74.4258 52.3382 74.5151C50.2977 73.5175 48.1854 72.668 46.0012 71.9664C40.4191 70.7181 35.1569 71.5306 30.2143 74.4043C26.6249 76.7192 24.154 80.8877 23 85C22.7559 84.756 22.8178 83.5057 22.9879 83.1586C23.4197 82.0511 23.8275 80.943 24.2109 79.8342C23.7268 79.8151 23.2821 79.6673 22.8768 79.3909C22.8027 79.5387 22.7284 79.6863 22.6544 79.8342C22.5005 79.7178 22.3894 79.57 22.3209 79.3909C21.8444 80.1054 22.6531 80.2542 23.5 80.5C23.2892 80.607 23.2339 81.533 23 81.5C23.0282 82.0352 22.454 82.5011 22.5 83C22.2776 83 22.2224 83.5 22 83.5C21.926 83.1305 21.5523 83.5281 21.4782 83.1586C21.2121 83.7324 20.6785 82.8919 20.5 83.5C20.3968 83.3684 20.5 83 20.7644 82.5591C21.1873 80.9769 21.7432 79.6558 22.6544 78.2828C19.9375 74.2932 18.6034 69.8607 18.6521 64.9851C18.8031 57.0322 21.9531 50.5311 28.102 45.4818C28.176 43.8566 28.2503 42.2312 28.3243 40.606C28.5049 39.5517 28.8384 38.5543 29.3249 37.614C28.8802 37.5402 28.4355 37.4662 27.9908 37.3923C24.8919 33.8598 21.6307 30.4614 18.2074 27.1974C16.0542 27.0131 13.9047 27.0501 11.7592 27.3083C9.81366 29.755 7.70133 29.9029 5.42224 27.7515C4.31027 26.0241 4.42144 24.3987 5.75577 22.8757C5.85316 22.8613 5.92742 22.8981 5.97812 22.9865C5.15987 24.0811 4.90038 25.3001 5.19989 26.6434C5.39823 27.5822 5.91719 27.9516 6.75634 27.7515C6.96735 28.611 7.22662 28.611 7.53457 27.7515C7.84364 28.129 8.17716 28.2768 8.53515 28.1948C8.23809 28.4496 7.83052 28.6343 7.31222 28.7488C8.30301 28.941 9.26646 28.8672 10.2028 28.5272C10.3039 28.0148 10.5263 27.5716 10.8698 27.1974C10.5012 27.0368 10.39 26.7781 10.5363 26.4217C11.16 25.9971 11.8642 25.7017 12.6486 25.5352C12.5319 25.3819 12.3836 25.2711 12.2039 25.2028C21.3943 25.055 21.3943 24.9074 12.2039 24.7595C14.0554 24.6487 15.9083 24.6119 17.7627 24.6487C18.57 24.545 19.3114 24.6928 19.9862 25.092C23.3988 28.5305 26.7712 32.0026 30.1031 35.5085C33.9936 28.5361 39.9599 24.8054 48.0024 24.3163C48.3692 23.5439 48.8139 22.8422 49.3365 22.2108C49.3073 22.3746 49.3445 22.5224 49.4476 22.6541C49.7238 22.35 50.0573 22.1284 50.4482 21.9892C51.1504 22.1339 51.2247 21.9491 50.6706 21.4351C50.9325 21.2208 51.2289 21.11 51.56 21.1027C51.5033 20.6942 51.4661 20.2509 51.4488 19.7729C51.3747 19.9945 51.3005 20.2162 51.2264 20.4378C51.0781 20.0683 51.0781 19.6991 51.2264 19.3296C51.3005 19.4034 51.3747 19.4775 51.4488 19.5513C51.5228 15.4882 51.5971 11.4248 51.6711 7.36171C51.8526 7.0685 52.1121 6.92089 52.4494 6.91846Z" fill="#6C8093"/>
<path fill-rule="evenodd" clip-rule="evenodd" d="M81.5781 90.2507C87.3597 90.2137 93.1408 90.2507 98.9215 90.3615C102.184 93.5394 105.519 96.6422 108.927 99.6699C109.593 99.5267 110.26 99.3051 110.928 99.005C116.259 98.4826 118.742 100.884 118.377 106.208C117.173 109.783 114.69 111.224 110.928 110.53C108.132 109.574 106.724 107.617 106.704 104.657C106.679 103.775 106.828 102.925 107.148 102.108C104.329 99.3718 101.439 96.7123 98.4768 94.1292C98.1119 93.879 97.8895 93.5465 97.8097 93.1319C92.4784 92.6908 87.068 92.543 81.5781 92.6886C81.5781 91.8759 81.5781 91.0634 81.5781 90.2507Z" fill="#B8144B"/>
<path fill-rule="evenodd" clip-rule="evenodd" d="M81.5781 92.6885C87.068 92.5429 92.4784 92.6907 97.8097 93.1317C92.3993 93.1317 86.9886 93.1317 81.5781 93.1317C81.5781 92.9839 81.5781 92.8363 81.5781 92.6885Z" fill="#B8144B"/>
<path fill-rule="evenodd" clip-rule="evenodd" d="M104.258 82.937C104.089 83.3275 103.792 83.5491 103.369 83.6018C96.1791 83.6389 88.9898 83.6018 81.8008 83.491C89.0643 83.4172 96.3276 83.3432 103.591 83.2694C103.776 83.0848 103.962 82.8999 104.147 82.7153C104.236 82.7659 104.273 82.8399 104.258 82.937Z" fill="#CC7400"/>
<path fill-rule="evenodd" clip-rule="evenodd" d="M98.0321 74.5149C92.564 74.7343 87.0793 74.8081 81.5781 74.7365C81.5781 74.6627 81.5781 74.5887 81.5781 74.5149C87.1175 74.5094 92.6023 74.5094 98.0321 74.5149Z" fill="#2466A8"/>
<path fill-rule="evenodd" clip-rule="evenodd" d="M97.8097 70.7476C97.5671 71.3965 97.1224 71.8765 96.4756 72.1881C91.4936 72.3703 86.5279 72.3333 81.5781 72.0773C81.5781 72.0035 81.5781 71.9295 81.5781 71.8557C86.6186 71.8927 91.6586 71.8557 96.698 71.7449C97.0397 71.3666 97.4104 71.0341 97.8097 70.7476Z" fill="#2466A8"/>
<path fill-rule="evenodd" clip-rule="evenodd" d="M104.258 82.9369C104.272 82.8398 104.235 82.7658 104.147 82.7152C103.961 82.8998 103.776 83.0847 103.591 83.2693C96.3273 83.3431 89.064 83.4171 81.8005 83.4909C88.9895 83.6017 96.1788 83.6388 103.368 83.6017C96.143 83.8229 88.8797 83.897 81.5781 83.8234C81.5781 82.789 81.5781 81.7549 81.5781 80.7206C88.5455 80.7576 95.5124 80.7206 102.479 80.6098C103.191 79.8627 103.932 79.1608 104.703 78.5043C105.912 77.5588 107.098 76.5615 108.26 75.5123C111.151 75.4385 114.041 75.3645 116.932 75.2907C117.293 74.0154 117.812 72.7965 118.488 71.6338C119.553 70.328 120.962 69.6631 122.713 69.6392C125.34 69.6731 127.23 70.855 128.383 73.1852C129.378 77.0008 128.081 79.6971 124.492 81.2746C121.305 81.9386 118.933 80.8675 117.377 78.061C114.637 77.8026 111.895 77.7656 109.15 77.9502C107.468 79.5892 105.837 81.2514 104.258 82.9369Z" fill="#CC7400"/>
<path fill-rule="evenodd" clip-rule="evenodd" d="M62.8984 63.877C64.4522 64.0024 66.0087 64.1132 67.5678 64.2094C67.9631 64.6826 68.1114 65.2366 68.0125 65.8716C67.8849 65.3645 67.6625 64.8843 67.3454 64.431C66.0854 64.3572 64.8255 64.2832 63.5655 64.2094C63.2904 64.158 63.0681 64.0472 62.8984 63.877Z" fill="#6C8093"/>
<path fill-rule="evenodd" clip-rule="evenodd" d="M94.0298 56.3413C92.7539 57.9468 91.3455 59.4612 89.8051 60.8847C87.0637 60.9955 84.3215 61.0325 81.5781 60.9955C81.5781 60.8477 81.5781 60.7001 81.5781 60.5522C84.3215 60.5893 87.0637 60.5522 89.8051 60.4414C91.1841 59.0299 92.5923 57.6631 94.0298 56.3413Z" fill="#3D8F3D"/>
<path fill-rule="evenodd" clip-rule="evenodd" d="M62.9007 63.8771C63.0704 64.0473 63.2927 64.1581 63.5677 64.2095C64.8278 64.2833 66.0876 64.3573 67.3477 64.4311C67.6648 64.8844 67.8871 65.3646 68.0148 65.8717C67.6646 66.4127 67.1458 66.6711 66.4583 66.6474C60.154 66.5822 56.0405 63.5165 54.1179 57.4498C53.8748 56.2389 53.6896 55.0199 53.562 53.793C53.4117 52.0253 54.1528 51.4342 55.7855 52.0199C56.1326 53.6622 56.4661 55.3244 56.7861 57.0066C57.8556 60.1767 59.8936 62.4668 62.9007 63.8771Z" fill="#6C8093"/>
<path fill-rule="evenodd" clip-rule="evenodd" d="M98.0321 74.5149C92.6023 74.5093 87.1175 74.5093 81.5781 74.5149C81.5781 73.7022 81.5781 72.8897 81.5781 72.077C86.5279 72.3329 91.4936 72.37 96.4756 72.1878C97.1224 71.8762 97.5671 71.3961 97.8097 70.7472C103.288 64.6954 108.847 58.7114 114.486 52.7953C112.677 49.6588 113.122 46.8885 115.82 44.4842C119.3 42.6285 122.228 43.2564 124.603 46.3681C125.892 49.2521 125.41 51.8009 123.158 54.0143C121.046 55.2166 118.822 55.512 116.487 54.9008C110.371 61.4767 104.22 68.0147 98.0321 74.5149Z" fill="#2466A8"/>
<path fill-rule="evenodd" clip-rule="evenodd" d="M81.5781 63.4338C81.5781 62.6211 81.5781 61.8086 81.5781 60.9959C84.3215 61.0329 87.0637 60.9959 89.8051 60.8851C91.3455 59.4616 92.7539 57.9472 94.0298 56.3417C95.4937 54.9938 96.939 53.5902 98.3656 52.1308C98.5495 49.3589 98.5123 46.6255 98.2544 43.9305C98.2835 43.7364 98.2095 43.5886 98.0321 43.4873C93.551 41.5775 92.3281 38.4009 94.3633 33.9573C96.9579 31.2272 99.8856 30.821 103.146 32.7383C105.936 35.6308 106.085 38.6596 103.591 41.8251C102.842 42.4199 102.026 42.9002 101.145 43.2657C100.96 46.5876 100.849 49.9121 100.811 53.2389C97.6603 56.4539 94.5843 59.7413 91.5839 63.1014C88.2646 63.423 84.9294 63.5338 81.5781 63.4338Z" fill="#3D8F3D"/>
<path fill-rule="evenodd" clip-rule="evenodd" d="M81.5764 93.132C86.9869 93.132 92.3976 93.132 97.808 93.132C97.8878 93.5466 98.1102 93.8791 98.4751 94.1293C101.437 96.7124 104.328 99.3719 107.147 102.108C106.826 102.925 106.678 103.775 106.702 104.657C106.722 107.617 108.13 109.575 110.927 110.53C114.688 111.224 117.171 109.783 118.375 106.208C118.741 100.884 116.258 98.4827 110.927 99.0051C110.259 99.3052 109.591 99.5268 108.926 99.67C105.518 96.6423 102.182 93.5395 98.9198 90.3616C93.1391 90.2508 87.358 90.2138 81.5764 90.2508C81.5764 88.1083 81.5764 85.9661 81.5764 83.8236C88.878 83.8972 96.1413 83.8231 103.367 83.602C103.79 83.5492 104.087 83.3276 104.256 82.9371C105.836 81.2516 107.466 79.5894 109.148 77.9504C111.893 77.7658 114.635 77.8028 117.375 78.0612C118.931 80.8677 121.303 81.9389 124.49 81.2749C128.079 79.6973 129.376 77.001 128.381 73.1854C127.229 70.8552 125.339 69.6733 122.711 69.6394C120.96 69.6633 119.552 70.3282 118.487 71.634C117.436 72.4738 116.917 73.5819 116.93 74.9584C113.878 74.8638 110.839 74.9746 107.814 75.2909C106.731 76.333 105.693 77.4041 104.701 78.5045C103.931 79.161 103.19 79.8629 102.477 80.61C95.5107 80.7208 88.5438 80.7578 81.5764 80.7208C81.5764 78.7261 81.5764 76.7315 81.5764 74.7368C87.0776 74.8084 92.5623 74.7346 98.0304 74.5152C104.218 68.0151 110.37 61.477 116.485 54.9011C118.821 55.5123 121.044 55.2169 123.156 54.0146C125.409 51.8012 125.89 49.2524 124.601 46.3684C122.226 43.2567 119.298 42.6289 115.818 44.4846C113.12 46.8888 112.675 49.6591 114.484 52.7956C108.845 58.7118 103.287 64.6957 97.808 70.7475C97.4087 71.0341 97.038 71.3665 96.6963 71.7448C91.6569 71.8557 86.6169 71.8927 81.5764 71.8557C81.5764 69.0483 81.5764 66.2411 81.5764 63.4338C84.9277 63.5337 88.263 63.4229 91.5822 63.1013C94.5826 59.7412 97.6586 56.4538 100.81 53.2389C100.847 49.912 100.958 46.5876 101.143 43.2656C102.025 42.9001 102.84 42.4199 103.589 41.825C106.083 38.6595 105.935 35.6307 103.144 32.7383C99.8839 30.821 96.9562 31.2272 94.3616 33.9572C92.3264 38.4009 93.5493 41.5775 98.0304 43.4872C98.2078 43.5885 98.2818 43.7363 98.2527 43.9305C98.2898 46.5911 98.2527 49.2507 98.1415 51.9091C96.6429 53.2912 95.2717 54.7688 94.0281 56.3417C92.5906 57.6635 91.1824 59.0302 89.8034 60.4418C87.062 60.5526 84.3198 60.5896 81.5764 60.5526C81.5393 49.3231 81.5764 38.0941 81.6876 26.8651C82.5937 21.2342 85.8178 17.7252 91.3598 16.3378C100.226 15.2921 106.526 18.7642 110.26 26.7543C117.615 26.7441 123.359 29.7361 127.492 35.7302C129.593 39.2832 130.557 43.1246 130.382 47.2549C138.927 54.9523 141.151 64.1869 137.053 74.9584C136.315 76.2441 135.612 77.5369 134.941 78.8369C139.328 85.8807 138.994 92.7142 133.94 99.3376C132.368 101.053 130.664 102.604 128.826 103.992C128.617 113.135 124.207 119.23 115.596 122.276C113.525 122.658 111.45 122.953 109.37 123.163C105.67 128.996 100.333 131.656 93.361 131.141C86.3498 129.619 82.4587 125.298 81.6876 118.176C81.5764 109.828 81.5393 101.48 81.5764 93.132Z" fill="white"/>
<path fill-rule="evenodd" clip-rule="evenodd" d="M118.489 71.6338C117.812 72.7965 117.293 74.0154 116.932 75.2907C114.042 75.3645 111.151 75.4385 108.261 75.5123C107.099 76.5615 105.913 77.5588 104.703 78.5043C105.695 77.4039 106.733 76.3328 107.816 75.2907C110.842 74.9744 113.88 74.8636 116.932 74.9582C116.919 73.5817 117.438 72.4735 118.489 71.6338Z" fill="#CC7400"/>
<path fill-rule="evenodd" clip-rule="evenodd" d="M98.252 43.9302C98.5099 46.6252 98.5471 49.3585 98.3632 52.1304C96.9366 53.5898 95.4913 54.9934 94.0273 56.3414C95.271 54.7685 96.6422 53.2909 98.1408 51.9088C98.252 49.2504 98.2891 46.5908 98.252 43.9302Z" fill="#3D8F3D"/>
<path fill-rule="evenodd" clip-rule="evenodd" d="M130.938 105.543C130.901 106.285 130.938 107.024 131.049 107.759C131.873 108.543 132.651 109.355 133.384 110.197C132.442 109.593 131.589 108.854 130.827 107.981C130.647 107.126 130.684 106.313 130.938 105.543Z" fill="#6C8093"/>
<path fill-rule="evenodd" clip-rule="evenodd" d="M138.945 118.841C141.609 118.803 141.609 118.692 138.945 118.508C139.697 118.469 140.44 118.359 141.169 118.176C140.86 118.263 140.637 118.078 140.502 117.622C140.893 117.577 141.262 117.466 141.614 117.289C141.109 117.109 140.591 116.998 140.057 116.957C140.622 116.916 141.14 116.805 141.614 116.625C142.083 115.575 142.896 114.947 144.059 114.741C146.234 114.402 147.753 115.252 148.618 117.289C148.904 120.77 147.312 122.433 143.837 122.276C142.172 121.836 141.282 120.765 141.169 119.062C140.382 119.132 139.639 119.058 138.945 118.841Z" fill="#6C8093"/>
<path fill-rule="evenodd" clip-rule="evenodd" d="M22.6565 85.8183C22.4655 92.6763 24.9483 98.3646 30.1052 102.884C32.7425 95.3148 38.1158 91.6579 46.2256 91.913C49.9542 88.0489 54.4755 86.7192 59.789 87.9237C61.3868 88.1753 61.7575 88.9878 60.9008 90.3616C59.3454 90.4124 57.789 90.3754 56.2314 90.2508C52.5455 90.2038 49.5809 91.6444 47.3374 94.5726C44.4917 94.4219 41.7493 94.8651 39.1104 95.9023C33.752 98.8657 31.5656 103.409 32.5511 109.532C34.0193 114.502 36.9467 118.343 41.3339 121.057C41.0931 121.049 40.8708 120.974 40.6669 120.836C40.4699 121.018 40.3958 121.24 40.4445 121.5C40.0792 121.505 39.7828 121.357 39.5551 121.057C39.1918 121.161 38.9325 121.383 38.7769 121.722C38.6695 121.512 38.6326 121.29 38.6657 121.057C38.3371 120.999 38.0407 121.073 37.7763 121.279C37.8135 121.353 37.8504 121.427 37.8875 121.5C38.4852 121.914 39.041 122.357 39.5551 122.83C33.1703 118.973 29.8722 113.284 29.6605 105.765C23.7622 101.248 20.5382 95.2643 19.9883 87.8129C20.3025 88.4155 20.4508 89.0804 20.433 89.8076C20.6553 89.8076 20.8777 89.8076 21.1 89.8076C21.1192 89.3251 21.2675 88.8818 21.5447 88.4778C21.3355 88.4802 21.1872 88.3694 21.1 88.1454C21.2001 87.8606 21.3484 87.6019 21.5447 87.3697C21.2526 86.937 21.1045 86.5308 21.1 86.1507C21.456 86.0902 21.7895 85.9794 22.1006 85.8183C22.1747 86.1137 22.2489 86.4093 22.323 86.7048C22.397 86.2615 22.4713 85.8183 22.5453 85.375C22.6485 85.5066 22.6856 85.6545 22.6565 85.8183Z" fill="#6C8093"/>
<path fill-rule="evenodd" clip-rule="evenodd" d="M43.3351 124.382C42.8937 127.994 42.7454 131.688 42.8904 135.463C42.6687 131.734 42.5946 127.966 42.668 124.16C43.1234 124.085 43.3457 124.158 43.3351 124.382Z" fill="#6C8093"/>
<path fill-rule="evenodd" clip-rule="evenodd" d="M38.8867 136.349C39.2051 135.774 39.687 135.404 40.332 135.241C40.4432 131.326 40.4803 127.411 40.4432 123.495C40.7009 127.32 40.738 131.309 40.5543 135.463C39.9673 135.719 39.4115 136.014 38.8867 136.349Z" fill="#6C8093"/>
<path fill-rule="evenodd" clip-rule="evenodd" d="M41.331 121.057C42.1068 121.314 42.8479 121.609 43.5546 121.944C43.4572 121.929 43.3829 121.966 43.3322 122.054C43.6286 122.202 43.9252 122.35 44.2216 122.498C44.0733 122.571 43.9252 122.645 43.7769 122.719C44.1816 122.936 44.4411 123.269 44.5551 123.717C44.6663 123.606 44.7775 123.495 44.8887 123.384C44.7019 123.015 44.8131 122.978 45.2222 123.273C45.4347 122.964 45.7311 122.817 46.1116 122.83C47.2551 122.986 48.4038 123.097 49.558 123.163C49.4097 123.236 49.2616 123.31 49.1133 123.384C49.4504 123.805 49.5987 124.285 49.558 124.825C49.9358 124.789 50.3064 124.826 50.6698 124.936C48.4483 125.157 46.2617 124.973 44.1104 124.382C43.9403 124.397 43.8292 124.471 43.7769 124.603C43.5563 124.641 43.4082 124.567 43.3322 124.382C43.3429 124.158 43.1205 124.085 42.6651 124.16C42.5918 127.966 42.6658 131.734 42.8875 135.463C44.5169 136.018 45.3322 137.163 45.3334 138.898C44.6403 142.331 42.6391 143.439 39.3299 142.223C37.6738 140.674 37.3403 138.864 38.3293 136.793C38.4867 136.597 38.6722 136.45 38.8852 136.349C39.4099 136.015 39.9658 135.719 40.5528 135.463C40.7365 131.309 40.6993 127.32 40.4416 123.495C40.057 123.378 39.7604 123.157 39.5522 122.83C39.0382 122.357 38.4823 121.913 37.8846 121.5C37.8475 121.427 37.8106 121.353 37.7734 121.279C38.0378 121.073 38.3342 120.999 38.6628 121.057C38.6297 121.29 38.6666 121.512 38.774 121.722C38.9297 121.382 39.1889 121.161 39.5522 121.057C39.7799 121.357 40.0763 121.505 40.4416 121.5C40.3929 121.24 40.467 121.018 40.664 120.835C40.8679 120.974 41.0902 121.048 41.331 121.057Z" fill="#6C8093"/>
<path fill-rule="evenodd" clip-rule="evenodd" d="M68.0129 150.977C82.1842 150.738 96.3406 151.07 110.482 151.974C115.139 152.287 119.809 152.878 124.49 153.747C125.405 154.014 126.295 154.347 127.158 154.744C127.362 154.928 127.51 155.15 127.603 155.409C127.286 155.901 126.842 156.233 126.269 156.407C122.328 157.397 118.326 158.062 114.262 158.401C89.7875 160.435 65.3289 160.287 40.8862 157.958C37.9018 157.66 35.0112 156.996 32.2145 155.963C31.9181 155.594 31.9181 155.225 32.2145 154.855C33.4116 154.243 34.6717 153.799 35.9944 153.526C38.7153 152.997 41.4576 152.627 44.2214 152.417C52.1758 151.747 60.1064 151.267 68.0129 150.977Z" fill="#2466A8" fill-opacity="0.3"/>
<path fill-rule="evenodd" clip-rule="evenodd" d="M23.1308 84.228C23.1308 85.0508 22.6987 85.9138 22.5 86.5C22.5299 86.3269 22.6663 85.7722 22.5604 85.6331C22.4844 86.1015 22.4082 86.5699 22.3322 87.0382C22.2562 86.7261 22.18 86.4137 22.104 86.1015C21.7848 86.2717 22.013 86.6928 21.6477 86.7567C21.6522 87.1584 21.7002 87.5429 22 88C21.7985 88.2454 21.7504 88.3222 21.6477 88.6232C21.7371 88.8599 21.3189 88.9143 21.5336 88.9117C21.2491 89.3387 21.0969 89.807 21.0772 90.3169C20.8491 90.3169 20.6209 90.3169 20.3927 90.3169C20.411 89.5485 20.2588 88.8459 19.9364 88.2092C15.7163 87.9371 11.4569 87.8979 7.1586 88.0921C6.16741 90.318 4.4942 91.1768 2.13876 90.6681C-0.376182 89.1691 -0.946619 87.1005 0.427448 84.4622C2.9611 82.1716 5.20497 82.4449 7.1586 85.2818C11.4932 85.3989 15.8285 85.438 20.1645 85.3989C20.1486 84.4797 20.3008 83.6212 20.6209 82.8229C20.591 82.9959 20.6291 83.1521 20.735 83.2912C20.9182 82.6486 21.1464 82.0241 21.4195 81.4177C21.4955 81.8081 21.5717 82.1983 21.6477 82.5887C21.8759 82.5887 22.104 82.5887 22.3322 82.5887C22.285 82.0615 22.2471 81.5149 22.2181 80.9494C22.4582 80.9843 22.6863 80.9454 22.9026 80.8323C22.0335 80.5726 21.8432 80.0651 22.3322 79.3101C22.4025 79.4993 22.5166 79.6555 22.6745 79.7784C22.7504 79.6222 22.8267 79.4663 22.9026 79.3101C23.3186 79.6021 23.7749 79.7583 24.2717 79.7784C23.8783 80.9501 23.4598 82.121 23.0167 83.2912C22.8422 83.658 22.8803 83.9702 23.1308 84.228Z" fill="#6C8093"/>
</g>
<defs>
<clipPath id="clip0_13878_18098">
<rect width="160" height="160" fill="white"/>
</clipPath>
</defs>
</svg>
