<svg width="28" height="28" viewBox="0 0 28 28" fill="none" xmlns="http://www.w3.org/2000/svg">
<rect width="28" height="28" rx="14" fill="#2B333B"/>
<path fill-rule="evenodd" clip-rule="evenodd" d="M15.5043 12.8932C15.5043 13.7831 15.5268 14.5253 15.077 15.3156C14.7139 15.9582 14.1388 16.3534 13.4963 16.3534C12.6192 16.3534 12.1083 15.6851 12.1083 14.6988C12.1083 12.7518 13.8529 12.3984 15.5043 12.3984V12.8932ZM17.8079 18.461C17.6569 18.5959 17.4384 18.6056 17.2681 18.5156C16.5099 17.8859 16.375 17.5936 15.9573 16.9928C14.7043 18.2715 13.8176 18.6538 12.1919 18.6538C10.2706 18.6538 8.77344 17.4682 8.77344 15.094C8.77344 13.2402 9.77911 11.9775 11.2087 11.3607C12.4489 10.8145 14.1806 10.7181 15.5043 10.5672V10.2716C15.5043 9.72856 15.546 9.08602 15.228 8.61698C14.9485 8.19608 14.4152 8.02258 13.946 8.02258C13.0754 8.02258 12.2979 8.46914 12.1083 9.39442C12.0697 9.6001 11.9188 9.80252 11.7132 9.81213L9.4963 9.57443C9.31 9.53258 9.10439 9.38162 9.1558 9.09563C9.66662 6.40978 12.0922 5.6001 14.2641 5.6001C15.3757 5.6001 16.8279 5.8957 17.705 6.73749C18.8167 7.77519 18.7106 9.1599 18.7106 10.6667V14.2265C18.7106 15.2964 19.154 15.7654 19.5716 16.3438C19.7194 16.5494 19.7516 16.7968 19.5652 16.951C19.0993 17.3397 18.2704 18.0626 17.8143 18.4675C17.8143 18.4675 17.9589 18.3261 17.8079 18.461Z" fill="white"/>
<path fill-rule="evenodd" clip-rule="evenodd" d="M15.5043 12.8932C15.5043 13.7831 15.5268 14.5253 15.077 15.3156C14.7139 15.9582 14.1388 16.3534 13.4963 16.3534C12.6192 16.3534 12.1083 15.6851 12.1083 14.6988C12.1083 12.7518 13.8529 12.3984 15.5043 12.3984V12.8932ZM17.8079 18.461C17.6569 18.5959 17.4384 18.6056 17.2681 18.5156C16.5099 17.8859 16.375 17.5936 15.9573 16.9928C14.7043 18.2715 13.8176 18.6538 12.1919 18.6538C10.2706 18.6538 8.77344 17.4682 8.77344 15.094C8.77344 13.2402 9.77911 11.9775 11.2087 11.3607C12.4489 10.8145 14.1806 10.7181 15.5043 10.5672V10.2716C15.5043 9.72856 15.546 9.08602 15.228 8.61698C14.9485 8.19608 14.4152 8.02258 13.946 8.02258C13.0754 8.02258 12.2979 8.46914 12.1083 9.39442C12.0697 9.6001 11.9188 9.80252 11.7132 9.81213L9.4963 9.57443C9.31 9.53258 9.10439 9.38162 9.1558 9.09563C9.66662 6.40978 12.0922 5.6001 14.2641 5.6001C15.3757 5.6001 16.8279 5.8957 17.705 6.73749C18.8167 7.77519 18.7106 9.1599 18.7106 10.6667V14.2265C18.7106 15.2964 19.154 15.7654 19.5716 16.3438C19.7194 16.5494 19.7516 16.7968 19.5652 16.951C19.0993 17.3397 18.2704 18.0626 17.8143 18.4675C17.8143 18.4675 17.9589 18.3261 17.8079 18.461Z" fill="white"/>
<path d="M5.91729 18.6444C8.74854 20.3679 13.1715 23.2057 20.2982 19.814C20.5998 19.6881 20.8106 19.8983 20.5121 20.2794C20.2116 20.6637 17.8096 22.8668 13.772 22.8668C9.73708 22.8668 6.64591 20.1102 5.70268 18.9665C5.44432 18.6698 5.7421 18.5357 5.91729 18.6444Z" fill="#F79300"/>
<path d="M22.2959 18.7086C22.1045 18.4594 21.1322 18.4129 20.5202 18.4881C19.9073 18.5611 18.9874 18.9357 19.0674 19.1606C19.1084 19.2448 19.1922 19.207 19.6132 19.1692C20.0354 19.127 21.2181 18.9778 21.4645 19.2999C21.7121 19.6243 21.0873 21.1696 20.9732 21.4188C20.863 21.668 21.0153 21.7323 21.2224 21.5663C21.4267 21.4004 21.7964 20.9707 22.0446 20.3626C22.291 19.7512 22.4414 18.8983 22.2959 18.7086Z" fill="#F79300"/>
<path d="M22.2959 18.7086C22.1045 18.4594 21.1322 18.4129 20.5202 18.4881C19.9073 18.5611 18.9874 18.9357 19.0674 19.1606C19.1084 19.2448 19.1922 19.207 19.6132 19.1692C20.0354 19.127 21.2181 18.9778 21.4645 19.2999C21.7121 19.6243 21.0873 21.1696 20.9732 21.4188C20.863 21.668 21.0153 21.7323 21.2224 21.5663C21.4267 21.4004 21.7964 20.9707 22.0446 20.3626C22.291 19.7512 22.4414 18.8983 22.2959 18.7086Z" fill="#F79300"/>
</svg>
