<svg width="169" height="174" viewBox="0 0 169 174" fill="none" xmlns="http://www.w3.org/2000/svg">
<g opacity="0.05" clip-path="url(#clip0_162_814)">
<path d="M115.015 100.8C126.851 99.9311 138.686 99.0626 150.521 98.194L144.689 90.7524C141.119 100.243 137.548 109.733 133.978 119.224C133.468 120.579 132.958 121.935 132.448 123.29C131.41 126.049 132.751 129.29 135.527 130.393C138.246 131.474 141.574 130.105 142.616 127.333C146.187 117.843 149.757 108.352 153.328 98.862C153.838 97.5065 154.348 96.1511 154.858 94.7957C156.363 90.7949 153.096 87.0553 149.026 87.354C137.19 88.2226 125.355 89.0911 113.52 89.9596C110.576 90.1756 108.468 93.3119 108.854 96.1116C109.278 99.1947 112.065 101.016 115.015 100.8Z" fill="#01010C"/>
<path d="M3.89194 69.675C19.2835 85.3931 41.922 93.3793 63.7265 89.6331C75.4563 87.6178 88.4124 81.7737 92.7851 69.7995C96.7161 59.0346 92.7161 45.4162 80.8518 41.9301C68.8437 38.4017 57.6766 45.0475 50.3664 54.221C46.6242 58.917 43.5068 64.1949 40.5105 69.3916C37.7996 74.0933 35.2011 78.9379 33.5884 84.1452C30.2239 95.0096 31.3123 106.63 39.0123 115.485C46.7836 124.422 58.318 128.939 69.9891 129.228C83.6714 129.568 97.2814 125.697 110.031 121.087C124.028 116.026 137.299 109.123 149.659 100.854C152.112 99.2125 152.305 95.3817 150.578 93.1778C148.637 90.7009 145.365 90.5895 142.905 92.2352C125.413 103.937 105.282 113.062 84.5207 117.022C75.3847 118.765 65.6477 119.289 56.9362 115.447C49.3639 112.106 43.0854 105.447 42.5715 96.8964C42.085 88.803 46.3327 80.8918 50.3312 74.1645C54.9968 66.3149 60.1883 56.1227 69.2787 52.7816C76.1117 50.2702 83.5524 53.285 83.4336 61.2968C83.2947 70.6661 74.1184 75.9223 66.0626 77.9977C47.3799 82.8109 26.0066 76.7517 12.4836 62.9418C10.4152 60.8295 7.31537 60.0364 4.81077 61.9992C2.68702 63.6636 1.80997 67.5488 3.89194 69.675Z" fill="#01010C"/>
</g>
<defs>
<clipPath id="clip0_162_814">
<rect width="137.164" height="106.623" fill="white" transform="translate(83.9229) rotate(51.9148)"/>
</clipPath>
</defs>
</svg>
