<svg width="170" height="175" viewBox="0 0 170 175" fill="none" xmlns="http://www.w3.org/2000/svg">
<g opacity="0.05" clip-path="url(#clip0_162_821)">
<path d="M53.6661 73.3212C41.8194 74.2978 29.9728 75.2744 18.1262 76.251L24.0346 83.6521C27.5253 74.1142 31.0161 64.5763 34.5068 55.0383C35.0054 53.6761 35.5039 52.3139 36.0025 50.9517C37.0172 48.1791 35.6448 44.9443 32.8542 43.8645C30.1211 42.807 26.8008 44.208 25.7814 46.9935C22.2907 56.5314 18.7999 66.0693 15.3092 75.6073C14.8106 76.9695 14.3121 78.3317 13.8135 79.6939C12.342 83.7147 15.6479 87.4308 19.7219 87.095C31.5685 86.1184 43.4151 85.1418 55.2617 84.1651C58.2082 83.9222 60.2911 80.7619 59.8798 77.9612C59.4268 74.877 56.6195 73.0777 53.6661 73.3212Z" fill="#01010C"/>
<path d="M165.249 103.494C149.691 87.8897 126.944 80.0946 105.138 84.0434C93.4073 86.1676 80.483 92.1379 76.2112 104.171C72.3709 114.988 76.5001 128.593 88.415 131.978C100.474 135.403 111.599 128.646 118.839 119.392C122.544 114.655 125.619 109.34 128.574 104.108C131.246 99.3746 133.806 94.4987 135.374 89.2685C138.646 78.3563 137.451 66.7273 129.659 57.9273C121.794 49.0459 110.201 44.6254 98.5083 44.4408C84.8009 44.2244 71.2039 48.2241 58.4756 52.9562C44.5015 58.1514 31.2716 65.1857 18.9659 73.5794C16.5237 75.2452 16.365 79.0839 18.1148 81.2758C20.0813 83.7391 23.3593 83.8213 25.8085 82.1507C43.2228 70.2724 63.3044 60.9517 84.0633 56.7978C93.1983 54.9698 102.946 54.3566 111.706 58.127C119.321 61.4044 125.67 68.0178 126.261 76.5777C126.822 84.6798 122.638 92.642 118.694 99.4162C114.092 107.32 108.984 117.576 99.9088 121.004C93.0874 123.581 85.6076 120.629 85.6544 112.603C85.7091 103.217 94.8528 97.8699 102.903 95.7186C121.572 90.7293 143.035 96.6056 156.704 110.316C158.795 112.413 161.906 113.179 164.397 111.191C166.51 109.505 167.353 105.605 165.249 103.494Z" fill="#01010C"/>
</g>
<defs>
<clipPath id="clip0_162_821">
<rect width="137.39" height="106.799" fill="white" transform="translate(85.7168 174.003) rotate(-128.601)"/>
</clipPath>
</defs>
</svg>
