<svg width="29" height="18" viewBox="0 0 29 18" fill="none" xmlns="http://www.w3.org/2000/svg">
<path d="M1.5 12.0001L1.5 6.0001M27.2387 9.74751L16.2483 16.2604C15.7646 16.547 15 16.3181 15 15.8867V14.0001C15 12.8955 13.6569 12.0001 12 12.0001H7.5C6.67157 12.0001 6 11.5524 6 11.0001L6 7.0001C6 6.44782 6.67157 6.0001 7.5 6.0001H12C13.6569 6.0001 15 5.10467 15 4.0001V2.11353C15 1.6821 15.7646 1.4532 16.2483 1.73982L27.2387 8.25269C27.91 8.65049 27.91 9.34972 27.2387 9.74751Z" stroke="#1CC2C4" stroke-width="2" stroke-linecap="round"/>
</svg>
