<svg width="263" height="175" viewBox="0 0 263 175" fill="none" xmlns="http://www.w3.org/2000/svg">
<g opacity="0.35" clip-path="url(#clip0_162_625)">
<path d="M124.166 73.5327C125.672 67.4616 139.907 58.595 147.515 63.9406C149.85 52.3743 152.034 45.1617 159.663 39.464C167.291 33.7662 180.02 41.2137 182.065 56.8132C184.109 50.4006 194.503 41.7579 202.853 49.0455C210.578 55.7888 211.353 67.0883 210.546 73.5222H124.166V73.5327Z" fill="url(#paint0_linear_162_625)"/>
<path d="M121.636 141.381C123.632 133.339 142.491 121.595 152.569 128.676C155.663 113.356 158.556 103.802 168.663 96.2547C178.769 88.7078 195.633 98.5725 198.341 119.235C201.05 110.741 214.82 99.2933 225.882 108.946C236.117 117.878 237.143 132.845 236.074 141.367H121.636V141.381Z" fill="url(#paint1_linear_162_625)"/>
<path d="M43.541 82.3687C44.6737 77.7887 55.376 71.0999 61.0954 75.1325C62.8508 66.4072 64.4928 60.9659 70.2282 56.6676C75.9637 52.3693 85.5336 57.9877 87.0707 69.7556C88.6078 64.918 96.4221 58.3984 102.7 63.896C108.508 68.983 109.09 77.5072 108.484 82.3608H43.541V82.3687Z" fill="url(#paint2_linear_162_625)"/>
<path fill-rule="evenodd" clip-rule="evenodd" d="M173.564 52.4312L155.54 34.4257C154.357 33.2436 152.952 32.3056 151.406 31.6655C149.859 31.0253 148.202 30.6954 146.528 30.6947H100.818C93.7755 30.6947 88.0713 36.393 88.0713 43.4283V132.565C88.0713 139.6 93.7755 145.299 100.818 145.299H164.552C171.595 145.299 177.299 139.6 177.299 132.565V61.434C177.298 58.0577 175.955 54.8198 173.564 52.4312Z" fill="#666AF6"/>
<path d="M108.706 75.1817H148.044M108.706 92.9673H148.044M108.706 110.753H136.948" stroke="white" stroke-width="4.18" stroke-linecap="round" stroke-linejoin="round"/>
<path d="M119.423 145.799C118.225 140.9 106.899 133.744 100.846 138.058C98.9887 128.724 97.2508 122.903 91.1814 118.305C85.1116 113.707 74.9844 119.717 73.3578 132.306C71.7313 127.131 63.4614 120.156 56.8184 126.037C50.6718 131.48 50.0555 140.598 50.6975 145.791H119.423V145.799Z" fill="url(#paint3_linear_162_625)"/>
<path d="M70.7321 116.766L73.2616 114.4L70.7321 112.033L68.2026 114.4L70.7321 116.766Z" stroke="#80BB9C" stroke-width="4.328" stroke-linecap="round" stroke-linejoin="round"/>
<path d="M58.1138 100.185L65.8072 92.5065C66.0873 92.2268 66.0873 91.7734 65.8072 91.4938C65.527 91.2142 65.0728 91.2142 64.7926 91.4938L57.0993 99.1725C56.8191 99.4522 56.8191 99.9055 57.0993 100.185C57.3794 100.465 57.8337 100.465 58.1138 100.185Z" fill="#80BB9C"/>
<path d="M58.8669 94.687L61.0855 92.4726C61.3657 92.193 61.3657 91.7396 61.0855 91.46C60.8053 91.1803 60.3511 91.1804 60.0709 91.46L57.8523 93.6744C57.5722 93.954 57.5721 94.4074 57.8523 94.687C58.1325 94.9666 58.5867 94.9666 58.8669 94.687Z" fill="#80BB9C"/>
<path d="M191.542 31.2011L183.849 38.8798C183.569 39.1594 183.569 39.6128 183.849 39.8924C184.129 40.172 184.583 40.172 184.864 39.8924L192.557 32.2137C192.837 31.9341 192.837 31.4807 192.557 31.2011C192.277 30.9214 191.823 30.9214 191.542 31.2011Z" fill="#80BB9C"/>
<path d="M190.789 36.6992L188.571 38.9136C188.291 39.1932 188.291 39.6466 188.571 39.9262C188.851 40.2059 189.305 40.2059 189.585 39.9262L191.804 37.7118C192.084 37.4322 192.084 36.9788 191.804 36.6992C191.524 36.4196 191.07 36.4196 190.789 36.6992Z" fill="#80BB9C"/>
<path d="M192.144 85.5245C192.144 87.0943 190.94 88.3648 189.453 88.3648C187.966 88.3648 186.768 87.0879 186.768 85.5245C186.768 83.9551 187.972 82.6846 189.459 82.6846C190.946 82.6846 192.144 83.9551 192.144 85.5245ZM58.0852 59.1742C58.0852 61.1797 56.3862 62.8031 54.2872 62.8031C52.1882 62.8031 50.4971 61.1718 50.4971 59.1742C50.4971 57.1687 52.1963 55.545 54.2954 55.545C56.3944 55.545 58.0852 57.1687 58.0852 59.1742Z" stroke="#80BB9C" stroke-width="5.41" stroke-miterlimit="10"/>
<path d="M199.129 59.633L198.322 58.8274C197.087 57.595 195.085 57.595 193.85 58.8274L193.043 59.633C191.808 60.8654 191.808 62.8636 193.043 64.096L193.85 64.9016C195.085 66.134 197.087 66.134 198.322 64.9016L199.129 64.096C200.364 62.8636 200.364 60.8654 199.129 59.633Z" fill="white"/>
<path d="M76.0445 38.7748C73.046 41.3898 67.8877 40.3982 67.8877 40.3982C67.8877 40.3982 67.5946 35.1663 70.5957 32.5529C73.5942 29.9375 78.7502 30.9275 78.7502 30.9275C78.7502 30.9275 79.0433 36.1594 76.0445 38.7748Z" fill="url(#paint4_linear_162_625)"/>
<path fill-rule="evenodd" clip-rule="evenodd" d="M134.6 145.605C134.6 145.605 151.214 134.284 174.559 134.125C198.01 133.965 216.667 145.218 218.386 145.799L134.6 145.605Z" fill="url(#paint5_linear_162_625)"/>
<path d="M213.186 95.3794C208.783 99.8527 200.548 98.9094 200.548 98.9094C200.548 98.9094 199.458 90.7136 203.866 86.2429C208.269 81.7696 216.5 82.71 216.5 82.71C216.5 82.71 217.59 90.9061 213.186 95.3794Z" fill="url(#paint6_linear_162_625)"/>
<path d="M181.474 30.4176L176.567 32.3324L176.878 27.083L181.784 25.1697L181.474 30.4176Z" stroke="#80BB9C" stroke-width="4.551" stroke-linecap="round" stroke-linejoin="round"/>
</g>
<defs>
<linearGradient id="paint0_linear_162_625" x1="165.635" y1="93.7026" x2="166.096" y2="-1.58842" gradientUnits="userSpaceOnUse">
<stop stop-color="white"/>
<stop offset="1" stop-color="#80BB9C"/>
</linearGradient>
<linearGradient id="paint1_linear_162_625" x1="176.575" y1="168.097" x2="177.185" y2="41.8784" gradientUnits="userSpaceOnUse">
<stop stop-color="white"/>
<stop offset="1" stop-color="#80BB9C"/>
</linearGradient>
<linearGradient id="paint2_linear_162_625" x1="74.7182" y1="97.5847" x2="75.067" y2="25.6985" gradientUnits="userSpaceOnUse">
<stop stop-color="white"/>
<stop offset="1" stop-color="#80BB9C"/>
</linearGradient>
<linearGradient id="paint3_linear_162_625" x1="86.4298" y1="162.077" x2="86.0525" y2="85.1751" gradientUnits="userSpaceOnUse">
<stop stop-color="white"/>
<stop offset="1" stop-color="#80BB9C"/>
</linearGradient>
<linearGradient id="paint4_linear_162_625" x1="64.2042" y1="47.5863" x2="86.671" y2="17.5986" gradientUnits="userSpaceOnUse">
<stop stop-color="white"/>
<stop offset="1" stop-color="#80BB9C"/>
</linearGradient>
<linearGradient id="paint5_linear_162_625" x1="178.279" y1="152.346" x2="178.229" y2="121.417" gradientUnits="userSpaceOnUse">
<stop stop-color="white"/>
<stop offset="1" stop-color="#80BB9C"/>
</linearGradient>
<linearGradient id="paint6_linear_162_625" x1="195.617" y1="110.659" x2="227.366" y2="60.7953" gradientUnits="userSpaceOnUse">
<stop stop-color="white"/>
<stop offset="1" stop-color="#80BB9C"/>
</linearGradient>
<clipPath id="clip0_162_625">
<rect width="263" height="175" fill="white"/>
</clipPath>
</defs>
</svg>
