<?xml version="1.0" encoding="UTF-8"?>
<svg version="1.1" xmlns="http://www.w3.org/2000/svg" width="270" height="270">
<path d="M0 0 C1.93304623 1.33068055 3.84843071 2.68721359 5.75 4.0625 C6.91340977 4.88894048 8.07750153 5.71442153 9.2421875 6.5390625 C11.0136457 7.79664633 12.78198559 9.0574759 14.54003906 10.33374023 C19.19021366 13.70888908 23.95351385 16.89942283 28.75 20.0625 C29.47981079 19.61765259 29.47981079 19.61765259 30.22436523 19.16381836 C54.81905556 4.2779375 78.45509303 -4.15785449 107.4375 -4.25 C108.61193161 -4.25392761 108.61193161 -4.25392761 109.81008911 -4.25793457 C122.1997429 -4.26237627 133.78641335 -3.38269045 145.75 0.0625 C146.80445313 0.33964844 147.85890625 0.61679688 148.9453125 0.90234375 C183.412285 11.09217077 212.04420416 36.64223725 229.43798828 67.58447266 C245.94014996 98.75249294 248.95043772 138.18618457 238.80004883 171.80957031 C227.7146906 206.61047643 203.78614661 234.73169881 171.75 252.0625 C163.81491851 256.15599442 155.60041026 259.28646568 147.0625 261.875 C146.4223999 262.07013184 145.7822998 262.26526367 145.12280273 262.46630859 C133.49217575 265.77101088 121.71482499 266.46867188 109.6875 266.4375 C108.96688385 266.43762085 108.2462677 266.4377417 107.5038147 266.43786621 C95.54684893 266.40941182 84.28478312 265.32833691 72.75 262.0625 C71.16445312 261.64677734 71.16445312 261.64677734 69.546875 261.22265625 C34.99054637 250.97849872 6.01533171 225.28734938 -11.25 194.0625 C-21.69306312 174.81192508 -26.55608752 154.65290334 -26.54052734 132.76025391 C-26.54652782 131.3692184 -26.55333679 129.97818619 -26.56088257 128.5871582 C-26.57837855 124.84789755 -26.58323044 121.10872866 -26.58451414 117.36943102 C-26.58594373 115.02886427 -26.59022809 112.6883203 -26.59550858 110.34775925 C-26.61394239 102.17111497 -26.62218607 93.99453547 -26.62060547 85.81787109 C-26.61940034 78.21046767 -26.64059211 70.60334623 -26.6720928 62.99601424 C-26.69824979 56.44455152 -26.70897327 49.89318111 -26.70769465 43.34166658 C-26.70718559 39.43698233 -26.71284011 35.53255017 -26.73405075 31.62791824 C-26.75342801 27.96199709 -26.75356169 24.29656915 -26.73901749 20.63063049 C-26.7359349 18.6494711 -26.7526023 16.66831164 -26.76989746 14.68722534 C-26.69239035 3.73220427 -26.69239035 3.73220427 -22.25 -0.9375 C-14.70110287 -5.61781622 -7.40211007 -4.60454788 0 0 Z " fill="#43C79D" transform="translate(26.25,3.9375)"/>
<path d="M0 0 C6.49353708 3.82924529 10.63788961 9.75089277 12.96484375 16.87109375 C14.70522302 24.70999212 13.51888176 31.15330725 9.4375 38 C4.96246735 43.67358947 -0.19546582 48.79399997 -5.28271484 53.91308594 C-6.38910057 55.0317379 -6.38910057 55.0317379 -7.51783752 56.17298889 C-9.93336881 58.61311573 -12.35283367 61.04928049 -14.7734375 63.484375 C-16.02121916 64.74014217 -16.02121916 64.74014217 -17.29420853 66.02127838 C-21.69096743 70.44464545 -26.09131298 74.86441226 -30.49414062 79.28173828 C-34.12651453 82.92748599 -37.75146866 86.58037545 -41.37011719 90.23974609 C-45.75667945 94.67565134 -50.15541305 99.09913199 -54.56315994 103.51398468 C-56.23468574 105.19221093 -57.90196395 106.87467936 -59.56480026 108.56151581 C-61.89271488 110.92112485 -64.23599408 113.26439107 -66.58349609 115.60449219 C-67.26014816 116.29754959 -67.93680023 116.99060699 -68.63395691 117.70466614 C-73.97636025 122.97871452 -79.48725934 126.41253625 -87.00390625 127.49609375 C-88.03386719 127.47675781 -89.06382813 127.45742187 -90.125 127.4375 C-91.15753906 127.43621094 -92.19007812 127.43492187 -93.25390625 127.43359375 C-103.41034971 126.10258404 -108.8096993 120.48100408 -115.703125 113.48828125 C-116.75747796 112.43475842 -117.81264823 111.38205297 -118.86859131 110.3301239 C-121.07183384 108.12972936 -123.26610056 105.92087042 -125.45410156 103.70532227 C-128.24514055 100.8802239 -131.05575068 98.07561152 -133.87320328 95.27688313 C-136.05296903 93.10773805 -138.22280253 90.9288698 -140.38976288 88.74693871 C-141.42190718 87.70964786 -142.45683741 86.6751208 -143.49469757 85.64354897 C-151.0055052 78.16120279 -157.52059874 71.08159149 -157.9375 59.9375 C-157.82983043 52.51808788 -155.43576144 47.10187537 -150.40234375 41.66796875 C-143.14836002 34.9468319 -137.86674942 33.50406531 -127.99609375 33.69921875 C-112.95878291 35.01648034 -100.5110193 52.93777135 -90.5625 63 C-84.24808802 57.85131691 -78.58828305 52.10023727 -72.88113594 46.30210495 C-71.09666626 44.49071107 -69.30761113 42.68396667 -67.51707458 40.87857056 C-62.43076847 35.74979025 -57.34726584 30.61833364 -52.2800293 25.47070312 C-49.16839451 22.31037405 -46.04693203 19.16004328 -42.91895866 16.01588821 C-41.73563132 14.82271224 -40.55595603 13.62590207 -39.38015938 12.42530441 C-28.22671579 1.04174951 -16.59967218 -7.40832571 0 0 Z " fill="#FDFEFE" transform="translate(204.5625,75)"/>
</svg>
