<svg width="360" height="76" viewBox="0 0 360 76" fill="none" xmlns="http://www.w3.org/2000/svg">
<g clip-path="url(#clip0_929_350)">
<path d="M221.836 68.6806C307.495 79.1446 334.336 73.9295 360 76L360 -1.19569L0.0196805 -1.19567L0.0196835 68.6806C81.3867 78.8955 71.8945 50.364 221.836 68.6806Z" fill="#CED3D9"/>
<path d="M115.475 51.6199C258.034 53.8412 243.97 66.7538 360 64.1899L360 -13.0058L0.0197415 -13.0058L0.0197441 47C-1.39471 52.6697 73.5512 50.9667 115.475 51.6199Z" fill="#9DA7B3"/>
<path d="M79.003 40.0883C193.68 56.4579 249.15 40.0883 360 49.8647L360 -13.013L-2.74847e-06 -13.013L-8.02749e-07 31.5C-8.02749e-07 31.5 7.25165 29.8461 79.003 40.0883Z" fill="#0A2342"/>
</g>
<defs>
<clipPath id="clip0_929_350">
<rect width="76" height="360" fill="white" transform="matrix(-4.37114e-08 -1 -1 4.37114e-08 360 76)"/>
</clipPath>
</defs>
</svg>
