<svg width="360" height="791" viewBox="0 0 360 791" fill="none" xmlns="http://www.w3.org/2000/svg">
<rect width="360" height="697" transform="translate(0 41)" fill="#0A2342"/>
<g clip-path="url(#clip0_1716_5040)" filter="url(#filter0_f_1716_5040)">
<path d="M77.0753 141.152C78.0035 140.616 79.1471 140.616 80.0753 141.152L87.9006 145.67C88.8288 146.206 89.4006 147.196 89.4006 148.268V157.304C89.4006 158.376 88.8288 159.366 87.9006 159.902L80.0753 164.42C79.1471 164.956 78.0035 164.956 77.0753 164.42L69.25 159.902C68.3218 159.366 67.75 158.376 67.75 157.304V148.268C67.75 147.196 68.3218 146.206 69.25 145.67L77.0753 141.152Z" fill="#EDFCFC"/>
<path d="M32.7838 197.792C33.459 197.403 34.291 197.403 34.9662 197.792L40.6588 201.077C41.334 201.466 41.75 202.186 41.75 202.965V209.535C41.75 210.314 41.334 211.034 40.6588 211.423L34.9662 214.708C34.291 215.097 33.459 215.097 32.7838 214.708L27.0912 211.423C26.416 211.034 26 210.314 26 209.535V202.965C26 202.186 26.416 201.466 27.0912 201.077L32.7838 197.792Z" fill="#3B4F68"/>
<path d="M269.641 96.2964C270.327 95.9012 271.173 95.9012 271.859 96.2964L277.641 99.6278C278.327 100.023 278.75 100.753 278.75 101.544V108.206C278.75 108.997 278.327 109.727 277.641 110.122L271.859 113.454C271.173 113.849 270.327 113.849 269.641 113.454L263.859 110.122C263.173 109.727 262.75 108.997 262.75 108.206V101.544C262.75 100.753 263.173 100.023 263.859 99.6278L269.641 96.2964Z" fill="#FAB365"/>
<path d="M77.564 99.8273C78.1828 99.4701 78.9452 99.4701 79.564 99.8274L89.9603 105.83C90.5791 106.187 90.9603 106.847 90.9603 107.562V119.566C90.9603 120.281 90.5791 120.941 89.9603 121.298L79.564 127.301C78.9452 127.658 78.1828 127.658 77.564 127.301L67.1677 121.298C66.5489 120.941 66.1677 120.281 66.1677 119.566V107.562C66.1677 106.847 66.5489 106.187 67.1677 105.83L77.564 99.8273Z" fill="#6C7B8E"/>
<path d="M293.5 165.327C294.119 164.97 294.881 164.97 295.5 165.327L304.542 170.548C305.161 170.905 305.542 171.565 305.542 172.28V182.72C305.542 183.435 305.161 184.095 304.542 184.452L295.5 189.673C294.881 190.03 294.119 190.03 293.5 189.673L284.458 184.452C283.839 184.095 283.458 183.435 283.458 182.72V172.28C283.458 171.565 283.839 170.905 284.458 170.548L293.5 165.327Z" fill="#E8789D"/>
<path d="M119.564 120.827C120.183 120.47 120.945 120.47 121.564 120.827L131.96 126.83C132.579 127.187 132.96 127.847 132.96 128.562V140.566C132.96 141.281 132.579 141.941 131.96 142.298L121.564 148.301C120.945 148.658 120.183 148.658 119.564 148.301L109.168 142.298C108.549 141.941 108.168 141.281 108.168 140.566V128.562C108.168 127.847 108.549 127.187 109.168 126.83L119.564 120.827Z" fill="#D81E5B"/>
<path d="M152.314 188.577C152.933 188.22 153.695 188.22 154.314 188.577L164.71 194.58C165.329 194.937 165.71 195.597 165.71 196.312V208.316C165.71 209.031 165.329 209.691 164.71 210.048L154.314 216.051C153.695 216.408 152.933 216.408 152.314 216.051L141.918 210.048C141.299 209.691 140.918 209.031 140.918 208.316V196.312C140.918 195.597 141.299 194.937 141.918 194.58L152.314 188.577Z" fill="#77DADC"/>
<path d="M197.75 92.5774C198.369 92.2201 199.131 92.2201 199.75 92.5774L213.771 100.673C214.39 101.03 214.771 101.69 214.771 102.405V118.595C214.771 119.31 214.39 119.97 213.771 120.327L199.75 128.423C199.131 128.78 198.369 128.78 197.75 128.423L183.729 120.327C183.11 119.97 182.729 119.31 182.729 118.595V102.405C182.729 101.69 183.11 101.03 183.729 100.673L197.75 92.5774Z" fill="#3B4F68"/>
<path d="M93.0753 302.152C94.0035 301.616 95.1471 301.616 96.0753 302.152L103.901 306.67C104.829 307.206 105.401 308.196 105.401 309.268V318.304C105.401 319.376 104.829 320.366 103.901 320.902L96.0753 325.42C95.1471 325.956 94.0035 325.956 93.0753 325.42L85.25 320.902C84.3218 320.366 83.75 319.376 83.75 318.304V309.268C83.75 308.196 84.3218 307.206 85.25 306.67L93.0753 302.152Z" fill="#3B4F68"/>
<path d="M255.325 545.402C256.254 544.866 257.397 544.866 258.325 545.402L266.151 549.92C267.079 550.456 267.651 551.446 267.651 552.518V561.554C267.651 562.626 267.079 563.616 266.151 564.152L258.325 568.67C257.397 569.206 256.254 569.206 255.325 568.67L247.5 564.152C246.572 563.616 246 562.626 246 561.554V552.518C246 551.446 246.572 550.456 247.5 549.92L255.325 545.402Z" fill="#1CC2C4"/>
<path d="M48.7838 358.792C49.459 358.403 50.291 358.403 50.9662 358.792L56.6588 362.077C57.334 362.466 57.75 363.186 57.75 363.965V370.535C57.75 371.314 57.334 372.034 56.6588 372.423L50.9662 375.708C50.291 376.097 49.459 376.097 48.7838 375.708L43.0912 372.423C42.416 372.034 42 371.314 42 370.535V363.965C42 363.186 42.416 362.466 43.0912 362.077L48.7838 358.792Z" fill="#F9A03F"/>
<path d="M48.7838 552.792C49.459 552.403 50.291 552.403 50.9662 552.792L56.6588 556.077C57.334 556.466 57.75 557.186 57.75 557.965V564.535C57.75 565.314 57.334 566.034 56.6588 566.423L50.9662 569.708C50.291 570.097 49.459 570.097 48.7838 569.708L43.0912 566.423C42.416 566.034 42 565.314 42 564.535V557.965C42 557.186 42.416 556.466 43.0912 556.077L48.7838 552.792Z" fill="#1CC2C4"/>
<path d="M285.641 257.296C286.327 256.901 287.173 256.901 287.859 257.296L293.641 260.628C294.327 261.023 294.75 261.753 294.75 262.544V269.206C294.75 269.997 294.327 270.727 293.641 271.122L287.859 274.454C287.173 274.849 286.327 274.849 285.641 274.454L279.859 271.122C279.173 270.727 278.75 269.997 278.75 269.206V262.544C278.75 261.753 279.173 261.023 279.859 260.628L285.641 257.296Z" fill="#1CC2C4"/>
<path d="M285.641 451.296C286.327 450.901 287.173 450.901 287.859 451.296L293.641 454.628C294.327 455.023 294.75 455.753 294.75 456.544V463.206C294.75 463.997 294.327 464.727 293.641 465.122L287.859 468.454C287.173 468.849 286.327 468.849 285.641 468.454L279.859 465.122C279.173 464.727 278.75 463.997 278.75 463.206V456.544C278.75 455.753 279.173 455.023 279.859 454.628L285.641 451.296Z" fill="#3B4F68"/>
<path d="M93.564 260.827C94.1828 260.47 94.9452 260.47 95.564 260.827L105.96 266.83C106.579 267.187 106.96 267.847 106.96 268.562V280.566C106.96 281.281 106.579 281.941 105.96 282.298L95.564 288.301C94.9452 288.658 94.1828 288.658 93.564 288.301L83.1677 282.298C82.5489 281.941 82.1677 281.281 82.1677 280.566V268.562C82.1677 267.847 82.5489 267.187 83.1677 266.83L93.564 260.827Z" fill="#F9A03F"/>
<path d="M93.564 454.827C94.1828 454.47 94.9452 454.47 95.564 454.827L105.96 460.83C106.579 461.187 106.96 461.847 106.96 462.562V474.566C106.96 475.281 106.579 475.941 105.96 476.298L95.564 482.301C94.9452 482.658 94.1828 482.658 93.564 482.301L83.1677 476.298C82.5489 475.941 82.1677 475.281 82.1677 474.566V462.562C82.1677 461.847 82.5489 461.187 83.1677 460.83L93.564 454.827Z" fill="#D81E5B"/>
<path d="M309.5 326.327C310.119 325.97 310.881 325.97 311.5 326.327L320.542 331.548C321.161 331.905 321.542 332.565 321.542 333.28V343.72C321.542 344.435 321.161 345.095 320.542 345.452L311.5 350.673C310.881 351.03 310.119 351.03 309.5 350.673L300.458 345.452C299.839 345.095 299.458 344.435 299.458 343.72V333.28C299.458 332.565 299.839 331.905 300.458 331.548L309.5 326.327Z" fill="#6C7B8E"/>
<path d="M309.5 520.327C310.119 519.97 310.881 519.97 311.5 520.327L320.542 525.548C321.161 525.905 321.542 526.565 321.542 527.28V537.72C321.542 538.435 321.161 539.095 320.542 539.452L311.5 544.673C310.881 545.03 310.119 545.03 309.5 544.673L300.458 539.452C299.839 539.095 299.458 538.435 299.458 537.72V527.28C299.458 526.565 299.839 525.905 300.458 525.548L309.5 520.327Z" fill="#6C7B8E"/>
<path d="M135.564 281.827C136.183 281.47 136.945 281.47 137.564 281.827L147.96 287.83C148.579 288.187 148.96 288.847 148.96 289.562V301.566C148.96 302.281 148.579 302.941 147.96 303.298L137.564 309.301C136.945 309.658 136.183 309.658 135.564 309.301L125.168 303.298C124.549 302.941 124.168 302.281 124.168 301.566V289.562C124.168 288.847 124.549 288.187 125.168 287.83L135.564 281.827Z" fill="#6C7B8E"/>
<path d="M135.564 475.827C136.183 475.47 136.945 475.47 137.564 475.827L147.96 481.83C148.579 482.187 148.96 482.847 148.96 483.562V495.566C148.96 496.281 148.579 496.941 147.96 497.298L137.564 503.301C136.945 503.658 136.183 503.658 135.564 503.301L125.168 497.298C124.549 496.941 124.168 496.281 124.168 495.566V483.562C124.168 482.847 124.549 482.187 125.168 481.83L135.564 475.827Z" fill="#6C7B8E"/>
<path d="M292.314 376.577C292.933 376.22 293.695 376.22 294.314 376.577L304.71 382.58C305.329 382.937 305.71 383.597 305.71 384.312V396.316C305.71 397.031 305.329 397.691 304.71 398.048L294.314 404.051C293.695 404.408 292.933 404.408 292.314 404.051L281.918 398.048C281.299 397.691 280.918 397.031 280.918 396.316V384.312C280.918 383.597 281.299 382.937 281.918 382.58L292.314 376.577Z" fill="#9DA7B3"/>
<path d="M171.564 553.077C172.183 552.72 172.945 552.72 173.564 553.077L183.96 559.08C184.579 559.437 184.96 560.097 184.96 560.812V572.816C184.96 573.531 184.579 574.191 183.96 574.548L173.564 580.551C172.945 580.908 172.183 580.908 171.564 580.551L161.168 574.548C160.549 574.191 160.168 573.531 160.168 572.816V560.812C160.168 560.097 160.549 559.437 161.168 559.08L171.564 553.077Z" fill="#EDFCFC"/>
<path d="M213.75 253.577C214.369 253.22 215.131 253.22 215.75 253.577L229.771 261.673C230.39 262.03 230.771 262.69 230.771 263.405V279.595C230.771 280.31 230.39 280.97 229.771 281.327L215.75 289.423C215.131 289.78 214.369 289.78 213.75 289.423L199.729 281.327C199.11 280.97 198.729 280.31 198.729 279.595V263.405C198.729 262.69 199.11 262.03 199.729 261.673L213.75 253.577Z" fill="#EDFCFC"/>
<path d="M221.5 414.577C222.119 414.22 222.881 414.22 223.5 414.577L237.521 422.673C238.14 423.03 238.521 423.69 238.521 424.405V440.595C238.521 441.31 238.14 441.97 237.521 442.327L223.5 450.423C222.881 450.78 222.119 450.78 221.5 450.423L207.479 442.327C206.86 441.97 206.479 441.31 206.479 440.595V424.405C206.479 423.69 206.86 423.03 207.479 422.673L221.5 414.577Z" fill="#D81E5B"/>
<path d="M93.0753 664.152C94.0035 663.616 95.1471 663.616 96.0753 664.152L103.901 668.67C104.829 669.206 105.401 670.196 105.401 671.268V680.304C105.401 681.376 104.829 682.366 103.901 682.902L96.0753 687.42C95.1471 687.956 94.0035 687.956 93.0753 687.42L85.25 682.902C84.3218 682.366 83.75 681.376 83.75 680.304V671.268C83.75 670.196 84.3218 669.206 85.25 668.67L93.0753 664.152Z" fill="#EDFCFC"/>
<path d="M48.7838 720.792C49.459 720.403 50.291 720.403 50.9662 720.792L56.6588 724.077C57.334 724.466 57.75 725.186 57.75 725.965V732.535C57.75 733.314 57.334 734.034 56.6588 734.423L50.9662 737.708C50.291 738.097 49.459 738.097 48.7838 737.708L43.0912 734.423C42.416 734.034 42 733.314 42 732.535V725.965C42 725.186 42.416 724.466 43.0912 724.077L48.7838 720.792Z" fill="#3B4F68"/>
<path d="M285.641 619.296C286.327 618.901 287.173 618.901 287.859 619.296L293.641 622.628C294.327 623.023 294.75 623.753 294.75 624.544V631.206C294.75 631.997 294.327 632.727 293.641 633.122L287.859 636.454C287.173 636.849 286.327 636.849 285.641 636.454L279.859 633.122C279.173 632.727 278.75 631.997 278.75 631.206V624.544C278.75 623.753 279.173 623.023 279.859 622.628L285.641 619.296Z" fill="#E04B7C"/>
<path d="M93.564 622.827C94.1828 622.47 94.9452 622.47 95.564 622.827L105.96 628.83C106.579 629.187 106.96 629.847 106.96 630.562V642.566C106.96 643.281 106.579 643.941 105.96 644.298L95.564 650.301C94.9452 650.658 94.1828 650.658 93.564 650.301L83.1677 644.298C82.5489 643.941 82.1677 643.281 82.1677 642.566V630.562C82.1677 629.847 82.5489 629.187 83.1677 628.83L93.564 622.827Z" fill="#F9A03F"/>
<path d="M309.5 688.327C310.119 687.97 310.881 687.97 311.5 688.327L320.542 693.548C321.161 693.905 321.542 694.565 321.542 695.28V705.72C321.542 706.435 321.161 707.095 320.542 707.452L311.5 712.673C310.881 713.03 310.119 713.03 309.5 712.673L300.458 707.452C299.839 707.095 299.458 706.435 299.458 705.72V695.28C299.458 694.565 299.839 693.905 300.458 693.548L309.5 688.327Z" fill="#1CC2C4"/>
<path d="M135.564 643.827C136.183 643.47 136.945 643.47 137.564 643.827L147.96 649.83C148.579 650.187 148.96 650.847 148.96 651.562V663.566C148.96 664.281 148.579 664.941 147.96 665.298L137.564 671.301C136.945 671.658 136.183 671.658 135.564 671.301L125.168 665.298C124.549 664.941 124.168 664.281 124.168 663.566V651.562C124.168 650.847 124.549 650.187 125.168 649.83L135.564 643.827Z" fill="#6C7B8E"/>
<path d="M171.564 721.077C172.183 720.72 172.945 720.72 173.564 721.077L183.96 727.08C184.579 727.437 184.96 728.097 184.96 728.812V740.816C184.96 741.531 184.579 742.191 183.96 742.548L173.564 748.551C172.945 748.908 172.183 748.908 171.564 748.551L161.168 742.548C160.549 742.191 160.168 741.531 160.168 740.816V728.812C160.168 728.097 160.549 727.437 161.168 727.08L171.564 721.077Z" fill="#9DA7B3"/>
<path d="M213.75 615.577C214.369 615.22 215.131 615.22 215.75 615.577L229.771 623.673C230.39 624.03 230.771 624.69 230.771 625.405V641.595C230.771 642.31 230.39 642.97 229.771 643.327L215.75 651.423C215.131 651.78 214.369 651.78 213.75 651.423L199.729 643.327C199.11 642.97 198.729 642.31 198.729 641.595V625.405C198.729 624.69 199.11 624.03 199.729 623.673L213.75 615.577Z" fill="#3B4F68"/>
</g>
<g clip-path="url(#clip1_1716_5040)">
<path d="M221.836 7.31937C307.495 -3.14461 334.336 2.07054 360 0L360 77.1957L0.0196805 77.1957L0.0196835 7.31937C81.3867 -2.89553 71.8945 25.636 221.836 7.31937Z" fill="#D2F3F3"/>
<path d="M115.475 24.3801C258.034 22.1588 243.97 9.24621 360 11.8101L360 89.0058L0.0197415 89.0058L0.0197441 29C-1.39471 23.3303 73.5512 25.0333 115.475 24.3801Z" fill="#6C7B8E"/>
<path d="M79.003 35.9117C193.68 19.5421 249.15 35.9117 360 26.1353L360 89.013L-2.74847e-06 89.013L-1.33631e-06 56.7064C-1.33631e-06 56.7064 7.25162 46.1539 79.003 35.9117Z" fill="#0A2342"/>
</g>
<g clip-path="url(#clip2_1716_5040)">
<path d="M221.836 783.681C307.495 794.145 334.336 788.929 360 791L360 713.804L0.0196805 713.804L0.0196835 783.681C81.3867 793.896 71.8945 765.364 221.836 783.681Z" fill="#CED3D9"/>
<path d="M115.475 766.62C258.034 768.841 243.97 781.754 360 779.19L360 701.994L0.0197415 701.994L0.0197441 762C-1.39471 767.67 73.5512 765.967 115.475 766.62Z" fill="#9DA7B3"/>
<path d="M79.003 755.088C193.68 771.458 249.15 755.088 360 764.865L360 701.987L-2.74847e-06 701.987L-8.02749e-07 746.5C-8.02749e-07 746.5 7.25165 744.846 79.003 755.088Z" fill="#0A2342"/>
</g>
<defs>
<filter id="filter0_f_1716_5040" x="22" y="88" width="326" height="658" filterUnits="userSpaceOnUse" color-interpolation-filters="sRGB">
<feFlood flood-opacity="0" result="BackgroundImageFix"/>
<feBlend mode="normal" in="SourceGraphic" in2="BackgroundImageFix" result="shape"/>
<feGaussianBlur stdDeviation="2" result="effect1_foregroundBlur_1716_5040"/>
</filter>
<clipPath id="clip0_1716_5040">
<rect width="318" height="650" fill="white" transform="translate(26 92)"/>
</clipPath>
<clipPath id="clip1_1716_5040">
<rect width="76" height="360" fill="white" transform="translate(360) rotate(90)"/>
</clipPath>
<clipPath id="clip2_1716_5040">
<rect width="76" height="360" fill="white" transform="matrix(-4.37114e-08 -1 -1 4.37114e-08 360 791)"/>
</clipPath>
</defs>
</svg>
