<svg width="360" height="76" viewBox="0 0 360 76" fill="none" xmlns="http://www.w3.org/2000/svg">
<g clip-path="url(#clip0_929_346)">
<path d="M221.836 7.31937C307.495 -3.14461 334.336 2.07054 360 0L360 77.1957L0.0196805 77.1957L0.0196835 7.31937C81.3867 -2.89553 71.8945 25.636 221.836 7.31937Z" fill="#D2F3F3"/>
<path d="M115.475 24.3801C258.034 22.1588 243.97 9.24621 360 11.8101L360 89.0058L0.0197415 89.0058L0.0197441 29C-1.39471 23.3303 73.5512 25.0333 115.475 24.3801Z" fill="#6C7B8E"/>
<path d="M79.003 35.9117C193.68 19.5421 249.15 35.9117 360 26.1353L360 89.013L-2.74847e-06 89.013L-1.33631e-06 56.7064C-1.33631e-06 56.7064 7.25162 46.1539 79.003 35.9117Z" fill="#0A2342"/>
</g>
<defs>
<clipPath id="clip0_929_346">
<rect width="76" height="360" fill="white" transform="translate(360) rotate(90)"/>
</clipPath>
</defs>
</svg>
