<svg width="360" height="793" viewBox="0 0 360 793" fill="none" xmlns="http://www.w3.org/2000/svg">
<rect width="360" height="697" transform="translate(0 42)" fill="#0A2342"/>
<g clip-path="url(#clip0_929_296)">
<path d="M77.0753 142.152C78.0035 141.616 79.1471 141.616 80.0753 142.152L87.9006 146.67C88.8288 147.206 89.4006 148.196 89.4006 149.268V158.304C89.4006 159.376 88.8288 160.366 87.9006 160.902L80.0753 165.42C79.1471 165.956 78.0035 165.956 77.0753 165.42L69.25 160.902C68.3218 160.366 67.75 159.376 67.75 158.304V149.268C67.75 148.196 68.3218 147.206 69.25 146.67L77.0753 142.152Z" fill="#EDFCFC"/>
<path d="M32.7838 198.792C33.459 198.403 34.291 198.403 34.9662 198.792L40.6588 202.077C41.334 202.466 41.75 203.186 41.75 203.965V210.535C41.75 211.314 41.334 212.034 40.6588 212.423L34.9662 215.708C34.291 216.097 33.459 216.097 32.7838 215.708L27.0912 212.423C26.416 212.034 26 211.314 26 210.535V203.965C26 203.186 26.416 202.466 27.0912 202.077L32.7838 198.792Z" fill="#3B4F68"/>
<path d="M269.641 97.2964C270.327 96.9012 271.173 96.9012 271.859 97.2964L277.641 100.628C278.327 101.023 278.75 101.753 278.75 102.544V109.206C278.75 109.997 278.327 110.727 277.641 111.122L271.859 114.454C271.173 114.849 270.327 114.849 269.641 114.454L263.859 111.122C263.173 110.727 262.75 109.997 262.75 109.206V102.544C262.75 101.753 263.173 101.023 263.859 100.628L269.641 97.2964Z" fill="#FAB365"/>
<path d="M77.564 100.827C78.1828 100.47 78.9452 100.47 79.564 100.827L89.9603 106.83C90.5791 107.187 90.9603 107.847 90.9603 108.562V120.566C90.9603 121.281 90.5791 121.941 89.9603 122.298L79.564 128.301C78.9452 128.658 78.1828 128.658 77.564 128.301L67.1677 122.298C66.5489 121.941 66.1677 121.281 66.1677 120.566V108.562C66.1677 107.847 66.5489 107.187 67.1677 106.83L77.564 100.827Z" fill="#6C7B8E"/>
<path d="M293.5 166.327C294.119 165.97 294.881 165.97 295.5 166.327L304.542 171.548C305.161 171.905 305.542 172.565 305.542 173.28V183.72C305.542 184.435 305.161 185.095 304.542 185.452L295.5 190.673C294.881 191.03 294.119 191.03 293.5 190.673L284.458 185.452C283.839 185.095 283.458 184.435 283.458 183.72V173.28C283.458 172.565 283.839 171.905 284.458 171.548L293.5 166.327Z" fill="#E8789D"/>
<path d="M119.564 121.827C120.183 121.47 120.945 121.47 121.564 121.827L131.96 127.83C132.579 128.187 132.96 128.847 132.96 129.562V141.566C132.96 142.281 132.579 142.941 131.96 143.298L121.564 149.301C120.945 149.658 120.183 149.658 119.564 149.301L109.168 143.298C108.549 142.941 108.168 142.281 108.168 141.566V129.562C108.168 128.847 108.549 128.187 109.168 127.83L119.564 121.827Z" fill="#D81E5B"/>
<path d="M152.314 189.577C152.933 189.22 153.695 189.22 154.314 189.577L164.71 195.58C165.329 195.937 165.71 196.597 165.71 197.312V209.316C165.71 210.031 165.329 210.691 164.71 211.048L154.314 217.051C153.695 217.408 152.933 217.408 152.314 217.051L141.918 211.048C141.299 210.691 140.918 210.031 140.918 209.316V197.312C140.918 196.597 141.299 195.937 141.918 195.58L152.314 189.577Z" fill="#77DADC"/>
<path d="M197.75 93.5774C198.369 93.2201 199.131 93.2201 199.75 93.5774L213.771 101.673C214.39 102.03 214.771 102.69 214.771 103.405V119.595C214.771 120.31 214.39 120.97 213.771 121.327L199.75 129.423C199.131 129.78 198.369 129.78 197.75 129.423L183.729 121.327C183.11 120.97 182.729 120.31 182.729 119.595V103.405C182.729 102.69 183.11 102.03 183.729 101.673L197.75 93.5774Z" fill="#3B4F68"/>
<path d="M93.0753 303.152C94.0035 302.616 95.1471 302.616 96.0753 303.152L103.901 307.67C104.829 308.206 105.401 309.196 105.401 310.268V319.304C105.401 320.376 104.829 321.366 103.901 321.902L96.0753 326.42C95.1471 326.956 94.0035 326.956 93.0753 326.42L85.25 321.902C84.3218 321.366 83.75 320.376 83.75 319.304V310.268C83.75 309.196 84.3218 308.206 85.25 307.67L93.0753 303.152Z" fill="#3B4F68"/>
<path d="M255.325 546.402C256.254 545.866 257.397 545.866 258.325 546.402L266.151 550.92C267.079 551.456 267.651 552.446 267.651 553.518V562.554C267.651 563.626 267.079 564.616 266.151 565.152L258.325 569.67C257.397 570.206 256.254 570.206 255.325 569.67L247.5 565.152C246.572 564.616 246 563.626 246 562.554V553.518C246 552.446 246.572 551.456 247.5 550.92L255.325 546.402Z" fill="#1CC2C4"/>
<path d="M48.7838 359.792C49.459 359.403 50.291 359.403 50.9662 359.792L56.6588 363.077C57.334 363.466 57.75 364.186 57.75 364.965V371.535C57.75 372.314 57.334 373.034 56.6588 373.423L50.9662 376.708C50.291 377.097 49.459 377.097 48.7838 376.708L43.0912 373.423C42.416 373.034 42 372.314 42 371.535V364.965C42 364.186 42.416 363.466 43.0912 363.077L48.7838 359.792Z" fill="#F9A03F"/>
<path d="M48.7838 553.792C49.459 553.403 50.291 553.403 50.9662 553.792L56.6588 557.077C57.334 557.466 57.75 558.186 57.75 558.965V565.535C57.75 566.314 57.334 567.034 56.6588 567.423L50.9662 570.708C50.291 571.097 49.459 571.097 48.7838 570.708L43.0912 567.423C42.416 567.034 42 566.314 42 565.535V558.965C42 558.186 42.416 557.466 43.0912 557.077L48.7838 553.792Z" fill="#1CC2C4"/>
<path d="M285.641 258.296C286.327 257.901 287.173 257.901 287.859 258.296L293.641 261.628C294.327 262.023 294.75 262.753 294.75 263.544V270.206C294.75 270.997 294.327 271.727 293.641 272.122L287.859 275.454C287.173 275.849 286.327 275.849 285.641 275.454L279.859 272.122C279.173 271.727 278.75 270.997 278.75 270.206V263.544C278.75 262.753 279.173 262.023 279.859 261.628L285.641 258.296Z" fill="#1CC2C4"/>
<path d="M285.641 452.296C286.327 451.901 287.173 451.901 287.859 452.296L293.641 455.628C294.327 456.023 294.75 456.753 294.75 457.544V464.206C294.75 464.997 294.327 465.727 293.641 466.122L287.859 469.454C287.173 469.849 286.327 469.849 285.641 469.454L279.859 466.122C279.173 465.727 278.75 464.997 278.75 464.206V457.544C278.75 456.753 279.173 456.023 279.859 455.628L285.641 452.296Z" fill="#3B4F68"/>
<path d="M93.564 261.827C94.1828 261.47 94.9452 261.47 95.564 261.827L105.96 267.83C106.579 268.187 106.96 268.847 106.96 269.562V281.566C106.96 282.281 106.579 282.941 105.96 283.298L95.564 289.301C94.9452 289.658 94.1828 289.658 93.564 289.301L83.1677 283.298C82.5489 282.941 82.1677 282.281 82.1677 281.566V269.562C82.1677 268.847 82.5489 268.187 83.1677 267.83L93.564 261.827Z" fill="#F9A03F"/>
<path d="M93.564 455.827C94.1828 455.47 94.9452 455.47 95.564 455.827L105.96 461.83C106.579 462.187 106.96 462.847 106.96 463.562V475.566C106.96 476.281 106.579 476.941 105.96 477.298L95.564 483.301C94.9452 483.658 94.1828 483.658 93.564 483.301L83.1677 477.298C82.5489 476.941 82.1677 476.281 82.1677 475.566V463.562C82.1677 462.847 82.5489 462.187 83.1677 461.83L93.564 455.827Z" fill="#D81E5B"/>
<path d="M309.5 327.327C310.119 326.97 310.881 326.97 311.5 327.327L320.542 332.548C321.161 332.905 321.542 333.565 321.542 334.28V344.72C321.542 345.435 321.161 346.095 320.542 346.452L311.5 351.673C310.881 352.03 310.119 352.03 309.5 351.673L300.458 346.452C299.839 346.095 299.458 345.435 299.458 344.72V334.28C299.458 333.565 299.839 332.905 300.458 332.548L309.5 327.327Z" fill="#6C7B8E"/>
<path d="M309.5 521.327C310.119 520.97 310.881 520.97 311.5 521.327L320.542 526.548C321.161 526.905 321.542 527.565 321.542 528.28V538.72C321.542 539.435 321.161 540.095 320.542 540.452L311.5 545.673C310.881 546.03 310.119 546.03 309.5 545.673L300.458 540.452C299.839 540.095 299.458 539.435 299.458 538.72V528.28C299.458 527.565 299.839 526.905 300.458 526.548L309.5 521.327Z" fill="#6C7B8E"/>
<path d="M135.564 282.827C136.183 282.47 136.945 282.47 137.564 282.827L147.96 288.83C148.579 289.187 148.96 289.847 148.96 290.562V302.566C148.96 303.281 148.579 303.941 147.96 304.298L137.564 310.301C136.945 310.658 136.183 310.658 135.564 310.301L125.168 304.298C124.549 303.941 124.168 303.281 124.168 302.566V290.562C124.168 289.847 124.549 289.187 125.168 288.83L135.564 282.827Z" fill="#6C7B8E"/>
<path d="M135.564 476.827C136.183 476.47 136.945 476.47 137.564 476.827L147.96 482.83C148.579 483.187 148.96 483.847 148.96 484.562V496.566C148.96 497.281 148.579 497.941 147.96 498.298L137.564 504.301C136.945 504.658 136.183 504.658 135.564 504.301L125.168 498.298C124.549 497.941 124.168 497.281 124.168 496.566V484.562C124.168 483.847 124.549 483.187 125.168 482.83L135.564 476.827Z" fill="#6C7B8E"/>
<path d="M292.314 377.577C292.933 377.22 293.695 377.22 294.314 377.577L304.71 383.58C305.329 383.937 305.71 384.597 305.71 385.312V397.316C305.71 398.031 305.329 398.691 304.71 399.048L294.314 405.051C293.695 405.408 292.933 405.408 292.314 405.051L281.918 399.048C281.299 398.691 280.918 398.031 280.918 397.316V385.312C280.918 384.597 281.299 383.937 281.918 383.58L292.314 377.577Z" fill="#9DA7B3"/>
<path d="M171.564 554.077C172.183 553.72 172.945 553.72 173.564 554.077L183.96 560.08C184.579 560.437 184.96 561.097 184.96 561.812V573.816C184.96 574.531 184.579 575.191 183.96 575.548L173.564 581.551C172.945 581.908 172.183 581.908 171.564 581.551L161.168 575.548C160.549 575.191 160.168 574.531 160.168 573.816V561.812C160.168 561.097 160.549 560.437 161.168 560.08L171.564 554.077Z" fill="#EDFCFC"/>
<path d="M213.75 254.577C214.369 254.22 215.131 254.22 215.75 254.577L229.771 262.673C230.39 263.03 230.771 263.69 230.771 264.405V280.595C230.771 281.31 230.39 281.97 229.771 282.327L215.75 290.423C215.131 290.78 214.369 290.78 213.75 290.423L199.729 282.327C199.11 281.97 198.729 281.31 198.729 280.595V264.405C198.729 263.69 199.11 263.03 199.729 262.673L213.75 254.577Z" fill="#EDFCFC"/>
<path d="M221.5 415.577C222.119 415.22 222.881 415.22 223.5 415.577L237.521 423.673C238.14 424.03 238.521 424.69 238.521 425.405V441.595C238.521 442.31 238.14 442.97 237.521 443.327L223.5 451.423C222.881 451.78 222.119 451.78 221.5 451.423L207.479 443.327C206.86 442.97 206.479 442.31 206.479 441.595V425.405C206.479 424.69 206.86 424.03 207.479 423.673L221.5 415.577Z" fill="#D81E5B"/>
<path d="M93.0753 665.152C94.0035 664.616 95.1471 664.616 96.0753 665.152L103.901 669.67C104.829 670.206 105.401 671.196 105.401 672.268V681.304C105.401 682.376 104.829 683.366 103.901 683.902L96.0753 688.42C95.1471 688.956 94.0035 688.956 93.0753 688.42L85.25 683.902C84.3218 683.366 83.75 682.376 83.75 681.304V672.268C83.75 671.196 84.3218 670.206 85.25 669.67L93.0753 665.152Z" fill="#EDFCFC"/>
<path d="M48.7838 721.792C49.459 721.403 50.291 721.403 50.9662 721.792L56.6588 725.077C57.334 725.466 57.75 726.186 57.75 726.965V733.535C57.75 734.314 57.334 735.034 56.6588 735.423L50.9662 738.708C50.291 739.097 49.459 739.097 48.7838 738.708L43.0912 735.423C42.416 735.034 42 734.314 42 733.535V726.965C42 726.186 42.416 725.466 43.0912 725.077L48.7838 721.792Z" fill="#3B4F68"/>
<path d="M285.641 620.296C286.327 619.901 287.173 619.901 287.859 620.296L293.641 623.628C294.327 624.023 294.75 624.753 294.75 625.544V632.206C294.75 632.997 294.327 633.727 293.641 634.122L287.859 637.454C287.173 637.849 286.327 637.849 285.641 637.454L279.859 634.122C279.173 633.727 278.75 632.997 278.75 632.206V625.544C278.75 624.753 279.173 624.023 279.859 623.628L285.641 620.296Z" fill="#E04B7C"/>
<path d="M93.564 623.827C94.1828 623.47 94.9452 623.47 95.564 623.827L105.96 629.83C106.579 630.187 106.96 630.847 106.96 631.562V643.566C106.96 644.281 106.579 644.941 105.96 645.298L95.564 651.301C94.9452 651.658 94.1828 651.658 93.564 651.301L83.1677 645.298C82.5489 644.941 82.1677 644.281 82.1677 643.566V631.562C82.1677 630.847 82.5489 630.187 83.1677 629.83L93.564 623.827Z" fill="#F9A03F"/>
<path d="M309.5 689.327C310.119 688.97 310.881 688.97 311.5 689.327L320.542 694.548C321.161 694.905 321.542 695.565 321.542 696.28V706.72C321.542 707.435 321.161 708.095 320.542 708.452L311.5 713.673C310.881 714.03 310.119 714.03 309.5 713.673L300.458 708.452C299.839 708.095 299.458 707.435 299.458 706.72V696.28C299.458 695.565 299.839 694.905 300.458 694.548L309.5 689.327Z" fill="#1CC2C4"/>
<path d="M135.564 644.827C136.183 644.47 136.945 644.47 137.564 644.827L147.96 650.83C148.579 651.187 148.96 651.847 148.96 652.562V664.566C148.96 665.281 148.579 665.941 147.96 666.298L137.564 672.301C136.945 672.658 136.183 672.658 135.564 672.301L125.168 666.298C124.549 665.941 124.168 665.281 124.168 664.566V652.562C124.168 651.847 124.549 651.187 125.168 650.83L135.564 644.827Z" fill="#6C7B8E"/>
<path d="M171.564 722.077C172.183 721.72 172.945 721.72 173.564 722.077L183.96 728.08C184.579 728.437 184.96 729.097 184.96 729.812V741.816C184.96 742.531 184.579 743.191 183.96 743.548L173.564 749.551C172.945 749.908 172.183 749.908 171.564 749.551L161.168 743.548C160.549 743.191 160.168 742.531 160.168 741.816V729.812C160.168 729.097 160.549 728.437 161.168 728.08L171.564 722.077Z" fill="#9DA7B3"/>
<path d="M213.75 616.577C214.369 616.22 215.131 616.22 215.75 616.577L229.771 624.673C230.39 625.03 230.771 625.69 230.771 626.405V642.595C230.771 643.31 230.39 643.97 229.771 644.327L215.75 652.423C215.131 652.78 214.369 652.78 213.75 652.423L199.729 644.327C199.11 643.97 198.729 643.31 198.729 642.595V626.405C198.729 625.69 199.11 625.03 199.729 624.673L213.75 616.577Z" fill="#3B4F68"/>
</g>
<g clip-path="url(#clip1_929_296)">
<path d="M221.836 7.31937C307.495 -3.14461 334.336 2.07054 360 0L360 77.1957L0.0196805 77.1957L0.0196835 7.31937C81.3867 -2.89553 71.8945 25.636 221.836 7.31937Z" fill="#D2F3F3"/>
<path d="M115.475 24.3801C258.034 22.1588 243.97 9.24621 360 11.8101L360 89.0058L0.0197415 89.0058L0.0197441 29C-1.39471 23.3303 73.5512 25.0333 115.475 24.3801Z" fill="#6C7B8E"/>
<path d="M79.003 35.9117C193.68 19.5421 249.15 35.9117 360 26.1353L360 89.013L-2.74847e-06 89.013L-1.33631e-06 56.7064C-1.33631e-06 56.7064 7.25162 46.1539 79.003 35.9117Z" fill="#0A2342"/>
</g>
<g clip-path="url(#clip2_929_296)">
<path d="M221.836 785.681C307.495 796.145 334.336 790.929 360 793L360 715.804L0.0196805 715.804L0.0196835 785.681C81.3867 795.896 71.8945 767.364 221.836 785.681Z" fill="#CED3D9"/>
<path d="M115.475 768.62C258.034 770.841 243.97 783.754 360 781.19L360 703.994L0.0197415 703.994L0.0197441 764C-1.39471 769.67 73.5512 767.967 115.475 768.62Z" fill="#9DA7B3"/>
<path d="M79.003 757.088C193.68 773.458 249.15 757.088 360 766.865L360 703.987L-2.74847e-06 703.987L-8.02749e-07 748.5C-8.02749e-07 748.5 7.25165 746.846 79.003 757.088Z" fill="#0A2342"/>
</g>
<defs>
<clipPath id="clip0_929_296">
<rect width="318" height="650" fill="white" transform="translate(26 93)"/>
</clipPath>
<clipPath id="clip1_929_296">
<rect width="76" height="360" fill="white" transform="translate(360) rotate(90)"/>
</clipPath>
<clipPath id="clip2_929_296">
<rect width="76" height="360" fill="white" transform="matrix(-4.37114e-08 -1 -1 4.37114e-08 360 793)"/>
</clipPath>
</defs>
</svg>
