<svg width="1336" height="929" viewBox="0 0 1336 929" fill="none" xmlns="http://www.w3.org/2000/svg">
<line y1="-1.5" x2="157.44" y2="-1.5" transform="matrix(-0.872241 -0.489076 0.480088 -0.877221 275.928 802)" stroke="#1CC2C4" stroke-width="3"/>
<g filter="url(#filter0_i_871_2255)">
<path d="M1209.96 256.464C1213.68 254.321 1218.25 254.321 1221.96 256.464L1316.48 311.036C1320.2 313.179 1322.48 317.141 1322.48 321.428V430.572C1322.48 434.859 1320.2 438.821 1316.48 440.964L1221.96 495.536C1218.25 497.679 1213.68 497.679 1209.96 495.536L1115.44 440.964C1111.73 438.821 1109.44 434.859 1109.44 430.572V321.428C1109.44 317.141 1111.73 313.179 1115.44 311.036L1209.96 256.464Z" fill="url(#paint0_linear_871_2255)"/>
</g>
<g filter="url(#filter1_i_871_2255)">
<path d="M1210.46 297.464C1214.18 295.321 1218.75 295.321 1222.46 297.464L1281.04 331.286C1284.76 333.429 1287.04 337.391 1287.04 341.678V409.322C1287.04 413.609 1284.76 417.571 1281.04 419.714L1222.46 453.536C1218.75 455.679 1214.18 455.679 1210.46 453.536L1151.88 419.714C1148.17 417.571 1145.88 413.609 1145.88 409.322V341.678C1145.88 337.391 1148.17 333.429 1151.88 331.286L1210.46 297.464Z" fill="url(#paint1_linear_871_2255)"/>
</g>
<g filter="url(#filter2_d_871_2255)">
<path d="M1208.96 346.464C1212.68 344.321 1217.25 344.321 1220.96 346.464L1237.54 356.036C1241.26 358.179 1243.54 362.141 1243.54 366.428V385.572C1243.54 389.859 1241.26 393.821 1237.54 395.964L1220.96 405.536C1217.25 407.679 1212.68 407.679 1208.96 405.536L1192.39 395.964C1188.67 393.821 1186.39 389.859 1186.39 385.572V366.428C1186.39 362.141 1188.67 358.179 1192.39 356.036L1208.96 346.464Z" fill="#1CC2C4"/>
</g>
<path d="M1208.96 346.464C1212.68 344.321 1217.25 344.321 1220.96 346.464L1237.54 356.036C1241.26 358.179 1243.54 362.141 1243.54 366.428V385.572C1243.54 389.859 1241.26 393.821 1237.54 395.964L1220.96 405.536C1217.25 407.679 1212.68 407.679 1208.96 405.536L1192.39 395.964C1188.67 393.821 1186.39 389.859 1186.39 385.572V366.428C1186.39 362.141 1188.67 358.179 1192.39 356.036L1208.96 346.464Z" fill="#1CC2C4"/>
<path d="M270 755.464C273.668 753.321 278.187 753.321 281.855 755.464L312.779 773.536C316.447 775.68 318.707 779.641 318.707 783.928V820.072C318.707 824.359 316.447 828.321 312.779 830.464L281.855 848.536C278.187 850.68 273.668 850.68 270 848.536L239.076 830.464C235.408 828.321 233.148 824.359 233.148 820.072V783.928C233.148 779.641 235.408 775.68 239.076 773.536L270 755.464Z" fill="#1CC2C4"/>
<g filter="url(#filter3_d_871_2255)">
<path d="M43.5743 133.852C45.5227 132.716 47.9231 132.716 49.8715 133.852L66.2972 143.424C68.2456 144.559 69.4458 146.657 69.4458 148.928V168.072C69.4458 170.343 68.2456 172.441 66.2972 173.576L49.8715 183.148C47.9231 184.284 45.5227 184.284 43.5743 183.148L27.1486 173.576C25.2002 172.441 24 170.343 24 168.072V148.928C24 146.657 25.2002 144.559 27.1486 143.424L43.5743 133.852Z" fill="#D81E5B"/>
</g>
<path d="M359.213 755.464C362.881 753.321 367.401 753.321 371.069 755.464L401.993 773.536C405.661 775.68 407.92 779.641 407.92 783.928V820.072C407.92 824.359 405.661 828.321 401.993 830.464L371.069 848.536C367.401 850.68 362.881 850.68 359.213 848.536L328.289 830.464C324.621 828.321 322.361 824.359 322.361 820.072V783.928C322.361 779.641 324.621 775.68 328.289 773.536L359.213 755.464Z" fill="#1CC2C4"/>
<path d="M143.325 692.771C140.403 691.076 136.802 691.076 133.88 692.771L113.17 704.783C110.248 706.477 108.452 709.606 108.452 712.988V737.012C108.452 740.394 110.248 743.523 113.17 745.217L133.88 757.229C136.802 758.924 140.403 758.924 143.325 757.229L164.036 745.217C166.957 743.523 168.753 740.394 168.753 737.012V712.988C168.753 709.606 166.957 706.477 164.036 704.783L143.325 692.771Z" fill="#D2F3F3" stroke="#1CC2C4" stroke-width="3"/>
<g filter="url(#filter4_d_871_2255)">
<path d="M93.9601 133.852C95.9084 132.716 98.3089 132.716 100.257 133.852L116.683 143.424C118.631 144.559 119.832 146.657 119.832 148.928V168.072C119.832 170.343 118.631 172.441 116.683 173.576L100.257 183.148C98.3089 184.284 95.9084 184.284 93.9601 183.148L77.5343 173.576C75.586 172.441 74.3857 170.343 74.3857 168.072V148.928C74.3857 146.657 75.586 144.559 77.5343 143.424L93.9601 133.852Z" fill="#D81E5B"/>
</g>
<path d="M1086.7 733.97C1091.19 731.343 1096.72 731.343 1101.21 733.97L1139.06 756.117C1143.55 758.744 1146.31 763.599 1146.31 768.853V813.147C1146.31 818.401 1143.55 823.256 1139.06 825.883L1101.21 848.03C1096.72 850.657 1091.19 850.657 1086.7 848.03L1048.85 825.883C1044.36 823.256 1041.59 818.401 1041.59 813.147V768.853C1041.59 763.599 1044.36 758.744 1048.85 756.117L1086.7 733.97Z" fill="#CED3D9"/>
<path d="M355.431 1.6196C359.116 -0.539866 363.656 -0.539866 367.34 1.6196L398.407 19.8252C402.091 21.9846 404.361 25.9755 404.361 30.2944V66.7056C404.361 71.0245 402.091 75.0154 398.407 77.1748L367.34 95.3804C363.656 97.5399 359.116 97.5399 355.431 95.3804L324.365 77.1748C320.68 75.0154 318.41 71.0245 318.41 66.7056V30.2944C318.41 25.9755 320.68 21.9846 324.365 19.8252L355.431 1.6196Z" fill="#6C7B8E"/>
<path d="M89.0196 448.852C90.968 447.716 93.3684 447.716 95.3168 448.852L111.743 458.424C113.691 459.559 114.891 461.657 114.891 463.928V483.072C114.891 485.343 113.691 487.441 111.743 488.576L95.3168 498.148C93.3684 499.284 90.968 499.284 89.0196 498.148L72.5939 488.576C70.6455 487.441 69.4453 485.343 69.4453 483.072V463.928C69.4453 461.657 70.6455 459.559 72.5939 458.424L89.0196 448.852Z" fill="#D81E5B"/>
<path d="M1061.16 55.8515C1063.11 54.7162 1065.51 54.7162 1067.46 55.8515L1083.89 65.4235C1085.84 66.5589 1087.04 68.6572 1087.04 70.928V90.072C1087.04 92.3428 1085.84 94.4411 1083.89 95.5765L1067.46 105.148C1065.51 106.284 1063.11 106.284 1061.16 105.148L1044.74 95.5765C1042.79 94.4411 1041.59 92.3428 1041.59 90.072V70.928C1041.59 68.6572 1042.79 66.5589 1044.74 65.4235L1061.16 55.8515Z" fill="#D81E5B"/>
<path d="M1248.04 613.935C1250.2 612.688 1252.86 612.688 1255.02 613.935L1273.23 624.445C1275.39 625.692 1276.72 627.996 1276.72 630.49V651.51C1276.72 654.004 1275.39 656.308 1273.23 657.555L1255.02 668.065C1252.86 669.312 1250.2 669.312 1248.04 668.065L1229.83 657.555C1227.67 656.308 1226.34 654.004 1226.34 651.51V630.49C1226.34 627.996 1227.67 625.692 1229.83 624.445L1248.04 613.935Z" fill="#F9A03F"/>
<path d="M651.834 90.5343C653.063 89.8219 654.576 89.8219 655.804 90.5343L666.16 96.5403C667.388 97.2527 668.145 98.5692 668.145 99.994V112.006C668.145 113.431 667.388 114.747 666.16 115.46L655.804 121.466C654.576 122.178 653.063 122.178 651.834 121.466L641.479 115.46C640.251 114.747 639.494 113.431 639.494 112.006V99.994C639.494 98.5692 640.251 97.2527 641.479 96.5403L651.834 90.5343Z" fill="#F9A03F"/>
<path d="M314.755 833.608C318.423 831.464 322.943 831.464 326.611 833.608L357.535 851.679C361.203 853.823 363.462 857.785 363.462 862.072V898.215C363.462 902.503 361.203 906.464 357.535 908.608L326.611 926.679C322.943 928.823 318.423 928.823 314.755 926.679L283.831 908.608C280.163 906.464 277.903 902.503 277.903 898.215V862.072C277.903 857.785 280.163 853.823 283.831 851.679L314.755 833.608Z" fill="#1CC2C4"/>
<path d="M314.755 678.608C318.423 676.464 322.943 676.464 326.611 678.608L357.535 696.679C361.203 698.823 363.462 702.785 363.462 707.072V743.215C363.462 747.503 361.203 751.464 357.535 753.608L326.611 771.679C322.943 773.823 318.423 773.823 314.755 771.679L283.831 753.608C280.163 751.464 277.903 747.503 277.903 743.215V707.072C277.903 702.785 280.163 698.823 283.831 696.679L314.755 678.608Z" fill="#1CC2C4"/>
<path d="M68.8353 90.8515C70.7413 89.7162 73.0896 89.7162 74.9956 90.8515L91.0642 100.424C92.9702 101.559 94.1444 103.657 94.1444 105.928V125.072C94.1444 127.343 92.9702 129.441 91.0642 130.576L74.9956 140.148C73.0896 141.284 70.7413 141.284 68.8353 140.148L52.7667 130.576C50.8607 129.441 49.6865 127.343 49.6865 125.072V105.928C49.6865 103.657 50.8607 101.559 52.7667 100.424L68.8353 90.8515Z" fill="#D81E5B"/>
<defs>
<filter id="filter0_i_871_2255" x="1109.44" y="254.856" width="213.042" height="244.287" filterUnits="userSpaceOnUse" color-interpolation-filters="sRGB">
<feFlood flood-opacity="0" result="BackgroundImageFix"/>
<feBlend mode="normal" in="SourceGraphic" in2="BackgroundImageFix" result="shape"/>
<feColorMatrix in="SourceAlpha" type="matrix" values="0 0 0 0 0 0 0 0 0 0 0 0 0 0 0 0 0 0 127 0" result="hardAlpha"/>
<feOffset dy="2"/>
<feGaussianBlur stdDeviation="12"/>
<feComposite in2="hardAlpha" operator="arithmetic" k2="-1" k3="1"/>
<feColorMatrix type="matrix" values="0 0 0 0 0 0 0 0 0 0 0 0 0 0 0 0 0 0 0.15 0"/>
<feBlend mode="normal" in2="shape" result="effect1_innerShadow_871_2255"/>
</filter>
<filter id="filter1_i_871_2255" x="1145.88" y="295.856" width="141.162" height="161.287" filterUnits="userSpaceOnUse" color-interpolation-filters="sRGB">
<feFlood flood-opacity="0" result="BackgroundImageFix"/>
<feBlend mode="normal" in="SourceGraphic" in2="BackgroundImageFix" result="shape"/>
<feColorMatrix in="SourceAlpha" type="matrix" values="0 0 0 0 0 0 0 0 0 0 0 0 0 0 0 0 0 0 127 0" result="hardAlpha"/>
<feOffset dy="2"/>
<feGaussianBlur stdDeviation="12"/>
<feComposite in2="hardAlpha" operator="arithmetic" k2="-1" k3="1"/>
<feColorMatrix type="matrix" values="0 0 0 0 0 0 0 0 0 0 0 0 0 0 0 0 0 0 0.15 0"/>
<feBlend mode="normal" in2="shape" result="effect1_innerShadow_871_2255"/>
</filter>
<filter id="filter2_d_871_2255" x="1162.39" y="322.856" width="105.157" height="110.287" filterUnits="userSpaceOnUse" color-interpolation-filters="sRGB">
<feFlood flood-opacity="0" result="BackgroundImageFix"/>
<feColorMatrix in="SourceAlpha" type="matrix" values="0 0 0 0 0 0 0 0 0 0 0 0 0 0 0 0 0 0 127 0" result="hardAlpha"/>
<feOffset dy="2"/>
<feGaussianBlur stdDeviation="12"/>
<feComposite in2="hardAlpha" operator="out"/>
<feColorMatrix type="matrix" values="0 0 0 0 0 0 0 0 0 0 0 0 0 0 0 0 0 0 0.15 0"/>
<feBlend mode="normal" in2="BackgroundImageFix" result="effect1_dropShadow_871_2255"/>
<feBlend mode="normal" in="SourceGraphic" in2="effect1_dropShadow_871_2255" result="shape"/>
</filter>
<filter id="filter3_d_871_2255" x="0" y="111" width="93.4458" height="99" filterUnits="userSpaceOnUse" color-interpolation-filters="sRGB">
<feFlood flood-opacity="0" result="BackgroundImageFix"/>
<feColorMatrix in="SourceAlpha" type="matrix" values="0 0 0 0 0 0 0 0 0 0 0 0 0 0 0 0 0 0 127 0" result="hardAlpha"/>
<feOffset dy="2"/>
<feGaussianBlur stdDeviation="12"/>
<feComposite in2="hardAlpha" operator="out"/>
<feColorMatrix type="matrix" values="0 0 0 0 0 0 0 0 0 0 0 0 0 0 0 0 0 0 0.15 0"/>
<feBlend mode="normal" in2="BackgroundImageFix" result="effect1_dropShadow_871_2255"/>
<feBlend mode="normal" in="SourceGraphic" in2="effect1_dropShadow_871_2255" result="shape"/>
</filter>
<filter id="filter4_d_871_2255" x="50.3857" y="111" width="93.4458" height="99" filterUnits="userSpaceOnUse" color-interpolation-filters="sRGB">
<feFlood flood-opacity="0" result="BackgroundImageFix"/>
<feColorMatrix in="SourceAlpha" type="matrix" values="0 0 0 0 0 0 0 0 0 0 0 0 0 0 0 0 0 0 127 0" result="hardAlpha"/>
<feOffset dy="2"/>
<feGaussianBlur stdDeviation="12"/>
<feComposite in2="hardAlpha" operator="out"/>
<feColorMatrix type="matrix" values="0 0 0 0 0 0 0 0 0 0 0 0 0 0 0 0 0 0 0.15 0"/>
<feBlend mode="normal" in2="BackgroundImageFix" result="effect1_dropShadow_871_2255"/>
<feBlend mode="normal" in="SourceGraphic" in2="effect1_dropShadow_871_2255" result="shape"/>
</filter>
<linearGradient id="paint0_linear_871_2255" x1="1092.96" y1="339.5" x2="1261.96" y2="508.5" gradientUnits="userSpaceOnUse">
<stop stop-color="#E2ECF3"/>
<stop offset="1" stop-color="#B0E2E2"/>
</linearGradient>
<linearGradient id="paint1_linear_871_2255" x1="1134.96" y1="351.315" x2="1246.94" y2="463.295" gradientUnits="userSpaceOnUse">
<stop stop-color="#E2ECF3"/>
<stop offset="1" stop-color="#B0E2E2"/>
</linearGradient>
</defs>
</svg>
