<svg width="1440" height="700" viewBox="0 0 1440 700" fill="none" xmlns="http://www.w3.org/2000/svg">
<rect width="1440" height="700" fill="#1CC2C4"/>
<path d="M189.301 272.608C193.014 270.464 197.588 270.464 201.301 272.608L232.603 290.679C236.315 292.823 238.603 296.785 238.603 301.072V337.215C238.603 341.503 236.315 345.464 232.603 347.608L201.301 365.679C197.588 367.823 193.014 367.823 189.301 365.679L158 347.608C154.287 345.464 152 341.503 152 337.215V301.072C152 296.785 154.287 292.823 158 290.679L189.301 272.608Z" fill="#49CED0"/>
<path d="M12.1352 499.169C14.8362 497.61 18.1638 497.61 20.8648 499.169L43.6352 512.307C46.3362 513.865 48 516.745 48 519.862V546.138C48 549.255 46.3362 552.135 43.6352 553.693L20.8648 566.831C18.1638 568.39 14.8362 568.39 12.1352 566.831L-10.6352 553.693C-13.3362 552.135 -15 549.255 -15 546.138V519.862C-15 516.745 -13.3362 513.865 -10.6352 512.307L12.1352 499.169Z" fill="#49CED0"/>
<path d="M959.566 93.1855C962.31 91.6048 965.69 91.6048 968.434 93.1855L991.566 106.511C994.31 108.092 996 111.013 996 114.174V140.826C996 143.987 994.31 146.908 991.566 148.489L968.434 161.815C965.69 163.395 962.31 163.395 959.566 161.815L936.434 148.489C933.69 146.908 932 143.987 932 140.826V114.174C932 111.013 933.69 108.092 936.434 106.511L959.566 93.1855Z" fill="#49CED0"/>
<path d="M191.256 107.309C193.731 105.88 196.781 105.88 199.256 107.309L240.841 131.319C243.316 132.748 244.841 135.389 244.841 138.247V186.265C244.841 189.123 243.316 191.764 240.841 193.193L199.256 217.203C196.781 218.632 193.731 218.632 191.256 217.203L149.671 193.193C147.196 191.764 145.671 189.123 145.671 186.265V138.247C145.671 135.389 147.196 132.748 149.671 131.319L191.256 107.309Z" fill="#77DADC"/>
<path d="M1055 369.309C1057.48 367.88 1060.52 367.88 1063 369.309L1099.17 390.191C1101.64 391.62 1103.17 394.261 1103.17 397.119V438.881C1103.17 441.739 1101.64 444.38 1099.17 445.809L1063 466.691C1060.52 468.12 1057.48 468.12 1055 466.691L1018.83 445.809C1016.36 444.38 1014.83 441.739 1014.83 438.881V397.119C1014.83 394.261 1016.36 391.62 1018.83 390.191L1055 369.309Z" fill="#77DADC"/>
<path d="M359.256 191.309C361.731 189.88 364.781 189.88 367.256 191.309L408.841 215.319C411.316 216.748 412.841 219.389 412.841 222.247V270.265C412.841 273.123 411.316 275.764 408.841 277.193L367.256 301.203C364.781 302.632 361.731 302.632 359.256 301.203L317.671 277.193C315.196 275.764 313.671 273.123 313.671 270.265V222.247C313.671 219.389 315.196 216.748 317.671 215.319L359.256 191.309Z" fill="#77DADC"/>
<path d="M503.256 500.309C505.731 498.88 508.781 498.88 511.256 500.309L552.841 524.319C555.316 525.748 556.841 528.389 556.841 531.247V579.265C556.841 582.123 555.316 584.764 552.841 586.193L511.256 610.203C508.781 611.632 505.731 611.632 503.256 610.203L461.671 586.193C459.196 584.764 457.671 582.123 457.671 579.265V531.247C457.671 528.389 459.196 525.748 461.671 524.319L503.256 500.309Z" fill="#A4E7E7"/>
<path d="M672 78.3094C674.475 76.8803 677.525 76.8803 680 78.3094L736.086 110.691C738.561 112.12 740.086 114.761 740.086 117.619V182.381C740.086 185.239 738.561 187.88 736.086 189.309L680 221.691C677.525 223.12 674.475 223.12 672 221.691L615.914 189.309C613.439 187.88 611.914 185.239 611.914 182.381V117.619C611.914 114.761 613.439 112.12 615.914 110.691L672 78.3094Z" fill="#49CED0"/>
</svg>
