<svg width="348" height="874" viewBox="0 0 348 874" fill="none" xmlns="http://www.w3.org/2000/svg">
<g opacity="0.15">
<path d="M146.312 85.0732C147.443 -71.8611 96.3033 38.3797 19.1536 28.1569C21.0802 35.3405 23.0739 74.5189 15.6354 173.763C6.33721 297.819 101.455 314.12 146.312 272.4C191.17 230.68 145.181 242.008 146.312 85.0732Z" fill="#D2F3F3"/>
<path d="M326.463 96.1246C297.09 -19.5844 292.385 68.0318 194.429 64.1378C185.874 64.0262 155.931 64.1378 138.963 165.939C121.995 267.741 159.21 315.026 256.453 349.516C353.696 384.007 355.835 211.834 326.463 96.1246Z" fill="#49CED0"/>
<ellipse cx="158" cy="391.5" rx="67" ry="144.5" fill="#A4E7E7"/>
<path d="M129.099 391.542C24.4416 399.983 28.2346 236.189 17.9894 211.787C9.79334 192.265 88.6474 323.49 129.099 391.542Z" fill="#A4E7E7"/>
<path d="M249.974 665.706C141.516 642.728 98.9912 650.48 173.236 495.729C185.287 466.569 222.576 382.891 275.323 281.459C341.257 154.669 315.354 353.713 324.912 495.729C334.469 637.745 358.433 688.683 249.974 665.706Z" fill="#1CC2C4"/>
<path d="M116.929 759.561C-3.01977 851.635 28.0228 689.777 20.4002 674.328C14.3022 661.969 82.2116 726 116.929 759.561Z" fill="#A4E7E7"/>
<path d="M115.155 499.394C131.152 566.755 217.048 623.86 179.664 860.041C171.144 870.575 148.4 885.322 125.587 860.041C97.071 828.439 138.281 767.176 125.587 720.328C112.894 673.48 42.6464 683.46 17.2599 657.956C-8.12668 632.453 -6.73564 490.523 42.6464 410.41C92.0284 330.297 99.1575 432.032 115.155 499.394Z" fill="#A4E7E7"/>
<path d="M193.315 662.65C220.207 627.429 237.488 464.16 338.906 513.064C343.952 527.884 351.841 568.579 343.03 612.8C332.016 668.076 345.949 790.196 327.366 817.582C308.783 844.969 275.661 780.757 266.954 829.743C258.247 878.729 198.908 888.209 161.708 803.931C124.508 719.653 166.422 697.87 193.315 662.65Z" fill="#A4E7E7"/>
</g>
</svg>
