<svg width="86" height="111" viewBox="0 0 86 111" fill="none" xmlns="http://www.w3.org/2000/svg">
<path fill-rule="evenodd" clip-rule="evenodd" d="M69.4701 47.072C69.4701 58.4894 61.9764 70.1293 52.7195 73.0552C43.4624 75.981 35.9688 69.1115 35.9688 57.6942C35.9688 46.2769 43.4624 34.6371 52.7195 31.7112C61.9764 28.7853 69.4701 35.6547 69.4701 47.072Z" stroke="#2466A8" stroke-width="4" stroke-linecap="round" stroke-linejoin="round"/>
<path fill-rule="evenodd" clip-rule="evenodd" d="M51.0176 108.049C51.0176 108.049 83.2304 72.6041 83.2304 42.1685C83.2304 20.2085 68.8025 6.99424 51.0176 12.6394C33.2327 18.2845 18.8047 40.6578 18.8047 62.6178C18.8047 84.578 51.0176 108.049 51.0176 108.049ZM52.713 73.0494C61.9699 70.1235 69.4637 58.4834 69.4637 47.0661C69.4637 35.6488 61.9699 28.7793 52.713 31.7054C43.456 34.6312 35.9622 46.2711 35.9622 57.6884C35.9622 69.1057 43.456 75.9752 52.713 73.0494Z" fill="#D5E6F6" stroke="#2466A8" stroke-width="4" stroke-linecap="round" stroke-linejoin="round"/>
<path fill-rule="evenodd" clip-rule="evenodd" d="M68.8969 13.6465L52.2898 4.84867C47.1528 2.1931 40.9475 1.65252 34.2676 3.76751C16.4827 9.41245 2.05469 30.1957 2.05469 52.1559C2.05469 74.1159 35.963 97.5866 35.963 97.5866L51.0182 108.05C51.0182 108.05 18.8054 84.5791 18.8054 62.6191C18.8054 40.6591 33.2333 18.2856 51.0182 12.6404C57.6318 10.5413 63.7811 11.05 68.8969 13.6465Z" fill="#D5E6F6" stroke="#2466A8" stroke-width="4" stroke-linecap="round" stroke-linejoin="round"/>
</svg>
