<svg width="12" height="13" viewBox="0 0 12 13" fill="none" xmlns="http://www.w3.org/2000/svg">
<path d="M5.66205 0.905985L6.25 0.875172L6.83795 0.905985L7.41947 0.998087L7.98817 1.15047L8.53783 1.36146L9.06241 1.62875L9.55619 1.94942L10.0137 2.31994L10.4301 2.73626L10.8006 3.19381L11.1212 3.68758L11.3885 4.21218L11.5995 4.76183L11.7519 5.33054L11.844 5.91205L11.8748 6.5L11.844 7.08795L11.7519 7.66946L11.5995 8.23817L11.3885 8.78782L11.1212 9.31242L10.8006 9.80619L10.4301 10.2637L10.0137 10.6801L9.55619 11.0506L9.06242 11.3712L8.53782 11.6385L7.98817 11.8495L7.41946 12.0019L6.83795 12.094L6.25 12.1248L5.66205 12.094L5.08054 12.0019L4.51183 11.8495L3.96218 11.6385L3.43758 11.3712L2.94381 11.0506L2.48626 10.6801L2.06994 10.2637L1.69942 9.80619L1.37875 9.31241L1.11146 8.78783L0.90047 8.23817L0.748087 7.66947L0.655985 7.08795L0.625172 6.5L0.655985 5.91205L0.748087 5.33053L0.90047 4.76183L1.11146 4.21218L1.37876 3.68759L1.69942 3.19381L2.06994 2.73626L2.48626 2.31994L2.94381 1.94942L3.43759 1.62876L3.96218 1.36146L4.51183 1.15047L5.08053 0.998087L5.66205 0.905985Z" fill="#D0E4FF" stroke="#D0E4FF" stroke-width="0.25"/>
</svg>
