<svg width="1028" height="1090" viewBox="0 0 1028 1090" fill="none" xmlns="http://www.w3.org/2000/svg">
<path d="M-465.404 41.1859L-466.261 39.3458C-399.9 4.40604 -322.145 -7.64074 -247.332 5.42723C-172.501 18.4809 -108.391 55.3212 -66.7925 109.086C-38.5328 145.622 -19.6449 189.097 -1.3813 231.117C7.15635 250.779 15.9911 271.116 25.6803 290.479C63.6107 366.306 111.728 411.872 168.716 425.875C213.154 436.804 261.594 428.182 308.443 419.855C348.512 412.738 389.969 405.362 429.344 409.947C476.049 415.39 519.162 438.492 547.609 473.111C589.107 523.698 597.682 592.646 605.966 659.31C613.075 716.482 620.42 775.588 648.279 823.793C679.23 877.375 737.971 919.093 813.744 941.254C882.278 961.297 956.11 964.684 1027.52 967.957L1027.19 970.064C955.669 966.787 881.716 963.394 812.949 943.281C736.724 920.996 677.556 878.975 646.376 824.978C618.34 776.42 610.961 717.131 603.835 659.764C595.573 593.371 587.044 524.726 545.883 474.544C545.689 474.31 545.482 474.061 545.288 473.827C517.121 439.896 474.754 417.412 428.885 412.063C389.808 407.521 348.54 414.845 308.61 421.952C261.541 430.33 212.885 438.974 167.99 427.951C110.428 413.819 61.8888 367.919 23.713 291.586C14.0151 272.177 5.1546 251.81 -3.39597 232.132C-21.6122 190.204 -40.4699 146.836 -68.5745 110.486C-154.323 -0.396599 -328.64 -30.8132 -465.421 41.2002L-465.404 41.1859Z" fill="url(#paint0_linear_2826_10661)" fill-opacity="0.1"/>
<path d="M-464.637 42.1803L-465.455 40.3871C-329.978 -29.4392 -158.016 1.93309 -74.1168 111.852C-46.7237 147.977 -28.5943 190.819 -11.0678 232.268C-2.3928 252.763 6.57072 273.991 16.557 294.134C42.3387 346.3 88.5689 412.527 162.403 431.826C206.189 443.165 253.791 436.238 299.798 429.53C340.375 423.622 382.302 417.514 421.809 423.804C467.279 431.061 509.731 456.632 538.326 493.994C576.564 544.026 584.814 610.509 592.789 674.799C599.803 731.365 607.067 789.882 634.533 837.861C672.173 904.065 744.365 939.509 798.289 957.582C863.945 979.567 931.788 988.347 1001.31 996.099L1000.87 998.126C931.239 990.355 863.262 981.554 797.447 959.517C743.204 941.341 670.602 905.685 632.699 838.988C605.065 790.702 597.767 732.003 590.736 675.241C582.786 611.192 574.575 544.967 536.631 495.323C508.35 458.304 466.316 432.991 421.303 425.828C382.123 419.582 340.352 425.667 299.93 431.551C253.708 438.28 205.903 445.244 161.707 433.798C87.2005 414.321 40.6385 347.659 14.7061 295.171C4.69832 274.967 -4.28236 253.753 -12.966 233.212C-30.4495 191.886 -48.5314 149.136 -75.7824 113.183C-159.229 4.01872 -329.984 -27.1985 -464.59 42.1673L-464.637 42.1803Z" fill="url(#paint1_linear_2826_10661)" fill-opacity="0.1"/>
<path d="M-463.84 43.1749L-464.607 41.4439C-330.93 -25.9148 -162.651 6.25322 -81.4292 114.634C-54.7127 150.294 -37.3592 192.623 -20.6086 233.558C-11.8695 254.868 -2.84202 276.912 7.40252 297.787C32.9426 350.048 79.4528 416.753 156.029 437.774C199.18 449.613 245.988 444.292 291.269 439.134C332.289 434.463 374.711 429.653 414.217 437.627C459.22 446.745 499.963 474.155 528.957 514.843C564.146 564.223 572.065 628.376 579.744 690.414C586.656 746.329 593.808 804.149 620.701 851.893C649.468 902.949 703.979 943.996 782.748 973.875C851.428 999.925 918.012 1013.51 975.021 1024.24L974.467 1026.17C917.368 1015.44 850.698 1001.82 781.858 975.718C702.684 945.702 647.862 904.386 618.906 852.962C591.858 804.926 584.672 746.924 577.756 690.828C570.107 629.002 562.214 565.091 527.278 516.052C498.551 475.722 458.184 448.552 413.637 439.528C374.429 431.597 332.176 436.398 291.311 441.046C245.862 446.212 198.851 451.57 155.32 439.625C78.1148 418.443 31.2727 351.303 5.58197 298.72C-4.70134 277.797 -13.7417 255.738 -22.4895 234.383C-39.21 193.554 -56.5334 151.332 -83.1076 115.843C-163.782 8.08655 -331.035 -23.8287 -463.879 43.1282L-463.84 43.1749Z" fill="url(#paint2_linear_2826_10661)" fill-opacity="0.1"/>
<path d="M-463.043 44.1705L-463.758 42.5017C-332.11 -22.2786 -167.398 10.6148 -88.7107 117.417C-62.7013 152.718 -46.0678 194.566 -29.9939 235.037C-21.2251 257.085 -12.1723 279.896 -1.67811 301.459C34.0284 375.344 87.7868 425.88 149.741 443.757C192.224 456.019 238.224 452.29 282.689 448.677C324.204 445.304 367.147 441.824 406.69 451.529C450.657 462.349 490.781 492.246 519.653 535.771C551.88 584.322 559.43 646.098 566.74 705.865C573.518 761.233 580.523 818.491 606.916 866.019C634.748 916.089 685.703 955.59 767.267 990.277C838.217 1020.47 901.554 1039.38 948.819 1052.48L948.115 1054.3C900.807 1041.18 837.396 1022.25 766.343 992.044C684.438 957.193 633.225 917.485 605.199 867.076C578.634 819.27 571.607 761.846 564.807 706.312C557.527 646.757 549.995 585.177 517.991 536.966C489.357 493.796 449.578 464.139 406.037 453.412C366.792 443.75 324.013 447.251 282.653 450.601C238.003 454.236 191.834 457.974 149.015 445.622C86.5952 427.605 32.4404 376.767 -3.44691 302.454C-13.9669 280.86 -23.0457 258.017 -31.823 235.924C-47.8668 195.559 -64.4401 153.819 -90.3375 118.688C-168.521 12.5989 -332.236 -20.1482 -463.069 44.2446L-463.043 44.1705Z" fill="url(#paint3_linear_2826_10661)" fill-opacity="0.1"/>
<path d="M-462.259 45.1506L-462.935 43.5286C-333.363 -18.6603 -172.179 15.0051 -96.0308 120.154C-70.6896 155.141 -54.75 196.539 -39.3442 236.592C-30.5716 259.347 -21.5322 282.88 -10.8229 305.053C24.4826 378.876 79.2451 430.235 143.389 449.662C185.194 462.302 230.331 460.131 274.001 458.02C316.05 455.992 359.54 453.874 399.116 465.34C454.314 481.329 490.052 523.784 510.318 556.592C539.696 604.168 546.855 663.613 553.752 721.091C560.359 775.971 567.166 832.709 593.119 880.024C626.674 941.203 692.142 978.31 751.743 1006.56C816.133 1037.06 870.42 1060.59 922.562 1080.59L921.754 1082.29C869.569 1062.27 815.27 1038.73 750.823 1008.19C690.977 979.856 625.25 942.543 591.476 880.994C565.38 833.403 558.534 776.513 551.919 721.482C545.026 664.184 537.901 604.922 508.709 557.639C488.589 525.077 453.144 482.905 398.438 467.086C359.137 455.707 315.816 457.817 273.905 459.836C230.097 461.956 184.775 464.15 142.68 451.407C78.0838 431.857 22.9678 380.213 -12.5184 305.961C-23.2493 283.727 -32.3145 260.162 -41.0828 237.378C-56.4584 197.431 -72.3506 156.126 -97.5798 121.308C-173.324 16.8229 -333.485 -16.6651 -462.259 45.1506Z" fill="url(#paint4_linear_2826_10661)" fill-opacity="0.1"/>
<path d="M-461.479 46.1604L-462.103 44.6006C-334.624 -14.9825 -177.06 19.4513 -103.36 122.95C-78.6479 157.671 -63.3636 198.666 -48.5872 238.347C-39.8496 261.762 -30.8322 285.971 -19.9508 308.737C14.4154 381.394 71.6388 434.945 137.041 455.641C178.126 468.644 222.408 467.971 265.227 467.329C307.836 466.678 351.919 466.012 391.529 479.239C434.429 493.549 472.26 527.532 500.954 577.517C527.637 623.99 534.345 681.1 540.821 736.35C547.208 790.755 553.809 847.033 579.292 894.133C611.744 954.123 674.594 990.641 736.206 1022.93C766.603 1038.86 793.407 1053.48 819.324 1067.63C846.254 1082.34 871.71 1096.22 896.287 1108.82L895.332 1110.38C870.725 1097.77 845.287 1083.88 818.327 1069.17C792.41 1055.02 765.605 1040.4 735.222 1024.48C673.412 992.096 610.341 955.419 577.683 895.074C552.057 847.698 545.431 791.283 539.036 736.728C532.563 681.658 525.894 624.7 499.353 578.504C470.84 528.842 433.306 495.112 390.769 480.922C351.418 467.796 307.503 468.454 265.045 469.111C222.087 469.763 177.668 470.444 136.307 457.356C70.4991 436.523 12.9223 382.686 -21.6161 309.646C-32.5363 286.833 -41.5622 262.579 -50.2955 239.134C-65.0418 199.559 -80.2917 158.641 -104.879 124.105C-178.135 21.2117 -334.79 -13.0041 -461.518 46.2189L-461.479 46.1604Z" fill="url(#paint5_linear_2826_10661)" fill-opacity="0.1"/>
<path d="M-460.682 47.1558L-461.254 45.6583C-335.904 -11.2903 -181.893 23.8844 -110.641 125.733C-86.4167 160.359 -71.6757 201.226 -57.4512 240.734C-48.8519 264.58 -39.9599 289.234 -29.0572 312.378C5.13652 384.967 63.3945 439.343 130.745 461.578C171.07 474.895 214.441 475.689 256.389 476.455C301.605 477.295 344.312 478.061 383.998 493.066C426.853 509.254 463.079 544.675 491.663 598.355C515.772 643.624 522.011 698.413 528.024 751.419C534.152 805.407 540.529 861.24 565.538 908.155C597.584 968.218 661.565 1005.11 718.023 1037.65L720.725 1039.22C766.911 1065.85 804.101 1091.58 836.921 1114.26C848.404 1122.19 859.248 1129.71 870.085 1136.97L869.032 1138.37C858.212 1131.09 847.35 1123.59 835.854 1115.64C803.065 1092.97 765.901 1067.27 719.771 1040.67L717.068 1039.1C660.442 1006.47 596.268 969.442 564.028 909.04C538.859 861.863 532.487 805.895 526.35 751.756C520.346 698.901 514.12 644.232 490.14 599.224C461.724 545.852 425.752 510.668 383.242 494.614C343.815 479.71 301.246 478.934 256.163 478.115C214.095 477.344 170.603 476.545 130.032 463.143C62.2893 440.787 3.73844 386.128 -30.6318 313.185C-41.556 289.981 -50.4739 265.295 -59.0818 241.404C-73.2892 201.987 -87.9828 161.212 -112.108 126.74C-182.96 25.4797 -336.073 -9.49252 -460.695 47.1402L-460.682 47.1558Z" fill="url(#paint6_linear_2826_10661)" fill-opacity="0.1"/>
<path d="M-459.885 48.1512L-460.405 46.7161C-337.196 -7.61362 -186.804 28.3293 -117.936 128.501C-94.3019 162.907 -80.1816 203.448 -66.5348 242.646C-58.0221 267.09 -49.2212 292.372 -38.1808 316.033C-4.39668 388.41 54.8611 443.639 124.401 467.528C163.929 481.113 206.35 483.327 247.356 485.452C293.274 487.84 336.631 490.092 376.42 506.906C418.756 524.787 454.381 562.575 482.324 619.206C504.01 663.172 509.747 715.669 515.278 766.444C521.13 820.03 527.184 875.473 551.749 922.205C581.052 977.944 638.874 1014.06 689.903 1045.92C695.067 1049.16 700.193 1052.35 705.227 1055.53C757.028 1088.26 794.066 1121.11 826.747 1150.08C832.531 1155.23 838.224 1160.26 843.844 1165.17L842.709 1166.4C837.089 1161.49 831.413 1156.44 825.612 1151.32C792.957 1122.37 755.97 1089.58 704.269 1056.91C699.234 1053.72 694.126 1050.52 688.958 1047.31C637.791 1015.35 579.8 979.141 550.321 923.049C525.622 876.086 519.556 820.522 513.682 766.77C508.147 716.13 502.44 663.738 480.857 620.002C453.082 563.679 417.698 526.112 375.677 508.364C336.13 491.666 292.894 489.419 247.126 487.037C205.999 484.907 163.475 482.674 123.744 469.02C53.8295 444.995 -5.72575 389.513 -39.6563 316.784C-50.731 293.047 -59.5449 267.749 -68.0834 243.274C-81.7131 204.167 -95.7859 163.718 -119.334 129.451C-187.75 29.8244 -337.352 -5.90559 -459.88 48.1213L-459.885 48.1512Z" fill="url(#paint7_linear_2826_10661)" fill-opacity="0.1"/>
<path d="M-459.101 49.1306L-459.6 47.7565C-401.121 22.7789 -334.67 17.4853 -272.485 32.8304C-209.951 48.2801 -157.682 83.2189 -125.291 131.265C-102.222 165.483 -88.6793 205.714 -75.6144 244.633C-67.2143 269.643 -58.5129 295.508 -47.3479 319.67C-13.9991 391.804 46.2628 447.856 118.027 473.477C156.687 487.281 198.094 490.837 238.134 494.291C284.818 498.304 328.894 502.09 368.823 520.76C411.413 540.666 445.475 579.698 472.968 640.07C492.352 682.633 497.551 732.868 502.597 781.442C508.121 834.668 513.822 889.721 537.956 936.285C565.053 988.595 615.753 1022.42 664.78 1055.1C673.435 1060.86 681.604 1066.31 689.69 1071.9C744.363 1109.63 778.719 1148.95 809.007 1183.64C811.885 1186.93 814.725 1190.18 817.539 1193.39L816.339 1194.44C813.525 1191.23 810.686 1187.98 807.807 1184.69C777.558 1150.04 743.267 1110.81 688.719 1073.16C680.645 1067.58 672.46 1062.14 663.822 1056.37C614.656 1023.59 563.831 989.687 536.549 937.084C512.312 890.291 506.582 835.131 501.048 781.754C496.016 733.301 490.829 683.187 471.522 640.823C444.155 580.741 410.321 541.915 368.029 522.156C328.341 503.602 284.386 499.821 237.822 495.812C197.692 492.354 156.195 488.795 117.362 474.923C45.2656 449.184 -15.2765 392.864 -48.763 320.424C-59.9625 296.185 -68.6767 270.305 -77.0854 245.249C-90.1331 206.421 -103.641 166.266 -126.611 132.203C-192.669 34.2233 -338.718 -2.24758 -459.135 49.1592L-459.101 49.1306Z" fill="url(#paint8_linear_2826_10661)" fill-opacity="0.1"/>
<path d="M-458.304 50.126L-458.751 48.8142C-401.261 25.1043 -336.237 20.6542 -275.644 36.2946C-214.672 52.0409 -163.873 86.7537 -132.585 134.033C-110.068 168.077 -97.1076 208.029 -84.5816 246.685C-76.2941 272.262 -67.7181 298.678 -56.4413 323.326C-23.5322 395.141 37.7469 452.032 111.713 479.428C149.438 493.404 189.761 498.254 228.743 502.928C276.259 508.645 321.149 514.043 361.258 534.615C403.656 556.364 437.144 597.688 463.642 660.937C480.854 702.041 485.52 749.983 490.032 796.37C495.182 849.25 500.507 903.956 524.167 950.335C549.433 999.877 596.386 1032.94 641.783 1064.91C653.106 1072.89 663.813 1080.42 674.192 1088.21C730.621 1130.59 761.078 1176.27 787.942 1216.57L791.285 1221.58L790.034 1222.46L786.691 1217.45C759.861 1177.23 729.482 1131.64 673.216 1089.39C662.85 1081.61 652.161 1074.07 640.85 1066.1C595.329 1034.06 548.268 1000.9 522.86 951.078C499.079 904.484 493.741 849.657 488.579 796.656C484.066 750.375 479.417 702.524 462.27 661.602C435.914 598.63 402.607 557.524 360.464 535.906C320.566 515.448 275.797 510.054 228.397 504.372C189.342 499.68 148.958 494.828 111.061 480.785C36.7757 453.286 -24.7836 396.127 -57.8176 324.021C-69.1332 299.327 -77.7133 272.835 -86.0138 247.242C-98.5225 208.677 -111.449 168.802 -133.867 134.912C-197.589 38.6227 -340.122 1.36422 -458.338 50.1546L-458.304 50.126Z" fill="url(#paint9_linear_2826_10661)" fill-opacity="0.1"/>
<path d="M-457.524 51.1357L-457.919 49.8861C-401.43 27.4284 -337.822 23.8374 -278.821 39.7733C-219.44 55.8149 -170.094 90.2874 -139.897 136.815C-117.919 170.701 -105.527 210.389 -93.5401 248.782C-85.391 274.895 -76.9579 301.877 -65.5778 326.965C-33.1472 398.414 29.162 456.16 105.37 485.378C142.094 499.448 181.226 505.497 219.064 511.357C267.523 518.843 313.296 525.902 353.662 548.469C396.081 572.174 428.993 615.79 454.286 681.802C469.455 721.394 473.566 767.087 477.545 811.286C482.286 863.848 487.163 918.19 510.361 964.399C534.094 1011.64 577.929 1044 620.294 1075.3C633.79 1085.27 646.531 1094.68 658.646 1104.54C716.198 1151.43 742.023 1203.5 764.808 1249.42L764.984 1249.78L763.729 1250.48L763.552 1250.12C740.815 1204.29 715.076 1152.36 657.701 1105.61C645.629 1095.78 632.888 1086.36 619.405 1076.41C576.915 1045.03 532.954 1012.58 509.123 965.085C485.817 918.676 480.914 864.198 476.174 811.53C472.212 767.422 468.105 721.804 453 682.396C427.806 616.644 395.062 573.23 352.911 549.671C312.756 527.218 267.074 520.162 218.731 512.712C180.832 506.849 141.623 500.813 104.774 486.662C28.2643 457.326 -34.2864 399.36 -66.829 327.636C-78.2434 302.471 -86.6852 275.443 -94.8472 249.315C-106.8 210.998 -119.187 171.386 -141.079 137.638C-202.487 42.9779 -341.47 5.00837 -457.511 51.1513L-457.524 51.1357Z" fill="url(#paint10_linear_2826_10661)" fill-opacity="0.1"/>
<path d="M-456.74 52.1152L-457.114 50.9267C-401.627 29.721 -339.464 26.9879 -282.054 43.2191C-224.251 59.5717 -176.372 93.7884 -147.252 139.579C-125.8 173.324 -113.952 212.779 -102.491 250.925C-94.4928 277.558 -86.2282 305.074 -74.7321 330.618C-42.7885 401.656 20.525 460.226 98.9953 491.326C134.62 505.442 172.453 512.595 209.062 519.502C258.572 528.851 305.348 537.681 346.036 562.322C388.608 588.108 420.975 634.018 444.899 702.666C458.142 740.674 461.711 784.134 465.123 826.174C469.376 878.43 473.783 932.453 496.525 978.462C518.9 1023.75 560.11 1055.48 599.953 1086.16C615.237 1097.94 629.676 1109.04 643.07 1120.86C701.279 1172.23 722.862 1233.35 738.623 1277.97L737.376 1278.51C721.658 1234.01 700.131 1173.02 642.138 1121.84C628.756 1110.04 614.347 1098.94 599.076 1087.18C559.139 1056.42 517.817 1024.62 495.325 979.09C472.494 932.866 468.073 878.723 463.803 826.376C460.379 784.425 456.843 741.042 443.627 703.17C419.772 634.781 387.59 589.059 345.225 563.416C304.717 538.888 258.045 530.077 208.651 520.763C171.999 513.839 134.075 506.683 98.3519 492.518C19.61 461.301 -43.9276 402.497 -75.9875 331.213C-87.5051 305.608 -95.7783 278.046 -103.802 251.382C-115.242 213.297 -127.073 173.933 -148.439 140.328C-207.557 47.3708 -342.995 8.61483 -456.83 52.1114L-456.74 52.1152Z" fill="url(#paint11_linear_2826_10661)" fill-opacity="0.1"/>
<path d="M-455.943 53.1105L-456.265 51.9843C-401.796 32.0451 -341.061 30.1556 -285.23 46.6977C-229.019 63.3457 -182.593 97.322 -154.547 142.347C-133.621 175.95 -122.285 215.173 -111.354 253.101C-103.521 280.239 -95.4247 308.29 -83.8513 334.243C-51.9425 405.836 10.7418 463.718 92.669 497.262C127.069 511.342 163.53 519.476 198.801 527.336C249.5 538.644 297.374 549.324 338.475 576.147C381.421 604.175 413.182 652.376 435.608 723.503C447.079 759.905 450.03 801.144 452.903 841.026C456.644 892.945 460.503 946.659 482.783 992.499C503.97 1036.14 542.941 1067.29 580.62 1097.4C597.399 1110.8 613.234 1123.48 627.603 1137.17C681.52 1188.6 699.024 1248.85 712.369 1306.16L711.174 1306.54C697.868 1249.39 680.402 1189.29 626.709 1138.1C612.384 1124.42 596.558 1111.79 579.796 1098.37C542.022 1068.18 502.986 1036.96 481.679 993.101C459.321 947.062 455.444 893.257 451.704 841.232C448.835 801.425 445.876 760.246 434.448 723.967C412.125 653.069 380.489 605.054 337.75 577.17C296.817 550.443 249.029 539.797 198.446 528.524C163.132 520.648 126.628 512.497 92.1421 498.383C9.96915 464.754 -52.9264 406.653 -84.9514 334.814C-96.5593 308.784 -104.664 280.688 -112.493 253.52C-123.42 215.668 -134.721 176.521 -155.574 143.042C-213.381 50.2591 -342.497 11.5681 -455.912 53.1118L-455.943 53.1105Z" fill="url(#paint12_linear_2826_10661)" fill-opacity="0.1"/>
<path d="M-455.145 54.1065L-455.429 53.027C-401.979 34.3543 -342.659 33.3238 -288.419 50.1613C-233.8 67.1047 -188.84 100.825 -161.841 145.115C-141.415 178.607 -130.623 217.597 -120.179 255.325C-112.522 282.952 -104.608 311.522 -92.9615 337.914C-61.5828 408.974 2.10578 467.679 86.3388 503.228C119.393 517.162 154.331 526.166 188.101 534.852C240.122 548.244 289.263 560.871 330.88 590.002C374.384 620.459 405.571 670.952 426.253 744.369C436.047 779.137 438.452 818.173 440.753 855.926C443.916 907.536 447.185 960.925 468.978 1006.56C489.13 1048.75 526.127 1079.38 561.904 1108.99C579.95 1123.92 596.979 1138 612.04 1153.51C665.851 1208.92 678.417 1275.9 686.008 1334.35L684.865 1334.59C677.296 1276.3 664.781 1209.49 611.177 1154.33C596.155 1138.87 579.139 1124.8 561.136 1109.89C525.277 1080.22 488.181 1049.54 467.938 1007.14C446.051 961.314 442.794 907.836 439.615 856.135C437.304 818.442 434.909 779.451 425.144 744.789C404.535 671.601 373.444 621.293 330.163 590.965C288.697 561.946 239.647 549.322 187.729 535.949C153.916 527.247 118.931 518.256 85.8076 504.274C1.33316 468.61 -62.5278 409.732 -94.0099 338.442C-105.695 312.003 -113.618 283.388 -121.27 255.731C-131.71 218.079 -142.48 179.15 -162.833 145.781C-218.365 54.6864 -344.021 15.2807 -455.115 54.1077L-455.145 54.1065Z" fill="url(#paint13_linear_2826_10661)" fill-opacity="0.1"/>
<path d="M-454.349 55.1012L-454.598 54.0983C-345.391 17.8104 -222.663 58.1482 -169.153 147.896C-149.245 181.292 -138.953 220.066 -128.996 257.593C-121.534 285.723 -113.814 314.796 -102.086 341.568C-71.2286 412.035 -6.56592 471.562 80.0073 509.193C111.561 522.9 144.821 532.587 176.973 541.957C230.498 557.547 281.052 572.263 323.296 603.871C367.511 636.974 398.122 689.76 416.926 765.235C425.17 798.345 426.993 835.206 428.749 870.861C431.29 922.145 433.896 975.191 455.202 1020.63C474.393 1061.59 509.7 1091.72 543.83 1120.86C562.949 1137.19 580.986 1152.59 596.524 1169.84C650 1229.13 657.16 1300.41 659.681 1362.52L658.611 1362.67C656.111 1300.73 648.991 1229.7 595.687 1170.58C580.187 1153.39 562.163 1138 543.07 1121.7C508.858 1092.5 473.5 1062.31 454.214 1021.16C432.839 975.568 430.204 922.416 427.675 871.043C425.911 835.447 424.096 798.631 415.887 765.598C397.16 690.322 366.63 637.705 322.61 604.73C280.503 573.218 230.023 558.52 176.584 542.964C144.402 533.592 111.112 523.904 79.502 510.164C-7.28681 472.45 -72.1218 412.75 -103.069 342.069C-114.819 315.236 -122.548 286.117 -130.023 257.972C-139.975 220.52 -150.258 181.791 -170.094 148.519C-223.402 59.1556 -345.595 19.0052 -454.336 55.1168L-454.349 55.1012Z" fill="url(#paint14_linear_2826_10661)" fill-opacity="0.1"/>
<path d="M632.332 1390.72C634.72 1326.37 630.401 1251.84 580.159 1186.79C563.989 1165.83 542.582 1147.18 521.908 1129.12C490.515 1101.73 458.075 1073.4 440.481 1035.14C419.62 989.778 417.704 937.001 415.856 885.957C414.643 852.429 413.37 817.741 406.591 786.361C390.146 710.321 359.344 653.828 315.015 618.479C272.142 584.288 220.042 567.359 164.88 549.445C134.501 539.576 103.091 529.379 73.176 515.995C9.97867 487.735 -73.4659 435.224 -112.132 345.621C-124.054 318.3 -131.588 288.573 -138.886 259.833C-148.304 222.674 -158.07 184.252 -177.34 151.169C-228.42 63.5061 -347.167 22.6254 -453.542 56.0371L-453.757 55.1108C-346.968 21.5658 -227.759 62.6159 -176.456 150.619C-157.108 183.795 -147.337 222.292 -137.911 259.497C-130.626 288.221 -123.101 317.903 -111.213 345.148C-72.6632 434.505 10.6046 486.873 73.6596 515.068C103.532 528.435 134.928 538.616 165.277 548.484C220.512 566.415 272.704 583.349 315.697 617.65C360.159 653.125 391.074 709.788 407.566 786.025C414.379 817.482 415.631 852.214 416.853 885.787C418.701 936.726 420.616 989.397 441.392 1034.62C458.891 1072.7 491.279 1100.97 522.603 1128.31C543.32 1146.38 564.753 1165.07 580.988 1186.1C603.577 1215.35 618.488 1248.45 626.55 1287.31C632.709 1316.89 634.846 1349.71 633.32 1390.61L632.324 1390.67L632.332 1390.72Z" fill="url(#paint15_linear_2826_10661)" fill-opacity="0.1"/>
<path d="M606.079 1418.8C613.573 1348.03 614.498 1267.07 564.683 1203.05C548.706 1182.54 528.14 1163.95 508.273 1145.99C476.859 1117.59 444.368 1088.25 426.757 1049.16C406.422 1004.05 405.269 951.663 404.171 900.996C403.487 869.475 402.773 836.901 397.322 807.154C383.064 729.535 352.833 670.674 307.462 632.245C263.678 595.129 209.703 575.836 152.555 555.389C124.19 545.242 94.8718 534.756 66.8581 521.871C23.652 502.029 -13.7164 478.472 -44.1956 451.905C-79.1915 421.408 -105.085 386.879 -121.191 349.248C-133.152 321.565 -140.483 291.38 -147.56 262.167C-156.517 225.178 -165.791 186.927 -184.6 153.908C-233.499 67.9591 -348.812 26.3325 -452.75 57.0624L-452.943 56.1972C-402.579 41.3226 -347.582 42.8813 -298.087 60.6062C-248.303 78.4332 -207.698 111.403 -183.785 153.415C-164.928 186.526 -155.662 224.837 -146.667 261.873C-139.598 291.04 -132.28 321.21 -120.341 348.832C-90.3765 418.856 -25.4767 478.424 67.3117 521.047C95.2995 533.901 124.587 544.387 152.939 554.518C210.147 574.967 264.191 594.308 308.084 631.518C353.614 670.105 383.931 729.105 398.223 806.905C403.709 836.729 404.401 869.347 405.099 900.884C406.21 951.461 407.345 1003.75 427.612 1048.71C445.157 1087.62 477.575 1116.95 508.937 1145.28C528.848 1163.26 549.44 1181.88 565.455 1202.44C615.452 1266.67 614.526 1347.85 607.023 1418.78L606.113 1418.77L606.079 1418.8Z" fill="url(#paint16_linear_2826_10661)" fill-opacity="0.1"/>
<path d="M579.825 1446.88C592.23 1372.4 598.29 1287.13 549.193 1219.31C533.179 1197.17 511.937 1177.48 491.406 1158.44C461.169 1130.41 429.902 1101.42 413.033 1063.18C393.249 1018.35 392.929 966.404 392.65 916.162C392.464 886.647 392.288 856.125 388.047 827.977C376.291 750.176 345.812 687.259 299.892 646.025C254.993 605.704 198.872 583.826 139.462 560.655C113.378 550.482 86.3892 539.955 60.5529 527.762C-36.1275 482.135 -100.342 423.288 -130.233 352.861C-142.232 324.815 -149.343 294.157 -156.192 264.519C-164.717 227.697 -173.513 189.601 -191.831 156.648C-238.609 72.4104 -350.428 30.0404 -451.94 58.0729L-452.082 57.27C-402.749 43.6463 -349.215 46.0771 -301.298 64.113C-253.136 82.2342 -213.98 114.933 -191.067 156.198C-172.702 189.244 -163.897 227.385 -155.351 264.268C-148.498 293.877 -141.413 324.503 -129.435 352.488C-99.5956 422.748 -35.5275 481.453 60.9933 527.028C86.8167 539.206 113.775 549.731 139.859 559.904C199.343 583.094 255.519 605.004 300.513 645.404C346.542 686.733 377.132 749.819 388.893 827.801C393.142 855.995 393.327 886.562 393.508 916.107C393.813 966.276 394.099 1018.14 413.844 1062.83C430.644 1100.91 461.872 1129.85 492.04 1157.83C512.597 1176.91 533.865 1196.63 549.931 1218.82C599.191 1286.88 593.118 1372.35 580.674 1446.99L579.846 1446.94L579.825 1446.88Z" fill="url(#paint17_linear_2826_10661)" fill-opacity="0.1"/>
<path d="M553.567 1474.99C569.84 1401.38 582.271 1307.66 533.704 1235.56C517.734 1211.86 495.902 1191.11 474.806 1171.03C445.647 1143.32 415.489 1114.64 399.309 1077.21C380.099 1032.71 380.683 981.225 381.263 931.454C381.571 903.869 381.911 875.339 378.76 848.785C372.258 793.819 351.984 716.434 292.322 659.805C246.102 615.926 187.473 591.238 125.426 565.1C101.899 555.198 77.6011 544.963 54.2352 533.638C-13.4569 500.876 -64.2752 463.891 -99.3317 421.661C-116.317 401.199 -129.601 379.507 -139.305 356.473C-151.36 328.078 -158.207 296.966 -164.836 266.855C-172.912 230.187 -181.277 192.259 -199.099 159.341C-243.757 76.8156 -352.143 33.6997 -451.151 59.0229L-451.272 58.281C-402.988 45.9225 -350.886 49.2269 -304.561 67.5581C-258.02 85.9734 -220.33 118.417 -198.4 158.919C-180.544 191.913 -172.171 229.887 -164.085 266.6C-157.465 296.666 -150.614 327.748 -138.598 356.096C-108.918 426.515 -45.7244 484.342 54.6109 532.931C77.9638 544.24 102.262 554.476 125.776 564.362C187.896 590.518 246.568 615.223 292.883 659.181C352.705 715.967 373 793.519 379.52 848.576C382.662 875.189 382.335 903.736 382.009 931.334C381.438 981.046 380.836 1032.44 400.004 1076.81C416.123 1114.14 446.23 1142.76 475.363 1170.44C496.501 1190.53 518.347 1211.3 534.368 1235.06C556.158 1267.42 567.425 1305.65 568.78 1351.92C570.123 1397.54 561.167 1444.04 554.318 1475.05L553.572 1474.96L553.567 1474.99Z" fill="url(#paint18_linear_2826_10661)" fill-opacity="0.1"/>
<path d="M527.297 1503.08C548.095 1426.01 565.852 1327.81 518.201 1251.79C502.366 1226.54 480.026 1204.79 458.427 1183.79C430.242 1156.37 401.088 1127.99 385.572 1091.21C366.961 1047.09 368.511 996.169 370.017 946.917C370.799 921.202 371.62 894.586 369.478 869.563C362.79 791.158 332.691 721.535 284.744 673.539C236.693 625.419 171.957 596.253 109.342 568.062C89.0753 558.925 68.1231 549.49 47.8872 539.513C0.573908 515.952 -37.2514 491.88 -67.7483 465.959C-105.68 433.716 -132.073 399.077 -148.39 360.069C-160.483 331.312 -167.097 299.743 -173.484 269.221C-181.143 232.706 -189.046 194.947 -206.359 162.08C-249.658 79.9263 -352.274 37.018 -450.371 60.0327L-450.457 59.3675C-403.24 48.2885 -352.583 52.4506 -307.819 71.0785C-262.931 89.7867 -226.659 121.961 -205.712 161.701C-188.334 194.646 -180.422 232.45 -172.768 268.995C-166.377 299.487 -159.776 331.041 -147.704 359.737C-118.343 429.946 -56.0677 486.879 48.2844 538.867C68.5031 548.859 89.4553 558.294 109.709 567.415C172.38 595.639 237.16 624.822 285.275 673.02C333.325 721.14 363.467 790.885 370.168 869.411C372.306 894.464 371.498 921.096 370.699 946.825C369.188 996.002 367.647 1046.86 386.202 1090.85C401.688 1127.52 430.773 1155.85 458.932 1183.24C480.57 1204.28 502.923 1226.05 518.797 1251.35C566.572 1327.55 548.803 1425.95 527.956 1503.14L527.288 1503.04L527.297 1503.08Z" fill="url(#paint19_linear_2826_10661)" fill-opacity="0.1"/>
<path d="M501.039 1531.19C526.33 1450.68 549.368 1347.99 502.725 1268.06C487.098 1241.26 464.327 1218.61 442.284 1196.69C414.988 1169.53 386.766 1141.43 371.849 1105.24C353.871 1061.56 356.439 1011.27 358.932 962.643C360.169 938.706 361.434 913.959 360.2 890.416C356.108 811.592 326.615 739.467 277.183 687.365C227.294 634.748 159.024 602.097 93.0133 570.518C76.0752 562.406 58.5378 554.028 41.5784 545.434C-7.6701 520.35 -44.9221 496.617 -75.6217 470.733C-114.355 438.051 -141.124 403.065 -157.44 363.742C-169.559 334.638 -175.923 302.598 -182.08 271.649C-189.308 235.302 -196.793 197.696 -213.61 164.865C-254.836 84.4355 -354.079 40.7788 -449.583 61.088L-449.664 60.4982C-353.911 40.1391 -254.409 83.8967 -213.079 164.556C-196.211 197.45 -188.73 235.085 -181.494 271.478C-175.336 302.427 -168.981 334.421 -156.87 363.48C-119.455 453.648 -30.9963 507.809 41.8979 544.906C58.8573 553.5 76.3775 561.892 93.3329 569.989C159.4 601.602 227.696 634.283 277.653 686.948C327.163 739.144 356.699 811.391 360.817 890.352C362.046 913.924 360.777 938.701 359.54 962.638C357.055 1011.2 354.466 1061.43 372.414 1105C387.27 1141.09 415.467 1169.16 442.724 1196.27C464.78 1218.2 487.59 1240.91 503.256 1267.75C523.836 1303.01 532.444 1344.81 529.556 1395.52C527.346 1434.55 518.449 1477.71 501.608 1531.35L501.017 1531.24L501.039 1531.19Z" fill="url(#paint20_linear_2826_10661)" fill-opacity="0.1"/>
<path d="M474.781 1559.3C502.204 1481.88 533.318 1369.15 487.235 1284.31C471.868 1256.03 448.714 1232.46 426.322 1209.7C399.828 1182.77 372.451 1154.92 358.141 1119.24C340.832 1076.09 344.477 1026.54 348.022 978.616C349.668 956.366 351.349 933.35 350.947 911.195C349.49 832.209 320.62 757.568 269.651 701.086C217.546 643.339 145.1 606.817 75.0461 571.492C61.9709 564.907 48.443 558.094 35.299 551.251C-15.3458 524.906 -53.0763 500.808 -83.4485 475.389C-122.958 442.299 -150.127 406.935 -166.456 367.281C-178.614 337.814 -184.718 305.348 -190.625 273.929C-197.435 237.734 -204.489 200.297 -220.81 167.5C-260.019 88.7636 -355.864 44.3897 -448.726 61.9803L-448.773 61.4671C-403.683 52.9173 -355.935 58.8095 -314.328 78.0592C-272.751 97.3078 -239.352 128.973 -220.314 167.22C-203.954 200.063 -196.904 237.531 -190.086 273.77C-184.175 305.16 -178.066 337.596 -165.934 367.031C-129.449 455.552 -43.5691 509.591 35.6271 550.768C48.7582 557.595 62.2861 564.409 75.3613 570.993C145.458 606.336 217.947 642.875 270.117 700.699C295.416 728.752 315.356 761.306 329.35 797.481C343.357 833.671 350.811 871.907 351.538 911.099C351.953 933.269 350.255 956.3 348.591 978.565C345.055 1026.42 341.405 1075.9 358.685 1118.95C372.947 1154.54 400.316 1182.34 426.767 1209.25C449.184 1232.05 472.369 1255.62 487.77 1283.97C507.711 1320.71 514.985 1364.27 510 1417.2C506.128 1458.37 495.099 1503.56 475.346 1559.39L474.833 1559.26L474.781 1559.3Z" fill="url(#paint21_linear_2826_10661)" fill-opacity="0.1"/>
<defs>
<linearGradient id="paint0_linear_2826_10661" x1="527.32" y1="365.398" x2="-90.5378" y2="878.293" gradientUnits="userSpaceOnUse">
<stop stop-color="white"/>
<stop offset="1" stop-color="#43E0E2"/>
</linearGradient>
<linearGradient id="paint1_linear_2826_10661" x1="527.32" y1="365.398" x2="-90.5378" y2="878.293" gradientUnits="userSpaceOnUse">
<stop stop-color="white"/>
<stop offset="1" stop-color="#43E0E2"/>
</linearGradient>
<linearGradient id="paint2_linear_2826_10661" x1="527.32" y1="365.398" x2="-90.5378" y2="878.293" gradientUnits="userSpaceOnUse">
<stop stop-color="white"/>
<stop offset="1" stop-color="#43E0E2"/>
</linearGradient>
<linearGradient id="paint3_linear_2826_10661" x1="527.32" y1="365.398" x2="-90.5378" y2="878.293" gradientUnits="userSpaceOnUse">
<stop stop-color="white"/>
<stop offset="1" stop-color="#43E0E2"/>
</linearGradient>
<linearGradient id="paint4_linear_2826_10661" x1="527.32" y1="365.398" x2="-90.5378" y2="878.293" gradientUnits="userSpaceOnUse">
<stop stop-color="white"/>
<stop offset="1" stop-color="#43E0E2"/>
</linearGradient>
<linearGradient id="paint5_linear_2826_10661" x1="527.32" y1="365.398" x2="-90.5378" y2="878.293" gradientUnits="userSpaceOnUse">
<stop stop-color="white"/>
<stop offset="1" stop-color="#43E0E2"/>
</linearGradient>
<linearGradient id="paint6_linear_2826_10661" x1="527.32" y1="365.398" x2="-90.5378" y2="878.293" gradientUnits="userSpaceOnUse">
<stop stop-color="white"/>
<stop offset="1" stop-color="#43E0E2"/>
</linearGradient>
<linearGradient id="paint7_linear_2826_10661" x1="527.32" y1="365.398" x2="-90.5378" y2="878.293" gradientUnits="userSpaceOnUse">
<stop stop-color="white"/>
<stop offset="1" stop-color="#43E0E2"/>
</linearGradient>
<linearGradient id="paint8_linear_2826_10661" x1="527.32" y1="365.398" x2="-90.5378" y2="878.293" gradientUnits="userSpaceOnUse">
<stop stop-color="white"/>
<stop offset="1" stop-color="#43E0E2"/>
</linearGradient>
<linearGradient id="paint9_linear_2826_10661" x1="527.32" y1="365.398" x2="-90.5378" y2="878.293" gradientUnits="userSpaceOnUse">
<stop stop-color="white"/>
<stop offset="1" stop-color="#43E0E2"/>
</linearGradient>
<linearGradient id="paint10_linear_2826_10661" x1="527.32" y1="365.398" x2="-90.5378" y2="878.293" gradientUnits="userSpaceOnUse">
<stop stop-color="white"/>
<stop offset="1" stop-color="#43E0E2"/>
</linearGradient>
<linearGradient id="paint11_linear_2826_10661" x1="527.32" y1="365.398" x2="-90.5378" y2="878.293" gradientUnits="userSpaceOnUse">
<stop stop-color="white"/>
<stop offset="1" stop-color="#43E0E2"/>
</linearGradient>
<linearGradient id="paint12_linear_2826_10661" x1="527.32" y1="365.398" x2="-90.5378" y2="878.293" gradientUnits="userSpaceOnUse">
<stop stop-color="white"/>
<stop offset="1" stop-color="#43E0E2"/>
</linearGradient>
<linearGradient id="paint13_linear_2826_10661" x1="527.32" y1="365.398" x2="-90.5378" y2="878.293" gradientUnits="userSpaceOnUse">
<stop stop-color="white"/>
<stop offset="1" stop-color="#43E0E2"/>
</linearGradient>
<linearGradient id="paint14_linear_2826_10661" x1="527.32" y1="365.398" x2="-90.5378" y2="878.293" gradientUnits="userSpaceOnUse">
<stop stop-color="white"/>
<stop offset="1" stop-color="#43E0E2"/>
</linearGradient>
<linearGradient id="paint15_linear_2826_10661" x1="527.32" y1="365.398" x2="-90.5378" y2="878.293" gradientUnits="userSpaceOnUse">
<stop stop-color="white"/>
<stop offset="1" stop-color="#43E0E2"/>
</linearGradient>
<linearGradient id="paint16_linear_2826_10661" x1="527.32" y1="365.398" x2="-90.5378" y2="878.293" gradientUnits="userSpaceOnUse">
<stop stop-color="white"/>
<stop offset="1" stop-color="#43E0E2"/>
</linearGradient>
<linearGradient id="paint17_linear_2826_10661" x1="527.32" y1="365.398" x2="-90.5378" y2="878.293" gradientUnits="userSpaceOnUse">
<stop stop-color="white"/>
<stop offset="1" stop-color="#43E0E2"/>
</linearGradient>
<linearGradient id="paint18_linear_2826_10661" x1="527.32" y1="365.398" x2="-90.5378" y2="878.293" gradientUnits="userSpaceOnUse">
<stop stop-color="white"/>
<stop offset="1" stop-color="#43E0E2"/>
</linearGradient>
<linearGradient id="paint19_linear_2826_10661" x1="527.32" y1="365.398" x2="-90.5378" y2="878.293" gradientUnits="userSpaceOnUse">
<stop stop-color="white"/>
<stop offset="1" stop-color="#43E0E2"/>
</linearGradient>
<linearGradient id="paint20_linear_2826_10661" x1="527.32" y1="365.398" x2="-90.5378" y2="878.293" gradientUnits="userSpaceOnUse">
<stop stop-color="white"/>
<stop offset="1" stop-color="#43E0E2"/>
</linearGradient>
<linearGradient id="paint21_linear_2826_10661" x1="527.32" y1="365.398" x2="-90.5378" y2="878.293" gradientUnits="userSpaceOnUse">
<stop stop-color="white"/>
<stop offset="1" stop-color="#43E0E2"/>
</linearGradient>
</defs>
</svg>
