<svg width="1344" height="696" viewBox="0 0 1344 696" fill="none" xmlns="http://www.w3.org/2000/svg">
<path opacity="0.2" d="M1241.62 485.618C1249.97 493.55 1260.35 498.325 1272.52 500.134C1272.28 501.058 1272.03 501.991 1271.76 502.934C1268.25 513.878 1262.06 524.983 1253.05 536.243C1246.18 544.597 1242.42 553.152 1243.55 561.623C1244.14 569.76 1247.52 576.352 1254.02 580.589C1259.91 585.201 1267.12 586.742 1275.11 585.676L1275.13 585.673L1275.16 585.67C1283.51 584.476 1290.85 578.919 1297.31 570.485C1308.22 556.73 1316.83 543.354 1323.09 530.356C1329.33 517.409 1333.68 504.624 1336.11 492.007L1336.12 491.93L1336.13 491.853C1338.04 479.932 1339 468.226 1339 456.741C1339 435.929 1334.16 419.002 1323.83 406.609C1313.42 394.116 1299.09 388 1281.46 388C1264.54 388 1250.55 393.011 1240.09 403.473L1240.05 403.516L1240 403.56C1229.68 414.396 1224.61 428.05 1224.61 444.133C1224.61 461.174 1230.18 475.195 1241.62 485.618ZM1105.01 485.618C1113.36 493.55 1123.74 498.325 1135.91 500.134C1135.66 501.058 1135.41 501.991 1135.15 502.934C1131.63 513.878 1125.45 524.982 1116.44 536.243C1109.57 544.597 1105.8 553.151 1106.94 561.623C1107.53 569.76 1110.91 576.352 1117.41 580.589C1123.3 585.201 1130.5 586.742 1138.5 585.676L1138.52 585.673L1138.54 585.67C1146.9 584.476 1154.24 578.919 1160.7 570.485C1171.61 556.73 1180.22 543.354 1186.48 530.356C1192.71 517.409 1197.07 504.624 1199.49 492.007L1199.51 491.93L1199.52 491.853C1201.43 479.932 1202.39 468.226 1202.39 456.741C1202.39 435.929 1197.55 419.002 1187.22 406.609C1176.8 394.116 1162.47 388 1144.84 388C1127.92 388 1113.94 393.011 1103.48 403.473L1103.43 403.516L1103.39 403.56C1093.07 414.396 1088 428.05 1088 444.133C1088 461.174 1093.56 475.195 1105.01 485.618Z" stroke="#D81E5B" stroke-width="10"/>
<path opacity="0.1" d="M798.854 42.3174C802.136 45.4392 806.179 47.3553 810.875 48.1502C810.825 48.3366 810.774 48.5239 810.721 48.7121C809.342 53.0049 806.913 57.3776 803.36 61.8278C800.586 65.2045 798.993 68.7492 799.465 72.3214C799.711 75.6821 801.117 78.4577 803.845 80.2463C806.315 82.1753 809.322 82.8052 812.61 82.3662L812.621 82.3647L812.633 82.363C816.147 81.8603 819.175 79.5292 821.787 76.1142C826.149 70.6052 829.601 65.2387 832.114 60.0141L829.86 58.9307L832.114 60.0141C834.614 54.815 836.363 49.6733 837.339 44.5922L837.346 44.5538L837.352 44.5152C838.116 39.7346 838.5 35.0385 838.5 30.4285C838.5 22.0529 836.554 15.1709 832.34 10.1072C828.084 4.9929 822.224 2.5 815.07 2.5C808.224 2.5 802.513 4.53443 798.231 8.82207L798.21 8.84364L798.189 8.86572C793.978 13.2927 791.919 18.8688 791.919 25.3987C791.919 32.3137 794.177 38.0493 798.854 42.3174ZM744.435 42.3172C747.717 45.4391 751.761 47.3553 756.457 48.1502C756.406 48.3366 756.355 48.5239 756.302 48.7122C754.924 53.005 752.495 57.3778 748.941 61.828C746.168 65.2047 744.574 68.7492 745.047 72.3214C745.292 75.6821 746.699 78.4577 749.426 80.2463C751.896 82.1753 754.904 82.8052 758.191 82.3662L758.203 82.3647L758.214 82.363C761.729 81.8603 764.756 79.5292 767.369 76.1142C771.73 70.6052 775.183 65.2387 777.695 60.0141C780.195 54.815 781.944 49.6733 782.92 44.5922L782.928 44.5538L782.934 44.5152C783.698 39.7346 784.081 35.0385 784.081 30.4285C784.081 22.0529 782.136 15.1709 777.922 10.1072C773.665 4.9929 767.805 2.5 760.651 2.5C753.805 2.5 748.095 4.53443 743.812 8.82207L743.791 8.84364L743.77 8.86572C739.559 13.2927 737.5 18.8688 737.5 25.3987C737.5 32.3136 739.759 38.0492 744.435 42.3172Z" stroke="#D81E5B" stroke-width="5"/>
<path opacity="0.2" d="M1114.87 128.881C1112.45 126.563 1109.44 125.164 1105.91 124.628C1105.98 124.37 1106.05 124.109 1106.12 123.846C1107.14 120.649 1108.94 117.404 1111.55 114.113C1113.55 111.665 1114.65 109.154 1114.32 106.666C1114.15 104.281 1113.16 102.342 1111.26 101.093C1109.54 99.735 1107.43 99.2818 1105.1 99.5953L1105.1 99.5952L1105.08 99.5973C1102.64 99.9494 1100.49 101.587 1098.62 104.058C1095.45 108.083 1092.94 111.999 1091.12 115.804C1089.31 119.594 1088.05 123.336 1087.34 127.03L1087.34 127.053L1087.33 127.076C1086.78 130.565 1086.5 133.991 1086.5 137.352C1086.5 143.444 1087.91 148.404 1090.91 152.038C1093.95 155.704 1098.12 157.5 1103.26 157.5C1108.19 157.5 1112.26 156.029 1115.31 152.959L1115.33 152.946L1115.34 152.932C1118.35 149.754 1119.82 145.751 1119.82 141.041C1119.82 136.05 1118.2 131.939 1114.87 128.881ZM1154.55 128.881C1152.13 126.563 1149.12 125.164 1145.59 124.628C1145.66 124.37 1145.73 124.11 1145.8 123.847C1146.82 120.649 1148.62 117.404 1151.23 114.113C1153.23 111.665 1154.33 109.154 1154 106.666C1153.83 104.281 1152.84 102.342 1150.94 101.093C1149.22 99.735 1147.11 99.2818 1144.78 99.5953L1144.78 99.5952L1144.76 99.5973C1142.32 99.9494 1140.17 101.587 1138.3 104.058C1135.13 108.083 1132.62 111.999 1130.8 115.804C1128.99 119.594 1127.73 123.336 1127.02 127.03L1127.02 127.053L1127.01 127.076C1126.46 130.565 1126.18 133.991 1126.18 137.352C1126.18 143.444 1127.59 148.404 1130.59 152.038C1133.63 155.704 1137.81 157.5 1142.94 157.5C1147.87 157.5 1151.95 156.029 1154.99 152.959L1155.01 152.946L1155.02 152.932C1158.03 149.754 1159.5 145.751 1159.5 141.041C1159.5 136.05 1157.88 131.939 1154.55 128.881Z" stroke="#1CC2C4" stroke-width="3"/>
<path opacity="0.3" d="M782.195 206.612C780.521 205.016 778.504 203.987 776.208 203.476C776.931 201.408 778.134 199.285 779.865 197.108C781.386 195.248 782.355 193.185 782.078 191.028C781.932 189.084 781.108 187.412 779.477 186.328C778.001 185.182 776.22 184.825 774.336 185.077L774.327 185.079L774.317 185.08C772.204 185.383 770.457 186.779 769.018 188.666C766.679 191.633 764.817 194.535 763.458 197.373L765.262 198.237L763.458 197.373C762.108 200.191 761.159 202.987 760.629 205.76L760.623 205.79L760.618 205.821C760.207 208.403 760 210.943 760 213.438C760 218.001 761.056 221.841 763.425 224.7C765.83 227.6 769.143 229 773.119 229C776.898 229 780.118 227.868 782.543 225.43L782.56 225.413L782.577 225.395C784.944 222.896 786.09 219.753 786.09 216.121C786.09 212.28 784.835 209.034 782.195 206.612ZM811.105 206.612C809.431 205.016 807.414 203.987 805.118 203.476C805.841 201.408 807.044 199.285 808.775 197.108C810.296 195.248 811.265 193.185 810.988 191.028C810.842 189.084 810.018 187.412 808.387 186.328C806.911 185.182 805.13 184.825 803.246 185.077L803.237 185.079L803.227 185.08C801.114 185.383 799.367 186.779 797.928 188.666C795.589 191.633 793.727 194.535 792.368 197.373C791.018 200.191 790.069 202.987 789.539 205.76L789.533 205.79L789.528 205.821C789.117 208.403 788.91 210.943 788.91 213.438C788.91 218.001 789.965 221.841 792.335 224.7C794.739 227.6 798.053 229 802.029 229C805.808 229 809.028 227.868 811.453 225.43L811.47 225.413L811.487 225.395C813.854 222.896 815 219.753 815 216.121C815 212.28 813.745 209.034 811.105 206.612Z" stroke="#1CC2C4" stroke-width="4"/>
<path opacity="0.2" d="M1098.33 314.862C1101.8 314.365 1104.85 312.051 1107.55 308.517C1112.12 302.741 1115.72 297.127 1118.34 291.673C1120.95 286.239 1122.77 280.876 1123.79 275.584L1123.8 275.553L1123.8 275.522C1124.6 270.518 1125 265.605 1125 260.785C1125 252.055 1122.97 244.969 1118.67 239.786C1114.32 234.561 1108.35 232 1100.98 232C1093.91 232 1088.07 234.1 1083.71 238.474L1083.69 238.492L1083.68 238.509C1079.37 243.042 1077.25 248.753 1077.25 255.487C1077.25 262.622 1079.58 268.485 1084.35 272.843C1087.85 276.185 1092.22 278.189 1097.35 278.935C1097.24 279.361 1097.13 279.791 1097.01 280.226C1095.53 284.84 1092.93 289.518 1089.15 294.258C1086.27 297.761 1084.72 301.328 1085.19 304.847C1085.43 308.241 1086.84 310.982 1089.54 312.744C1091.98 314.665 1094.98 315.31 1098.31 314.865L1098.32 314.863L1098.33 314.862ZM1027.09 272.843C1030.6 276.185 1034.97 278.189 1040.1 278.935C1039.99 279.361 1039.88 279.791 1039.76 280.226C1038.28 284.84 1035.68 289.518 1031.9 294.258C1029.02 297.761 1027.46 301.328 1027.94 304.847C1028.18 308.241 1029.59 310.982 1032.28 312.744C1034.73 314.665 1037.72 315.31 1041.06 314.865L1041.06 314.863L1041.07 314.862C1044.54 314.365 1047.6 312.051 1050.3 308.517C1054.87 302.741 1058.47 297.127 1061.09 291.673C1063.7 286.239 1065.52 280.876 1066.54 275.584L1066.54 275.553L1066.55 275.522C1067.35 270.518 1067.75 265.605 1067.75 260.785C1067.75 252.055 1065.72 244.969 1061.41 239.786C1057.07 234.561 1051.09 232 1043.73 232C1036.65 232 1030.82 234.1 1026.46 238.474L1026.44 238.492L1026.42 238.509C1022.12 243.042 1020 248.753 1020 255.487C1020 262.622 1022.32 268.485 1027.09 272.843Z" stroke="#F9A03F" stroke-width="4"/>
<g filter="url(#filter0_d_933_1747)">
<path d="M1018.87 319.24C1018.03 319.24 1017.29 319.112 1016.63 318.856C1015.96 318.6 1015.4 318.227 1014.95 317.736C1014.49 317.235 1014.13 316.627 1013.89 315.912C1013.64 315.197 1013.52 314.376 1013.52 313.448C1013.52 312.52 1013.66 311.699 1013.94 310.984C1014.23 310.269 1014.61 309.667 1015.11 309.176C1015.6 308.675 1016.17 308.296 1016.83 308.04C1017.49 307.784 1018.2 307.656 1018.96 307.656C1019.42 307.656 1019.84 307.693 1020.21 307.768C1020.58 307.832 1020.91 307.907 1021.19 307.992C1021.46 308.077 1021.69 308.168 1021.87 308.264C1022.05 308.36 1022.18 308.429 1022.26 308.472L1021.67 310.12C1021.41 309.96 1021.04 309.811 1020.56 309.672C1020.09 309.523 1019.58 309.448 1019.03 309.448C1018.55 309.448 1018.1 309.533 1017.68 309.704C1017.27 309.864 1016.9 310.109 1016.59 310.44C1016.29 310.771 1016.06 311.187 1015.89 311.688C1015.72 312.189 1015.63 312.771 1015.63 313.432C1015.63 314.019 1015.7 314.557 1015.83 315.048C1015.96 315.539 1016.17 315.965 1016.45 316.328C1016.73 316.68 1017.08 316.957 1017.51 317.16C1017.93 317.352 1018.44 317.448 1019.04 317.448C1019.76 317.448 1020.34 317.379 1020.79 317.24C1021.23 317.091 1021.58 316.952 1021.83 316.824L1022.37 318.472C1022.24 318.557 1022.07 318.643 1021.84 318.728C1021.63 318.813 1021.37 318.899 1021.07 318.984C1020.77 319.059 1020.44 319.117 1020.07 319.16C1019.69 319.213 1019.29 319.24 1018.87 319.24ZM1024.14 319V307.912H1031.26V309.624H1026.16V312.36H1030.7V314.04H1026.16V317.288H1031.64V319H1024.14ZM1034.76 313.448C1034.76 314.056 1034.83 314.611 1034.98 315.112C1035.13 315.603 1035.34 316.024 1035.62 316.376C1035.91 316.717 1036.26 316.984 1036.66 317.176C1037.07 317.368 1037.53 317.464 1038.04 317.464C1038.54 317.464 1038.99 317.368 1039.4 317.176C1039.8 316.984 1040.14 316.717 1040.42 316.376C1040.71 316.024 1040.93 315.603 1041.08 315.112C1041.23 314.611 1041.3 314.056 1041.3 313.448C1041.3 312.84 1041.23 312.291 1041.08 311.8C1040.93 311.299 1040.71 310.877 1040.42 310.536C1040.14 310.184 1039.8 309.912 1039.4 309.72C1038.99 309.528 1038.54 309.432 1038.04 309.432C1037.53 309.432 1037.07 309.528 1036.66 309.72C1036.26 309.912 1035.91 310.184 1035.62 310.536C1035.34 310.888 1035.13 311.309 1034.98 311.8C1034.83 312.291 1034.76 312.84 1034.76 313.448ZM1043.41 313.448C1043.41 314.397 1043.27 315.235 1042.98 315.96C1042.7 316.685 1042.32 317.293 1041.83 317.784C1041.35 318.264 1040.78 318.627 1040.13 318.872C1039.48 319.117 1038.79 319.24 1038.05 319.24C1037.32 319.24 1036.62 319.117 1035.96 318.872C1035.31 318.627 1034.74 318.264 1034.25 317.784C1033.77 317.293 1033.38 316.685 1033.09 315.96C1032.81 315.235 1032.66 314.397 1032.66 313.448C1032.66 312.499 1032.81 311.667 1033.09 310.952C1033.38 310.227 1033.77 309.619 1034.26 309.128C1034.76 308.637 1035.34 308.269 1035.99 308.024C1036.64 307.779 1037.33 307.656 1038.05 307.656C1038.78 307.656 1039.47 307.779 1040.12 308.024C1040.77 308.269 1041.33 308.637 1041.81 309.128C1042.3 309.619 1042.69 310.227 1042.98 310.952C1043.27 311.667 1043.41 312.499 1043.41 313.448ZM1059.23 318.44C1058.91 318.44 1058.62 318.397 1058.35 318.312C1058.08 318.216 1057.86 318.072 1057.68 317.88C1057.44 318.051 1057.17 318.179 1056.85 318.264C1056.54 318.349 1056.21 318.392 1055.87 318.392C1055.35 318.392 1054.87 318.312 1054.43 318.152C1054 317.992 1053.63 317.752 1053.31 317.432C1053 317.112 1052.76 316.717 1052.59 316.248C1052.42 315.768 1052.34 315.213 1052.34 314.584C1052.34 314.061 1052.42 313.571 1052.59 313.112C1052.76 312.643 1053.01 312.237 1053.33 311.896C1053.66 311.555 1054.06 311.288 1054.53 311.096C1055.01 310.893 1055.55 310.792 1056.16 310.792C1056.75 310.792 1057.27 310.84 1057.74 310.936C1058.21 311.032 1058.59 311.133 1058.86 311.24V316.2C1058.86 316.499 1058.92 316.707 1059.02 316.824C1059.14 316.931 1059.3 316.984 1059.49 316.984C1059.95 316.984 1060.3 316.701 1060.56 316.136C1060.83 315.56 1060.96 314.739 1060.96 313.672C1060.96 313.011 1060.84 312.397 1060.61 311.832C1060.38 311.256 1060.05 310.76 1059.62 310.344C1059.18 309.928 1058.64 309.603 1058.02 309.368C1057.4 309.123 1056.7 309 1055.92 309C1055.15 309 1054.44 309.128 1053.79 309.384C1053.15 309.64 1052.6 310.008 1052.13 310.488C1051.67 310.968 1051.31 311.555 1051.04 312.248C1050.78 312.941 1050.66 313.725 1050.66 314.6C1050.66 315.517 1050.79 316.323 1051.06 317.016C1051.32 317.699 1051.7 318.269 1052.18 318.728C1052.67 319.187 1053.25 319.533 1053.92 319.768C1054.6 320.003 1055.36 320.12 1056.19 320.12C1056.77 320.12 1057.27 320.083 1057.71 320.008C1058.16 319.944 1058.5 319.885 1058.72 319.832L1058.91 321.176C1058.79 321.208 1058.64 321.245 1058.45 321.288C1058.27 321.331 1058.05 321.368 1057.81 321.4C1057.57 321.443 1057.32 321.475 1057.04 321.496C1056.76 321.528 1056.48 321.544 1056.19 321.544C1055.2 321.544 1054.27 321.411 1053.39 321.144C1052.53 320.877 1051.77 320.461 1051.12 319.896C1050.48 319.331 1049.97 318.611 1049.58 317.736C1049.21 316.861 1049.02 315.816 1049.02 314.6C1049.02 313.437 1049.22 312.419 1049.6 311.544C1049.98 310.659 1050.5 309.928 1051.14 309.352C1051.78 308.765 1052.51 308.328 1053.33 308.04C1054.16 307.741 1055.02 307.592 1055.92 307.592C1056.85 307.592 1057.72 307.731 1058.53 308.008C1059.34 308.285 1060.04 308.691 1060.64 309.224C1061.24 309.747 1061.71 310.392 1062.05 311.16C1062.4 311.928 1062.58 312.803 1062.58 313.784C1062.58 314.541 1062.49 315.208 1062.32 315.784C1062.16 316.36 1061.93 316.845 1061.63 317.24C1061.33 317.635 1060.98 317.933 1060.58 318.136C1060.17 318.339 1059.72 318.44 1059.23 318.44ZM1057.17 316.696C1057.15 316.579 1057.12 316.445 1057.1 316.296C1057.09 316.147 1057.09 316.003 1057.09 315.864V312.344C1056.87 312.291 1056.6 312.264 1056.26 312.264C1055.89 312.264 1055.58 312.323 1055.31 312.44C1055.06 312.557 1054.84 312.723 1054.67 312.936C1054.5 313.139 1054.37 313.384 1054.29 313.672C1054.21 313.949 1054.18 314.253 1054.18 314.584C1054.18 315.256 1054.32 315.811 1054.61 316.248C1054.9 316.685 1055.34 316.904 1055.95 316.904C1056.14 316.904 1056.34 316.893 1056.54 316.872C1056.76 316.84 1056.96 316.781 1057.17 316.696ZM1075.98 319C1075.84 318.563 1075.68 318.131 1075.52 317.704C1075.36 317.277 1075.21 316.84 1075.06 316.392H1070.38C1070.24 316.84 1070.08 317.283 1069.92 317.72C1069.77 318.147 1069.62 318.573 1069.47 319H1067.38C1067.79 317.816 1068.19 316.723 1068.56 315.72C1068.93 314.717 1069.3 313.768 1069.65 312.872C1070.01 311.976 1070.37 311.123 1070.72 310.312C1071.07 309.501 1071.44 308.701 1071.81 307.912H1073.71C1074.09 308.701 1074.45 309.501 1074.8 310.312C1075.15 311.123 1075.5 311.976 1075.86 312.872C1076.22 313.768 1076.59 314.717 1076.96 315.72C1077.34 316.723 1077.74 317.816 1078.16 319H1075.98ZM1072.72 310.056C1072.48 310.621 1072.19 311.309 1071.87 312.12C1071.56 312.931 1071.24 313.811 1070.9 314.76H1074.54C1074.2 313.811 1073.87 312.925 1073.55 312.104C1073.23 311.283 1072.96 310.6 1072.72 310.056ZM1082.47 317.496C1083.19 317.496 1083.72 317.373 1084.05 317.128C1084.38 316.883 1084.55 316.536 1084.55 316.088C1084.55 315.821 1084.49 315.592 1084.37 315.4C1084.27 315.208 1084.11 315.037 1083.89 314.888C1083.69 314.728 1083.44 314.584 1083.14 314.456C1082.84 314.317 1082.5 314.184 1082.12 314.056C1081.73 313.917 1081.36 313.768 1081 313.608C1080.65 313.437 1080.33 313.229 1080.05 312.984C1079.79 312.739 1079.57 312.445 1079.4 312.104C1079.24 311.763 1079.16 311.352 1079.16 310.872C1079.16 309.869 1079.5 309.085 1080.2 308.52C1080.89 307.944 1081.83 307.656 1083.03 307.656C1083.72 307.656 1084.34 307.736 1084.87 307.896C1085.41 308.045 1085.84 308.211 1086.15 308.392L1085.53 310.024C1085.16 309.821 1084.76 309.667 1084.33 309.56C1083.9 309.453 1083.46 309.4 1083 309.4C1082.45 309.4 1082.03 309.512 1081.72 309.736C1081.42 309.96 1081.27 310.275 1081.27 310.68C1081.27 310.925 1081.32 311.139 1081.41 311.32C1081.52 311.491 1081.66 311.645 1081.85 311.784C1082.04 311.923 1082.26 312.051 1082.5 312.168C1082.76 312.285 1083.03 312.397 1083.33 312.504C1083.86 312.696 1084.32 312.893 1084.73 313.096C1085.14 313.288 1085.49 313.523 1085.77 313.8C1086.05 314.067 1086.27 314.387 1086.42 314.76C1086.57 315.123 1086.65 315.565 1086.65 316.088C1086.65 317.091 1086.29 317.869 1085.57 318.424C1084.87 318.968 1083.83 319.24 1082.47 319.24C1082.01 319.24 1081.59 319.208 1081.21 319.144C1080.83 319.091 1080.5 319.021 1080.2 318.936C1079.91 318.851 1079.66 318.765 1079.45 318.68C1079.23 318.584 1079.06 318.499 1078.93 318.424L1079.53 316.776C1079.81 316.936 1080.2 317.096 1080.69 317.256C1081.18 317.416 1081.78 317.496 1082.47 317.496ZM1096.15 307.912V309.656H1092.74V319H1090.71V309.656H1087.3V307.912H1096.15ZM1104.14 319C1103.99 318.563 1103.84 318.131 1103.68 317.704C1103.52 317.277 1103.36 316.84 1103.21 316.392H1098.54C1098.39 316.84 1098.24 317.283 1098.08 317.72C1097.93 318.147 1097.78 318.573 1097.63 319H1095.53C1095.95 317.816 1096.34 316.723 1096.72 315.72C1097.09 314.717 1097.45 313.768 1097.81 312.872C1098.17 311.976 1098.53 311.123 1098.88 310.312C1099.23 309.501 1099.59 308.701 1099.97 307.912H1101.87C1102.24 308.701 1102.61 309.501 1102.96 310.312C1103.31 311.123 1103.66 311.976 1104.01 312.872C1104.38 313.768 1104.74 314.717 1105.12 315.72C1105.5 316.723 1105.9 317.816 1106.32 319H1104.14ZM1100.88 310.056C1100.63 310.621 1100.35 311.309 1100.03 312.12C1099.72 312.931 1099.39 313.811 1099.05 314.76H1102.7C1102.36 313.811 1102.03 312.925 1101.71 312.104C1101.39 311.283 1101.11 310.6 1100.88 310.056Z" fill="#D2F3F3"/>
</g>
<path opacity="0.3" d="M666.758 443.12C661.84 438.446 655.691 435.663 648.44 434.67C648.617 433.973 648.806 433.268 649.005 432.555C651.082 426.089 654.731 419.543 660.028 412.92C664.021 408.068 666.142 403.174 665.494 398.381C665.161 393.718 663.231 389.984 659.543 387.587C656.201 384.963 652.103 384.073 647.51 384.686L647.498 384.687L647.487 384.689C642.752 385.365 638.547 388.522 634.801 393.414C628.433 401.444 623.411 409.245 619.765 416.817C616.131 424.363 613.597 431.809 612.185 439.151L612.177 439.189L612.171 439.228C611.058 446.182 610.5 453.008 610.5 459.705C610.5 471.819 613.318 481.614 619.277 488.764C625.278 495.965 633.536 499.5 643.741 499.5C653.552 499.5 661.616 496.597 667.643 490.571L667.664 490.55L667.685 490.528C673.641 484.275 676.573 476.395 676.573 467.082C676.573 457.21 673.354 449.127 666.758 443.12ZM746.686 443.12C741.767 438.446 735.618 435.663 728.367 434.67C728.545 433.973 728.733 433.268 728.933 432.555C731.009 426.089 734.658 419.543 739.956 412.92C743.948 408.068 746.069 403.174 745.421 398.381C745.089 393.718 743.158 389.984 739.471 387.587C736.128 384.963 732.03 384.073 727.437 384.686L727.425 384.687L727.414 384.689C722.679 385.365 718.475 388.522 714.728 393.414C708.361 401.444 703.338 409.245 699.692 416.817C696.058 424.363 693.524 431.809 692.112 439.151L692.104 439.189L692.098 439.228C690.985 446.182 690.427 453.008 690.427 459.705C690.427 471.819 693.245 481.614 699.205 488.764C705.206 495.965 713.463 499.5 723.669 499.5C733.479 499.5 741.544 496.597 747.57 490.571L747.592 490.55L747.613 490.528C753.568 484.275 756.5 476.395 756.5 467.082C756.5 457.21 753.281 449.127 746.686 443.12Z" stroke="#A4E7E7" stroke-width="5"/>
<path opacity="0.2" d="M75.4284 121.352C69.7426 115.957 62.7854 112.6 54.7547 111.127C54.7817 111.029 54.8088 110.932 54.8361 110.834C57.221 103.429 61.4272 95.8635 67.6031 88.143C72.5004 82.1909 75.4103 75.832 74.5575 69.3464C74.1125 63.3268 71.5746 58.2966 66.6321 55.0519C62.1582 51.5739 56.7274 50.456 50.8512 51.239L50.8281 51.2421L50.8049 51.2454C44.431 52.1555 39.0038 56.3657 34.3821 62.3944C26.7278 72.0438 20.6601 81.4557 16.2397 90.6309L20.7442 92.801L16.2397 90.6309C11.8438 99.7552 8.76302 108.789 7.04356 117.724L7.02875 117.801L7.01636 117.879C5.67446 126.261 5 134.497 5 142.585C5 157.309 8.42691 169.493 15.9273 178.488C23.5109 187.583 33.9509 192 46.6279 192C58.7362 192 68.9001 188.405 76.5345 180.775L76.5776 180.732L76.6197 180.688C84.1122 172.825 87.7674 162.923 87.7674 151.37C87.7674 139.142 83.7592 128.944 75.4284 121.352ZM170.661 121.353C164.975 115.957 158.018 112.6 149.987 111.127C150.014 111.029 150.041 110.932 150.069 110.834C152.453 103.429 156.66 95.8636 162.836 88.143C167.733 82.1908 170.643 75.8318 169.79 69.3462C169.345 63.3266 166.807 58.2966 161.865 55.0519C157.391 51.5739 151.96 50.456 146.084 51.239L146.061 51.2421L146.037 51.2454C139.663 52.1555 134.236 56.3657 129.615 62.3944C121.96 72.0439 115.893 81.4557 111.472 90.6309C107.076 99.7552 103.996 108.789 102.276 117.724L102.261 117.801L102.249 117.879C100.907 126.261 100.233 134.497 100.233 142.585C100.233 157.309 103.659 169.493 111.16 178.488C118.743 187.583 129.183 192 141.86 192C153.969 192 164.133 188.405 171.767 180.775L171.81 180.732L171.852 180.688C179.345 172.825 183 162.923 183 151.37C183 139.142 178.992 128.944 170.661 121.353Z" stroke="#1CC2C4" stroke-width="10"/>
<path opacity="0.1" d="M547.036 200.963C542.32 196.503 536.542 193.739 529.862 192.542C529.896 192.42 529.93 192.298 529.964 192.175C531.942 186.054 535.431 179.803 540.549 173.428C544.591 168.533 546.979 163.32 546.277 158.014C545.912 153.074 543.824 148.963 539.771 146.314C536.103 143.471 531.65 142.554 526.819 143.196L526.801 143.198L526.783 143.201C521.563 143.943 517.101 147.382 513.286 152.341C506.957 160.291 501.941 168.043 498.288 175.599C494.655 183.113 492.109 190.551 490.689 197.908L490.677 197.97L490.667 198.032C489.558 204.936 489 211.721 489 218.383C489 230.507 491.832 240.523 498.014 247.91C504.261 255.375 512.857 259 523.305 259C533.291 259 541.661 256.047 547.948 249.787L547.982 249.752L548.016 249.717C554.19 243.261 557.206 235.126 557.206 225.626C557.206 215.568 553.899 207.194 547.036 200.963ZM625.83 200.963C621.114 196.503 615.335 193.739 608.656 192.542C608.689 192.42 608.723 192.298 608.758 192.175C610.736 186.054 614.224 179.803 619.343 173.428C623.385 168.533 625.772 163.32 625.071 158.014C624.705 153.074 622.617 148.963 618.565 146.314C614.897 143.471 610.444 142.554 605.613 143.196L605.595 143.198L605.576 143.201C600.356 143.943 595.894 147.382 592.079 152.341C585.75 160.291 580.735 168.043 577.082 175.599C573.449 183.113 570.903 190.551 569.482 197.908L569.471 197.969L569.461 198.032C568.351 204.936 567.794 211.721 567.794 218.383C567.794 230.507 570.626 240.523 576.807 247.91C583.054 255.375 591.65 259 602.099 259C612.084 259 620.455 256.047 626.741 249.787L626.776 249.752L626.809 249.717C632.984 243.261 636 235.126 636 225.626C636 215.568 632.692 207.194 625.83 200.963Z" stroke="#1CC2C4" stroke-width="8"/>
<path opacity="0.1" d="M454.146 355.683C450.864 352.561 446.821 350.645 442.125 349.85C442.175 349.663 442.226 349.476 442.279 349.288C443.658 344.995 446.087 340.622 449.64 336.172C452.414 332.795 454.007 329.251 453.535 325.679C453.289 322.318 451.883 319.542 449.155 317.754C446.685 315.825 443.678 315.195 440.39 315.634L440.379 315.635L440.367 315.637C436.853 316.14 433.825 318.471 431.213 321.886C426.851 327.395 423.399 332.761 420.886 337.986C418.386 343.185 416.637 348.327 415.661 353.408L415.654 353.446L415.648 353.485C414.884 358.265 414.5 362.961 414.5 367.572C414.5 375.947 416.446 382.829 420.66 387.893C424.916 393.007 430.776 395.5 437.93 395.5C444.776 395.5 450.487 393.466 454.769 389.178L454.79 389.156L454.811 389.134C459.022 384.707 461.081 379.131 461.081 372.601C461.081 365.686 458.823 359.951 454.146 355.683ZM508.565 355.683C505.282 352.561 501.239 350.645 496.543 349.85C496.594 349.663 496.645 349.476 496.698 349.288C498.076 344.995 500.505 340.622 504.059 336.172C506.832 332.795 508.426 329.251 507.953 325.679C507.708 322.318 506.301 319.542 503.574 317.754C501.104 315.825 498.096 315.195 494.809 315.634L494.797 315.635L494.786 315.637C491.271 316.14 488.244 318.471 485.631 321.886C481.27 327.395 477.817 332.761 475.305 337.986C472.805 343.185 471.056 348.327 470.08 353.408L470.072 353.446L470.066 353.485C469.302 358.265 468.919 362.961 468.919 367.572C468.919 375.947 470.864 382.829 475.078 387.893C479.335 393.007 485.195 395.5 492.349 395.5C499.195 395.5 504.905 393.466 509.188 389.178L509.209 389.156L509.23 389.134C513.441 384.707 515.5 379.131 515.5 372.601C515.5 365.686 513.241 359.951 508.565 355.683Z" stroke="#1CC2C4" stroke-width="5"/>
<path opacity="0.2" d="M72.6889 479.478C76.234 482.857 80.6909 484.848 85.977 485.515C85.8254 486.124 85.6621 486.742 85.4871 487.369C83.9869 492.056 81.3519 496.791 77.5376 501.573C74.6974 505.033 73.2352 508.469 73.6873 511.796C73.9185 515.075 75.2658 517.672 77.8284 519.337C80.1519 521.171 83.0089 521.801 86.2423 521.369L86.2423 521.369L86.2563 521.367C89.5432 520.896 92.4951 518.694 95.1554 515.21C99.707 509.456 103.292 503.871 105.893 498.456C108.486 493.057 110.293 487.734 111.299 482.49L111.303 482.467L111.307 482.444C112.102 477.464 112.5 472.577 112.5 467.785C112.5 459.128 110.492 452.17 106.281 447.105C102.046 442.01 96.2166 439.5 88.9797 439.5C82.0117 439.5 76.3143 441.565 72.063 445.827L72.0501 445.84L72.0375 445.854C67.8292 450.283 65.7529 455.867 65.7529 462.487C65.7529 469.506 68.0329 475.228 72.6889 479.478ZM15.436 479.478C18.9811 482.857 23.438 484.848 28.7241 485.515C28.5725 486.124 28.4092 486.742 28.2342 487.37C26.734 492.056 24.0989 496.791 20.2846 501.573C17.4445 505.033 15.9823 508.469 16.4344 511.796C16.6656 515.075 18.0129 517.672 20.5755 519.337C22.899 521.171 25.756 521.801 28.9894 521.369L29.0034 521.367C32.2902 520.896 35.2422 518.694 37.9024 515.21C42.454 509.456 46.0392 503.871 48.6399 498.456C51.2333 493.057 53.0398 487.734 54.0458 482.49L54.0502 482.467L54.0539 482.444C54.8487 477.464 55.2471 472.577 55.2471 467.785C55.2471 459.128 53.2389 452.17 49.0285 447.105C44.7927 442.01 38.9637 439.5 31.7267 439.5C24.7588 439.5 19.0614 441.565 14.8101 445.827L14.7972 445.84L14.7846 445.854C10.5763 450.283 8.5 455.867 8.5 462.487C8.5 469.506 10.78 475.228 15.436 479.478Z" stroke="#D81E5B" stroke-width="3"/>
<path opacity="0.4" d="M326.805 487.388C328.479 488.984 330.496 490.013 332.792 490.524C332.069 492.592 330.866 494.715 329.135 496.892C327.614 498.752 326.645 500.815 326.922 502.972C327.068 504.916 327.892 506.588 329.523 507.672C330.999 508.818 332.78 509.175 334.664 508.923L334.673 508.921L334.683 508.92C336.796 508.617 338.543 507.221 339.982 505.334C342.321 502.367 344.183 499.465 345.542 496.627L343.738 495.763L345.542 496.627C346.892 493.809 347.841 491.013 348.371 488.24L348.377 488.21L348.382 488.179C348.793 485.597 349 483.057 349 480.562C349 475.999 347.944 472.159 345.575 469.3C343.17 466.4 339.857 465 335.881 465C332.102 465 328.882 466.132 326.457 468.57L326.44 468.587L326.423 468.605C324.056 471.104 322.91 474.247 322.91 477.879C322.91 481.72 324.165 484.966 326.805 487.388ZM297.895 487.388C299.569 488.984 301.586 490.013 303.882 490.524C303.159 492.592 301.956 494.715 300.225 496.892C298.704 498.752 297.735 500.815 298.012 502.972C298.158 504.916 298.982 506.588 300.613 507.672C302.089 508.818 303.87 509.175 305.754 508.923L305.763 508.921L305.773 508.92C307.886 508.617 309.633 507.221 311.072 505.334C313.411 502.367 315.273 499.465 316.632 496.627C317.982 493.809 318.931 491.013 319.461 488.24L319.467 488.21L319.472 488.179C319.883 485.597 320.09 483.057 320.09 480.562C320.09 475.999 319.035 472.159 316.665 469.3C314.261 466.4 310.947 465 306.971 465C303.192 465 299.972 466.132 297.547 468.57L297.53 468.587L297.513 468.605C295.146 471.104 294 474.247 294 477.879C294 481.72 295.255 484.966 297.895 487.388Z" stroke="#1CC2C4" stroke-width="4"/>
<path opacity="0.2" d="M222.327 335.862C225.796 335.365 228.851 333.051 231.55 329.517C236.118 323.741 239.724 318.127 242.344 312.673C244.953 307.239 246.775 301.876 247.79 296.584L247.796 296.553L247.801 296.522C248.599 291.518 249 286.605 249 281.785C249 273.055 246.975 265.969 242.666 260.786C238.323 255.561 232.345 253 224.98 253C217.907 253 212.073 255.1 207.709 259.474L207.692 259.492L207.675 259.509C203.369 264.042 201.253 269.753 201.253 276.487C201.253 283.622 203.575 289.485 208.348 293.843C211.855 297.185 216.223 299.189 221.355 299.935C221.245 300.361 221.129 300.791 221.008 301.226C219.53 305.84 216.93 310.518 213.149 315.258C210.274 318.761 208.718 322.328 209.19 325.847C209.433 329.241 210.838 331.982 213.537 333.744C215.982 335.665 218.975 336.31 222.309 335.865L222.318 335.863L222.327 335.862ZM151.095 293.843C154.602 297.185 158.97 299.189 164.102 299.935C163.992 300.361 163.876 300.791 163.755 301.226C162.277 305.84 159.677 310.518 155.896 315.258C153.021 318.761 151.465 322.328 151.937 325.847C152.18 329.241 153.585 331.982 156.284 333.744C158.729 335.665 161.722 336.31 165.056 335.865L165.065 335.863L165.074 335.862C168.543 335.365 171.598 333.051 174.297 329.517C178.865 323.741 182.471 318.127 185.091 312.673C187.7 307.239 189.522 301.876 190.537 296.584L190.543 296.553L190.548 296.522C191.346 291.518 191.747 286.605 191.747 281.785C191.747 273.055 189.722 265.969 185.413 260.786C181.07 255.561 175.092 253 167.727 253C160.655 253 154.82 255.1 150.456 259.474L150.439 259.492L150.422 259.509C146.116 264.042 144 269.753 144 276.487C144 283.622 146.322 289.485 151.095 293.843Z" stroke="#F9A03F" stroke-width="4"/>
<defs>
<filter id="filter0_d_933_1747" x="1004.31" y="298.385" width="111.209" height="32.3659" filterUnits="userSpaceOnUse" color-interpolation-filters="sRGB">
<feFlood flood-opacity="0" result="BackgroundImageFix"/>
<feColorMatrix in="SourceAlpha" type="matrix" values="0 0 0 0 0 0 0 0 0 0 0 0 0 0 0 0 0 0 127 0" result="hardAlpha"/>
<feOffset/>
<feGaussianBlur stdDeviation="4.60351"/>
<feComposite in2="hardAlpha" operator="out"/>
<feColorMatrix type="matrix" values="0 0 0 0 1 0 0 0 0 1 0 0 0 0 1 0 0 0 0.25 0"/>
<feBlend mode="normal" in2="BackgroundImageFix" result="effect1_dropShadow_933_1747"/>
<feBlend mode="normal" in="SourceGraphic" in2="effect1_dropShadow_933_1747" result="shape"/>
</filter>
</defs>
</svg>
