<svg width="13" height="13" viewBox="0 0 13 13" fill="none" xmlns="http://www.w3.org/2000/svg">
<path d="M6.5 0.75L7.10104 0.781499L7.69549 0.875651L8.27685 1.03142L8.83874 1.24711L9.375 1.52035L9.87977 1.84815L10.3475 2.22692L10.7731 2.6525L11.1518 3.12023L11.4796 3.625L11.7529 4.16126L11.9686 4.72315L12.1243 5.30451L12.2185 5.89896L12.25 6.5L12.2185 7.10104L12.1243 7.69549L11.9686 8.27685L11.7529 8.83874L11.4796 9.375L11.1518 9.87977L10.7731 10.3475L10.3475 10.7731L9.87977 11.1518L9.375 11.4796L8.83874 11.7529L8.27685 11.9686L7.69549 12.1243L7.10104 12.2185L6.5 12.25L5.89896 12.2185L5.30451 12.1243L4.72315 11.9686L4.16126 11.7529L3.625 11.4796L3.12023 11.1518L2.6525 10.7731L2.22692 10.3475L1.84815 9.87977L1.52035 9.375L1.24711 8.83874L1.03142 8.27685L0.875651 7.69549L0.781499 7.10104L0.75 6.5L0.781499 5.89896L0.875651 5.30451L1.03142 4.72315L1.24711 4.16126L1.52035 3.625L1.84815 3.12023L2.22692 2.6525L2.6525 2.22692L3.12023 1.84815L3.625 1.52035L4.16126 1.24711L4.72315 1.03142L5.30451 0.875651L5.89896 0.781499L6.5 0.75Z" fill="#205F94"/>
</svg>
