<svg width="423" height="281" viewBox="0 0 423 281" fill="none" xmlns="http://www.w3.org/2000/svg">
<g opacity="0.35">
<path d="M81.2248 156.369C83.2044 167.436 94.7316 177.17 94.7316 177.17C94.7316 177.17 104.182 163.705 102.203 152.637C100.216 141.568 93.9199 133.431 88.1253 134.464C82.3326 135.491 79.2456 145.301 81.2248 156.369ZM106.605 175.594C98.8784 183.782 97.9262 198.805 97.9262 198.805C97.9262 198.805 114.403 198.331 122.132 190.135C129.861 181.939 132.649 172.049 128.356 168.034C124.07 164.021 114.332 167.406 106.605 175.594ZM97.3721 232.296C97.0243 234.216 96.887 235.562 96.8508 235.904C96.8485 235.943 96.8405 235.973 96.8438 235.99L96.8419 235.997C96.8419 235.997 96.8494 235.999 96.8513 235.992L96.9058 235.998C97.0844 235.99 97.6184 235.973 98.4253 235.925C102.742 235.647 114.809 234.307 121.208 227.777C129.088 219.734 132.058 209.884 127.848 205.796C123.641 201.7 113.84 204.9 105.96 212.943C102.433 216.548 100.233 221.538 98.8902 225.965C98.2575 228.043 97.7506 230.157 97.3721 232.296ZM73.2315 195.903C83.0484 201.441 97.9243 198.813 97.9243 198.813C97.9243 198.813 93.5491 182.967 83.7322 177.429C73.9149 171.891 63.6101 171.537 60.7078 176.635C57.8033 181.741 63.4141 190.366 73.2315 195.903Z" fill="#666AF6"/>
<path d="M74.3341 230.48C83.5165 237.006 98.5837 235.931 98.5837 235.931C98.5837 235.931 95.8868 219.719 86.7045 213.192C77.5221 206.665 67.3052 205.24 63.8878 210.016C60.4705 214.793 65.1442 223.951 74.3341 230.48Z" fill="#666AF6"/>
<path d="M92.7871 172.623C92.8407 172.782 97.1872 188.077 95.6926 226.973C95.5845 229.821 95.4403 232.802 95.264 235.904L95.4534 235.914L96.8441 235.99L96.8465 235.982L96.854 235.985L96.9081 235.991C97.0867 235.983 97.6206 235.966 98.4276 235.917C98.6273 232.431 98.781 229.116 98.8924 225.958C100.306 187.303 96.0113 172.382 95.8214 171.716L92.7871 172.623ZM336.362 129.045C333.692 143.971 318.146 157.099 318.146 157.099C318.146 157.099 305.401 138.939 308.07 124.013C310.75 109.084 319.241 98.1098 327.056 99.504C334.868 100.888 339.031 114.119 336.362 129.045ZM302.133 154.973C312.553 166.017 313.838 186.277 313.838 186.277C313.838 186.277 291.615 185.638 281.192 174.584C270.769 163.531 267.009 150.192 272.799 144.778C278.578 139.366 291.712 143.93 302.133 154.973ZM314.585 231.444C315.054 234.034 315.24 235.849 315.287 236.31C315.291 236.363 315.302 236.403 315.297 236.426L315.3 236.436C315.3 236.436 315.29 236.439 315.287 236.429L315.214 236.438C314.973 236.427 314.253 236.403 313.165 236.338C307.344 235.964 291.068 234.156 282.439 225.35C271.812 214.502 267.807 201.218 273.483 195.705C279.157 190.181 292.375 194.496 303.003 205.344C307.76 210.206 310.727 216.935 312.538 222.907C313.391 225.709 314.075 228.56 314.585 231.444ZM347.142 182.363C333.902 189.831 313.84 186.287 313.84 186.287C313.84 186.287 319.741 164.917 332.981 157.448C346.221 149.98 360.118 149.502 364.032 156.377C367.949 163.262 360.382 174.895 347.142 182.363Z" fill="#666AF6"/>
<path d="M345.655 228.995C333.272 237.797 312.951 236.347 312.951 236.347C312.951 236.347 316.588 214.482 328.972 205.68C341.356 196.877 355.135 194.955 359.744 201.397C364.353 207.839 358.049 220.19 345.655 228.995Z" fill="#666AF6"/>
<path d="M320.77 150.967C320.697 151.18 314.835 171.808 316.851 224.266C316.997 228.106 317.192 232.128 317.429 236.31L317.174 236.324L315.298 236.426L315.295 236.416L315.285 236.419L315.211 236.428C314.971 236.417 314.251 236.394 313.163 236.329C312.905 231.854 312.696 227.376 312.536 222.897C310.629 170.765 316.421 150.641 316.677 149.743L320.77 150.967Z" fill="#666AF6"/>
<path d="M58.5107 236.665H366.538" stroke="#666AF6" stroke-width="4.355"/>
<path d="M330.954 236.635H93.9498C86.9632 236.635 81.3232 231.075 81.3232 224.251V78.4313C81.3232 71.6068 86.9632 66.0472 93.9498 66.0472H330.954C337.94 66.0472 343.58 71.6068 343.58 78.4313V224.251C343.58 231.075 337.94 236.635 330.954 236.635Z" fill="white" stroke="#666AF6" stroke-width="4.355"/>
<path d="M140.263 98.4226L103.328 98.4905M164.662 87.339L103.104 87.4519" stroke="#666AF6" stroke-width="2.36" stroke-linecap="round" stroke-linejoin="round"/>
<path d="M135.15 158.534H109.848C107.022 158.534 104.731 160.817 104.731 163.633V214.297C104.731 217.113 107.022 219.396 109.848 219.396H135.15C137.977 219.396 140.268 217.113 140.268 214.297V163.633C140.268 160.817 137.977 158.534 135.15 158.534Z" fill="#80BB9C"/>
<path d="M190.067 139.099H164.604C161.777 139.099 159.486 141.382 159.486 144.198V214.291C159.486 217.107 161.777 219.39 164.604 219.39H190.067C192.894 219.39 195.185 217.107 195.185 214.291V144.198C195.185 141.382 192.894 139.099 190.067 139.099Z" fill="#80BB9C"/>
<path d="M245.092 158.534H219.79C216.964 158.534 214.673 160.817 214.673 163.633V214.297C214.673 217.113 216.964 219.396 219.79 219.396H245.092C247.918 219.396 250.21 217.113 250.21 214.297V163.633C250.21 160.817 247.918 158.534 245.092 158.534Z" fill="#80BB9C"/>
<path d="M300.224 139.099H274.76C271.934 139.099 269.643 141.382 269.643 144.198V214.291C269.643 217.107 271.934 219.39 274.76 219.39H300.224C303.05 219.39 305.341 217.107 305.341 214.291V144.198C305.341 141.382 303.05 139.099 300.224 139.099Z" fill="#80BB9C"/>
<path d="M108.489 145.197L166.442 110.733L233.48 145.197L301.771 103.527" stroke="#666AF6" stroke-width="5.36" stroke-linecap="round" stroke-linejoin="round"/>
<path fill-rule="evenodd" clip-rule="evenodd" d="M356.264 74.8294C356.264 91.7891 343.472 107.646 326.28 111.497C309.088 107.646 296.296 91.7891 296.296 74.8294V61.5076C296.296 60.0246 296.739 58.5752 297.568 57.344C298.398 56.1129 299.577 55.1559 300.955 54.595L319.695 46.9537C323.915 45.2319 328.645 45.2319 332.865 46.9537L351.606 54.595C352.983 55.1564 354.161 56.1135 354.991 57.3445C355.821 58.5756 356.264 60.0248 356.264 61.5076V74.8294Z" fill="#80BB9C"/>
<path d="M338.461 70.8818L324.406 84.8873L315.973 76.484" stroke="white" stroke-width="2.02" stroke-linecap="round" stroke-linejoin="round"/>
<path d="M380.128 124.156C373.545 129.591 362.531 127.178 362.531 127.178C362.531 127.178 362.196 115.952 368.783 110.521C375.365 105.085 386.374 107.494 386.374 107.494C386.374 107.494 386.709 118.72 380.128 124.156Z" fill="url(#paint0_linear_162_568)"/>
<path d="M184.558 53.9698C187.821 51.7433 188.143 46.5556 188.143 46.5556C188.143 46.5556 183.176 44.9806 179.914 47.2099C176.652 49.4363 176.328 54.6212 176.328 54.6212C176.328 54.6212 181.296 56.1958 184.558 53.9698Z" fill="url(#paint1_linear_162_568)"/>
<path d="M45.1574 95.6117C53.4257 103.998 68.8887 102.23 68.8887 102.23C68.8887 102.23 70.9346 86.8646 62.6584 78.4838C54.3892 70.0978 38.9342 71.8606 38.9342 71.8606C38.9342 71.8606 36.8887 87.2257 45.1574 95.6117Z" fill="url(#paint2_linear_162_568)"/>
<path d="M373.252 186.867C370.952 186.867 369.088 188.725 369.088 191.017C369.088 193.309 370.952 195.167 373.252 195.167C375.552 195.167 377.417 193.309 377.417 191.017C377.417 188.725 375.552 186.867 373.252 186.867Z" fill="#80BB9C"/>
<path d="M142.912 42.0385C139.673 42.0385 137.047 44.7688 137.047 48.1367C137.047 51.5046 139.673 54.2349 142.912 54.2349C146.151 54.2349 148.776 51.5046 148.776 48.1367C148.776 44.7688 146.151 42.0385 142.912 42.0385Z" fill="#80BB9C"/>
<path d="M62.5101 149.398C58.6165 149.398 55.4601 146.253 55.4601 142.373C55.4601 138.494 58.6165 135.348 62.5101 135.348C66.4037 135.348 69.5601 138.494 69.5601 142.373C69.5601 146.253 66.4037 149.398 62.5101 149.398Z" fill="#80BB9C"/>
<path d="M270.056 91.3105C265.839 91.3105 262.42 87.904 262.42 83.7019C262.42 79.4998 265.839 76.0934 270.056 76.0934C274.273 76.0934 277.691 79.4998 277.691 83.7019C277.691 87.904 274.273 91.3105 270.056 91.3105Z" fill="#80BB9C"/>
<path d="M329.328 143.595C327.028 143.595 325.164 141.737 325.164 139.445C325.164 137.153 327.028 135.295 329.328 135.295C331.629 135.295 333.493 137.153 333.493 139.445C333.493 141.737 331.629 143.595 329.328 143.595Z" fill="#666AF6"/>
<path d="M66.9221 183.31C65.373 183.31 64.1171 182.059 64.1171 180.515C64.1171 178.972 65.373 177.72 66.9221 177.72C68.4712 177.72 69.7271 178.972 69.7271 180.515C69.7271 182.059 68.4712 183.31 66.9221 183.31Z" fill="white"/>
<path d="M69.4724 217.358C67.9232 217.358 66.6674 216.106 66.6674 214.563C66.6674 213.019 67.9232 211.768 69.4724 211.768C71.0215 211.768 72.2773 213.019 72.2773 214.563C72.2773 216.106 71.0215 217.358 69.4724 217.358Z" fill="white"/>
<path d="M353.532 163.491C351.983 163.491 350.727 162.24 350.727 160.696C350.727 159.153 351.983 157.901 353.532 157.901C355.081 157.901 356.337 159.153 356.337 160.696C356.337 162.24 355.081 163.491 353.532 163.491Z" fill="white"/>
<path d="M350.983 210.751C349.434 210.751 348.178 209.5 348.178 207.956C348.178 206.413 349.434 205.161 350.983 205.161C352.532 205.161 353.788 206.413 353.788 207.956C353.788 209.5 352.532 210.751 350.983 210.751Z" fill="white"/>
<path d="M80.5212 57.7347C78.5557 57.7347 76.9624 56.147 76.9624 54.1885C76.9624 52.23 78.5557 50.6423 80.5212 50.6423C82.4867 50.6423 84.0801 52.23 84.0801 54.1885C84.0801 56.147 82.4867 57.7347 80.5212 57.7347Z" fill="#666AF6"/>
<path d="M375.017 81.3865C372.017 81.3865 369.585 78.963 369.585 75.9735C369.585 72.984 372.017 70.5605 375.017 70.5605C378.017 70.5605 380.449 72.984 380.449 75.9735C380.449 78.963 378.017 81.3865 375.017 81.3865Z" fill="#666AF6"/>
<path d="M39.7697 197.918C40.2776 199.807 39.1528 201.748 37.2572 202.255C35.3617 202.761 33.4134 201.64 32.9055 199.751C32.3976 197.862 33.5225 195.921 35.418 195.415C37.3135 194.909 39.2618 196.029 39.7697 197.918Z" fill="#666AF6"/>
<path d="M201.626 94.3663C199.015 94.3663 196.899 92.2576 196.899 89.6563C196.899 87.055 199.015 84.9463 201.626 84.9463C204.236 84.9463 206.353 87.055 206.353 89.6563C206.353 92.2576 204.236 94.3663 201.626 94.3663Z" fill="#666AF6"/>
<path d="M313.101 187.364C311.093 187.364 309.465 186.066 309.465 184.465C309.465 182.864 311.093 181.567 313.101 181.567C315.109 181.567 316.737 182.864 316.737 184.465C316.737 186.066 315.109 187.364 313.101 187.364Z" fill="white"/>
<path d="M382.58 220.688C379.642 222.116 376.344 221.4 375.212 219.089C374.081 216.778 375.545 213.747 378.483 212.319C381.42 210.891 384.719 211.607 385.85 213.918C386.982 216.229 385.518 219.26 382.58 220.688Z" fill="#666AF6"/>
<path d="M246.047 49.1409C247.031 52.7988 244.852 56.5586 241.181 57.5388C237.511 58.5189 233.737 56.3481 232.754 52.6902C231.77 49.0323 233.949 45.2725 237.619 44.2923C241.29 43.3122 245.064 45.483 246.047 49.1409Z" fill="#666AF6"/>
<path d="M379.412 153.554H379.508C380.071 161.507 386.006 161.629 386.006 161.629C386.006 161.629 379.461 161.756 379.461 170.945C379.461 161.756 372.917 161.629 372.917 161.629C372.917 161.629 378.849 161.507 379.412 153.554ZM279.875 44.0023H279.944C280.35 49.8218 284.63 49.9112 284.63 49.9112C284.63 49.9112 279.91 50.0044 279.91 56.7283C279.91 50.0044 275.19 49.9112 275.19 49.9112C275.19 49.9112 279.469 49.8218 279.875 44.0023Z" fill="#666AF6"/>
</g>
<defs>
<linearGradient id="paint0_linear_162_568" x1="354.223" y1="142.373" x2="404.019" y2="79.2983" gradientUnits="userSpaceOnUse">
<stop stop-color="white"/>
<stop offset="1" stop-color="#EEEEEE"/>
</linearGradient>
<linearGradient id="paint1_linear_162_568" x1="195.981" y1="44.8045" x2="161.587" y2="59.063" gradientUnits="userSpaceOnUse">
<stop stop-color="white"/>
<stop offset="1" stop-color="#EEEEEE"/>
</linearGradient>
<linearGradient id="paint2_linear_162_568" x1="78.1486" y1="124.257" x2="18.6707" y2="30.6884" gradientUnits="userSpaceOnUse">
<stop stop-color="white"/>
<stop offset="1" stop-color="#EEEEEE"/>
</linearGradient>
</defs>
</svg>
