<svg width="499" height="339" viewBox="0 0 499 339" fill="none" xmlns="http://www.w3.org/2000/svg">
<g opacity="0.35" clip-path="url(#clip0_162_605)">
<path d="M254.5 297.19C365.383 297.19 455.272 293.649 455.272 289.28C455.272 284.911 365.383 281.37 254.5 281.37C143.616 281.37 53.7275 284.911 53.7275 289.28C53.7275 293.649 143.616 297.19 254.5 297.19Z" fill="url(#paint0_linear_162_605)"/>
<path d="M353.558 120.264L306.219 128.262L306.352 158.418L276.656 144.947L262.5 169.019L261.329 168.54L179.69 136.285L177.509 181.984L126.737 187.457L126.418 184.482L174.634 179.3L176.923 131.981L261.249 165.299L275.458 141.121L303.345 153.794L303.212 125.737L350.045 117.847L344.963 91.2509L347.89 90.6932L353.558 120.264Z" fill="#80BB9C"/>
<path d="M182.084 128.58C184.825 129.829 186.023 133.044 184.798 135.754C183.548 138.491 180.328 139.686 177.587 138.437C174.846 137.189 173.649 133.974 174.9 131.264C175.193 130.614 175.612 130.03 176.133 129.543C176.653 129.056 177.265 128.677 177.933 128.428C178.601 128.178 179.311 128.063 180.024 128.09C180.736 128.116 181.436 128.283 182.084 128.58ZM178.332 175.714C181.073 176.963 182.271 180.177 181.02 182.887C179.769 185.624 176.55 186.82 173.809 185.571C171.068 184.322 169.87 181.107 171.121 178.397C172.372 175.687 175.592 174.465 178.332 175.714ZM265.027 160.25C267.767 161.499 268.965 164.714 267.714 167.424C266.463 170.16 263.244 171.356 260.529 170.107C257.789 168.859 256.592 165.644 257.842 162.934C259.066 160.197 262.286 159.002 265.027 160.25ZM278.597 137.48C281.339 138.729 282.536 141.944 281.312 144.654C281.016 145.304 280.594 145.889 280.071 146.376C279.548 146.862 278.933 147.241 278.264 147.491C277.594 147.74 276.881 147.855 276.167 147.828C275.452 147.802 274.75 147.635 274.101 147.337C271.36 146.089 270.162 142.874 271.386 140.164C272.637 137.454 275.857 136.232 278.597 137.48ZM306.671 121.938C307.322 122.234 307.907 122.655 308.395 123.177C308.882 123.699 309.262 124.312 309.511 124.981C309.761 125.65 309.876 126.362 309.85 127.075C309.824 127.789 309.657 128.49 309.358 129.139C308.107 131.875 304.888 133.07 302.174 131.822C299.433 130.573 298.236 127.358 299.486 124.648C299.777 123.997 300.195 123.409 300.714 122.92C301.234 122.431 301.845 122.049 302.513 121.797C303.181 121.545 303.893 121.428 304.606 121.452C305.32 121.477 306.022 121.642 306.671 121.938ZM354.063 114.126C356.803 115.375 358.001 118.59 356.75 121.299C356.454 121.949 356.032 122.534 355.509 123.021C354.986 123.508 354.372 123.887 353.702 124.136C353.032 124.386 352.32 124.5 351.605 124.474C350.891 124.448 350.189 124.281 349.539 123.983C348.888 123.688 348.302 123.267 347.815 122.745C347.328 122.223 346.948 121.609 346.698 120.94C346.449 120.271 346.334 119.56 346.36 118.846C346.386 118.133 346.553 117.432 346.851 116.783C348.102 114.073 351.322 112.877 354.063 114.126ZM349.033 85.7506C351.747 86.9998 352.972 90.2147 351.747 92.9244C350.497 95.6613 347.277 96.8568 344.537 95.6082C343.886 95.3128 343.3 94.892 342.812 94.3699C342.325 93.8478 341.946 93.2346 341.696 92.5656C341.446 91.8966 341.331 91.185 341.357 90.4715C341.384 89.7579 341.551 89.0566 341.849 88.4078C343.073 85.7241 346.293 84.502 349.033 85.7506ZM128.998 182.515C131.712 183.737 132.936 186.978 131.686 189.688C130.435 192.425 127.215 193.62 124.501 192.372C121.76 191.123 120.563 187.908 121.787 185.198C123.037 182.462 126.257 181.266 128.998 182.515Z" fill="#666AF6"/>
<path d="M205.358 281.765V180.316H219.418V281.765H205.358ZM228.209 281.565V180.285H244.387V281.565H228.209ZM253.019 281.765V160.095H267.733V281.765H253.019ZM276.524 281.564V213.47H292.702V281.564H276.524ZM301.334 281.564V143.115H315.81V281.564H301.334ZM324.186 281.565V180.285H340.364V281.565H324.186ZM193.187 236.824V281.762L165.655 282.056L165.984 236.824H193.187ZM152.44 213.338V281.082L124.916 281.519L125.251 213.338H152.44Z" fill="#80BB9C" stroke="#80BB9C" stroke-width="4"/>
<path d="M238.718 248.155H206.228V282.88H238.718V248.155ZM196.237 248.155H163.747V282.88H196.237V248.155ZM153.3 230.714H120.655V282.895H153.3V230.714ZM277.462 242.814H247.952V282.881H277.462V242.814ZM316.126 259.287H283.662V282.88H316.126V259.287Z" fill="#666AF6"/>
<path d="M338.598 141.488C338.892 143.756 339.679 146.49 340.952 147.419C342.396 148.473 342.842 149.592 342.842 149.592L344.31 149.14L346.064 148.599C346.064 148.599 346.067 148.421 346.056 148.123C346.042 147.73 346.011 147.338 345.962 146.949C345.962 146.949 345.627 146.23 346.096 145.532C346.564 144.835 346.78 143.639 346.45 142.804C346.122 141.971 346.054 140.085 345.743 140.07C344.991 140.028 345.506 142.716 345.091 143.095C344.717 143.44 344.397 143.218 344.34 143.172L344.329 143.162C342.507 141.802 341.159 136.431 339.92 136.829C339.458 136.977 338.471 140.522 338.598 141.488ZM412.661 197.302C412.661 197.302 411.106 199.991 411.803 201.542C412.497 203.094 414.908 205.162 415.531 205.974C416.15 206.784 418.253 208.925 419.101 207.547C419.948 206.173 418.452 202.518 417.415 201.141C416.379 199.76 416.281 197.392 416.281 197.392L412.661 197.302Z" fill="#F8AE9D"/>
<path d="M411.666 201.094C411.666 201.094 411.785 204.057 411.926 204.848C412.068 205.641 412.207 205.398 412.75 204.866C413.291 204.334 413.285 202.784 413.489 202.681C413.692 202.579 411.666 201.094 411.666 201.094Z" fill="#F8AE9D"/>
<path d="M384.459 141.164C384.459 141.164 366.316 160.701 360.668 163.762L346.438 146.981C346.438 146.981 343.767 147.169 342.095 149.419C342.095 149.419 347.616 173.086 357.689 176.364C367.762 179.642 388.298 156.598 388.298 156.598L384.459 141.164ZM367.544 284.375H386.174C387.069 283.321 386.74 279.429 386.605 278.157C386.577 277.9 386.558 277.752 386.558 277.752C386.558 277.752 380.196 272.845 379.322 276.603C379.296 276.72 379.265 276.836 379.229 276.95C378.129 280.465 373.189 282.062 370.339 282.508C368.483 282.796 367.798 283.725 367.544 284.375Z" fill="#312F51"/>
<path d="M380.087 284.375H398.718C399.613 283.321 399.283 279.429 399.149 278.157C399.121 277.9 399.102 277.752 399.102 277.752C399.102 277.752 392.74 272.845 391.866 276.603C391.84 276.72 391.808 276.836 391.772 276.95C390.672 280.465 385.733 282.062 382.883 282.508C381.027 282.796 380.341 283.725 380.087 284.375Z" fill="#312F51"/>
<path d="M372.633 200.689C372.633 200.689 373.524 210.32 374.571 221.895C375.993 237.62 377.705 256.937 377.875 260.596C378.168 266.949 379.341 277.113 379.341 277.113C379.341 277.113 382.126 279.528 387.7 278.51C387.7 278.51 392.668 264 394.086 248.647L394.152 247.889C395.472 232.261 397.523 199.352 397.523 199.352L372.633 200.689Z" fill="#666AF6"/>
<path d="M377.686 201.347C377.686 201.347 379.366 210.883 381.361 222.344C384.072 237.915 387.365 257.044 387.832 260.677C388.64 266.985 390.65 277.034 390.65 277.034C390.65 277.034 393.679 279.274 399.272 277.931C399.272 277.931 403.166 263.195 403.377 247.827L403.382 247.068C403.472 231.433 402.918 198.551 402.918 198.551L377.686 201.347Z" fill="#666AF6"/>
<path d="M380.571 144.682C386.973 146.701 397.538 141.008 397.538 141.008C397.538 141.008 392.149 136.824 392.457 127.621L387.507 131.607L384.144 134.314C384.144 134.314 384.158 135.91 384.526 138.707C384.623 139.442 384.801 140.591 384.249 141.181C382.105 143.466 380.571 144.682 380.571 144.682Z" fill="#F8AE9D"/>
<path d="M382.187 134.163C382.187 134.163 392.763 135.919 393.756 129.322C394.749 122.725 396.782 118.509 390.072 117.109C383.362 115.71 381.666 118.029 380.8 120.15C379.933 122.271 379.463 133.537 382.187 134.163Z" fill="#F8AE9D"/>
<path d="M371.634 204.102C371.827 204.261 372.051 204.358 372.308 204.358C374.713 204.325 381.724 205.661 387.656 205.052C392.657 204.571 397.086 203.092 401.838 200.964C402.47 200.68 403.922 199.905 403.891 199.201C403.869 198.428 403.793 197.31 403.696 195.899C403.359 190.996 402.774 182.566 403.346 172.837C403.448 171.026 403.503 169.23 403.51 167.46C403.558 154.276 400.943 142.68 395.683 138.756C395.232 138.435 392.475 139.782 389.942 141.028C387.601 142.182 385.765 142.304 383.553 141.856L380.837 143.814C378.144 146.312 375.194 149.709 373.91 154.864C372.82 159.254 372.179 167.166 371.827 175.366C371.667 179.082 371.538 182.831 371.505 186.386V186.512C371.475 186.864 371.475 187.249 371.475 187.601C371.346 196.734 371.475 203.973 371.634 204.102Z" fill="#312F51"/>
<path d="M414.247 198.671C412.239 198.943 410.097 198.662 410.097 198.662C410.097 198.662 405.256 180.136 404.594 178.432C403.93 176.727 388.325 156.098 388.325 156.098L396.309 139.059C396.309 139.059 412.671 170.329 414.265 174.683C416.897 181.875 417.042 197.67 417.042 197.67C417.042 197.67 415.824 198.459 414.247 198.671ZM394.945 126.959C394.37 128.148 392.7 128.324 392.854 127.012C393.029 125.52 393.027 123.567 391.812 123.929C390.597 124.293 390.535 125.265 390.036 124.698C389.537 124.131 389.529 121.739 385.911 121.571C382.293 121.405 380.824 122.663 379.144 121.923C378.136 121.481 377.7 120.392 377.513 119.59C377.459 119.362 377.625 119.044 377.777 119.222C377.921 119.39 378.282 119.379 378.179 119.184C377.542 117.976 376.589 115.34 379.017 113.375C382.267 110.747 385.578 112.467 387.458 112.58C391.601 112.83 394.277 113.079 395.629 115.798C396.75 118.054 396.558 123.627 394.945 126.959Z" fill="#312F51"/>
<path d="M249.087 131.08H249.165C249.628 137.281 254.5 137.376 254.5 137.376C254.5 137.376 249.128 137.475 249.128 144.64C249.128 137.475 243.755 137.376 243.755 137.376C243.755 137.376 248.625 137.281 249.087 131.08ZM196.788 154.245H196.837C197.13 158.637 200.207 158.705 200.207 158.705C200.207 158.705 196.814 158.775 196.814 163.85C196.814 158.775 193.42 158.705 193.42 158.705C193.42 158.705 196.496 158.637 196.788 154.245ZM183.763 202.835H183.846C184.332 209.294 189.461 209.394 189.461 209.394C189.461 209.394 183.806 209.497 183.806 216.96C183.806 209.497 178.15 209.394 178.15 209.394C178.15 209.394 183.277 209.294 183.763 202.835ZM105.151 213.57H105.234C105.72 220.029 110.849 220.129 110.849 220.129C110.849 220.129 105.194 220.232 105.194 227.695C105.194 220.232 99.5381 220.129 99.5381 220.129C99.5381 220.129 104.665 220.029 105.151 213.57ZM153.508 156.505H153.587C154.049 163.222 158.921 163.326 158.921 163.326C158.921 163.326 153.549 163.433 153.549 171.195C153.549 163.433 148.176 163.326 148.176 163.326C148.176 163.326 153.046 163.222 153.508 156.505ZM332.505 99.44H332.587C333.073 105.899 338.202 105.999 338.202 105.999C338.202 105.999 332.547 106.102 332.547 113.565C332.547 106.102 326.891 105.999 326.891 105.999C326.891 105.999 332.018 105.899 332.505 99.44Z" fill="#80BB9C"/>
<path d="M97.5975 274.021L109.761 261.87C110.204 261.428 110.204 260.71 109.761 260.268L109.76 260.268C109.317 259.825 108.599 259.825 108.157 260.268L95.9935 272.419C95.5506 272.861 95.5506 273.578 95.9934 274.021L95.9938 274.021C96.4367 274.464 97.1546 274.464 97.5975 274.021Z" fill="#80BB9C"/>
<path d="M98.7878 265.321L102.296 261.817C102.739 261.375 102.739 260.657 102.296 260.215L102.295 260.214C101.853 259.772 101.135 259.772 100.692 260.214L97.1838 263.719C96.741 264.161 96.741 264.879 97.1838 265.321L97.1842 265.321C97.627 265.764 98.345 265.764 98.7878 265.321Z" fill="#80BB9C"/>
</g>
<defs>
<linearGradient id="paint0_linear_162_605" x1="263.062" y1="306.059" x2="263.043" y2="264.155" gradientUnits="userSpaceOnUse">
<stop stop-color="white"/>
<stop offset="1" stop-color="#EEEEEE"/>
</linearGradient>
<clipPath id="clip0_162_605">
<rect width="509" height="339" fill="white"/>
</clipPath>
</defs>
</svg>
