<svg width="120" height="120" viewBox="0 0 120 120" fill="none" xmlns="http://www.w3.org/2000/svg">
<path d="M18.7932 0.672328C18.0643 1.19133 18.0123 2.35909 18.6631 2.95594C19.1056 3.34519 20.3551 3.39709 31.1584 3.39709C42.8468 3.39709 43.2112 3.37114 43.7059 2.87809C44.3306 2.25529 44.3567 1.60653 43.862 0.90588C43.4976 0.438777 43.029 0.412827 31.4187 0.334976C20.7717 0.283076 19.2878 0.309026 18.7932 0.672328Z" fill="#A4E7E7"/>
<path d="M0.231934 5.60266V10.4034H5.17802H10.1241V7.91223V5.42101L9.16092 6.14762C8.61424 6.53687 7.65106 7.26347 7.02629 7.73058C5.23008 9.07998 4.68341 8.95023 2.83514 6.61472C1.16909 4.51276 0.882734 3.5526 1.74179 2.80005C2.52275 2.09939 3.30371 2.28104 4.2669 3.31905C4.76151 3.864 5.17802 4.38301 5.17802 4.48681C5.17802 4.95391 5.90691 4.59061 7.93741 3.0855C9.13488 2.20319 10.1241 1.32089 10.1241 1.13924C10.1241 0.879735 9.05679 0.801885 5.17802 0.801885H0.231934V5.60266Z" fill="#1CC2C4"/>
<path d="M18.6371 8.27569C18.0123 8.9504 18.0904 10.0403 18.7672 10.5074C19.2879 10.8707 21.3965 10.9226 36.3388 10.9226C52.9993 10.9226 53.3378 10.9226 53.8584 10.4036C54.5092 9.75485 54.5092 8.97635 53.8584 8.32759C53.3378 7.80859 52.9993 7.80859 36.2087 7.80859C19.9126 7.80859 19.0276 7.83454 18.6371 8.27569Z" fill="#A4E7E7"/>
<path d="M94.3122 18.8633C91.6569 19.7976 89.7045 22.6261 89.7306 25.5325C89.7306 26.4148 89.9128 27.5826 90.1471 28.1535C90.3814 28.6985 90.5636 29.2175 90.5636 29.3213C90.5636 29.477 81.8168 37.7551 78.9273 40.3501L77.8079 41.3362L76.8447 40.8691C75.2828 40.1165 72.4713 40.0646 70.8313 40.7653C70.1024 41.0767 69.3215 41.5438 69.0611 41.8292C68.8268 42.0887 68.5145 42.3223 68.4103 42.3223C68.2802 42.3223 65.729 40.8431 62.7354 39.0526L57.2947 35.7829L57.555 34.8486C58.1537 32.6948 57.0604 29.6067 55.134 27.9719C52.2444 25.4806 48.1314 25.6623 45.372 28.413C43.2894 30.489 42.7167 32.8764 43.6018 35.8348C43.9923 37.1842 43.9923 37.2101 43.3936 37.781C43.0551 38.0924 40.2697 40.6355 37.1719 43.4381L31.549 48.5244L30.4036 47.9535C29.6747 47.5902 28.6074 47.3566 27.488 47.3047C25.9 47.2009 25.5356 47.2788 24.0257 48.0313C21.3444 49.3288 20.0689 51.4308 20.0428 54.5189C20.0168 57.3734 21.3965 59.5791 24.0518 60.9545C25.8219 61.8628 28.4512 61.9147 30.2214 61.0324C31.8614 60.2539 33.6316 58.2557 34.1001 56.6727C34.5427 55.1157 34.4906 53.0657 33.9439 51.7681C33.6055 50.9896 33.6055 50.7301 33.8658 50.4706C36.3649 48.187 46.1009 39.4678 46.205 39.4678C46.2831 39.4678 46.8298 39.7273 47.4285 40.0387C48.2876 40.5058 48.9384 40.6355 50.4743 40.6096C52.5048 40.6096 53.3899 40.2982 55.0299 39.0785L55.8369 38.4817L61.2255 41.7254L66.6402 44.9692L66.4579 46.4484C65.9633 50.8339 69.3215 54.5448 73.7729 54.5448C76.5323 54.5448 78.693 53.2733 80.0466 50.8339C80.6974 49.6402 80.8016 49.1991 80.8016 47.3826C80.8016 45.9294 80.6714 45.073 80.359 44.5021L79.9165 43.6717L85.8258 38.1443C89.0798 35.0822 91.9953 32.3834 92.2817 32.1498C92.7763 31.7087 92.8544 31.7346 93.9477 32.2536C95.6659 33.11 98.3211 33.0581 100.091 32.1498C102.486 30.9042 103.84 28.9061 104.048 26.311C104.308 23.1192 102.929 20.628 100.169 19.2526C98.3211 18.3443 96.2125 18.1886 94.3122 18.8633Z" fill="#F9A03F"/>
<path d="M18.6371 21.5102C18.0123 22.1849 18.0904 23.2748 18.7672 23.7419C19.2879 24.1052 20.9019 24.1571 31.2626 24.1571C42.8468 24.1571 43.2113 24.1312 43.7059 23.6381C43.9923 23.3526 44.2265 22.8855 44.2265 22.6001C44.2265 22.3146 43.9923 21.8475 43.7059 21.5621C43.2113 21.069 42.8468 21.0431 31.1324 21.0431C19.7565 21.0431 19.0276 21.069 18.6371 21.5102Z" fill="#D2F3F3"/>
<path d="M0.231934 26.2332V31.1637H5.17802H10.1241V28.6725C10.1241 26.2591 10.0981 26.1813 9.62949 26.5186C4.73547 29.9959 4.89166 29.97 2.73101 27.1933C0.752574 24.6243 0.752574 23.1191 2.70498 23.1191C3.30371 23.1191 3.72022 23.3786 4.52722 24.3129L5.5685 25.5066L7.78122 23.8458C9.00472 22.9634 9.99394 22.0292 9.99394 21.8216C9.99394 21.4843 9.23901 21.4324 5.12595 21.3545L0.231934 21.3026V26.2332Z" fill="#1CC2C4"/>
<path d="M18.6365 29.0358C18.1419 29.5808 18.0899 30.2036 18.4543 30.9302C18.7146 31.3973 19.1312 31.4232 29.6481 31.4232C40.165 31.4232 40.5815 31.3973 40.8419 30.9302C41.2063 30.2036 41.1542 29.451 40.6857 28.9839C40.3472 28.6206 38.9675 28.5687 29.6741 28.5687C19.7299 28.5687 19.027 28.5947 18.6365 29.0358Z" fill="#D2F3F3"/>
<path d="M91.3442 60.5133V72.9954L92.0731 72.8137C93.3227 72.5023 100.091 72.3466 101.341 72.6321L102.538 72.8916V60.4614V48.0313H96.9411H91.3442V60.5133Z" fill="#1CC2C4"/>
<path d="M44.7466 74.3707V92.6655H50.4736H56.2007V74.3707V56.0758H50.4736H44.7466V74.3707Z" fill="#77DADC"/>
<path d="M67.9155 79.5607V92.6655H70.2063H72.4972L72.9397 90.9009C73.7988 87.5793 76.8445 82.1557 78.8229 80.3652C79.3436 79.8981 79.3696 79.6126 79.3696 73.151V66.4559H73.6426H67.9155V79.5607Z" fill="#169B9D"/>
<path d="M21.5781 82.4152V92.6655H27.175H32.7719V82.4152V72.1649H27.175H21.5781V82.4152Z" fill="#D2F3F3"/>
<path d="M92.775 75.9538C84.575 77.7703 78.119 83.9464 75.9323 92.0169C75.0733 95.2088 75.1514 100.295 76.0885 103.383C79.0562 113.218 87.2823 119.42 97.3306 119.42C107.379 119.42 115.605 113.218 118.573 103.383C119.51 100.295 119.588 95.2088 118.729 92.0169C116.698 84.4914 110.763 78.4709 103.318 76.3171C100.689 75.5645 95.3782 75.3829 92.775 75.9538ZM103.344 80.1318C114.486 83.9983 119.224 97.207 113.028 107.146C110.216 111.661 105.687 114.723 100.481 115.658C97.9814 116.099 96.6798 116.099 94.1808 115.658C87.8029 114.516 82.4664 110.156 80.0714 104.084C76.9736 96.2468 79.9933 86.9047 87.1261 82.1818C90.6404 79.8722 93.3217 79.1456 97.8513 79.2494C100.663 79.3273 101.418 79.4311 103.344 80.1318Z" fill="#49CED0"/>
<path d="M94.7287 82.4672C94.0779 82.571 91.6309 83.2976 91.2925 83.4792C91.2144 83.5571 91.4227 84.102 91.7871 84.7508C92.516 86.0483 92.4379 86.749 91.4747 87.3718C90.5896 87.9427 89.8608 87.6313 89.0017 86.2559L88.2468 85.0882L86.6588 86.6452C85.7998 87.5015 85.0969 88.3319 85.0969 88.4876C85.0969 88.6174 85.3051 88.799 85.5915 88.9028C86.4245 89.1623 87.4398 90.2782 87.4398 90.9269C87.4398 91.7054 86.6848 92.4061 85.8518 92.4061C85.5134 92.4061 84.8366 92.1725 84.342 91.8611C83.6391 91.4459 83.4048 91.394 83.2486 91.6795C82.9362 92.1466 82.5197 93.6258 82.3115 94.9233L82.1553 96.0391H83.4569C84.8886 96.0391 85.6175 96.5581 85.6175 97.5442C85.6175 98.5044 84.7324 99.1531 83.4048 99.1531C82.3635 99.1531 82.2334 99.205 82.2334 99.75C82.2334 100.477 82.9623 103.072 83.2486 103.383C83.3788 103.513 84.0035 103.331 84.6543 103.02C85.6436 102.527 85.9559 102.475 86.5026 102.734C87.1795 103.046 87.622 104.058 87.3617 104.732C87.2575 104.94 86.7369 105.407 86.1382 105.77C85.5655 106.134 85.0969 106.523 85.0969 106.653C85.0969 106.757 85.8258 107.535 86.6848 108.365L88.2728 109.897L88.8715 108.884C89.6004 107.717 89.9388 107.457 90.876 107.457C91.3706 107.457 91.7351 107.665 92.0214 108.132C92.4379 108.755 92.4379 108.858 91.9173 109.948C91.6049 110.571 91.3446 111.22 91.3446 111.35C91.3446 111.609 94.4684 112.647 95.2754 112.647C95.6919 112.647 95.77 112.44 95.77 111.402C95.77 109.974 96.2907 109.274 97.384 109.274C98.3732 109.274 98.8939 110.026 98.8939 111.428C98.8939 112.881 98.972 112.907 101.679 112.102L103.554 111.531L102.903 110.26C102.33 109.144 102.304 108.91 102.59 108.288C102.851 107.743 103.137 107.561 103.892 107.509C104.777 107.431 104.907 107.509 105.558 108.547C105.949 109.17 106.287 109.715 106.365 109.767C106.495 109.922 109.567 106.886 109.567 106.627C109.567 106.523 109.098 106.134 108.526 105.77C107.406 105.07 107.016 104.187 107.458 103.331C107.901 102.501 108.838 102.397 110.088 103.046C110.686 103.357 111.285 103.513 111.389 103.383C111.676 103.098 112.431 100.477 112.431 99.75C112.431 99.205 112.3 99.1531 111.259 99.1531C109.931 99.1531 109.046 98.5044 109.046 97.5183C109.046 96.5581 109.827 96.0391 111.207 96.0391C112.378 96.0391 112.431 96.0132 112.431 95.3125C112.431 94.534 111.806 92.2504 111.415 91.6795C111.259 91.394 111.025 91.4459 110.322 91.8611C109.098 92.6137 108.109 92.5618 107.589 91.7573C106.964 90.8231 107.302 89.9408 108.526 89.2402C109.098 88.9028 109.567 88.5395 109.567 88.3838C109.567 88.2541 108.864 87.4496 107.979 86.6192L106.417 85.0882L105.662 86.2559C104.803 87.6313 104.074 87.9427 103.189 87.3718C102.226 86.749 102.148 86.0483 102.877 84.7508C103.241 84.102 103.449 83.5571 103.371 83.4792C103.007 83.2976 100.56 82.5969 99.7529 82.4412L98.8939 82.2855V83.583C98.8939 84.5432 98.7637 85.0103 98.3732 85.3996C97.1757 86.5933 95.77 85.6331 95.77 83.583C95.77 82.8564 95.6919 82.3115 95.5878 82.3115C95.4576 82.3374 95.0932 82.4153 94.7287 82.4672ZM98.4253 88.1762C98.8418 88.5395 98.8939 89.0326 98.8939 92.3282V96.0391H101.341C103.996 96.0391 104.439 96.2467 104.439 97.5183C104.439 98.8677 103.632 99.1531 100.039 99.1531C95.5618 99.1531 95.77 99.4386 95.77 93.3922C95.77 89.3699 95.8221 88.6174 96.2126 88.2022C96.7332 87.6313 97.8005 87.6053 98.4253 88.1762Z" fill="#A4E7E7"/>
<path d="M9.86344 98.8936C9.3428 99.4126 9.23867 99.8538 9.49899 100.528C9.57708 100.736 11.5035 102.345 13.7943 104.11L17.9594 107.327L17.2305 107.924C16.84 108.236 14.9136 109.767 12.9873 111.298C9.29073 114.204 8.87422 114.801 9.75931 115.787C10.6704 116.799 11.3212 116.462 16.7099 112.232C21.4997 108.469 21.8382 108.158 21.8382 107.353C21.8382 106.575 21.4997 106.263 16.6057 102.449C13.7162 100.217 11.139 98.3746 10.8787 98.3746C10.6184 98.3746 10.1498 98.6082 9.86344 98.8936Z" fill="#77DADC"/>
<path d="M21.1094 98.5561C20.4847 98.8156 20.2243 99.9315 20.6669 100.606C20.8752 100.944 22.8015 102.552 24.9622 104.239C27.0968 105.9 28.7889 107.353 28.7368 107.457C28.6587 107.587 26.7844 109.092 24.5977 110.805C22.385 112.543 20.4847 114.178 20.4066 114.49C20.3024 114.801 20.4066 115.268 20.6409 115.631C21.4739 116.903 22.1507 116.566 27.4092 112.465C30.0905 110.389 32.4594 108.391 32.6937 108.08C32.9019 107.742 33.0061 107.249 32.9019 106.964C32.7718 106.523 28.7368 103.227 23.5825 99.3346C22.385 98.4264 21.8644 98.2447 21.1094 98.5561Z" fill="#49CED0"/>
<path d="M31.8867 98.8676C31.6264 99.1531 31.4702 99.6721 31.5223 100.087C31.5743 100.684 32.3293 101.411 35.6093 103.98C37.822 105.692 39.6703 107.224 39.7224 107.353C39.7484 107.483 37.9001 109.04 35.6353 110.805C32.0169 113.581 31.4702 114.126 31.4702 114.749C31.4702 115.631 32.069 116.28 32.902 116.28C33.735 116.28 43.471 108.729 43.8354 107.82C43.9916 107.405 43.9916 107.016 43.8094 106.73C43.3148 105.926 33.4486 98.3745 32.8759 98.3745C32.5896 98.3745 32.121 98.6081 31.8867 98.8676Z" fill="#1CC2C4"/>
<path d="M42.9244 98.8935C42.2736 99.5423 42.2476 100.243 42.8724 100.918C43.1067 101.177 44.9549 102.682 46.9594 104.213C48.9639 105.77 50.708 107.094 50.8122 107.198C50.9163 107.301 49.4585 108.573 47.5581 110.052C43.1848 113.426 42.4038 114.178 42.4038 114.853C42.4038 115.579 43.1848 116.28 43.9918 116.28C44.4083 116.28 46.3607 114.905 49.7709 112.232C54.1963 108.781 54.8992 108.106 54.8992 107.509C54.8992 107.12 54.795 106.679 54.6909 106.523C54.2744 105.848 44.4083 98.3745 43.9397 98.3745C43.6794 98.3745 43.2108 98.6081 42.9244 98.8935Z" fill="#169B9D"/>
<path d="M54.17 98.5564C53.5452 98.8159 53.2849 99.9318 53.7014 100.607C53.9357 100.918 55.8621 102.553 57.9967 104.24C60.1573 105.9 61.8494 107.354 61.7974 107.457C61.7193 107.587 59.871 109.066 57.6583 110.805C55.4456 112.518 53.5712 114.178 53.4671 114.464C53.363 114.801 53.4671 115.268 53.7014 115.632C54.5344 116.903 55.2113 116.592 60.5739 112.388C63.3072 110.234 65.6761 108.236 65.8323 107.95C65.9885 107.665 66.0406 107.224 65.9625 106.938C65.8323 106.523 61.8755 103.305 56.643 99.3349C55.4456 98.4267 54.9249 98.245 54.17 98.5564Z" fill="#117476"/>
</svg>
