<svg width="122" height="124" viewBox="0 0 122 124" fill="none" xmlns="http://www.w3.org/2000/svg">
<path fill-rule="evenodd" clip-rule="evenodd" d="M18.7234 0C28.4972 0.841598 38.268 1.73726 48.036 2.68699C71.2858 5.02337 94.5186 7.46608 117.735 10.0151C120.513 11.4721 121.734 13.7792 121.399 16.9362C116.714 44.2155 111.883 71.4654 106.905 98.6858C106.018 100.963 104.362 102.293 101.939 102.676C100.899 102.788 99.868 102.733 98.8445 102.513C67.8547 96.0817 36.8594 89.6762 5.85841 83.2967C2.11893 82.2536 0.354797 79.7839 0.565849 75.8871C5.19382 52.1903 9.69933 28.4687 14.0822 4.72259C14.7906 2.30446 16.3377 0.730372 18.7234 0Z" fill="#4C535C"/>
<path fill-rule="evenodd" clip-rule="evenodd" d="M118.059 25.4043C83.5245 21.3492 49.0007 17.2238 14.4881 13.0278C15.0007 10.5426 15.4621 8.04566 15.8723 5.53682C16.5074 3.14459 18.0545 1.89604 20.5135 1.79133C52.4378 4.94341 84.356 8.17317 116.268 11.4808C118.814 12.4199 119.873 14.2383 119.443 16.9362C118.982 19.7624 118.52 22.585 118.059 25.4043Z" fill="#2466A8"/>
<path fill-rule="evenodd" clip-rule="evenodd" d="M14.4881 13.0278C49.0007 17.2238 83.5245 21.3492 118.059 25.4043C113.923 49.8194 109.554 74.1921 104.951 98.5229C103.678 100.396 101.914 101.128 99.6581 100.721C68.3558 94.1786 37.0347 87.7189 5.69492 81.3425C3.2356 80.3613 2.17708 78.5428 2.51939 75.8871C6.66582 54.96 10.655 34.0069 14.4881 13.0278Z" fill="#FCFCFB"/>
<path fill-rule="evenodd" clip-rule="evenodd" d="M11.7197 62.5336C11.9084 62.8185 12.1799 62.9814 12.5339 63.0221C11.8895 66.6443 11.1839 70.254 10.4169 73.8515C10.4405 73.9772 10.4947 74.0858 10.5797 74.1772C39.6883 79.9934 68.7838 85.7745 97.8661 91.5205C98.3208 91.5126 98.6193 91.7297 98.7618 92.1719C98.8776 92.4759 98.7962 92.7202 98.5175 92.9047C97.5886 92.991 96.6658 92.9368 95.7491 92.7418C67.0094 87.1648 38.294 81.4651 9.60265 75.6428C9.23543 75.569 9.01819 75.352 8.95126 74.9914C9.83275 70.809 10.7554 66.6564 11.7197 62.5336Z" fill="#DDDEDF"/>
<path fill-rule="evenodd" clip-rule="evenodd" d="M13.511 62.6964C13.9339 62.7324 13.9339 62.8138 13.511 62.9407C42.431 68.115 71.3635 73.1903 100.309 78.1669C99.6513 82.5923 98.837 87.0436 97.8661 91.5205C68.7838 85.7745 39.6883 79.9934 10.5797 74.1772C10.4947 74.0858 10.4405 73.9772 10.4169 73.8515C11.1839 70.254 11.8895 66.6443 12.5339 63.0221C12.8927 63.0052 13.2184 62.8967 13.511 62.6964Z" fill="#F3F2F3"/>
<path fill-rule="evenodd" clip-rule="evenodd" d="M15.1395 61.8822C15.685 61.8553 16.2278 61.8825 16.768 61.9636C44.6711 66.884 72.5723 71.7967 100.472 76.7013C101.384 77.3345 101.33 77.823 100.309 78.1669C71.3635 73.1903 42.431 68.115 13.511 62.9407C13.9339 62.8138 13.9339 62.7324 13.511 62.6964C14.002 62.3424 14.5449 62.0709 15.1395 61.8822Z" fill="#E6E6E7"/>
<path fill-rule="evenodd" clip-rule="evenodd" d="M61.2254 56.3453C62.1007 56.6862 63.0234 56.9305 63.9938 57.0782C69.3595 57.9285 74.7063 58.8786 80.0343 59.928C80.3761 59.7998 80.729 59.7456 81.0928 59.7651C83.9974 60.2322 86.8744 60.8564 89.7238 61.6379C90.0999 61.7188 90.4799 61.7459 90.8637 61.7193C94.324 62.3694 97.7981 62.9938 101.286 63.5921C101.887 63.6717 102.429 63.8616 102.914 64.162C102.806 66.2577 102.426 68.2933 101.774 70.2688C101.829 70.3231 101.883 70.3774 101.937 70.4317C101.427 72.5106 100.938 74.6004 100.472 76.7013C72.5723 71.7967 44.6711 66.884 16.768 61.9636C16.2278 61.8825 15.685 61.8553 15.1395 61.8822C18.2909 60.3157 21.4664 58.7959 24.6661 57.3224C27.6092 58.088 30.5677 58.7123 33.5413 59.1952C36.4123 57.3278 39.3435 55.5637 42.3351 53.9026C46.1755 55.1816 50.0566 56.3216 53.9787 57.3224C56.3976 57.0145 58.8131 56.6888 61.2254 56.3453Z" fill="#F3F3F3"/>
<path fill-rule="evenodd" clip-rule="evenodd" d="M103.077 62.045C103.518 62.4897 103.735 63.0327 103.729 63.6735C103.316 63.6342 103.045 63.7971 102.914 64.162C102.429 63.8616 101.887 63.6717 101.286 63.5921C97.7981 62.9938 94.324 62.3694 90.8637 61.7193C91.4599 61.2861 92.057 60.852 92.655 60.4165C92.8172 60.4305 92.9529 60.3761 93.0621 60.2537C93.7166 60.5032 94.3952 60.6932 95.0977 60.8237C97.7482 61.3016 100.408 61.7087 103.077 62.045Z" fill="#E7E7E8"/>
<path fill-rule="evenodd" clip-rule="evenodd" d="M93.632 45.9231C92.7894 46.3712 91.9752 46.8598 91.1893 47.3887C90.3547 47.3837 89.5405 47.248 88.7466 46.9816C86.1042 46.2274 83.4715 45.4404 80.8485 44.6203C78.41 46.4486 75.9943 48.2941 73.6017 50.1571C73.0627 50.4799 72.5742 50.8598 72.1361 51.2971C70.8612 52.5448 69.5584 53.7661 68.2278 54.9611C66.8305 55.3427 65.4193 55.6413 63.9937 55.8568C63.0575 55.9534 62.1349 56.1162 61.2254 56.3453C58.8131 56.6888 56.3976 57.0145 53.9787 57.3224C50.0566 56.3216 46.1755 55.1816 42.3351 53.9026C39.3435 55.5637 36.4123 57.3278 33.5413 59.1952C30.5677 58.7123 27.6092 58.088 24.6661 57.3224C21.4664 58.7959 18.2909 60.3157 15.1395 61.8822C14.5449 62.0709 14.002 62.3424 13.511 62.6964C13.2184 62.8967 12.8927 63.0052 12.5339 63.0221C12.1799 62.9814 11.9084 62.8185 11.7197 62.5336C11.5026 62.1536 11.5025 61.7735 11.7196 61.3936C12.4853 60.9569 13.2453 60.5225 13.9995 60.0908C17.5082 58.4179 21.0366 56.7894 24.5846 55.2054C27.4324 56.0082 30.3093 56.6324 33.2155 57.0781C35.52 55.6676 37.7998 54.229 40.0551 52.7627C40.5391 52.466 41.0276 52.1673 41.5207 51.867C42.0063 51.7859 42.4949 51.7587 42.9864 51.7856C46.6944 53.2022 50.4943 54.3964 54.3857 55.3682C58.6852 54.7019 62.9735 53.9691 67.2507 53.1698C68.4237 52.0242 69.5636 50.857 70.6705 49.6686C71.2538 49.4048 71.7423 49.0248 72.1361 48.5286C73.5747 47.6729 74.9317 46.6958 76.2073 45.5974C76.9103 45.1111 77.5617 44.5682 78.1615 43.9689C78.8933 43.3043 79.7076 42.7614 80.6042 42.3404C83.9677 43.5437 87.3875 44.4938 90.8636 45.1903C95.752 42.0092 100.475 38.6166 105.031 35.0123C105.458 34.8029 105.837 34.5314 106.171 34.198C107.497 33.4924 108.121 33.8723 108.044 35.338C107.854 35.528 107.664 35.7179 107.474 35.9079C102.83 39.224 98.2165 42.5624 93.632 45.9231Z" fill="#B8144B"/>
<path fill-rule="evenodd" clip-rule="evenodd" d="M76.3702 56.0196C77.5903 57.1581 78.7845 58.3252 79.9529 59.5209C80.3659 59.5512 80.7458 59.6326 81.0928 59.7651C80.729 59.7456 80.3761 59.7998 80.0343 59.928C74.7063 58.8786 69.3595 57.9285 63.9938 57.0782C63.0234 56.9305 62.1007 56.6862 61.2254 56.3453C62.1349 56.1162 63.0575 55.9534 63.9937 55.8568C64.1198 55.9622 64.2827 56.0164 64.4823 56.0196C65.1595 55.9022 65.8381 55.7938 66.5179 55.6939C70.2476 56.3291 73.9661 56.9534 77.673 57.5667C77.5504 57.3245 77.4147 57.2973 77.2659 57.4853C76.9788 56.9801 76.6803 56.4916 76.3702 56.0196Z" fill="#E7E8E8"/>
<path fill-rule="evenodd" clip-rule="evenodd" d="M104.869 51.1342C104.988 51.2062 105.15 51.2334 105.357 51.2156C104.839 54.1275 104.297 56.9502 103.729 59.6837C104.125 59.8607 104.07 59.9422 103.566 59.928C103.501 60.3616 103.501 60.7688 103.566 61.1493C103.464 61.4889 103.301 61.7874 103.077 62.045C100.408 61.7087 97.7482 61.3016 95.0977 60.8237C94.3952 60.6932 93.7166 60.5032 93.0621 60.2537C92.9529 60.3761 92.8172 60.4305 92.655 60.4165C96.6322 57.2057 100.703 54.1116 104.869 51.1342Z" fill="#F6F5F5"/>
<path fill-rule="evenodd" clip-rule="evenodd" d="M72.1361 51.2971C73.5475 52.8713 74.9588 54.4454 76.3702 56.0196C76.6803 56.4916 76.9788 56.9801 77.2659 57.4853C77.4147 57.2973 77.5504 57.3245 77.673 57.5667C73.9661 56.9534 70.2476 56.3291 66.5179 55.6939C65.8381 55.7938 65.1595 55.9022 64.4823 56.0196C64.2827 56.0164 64.1198 55.9622 63.9937 55.8568C65.4193 55.6413 66.8305 55.3427 68.2278 54.9611C69.5584 53.7661 70.8612 52.5448 72.1361 51.2971Z" fill="#F6F5F5"/>
<path fill-rule="evenodd" clip-rule="evenodd" d="M20.1878 49.3429C20.6107 49.3789 20.6107 49.4603 20.1878 49.5872C26.3747 50.8144 32.5899 51.9273 38.8338 52.9255C39.2212 52.9285 39.5741 52.8198 39.8923 52.5998C39.9912 52.62 40.0453 52.6743 40.0551 52.7627C37.7998 54.229 35.52 55.6676 33.2155 57.0781C30.3093 56.6324 27.4324 56.0082 24.5846 55.2054C21.0366 56.7894 17.5082 58.4179 13.9995 60.0908C13.5498 60.1861 13.2786 60.0233 13.1853 59.6023C13.7304 56.8192 14.3275 54.0508 14.9766 51.2971C14.8556 51.186 14.7472 51.0774 14.6509 50.9714C14.981 50.9977 15.3067 50.9705 15.628 50.8899C17.1176 50.2736 18.6374 49.7578 20.1878 49.3429Z" fill="#F4F4F4"/>
<path fill-rule="evenodd" clip-rule="evenodd" d="M14.1624 49.8314C14.1054 50.3123 14.2682 50.6924 14.6509 50.9714C14.7472 51.0774 14.8556 51.186 14.9766 51.2971C14.3275 54.0508 13.7304 56.8192 13.1853 59.6023C13.2786 60.0233 13.5498 60.1861 13.9995 60.0908C13.2453 60.5225 12.4853 60.9569 11.7196 61.3936C12.4628 57.5012 13.2771 53.6471 14.1624 49.8314Z" fill="#DCDDDD"/>
<path fill-rule="evenodd" clip-rule="evenodd" d="M105.846 48.2029C106.467 48.4145 106.712 48.8488 106.579 49.5057C106.057 50.1047 105.487 50.6475 104.869 51.1342C100.703 54.1116 96.6322 57.2057 92.655 60.4165C92.057 60.852 91.4599 61.2861 90.8637 61.7193C90.4799 61.7459 90.0999 61.7188 89.7238 61.6379C86.8744 60.8564 83.9974 60.2322 81.0928 59.7651C80.7458 59.6326 80.3659 59.5512 79.9529 59.5209C78.7845 58.3252 77.5903 57.1581 76.3702 56.0196C74.9588 54.4454 73.5475 52.8713 72.1361 51.2971C72.5742 50.8598 73.0627 50.4799 73.6017 50.1571C76.0072 52.6441 78.45 55.1139 80.93 57.5667C84.0163 58.1551 87.0833 58.8336 90.1309 59.6023C94.8429 56.0931 99.5384 52.5648 104.217 49.0172C104.627 48.4865 105.17 48.215 105.846 48.2029Z" fill="#2466A8"/>
<path fill-rule="evenodd" clip-rule="evenodd" d="M22.9562 48.3658C26.8109 49.1918 30.7193 49.8702 34.6812 50.4014C36.575 50.7986 38.4747 51.1785 40.3809 51.5413C41.1959 51.5547 42.0102 51.5547 42.8236 51.5413C42.9322 51.5956 43.0407 51.6499 43.1493 51.7042C43.1122 51.7692 43.0577 51.7962 42.9864 51.7856C42.4949 51.7587 42.0063 51.7859 41.5207 51.867C41.0276 52.1673 40.5391 52.466 40.0551 52.7627C40.0453 52.6743 39.9912 52.62 39.8923 52.5998C39.5741 52.8198 39.2212 52.9285 38.8338 52.9255C32.5899 51.9273 26.3747 50.8144 20.1878 49.5872C20.6107 49.4603 20.6107 49.3789 20.1878 49.3429C21.0738 48.9568 21.9967 48.6311 22.9562 48.3658Z" fill="#E9E9EA"/>
<path fill-rule="evenodd" clip-rule="evenodd" d="M91.1893 47.3887C95.5572 48.046 99.9 48.5887 104.217 49.0172C99.5384 52.5648 94.8429 56.0931 90.1309 59.6023C87.0833 58.8336 84.0163 58.1551 80.93 57.5667C78.45 55.1139 76.0072 52.6441 73.6017 50.1571C75.9943 48.2941 78.41 46.4486 80.8485 44.6203C83.4715 45.4404 86.1042 46.2274 88.7466 46.9816C89.5405 47.248 90.3547 47.3837 91.1893 47.3887Z" fill="#F7F7F6"/>
<path fill-rule="evenodd" clip-rule="evenodd" d="M93.632 45.9231C97.264 46.4561 100.955 46.9718 104.706 47.4701C105.031 47.5788 105.357 47.6872 105.683 47.7958C105.574 47.8501 105.466 47.9044 105.357 47.9587C105.559 47.9965 105.721 48.0779 105.846 48.2029C105.17 48.215 104.627 48.4865 104.217 49.0172C99.9 48.5887 95.5572 48.046 91.1893 47.3887C91.9752 46.8598 92.7894 46.3712 93.632 45.9231Z" fill="#ECECEC"/>
<path fill-rule="evenodd" clip-rule="evenodd" d="M76.2073 45.5974C74.9317 46.6958 73.5747 47.6729 72.1361 48.5286C71.0537 47.0122 69.8054 45.6552 68.3907 44.4574C68.5146 44.3124 68.6775 44.2037 68.8792 44.1318C71.3364 44.6369 73.7791 45.1254 76.2073 45.5974Z" fill="#F9F8F8"/>
<path fill-rule="evenodd" clip-rule="evenodd" d="M65.6227 42.0147C66.493 42.8848 67.4154 43.6991 68.3907 44.4574C69.8054 45.6552 71.0537 47.0122 72.1361 48.5286C71.7423 49.0248 71.2538 49.4048 70.6705 49.6686C69.7258 48.6962 68.8036 47.6921 67.9026 46.6559C66.7288 45.6712 65.5345 44.7213 64.32 43.8061C63.558 43.0443 62.7438 42.3386 61.8772 41.689C58.8383 38.9766 55.7442 36.3168 52.5949 33.7095C50.6591 34.1498 48.705 34.5026 46.7324 34.768C44.9365 35.9368 43.1452 37.1039 41.3584 38.2692C40.8358 38.5567 40.3473 38.8823 39.8928 39.2463C36.493 41.0821 33.3447 43.2805 30.4476 45.8417C27.9468 46.6837 25.4494 47.525 22.9562 48.3658C21.9967 48.6311 21.0738 48.9568 20.1878 49.3429C18.6374 49.7578 17.1176 50.2736 15.628 50.8899C15.3067 50.9705 14.981 50.9977 14.6509 50.9714C14.2682 50.6924 14.1054 50.3123 14.1624 49.8314C14.1624 49.7228 14.1628 49.6143 14.1628 49.5057C14.4563 49.1146 14.8362 48.8433 15.3028 48.6915C19.904 47.1744 24.518 45.6817 29.1448 44.2132C30.3326 43.297 31.4726 42.3199 32.5646 41.2819C33.8176 40.5471 35.0661 39.8143 36.3101 39.0835C36.8591 38.7014 37.4019 38.3215 37.9386 37.9435C40.6756 36.2761 43.3898 34.5662 46.081 32.8138C48.163 32.5376 50.2258 32.1576 52.2692 31.6739C52.6491 31.5653 53.0292 31.5653 53.4092 31.6739C57.4854 35.1222 61.5566 38.569 65.6227 42.0147Z" fill="#2466A8"/>
<path fill-rule="evenodd" clip-rule="evenodd" d="M65.6227 42.0147C69.6236 42.6855 73.6399 43.2555 77.673 43.7246C77.8403 43.8082 78.003 43.8896 78.1615 43.9689C77.5617 44.5682 76.9103 45.1111 76.2073 45.5974C73.7791 45.1254 71.3364 44.6369 68.8792 44.1318C68.6775 44.2037 68.5146 44.3124 68.3907 44.4574C67.4154 43.6991 66.493 42.8848 65.6227 42.0147Z" fill="#EDEDEE"/>
<path fill-rule="evenodd" clip-rule="evenodd" d="M20.6763 21.3331C20.6581 22.1659 20.5494 22.9801 20.3506 23.7758C19.6839 27.3568 19.0325 30.9395 18.3964 34.5237C18.1955 35.2556 18.0326 36.0156 17.9079 36.8036C17.0397 40.7644 16.1716 44.727 15.3028 48.6915C14.8362 48.8433 14.4563 49.1146 14.1628 49.5057C16.1265 39.9734 18.026 30.4468 19.8621 20.9259C20.2661 20.8022 20.5374 20.938 20.6763 21.3331Z" fill="#DCDDDE"/>
<path fill-rule="evenodd" clip-rule="evenodd" d="M39.8928 39.2463C39.783 39.4945 39.6197 39.7117 39.4038 39.8977C39.5666 39.9519 39.7295 40.0063 39.8923 40.0606C48.0872 41.2822 56.23 42.5308 64.32 43.8061C65.5345 44.7213 66.7288 45.6712 67.9026 46.6559C68.8036 47.6921 69.7258 48.6962 70.6705 49.6686C69.5636 50.857 68.4237 52.0242 67.2507 53.1698C62.9735 53.9691 58.6852 54.7019 54.3857 55.3682C50.4943 54.3964 46.6944 53.2022 42.9864 51.7856C43.0577 51.7962 43.1122 51.7692 43.1493 51.7042C43.0407 51.6499 42.9322 51.5956 42.8236 51.5413C42.0102 51.5547 41.1959 51.5547 40.3809 51.5413C38.4747 51.1785 36.575 50.7986 34.6812 50.4014C30.7193 49.8702 26.8109 49.1918 22.9562 48.3658C25.4494 47.525 27.9468 46.6837 30.4476 45.8417C33.3447 43.2805 36.493 41.0821 39.8928 39.2463Z" fill="#F8F7F6"/>
<path fill-rule="evenodd" clip-rule="evenodd" d="M17.9079 36.8036C23.3509 37.474 28.7791 38.2613 34.1927 39.1649C34.8768 39.315 35.5282 39.2336 36.1468 38.9206C36.2457 38.9408 36.3004 38.995 36.3101 39.0835C35.0661 39.8143 33.8176 40.5471 32.5646 41.2819C31.4726 42.3199 30.3326 43.297 29.1448 44.2132C24.518 45.6817 19.904 47.1744 15.3028 48.6915C16.1716 44.727 17.0397 40.7644 17.9079 36.8036Z" fill="#F9F8F7"/>
<path fill-rule="evenodd" clip-rule="evenodd" d="M41.3584 38.2692C41.3709 38.4728 41.4791 38.6084 41.6837 38.6763C48.5158 39.5722 55.2474 40.5765 61.8772 41.689C62.7438 42.3386 63.558 43.0443 64.32 43.8061C56.23 42.5308 48.0872 41.2822 39.8923 40.0606C39.7295 40.0063 39.5666 39.9519 39.4038 39.8977C39.6197 39.7117 39.783 39.4945 39.8928 39.2463C40.3473 38.8823 40.8358 38.5567 41.3584 38.2692Z" fill="#EEEEEE"/>
<path fill-rule="evenodd" clip-rule="evenodd" d="M61.8772 41.689C55.2474 40.5765 48.5158 39.5722 41.6837 38.6763C41.4791 38.6084 41.3709 38.4728 41.3584 38.2692C43.1452 37.1039 44.9365 35.9368 46.7324 34.768C48.705 34.5026 50.6591 34.1498 52.5949 33.7095C55.7442 36.3168 58.8383 38.9766 61.8772 41.689Z" fill="#F9F9F8"/>
<path fill-rule="evenodd" clip-rule="evenodd" d="M18.3964 34.5237C18.3964 34.7408 18.3964 34.958 18.3964 35.1751C24.9232 36.018 31.4376 36.9409 37.9386 37.9435C37.4019 38.3215 36.8591 38.7014 36.3101 39.0835C36.3004 38.995 36.2457 38.9408 36.1468 38.9206C35.5282 39.2336 34.8768 39.315 34.1927 39.1649C28.7791 38.2613 23.3509 37.474 17.9079 36.8036C18.0326 36.0156 18.1955 35.2556 18.3964 34.5237Z" fill="#EEEEEF"/>
<path fill-rule="evenodd" clip-rule="evenodd" d="M20.3506 23.7758C37.3654 25.8824 54.3558 28.1893 71.322 30.6968C82.5586 32.1623 93.795 33.6007 105.031 35.0123C100.475 38.6166 95.752 42.0092 90.8636 45.1903C87.3875 44.4938 83.9677 43.5437 80.6042 42.3404C79.7076 42.7614 78.8933 43.3043 78.1615 43.9689C78.003 43.8896 77.8403 43.8082 77.673 43.7246C73.6399 43.2555 69.6236 42.6855 65.6227 42.0147C61.5566 38.569 57.4854 35.1222 53.4092 31.6739C53.0292 31.5653 52.6491 31.5653 52.2692 31.6739C50.2258 32.1576 48.163 32.5376 46.081 32.8138C43.3898 34.5662 40.6756 36.2761 37.9386 37.9435C31.4376 36.9409 24.9232 36.018 18.3964 35.1751C18.3964 34.958 18.3964 34.7408 18.3964 34.5237C19.0325 30.9395 19.6839 27.3568 20.3506 23.7758Z" fill="#FAF9F8"/>
<path fill-rule="evenodd" clip-rule="evenodd" d="M20.6763 21.3331C20.8284 21.507 20.8828 21.7241 20.8391 21.9845C49.006 25.8107 77.1786 29.5833 105.357 33.3024C105.756 33.3496 106.136 33.4581 106.497 33.6281C106.334 33.7909 106.171 33.9538 106.009 34.1166C106.046 34.1816 106.1 34.2086 106.171 34.198C105.837 34.5314 105.458 34.8029 105.031 35.0123C93.795 33.6007 82.5586 32.1623 71.322 30.6968C54.3558 28.1893 37.3654 25.8824 20.3506 23.7758C20.5494 22.9801 20.6581 22.1659 20.6763 21.3331Z" fill="#EFEFEF"/>
<path fill-rule="evenodd" clip-rule="evenodd" d="M28.6558 7.00246C30.6939 7.00278 31.4809 7.97987 31.0171 9.93372C30.2734 10.7774 29.3777 10.9673 28.3301 10.5037C27.5724 9.88682 27.3281 9.09961 27.5973 8.14239C27.8732 7.67697 28.2261 7.29705 28.6558 7.00246Z" fill="white"/>
<path fill-rule="evenodd" clip-rule="evenodd" d="M34.5183 7.65385C36.6653 7.71312 37.3439 8.7446 36.5539 10.748C35.5652 11.6053 34.5882 11.6053 33.6226 10.748C32.8579 9.37775 33.1564 8.34644 34.5183 7.65385Z" fill="white"/>
<path fill-rule="evenodd" clip-rule="evenodd" d="M23.1194 6.35106C25.2829 6.57921 25.9071 7.66492 24.9922 9.60802C23.89 10.5327 22.8857 10.4241 21.9795 9.28232C21.5541 7.96537 21.9342 6.98829 23.1194 6.35106Z" fill="white"/>
<path fill-rule="evenodd" clip-rule="evenodd" d="M88.4748 113.767C84.4752 113.422 80.5008 113.073 76.5516 112.717C60.5561 112.273 44.6106 112.967 28.7145 114.8C26.0363 115.17 23.3789 115.644 20.7423 116.223C18.8135 116.527 17.1349 117.333 15.7069 118.641C15.4624 119.234 15.6111 119.71 16.1533 120.07C17.3118 120.821 18.5763 121.313 19.9466 121.548C26.0348 122.615 32.1651 123.236 38.3372 123.412C49.2065 124.128 60.1267 124.19 71.0981 123.599C78.4334 123.113 85.6504 122.222 92.7488 120.927C94.3278 120.487 95.8497 119.912 97.3144 119.204C98.3561 118.832 98.7178 118.129 98.3994 117.092C97.5837 116.406 96.678 115.863 95.6819 115.464C93.3025 114.702 90.9002 114.136 88.4748 113.767Z" fill="#2466A8" fill-opacity="0.3"/>
</svg>
