<svg width="126" height="142" viewBox="0 0 126 142" fill="none" xmlns="http://www.w3.org/2000/svg">
<path fill-rule="evenodd" clip-rule="evenodd" d="M47.5152 0C50.4648 0.382673 53.4049 0.851175 56.3358 1.40551C78.2825 5.76351 100.24 10.0737 122.209 14.3362C124.789 15.8963 125.947 18.1764 125.681 21.1763C124.493 24.0497 123.304 26.9233 122.116 29.7967C108.139 60.1456 94.3138 90.5669 80.6396 121.061C78.4435 124.704 75.2842 126.047 71.1621 125.09C48.514 117.219 25.8679 109.348 3.22407 101.478C0.73157 99.5472 -0.17546 97.0173 0.502795 93.8879C14.0806 64.8278 27.6557 35.7806 41.2281 6.74643C42.3391 3.54563 44.4349 1.29681 47.5152 0Z" fill="#617281"/>
<path fill-rule="evenodd" clip-rule="evenodd" d="M47.8905 2.62361C49.731 2.60993 51.5453 2.82863 53.3331 3.27952C75.1597 7.61953 96.9924 11.9298 118.831 16.2102C122.94 16.8891 124.098 19.1066 122.303 22.8629C107.821 55.1575 93.2448 87.3905 78.5752 119.562C77.0177 122.617 74.5779 123.617 71.2559 122.56C49.5411 114.958 27.8021 107.43 6.03918 99.9784C3.05385 98.7234 2.14682 96.5682 3.31791 93.513C16.8417 64.4434 30.4167 35.3963 44.0432 6.37163C44.6944 4.44028 45.977 3.19106 47.8905 2.62361Z" fill="#F6F6F5"/>
<path fill-rule="evenodd" clip-rule="evenodd" d="M31.7505 55.4707C35.5406 56.0576 39.2316 57.0259 42.8233 58.3754C43.6695 59.1031 43.951 60.0088 43.6678 61.0927C42.115 64.3812 40.6136 67.692 39.1637 71.0249C38.0825 72.6126 36.6122 73.2061 34.7533 72.8052C31.8941 71.9681 29.079 70.9998 26.308 69.9005C26.0612 69.5602 25.7797 69.2478 25.4635 68.9635C25.3383 68.5887 25.3383 68.2139 25.4635 67.8391C27.0561 64.1595 28.7451 60.5365 30.5307 56.9699C30.8979 56.4152 31.3046 55.9156 31.7505 55.4707Z" fill="#AAB9C3"/>
<path fill-rule="evenodd" clip-rule="evenodd" d="M32.6889 57.9069C35.6239 58.5768 38.5017 59.4201 41.3219 60.4368C39.7652 63.7021 38.2324 66.9816 36.7239 70.2753C36.6186 70.3732 36.4934 70.4356 36.3486 70.4627C33.5974 69.7345 30.8762 68.8912 28.1847 67.9328C29.7424 64.6066 31.2438 61.2645 32.6889 57.9069Z" fill="#F6F6F5"/>
<path fill-rule="evenodd" clip-rule="evenodd" d="M61.7096 49.4926C63.6539 49.591 64.7174 50.6217 64.9 52.5847C64.8542 53.2382 64.6041 53.8004 64.1493 54.2713C54.1696 59.5657 44.1604 64.7506 34.1215 69.8256C32.8811 69.9723 31.8489 69.5664 31.0249 68.6075C28.8989 64.1747 26.9283 59.6771 25.1131 55.1146C25.8368 52.8572 27.3382 52.0139 29.6173 52.5847C30.1415 53.1621 30.5482 53.818 30.8372 54.5524C31.9105 57.1337 33.0365 59.6947 34.2153 62.2358C34.4407 62.7109 34.8161 62.9607 35.3414 62.9854C44.1399 58.5144 52.9292 54.0168 61.7096 49.4926Z" fill="#2466A8"/>
<path fill-rule="evenodd" clip-rule="evenodd" d="M58.9633 42.7274C63.0777 43.5514 67.1438 44.5821 71.1621 45.8195C79.3743 47.7526 87.5382 49.7827 95.6536 51.91C95.9961 52.9554 95.6832 53.705 94.7152 54.1589C83.5032 51.6318 72.3366 48.9144 61.2154 46.0069C60.1929 45.7206 59.1919 45.3771 58.2126 44.9762C57.905 44.0237 58.1552 43.2741 58.9633 42.7274Z" fill="#AEBCC6"/>
<path fill-rule="evenodd" clip-rule="evenodd" d="M48.4129 65.4841C52.5272 66.3081 56.5934 67.3388 60.6117 68.5762C68.8239 70.5093 76.9878 72.5394 85.1032 74.6668C85.4457 75.7121 85.1328 76.4617 84.1648 76.9156C72.9528 74.3885 61.7861 71.6712 50.665 68.7636C49.6425 68.4773 48.6415 68.1338 47.6622 67.7329C47.3546 66.7804 47.6047 66.0308 48.4129 65.4841Z" fill="#AEBCC6"/>
<path fill-rule="evenodd" clip-rule="evenodd" d="M41.3219 34.4818C42.3935 34.4763 43.4571 34.57 44.5124 34.7629C46.8193 35.3543 49.1339 35.9165 51.4563 36.4495C53.2739 36.7366 53.9308 37.7673 53.4269 39.5416C51.8114 43.0803 50.2473 46.6409 48.735 50.2234C48.0634 51.1366 47.1561 51.5738 46.0138 51.5352C42.8905 50.8962 39.825 50.0529 36.8177 49.0053C35.6213 47.8888 35.4025 46.6081 36.1609 45.1636C37.4121 42.2902 38.6631 39.4166 39.9144 36.5432C40.2051 35.7242 40.6743 35.037 41.3219 34.4818Z" fill="#ACBAC4"/>
<path fill-rule="evenodd" clip-rule="evenodd" d="M42.448 36.7306C45.2542 37.5814 48.0694 38.3936 50.8933 39.1668C49.5998 42.4697 48.2236 45.7492 46.7645 49.0053C46.4516 49.1303 46.1389 49.1303 45.8261 49.0053C43.3424 48.2604 40.8402 47.5732 38.3191 46.9439C38.2212 46.8388 38.1587 46.7138 38.1315 46.5691C39.4469 43.2249 40.8856 39.9454 42.448 36.7306Z" fill="#F7F6F6"/>
<path fill-rule="evenodd" clip-rule="evenodd" d="M47.3275 21.5511C66.0365 25.6437 84.7414 29.7979 103.442 34.0133C104.178 34.8118 104.178 35.6238 103.442 36.4495C102.05 36.4343 100.674 36.2469 99.3132 35.8873C81.9626 32.0399 64.6339 28.1045 47.3275 24.081C46.9923 23.9339 46.7108 23.7154 46.483 23.4251C46.6042 22.7445 46.8857 22.1199 47.3275 21.5511Z" fill="#AFBDC7"/>
<path fill-rule="evenodd" clip-rule="evenodd" d="M21.9915 76.8344C24.594 77.1559 27.1589 77.6869 29.6861 78.4273C30.8052 78.7633 31.9313 79.0755 33.0643 79.3643C33.3994 79.5114 33.681 79.7299 33.9088 80.0202C34.034 80.6448 34.034 81.2696 33.9088 81.8942C32.2197 85.5798 30.5307 89.2652 28.8416 92.9508C27.986 94.1834 26.8286 94.5893 25.3696 94.1689C22.5036 93.1941 19.626 92.2571 16.7366 91.3579C15.7635 90.944 15.357 90.2257 15.5167 89.2028C17.3167 85.4205 19.0683 81.6099 20.7716 77.7714C21.1104 77.3355 21.517 77.0233 21.9915 76.8344Z" fill="#A8B7C2"/>
<path fill-rule="evenodd" clip-rule="evenodd" d="M22.7422 79.2706C25.6282 79.9506 28.4433 80.794 31.1875 81.8005C29.8687 85.2562 28.3362 88.5981 26.5895 91.8264C23.9054 90.8832 21.1841 90.0711 18.4257 89.3902C18.5495 88.6757 18.7684 87.9887 19.0825 87.3288C20.3082 84.6321 21.5281 81.9461 22.7422 79.2706Z" fill="#F6F6F5"/>
<path fill-rule="evenodd" clip-rule="evenodd" d="M38.3191 86.017C49.8292 89.5252 61.3398 93.0545 72.8512 96.6052C74.9329 97.0695 75.2457 98.0691 73.7895 99.6036C73.5394 99.7286 73.289 99.7286 73.0388 99.6036C61.6418 96.0808 50.2563 92.5202 38.8822 88.9217C37.7946 88.7752 37.3879 88.1817 37.6623 87.1414C37.8361 86.7306 38.0551 86.3558 38.3191 86.017Z" fill="#B0BEC7"/>
<path fill-rule="evenodd" clip-rule="evenodd" d="M34.2878 131.456C55.5667 128.521 76.7997 128.684 97.9872 131.944C100.455 132.284 102.801 132.994 105.026 134.077C105.997 135.029 105.974 135.943 104.957 136.819C102.84 137.925 100.595 138.68 98.2242 139.083C87.9476 140.752 77.607 141.724 67.2024 141.999C55.7995 142.021 44.455 141.346 33.1691 139.973C29.7216 139.503 26.3561 138.686 23.0728 137.523C21.5456 136.33 21.6824 135.308 23.4834 134.46C24.7909 133.747 26.1789 133.214 27.6471 132.861C29.869 132.293 32.0825 131.825 34.2878 131.456Z" fill="#2466A8" fill-opacity="0.3"/>
</svg>
