<svg width="251" height="168" viewBox="0 0 251 168" fill="none" xmlns="http://www.w3.org/2000/svg">
<g opacity="0.35" clip-path="url(#clip0_162_644)">
<path d="M65.1771 95.3363C62.4351 74.3165 76.8832 49.3198 107.673 53.111C133.79 56.3259 139.451 52.1805 150.694 46.2734C158.119 42.3741 169.734 35.4746 179.157 55.204C191.491 81.0261 162.566 121.513 136.734 133.93C112.03 145.806 70.1508 133.482 65.1771 95.3363Z" fill="#666AF6"/>
<path d="M68.1731 57.9436L76.1746 49.9101C76.466 49.6176 76.466 49.1434 76.1746 48.8509C75.8833 48.5584 75.4109 48.5584 75.1196 48.8509L67.118 56.8843C66.8267 57.1768 66.8267 57.6511 67.118 57.9436C67.4094 58.2361 67.8817 58.2361 68.1731 57.9436Z" fill="#80BB9C"/>
<path d="M65.6287 131.304L70.3827 126.531C70.5559 126.357 70.556 126.076 70.3828 125.902C70.2097 125.728 69.929 125.728 69.7558 125.902L65.0018 130.675C64.8287 130.849 64.8286 131.131 65.0017 131.304C65.1748 131.478 65.4556 131.478 65.6287 131.304Z" fill="#80BB9C"/>
<path d="M183.599 109.093L178.845 113.866C178.672 114.04 178.672 114.322 178.845 114.496C179.018 114.67 179.299 114.67 179.472 114.496L184.226 109.723C184.399 109.549 184.399 109.267 184.226 109.093C184.053 108.92 183.772 108.92 183.599 109.093Z" fill="#80BB9C"/>
<path d="M68.9558 52.1917L71.2635 49.8749C71.5548 49.5824 71.5548 49.1081 71.2635 48.8156C70.9722 48.5231 70.4998 48.5231 70.2085 48.8156L67.9008 51.1325C67.6094 51.425 67.6094 51.8992 67.9008 52.1917C68.1921 52.4842 68.6645 52.4843 68.9558 52.1917Z" fill="#80BB9C"/>
<path d="M66.0938 127.887L67.4648 126.51C67.6379 126.336 67.638 126.055 67.4649 125.881C67.2917 125.707 67.011 125.707 66.8379 125.881L65.4669 127.257C65.2937 127.431 65.2937 127.713 65.4668 127.887C65.6399 128.061 65.9206 128.061 66.0938 127.887Z" fill="#80BB9C"/>
<path d="M183.134 112.511L181.763 113.887C181.59 114.061 181.59 114.343 181.763 114.517C181.936 114.691 182.217 114.691 182.39 114.517L183.761 113.14C183.934 112.967 183.934 112.685 183.761 112.511C183.588 112.337 183.307 112.337 183.134 112.511Z" fill="#80BB9C"/>
<path d="M136.129 140.145C134.854 140.451 133.14 141.112 132.168 142.427C131.197 143.742 132.372 144.131 133.924 143.878C135.476 143.625 137.016 142.747 137.641 141.509C138.265 140.272 137.176 139.893 136.129 140.145ZM142.414 137.696C141.797 137.844 140.97 138.163 140.5 138.798C140.031 139.434 140.599 139.621 141.348 139.499C142.098 139.377 142.842 138.953 143.144 138.355C143.445 137.757 142.919 137.574 142.414 137.696ZM165.355 129.175C166.956 128.073 167.113 125.506 167.113 125.506C167.113 125.506 164.673 124.728 163.072 125.832C161.47 126.934 161.313 129.5 161.313 129.5C161.313 129.5 163.753 130.278 165.355 129.175Z" fill="#80BB9C"/>
<path d="M161.022 35.091C162.202 35.091 163.158 34.0625 163.158 32.7939C163.158 31.5252 162.202 30.4968 161.022 30.4968C159.843 30.4968 158.887 31.5252 158.887 32.7939C158.887 34.0625 159.843 35.091 161.022 35.091Z" fill="#80BB9C"/>
<path d="M190.921 94.5131C191.595 94.5131 192.141 93.6903 192.141 92.6752C192.141 91.6602 191.595 90.8373 190.921 90.8373C190.247 90.8373 189.7 91.6602 189.7 92.6752C189.7 93.6903 190.247 94.5131 190.921 94.5131Z" fill="#80BB9C"/>
<path d="M100.616 93.7678L114.037 107.377L143.328 77.6667" stroke="white" stroke-width="6.94" stroke-linecap="round" stroke-linejoin="round"/>
<path d="M135.45 46.7244C126.726 49.0437 117.245 41.8132 117.245 41.8132C117.245 41.8132 121.917 30.826 130.644 28.5132C139.369 26.194 148.847 33.4183 148.847 33.4183C148.847 33.4183 144.175 44.4052 135.45 46.7244Z" fill="url(#paint0_linear_162_644)"/>
<path d="M196.099 68.9237C193.476 71.6044 188.57 71.0394 188.57 71.0394C188.57 71.0394 187.921 66.1276 190.547 63.4483C193.17 60.7676 198.074 61.3312 198.074 61.3312C198.074 61.3312 198.723 66.243 196.099 68.9237Z" fill="url(#paint1_linear_162_644)"/>
<path d="M55.3114 88.9994C57.7546 88.9994 59.7352 91.125 59.7352 93.7471C59.7352 96.3691 57.7546 98.4948 55.3114 98.4948C52.8683 98.4948 50.8877 96.3691 50.8877 93.7471C50.8877 91.125 52.8683 88.9994 55.3114 88.9994Z" fill="#80BB9C"/>
<path d="M54.3958 67.5587C55.3226 67.5587 56.0739 66.873 56.0739 66.0271C56.0739 65.1812 55.3226 64.4955 54.3958 64.4955C53.4691 64.4955 52.7178 65.1812 52.7178 66.0271C52.7178 66.873 53.4691 67.5587 54.3958 67.5587Z" fill="#80BB9C"/>
<path d="M97.718 46.1177C99.4871 46.1177 100.921 44.6778 100.921 42.9016C100.921 41.1254 99.4871 39.6855 97.718 39.6855C95.9488 39.6855 94.5146 41.1254 94.5146 42.9016C94.5146 44.6778 95.9488 46.1177 97.718 46.1177Z" fill="#80BB9C"/>
<path d="M187.751 38.4602H187.686C187.305 43.9228 183.294 44.0068 183.294 44.0068C183.294 44.0068 187.717 44.0941 187.717 50.4059C187.717 44.0941 192.141 44.0068 192.141 44.0068C192.141 44.0068 188.131 43.9228 187.751 38.4602Z" fill="#80BB9C"/>
</g>
<defs>
<linearGradient id="paint0_linear_162_644" x1="102.526" y1="52.7867" x2="178.55" y2="14.5535" gradientUnits="userSpaceOnUse">
<stop stop-color="white"/>
<stop offset="1" stop-color="#EEEEEE"/>
</linearGradient>
<linearGradient id="paint1_linear_162_644" x1="185.632" y1="78.0808" x2="204.706" y2="48.2996" gradientUnits="userSpaceOnUse">
<stop stop-color="white"/>
<stop offset="1" stop-color="#EEEEEE"/>
</linearGradient>
<clipPath id="clip0_162_644">
<rect width="251" height="168" fill="white"/>
</clipPath>
</defs>
</svg>
