<svg width="37" height="37" viewBox="0 0 37 37" fill="none" xmlns="http://www.w3.org/2000/svg">
<circle cx="18.4805" cy="18.1251" r="18" fill="#FB9515"/>
<path d="M14.9296 24.8109C14.8863 24.8109 14.8286 24.7965 14.7564 24.7678C14.6986 24.7391 14.6337 24.7104 14.5615 24.6817L6.76478 19.4063C6.56265 19.2628 6.40383 19.1264 6.28832 18.9972C6.18725 18.8537 6.13672 18.6742 6.13672 18.4589V17.7914C6.13672 17.5761 6.18725 17.4038 6.28832 17.2746C6.40383 17.1455 6.56265 17.0091 6.76478 16.8655L14.5615 11.5902C14.6337 11.5471 14.6986 11.5112 14.7564 11.4825C14.8286 11.4538 14.8863 11.4395 14.9296 11.4395C15.0596 11.4395 15.1679 11.4825 15.2545 11.5686C15.3411 11.6548 15.3844 11.7624 15.3844 11.8916V14.1956C15.3844 14.4252 15.3195 14.6047 15.1895 14.7339C15.0596 14.8487 14.9224 14.9564 14.778 15.0568L10.0567 18.1359L14.778 21.2366C14.9224 21.3227 15.0596 21.4232 15.1895 21.538C15.3195 21.6528 15.3844 21.8251 15.3844 22.0548V24.3802C15.3844 24.5094 15.3411 24.6171 15.2545 24.7032C15.1679 24.775 15.0596 24.8109 14.9296 24.8109Z" fill="white"/>
<path d="M22.5221 24.8109C22.4066 24.8109 22.3056 24.775 22.2189 24.7032C22.1323 24.6171 22.089 24.5094 22.089 24.3802V22.0548C22.089 21.8251 22.154 21.6528 22.2839 21.538C22.4139 21.4232 22.551 21.3227 22.6954 21.2366L27.3951 18.1359L22.6954 15.0568C22.551 14.9707 22.4139 14.8631 22.2839 14.7339C22.154 14.6047 22.089 14.4324 22.089 14.2171V11.8916C22.089 11.7624 22.1323 11.662 22.2189 11.5902C22.3056 11.504 22.4066 11.461 22.5221 11.461C22.5799 11.461 22.6376 11.4753 22.6954 11.504C22.7676 11.5328 22.8326 11.5615 22.8903 11.5902L30.7087 16.8655C30.9252 17.0091 31.084 17.1455 31.1851 17.2746C31.2862 17.4038 31.3367 17.5833 31.3367 17.813V18.4589C31.3367 18.6742 31.2862 18.8537 31.1851 18.9972C31.084 19.1264 30.9252 19.2628 30.7087 19.4063L22.8903 24.6817C22.8326 24.7104 22.7676 24.7391 22.6954 24.7678C22.6376 24.7965 22.5799 24.8109 22.5221 24.8109Z" fill="white"/>
</svg>
