<svg width="233" height="155" viewBox="0 0 233 155" fill="none" xmlns="http://www.w3.org/2000/svg">
<g clip-path="url(#clip0_363_47)">
<path fill-rule="evenodd" clip-rule="evenodd" d="M92.0963 71.0448C92.0963 91.5487 75.4422 108.167 54.8945 108.167C34.3464 108.167 17.6924 91.5487 17.6924 71.0448C17.6924 50.5412 34.3464 33.9229 54.8945 33.9229C75.4422 33.9229 92.0963 50.5412 92.0963 71.0448Z" fill="#666AF6" stroke="white" stroke-width="6.085" stroke-linecap="round" stroke-linejoin="round"/>
<path d="M81.1993 97.2943L56.1046 72.2533C55.7206 71.8705 55.416 71.416 55.2082 70.9156C55.0003 70.4152 54.8934 69.8789 54.8936 69.3373V33.9226" stroke="white" stroke-width="2" stroke-linecap="round" stroke-linejoin="round"/>
<path d="M87.1122 52.4839L56.3777 70.1903C55.9074 70.4609 55.4952 70.8213 55.1646 71.251C54.8341 71.6806 54.5917 72.1711 54.4513 72.6943L45.2656 106.902" stroke="white" stroke-width="2" stroke-linecap="round" stroke-linejoin="round"/>
<path d="M55.1299 71.2788L81.1821 97.2896" stroke="white" stroke-width="2" stroke-linecap="round" stroke-linejoin="round"/>
<path d="M109.069 89.791H135.639M168.863 89.8104H198.897M168.863 109.313H198.897M109.068 98.3132H153.195M168.853 98.3132H212.829M168.853 117.817H212.829M109.068 109.676H135.639M109.068 118.198H153.195" stroke="#E1E4E5" stroke-width="3" stroke-linecap="round" stroke-linejoin="round"/>
<path d="M141.665 33.9226H133.884C131.709 33.9226 129.945 35.682 129.945 37.8524V76.3918C129.945 78.5622 131.709 80.3216 133.884 80.3216H141.665C143.84 80.3216 145.603 78.5622 145.603 76.3918V37.8524C145.603 35.682 143.84 33.9226 141.665 33.9226Z" fill="#666AF6"/>
<path d="M188.163 33.9226H180.382C178.207 33.9226 176.443 35.682 176.443 37.8524V76.3918C176.443 78.5622 178.207 80.3216 180.382 80.3216H188.163C190.338 80.3216 192.101 78.5622 192.101 76.3918V37.8524C192.101 35.682 190.338 33.9226 188.163 33.9226Z" fill="#666AF6"/>
<path d="M118.415 52.8608H110.634C108.459 52.8608 106.695 54.6203 106.695 56.7906V76.3916C106.695 78.562 108.459 80.3214 110.634 80.3214H118.415C120.59 80.3214 122.353 78.562 122.353 76.3916V56.7906C122.353 54.6203 120.59 52.8608 118.415 52.8608Z" fill="#E1E4E5"/>
<path d="M164.914 52.8608H157.133C154.958 52.8608 153.194 54.6203 153.194 56.7906V76.3916C153.194 78.562 154.958 80.3214 157.133 80.3214H164.914C167.089 80.3214 168.852 78.562 168.852 76.3916V56.7906C168.852 54.6203 167.089 52.8608 164.914 52.8608Z" fill="#E1E4E5"/>
<path d="M211.413 52.8608H203.632C201.457 52.8608 199.693 54.6203 199.693 56.7906V76.3916C199.693 78.562 201.457 80.3214 203.632 80.3214H211.413C213.588 80.3214 215.351 78.562 215.351 76.3916V56.7906C215.351 54.6203 213.588 52.8608 211.413 52.8608Z" fill="#E1E4E5"/>
<path d="M162.244 43.7843C158.042 45.8644 152.464 43.1896 152.464 43.1896C152.464 43.1896 153.704 37.1433 157.908 35.0661C162.111 32.986 167.686 35.6576 167.686 35.6576C167.686 35.6576 166.447 41.7039 162.244 43.7843Z" fill="url(#paint0_linear_363_47)"/>
<path d="M34.5888 119.667C38.6549 122.099 44.4887 119.851 44.4887 119.851C44.4887 119.851 43.7258 113.661 39.6571 111.232C35.591 108.8 29.7598 111.045 29.7598 111.045C29.7598 111.045 30.5227 117.235 34.5888 119.667Z" fill="url(#paint1_linear_363_47)"/>
<path d="M159.926 107.273C158.346 107.273 157.065 105.995 157.065 104.418C157.065 102.841 158.346 101.562 159.926 101.562C161.507 101.562 162.788 102.841 162.788 104.418C162.788 105.995 161.507 107.273 159.926 107.273Z" fill="#E1E4E5"/>
<path d="M81.6368 118.697C79.3539 118.697 77.5032 116.85 77.5032 114.572C77.5032 112.294 79.3539 110.447 81.6368 110.447C83.9198 110.447 85.7705 112.294 85.7705 114.572C85.7705 116.85 83.9198 118.697 81.6368 118.697Z" fill="#E1E4E5"/>
<path d="M210.762 110.42C209.025 110.42 207.616 109.015 207.616 107.281C207.616 105.547 209.025 104.142 210.762 104.142C212.5 104.142 213.908 105.547 213.908 107.281C213.908 109.015 212.5 110.42 210.762 110.42Z" fill="#E1E4E5"/>
<path d="M198.476 37.4636C196.544 37.4636 194.978 35.901 194.978 33.9735C194.978 32.046 196.544 30.4834 198.476 30.4834C200.408 30.4834 201.974 32.046 201.974 33.9735C201.974 35.901 200.408 37.4636 198.476 37.4636Z" fill="#E1E4E5"/>
<path d="M117.415 36.3767C117.864 38.0486 116.869 39.7671 115.194 40.2151C113.518 40.6631 111.796 39.6709 111.347 37.999C110.898 36.3271 111.892 34.6085 113.568 34.1605C115.244 33.7125 116.966 34.7047 117.415 36.3767Z" fill="#E1E4E5"/>
<path d="M95.4692 41.9771C94.7473 41.9771 94.1621 41.3931 94.1621 40.6727C94.1621 39.9524 94.7473 39.3684 95.4692 39.3684C96.1911 39.3684 96.7764 39.9524 96.7764 40.6727C96.7764 41.3931 96.1911 41.9771 95.4692 41.9771Z" fill="#E1E4E5"/>
<path d="M95.366 91.2172C93.5909 91.2172 92.1519 90.0685 92.1519 88.6515C92.1519 87.2344 93.5909 86.0857 95.366 86.0857C97.1411 86.0857 98.5801 87.2344 98.5801 88.6515C98.5801 90.0685 97.1411 91.2172 95.366 91.2172Z" fill="#E1E4E5"/>
</g>
<defs>
<linearGradient id="paint0_linear_363_47" x1="146.106" y1="50.2729" x2="180.711" y2="22.8412" gradientUnits="userSpaceOnUse">
<stop stop-color="white"/>
<stop offset="1" stop-color="#EEEEEE"/>
</linearGradient>
<linearGradient id="paint1_linear_363_47" x1="50.3238" y1="127.495" x2="17.6711" y2="97.0908" gradientUnits="userSpaceOnUse">
<stop stop-color="white"/>
<stop offset="1" stop-color="#EEEEEE"/>
</linearGradient>
<clipPath id="clip0_363_47">
<rect width="233" height="155" fill="white"/>
</clipPath>
</defs>
</svg>
