<svg width="233" height="155" viewBox="0 0 233 155" fill="none" xmlns="http://www.w3.org/2000/svg">
<g clip-path="url(#clip0_363_29)">
<path d="M117.018 142.471C152.263 142.471 180.834 113.961 180.834 78.7917C180.834 43.6227 152.263 15.1125 117.018 15.1125C81.7736 15.1125 53.2021 43.6227 53.2021 78.7917C53.2021 113.961 81.7736 142.471 117.018 142.471Z" stroke="url(#paint0_linear_363_29)" stroke-width="3"/>
<path d="M189.73 45.9832C187.748 45.9832 186.141 47.5865 186.141 49.5642C186.141 51.542 187.748 53.1453 189.73 53.1453C191.712 53.1453 193.318 51.542 193.318 49.5642C193.318 47.5865 191.712 45.9832 189.73 45.9832Z" fill="#666AF6"/>
<path d="M54.3472 91.1917C52.4992 91.1917 51.0011 92.6866 51.0011 94.5307C51.0011 96.3747 52.4992 97.8696 54.3472 97.8696C56.1952 97.8696 57.6934 96.3747 57.6934 94.5307C57.6934 92.6866 56.1952 91.1917 54.3472 91.1917Z" fill="#666AF6"/>
<path d="M42.9743 53.3928C41.1162 53.3928 39.6098 51.8897 39.6098 50.0355C39.6098 48.1813 41.1162 46.6782 42.9743 46.6782C44.8325 46.6782 46.3389 48.1813 46.3389 50.0355C46.3389 51.8897 44.8325 53.3928 42.9743 53.3928Z" fill="#666AF6"/>
<path d="M191.336 80.3753C190.469 80.3753 189.766 79.6738 189.766 78.8085C189.766 77.9432 190.469 77.2417 191.336 77.2417C192.203 77.2417 192.906 77.9432 192.906 78.8085C192.906 79.6738 192.203 80.3753 191.336 80.3753Z" fill="#666AF6"/>
<path d="M163.306 125.704C162.191 125.704 161.288 124.802 161.288 123.69C161.288 122.577 162.191 121.675 163.306 121.675C164.421 121.675 165.325 122.577 165.325 123.69C165.325 124.802 164.421 125.704 163.306 125.704Z" fill="#E1E4E5"/>
<path d="M49.1427 116.179C47.5323 116.179 46.2269 114.877 46.2269 113.27C46.2269 111.663 47.5323 110.36 49.1427 110.36C50.7531 110.36 52.0586 111.663 52.0586 113.27C52.0586 114.877 50.7531 116.179 49.1427 116.179Z" fill="#E1E4E5"/>
<path d="M71.8599 35.6872C70.6343 35.6872 69.6407 34.6957 69.6407 33.4727C69.6407 32.2497 70.6343 31.2583 71.8599 31.2583C73.0855 31.2583 74.0791 32.2497 74.0791 33.4727C74.0791 34.6957 73.0855 35.6872 71.8599 35.6872Z" fill="#E1E4E5"/>
<path d="M76.5094 98.4404C75.1467 98.4404 74.0421 97.3382 74.0421 95.9785C74.0421 94.6188 75.1467 93.5166 76.5094 93.5166C77.872 93.5166 78.9766 94.6188 78.9766 95.9785C78.9766 97.3382 77.872 98.4404 76.5094 98.4404Z" fill="#E1E4E5"/>
<path d="M84.8194 123.069C85.1361 124.248 84.4347 125.46 83.2528 125.776C82.0708 126.092 80.8559 125.393 80.5393 124.213C80.2226 123.034 80.924 121.821 82.1059 121.505C83.2878 121.189 84.5027 121.889 84.8194 123.069Z" fill="#E1E4E5"/>
<path d="M146.372 35.5905C144.744 35.5905 143.424 34.2737 143.424 32.6494C143.424 31.025 144.744 29.7083 146.372 29.7083C148 29.7083 149.319 31.025 149.319 32.6494C149.319 34.2737 148 35.5905 146.372 35.5905Z" fill="#E1E4E5"/>
<path d="M154.721 16.1173C155.272 18.1703 154.051 20.2805 151.994 20.8306C149.937 21.3807 147.822 20.1623 147.271 18.1094C146.719 16.0564 147.94 13.9461 149.998 13.3961C152.055 12.846 154.17 14.0643 154.721 16.1173Z" fill="#E1E4E5"/>
<path d="M179.378 107.578H179.437C179.788 112.543 183.489 112.62 183.489 112.62C183.489 112.62 179.408 112.699 179.408 118.437C179.408 112.699 175.327 112.62 175.327 112.62C175.327 112.62 179.027 112.543 179.378 107.578Z" fill="#E1E4E5"/>
<path d="M116.5 16.2749V39.0082V137.95M105.109 76.3374H65.7578M167.242 87.8332H127.891" stroke="#666AF6" stroke-width="5" stroke-linecap="round" stroke-linejoin="round"/>
<path d="M104.101 73.6637C105.191 75.6683 105.641 77.9975 105.201 80.2305C103.39 89.421 95.2252 96.3583 85.4335 96.3583C75.6418 96.3583 67.4772 89.421 65.666 80.2305C65.2262 77.9975 65.6764 75.6683 66.7661 73.6637L85.4283 39.2666L104.101 73.6637ZM166.235 85.1861C167.324 87.1996 167.774 89.5396 167.334 91.7824C165.518 101.015 157.36 107.983 147.564 107.983C137.769 107.983 129.61 101.015 127.799 91.7824C127.36 89.5396 127.81 87.1996 128.899 85.1861L147.564 50.6333L166.235 85.1861Z" stroke="#666AF6" stroke-width="5" stroke-linecap="round" stroke-linejoin="round"/>
<path d="M85.433 39.179C105.523 35.4766 126.278 38.8562 144.146 48.7396L147.566 50.6335M161.287 138.854H71.7119" stroke="#666AF6" stroke-width="5" stroke-linecap="round" stroke-linejoin="round"/>
</g>
<defs>
<linearGradient id="paint0_linear_363_29" x1="119.756" y1="214.697" x2="115.814" y2="-124.663" gradientUnits="userSpaceOnUse">
<stop stop-color="white"/>
<stop offset="1" stop-color="#EEEEEE"/>
</linearGradient>
<clipPath id="clip0_363_29">
<rect width="233" height="155" fill="white"/>
</clipPath>
</defs>
</svg>
