<svg width="233" height="155" viewBox="0 0 233 155" fill="none" xmlns="http://www.w3.org/2000/svg">
<g clip-path="url(#clip0_363_3)">
<path fill-rule="evenodd" clip-rule="evenodd" d="M88.8286 114.098H68.8597C61.5044 114.098 55.5469 108.153 55.5469 100.813V27.7508C55.5469 20.4113 61.5044 14.4666 68.8597 14.4666H162.049C169.404 14.4666 175.361 20.4113 175.361 27.7508V100.813C175.361 108.153 169.404 114.098 162.049 114.098H142.08" fill="white"/>
<path d="M88.8286 114.098H68.8597C61.5044 114.098 55.5469 108.153 55.5469 100.814V27.7508C55.5469 20.4113 61.5044 14.4666 68.8597 14.4666H162.049C169.404 14.4666 175.361 20.4113 175.361 27.7508V100.814C175.361 108.153 169.404 114.098 162.049 114.098H142.08" stroke="#E1E4E5" stroke-width="2"/>
<path d="M115.455 140.666C130.159 140.666 142.08 128.771 142.08 114.098C142.08 99.4246 130.159 87.5295 115.455 87.5295C100.75 87.5295 88.8291 99.4246 88.8291 114.098C88.8291 128.771 100.75 140.666 115.455 140.666Z" fill="#666AF6"/>
<path d="M82.1719 55.7981H148.736M82.1719 39.0535H148.736M82.1719 72.6267H148.736" stroke="#E1E4E5" stroke-width="5" stroke-linecap="round" stroke-linejoin="round"/>
<path d="M115.454 123.464V104.733M106.069 114.098H124.84" stroke="white" stroke-width="5" stroke-linecap="round" stroke-linejoin="round"/>
<path fill-rule="evenodd" clip-rule="evenodd" d="M163.535 61.6168V63.1544H161.936C161.269 63.1544 160.721 63.682 160.721 64.3237C160.721 64.9654 161.269 65.4926 161.936 65.4926H163.535V67.0305C163.535 67.6722 164.084 68.1994 164.751 68.1994C165.418 68.1994 165.967 67.6722 165.967 67.0305V65.4991H167.572C168.24 65.4991 168.788 64.9718 168.788 64.3299C168.788 63.6882 168.24 63.1609 167.572 63.1609H165.973V61.6168C165.973 60.9751 165.425 60.4476 164.751 60.4476C164.084 60.4476 163.535 60.9751 163.535 61.6168ZM158.157 93.8168V95.3544H156.558C155.891 95.3544 155.343 95.8819 155.343 96.5236C155.343 97.1653 155.891 97.6926 156.558 97.6926H158.157V99.2304C158.157 99.8721 158.706 100.399 159.373 100.399C160.04 100.399 160.589 99.8721 160.589 99.2304V97.699H162.194C162.861 97.699 163.41 97.1718 163.41 96.5298C163.41 95.8881 162.861 95.3609 162.194 95.3609H160.595V93.8168C160.595 93.1751 160.047 92.6476 159.373 92.6476C158.706 92.6476 158.157 93.1751 158.157 93.8168ZM73.0022 93.8168V95.3544H71.4033C70.7359 95.3544 70.1875 95.8819 70.1875 96.5236C70.1875 97.1653 70.7359 97.6926 71.4033 97.6926H73.0022V99.2304C73.0022 99.8721 73.5505 100.399 74.2179 100.399C74.8853 100.399 75.4337 99.8721 75.4337 99.2304V97.699H77.0393C77.7064 97.699 78.2548 97.1718 78.2548 96.5298C78.2548 95.8881 77.7064 95.3609 77.0393 95.3609H75.4401V93.8168C75.4401 93.1751 74.8918 92.6476 74.2179 92.6476C73.5505 92.6476 73.0022 93.1751 73.0022 93.8168ZM64.9349 69.3687V70.9063H63.336C62.6686 70.9063 62.1203 71.4338 62.1203 72.0755C62.1203 72.7172 62.6686 73.2447 63.336 73.2447H64.9349V74.7823C64.9349 75.424 65.4833 75.9512 66.1507 75.9512C66.8178 75.9512 67.3664 75.424 67.3664 74.7823V73.2509H68.9718C69.6392 73.2509 70.1875 72.7236 70.1875 72.0817C70.1875 71.44 69.6392 70.9127 68.9718 70.9127H67.3729V69.3687C67.3729 68.727 66.8246 68.1994 66.1507 68.1994C65.4833 68.1994 64.9349 68.727 64.9349 69.3687ZM43.3941 87.584V88.7669H42.1507C41.6316 88.7669 41.2049 89.1725 41.2049 89.6662C41.2049 90.1598 41.6316 90.5654 42.1507 90.5654H43.3941V91.7483C43.3941 92.242 43.8207 92.6476 44.3398 92.6476C44.8589 92.6476 45.2853 92.242 45.2853 91.7483V90.5703H46.5342C47.053 90.5703 47.4796 90.1647 47.4796 89.6711C47.4796 89.1774 47.053 88.7718 46.5342 88.7718H45.2905V87.584C45.2905 87.0903 44.8638 86.6847 44.3398 86.6847C43.8207 86.6847 43.3941 87.0903 43.3941 87.584ZM35.9523 58.3373V59.8749H34.3534C33.686 59.8749 33.1377 60.4022 33.1377 61.0439C33.1377 61.6858 33.686 62.2131 34.3534 62.2131H35.9523V63.7507C35.9523 64.3926 36.5007 64.9199 37.1681 64.9199C37.8355 64.9199 38.3838 64.3926 38.3838 63.7507V62.2195H39.9892C40.6566 62.2195 41.2049 61.692 41.2049 61.0503C41.2049 60.4086 40.6566 59.8811 39.9892 59.8811H38.3903V58.3373C38.3903 57.6953 37.842 57.1681 37.1681 57.1681C36.5007 57.1681 35.9523 57.6953 35.9523 58.3373ZM187.077 87.2743V89.2257H185.004C184.14 89.2257 183.429 89.8953 183.429 90.7098C183.429 91.5244 184.14 92.1937 185.004 92.1937H187.077V94.1451C187.077 94.9597 187.788 95.6293 188.653 95.6293C189.518 95.6293 190.229 94.9597 190.229 94.1451V92.2017H192.31C193.176 92.2017 193.886 91.5324 193.886 90.7178C193.886 89.9033 193.176 89.234 192.31 89.234H190.238V87.2743C190.238 86.4597 189.527 85.7904 188.653 85.7904C187.788 85.7904 187.077 86.4597 187.077 87.2743ZM192.47 54.1063V56.3538H190.219C189.28 56.3538 188.508 57.1244 188.508 58.0624C188.508 59.0004 189.28 59.7713 190.219 59.7713H192.47V62.0186C192.47 62.9566 193.241 63.7272 194.181 63.7272C195.12 63.7272 195.892 62.9566 195.892 62.0186V59.7806H198.151C199.09 59.7806 199.862 59.0097 199.862 58.0717C199.862 57.1337 199.09 56.3631 198.151 56.3631H195.901V54.1063C195.901 53.1686 195.129 52.3977 194.181 52.3977C193.241 52.3977 192.47 53.1686 192.47 54.1063Z" fill="#E1E4E5"/>
</g>
<defs>
<clipPath id="clip0_363_3">
<rect width="233" height="155" fill="white"/>
</clipPath>
</defs>
</svg>
