<svg width="128" height="97" viewBox="0 0 128 97" fill="none" xmlns="http://www.w3.org/2000/svg">
<path fill-rule="evenodd" clip-rule="evenodd" d="M121.288 95.1437H6.91174C4.18012 95.1437 1.95605 92.9235 1.95605 90.1964V5.71887C1.95605 2.99188 4.18012 0.771729 6.91174 0.771729H121.295C124.027 0.771729 126.251 2.99188 126.251 5.71887V90.1929C126.244 92.9199 124.02 95.1437 121.288 95.1437Z" fill="#EDF4FC"/>
<path fill-rule="evenodd" clip-rule="evenodd" d="M121.985 96.8522H5.06588C2.27352 96.8522 0 94.5788 0 91.7863V5.28363C0 2.49127 2.27352 0.217896 5.06588 0.217896H121.993C124.785 0.217896 127.059 2.49127 127.059 5.28363V91.7828C127.051 94.5751 124.778 96.8522 121.985 96.8522ZM5.06588 3.12718C3.87801 3.12718 2.90943 4.09576 2.90943 5.28363V91.7828C2.90943 92.9706 3.87801 93.9392 5.06588 93.9392H121.989C123.177 93.9392 124.149 92.9669 124.153 91.7791V5.28363C124.153 4.09576 123.184 3.12718 121.996 3.12718H5.06588Z" fill="#3B4F68"/>
<path fill-rule="evenodd" clip-rule="evenodd" d="M36.5574 51.5082C26.9886 51.5082 19.1997 43.7231 19.1997 34.1507C19.1997 24.5819 26.9886 16.7932 36.5574 16.7932C46.1297 16.7932 53.9149 24.5819 53.9149 34.1507C53.9149 43.7195 46.1297 51.5082 36.5574 51.5082ZM36.5574 19.7025C28.593 19.7025 22.1091 26.1828 22.1091 34.1507C22.1091 42.1149 28.5895 48.5952 36.5536 48.5952C44.5178 48.5952 50.9982 42.1149 50.9982 34.1507C51.0054 26.1828 44.5215 19.7025 36.5574 19.7025Z" fill="#1CC2C4"/>
<path fill-rule="evenodd" clip-rule="evenodd" d="M36.5572 58.1933C23.3004 58.1933 12.5146 47.4074 12.5146 34.1507C12.5146 20.8941 23.3004 10.1082 36.5572 10.1082C49.8139 10.1082 60.6034 20.8941 60.6034 34.1507C60.5997 47.4074 49.8139 58.1969 36.5572 58.1933ZM36.5572 13.0176C24.9014 13.0176 15.4239 22.4986 15.4239 34.1507C15.4239 45.8029 24.9014 55.2839 36.5572 55.2839C48.2129 55.2839 57.6904 45.8029 57.6904 34.1507C57.6904 22.4986 48.2129 13.0176 36.5572 13.0176Z" fill="#3B4F68"/>
<path fill-rule="evenodd" clip-rule="evenodd" d="M52.457 35.6054H36.5577C35.7536 35.6054 35.103 34.9548 35.103 34.1507V18.2515C35.103 17.4474 35.7536 16.7968 36.5577 16.7968C37.3618 16.7968 38.0123 17.4474 38.0123 18.2515V32.696H52.457C53.2611 32.696 53.9115 33.3466 53.9115 34.1507C53.9115 34.9548 53.2611 35.6054 52.457 35.6054Z" fill="#1CC2C4"/>
<path fill-rule="evenodd" clip-rule="evenodd" d="M25.3102 46.8482C24.9375 46.8482 24.5647 46.7057 24.2796 46.4205C23.7167 45.854 23.7167 44.933 24.2833 44.3628L35.5259 33.1201C36.0925 32.5536 37.0136 32.5536 37.5837 33.1201C38.1503 33.6866 38.1467 34.6076 37.5802 35.1779L26.3373 46.4205C26.0595 46.7057 25.6832 46.8482 25.3102 46.8482Z" fill="#1CC2C4"/>
<path fill-rule="evenodd" clip-rule="evenodd" d="M67.0182 86.9618C66.2141 86.9618 65.5635 86.3114 65.5635 85.5073V75.1161H60.6878V85.5073C60.6878 86.3114 60.0334 86.9618 59.233 86.9618C58.4289 86.9618 57.7783 86.3114 57.7783 85.5073V74.4144C57.7783 73.1972 58.7689 72.2067 59.9823 72.2067H66.2652C67.4823 72.2067 68.4692 73.1972 68.4692 74.4144V85.5073C68.4729 86.3114 67.8186 86.9618 67.0182 86.9618Z" fill="#3B4F68"/>
<path fill-rule="evenodd" clip-rule="evenodd" d="M81.0604 86.9617C80.2563 86.9617 79.6056 86.3112 79.6056 85.5071V67.2467H74.7337V85.5071C74.7337 86.3112 74.0793 86.9617 73.2789 86.9617C72.4748 86.9617 71.8242 86.3112 71.8242 85.5071V66.545C71.8242 65.3278 72.8111 64.3373 74.0282 64.3373H80.3111C81.5282 64.3373 82.5188 65.3278 82.5188 66.545V85.5071C82.5188 86.3112 81.8645 86.9617 81.0604 86.9617Z" fill="#3B4F68"/>
<path fill-rule="evenodd" clip-rule="evenodd" d="M95.103 86.9617C94.2989 86.9617 93.6484 86.3112 93.6484 85.5071V71.143H88.7726V85.5071C88.7726 86.3112 88.122 86.9617 87.3179 86.9617C86.5175 86.9617 85.8633 86.3112 85.8633 85.5071V70.4376C85.8633 69.2204 86.8537 68.2299 88.0708 68.2299H94.3537C95.5709 68.2299 96.5577 69.2204 96.5577 70.4376V85.5071C96.5614 86.3112 95.9071 86.9617 95.103 86.9617Z" fill="#3B4F68"/>
<path fill-rule="evenodd" clip-rule="evenodd" d="M109.149 86.9618C108.345 86.9618 107.695 86.3113 107.695 85.5072V63.2738H102.823V85.5072C102.823 86.3113 102.172 86.9618 101.372 86.9618C100.564 86.9618 99.917 86.3113 99.917 85.5072V62.5684C99.917 61.3513 100.904 60.3608 102.125 60.3608H108.407C109.625 60.3608 110.611 61.3513 110.611 62.5684V85.5035C110.604 86.3113 109.957 86.9618 109.149 86.9618Z" fill="#3B4F68"/>
<path fill-rule="evenodd" clip-rule="evenodd" d="M113.082 86.9617H55.2965C54.4924 86.9617 53.8418 86.3112 53.8418 85.5071C53.8418 84.703 54.4924 84.0524 55.2965 84.0524H113.082C113.886 84.0524 114.537 84.703 114.537 85.5071C114.537 86.3112 113.882 86.9617 113.082 86.9617Z" fill="#3B4F68"/>
<path fill-rule="evenodd" clip-rule="evenodd" d="M13.9659 76.7205C13.5822 76.7205 13.2094 76.567 12.9388 76.2929C12.6684 76.0225 12.5112 75.646 12.5112 75.2658C12.5112 75.1708 12.5222 75.0757 12.5442 74.9844C12.5625 74.893 12.5916 74.8016 12.6282 74.7102C12.6611 74.6226 12.7087 74.5385 12.7598 74.4581C12.8109 74.3777 12.8732 74.3046 12.9388 74.2351C13.2094 73.9647 13.5859 73.8075 13.9659 73.8075C14.3534 73.8075 14.7225 73.9647 14.9966 74.2351C15.0624 74.3046 15.1246 74.3777 15.1758 74.4581C15.2306 74.5348 15.2745 74.6189 15.3073 74.7102C15.3439 74.7981 15.3731 74.8894 15.3914 74.9844C15.4134 75.0757 15.4207 75.1744 15.4207 75.2658C15.4207 75.3609 15.4134 75.4595 15.3914 75.5509C15.3731 75.6423 15.3439 75.7336 15.3073 75.825C15.2745 75.9128 15.2269 75.9968 15.1758 76.0773C15.1246 76.1577 15.0624 76.2308 14.9966 76.2966C14.7225 76.5707 14.3497 76.7205 13.9659 76.7205Z" fill="#D81E5B"/>
<path fill-rule="evenodd" clip-rule="evenodd" d="M40.8075 76.7206H19.8864C19.0823 76.7206 18.4316 76.07 18.4316 75.2659C18.4316 74.4618 19.0823 73.8113 19.8864 73.8113H40.8112C41.6153 73.8113 42.2659 74.4618 42.2659 75.2659C42.2622 76.07 41.6116 76.7206 40.8075 76.7206Z" fill="#E8789D"/>
<path fill-rule="evenodd" clip-rule="evenodd" d="M13.9656 86.9616C13.8742 86.9616 13.7756 86.9543 13.6842 86.9287C13.5928 86.9104 13.5015 86.8812 13.4101 86.8483C13.3223 86.8118 13.2383 86.7642 13.1578 86.7167C13.0774 86.6656 13.0007 86.6035 12.9349 86.534C12.8691 86.4681 12.807 86.3915 12.7557 86.3147C12.7046 86.2343 12.6571 86.1502 12.6243 86.0625C12.5877 85.9747 12.5584 85.8833 12.5402 85.7884C12.5182 85.6933 12.5073 85.5984 12.5073 85.507C12.5073 85.4119 12.5182 85.3132 12.5402 85.2219C12.5584 85.1268 12.5877 85.0391 12.6243 84.9477C12.6571 84.8599 12.7046 84.776 12.7557 84.6955C12.807 84.6151 12.8691 84.542 12.9349 84.4726C13.0043 84.4068 13.0774 84.3447 13.1578 84.2934C13.2346 84.2423 13.3187 84.1948 13.4101 84.1619C13.4977 84.1289 13.5891 84.0961 13.6842 84.0778C13.8705 84.0413 14.0643 84.0413 14.2507 84.0778C14.3457 84.0961 14.4335 84.1254 14.5249 84.1619C14.6125 84.1948 14.6966 84.2423 14.777 84.2934C14.8574 84.3447 14.9305 84.4068 15 84.4726C15.0658 84.542 15.1279 84.6151 15.179 84.6955C15.2339 84.7723 15.2777 84.8599 15.3107 84.9477C15.3472 85.0354 15.3765 85.1268 15.3948 85.2219C15.4166 85.3132 15.4239 85.4119 15.4239 85.507C15.4239 85.5984 15.4166 85.697 15.3948 85.7884C15.3765 85.8798 15.3472 85.9711 15.3107 86.0625C15.2777 86.1502 15.2303 86.2343 15.179 86.3147C15.1279 86.3915 15.0658 86.4718 15 86.534C14.9342 86.6035 14.8574 86.6619 14.777 86.7167C14.7003 86.7642 14.6125 86.8118 14.5249 86.8483C14.437 86.8812 14.3457 86.9104 14.2507 86.9287C14.1594 86.9507 14.0607 86.9616 13.9656 86.9616Z" fill="#F9A03F"/>
<path fill-rule="evenodd" clip-rule="evenodd" d="M40.8075 86.9617H19.8864C19.0823 86.9617 18.4316 86.3112 18.4316 85.5071C18.4316 84.703 19.0823 84.0524 19.8864 84.0524H40.8112C41.6153 84.0524 42.2659 84.703 42.2659 85.5071C42.2622 86.3112 41.6116 86.9617 40.8075 86.9617Z" fill="#FDD9B2"/>
<path fill-rule="evenodd" clip-rule="evenodd" d="M86.2434 15.1266C86.1484 15.1266 86.0497 15.1193 85.9583 15.0973C85.8669 15.079 85.7756 15.0498 85.6842 15.0132C85.6001 14.9804 85.5124 14.9328 85.4321 14.8817C85.3517 14.8305 85.2749 14.7684 85.209 14.7025C84.9386 14.4284 84.7852 14.0556 84.7852 13.6719C84.7852 13.5805 84.7924 13.4818 84.8143 13.3905C84.8326 13.2954 84.8618 13.2077 84.8984 13.1163C84.9314 13.0287 84.9788 12.9446 85.03 12.8642C85.0848 12.7837 85.1432 12.7106 85.209 12.6412C85.2786 12.5718 85.3517 12.5133 85.4321 12.4584C85.5087 12.4073 85.5965 12.3633 85.6842 12.3268C85.772 12.294 85.8634 12.2647 85.9583 12.2464C86.4299 12.1515 86.9306 12.305 87.2706 12.6449C87.3362 12.7143 87.3985 12.7874 87.4496 12.8678C87.5044 12.9446 87.5482 13.0287 87.5812 13.12C87.6213 13.2077 87.6469 13.2991 87.6652 13.3942C87.6872 13.4855 87.6982 13.5842 87.6982 13.6756C87.6982 13.7705 87.6872 13.8693 87.6652 13.9607C87.6469 14.0521 87.6178 14.1434 87.5812 14.2348C87.5482 14.3225 87.5007 14.4066 87.4496 14.487C87.3985 14.5673 87.3362 14.6404 87.2706 14.71C87.2047 14.7756 87.1279 14.8379 87.0475 14.889C86.9707 14.9401 86.8868 14.9877 86.7954 15.0206C86.7076 15.0572 86.6162 15.0863 86.5213 15.1046C86.4335 15.1229 86.3348 15.1266 86.2434 15.1266Z" fill="#F9A03F"/>
<path fill-rule="evenodd" clip-rule="evenodd" d="M113.085 15.1304H92.1606C91.3565 15.1304 90.7061 14.4798 90.7061 13.6757C90.7061 12.8716 91.3565 12.2209 92.1606 12.2209H113.085C113.893 12.2209 114.54 12.8716 114.54 13.6757C114.54 14.4798 113.89 15.1304 113.085 15.1304Z" fill="#FDD9B2"/>
<path fill-rule="evenodd" clip-rule="evenodd" d="M86.2434 25.3679C86.1484 25.3679 86.0497 25.3606 85.9583 25.3386C85.8669 25.3203 85.7756 25.2912 85.6842 25.2582C85.6001 25.2217 85.5124 25.1741 85.4321 25.1267C85.3517 25.0719 85.2749 25.0133 85.209 24.944C85.1432 24.8781 85.0811 24.8013 85.03 24.7247C84.9788 24.6441 84.9314 24.5602 84.8984 24.4724C84.8618 24.3847 84.8326 24.2933 84.8143 24.1983C84.7924 24.1069 84.7852 24.0082 84.7852 23.9168C84.7852 23.5331 84.9386 23.1603 85.209 22.8897C85.2786 22.8204 85.3517 22.7618 85.4321 22.707C85.5087 22.6559 85.5965 22.6083 85.6842 22.5755C85.772 22.5425 85.8634 22.5134 85.9583 22.4914C86.1448 22.4549 86.3385 22.4549 86.5248 22.4914C86.6162 22.5134 86.7076 22.5389 86.799 22.5755C86.8903 22.612 86.9707 22.6559 87.0513 22.707C87.1316 22.7582 87.2083 22.8204 87.2741 22.8897C87.3399 22.9556 87.402 23.0287 87.4533 23.109C87.5081 23.1859 87.552 23.2735 87.5848 23.3613C87.6251 23.449 87.6506 23.5404 87.6689 23.6354C87.6909 23.7268 87.7017 23.8255 87.7017 23.9206C87.7017 24.0119 87.6909 24.1106 87.6689 24.202C87.6506 24.2933 87.6213 24.3847 87.5848 24.4761C87.552 24.5638 87.5044 24.6478 87.4533 24.7282C87.402 24.805 87.3399 24.8817 87.2741 24.9475C87 25.2107 86.6235 25.3679 86.2434 25.3679Z" fill="#D81E5B"/>
<path fill-rule="evenodd" clip-rule="evenodd" d="M113.085 25.3679H92.1606C91.3565 25.3679 90.7061 24.7173 90.7061 23.9132C90.7061 23.1091 91.3565 22.4586 92.1606 22.4586H113.085C113.893 22.4586 114.54 23.1091 114.54 23.9132C114.54 24.7137 113.89 25.3679 113.085 25.3679Z" fill="#E8789D"/>
<path fill-rule="evenodd" clip-rule="evenodd" d="M86.2434 35.6056C86.1484 35.6056 86.0497 35.5983 85.9583 35.5763C85.8669 35.558 85.7756 35.5288 85.6842 35.4922C85.6001 35.4594 85.5124 35.4118 85.4321 35.3607C85.3517 35.3095 85.2749 35.2474 85.209 35.178C84.9386 34.9074 84.7852 34.5309 84.7852 34.1509C84.7852 33.7708 84.9386 33.3943 85.209 33.1238C85.2786 33.0581 85.3517 32.9958 85.4321 32.941C85.5087 32.8899 85.5965 32.8461 85.6842 32.8095C85.772 32.7765 85.8634 32.7474 85.9583 32.7254C86.4299 32.6341 86.9306 32.7875 87.2706 33.1275C87.3362 33.1969 87.3985 33.27 87.4496 33.3505C87.5044 33.4272 87.5482 33.5113 87.5812 33.6026C87.6213 33.6903 87.6469 33.7817 87.6652 33.8768C87.6872 33.9681 87.6982 34.0668 87.6982 34.1582C87.6982 34.2532 87.6872 34.3519 87.6652 34.4433C87.6469 34.5347 87.6178 34.626 87.5812 34.7174C87.5482 34.8051 87.5007 34.8892 87.4496 34.9695C87.3985 35.0464 87.3362 35.1232 87.2706 35.1888C87 35.4521 86.6235 35.6056 86.2434 35.6056Z" fill="#F9A03F"/>
<path fill-rule="evenodd" clip-rule="evenodd" d="M113.085 35.6054H92.1606C91.3565 35.6054 90.7061 34.9547 90.7061 34.1506C90.7061 33.3465 91.3565 32.6959 92.1606 32.6959H113.085C113.893 32.6959 114.54 33.3465 114.54 34.1506C114.54 34.9547 113.89 35.6054 113.085 35.6054Z" fill="#FDD9B2"/>
<path fill-rule="evenodd" clip-rule="evenodd" d="M63.1253 67.2466C62.7526 67.2466 62.3798 67.1041 62.0982 66.819C61.5317 66.2525 61.5317 65.3314 62.0982 64.7612L75.9909 50.8649C76.4698 50.3861 77.2081 50.302 77.7856 50.6529L91.0788 58.8729L104.313 47.6303C104.927 47.1076 105.841 47.188 106.364 47.7983C106.887 48.4124 106.81 49.3261 106.196 49.8488L92.1497 61.7824C91.6671 62.1917 90.9801 62.243 90.4427 61.9103L77.2336 53.7414L64.1487 66.8226C63.8709 67.1041 63.4946 67.2466 63.1253 67.2466Z" fill="#1CC2C4"/>
</svg>
