<svg width="39" height="37" viewBox="0 0 39 37" fill="none" xmlns="http://www.w3.org/2000/svg">
<circle cx="19.5293" cy="18.7501" r="18" fill="#C71C55"/>
<g clip-path="url(#clip0_3491_7447)">
<path d="M9.50817 25.5805L7.76953 24.3216L13.1192 15.7501L16.329 19.5001L20.6087 12.5358L23.5243 16.9019C23.1141 16.9198 22.7263 16.9689 22.3607 17.0492C21.9951 17.1296 21.634 17.2412 21.2774 17.3841L20.6889 16.5001L16.6232 23.1162L13.3867 19.3394L9.50817 25.5805ZM29.7833 30.7501L26.4398 27.4019C26.0832 27.6519 25.6864 27.8394 25.2495 27.9644C24.8126 28.0894 24.3624 28.1519 23.8987 28.1519C22.5613 28.1519 21.4245 27.6832 20.4883 26.7457C19.5521 25.8082 19.084 24.6698 19.084 23.3305C19.084 21.9912 19.5521 20.8528 20.4883 19.9153C21.4245 18.9778 22.5613 18.5091 23.8987 18.5091C25.2361 18.5091 26.3729 18.9778 27.3091 19.9153C28.2453 20.8528 28.7134 21.9912 28.7134 23.3305C28.7134 23.7948 28.651 24.2457 28.5262 24.6832C28.4013 25.1207 28.2141 25.5269 27.9645 25.9019L31.308 29.2233L29.7833 30.7501ZM23.8987 26.0091C24.6477 26.0091 25.2807 25.7501 25.7979 25.2323C26.315 24.7144 26.5736 24.0805 26.5736 23.3305C26.5736 22.5805 26.315 21.9466 25.7979 21.4287C25.2807 20.9108 24.6477 20.6519 23.8987 20.6519C23.1498 20.6519 22.5167 20.9108 21.9996 21.4287C21.4825 21.9466 21.2239 22.5805 21.2239 23.3305C21.2239 24.0805 21.4825 24.7144 21.9996 25.2323C22.5167 25.7501 23.1498 26.0091 23.8987 26.0091ZM26.2793 17.4376C25.9405 17.2948 25.5883 17.1787 25.2228 17.0894C24.8572 17.0001 24.4783 16.9466 24.086 16.9287L29.5694 8.25012L31.308 9.50905L26.2793 17.4376Z" fill="#EDFCFC"/>
</g>
<defs>
<clipPath id="clip0_3491_7447">
<rect width="25.5" height="22.5" fill="white" transform="translate(6.75 8.25012)"/>
</clipPath>
</defs>
</svg>
