<svg width="233" height="155" viewBox="0 0 233 155" fill="none" xmlns="http://www.w3.org/2000/svg">
<g clip-path="url(#clip0_363_126)">
<path d="M125.069 140.576C159.927 140.576 188.185 112.379 188.185 77.5952C188.185 42.8116 159.927 14.614 125.069 14.614C90.2104 14.614 61.9521 42.8116 61.9521 77.5952C61.9521 112.379 90.2104 140.576 125.069 140.576Z" fill="url(#paint0_linear_363_126)"/>
<path fill-rule="evenodd" clip-rule="evenodd" d="M115.836 37.4325L95.4624 25.6829C94.125 24.9114 92.6484 24.4104 91.1169 24.2084C89.5854 24.0064 88.029 24.1074 86.5367 24.5057L45.7935 35.3994C39.5162 37.0778 35.7955 43.5152 37.479 49.7847L58.8084 129.216C60.4919 135.486 66.9398 139.204 73.2171 137.526L130.026 122.337C136.303 120.658 140.024 114.221 138.34 107.952L121.319 44.565C120.511 41.5566 118.539 38.9913 115.836 37.4325Z" fill="white" stroke="#E1E4E5" stroke-width="3.68"/>
<path d="M114.746 92.134L71.6321 103.661C70.0447 104.086 69.1026 105.714 69.528 107.298C69.9533 108.882 71.585 109.822 73.1724 109.398L116.286 97.8702C117.873 97.4457 118.816 95.8176 118.39 94.2336C117.965 92.6495 116.333 91.7095 114.746 92.134Z" fill="#E1E4E5"/>
<path d="M111.688 80.7453L68.5745 92.2728C66.9871 92.6972 66.045 94.3254 66.4704 95.9094C66.8957 97.4934 68.5274 98.4334 70.1148 98.009L113.228 86.4815C114.816 86.0571 115.758 84.4289 115.333 82.8449C114.907 81.2609 113.276 80.3208 111.688 80.7453Z" fill="#E1E4E5"/>
<path d="M108.623 69.329L65.509 80.8565C63.9216 81.2809 62.9796 82.9091 63.4049 84.4931C63.8303 86.0771 65.4619 87.0171 67.0494 86.5927L110.163 75.0652C111.75 74.6408 112.692 73.0126 112.267 71.4286C111.842 69.8446 110.21 68.9046 108.623 69.329Z" fill="#E1E4E5"/>
<path d="M105.556 57.9128L62.4426 69.4402C60.8552 69.8647 59.9132 71.4928 60.3385 73.0768C60.7639 74.6609 62.3955 75.6009 63.983 75.1764L107.097 63.649C108.684 63.2245 109.626 61.5964 109.201 60.0124C108.775 58.4283 107.144 57.4883 105.556 57.9128Z" fill="#E1E4E5"/>
<path d="M102.492 46.4963L59.3782 58.0237C57.7908 58.4482 56.8487 60.0763 57.2741 61.6603C57.6994 63.2444 59.3311 64.1844 60.9185 63.7599L104.032 52.2325C105.62 51.808 106.562 50.1799 106.136 48.5959C105.711 47.0118 104.079 46.0718 102.492 46.4963Z" fill="#E1E4E5"/>
<path d="M117.827 103.606L74.7131 115.134C73.1257 115.558 72.1837 117.186 72.609 118.77C73.0344 120.354 74.666 121.294 76.2535 120.87L119.367 109.342C120.955 108.918 121.897 107.29 121.471 105.706C121.046 104.122 119.414 103.182 117.827 103.606Z" fill="#E1E4E5"/>
<path fill-rule="evenodd" clip-rule="evenodd" d="M181.098 41.9765L164.466 25.3654C163.374 24.2748 162.078 23.4095 160.651 22.8189C159.224 22.2283 157.695 21.924 156.15 21.9233H113.97C107.471 21.9233 102.207 27.1802 102.207 33.6708V115.904C102.207 122.395 107.471 127.652 113.97 127.652H172.782C179.281 127.652 184.545 122.395 184.545 115.904V50.2821C184.544 47.1673 183.304 44.1802 181.098 41.9765Z" fill="white" stroke="#E1E4E5" stroke-width="3.68"/>
<path d="M165.856 94.5325H121.222C119.578 94.5325 118.246 95.8619 118.246 97.5018C118.246 99.1416 119.578 100.471 121.222 100.471H165.856C167.5 100.471 168.832 99.1416 168.832 97.5018C168.832 95.8619 167.5 94.5325 165.856 94.5325Z" fill="#E1E4E5"/>
<path d="M165.856 82.7422H121.222C119.578 82.7422 118.246 84.0716 118.246 85.7115C118.246 87.3514 119.578 88.6808 121.222 88.6808H165.856C167.5 88.6808 168.832 87.3514 168.832 85.7115C168.832 84.0716 167.5 82.7422 165.856 82.7422Z" fill="#E1E4E5"/>
<path d="M165.856 70.9231H121.222C119.578 70.9231 118.246 72.2525 118.246 73.8924C118.246 75.5323 119.578 76.8617 121.222 76.8617H165.856C167.5 76.8617 168.832 75.5323 168.832 73.8924C168.832 72.2525 167.5 70.9231 165.856 70.9231Z" fill="#E1E4E5"/>
<path d="M165.856 59.104H121.222C119.578 59.104 118.246 60.4334 118.246 62.0733C118.246 63.7132 119.578 65.0426 121.222 65.0426H165.856C167.5 65.0426 168.832 63.7132 168.832 62.0733C168.832 60.4334 167.5 59.104 165.856 59.104Z" fill="#E1E4E5"/>
<path d="M165.856 47.2852H121.222C119.578 47.2852 118.246 48.6146 118.246 50.2544C118.246 51.8943 119.578 53.2237 121.222 53.2237H165.856C167.5 53.2237 168.832 51.8943 168.832 50.2544C168.832 48.6146 167.5 47.2852 165.856 47.2852Z" fill="#E1E4E5"/>
<path d="M165.856 106.409H121.222C119.578 106.409 118.246 107.739 118.246 109.379C118.246 111.019 119.578 112.348 121.222 112.348H165.856C167.5 112.348 168.832 111.019 168.832 109.379C168.832 107.739 167.5 106.409 165.856 106.409Z" fill="#E1E4E5"/>
<path d="M198.381 138.558L181.101 120.444" stroke="#666AF6" stroke-width="8" stroke-linecap="round" stroke-linejoin="round"/>
<path d="M166.643 134.032C184.133 134.032 198.312 119.883 198.312 102.43C198.312 84.9773 184.133 70.8289 166.643 70.8289C149.152 70.8289 134.974 84.9773 134.974 102.43C134.974 119.883 149.152 134.032 166.643 134.032Z" fill="white" stroke="#666AF6" stroke-width="6" stroke-linecap="round" stroke-linejoin="round"/>
</g>
<defs>
<linearGradient id="paint0_linear_363_126" x1="127.76" y1="211.198" x2="123.885" y2="-122.412" gradientUnits="userSpaceOnUse">
<stop stop-color="white"/>
<stop offset="1" stop-color="#EEEEEE"/>
</linearGradient>
<clipPath id="clip0_363_126">
<rect width="233" height="155" fill="white"/>
</clipPath>
</defs>
</svg>
