<svg width="37" height="37" viewBox="0 0 37 37" fill="none" xmlns="http://www.w3.org/2000/svg">
<circle cx="18.4805" cy="18.1251" r="18" fill="#9CCAFF"/>
<path d="M17.0542 25.8014C15.8575 25.7065 14.8821 25.5325 14.128 25.2794C13.3903 25.0104 12.8411 24.789 12.4805 24.615L13.5378 21.8861C14.1116 22.1551 14.7919 22.4003 15.5788 22.6217C16.3821 22.8432 17.2264 22.9539 18.1116 22.9539C19.1116 22.9539 19.7919 22.8274 20.1526 22.5743C20.5296 22.3053 20.7182 21.9336 20.7182 21.459C20.7182 21.1585 20.6444 20.9053 20.4969 20.6997C20.3493 20.4782 20.1362 20.2805 19.8575 20.1065C19.5788 19.9325 19.2264 19.7664 18.8001 19.6082C18.3739 19.4342 17.8821 19.2522 17.3247 19.0624C16.7837 18.8726 16.251 18.6669 15.7264 18.4455C15.2182 18.2082 14.751 17.9234 14.3247 17.5912C13.9149 17.259 13.5788 16.8556 13.3165 16.3811C13.0706 15.8907 12.9477 15.3053 12.9477 14.6251C12.9477 14.1031 13.0215 13.6048 13.169 13.1302C13.3329 12.6398 13.5788 12.1969 13.9067 11.8014C14.2346 11.4059 14.6608 11.0737 15.1854 10.8048C15.71 10.52 16.3329 10.3144 17.0542 10.1878V7.62512H20.1526V10.0929C21.0051 10.172 21.7346 10.2907 22.3411 10.4489C22.9641 10.607 23.4559 10.7652 23.8165 10.9234L23.0542 13.7709C22.5133 13.5494 21.8821 13.3596 21.1608 13.2014C20.4559 13.0432 19.71 12.9641 18.9231 12.9641C18.1362 12.9641 17.5706 13.0907 17.2264 13.3438C16.8821 13.5969 16.71 13.9291 16.71 14.3404C16.71 14.5935 16.7592 14.815 16.8575 15.0048C16.9723 15.1788 17.1444 15.337 17.3739 15.4794C17.6034 15.6217 17.8821 15.7641 18.21 15.9065C18.5542 16.033 18.9641 16.1754 19.4395 16.3336C20.1608 16.5867 20.8247 16.8635 21.4313 17.1641C22.0542 17.4647 22.587 17.8127 23.0296 18.2082C23.4887 18.5878 23.8411 19.0387 24.087 19.5607C24.3493 20.0827 24.4805 20.6918 24.4805 21.3878C24.4805 21.8624 24.4067 22.337 24.2592 22.8116C24.1116 23.2703 23.8657 23.6974 23.5215 24.0929C23.1772 24.4884 22.7264 24.8285 22.169 25.1133C21.628 25.398 20.9559 25.6037 20.1526 25.7302V28.6251H17.0542V25.8014Z" fill="white"/>
</svg>
