<svg width="137" height="120" viewBox="0 0 137 120" fill="none" xmlns="http://www.w3.org/2000/svg">
<g clip-path="url(#clip0_13366_19057)">
<path fill-rule="evenodd" clip-rule="evenodd" d="M19.5703 62.7909L61.1596 31.3955H68.1494L108.69 63.1397L63.606 93.1397L19.5703 62.7909Z" fill="#FCFCFC"/>
<path fill-rule="evenodd" clip-rule="evenodd" d="M96.3236 30.5398C95.4737 31.1708 94.6272 31.8249 93.7843 32.502C93.1523 35.0486 92.3877 37.5558 91.4908 40.0238C91.3809 40.1468 91.2444 40.2014 91.0812 40.1873C91.0203 38.2215 90.9112 36.2593 90.7536 34.3007C90.8625 33.7583 90.9172 33.186 90.9174 32.5838C90.871 30.5251 90.7072 28.6991 90.4259 27.1059C90.2778 26.99 90.2233 26.8265 90.2621 26.6154C98.4788 20.5798 106.725 14.5841 114.999 8.62846C118.081 6.51729 121.14 4.36426 124.174 2.16952C124.886 1.73277 125.597 1.35128 126.303 1.0249C117.175 10.1369 107.946 19.1304 98.6171 28.0053C97.7544 28.7835 96.9898 29.6282 96.3236 30.5398Z" fill="#2466A8"/>
<path fill-rule="evenodd" clip-rule="evenodd" d="M45.5372 5.03076C46.2612 5.16534 46.3704 5.51968 45.8649 6.09363C31.7294 9.73499 20.371 17.393 11.7896 29.0678C11.2662 28.8427 11.1843 28.5156 11.5439 28.0867C17.4649 19.6388 25.1373 13.2887 34.5611 9.03694C38.1663 7.50805 41.825 6.17277 45.5372 5.03076Z" fill="#E5E9EE"/>
<path fill-rule="evenodd" clip-rule="evenodd" d="M114.998 8.62813C106.723 14.5838 98.4773 20.5795 90.2605 26.615C85.866 24.609 81.4428 22.7013 76.9909 20.8919C76.6005 20.5901 76.0818 20.3177 75.4345 20.0744C75.3066 19.8382 75.3339 19.6203 75.5164 19.4203C75.9547 19.3348 76.2278 19.1712 76.3356 18.9297C86.8373 14.9446 97.3765 11.0202 107.953 7.15647C108.369 7.13407 108.806 7.13407 109.264 7.15647C109.1 7.29268 108.936 7.42906 108.773 7.56527C108.997 7.76836 109.161 8.01363 109.264 8.3011C109.568 8.50713 109.868 8.50713 110.165 8.3011C110.344 8.69877 110.426 8.64416 110.411 8.13758C110.575 8.13758 110.738 8.13758 110.902 8.13758C110.929 7.42399 111.148 7.34223 111.558 7.8923C111.196 8.17372 110.868 8.50075 110.575 8.87341C110.657 8.95517 110.738 9.03692 110.82 9.11868C111.115 8.71447 111.497 8.44188 111.967 8.3011C112.018 8.43322 112.1 8.54228 112.213 8.62813C112.827 8.06874 112.717 7.82346 111.885 7.8923C111.995 7.60598 112.051 7.33356 112.049 7.07471C111.893 6.99574 111.73 6.96859 111.558 6.99296C111.697 6.52481 111.97 6.14332 112.377 5.84833C112.518 5.67124 112.681 5.6441 112.868 5.76658C112.814 5.82103 112.758 5.87564 112.704 5.93009C112.911 6.08102 113.129 6.21739 113.36 6.33889C113.173 6.49014 113.173 6.62651 113.36 6.74768C113.646 6.56045 113.946 6.47869 114.261 6.5024C114.343 6.69323 114.479 6.82944 114.67 6.9112C114.701 7.14503 114.701 7.3903 114.67 7.64703C114.901 7.86058 115.175 7.99695 115.489 8.05582C115.271 8.21934 115.052 8.38285 114.834 8.54637C114.872 8.61162 114.926 8.63876 114.998 8.62813Z" fill="#EAF2FB"/>
<path fill-rule="evenodd" clip-rule="evenodd" d="M76.3376 18.9297C76.2298 19.1712 75.9568 19.3347 75.5185 19.4202C75.336 19.6202 75.3087 19.8382 75.4366 20.0743C76.0839 20.3176 76.6025 20.59 76.9929 20.8919C76.2996 20.7614 75.6715 20.4888 75.109 20.0743C75.0067 19.7532 75.0887 19.4806 75.3547 19.2567C75.6742 19.1141 76.0018 19.0051 76.3376 18.9297Z" fill="#1063EC"/>
<path fill-rule="evenodd" clip-rule="evenodd" d="M59.9526 14.6782C61.7009 14.6509 63.4484 14.6782 65.1949 14.76C65.4133 14.9779 65.4133 15.1961 65.1949 15.414C44.3641 15.8716 28.6099 24.9468 17.9319 42.6397C16.8595 44.6712 15.8766 46.7425 14.9831 48.8534C14.5946 49.3231 14.2943 49.2685 14.082 48.6898C20.3884 33.2963 31.4193 22.8039 47.1743 17.2127C51.3543 15.8495 55.6137 15.0048 59.9526 14.6782Z" fill="#E5E8EE"/>
<path fill-rule="evenodd" clip-rule="evenodd" d="M99.6007 32.9924C98.6051 32.0542 97.5129 31.2366 96.3242 30.5397C96.9905 29.628 97.7551 28.7833 98.6177 28.0051C107.946 19.1302 117.176 10.1368 126.304 1.02476C125.598 1.35114 124.887 1.73263 124.174 2.16938C121.14 4.36411 118.082 6.51715 115 8.62832C114.928 8.63895 114.874 8.61181 114.836 8.54656C115.054 8.38305 115.274 8.21953 115.492 8.05601C115.177 7.99714 114.903 7.86077 114.672 7.64722C114.704 7.39049 114.704 7.14522 114.672 6.91139C114.481 6.82963 114.345 6.69342 114.263 6.50259C113.948 6.47888 113.649 6.56064 113.362 6.74787C113.175 6.6267 113.175 6.49033 113.362 6.33908C113.131 6.21758 112.913 6.08121 112.707 5.93028C112.761 5.87583 112.816 5.82122 112.87 5.76677C112.684 5.64429 112.52 5.67144 112.379 5.84852C111.973 6.14351 111.699 6.525 111.56 6.99315C111.732 6.96878 111.896 6.99593 112.051 7.07491C112.053 7.33375 111.997 7.60617 111.887 7.89249C112.72 7.82365 112.829 8.06893 112.215 8.62832C112.102 8.54247 112.02 8.43341 111.969 8.30129C111.499 8.44207 111.117 8.71466 110.823 9.11887C110.741 9.03712 110.659 8.95536 110.577 8.8736C110.87 8.50094 111.198 8.17391 111.56 7.89249C111.15 7.34242 110.931 7.42418 110.904 8.13777C110.741 8.13777 110.577 8.13777 110.413 8.13777C110.428 8.64435 110.346 8.69896 110.167 8.30129C109.87 8.50732 109.57 8.50732 109.266 8.30129C109.163 8.01382 109 7.76855 108.775 7.56546C108.939 7.42925 109.102 7.29287 109.266 7.15666C108.808 7.13426 108.371 7.13426 107.956 7.15666C114.199 4.76113 120.48 2.44458 126.795 0.207173C127.174 0.0835538 127.501 0.165313 127.778 0.452449C127.952 0.878085 127.98 1.31419 127.86 1.76059C122.608 15.1888 117.448 28.6517 112.379 42.1494C111.955 42.5193 111.519 42.5466 111.068 42.2312C107.311 39.0509 103.488 35.9714 99.6007 32.9924Z" fill="#EAF2FB"/>
<path fill-rule="evenodd" clip-rule="evenodd" d="M90.7534 34.3007C90.6016 31.9052 90.4925 29.507 90.4258 27.106C90.7071 28.6991 90.8709 30.5251 90.9173 32.5838C90.9171 33.186 90.8624 33.7583 90.7534 34.3007Z" fill="#2466A8"/>
<path fill-rule="evenodd" clip-rule="evenodd" d="M96.3219 30.5396C97.5106 31.2365 98.6028 32.054 99.5984 32.9923C97.1109 35.7201 94.599 38.4181 92.0625 41.0864C91.2445 41.3332 90.9169 41.0333 91.0795 40.1871C91.2427 40.2011 91.3792 40.1465 91.4891 40.0236C92.386 37.5556 93.1506 35.0484 93.7826 32.5018C94.6255 31.8246 95.472 31.1706 96.3219 30.5396Z" fill="#1B4D7E"/>
<path fill-rule="evenodd" clip-rule="evenodd" d="M89.6056 42.9669C90.3963 42.8603 90.6966 43.1873 90.5066 43.948C89.9334 44.6556 89.4419 45.4187 89.0322 46.2373C88.2055 46.7734 87.8233 46.5555 87.8854 45.5832C88.302 44.5975 88.8754 43.7255 89.6056 42.9669Z" fill="#D5E6F6"/>
<path fill-rule="evenodd" clip-rule="evenodd" d="M85.838 47.8726C86.5864 47.8044 86.8321 48.1314 86.5753 48.8537C86.1834 49.79 85.5553 50.5258 84.6913 51.0612C83.9544 51.3027 83.5994 51.0574 83.6264 50.3254C84.4583 49.5778 85.1955 48.7602 85.838 47.8726Z" fill="#2466A8"/>
<path fill-rule="evenodd" clip-rule="evenodd" d="M127.449 36.7531C127.665 36.7253 127.856 36.7798 128.022 36.9167C133.849 46.3897 136.634 56.6913 136.377 67.8215C136.19 68.3799 135.917 68.4345 135.558 67.985C135.645 58.6578 133.623 49.8278 129.496 41.4951C128.869 40.2421 128.16 39.043 127.367 37.8978C127.252 37.5006 127.278 37.1191 127.449 36.7531Z" fill="#E5E9EE"/>
<path fill-rule="evenodd" clip-rule="evenodd" d="M117.29 47.2184C117.615 47.1993 117.888 47.3084 118.11 47.5455C122.48 55.7348 124.146 64.4556 123.106 73.7083C122.629 78.8826 121.483 83.8972 119.666 88.7519C119.382 89.0709 119.027 89.2344 118.601 89.2424C119.264 86.9555 119.948 84.6662 120.649 82.3747C122.775 74.0013 122.883 65.6073 120.976 57.193C120.134 53.9601 118.878 50.9077 117.208 48.036C117.146 47.7585 117.172 47.4861 117.29 47.2184Z" fill="#E4E8EE"/>
<path fill-rule="evenodd" clip-rule="evenodd" d="M110.574 64.7148C110.601 79.7586 110.574 94.8022 110.492 109.846C110.42 110.233 110.338 110.614 110.246 110.99C110.144 110.922 110.089 110.813 110.082 110.663C110.174 110.284 110.256 109.902 110.328 109.519C110.356 94.5566 110.438 79.6221 110.574 64.7148Z" fill="#010102"/>
<path fill-rule="evenodd" clip-rule="evenodd" d="M0.648438 71.9097C0.970678 71.8706 1.27113 71.9251 1.54947 72.0732C1.78455 80.8799 3.96881 89.1647 8.1024 96.9279C8.2025 97.5146 7.95676 97.7052 7.36519 97.5002C2.97358 89.5493 0.734609 81.0191 0.648438 71.9097Z" fill="#E5E8EE"/>
<path fill-rule="evenodd" clip-rule="evenodd" d="M22.9315 60.954C22.2834 61.2786 21.6829 61.6874 21.1295 62.1804C31.3869 69.53 41.5987 76.9427 51.7644 84.4188C52.0192 84.6295 52.2921 84.7386 52.5835 84.7458C53.4405 83.9707 54.3142 83.2349 55.2047 82.5383C56.8348 81.2334 58.5275 80.007 60.2832 78.8592C62.5902 78.0061 64.9383 77.897 67.3276 78.5321C67.8737 78.8047 68.4199 79.0771 68.9659 79.3497C70.5872 80.5614 72.2255 81.7333 73.8806 82.8653C74.5043 83.4597 75.1595 84.032 75.8465 84.5823C76.1269 84.8686 76.4546 84.9777 76.8294 84.9093C87.041 77.333 97.2528 69.7566 107.464 62.1804C107.152 61.948 106.825 61.7572 106.481 61.6081C101.258 57.7319 96.0973 53.753 91.0001 49.6713C90.7011 48.7742 91.0014 48.3654 91.9011 48.4449C97.2688 52.7129 102.73 56.8553 108.283 60.8722C109.483 61.8239 110.194 63.0503 110.413 64.5514C110.199 64.0773 109.98 63.5868 109.758 63.0797C109.649 63.0253 109.54 62.9707 109.43 62.9162C109.119 63.0711 108.901 63.3163 108.775 63.652C109.102 64.0509 109.157 64.4596 108.939 64.8784C108.932 63.5279 108.441 63.2826 107.464 64.1426C97.6096 71.4863 87.7255 78.79 77.8123 86.0539C87.4409 93.9642 96.9974 101.949 106.481 110.009C106.083 110.107 105.81 110.352 105.662 110.745C106.171 111.353 106.717 111.925 107.301 112.462C95.4363 102.642 83.5317 92.858 71.5871 83.1106C70.092 81.9464 68.5083 80.9108 66.8362 80.0038C64.7636 79.3587 62.7432 79.4676 60.7747 80.3308C58.9727 81.6934 57.1706 83.0562 55.3685 84.4188C43.9009 93.9028 32.4333 103.387 20.9656 112.871C21.1639 113.041 21.3277 113.232 21.4571 113.443C21.4571 113.552 21.4571 113.661 21.4571 113.77C21.1555 113.826 20.9098 113.826 20.7199 113.77C20.5177 113.405 20.2175 113.16 19.8189 113.034C20.0545 112.998 20.2728 112.917 20.4742 112.789C20.2856 112.588 20.0946 112.588 19.9008 112.789C19.7848 112.211 19.9758 111.966 20.4742 112.053C20.2137 111.882 19.968 111.691 19.737 111.481C19.6677 111.719 19.5312 111.801 19.3274 111.726C19.6562 111.307 19.7109 110.844 19.4912 110.336C19.7153 110.65 19.8792 111.004 19.9827 111.399C20.2741 111.392 20.5471 111.283 20.8018 111.072C30.8565 102.617 40.9588 94.2228 51.1091 85.8904C40.8889 78.3599 30.6225 70.8926 20.3103 63.4885C20.1066 63.414 19.9701 63.4957 19.9008 63.7338C19.6105 64.3573 19.474 65.0114 19.4912 65.696C19.3844 65.5408 19.3297 65.3502 19.3274 65.1237C19.5514 64.4039 19.6606 63.6954 19.6551 62.998C19.4809 62.8037 19.2624 62.722 18.9998 62.7527C18.9998 62.6436 18.9452 62.5892 18.8359 62.5892C19.1151 62.0084 19.4975 61.4905 19.9827 61.0358C32.0047 52.2012 43.9093 43.2078 55.6962 34.0554C57.0068 33.1287 58.3174 32.2022 59.6279 31.2756C62.9083 29.7688 66.1301 29.8777 69.2935 31.6026C74.6198 35.4871 79.9166 39.4116 85.1844 43.3759C85.7422 44.3431 85.4691 44.8336 84.3653 44.8475C79.0055 40.7511 73.5993 36.7178 68.1468 32.7472C67.5655 32.4299 66.9649 32.1574 66.3447 31.9297C64.8703 31.8206 63.3959 31.8206 61.9215 31.9297C61.2205 32.1705 60.5652 32.4976 59.9556 32.9108C47.6305 42.2989 35.2892 51.6468 22.9315 60.954Z" fill="#2466A8"/>
<path fill-rule="evenodd" clip-rule="evenodd" d="M106.478 61.6078C106.821 61.757 107.149 61.9478 107.461 62.1801C97.2493 69.7564 87.0375 77.3328 76.8259 84.9091C76.4511 84.9774 76.1234 84.8683 75.843 84.582C75.1561 84.0318 74.5008 83.4595 73.8771 82.8651C73.6972 82.7184 73.6972 82.5822 73.8771 82.4563C84.4976 75.4389 95.1461 68.4622 105.823 61.5261C106.039 61.4942 106.257 61.5215 106.478 61.6078Z" fill="#D9DBDF"/>
<path fill-rule="evenodd" clip-rule="evenodd" d="M46.1924 61.7715C46.6424 61.7203 47.0793 61.7748 47.5029 61.935C47.7446 62.3839 47.6355 62.7382 47.1753 62.9979C46.5067 63.2384 45.8514 63.511 45.2094 63.8155C44.6903 63.9754 44.226 63.8937 43.8169 63.5702C43.7004 63.2649 43.7823 63.0197 44.0626 62.8344C44.7967 62.4926 45.5066 62.1383 46.1924 61.7715Z" fill="#2466A8"/>
<path fill-rule="evenodd" clip-rule="evenodd" d="M65.1979 60.7905C65.744 60.6814 66.0716 60.8995 66.1809 61.4445C66.0385 61.8317 65.7656 62.077 65.3618 62.1803C64.3788 62.2894 63.3959 62.2894 62.4129 62.1803C61.9752 61.7423 62.0299 61.3608 62.5768 61.0357C63.2847 60.9541 63.9945 60.9268 64.7065 60.954C64.339 61.1054 63.7384 61.1871 62.9044 61.1992C62.3056 61.351 62.1965 61.6236 62.5768 62.0168C63.5692 62.1377 64.5522 62.0832 65.5256 61.8533C65.8177 61.6788 65.8996 61.4336 65.7713 61.1175C65.558 61.0218 65.3668 60.9129 65.1979 60.7905Z" fill="#2466A8"/>
<path fill-rule="evenodd" clip-rule="evenodd" d="M55.2042 82.5383C54.3136 83.2349 53.4399 83.9708 52.583 84.7458C52.2915 84.7386 52.0186 84.6296 51.7639 84.4188C41.5981 76.9428 31.3864 69.53 21.1289 62.1804C21.6823 61.6874 22.2829 61.2786 22.931 60.954C23.0941 60.9681 23.2306 60.9135 23.3405 60.7905C33.9841 67.8988 44.6053 75.0391 55.2042 82.2113C55.0322 82.3632 55.0322 82.4721 55.2042 82.5383Z" fill="#DADBDF"/>
<path fill-rule="evenodd" clip-rule="evenodd" d="M50.2893 60.7904C51.3282 60.7633 52.3657 60.7904 53.4019 60.8722C53.8948 61.3528 53.8403 61.7343 53.2381 62.0168C52.0913 62.1259 50.9446 62.1259 49.7978 62.0168C49.528 61.4398 49.6918 61.031 50.2893 60.7904Z" fill="#2466A8"/>
<path fill-rule="evenodd" clip-rule="evenodd" d="M64.7028 60.9539C64.819 60.8061 64.9828 60.7517 65.1943 60.7904C65.3632 60.9129 65.5544 61.0218 65.7677 61.1174C65.896 61.4335 65.8141 61.6788 65.522 61.8533C64.5485 62.0832 63.5656 62.1376 62.5731 62.0168C62.1929 61.6235 62.302 61.3509 62.9008 61.1992C63.7348 61.1871 64.3354 61.1053 64.7028 60.9539Z" fill="#2466A8"/>
<path fill-rule="evenodd" clip-rule="evenodd" d="M56.3482 60.9536C57.4853 61.1534 58.632 61.2898 59.7885 61.3624C59.9611 61.5894 59.9883 61.8346 59.8704 62.0982C59.4757 62.4387 59.0114 62.6022 58.4779 62.5888C57.758 62.5051 57.048 62.3687 56.3482 62.18C55.7173 61.7751 55.7173 61.3663 56.3482 60.9536Z" fill="#2466A8"/>
<path fill-rule="evenodd" clip-rule="evenodd" d="M68.308 60.6268C68.2798 60.4646 68.3345 60.3557 68.4718 60.2998C69.3025 60.0683 70.1762 59.7685 71.093 59.4005C71.3607 59.3197 71.6337 59.2925 71.9121 59.3187C71.9378 59.5432 71.9104 59.7613 71.8302 59.9728C70.757 60.8895 69.5828 61.1074 68.308 60.6268Z" fill="#2466A8"/>
<path fill-rule="evenodd" clip-rule="evenodd" d="M68.3086 60.6269C69.5835 61.1075 70.7576 60.8895 71.8308 59.9728C71.9111 59.7614 71.9384 59.5432 71.9127 59.3187C71.6344 59.2926 71.3613 59.3197 71.0936 59.4005C70.1768 59.7686 69.3032 60.0683 68.4724 60.2998C69.4676 59.8039 70.5053 59.3678 71.5851 58.9917C72.2892 59.3822 72.3439 59.8456 71.7489 60.3816C70.7777 60.9372 69.7401 61.2098 68.6362 61.1992C68.4195 61.0658 68.3104 60.8749 68.3086 60.6269Z" fill="#2466A8"/>
<path fill-rule="evenodd" clip-rule="evenodd" d="M76.9934 56.0483C77.362 56.1221 77.5805 56.3402 77.6487 56.7024C77.5422 57.2183 77.2691 57.6271 76.8296 57.9288C76.0139 58.4367 75.1402 58.7093 74.2084 58.7464C73.7674 58.316 73.8219 57.9344 74.3722 57.6018C75.3167 57.1714 76.1903 56.6535 76.9934 56.0483Z" fill="#2466A8"/>
<path fill-rule="evenodd" clip-rule="evenodd" d="M81.5771 52.451C82.4683 52.4389 82.714 52.8203 82.3143 53.5956C81.6529 54.3481 80.861 54.9204 79.9388 55.3125C79.2069 55.4263 78.9064 55.1266 79.0378 54.4132C79.9146 53.7813 80.7611 53.1273 81.5771 52.451Z" fill="#2466A8"/>
<path fill-rule="evenodd" clip-rule="evenodd" d="M18.8345 62.5889C18.9438 62.5889 18.9984 62.6433 18.9984 62.7524C18.6124 63.2781 18.3667 63.8775 18.2612 64.5511C18.1519 79.8127 18.1519 95.0744 18.2612 110.336C18.4623 111.118 18.7081 111.881 18.9984 112.625C18.4394 111.799 18.0844 110.873 17.9335 109.845C17.8242 94.9653 17.8242 80.0852 17.9335 65.2051C18.0266 64.2448 18.3269 63.3726 18.8345 62.5889Z" fill="#232427"/>
<path fill-rule="evenodd" clip-rule="evenodd" d="M18.9988 62.7524C19.2615 62.7217 19.48 62.8034 19.6541 62.9977C19.6597 63.6951 19.5504 64.4036 19.3265 65.1234C19.3288 65.3499 19.3835 65.5405 19.4903 65.6957C19.4903 80.5758 19.4903 95.4559 19.4903 110.336C19.71 110.844 19.6553 111.307 19.3265 111.726C19.5303 111.8 19.6668 111.719 19.7361 111.481C19.967 111.691 20.2128 111.882 20.4733 112.053C19.9749 111.966 19.7839 112.211 19.8999 112.789C20.0937 112.587 20.2847 112.587 20.4733 112.789C20.2719 112.916 20.0535 112.998 19.818 113.034C20.2165 113.159 20.5168 113.405 20.719 113.77C20.9089 113.826 21.1546 113.826 21.4562 113.77C22.0917 114.059 22.747 114.305 23.4221 114.506C50.535 114.642 77.6204 114.615 104.678 114.424C105.75 114.106 106.678 113.534 107.463 112.707C107.372 112.644 107.318 112.563 107.3 112.462C106.717 111.925 106.171 111.353 105.661 110.745C105.809 110.352 106.082 110.107 106.481 110.009C107.02 110.329 107.511 110.711 107.955 111.154C107.819 111.289 107.873 111.425 108.119 111.562C108.305 111.685 108.469 111.658 108.61 111.481C108.916 110.918 109.107 110.318 109.184 109.682C109.32 94.6862 109.292 79.9152 109.102 65.3687C108.954 65.2527 108.899 65.0892 108.938 64.8781C109.156 64.4594 109.101 64.0506 108.774 63.6517C108.9 63.316 109.118 63.0708 109.429 62.9159C109.539 62.9704 109.648 63.025 109.757 63.0794C109.979 63.5865 110.198 64.077 110.412 64.5511C110.522 64.5511 110.576 64.6055 110.576 64.7146C110.44 79.6218 110.358 94.5564 110.33 109.518C110.258 109.902 110.176 110.284 110.085 110.663C110.091 110.813 110.147 110.922 110.248 110.99C109.863 112.462 109.044 113.606 107.791 114.424C106.644 115.142 105.388 115.55 104.023 115.65C77.3745 115.759 50.726 115.759 24.0774 115.65C22.2185 115.527 20.7169 114.736 19.5722 113.279C19.5069 113.317 19.4797 113.371 19.4903 113.443C19.2036 113.253 19.0398 112.981 18.9988 112.625C18.7086 111.881 18.4628 111.118 18.2616 110.336C18.1524 95.0744 18.1524 79.8127 18.2616 64.5511C18.3671 63.8776 18.6129 63.2781 18.9988 62.7524Z" fill="#262B35"/>
<path fill-rule="evenodd" clip-rule="evenodd" d="M21.457 113.443C22.1664 113.878 22.9308 114.178 23.7506 114.342C50.7267 114.424 77.703 114.451 104.679 114.424C77.6212 114.615 50.5358 114.642 23.4229 114.506C22.7478 114.305 22.0925 114.059 21.457 113.77C21.457 113.661 21.457 113.552 21.457 113.443Z" fill="#010104"/>
<path fill-rule="evenodd" clip-rule="evenodd" d="M107.3 112.462C107.318 112.563 107.372 112.645 107.464 112.707C106.679 113.534 105.75 114.106 104.679 114.424C77.7023 114.451 50.726 114.424 23.7498 114.342C22.9301 114.178 22.1657 113.879 21.4563 113.443C21.3269 113.231 21.1631 113.041 20.9648 112.871C32.4325 103.387 43.9001 93.9027 55.3677 84.4187C57.1698 83.0561 58.9719 81.6934 60.7739 80.3308C62.7424 79.4676 64.7629 79.3587 66.8354 80.0037C68.5075 80.9108 70.0912 81.9463 71.5863 83.1106C83.5309 92.858 95.4355 102.642 107.3 112.462Z" fill="#FCFCFC"/>
<path fill-rule="evenodd" clip-rule="evenodd" d="M41.1148 65.0419C41.9626 64.8795 42.2631 65.2065 42.0159 66.023C41.3611 66.6749 40.8696 67.4381 40.5415 68.3122C40.2 68.7264 39.8724 68.7264 39.5585 68.3122C39.4492 67.9307 39.4492 67.5491 39.5585 67.1676C39.923 66.3413 40.4419 65.6328 41.1148 65.0419Z" fill="#2466A8"/>
<path fill-rule="evenodd" clip-rule="evenodd" d="M107.956 111.154C108.113 111.228 108.249 111.337 108.365 111.481C108.71 110.813 108.929 110.104 109.021 109.355C109.103 94.6929 109.13 80.0308 109.103 65.3687C109.293 79.9152 109.321 94.6862 109.184 109.682C109.108 110.318 108.917 110.918 108.611 111.481C108.469 111.658 108.306 111.685 108.12 111.562C107.874 111.425 107.82 111.289 107.956 111.154Z" fill="#020204"/>
<path fill-rule="evenodd" clip-rule="evenodd" d="M108.939 64.8783C108.9 65.0894 108.955 65.2529 109.103 65.3688C109.13 80.0309 109.103 94.6931 109.021 109.355C108.929 110.104 108.71 110.813 108.366 111.481C108.25 111.337 108.113 111.228 107.956 111.154C107.512 110.711 107.021 110.329 106.482 110.009C96.9975 101.949 87.4411 93.9641 77.8125 86.0538C87.7256 78.7898 97.6097 71.4862 107.465 64.1424C108.441 63.2825 108.932 63.5278 108.939 64.8783Z" fill="#FDFDFD"/>
<path fill-rule="evenodd" clip-rule="evenodd" d="M19.4897 110.336C19.4897 95.4562 19.4897 80.5762 19.4897 65.6961C19.4725 65.0114 19.609 64.3574 19.8993 63.7339C19.9686 63.4958 20.105 63.414 20.3088 63.4886C30.621 70.8927 40.8873 78.36 51.1076 85.8905C40.9573 94.2228 30.855 102.617 20.8003 111.072C20.5456 111.283 20.2726 111.392 19.9812 111.399C19.8777 111.004 19.7138 110.65 19.4897 110.336Z" fill="#FDFDFD"/>
<path fill-rule="evenodd" clip-rule="evenodd" d="M107.791 114.424C106.777 115.316 105.576 115.78 104.187 115.814C77.4294 115.923 50.6715 115.923 23.9138 115.814C22.0565 115.705 20.5821 114.915 19.4905 113.443C19.4799 113.371 19.5071 113.317 19.5724 113.279C20.7171 114.736 22.2187 115.527 24.0776 115.65C50.7262 115.759 77.3747 115.759 104.023 115.65C105.389 115.55 106.645 115.142 107.791 114.424Z" fill="#03040A"/>
<path fill-rule="evenodd" clip-rule="evenodd" d="M104.185 116.059C109.156 116.026 114.126 116.107 119.093 116.304C119.704 116.265 120.141 116.51 120.403 117.04C120.285 117.561 119.958 117.806 119.42 117.776C88.9666 119.46 58.4955 119.787 28.007 118.757C21.2352 118.492 14.4639 118.22 7.69289 117.939C6.81676 117.877 6.54367 117.441 6.87377 116.631C10.0375 116.442 13.2047 116.333 16.3755 116.304C45.6727 116.277 74.9424 116.195 104.185 116.059Z" fill="#E7EBF0"/>
</g>
<defs>
<clipPath id="clip0_13366_19057">
<rect width="137" height="120" fill="white"/>
</clipPath>
</defs>
</svg>
