<svg width="2269" height="235" viewBox="0 0 2269 235" fill="none" xmlns="http://www.w3.org/2000/svg">
<rect y="44" width="2269" height="147" fill="#1B4D7F"/>
<path d="M1869 44V191C1487.06 191 1442.99 235 1134.5 235C826.01 235 781.94 191 400 191V44C781.94 44 826.01 1.52588e-05 1134.5 0C1442.99 -1.52588e-05 1487.06 44 1869 44Z" fill="url(#paint0_linear_14558_25602)"/>
<rect y="44" width="400" height="147" fill="#1B4C7E"/>
<rect x="1869" y="44" width="400" height="147" fill="#1B4D7F"/>
<mask id="mask0_14558_25602" style="mask-type:alpha" maskUnits="userSpaceOnUse" x="400" y="0" width="1469" height="235">
<path d="M1869 191V44C1487.06 44 1442.99 0 1134.5 0C826.01 0 781.94 44 400 44V191C781.94 191 826.01 235 1134.5 235C1442.99 235 1487.06 191 1869 191Z" fill="url(#paint1_linear_14558_25602)"/>
</mask>
<g mask="url(#mask0_14558_25602)">
<path d="M1111.21 -172L1400.41 117.207L1111.21 406.413L822 117.207L1111.21 -172Z" fill="#2D80D2"/>
<path d="M813.207 -172L1102.41 117.207L813.207 406.413L524 117.207L813.207 -172Z" fill="#2466A8"/>
<path d="M557.207 -172L846.413 117.207L557.207 406.413L268 117.207L557.207 -172Z" fill="#1B4D7E"/>
</g>
<path d="M518.102 109.867V120.953C518.102 122.133 517.84 123.199 517.316 124.152C516.801 125.098 516.016 125.848 514.961 126.402C513.914 126.957 512.594 127.234 511 127.234C508.734 127.234 507.008 126.656 505.82 125.5C504.633 124.344 504.039 122.812 504.039 120.906V109.867H507.66V120.355C507.66 121.77 507.949 122.762 508.527 123.332C509.105 123.902 509.961 124.188 511.094 124.188C511.891 124.188 512.535 124.051 513.027 123.777C513.527 123.504 513.895 123.082 514.129 122.512C514.363 121.941 514.48 121.215 514.48 120.332V109.867H518.102ZM528.737 113.652C530.135 113.652 531.26 114.035 532.112 114.801C532.964 115.559 533.389 116.777 533.389 118.457V127H529.815V119.348C529.815 118.41 529.643 117.703 529.3 117.227C528.964 116.75 528.432 116.512 527.706 116.512C526.612 116.512 525.866 116.883 525.468 117.625C525.069 118.367 524.87 119.438 524.87 120.836V127H521.296V113.898H524.026L524.507 115.574H524.706C524.987 115.121 525.335 114.754 525.749 114.473C526.171 114.191 526.635 113.984 527.143 113.852C527.659 113.719 528.19 113.652 528.737 113.652ZM540.498 127.234C539.037 127.234 537.845 126.664 536.923 125.523C536.009 124.375 535.552 122.691 535.552 120.473C535.552 118.23 536.017 116.535 536.947 115.387C537.876 114.23 539.091 113.652 540.591 113.652C541.216 113.652 541.767 113.738 542.244 113.91C542.72 114.082 543.13 114.312 543.474 114.602C543.826 114.891 544.123 115.215 544.365 115.574H544.482C544.435 115.324 544.376 114.957 544.306 114.473C544.244 113.98 544.212 113.477 544.212 112.961V108.766H547.798V127H545.056L544.365 125.301H544.212C543.986 125.66 543.701 125.988 543.357 126.285C543.021 126.574 542.619 126.805 542.15 126.977C541.681 127.148 541.13 127.234 540.498 127.234ZM541.751 124.387C542.728 124.387 543.415 124.098 543.814 123.52C544.22 122.934 544.435 122.055 544.458 120.883V120.496C544.458 119.223 544.263 118.25 543.873 117.578C543.482 116.898 542.755 116.559 541.693 116.559C540.904 116.559 540.287 116.898 539.841 117.578C539.396 118.258 539.173 119.238 539.173 120.52C539.173 121.801 539.396 122.766 539.841 123.414C540.294 124.062 540.931 124.387 541.751 124.387ZM556.219 113.652C557.43 113.652 558.473 113.887 559.348 114.355C560.223 114.816 560.899 115.488 561.375 116.371C561.852 117.254 562.09 118.332 562.09 119.605V121.34H553.641C553.68 122.348 553.981 123.141 554.543 123.719C555.113 124.289 555.903 124.574 556.91 124.574C557.746 124.574 558.512 124.488 559.207 124.316C559.903 124.145 560.617 123.887 561.352 123.543V126.309C560.703 126.629 560.024 126.863 559.313 127.012C558.61 127.16 557.754 127.234 556.746 127.234C555.434 127.234 554.27 126.992 553.254 126.508C552.246 126.023 551.453 125.285 550.875 124.293C550.305 123.301 550.02 122.051 550.02 120.543C550.02 119.012 550.278 117.738 550.793 116.723C551.317 115.699 552.043 114.934 552.973 114.426C553.903 113.91 554.985 113.652 556.219 113.652ZM556.242 116.195C555.547 116.195 554.969 116.418 554.508 116.863C554.055 117.309 553.793 118.008 553.723 118.961H558.738C558.731 118.43 558.633 117.957 558.445 117.543C558.266 117.129 557.992 116.801 557.625 116.559C557.266 116.316 556.805 116.195 556.242 116.195ZM571.589 113.652C571.768 113.652 571.975 113.664 572.21 113.688C572.452 113.703 572.647 113.727 572.796 113.758L572.526 117.109C572.409 117.07 572.241 117.043 572.022 117.027C571.811 117.004 571.628 116.992 571.472 116.992C571.011 116.992 570.561 117.051 570.124 117.168C569.694 117.285 569.307 117.477 568.964 117.742C568.62 118 568.347 118.344 568.143 118.773C567.948 119.195 567.85 119.715 567.85 120.332V127H564.276V113.898H566.983L567.511 116.102H567.686C567.944 115.656 568.265 115.25 568.647 114.883C569.038 114.508 569.479 114.211 569.972 113.992C570.472 113.766 571.011 113.652 571.589 113.652ZM583.595 123.109C583.595 124 583.384 124.754 582.963 125.371C582.548 125.98 581.927 126.445 581.099 126.766C580.271 127.078 579.24 127.234 578.005 127.234C577.091 127.234 576.306 127.176 575.65 127.059C575.002 126.941 574.345 126.746 573.681 126.473V123.52C574.392 123.84 575.154 124.105 575.966 124.316C576.787 124.52 577.505 124.621 578.123 124.621C578.818 124.621 579.314 124.52 579.611 124.316C579.916 124.105 580.068 123.832 580.068 123.496C580.068 123.277 580.005 123.082 579.88 122.91C579.763 122.73 579.505 122.531 579.107 122.312C578.709 122.086 578.084 121.793 577.232 121.434C576.412 121.09 575.736 120.742 575.205 120.391C574.681 120.039 574.291 119.625 574.033 119.148C573.783 118.664 573.658 118.051 573.658 117.309C573.658 116.098 574.127 115.188 575.064 114.578C576.009 113.961 577.271 113.652 578.849 113.652C579.662 113.652 580.435 113.734 581.17 113.898C581.912 114.062 582.673 114.324 583.455 114.684L582.377 117.262C581.728 116.98 581.115 116.75 580.537 116.57C579.966 116.391 579.384 116.301 578.791 116.301C578.267 116.301 577.873 116.371 577.607 116.512C577.341 116.652 577.209 116.867 577.209 117.156C577.209 117.367 577.275 117.555 577.408 117.719C577.548 117.883 577.814 118.066 578.205 118.27C578.603 118.465 579.185 118.719 579.951 119.031C580.693 119.336 581.338 119.656 581.884 119.992C582.431 120.32 582.853 120.73 583.15 121.223C583.447 121.707 583.595 122.336 583.595 123.109ZM591.184 124.387C591.575 124.387 591.953 124.348 592.321 124.27C592.696 124.191 593.067 124.094 593.434 123.977V126.637C593.051 126.809 592.575 126.949 592.004 127.059C591.442 127.176 590.825 127.234 590.153 127.234C589.371 127.234 588.668 127.109 588.043 126.859C587.426 126.602 586.938 126.16 586.578 125.535C586.227 124.902 586.051 124.023 586.051 122.898V116.582H584.34V115.07L586.309 113.875L587.34 111.109H589.625V113.898H593.293V116.582H589.625V122.898C589.625 123.398 589.766 123.773 590.047 124.023C590.336 124.266 590.715 124.387 591.184 124.387ZM600.741 113.629C602.499 113.629 603.847 114.012 604.784 114.777C605.722 115.543 606.19 116.707 606.19 118.27V127H603.694L603.003 125.219H602.909C602.534 125.688 602.151 126.07 601.761 126.367C601.37 126.664 600.921 126.883 600.413 127.023C599.905 127.164 599.288 127.234 598.562 127.234C597.788 127.234 597.093 127.086 596.476 126.789C595.866 126.492 595.386 126.039 595.034 125.43C594.683 124.812 594.507 124.031 594.507 123.086C594.507 121.695 594.995 120.672 595.972 120.016C596.948 119.352 598.413 118.984 600.366 118.914L602.64 118.844V118.27C602.64 117.582 602.46 117.078 602.101 116.758C601.741 116.438 601.241 116.277 600.601 116.277C599.968 116.277 599.347 116.367 598.737 116.547C598.128 116.727 597.519 116.953 596.909 117.227L595.726 114.812C596.421 114.445 597.198 114.156 598.058 113.945C598.925 113.734 599.819 113.629 600.741 113.629ZM602.64 120.93L601.257 120.977C600.101 121.008 599.296 121.215 598.843 121.598C598.397 121.98 598.175 122.484 598.175 123.109C598.175 123.656 598.335 124.047 598.655 124.281C598.976 124.508 599.394 124.621 599.909 124.621C600.675 124.621 601.319 124.395 601.843 123.941C602.374 123.488 602.64 122.844 602.64 122.008V120.93ZM616.603 113.652C618.002 113.652 619.127 114.035 619.978 114.801C620.83 115.559 621.256 116.777 621.256 118.457V127H617.681V119.348C617.681 118.41 617.51 117.703 617.166 117.227C616.83 116.75 616.299 116.512 615.572 116.512C614.478 116.512 613.732 116.883 613.334 117.625C612.935 118.367 612.736 119.438 612.736 120.836V127H609.162V113.898H611.892L612.373 115.574H612.572C612.853 115.121 613.201 114.754 613.615 114.473C614.037 114.191 614.502 113.984 615.01 113.852C615.525 113.719 616.056 113.652 616.603 113.652ZM628.364 127.234C626.903 127.234 625.711 126.664 624.79 125.523C623.875 124.375 623.418 122.691 623.418 120.473C623.418 118.23 623.883 116.535 624.813 115.387C625.743 114.23 626.957 113.652 628.457 113.652C629.082 113.652 629.633 113.738 630.11 113.91C630.586 114.082 630.997 114.312 631.34 114.602C631.692 114.891 631.989 115.215 632.231 115.574H632.348C632.301 115.324 632.243 114.957 632.172 114.473C632.11 113.98 632.079 113.477 632.079 112.961V108.766H635.665V127H632.922L632.231 125.301H632.079C631.852 125.66 631.567 125.988 631.223 126.285C630.887 126.574 630.485 126.805 630.016 126.977C629.547 127.148 628.997 127.234 628.364 127.234ZM629.618 124.387C630.594 124.387 631.282 124.098 631.68 123.52C632.086 122.934 632.301 122.055 632.325 120.883V120.496C632.325 119.223 632.129 118.25 631.739 117.578C631.348 116.898 630.622 116.559 629.559 116.559C628.77 116.559 628.153 116.898 627.707 117.578C627.262 118.258 627.04 119.238 627.04 120.52C627.04 121.801 627.262 122.766 627.707 123.414C628.161 124.062 628.797 124.387 629.618 124.387ZM642.322 113.898H646.236L648.709 121.27C648.787 121.504 648.853 121.742 648.908 121.984C648.963 122.227 649.01 122.477 649.049 122.734C649.088 122.992 649.119 123.262 649.143 123.543H649.213C649.26 123.121 649.322 122.727 649.4 122.359C649.486 121.992 649.592 121.629 649.717 121.27L652.143 113.898H655.975L650.432 128.676C650.096 129.582 649.658 130.336 649.119 130.938C648.58 131.547 647.959 132.004 647.256 132.309C646.56 132.613 645.795 132.766 644.959 132.766C644.553 132.766 644.201 132.742 643.904 132.695C643.607 132.656 643.353 132.613 643.143 132.566V129.73C643.307 129.77 643.514 129.805 643.764 129.836C644.014 129.867 644.275 129.883 644.549 129.883C645.049 129.883 645.478 129.777 645.838 129.566C646.197 129.355 646.498 129.07 646.74 128.711C646.982 128.359 647.174 127.973 647.314 127.551L647.525 126.906L642.322 113.898ZM669.048 120.426C669.048 121.52 668.899 122.488 668.602 123.332C668.313 124.176 667.887 124.891 667.325 125.477C666.77 126.055 666.098 126.492 665.309 126.789C664.528 127.086 663.645 127.234 662.661 127.234C661.739 127.234 660.891 127.086 660.118 126.789C659.352 126.492 658.684 126.055 658.114 125.477C657.551 124.891 657.114 124.176 656.801 123.332C656.497 122.488 656.344 121.52 656.344 120.426C656.344 118.973 656.602 117.742 657.118 116.734C657.633 115.727 658.368 114.961 659.321 114.438C660.274 113.914 661.411 113.652 662.731 113.652C663.958 113.652 665.044 113.914 665.989 114.438C666.942 114.961 667.688 115.727 668.227 116.734C668.774 117.742 669.048 118.973 669.048 120.426ZM659.989 120.426C659.989 121.285 660.083 122.008 660.27 122.594C660.458 123.18 660.751 123.621 661.149 123.918C661.548 124.215 662.067 124.363 662.708 124.363C663.34 124.363 663.852 124.215 664.243 123.918C664.641 123.621 664.93 123.18 665.11 122.594C665.298 122.008 665.391 121.285 665.391 120.426C665.391 119.559 665.298 118.84 665.11 118.27C664.93 117.691 664.641 117.258 664.243 116.969C663.844 116.68 663.325 116.535 662.684 116.535C661.739 116.535 661.051 116.859 660.622 117.508C660.2 118.156 659.989 119.129 659.989 120.426ZM683.304 113.898V127H680.562L680.081 125.324H679.894C679.613 125.77 679.261 126.133 678.839 126.414C678.417 126.695 677.952 126.902 677.445 127.035C676.937 127.168 676.41 127.234 675.863 127.234C674.925 127.234 674.109 127.07 673.413 126.742C672.718 126.406 672.175 125.887 671.785 125.184C671.402 124.48 671.21 123.566 671.21 122.441V113.898H674.785V121.551C674.785 122.488 674.952 123.195 675.288 123.672C675.624 124.148 676.16 124.387 676.894 124.387C677.62 124.387 678.191 124.223 678.605 123.895C679.019 123.559 679.308 123.07 679.472 122.43C679.644 121.781 679.73 120.992 679.73 120.062V113.898H683.304ZM693.647 113.652C693.826 113.652 694.033 113.664 694.268 113.688C694.51 113.703 694.705 113.727 694.854 113.758L694.584 117.109C694.467 117.07 694.299 117.043 694.08 117.027C693.869 117.004 693.686 116.992 693.529 116.992C693.068 116.992 692.619 117.051 692.182 117.168C691.752 117.285 691.365 117.477 691.022 117.742C690.678 118 690.404 118.344 690.201 118.773C690.006 119.195 689.908 119.715 689.908 120.332V127H686.334V113.898H689.041L689.568 116.102H689.744C690.002 115.656 690.322 115.25 690.705 114.883C691.096 114.508 691.537 114.211 692.029 113.992C692.529 113.766 693.068 113.652 693.647 113.652ZM711.167 123.109C711.167 124 710.957 124.754 710.535 125.371C710.121 125.98 709.5 126.445 708.671 126.766C707.843 127.078 706.812 127.234 705.578 127.234C704.664 127.234 703.878 127.176 703.222 127.059C702.574 126.941 701.917 126.746 701.253 126.473V123.52C701.964 123.84 702.726 124.105 703.539 124.316C704.359 124.52 705.078 124.621 705.695 124.621C706.39 124.621 706.886 124.52 707.183 124.316C707.488 124.105 707.64 123.832 707.64 123.496C707.64 123.277 707.578 123.082 707.453 122.91C707.335 122.73 707.078 122.531 706.679 122.312C706.281 122.086 705.656 121.793 704.804 121.434C703.984 121.09 703.308 120.742 702.777 120.391C702.253 120.039 701.863 119.625 701.605 119.148C701.355 118.664 701.23 118.051 701.23 117.309C701.23 116.098 701.699 115.188 702.636 114.578C703.582 113.961 704.843 113.652 706.421 113.652C707.234 113.652 708.007 113.734 708.742 113.898C709.484 114.062 710.246 114.324 711.027 114.684L709.949 117.262C709.3 116.98 708.687 116.75 708.109 116.57C707.539 116.391 706.957 116.301 706.363 116.301C705.839 116.301 705.445 116.371 705.179 116.512C704.914 116.652 704.781 116.867 704.781 117.156C704.781 117.367 704.847 117.555 704.98 117.719C705.121 117.883 705.386 118.066 705.777 118.27C706.175 118.465 706.757 118.719 707.523 119.031C708.265 119.336 708.91 119.656 709.457 119.992C710.003 120.32 710.425 120.73 710.722 121.223C711.019 121.707 711.167 122.336 711.167 123.109ZM718.756 124.387C719.147 124.387 719.526 124.348 719.893 124.27C720.268 124.191 720.639 124.094 721.006 123.977V126.637C720.623 126.809 720.147 126.949 719.576 127.059C719.014 127.176 718.397 127.234 717.725 127.234C716.944 127.234 716.24 127.109 715.615 126.859C714.998 126.602 714.51 126.16 714.151 125.535C713.799 124.902 713.623 124.023 713.623 122.898V116.582H711.912V115.07L713.881 113.875L714.912 111.109H717.197V113.898H720.865V116.582H717.197V122.898C717.197 123.398 717.338 123.773 717.619 124.023C717.908 124.266 718.287 124.387 718.756 124.387ZM730.259 113.652C730.438 113.652 730.645 113.664 730.88 113.688C731.122 113.703 731.317 113.727 731.466 113.758L731.196 117.109C731.079 117.07 730.911 117.043 730.692 117.027C730.481 117.004 730.298 116.992 730.142 116.992C729.681 116.992 729.231 117.051 728.794 117.168C728.364 117.285 727.977 117.477 727.634 117.742C727.29 118 727.017 118.344 726.813 118.773C726.618 119.195 726.52 119.715 726.52 120.332V127H722.946V113.898H725.653L726.181 116.102H726.356C726.614 115.656 726.935 115.25 727.317 114.883C727.708 114.508 728.149 114.211 728.642 113.992C729.142 113.766 729.681 113.652 730.259 113.652ZM738.527 113.652C739.738 113.652 740.781 113.887 741.656 114.355C742.531 114.816 743.207 115.488 743.683 116.371C744.16 117.254 744.398 118.332 744.398 119.605V121.34H735.949C735.988 122.348 736.289 123.141 736.851 123.719C737.422 124.289 738.211 124.574 739.218 124.574C740.054 124.574 740.82 124.488 741.515 124.316C742.211 124.145 742.925 123.887 743.66 123.543V126.309C743.011 126.629 742.332 126.863 741.621 127.012C740.918 127.16 740.062 127.234 739.054 127.234C737.742 127.234 736.578 126.992 735.562 126.508C734.554 126.023 733.761 125.285 733.183 124.293C732.613 123.301 732.328 122.051 732.328 120.543C732.328 119.012 732.586 117.738 733.101 116.723C733.625 115.699 734.351 114.934 735.281 114.426C736.211 113.91 737.293 113.652 738.527 113.652ZM738.55 116.195C737.855 116.195 737.277 116.418 736.816 116.863C736.363 117.309 736.101 118.008 736.031 118.961H741.047C741.039 118.43 740.941 117.957 740.754 117.543C740.574 117.129 740.3 116.801 739.933 116.559C739.574 116.316 739.113 116.195 738.55 116.195ZM754.026 113.652C755.424 113.652 756.549 114.035 757.401 114.801C758.252 115.559 758.678 116.777 758.678 118.457V127H755.104V119.348C755.104 118.41 754.932 117.703 754.588 117.227C754.252 116.75 753.721 116.512 752.995 116.512C751.901 116.512 751.155 116.883 750.756 117.625C750.358 118.367 750.159 119.438 750.159 120.836V127H746.584V113.898H749.315L749.795 115.574H749.995C750.276 115.121 750.623 114.754 751.038 114.473C751.459 114.191 751.924 113.984 752.432 113.852C752.948 113.719 753.479 113.652 754.026 113.652ZM765.47 132.766C763.642 132.766 762.243 132.445 761.275 131.805C760.314 131.172 759.833 130.281 759.833 129.133C759.833 128.344 760.079 127.684 760.571 127.152C761.064 126.621 761.786 126.242 762.739 126.016C762.372 125.859 762.052 125.605 761.778 125.254C761.505 124.895 761.368 124.516 761.368 124.117C761.368 123.617 761.513 123.203 761.802 122.875C762.091 122.539 762.509 122.211 763.056 121.891C762.368 121.594 761.821 121.117 761.415 120.461C761.017 119.805 760.818 119.031 760.818 118.141C760.818 117.188 761.025 116.379 761.439 115.715C761.86 115.043 762.47 114.531 763.267 114.18C764.071 113.828 765.048 113.652 766.196 113.652C766.439 113.652 766.72 113.668 767.04 113.699C767.36 113.73 767.653 113.766 767.919 113.805C768.193 113.844 768.376 113.875 768.47 113.898H773.04V115.715L770.989 116.242C771.177 116.531 771.318 116.84 771.411 117.168C771.505 117.496 771.552 117.844 771.552 118.211C771.552 119.617 771.06 120.715 770.075 121.504C769.099 122.285 767.739 122.676 765.997 122.676C765.583 122.652 765.193 122.621 764.825 122.582C764.646 122.723 764.509 122.871 764.415 123.027C764.321 123.184 764.275 123.348 764.275 123.52C764.275 123.691 764.345 123.836 764.485 123.953C764.634 124.062 764.853 124.148 765.142 124.211C765.439 124.266 765.806 124.293 766.243 124.293H768.47C769.907 124.293 771.001 124.602 771.751 125.219C772.509 125.836 772.888 126.742 772.888 127.938C772.888 129.469 772.247 130.656 770.966 131.5C769.693 132.344 767.86 132.766 765.47 132.766ZM765.622 130.434C766.474 130.434 767.204 130.352 767.814 130.188C768.431 130.031 768.903 129.805 769.232 129.508C769.56 129.219 769.724 128.871 769.724 128.465C769.724 128.137 769.626 127.875 769.431 127.68C769.243 127.492 768.954 127.359 768.564 127.281C768.181 127.203 767.689 127.164 767.087 127.164H765.235C764.798 127.164 764.403 127.234 764.052 127.375C763.708 127.516 763.435 127.711 763.232 127.961C763.028 128.219 762.927 128.516 762.927 128.852C762.927 129.344 763.161 129.73 763.63 130.012C764.107 130.293 764.771 130.434 765.622 130.434ZM766.196 120.496C766.868 120.496 767.36 120.289 767.673 119.875C767.985 119.461 768.142 118.898 768.142 118.188C768.142 117.398 767.978 116.809 767.65 116.418C767.329 116.02 766.845 115.82 766.196 115.82C765.54 115.82 765.048 116.02 764.72 116.418C764.392 116.809 764.228 117.398 764.228 118.188C764.228 118.898 764.388 119.461 764.708 119.875C765.036 120.289 765.532 120.496 766.196 120.496ZM780.008 124.387C780.398 124.387 780.777 124.348 781.144 124.27C781.519 124.191 781.89 124.094 782.258 123.977V126.637C781.875 126.809 781.398 126.949 780.828 127.059C780.265 127.176 779.648 127.234 778.976 127.234C778.195 127.234 777.492 127.109 776.867 126.859C776.25 126.602 775.762 126.16 775.402 125.535C775.051 124.902 774.875 124.023 774.875 122.898V116.582H773.164V115.07L775.133 113.875L776.164 111.109H778.449V113.898H782.117V116.582H778.449V122.898C778.449 123.398 778.59 123.773 778.871 124.023C779.16 124.266 779.539 124.387 780.008 124.387ZM787.772 108.766V112.48C787.772 113.129 787.749 113.746 787.702 114.332C787.663 114.918 787.631 115.332 787.608 115.574H787.795C788.077 115.121 788.409 114.754 788.792 114.473C789.182 114.191 789.612 113.984 790.081 113.852C790.549 113.719 791.053 113.652 791.592 113.652C792.538 113.652 793.362 113.82 794.065 114.156C794.768 114.484 795.315 115.004 795.706 115.715C796.096 116.418 796.292 117.332 796.292 118.457V127H792.717V119.348C792.717 118.41 792.545 117.703 792.202 117.227C791.858 116.75 791.327 116.512 790.608 116.512C789.889 116.512 789.323 116.68 788.909 117.016C788.495 117.344 788.202 117.832 788.03 118.48C787.858 119.121 787.772 119.906 787.772 120.836V127H784.198V108.766H787.772ZM808.392 123.109C808.392 124 808.181 124.754 807.759 125.371C807.345 125.98 806.724 126.445 805.896 126.766C805.068 127.078 804.036 127.234 802.802 127.234C801.888 127.234 801.103 127.176 800.447 127.059C799.798 126.941 799.142 126.746 798.478 126.473V123.52C799.189 123.84 799.95 124.105 800.763 124.316C801.583 124.52 802.302 124.621 802.919 124.621C803.615 124.621 804.111 124.52 804.408 124.316C804.712 124.105 804.865 123.832 804.865 123.496C804.865 123.277 804.802 123.082 804.677 122.91C804.56 122.73 804.302 122.531 803.904 122.312C803.505 122.086 802.88 121.793 802.029 121.434C801.208 121.09 800.533 120.742 800.001 120.391C799.478 120.039 799.087 119.625 798.829 119.148C798.579 118.664 798.454 118.051 798.454 117.309C798.454 116.098 798.923 115.188 799.861 114.578C800.806 113.961 802.068 113.652 803.646 113.652C804.458 113.652 805.232 113.734 805.966 113.898C806.708 114.062 807.47 114.324 808.251 114.684L807.173 117.262C806.525 116.98 805.911 116.75 805.333 116.57C804.763 116.391 804.181 116.301 803.587 116.301C803.064 116.301 802.669 116.371 802.404 116.512C802.138 116.652 802.005 116.867 802.005 117.156C802.005 117.367 802.072 117.555 802.204 117.719C802.345 117.883 802.611 118.066 803.001 118.27C803.4 118.465 803.982 118.719 804.747 119.031C805.49 119.336 806.134 119.656 806.681 119.992C807.228 120.32 807.65 120.73 807.947 121.223C808.243 121.707 808.392 122.336 808.392 123.109Z" fill="white"/>
<path d="M882.023 127H872.156V109.867H882.023V112.844H875.789V116.605H881.59V119.582H875.789V124H882.023V127ZM888.182 127H884.608V108.766H888.182V127ZM894.798 113.898V127H891.224V113.898H894.798ZM893.017 108.766C893.548 108.766 894.005 108.891 894.388 109.141C894.771 109.383 894.962 109.84 894.962 110.512C894.962 111.176 894.771 111.637 894.388 111.895C894.005 112.145 893.548 112.27 893.017 112.27C892.478 112.27 892.017 112.145 891.634 111.895C891.259 111.637 891.072 111.176 891.072 110.512C891.072 109.84 891.259 109.383 891.634 109.141C892.017 108.891 892.478 108.766 893.017 108.766ZM913.227 113.652C914.711 113.652 915.832 114.035 916.59 114.801C917.356 115.559 917.738 116.777 917.738 118.457V127H914.153V119.348C914.153 118.41 913.992 117.703 913.672 117.227C913.352 116.75 912.856 116.512 912.184 116.512C911.238 116.512 910.567 116.852 910.168 117.531C909.77 118.203 909.57 119.168 909.57 120.426V127H905.996V119.348C905.996 118.723 905.926 118.199 905.785 117.777C905.645 117.355 905.43 117.039 905.141 116.828C904.852 116.617 904.481 116.512 904.028 116.512C903.363 116.512 902.84 116.68 902.457 117.016C902.082 117.344 901.813 117.832 901.649 118.48C901.492 119.121 901.414 119.906 901.414 120.836V127H897.84V113.898H900.57L901.051 115.574H901.25C901.516 115.121 901.848 114.754 902.246 114.473C902.653 114.191 903.098 113.984 903.582 113.852C904.067 113.719 904.559 113.652 905.059 113.652C906.02 113.652 906.832 113.809 907.496 114.121C908.168 114.434 908.684 114.918 909.043 115.574H909.36C909.75 114.902 910.301 114.414 911.012 114.109C911.731 113.805 912.469 113.652 913.227 113.652ZM924.272 113.898V127H920.698V113.898H924.272ZM922.491 108.766C923.022 108.766 923.479 108.891 923.862 109.141C924.245 109.383 924.436 109.84 924.436 110.512C924.436 111.176 924.245 111.637 923.862 111.895C923.479 112.145 923.022 112.27 922.491 112.27C921.952 112.27 921.491 112.145 921.108 111.895C920.733 111.637 920.546 111.176 920.546 110.512C920.546 109.84 920.733 109.383 921.108 109.141C921.491 108.891 921.952 108.766 922.491 108.766ZM934.755 113.652C936.154 113.652 937.279 114.035 938.13 114.801C938.982 115.559 939.408 116.777 939.408 118.457V127H935.834V119.348C935.834 118.41 935.662 117.703 935.318 117.227C934.982 116.75 934.451 116.512 933.724 116.512C932.63 116.512 931.884 116.883 931.486 117.625C931.088 118.367 930.888 119.438 930.888 120.836V127H927.314V113.898H930.045L930.525 115.574H930.724C931.005 115.121 931.353 114.754 931.767 114.473C932.189 114.191 932.654 113.984 933.162 113.852C933.677 113.719 934.209 113.652 934.755 113.652ZM947.735 113.629C949.493 113.629 950.84 114.012 951.778 114.777C952.715 115.543 953.184 116.707 953.184 118.27V127H950.688L949.996 125.219H949.903C949.528 125.688 949.145 126.07 948.754 126.367C948.364 126.664 947.914 126.883 947.407 127.023C946.899 127.164 946.282 127.234 945.555 127.234C944.782 127.234 944.086 127.086 943.469 126.789C942.86 126.492 942.379 126.039 942.028 125.43C941.676 124.812 941.5 124.031 941.5 123.086C941.5 121.695 941.989 120.672 942.965 120.016C943.942 119.352 945.407 118.984 947.36 118.914L949.633 118.844V118.27C949.633 117.582 949.453 117.078 949.094 116.758C948.735 116.438 948.235 116.277 947.594 116.277C946.961 116.277 946.34 116.367 945.731 116.547C945.121 116.727 944.512 116.953 943.903 117.227L942.719 114.812C943.414 114.445 944.192 114.156 945.051 113.945C945.918 113.734 946.813 113.629 947.735 113.629ZM949.633 120.93L948.25 120.977C947.094 121.008 946.289 121.215 945.836 121.598C945.391 121.98 945.168 122.484 945.168 123.109C945.168 123.656 945.328 124.047 945.649 124.281C945.969 124.508 946.387 124.621 946.903 124.621C947.668 124.621 948.313 124.395 948.836 123.941C949.368 123.488 949.633 122.844 949.633 122.008V120.93ZM961.675 124.387C962.065 124.387 962.444 124.348 962.812 124.27C963.187 124.191 963.558 124.094 963.925 123.977V126.637C963.542 126.809 963.065 126.949 962.495 127.059C961.933 127.176 961.315 127.234 960.644 127.234C959.862 127.234 959.159 127.109 958.534 126.859C957.917 126.602 957.429 126.16 957.069 125.535C956.718 124.902 956.542 124.023 956.542 122.898V116.582H954.831V115.07L956.8 113.875L957.831 111.109H960.116V113.898H963.784V116.582H960.116V122.898C960.116 123.398 960.257 123.773 960.538 124.023C960.827 124.266 961.206 124.387 961.675 124.387ZM971.267 113.652C972.478 113.652 973.521 113.887 974.396 114.355C975.271 114.816 975.947 115.488 976.424 116.371C976.9 117.254 977.138 118.332 977.138 119.605V121.34H968.689C968.728 122.348 969.029 123.141 969.592 123.719C970.162 124.289 970.951 124.574 971.959 124.574C972.795 124.574 973.56 124.488 974.256 124.316C974.951 124.145 975.666 123.887 976.4 123.543V126.309C975.752 126.629 975.072 126.863 974.361 127.012C973.658 127.16 972.802 127.234 971.795 127.234C970.482 127.234 969.318 126.992 968.302 126.508C967.295 126.023 966.502 125.285 965.924 124.293C965.353 123.301 965.068 122.051 965.068 120.543C965.068 119.012 965.326 117.738 965.842 116.723C966.365 115.699 967.092 114.934 968.021 114.426C968.951 113.91 970.033 113.652 971.267 113.652ZM971.291 116.195C970.595 116.195 970.017 116.418 969.556 116.863C969.103 117.309 968.842 118.008 968.771 118.961H973.787C973.779 118.43 973.681 117.957 973.494 117.543C973.314 117.129 973.041 116.801 972.674 116.559C972.314 116.316 971.853 116.195 971.291 116.195ZM992.152 113.652C992.331 113.652 992.538 113.664 992.773 113.688C993.015 113.703 993.21 113.727 993.359 113.758L993.089 117.109C992.972 117.07 992.804 117.043 992.585 117.027C992.374 117.004 992.191 116.992 992.034 116.992C991.573 116.992 991.124 117.051 990.687 117.168C990.257 117.285 989.87 117.477 989.527 117.742C989.183 118 988.909 118.344 988.706 118.773C988.511 119.195 988.413 119.715 988.413 120.332V127H984.839V113.898H987.546L988.073 116.102H988.249C988.507 115.656 988.827 115.25 989.21 114.883C989.601 114.508 990.042 114.211 990.534 113.992C991.034 113.766 991.573 113.652 992.152 113.652ZM998.592 113.898V127H995.018V113.898H998.592ZM996.81 108.766C997.342 108.766 997.799 108.891 998.182 109.141C998.564 109.383 998.756 109.84 998.756 110.512C998.756 111.176 998.564 111.637 998.182 111.895C997.799 112.145 997.342 112.27 996.81 112.27C996.271 112.27 995.81 112.145 995.428 111.895C995.053 111.637 994.865 111.176 994.865 110.512C994.865 109.84 995.053 109.383 995.428 109.141C995.81 108.891 996.271 108.766 996.81 108.766ZM1010.77 123.109C1010.77 124 1010.56 124.754 1010.14 125.371C1009.73 125.98 1009.11 126.445 1008.28 126.766C1007.45 127.078 1006.42 127.234 1005.18 127.234C1004.27 127.234 1003.49 127.176 1002.83 127.059C1002.18 126.941 1001.52 126.746 1000.86 126.473V123.52C1001.57 123.84 1002.33 124.105 1003.15 124.316C1003.97 124.52 1004.68 124.621 1005.3 124.621C1006 124.621 1006.49 124.52 1006.79 124.316C1007.09 124.105 1007.25 123.832 1007.25 123.496C1007.25 123.277 1007.18 123.082 1007.06 122.91C1006.94 122.73 1006.68 122.531 1006.29 122.312C1005.89 122.086 1005.26 121.793 1004.41 121.434C1003.59 121.09 1002.91 120.742 1002.38 120.391C1001.86 120.039 1001.47 119.625 1001.21 119.148C1000.96 118.664 1000.84 118.051 1000.84 117.309C1000.84 116.098 1001.31 115.188 1002.24 114.578C1003.19 113.961 1004.45 113.652 1006.03 113.652C1006.84 113.652 1007.61 113.734 1008.35 113.898C1009.09 114.062 1009.85 114.324 1010.63 114.684L1009.56 117.262C1008.91 116.98 1008.29 116.75 1007.72 116.57C1007.15 116.391 1006.56 116.301 1005.97 116.301C1005.45 116.301 1005.05 116.371 1004.79 116.512C1004.52 116.652 1004.39 116.867 1004.39 117.156C1004.39 117.367 1004.45 117.555 1004.59 117.719C1004.73 117.883 1004.99 118.066 1005.38 118.27C1005.78 118.465 1006.36 118.719 1007.13 119.031C1007.87 119.336 1008.52 119.656 1009.06 119.992C1009.61 120.32 1010.03 120.73 1010.33 121.223C1010.63 121.707 1010.77 122.336 1010.77 123.109ZM1016.42 108.766V116.922C1016.42 117.414 1016.4 117.906 1016.36 118.398C1016.32 118.891 1016.28 119.383 1016.23 119.875H1016.28C1016.52 119.531 1016.76 119.191 1017.01 118.855C1017.27 118.52 1017.55 118.195 1017.84 117.883L1021.5 113.898H1025.53L1020.33 119.582L1025.85 127H1021.73L1017.95 121.691L1016.42 122.922V127H1012.84V108.766H1016.42ZM1036.15 123.109C1036.15 124 1035.94 124.754 1035.51 125.371C1035.1 125.98 1034.48 126.445 1033.65 126.766C1032.82 127.078 1031.79 127.234 1030.56 127.234C1029.64 127.234 1028.86 127.176 1028.2 127.059C1027.55 126.941 1026.9 126.746 1026.23 126.473V123.52C1026.94 123.84 1027.71 124.105 1028.52 124.316C1029.34 124.52 1030.06 124.621 1030.67 124.621C1031.37 124.621 1031.87 124.52 1032.16 124.316C1032.47 124.105 1032.62 123.832 1032.62 123.496C1032.62 123.277 1032.56 123.082 1032.43 122.91C1032.31 122.73 1032.06 122.531 1031.66 122.312C1031.26 122.086 1030.63 121.793 1029.78 121.434C1028.96 121.09 1028.29 120.742 1027.76 120.391C1027.23 120.039 1026.84 119.625 1026.58 119.148C1026.33 118.664 1026.21 118.051 1026.21 117.309C1026.21 116.098 1026.68 115.188 1027.62 114.578C1028.56 113.961 1029.82 113.652 1031.4 113.652C1032.21 113.652 1032.99 113.734 1033.72 113.898C1034.46 114.062 1035.22 114.324 1036.01 114.684L1034.93 117.262C1034.28 116.98 1033.67 116.75 1033.09 116.57C1032.52 116.391 1031.94 116.301 1031.34 116.301C1030.82 116.301 1030.42 116.371 1030.16 116.512C1029.89 116.652 1029.76 116.867 1029.76 117.156C1029.76 117.367 1029.83 117.555 1029.96 117.719C1030.1 117.883 1030.37 118.066 1030.76 118.27C1031.15 118.465 1031.74 118.719 1032.5 119.031C1033.24 119.336 1033.89 119.656 1034.44 119.992C1034.98 120.32 1035.4 120.73 1035.7 121.223C1036 121.707 1036.15 122.336 1036.15 123.109Z" fill="white"/>
<path d="M1127.16 109.867H1132.49C1134.77 109.867 1136.5 110.188 1137.67 110.828C1138.84 111.469 1139.43 112.594 1139.43 114.203C1139.43 114.852 1139.32 115.438 1139.11 115.961C1138.91 116.484 1138.61 116.914 1138.22 117.25C1137.83 117.586 1137.35 117.805 1136.79 117.906V118.023C1137.36 118.141 1137.88 118.344 1138.34 118.633C1138.8 118.914 1139.16 119.328 1139.44 119.875C1139.72 120.414 1139.86 121.133 1139.86 122.031C1139.86 123.07 1139.61 123.961 1139.1 124.703C1138.59 125.445 1137.86 126.016 1136.92 126.414C1135.98 126.805 1134.86 127 1133.57 127H1127.16V109.867ZM1130.79 116.652H1132.9C1133.95 116.652 1134.68 116.488 1135.09 116.16C1135.5 115.824 1135.7 115.332 1135.7 114.684C1135.7 114.027 1135.46 113.559 1134.97 113.277C1134.5 112.988 1133.74 112.844 1132.7 112.844H1130.79V116.652ZM1130.79 119.535V124H1133.16C1134.25 124 1135.01 123.789 1135.44 123.367C1135.87 122.945 1136.09 122.379 1136.09 121.668C1136.09 121.246 1135.99 120.875 1135.8 120.555C1135.62 120.234 1135.3 119.984 1134.86 119.805C1134.42 119.625 1133.81 119.535 1133.04 119.535H1130.79ZM1154.3 113.898V127H1151.56L1151.08 125.324H1150.89C1150.61 125.77 1150.26 126.133 1149.84 126.414C1149.42 126.695 1148.95 126.902 1148.44 127.035C1147.94 127.168 1147.41 127.234 1146.86 127.234C1145.92 127.234 1145.11 127.07 1144.41 126.742C1143.72 126.406 1143.17 125.887 1142.78 125.184C1142.4 124.48 1142.21 123.566 1142.21 122.441V113.898H1145.78V121.551C1145.78 122.488 1145.95 123.195 1146.29 123.672C1146.62 124.148 1147.16 124.387 1147.89 124.387C1148.62 124.387 1149.19 124.223 1149.6 123.895C1150.02 123.559 1150.31 123.07 1150.47 122.43C1150.64 121.781 1150.73 120.992 1150.73 120.062V113.898H1154.3ZM1160.91 113.898V127H1157.33V113.898H1160.91ZM1159.13 108.766C1159.66 108.766 1160.11 108.891 1160.5 109.141C1160.88 109.383 1161.07 109.84 1161.07 110.512C1161.07 111.176 1160.88 111.637 1160.5 111.895C1160.11 112.145 1159.66 112.27 1159.13 112.27C1158.59 112.27 1158.13 112.145 1157.74 111.895C1157.37 111.637 1157.18 111.176 1157.18 110.512C1157.18 109.84 1157.37 109.383 1157.74 109.141C1158.13 108.891 1158.59 108.766 1159.13 108.766ZM1167.52 127H1163.95V108.766H1167.52V127ZM1174.71 127.234C1173.25 127.234 1172.06 126.664 1171.14 125.523C1170.23 124.375 1169.77 122.691 1169.77 120.473C1169.77 118.23 1170.23 116.535 1171.16 115.387C1172.09 114.23 1173.31 113.652 1174.81 113.652C1175.43 113.652 1175.98 113.738 1176.46 113.91C1176.94 114.082 1177.35 114.312 1177.69 114.602C1178.04 114.891 1178.34 115.215 1178.58 115.574H1178.7C1178.65 115.324 1178.59 114.957 1178.52 114.473C1178.46 113.98 1178.43 113.477 1178.43 112.961V108.766H1182.01V127H1179.27L1178.58 125.301H1178.43C1178.2 125.66 1177.92 125.988 1177.57 126.285C1177.24 126.574 1176.83 126.805 1176.37 126.977C1175.9 127.148 1175.35 127.234 1174.71 127.234ZM1175.97 124.387C1176.94 124.387 1177.63 124.098 1178.03 123.52C1178.44 122.934 1178.65 122.055 1178.67 120.883V120.496C1178.67 119.223 1178.48 118.25 1178.09 117.578C1177.7 116.898 1176.97 116.559 1175.91 116.559C1175.12 116.559 1174.5 116.898 1174.06 117.578C1173.61 118.258 1173.39 119.238 1173.39 120.52C1173.39 121.801 1173.61 122.766 1174.06 123.414C1174.51 124.062 1175.15 124.387 1175.97 124.387ZM1201.32 127L1200.31 122.418C1200.25 122.145 1200.16 121.742 1200.04 121.211C1199.91 120.672 1199.78 120.098 1199.63 119.488C1199.49 118.871 1199.36 118.301 1199.23 117.777C1199.11 117.254 1199.03 116.871 1198.97 116.629H1198.87C1198.81 116.871 1198.73 117.254 1198.61 117.777C1198.49 118.301 1198.36 118.871 1198.21 119.488C1198.07 120.105 1197.94 120.688 1197.81 121.234C1197.69 121.773 1197.59 122.184 1197.53 122.465L1196.48 127H1192.63L1188.91 113.898H1192.47L1193.98 119.699C1194.08 120.105 1194.18 120.59 1194.27 121.152C1194.37 121.707 1194.45 122.246 1194.52 122.77C1194.6 123.285 1194.66 123.695 1194.7 124H1194.79C1194.81 123.773 1194.84 123.473 1194.88 123.098C1194.94 122.723 1195 122.336 1195.06 121.938C1195.13 121.531 1195.19 121.168 1195.25 120.848C1195.31 120.52 1195.36 120.297 1195.39 120.18L1197 113.898H1200.94L1202.48 120.18C1202.53 120.406 1202.6 120.766 1202.69 121.258C1202.78 121.75 1202.86 122.258 1202.93 122.781C1203 123.297 1203.04 123.703 1203.05 124H1203.14C1203.18 123.734 1203.23 123.34 1203.31 122.816C1203.39 122.293 1203.48 121.746 1203.58 121.176C1203.69 120.598 1203.8 120.105 1203.91 119.699L1205.48 113.898H1208.98L1205.21 127H1201.32ZM1213.96 113.898V127H1210.38V113.898H1213.96ZM1212.17 108.766C1212.71 108.766 1213.16 108.891 1213.55 109.141C1213.93 109.383 1214.12 109.84 1214.12 110.512C1214.12 111.176 1213.93 111.637 1213.55 111.895C1213.16 112.145 1212.71 112.27 1212.17 112.27C1211.64 112.27 1211.17 112.145 1210.79 111.895C1210.42 111.637 1210.23 111.176 1210.23 110.512C1210.23 109.84 1210.42 109.383 1210.79 109.141C1211.17 108.891 1211.64 108.766 1212.17 108.766ZM1222.52 124.387C1222.91 124.387 1223.29 124.348 1223.65 124.27C1224.03 124.191 1224.4 124.094 1224.77 123.977V126.637C1224.38 126.809 1223.91 126.949 1223.34 127.059C1222.78 127.176 1222.16 127.234 1221.49 127.234C1220.7 127.234 1220 127.109 1219.38 126.859C1218.76 126.602 1218.27 126.16 1217.91 125.535C1217.56 124.902 1217.38 124.023 1217.38 122.898V116.582H1215.67V115.07L1217.64 113.875L1218.67 111.109H1220.96V113.898H1224.63V116.582H1220.96V122.898C1220.96 123.398 1221.1 123.773 1221.38 124.023C1221.67 124.266 1222.05 124.387 1222.52 124.387ZM1230.28 108.766V112.48C1230.28 113.129 1230.26 113.746 1230.21 114.332C1230.17 114.918 1230.14 115.332 1230.12 115.574H1230.31C1230.59 115.121 1230.92 114.754 1231.3 114.473C1231.69 114.191 1232.12 113.984 1232.59 113.852C1233.06 113.719 1233.56 113.652 1234.1 113.652C1235.05 113.652 1235.87 113.82 1236.57 114.156C1237.28 114.484 1237.82 115.004 1238.22 115.715C1238.61 116.418 1238.8 117.332 1238.8 118.457V127H1235.23V119.348C1235.23 118.41 1235.06 117.703 1234.71 117.227C1234.37 116.75 1233.84 116.512 1233.12 116.512C1232.4 116.512 1231.83 116.68 1231.42 117.016C1231 117.344 1230.71 117.832 1230.54 118.48C1230.37 119.121 1230.28 119.906 1230.28 120.836V127H1226.71V108.766H1230.28ZM1252.6 127.234C1251.3 127.234 1250.19 127 1249.28 126.531C1248.37 126.055 1247.67 125.32 1247.19 124.328C1246.72 123.336 1246.48 122.066 1246.48 120.52C1246.48 118.918 1246.75 117.613 1247.29 116.605C1247.83 115.59 1248.59 114.844 1249.55 114.367C1250.52 113.891 1251.64 113.652 1252.91 113.652C1253.82 113.652 1254.6 113.742 1255.26 113.922C1255.92 114.094 1256.5 114.301 1256.99 114.543L1255.94 117.309C1255.37 117.082 1254.85 116.898 1254.37 116.758C1253.88 116.609 1253.4 116.535 1252.91 116.535C1252.29 116.535 1251.77 116.684 1251.35 116.98C1250.94 117.27 1250.63 117.707 1250.43 118.293C1250.22 118.879 1250.12 119.613 1250.12 120.496C1250.12 121.363 1250.23 122.082 1250.45 122.652C1250.67 123.223 1250.99 123.648 1251.4 123.93C1251.81 124.203 1252.32 124.34 1252.91 124.34C1253.65 124.34 1254.31 124.242 1254.89 124.047C1255.47 123.844 1256.03 123.562 1256.58 123.203V126.262C1256.03 126.605 1255.46 126.852 1254.86 127C1254.26 127.156 1253.51 127.234 1252.6 127.234ZM1270.81 120.426C1270.81 121.52 1270.66 122.488 1270.37 123.332C1270.08 124.176 1269.65 124.891 1269.09 125.477C1268.54 126.055 1267.86 126.492 1267.07 126.789C1266.29 127.086 1265.41 127.234 1264.43 127.234C1263.5 127.234 1262.66 127.086 1261.88 126.789C1261.12 126.492 1260.45 126.055 1259.88 125.477C1259.32 124.891 1258.88 124.176 1258.57 123.332C1258.26 122.488 1258.11 121.52 1258.11 120.426C1258.11 118.973 1258.37 117.742 1258.88 116.734C1259.4 115.727 1260.13 114.961 1261.09 114.438C1262.04 113.914 1263.18 113.652 1264.5 113.652C1265.72 113.652 1266.81 113.914 1267.75 114.438C1268.71 114.961 1269.45 115.727 1269.99 116.734C1270.54 117.742 1270.81 118.973 1270.81 120.426ZM1261.75 120.426C1261.75 121.285 1261.85 122.008 1262.04 122.594C1262.22 123.18 1262.52 123.621 1262.91 123.918C1263.31 124.215 1263.83 124.363 1264.47 124.363C1265.11 124.363 1265.62 124.215 1266.01 123.918C1266.41 123.621 1266.7 123.18 1266.88 122.594C1267.06 122.008 1267.16 121.285 1267.16 120.426C1267.16 119.559 1267.06 118.84 1266.88 118.27C1266.7 117.691 1266.41 117.258 1266.01 116.969C1265.61 116.68 1265.09 116.535 1264.45 116.535C1263.5 116.535 1262.82 116.859 1262.39 117.508C1261.97 118.156 1261.75 119.129 1261.75 120.426ZM1280.49 113.652C1281.89 113.652 1283.01 114.035 1283.86 114.801C1284.71 115.559 1285.14 116.777 1285.14 118.457V127H1281.57V119.348C1281.57 118.41 1281.39 117.703 1281.05 117.227C1280.71 116.75 1280.18 116.512 1279.46 116.512C1278.36 116.512 1277.62 116.883 1277.22 117.625C1276.82 118.367 1276.62 119.438 1276.62 120.836V127H1273.05V113.898H1275.78L1276.26 115.574H1276.46C1276.74 115.121 1277.09 114.754 1277.5 114.473C1277.92 114.191 1278.39 113.984 1278.89 113.852C1279.41 113.719 1279.94 113.652 1280.49 113.652ZM1295.34 116.582H1292.25V127H1288.67V116.582H1286.71V114.859L1288.67 113.898V112.938C1288.67 111.82 1288.86 110.953 1289.24 110.336C1289.62 109.711 1290.15 109.273 1290.84 109.023C1291.54 108.766 1292.36 108.637 1293.3 108.637C1294 108.637 1294.63 108.695 1295.2 108.812C1295.77 108.922 1296.24 109.047 1296.6 109.188L1295.68 111.812C1295.41 111.727 1295.11 111.648 1294.79 111.578C1294.47 111.508 1294.1 111.473 1293.69 111.473C1293.19 111.473 1292.82 111.625 1292.59 111.93C1292.36 112.227 1292.25 112.609 1292.25 113.078V113.898H1295.34V116.582ZM1300.97 113.898V127H1297.39V113.898H1300.97ZM1299.19 108.766C1299.72 108.766 1300.17 108.891 1300.56 109.141C1300.94 109.383 1301.13 109.84 1301.13 110.512C1301.13 111.176 1300.94 111.637 1300.56 111.895C1300.17 112.145 1299.72 112.27 1299.19 112.27C1298.65 112.27 1298.19 112.145 1297.8 111.895C1297.43 111.637 1297.24 111.176 1297.24 110.512C1297.24 109.84 1297.43 109.383 1297.8 109.141C1298.19 108.891 1298.65 108.766 1299.19 108.766ZM1308.15 127.234C1306.68 127.234 1305.49 126.664 1304.57 125.523C1303.66 124.375 1303.2 122.691 1303.2 120.473C1303.2 118.23 1303.66 116.535 1304.59 115.387C1305.52 114.23 1306.74 113.652 1308.24 113.652C1308.86 113.652 1309.41 113.738 1309.89 113.91C1310.37 114.082 1310.78 114.312 1311.12 114.602C1311.47 114.891 1311.77 115.215 1312.01 115.574H1312.13C1312.08 115.324 1312.02 114.957 1311.95 114.473C1311.89 113.98 1311.86 113.477 1311.86 112.961V108.766H1315.45V127H1312.7L1312.01 125.301H1311.86C1311.63 125.66 1311.35 125.988 1311 126.285C1310.67 126.574 1310.27 126.805 1309.8 126.977C1309.33 127.148 1308.78 127.234 1308.15 127.234ZM1309.4 124.387C1310.38 124.387 1311.06 124.098 1311.46 123.52C1311.87 122.934 1312.08 122.055 1312.11 120.883V120.496C1312.11 119.223 1311.91 118.25 1311.52 117.578C1311.13 116.898 1310.4 116.559 1309.34 116.559C1308.55 116.559 1307.93 116.898 1307.49 117.578C1307.04 118.258 1306.82 119.238 1306.82 120.52C1306.82 121.801 1307.04 122.766 1307.49 123.414C1307.94 124.062 1308.58 124.387 1309.4 124.387ZM1323.87 113.652C1325.08 113.652 1326.12 113.887 1327 114.355C1327.87 114.816 1328.55 115.488 1329.02 116.371C1329.5 117.254 1329.74 118.332 1329.74 119.605V121.34H1321.29C1321.33 122.348 1321.63 123.141 1322.19 123.719C1322.76 124.289 1323.55 124.574 1324.56 124.574C1325.39 124.574 1326.16 124.488 1326.85 124.316C1327.55 124.145 1328.27 123.887 1329 123.543V126.309C1328.35 126.629 1327.67 126.863 1326.96 127.012C1326.26 127.16 1325.4 127.234 1324.39 127.234C1323.08 127.234 1321.92 126.992 1320.9 126.508C1319.89 126.023 1319.1 125.285 1318.52 124.293C1317.95 123.301 1317.67 122.051 1317.67 120.543C1317.67 119.012 1317.93 117.738 1318.44 116.723C1318.96 115.699 1319.69 114.934 1320.62 114.426C1321.55 113.91 1322.63 113.652 1323.87 113.652ZM1323.89 116.195C1323.19 116.195 1322.62 116.418 1322.16 116.863C1321.7 117.309 1321.44 118.008 1321.37 118.961H1326.39C1326.38 118.43 1326.28 117.957 1326.09 117.543C1325.91 117.129 1325.64 116.801 1325.27 116.559C1324.91 116.316 1324.45 116.195 1323.89 116.195ZM1339.37 113.652C1340.76 113.652 1341.89 114.035 1342.74 114.801C1343.59 115.559 1344.02 116.777 1344.02 118.457V127H1340.44V119.348C1340.44 118.41 1340.27 117.703 1339.93 117.227C1339.59 116.75 1339.06 116.512 1338.33 116.512C1337.24 116.512 1336.49 116.883 1336.1 117.625C1335.7 118.367 1335.5 119.438 1335.5 120.836V127H1331.92V113.898H1334.65L1335.13 115.574H1335.33C1335.62 115.121 1335.96 114.754 1336.38 114.473C1336.8 114.191 1337.26 113.984 1337.77 113.852C1338.29 113.719 1338.82 113.652 1339.37 113.652ZM1352.3 127.234C1351 127.234 1349.9 127 1348.98 126.531C1348.07 126.055 1347.37 125.32 1346.9 124.328C1346.42 123.336 1346.18 122.066 1346.18 120.52C1346.18 118.918 1346.45 117.613 1346.99 116.605C1347.54 115.59 1348.29 114.844 1349.25 114.367C1350.22 113.891 1351.34 113.652 1352.61 113.652C1353.52 113.652 1354.3 113.742 1354.96 113.922C1355.62 114.094 1356.2 114.301 1356.69 114.543L1355.64 117.309C1355.08 117.082 1354.55 116.898 1354.07 116.758C1353.58 116.609 1353.1 116.535 1352.61 116.535C1351.99 116.535 1351.47 116.684 1351.06 116.98C1350.64 117.27 1350.33 117.707 1350.13 118.293C1349.93 118.879 1349.83 119.613 1349.83 120.496C1349.83 121.363 1349.93 122.082 1350.15 122.652C1350.37 123.223 1350.69 123.648 1351.1 123.93C1351.52 124.203 1352.02 124.34 1352.61 124.34C1353.36 124.34 1354.02 124.242 1354.59 124.047C1355.17 123.844 1355.74 123.562 1356.28 123.203V126.262C1355.74 126.605 1355.16 126.852 1354.56 127C1353.97 127.156 1353.21 127.234 1352.3 127.234ZM1364.01 113.652C1365.22 113.652 1366.27 113.887 1367.14 114.355C1368.02 114.816 1368.69 115.488 1369.17 116.371C1369.64 117.254 1369.88 118.332 1369.88 119.605V121.34H1361.43C1361.47 122.348 1361.77 123.141 1362.34 123.719C1362.91 124.289 1363.69 124.574 1364.7 124.574C1365.54 124.574 1366.3 124.488 1367 124.316C1367.69 124.145 1368.41 123.887 1369.14 123.543V126.309C1368.5 126.629 1367.82 126.863 1367.11 127.012C1366.4 127.16 1365.55 127.234 1364.54 127.234C1363.23 127.234 1362.06 126.992 1361.05 126.508C1360.04 126.023 1359.25 125.285 1358.67 124.293C1358.1 123.301 1357.81 122.051 1357.81 120.543C1357.81 119.012 1358.07 117.738 1358.59 116.723C1359.11 115.699 1359.84 114.934 1360.77 114.426C1361.69 113.91 1362.78 113.652 1364.01 113.652ZM1364.03 116.195C1363.34 116.195 1362.76 116.418 1362.3 116.863C1361.85 117.309 1361.59 118.008 1361.52 118.961H1366.53C1366.52 118.43 1366.43 117.957 1366.24 117.543C1366.06 117.129 1365.78 116.801 1365.42 116.559C1365.06 116.316 1364.6 116.195 1364.03 116.195Z" fill="white"/>
<defs>
<linearGradient id="paint0_linear_14558_25602" x1="400" y1="118" x2="1700.63" y2="585.959" gradientUnits="userSpaceOnUse">
<stop stop-color="#1B4D7E"/>
<stop offset="0.33" stop-color="#2D80D2"/>
<stop offset="1" stop-color="#1B4D7E"/>
</linearGradient>
<linearGradient id="paint1_linear_14558_25602" x1="400" y1="235" x2="1625.77" y2="-441.025" gradientUnits="userSpaceOnUse">
<stop stop-color="#1B4D7E"/>
<stop offset="0.33" stop-color="#2D80D2"/>
<stop offset="1" stop-color="#1B4D7E"/>
</linearGradient>
</defs>
</svg>
