<svg width="1869" height="235" viewBox="0 0 1869 235" fill="none" xmlns="http://www.w3.org/2000/svg">
<rect y="44" width="1869" height="147" fill="#1B4D7F"/>
<path d="M1669 44V191C1287.06 191 1242.99 235 934.5 235C626.01 235 581.94 191 200 191V44C581.94 44 626.01 1.52588e-05 934.5 0C1242.99 -1.52588e-05 1287.06 44 1669 44Z" fill="url(#paint0_linear_14563_26307)"/>
<rect y="44" width="200" height="147" fill="#1B4C7E"/>
<rect x="1669" y="44" width="200" height="147" fill="#1B4D7F"/>
<mask id="mask0_14563_26307" style="mask-type:alpha" maskUnits="userSpaceOnUse" x="200" y="0" width="1469" height="235">
<path d="M1669 191V44C1287.06 44 1242.99 0 934.5 0C626.01 0 581.94 44 200 44V191C581.94 191 626.01 235 934.5 235C1242.99 235 1287.06 191 1669 191Z" fill="url(#paint1_linear_14563_26307)"/>
</mask>
<g mask="url(#mask0_14563_26307)">
<path d="M911.207 -172L1200.41 117.207L911.207 406.413L622 117.207L911.207 -172Z" fill="#2D80D2"/>
<path d="M613.207 -172L902.413 117.207L613.207 406.413L324 117.207L613.207 -172Z" fill="#2466A8"/>
<path d="M357.207 -172L646.413 117.207L357.207 406.413L68 117.207L357.207 -172Z" fill="#1B4D7E"/>
</g>
<path d="M318.102 109.867V120.953C318.102 122.133 317.84 123.199 317.316 124.152C316.801 125.098 316.016 125.848 314.961 126.402C313.914 126.957 312.594 127.234 311 127.234C308.734 127.234 307.008 126.656 305.82 125.5C304.633 124.344 304.039 122.812 304.039 120.906V109.867H307.66V120.355C307.66 121.77 307.949 122.762 308.527 123.332C309.105 123.902 309.961 124.188 311.094 124.188C311.891 124.188 312.535 124.051 313.027 123.777C313.527 123.504 313.895 123.082 314.129 122.512C314.363 121.941 314.48 121.215 314.48 120.332V109.867H318.102ZM328.737 113.652C330.135 113.652 331.26 114.035 332.112 114.801C332.964 115.559 333.389 116.777 333.389 118.457V127H329.815V119.348C329.815 118.41 329.643 117.703 329.3 117.227C328.964 116.75 328.432 116.512 327.706 116.512C326.612 116.512 325.866 116.883 325.468 117.625C325.069 118.367 324.87 119.438 324.87 120.836V127H321.296V113.898H324.026L324.507 115.574H324.706C324.987 115.121 325.335 114.754 325.749 114.473C326.171 114.191 326.635 113.984 327.143 113.852C327.659 113.719 328.19 113.652 328.737 113.652ZM340.498 127.234C339.037 127.234 337.845 126.664 336.923 125.523C336.009 124.375 335.552 122.691 335.552 120.473C335.552 118.23 336.017 116.535 336.947 115.387C337.876 114.23 339.091 113.652 340.591 113.652C341.216 113.652 341.767 113.738 342.244 113.91C342.72 114.082 343.13 114.312 343.474 114.602C343.826 114.891 344.123 115.215 344.365 115.574H344.482C344.435 115.324 344.376 114.957 344.306 114.473C344.244 113.98 344.212 113.477 344.212 112.961V108.766H347.798V127H345.056L344.365 125.301H344.212C343.986 125.66 343.701 125.988 343.357 126.285C343.021 126.574 342.619 126.805 342.15 126.977C341.681 127.148 341.13 127.234 340.498 127.234ZM341.751 124.387C342.728 124.387 343.415 124.098 343.814 123.52C344.22 122.934 344.435 122.055 344.458 120.883V120.496C344.458 119.223 344.263 118.25 343.873 117.578C343.482 116.898 342.755 116.559 341.693 116.559C340.904 116.559 340.287 116.898 339.841 117.578C339.396 118.258 339.173 119.238 339.173 120.52C339.173 121.801 339.396 122.766 339.841 123.414C340.294 124.062 340.931 124.387 341.751 124.387ZM356.219 113.652C357.43 113.652 358.473 113.887 359.348 114.355C360.223 114.816 360.899 115.488 361.375 116.371C361.852 117.254 362.09 118.332 362.09 119.605V121.34H353.641C353.68 122.348 353.981 123.141 354.543 123.719C355.113 124.289 355.903 124.574 356.91 124.574C357.746 124.574 358.512 124.488 359.207 124.316C359.903 124.145 360.617 123.887 361.352 123.543V126.309C360.703 126.629 360.024 126.863 359.313 127.012C358.61 127.16 357.754 127.234 356.746 127.234C355.434 127.234 354.27 126.992 353.254 126.508C352.246 126.023 351.453 125.285 350.875 124.293C350.305 123.301 350.02 122.051 350.02 120.543C350.02 119.012 350.278 117.738 350.793 116.723C351.317 115.699 352.043 114.934 352.973 114.426C353.903 113.91 354.985 113.652 356.219 113.652ZM356.242 116.195C355.547 116.195 354.969 116.418 354.508 116.863C354.055 117.309 353.793 118.008 353.723 118.961H358.738C358.731 118.43 358.633 117.957 358.445 117.543C358.266 117.129 357.992 116.801 357.625 116.559C357.266 116.316 356.805 116.195 356.242 116.195ZM371.589 113.652C371.768 113.652 371.975 113.664 372.21 113.688C372.452 113.703 372.647 113.727 372.796 113.758L372.526 117.109C372.409 117.07 372.241 117.043 372.022 117.027C371.811 117.004 371.628 116.992 371.472 116.992C371.011 116.992 370.561 117.051 370.124 117.168C369.694 117.285 369.307 117.477 368.964 117.742C368.62 118 368.347 118.344 368.143 118.773C367.948 119.195 367.85 119.715 367.85 120.332V127H364.276V113.898H366.983L367.511 116.102H367.686C367.944 115.656 368.265 115.25 368.647 114.883C369.038 114.508 369.479 114.211 369.972 113.992C370.472 113.766 371.011 113.652 371.589 113.652ZM383.595 123.109C383.595 124 383.384 124.754 382.963 125.371C382.548 125.98 381.927 126.445 381.099 126.766C380.271 127.078 379.24 127.234 378.005 127.234C377.091 127.234 376.306 127.176 375.65 127.059C375.002 126.941 374.345 126.746 373.681 126.473V123.52C374.392 123.84 375.154 124.105 375.966 124.316C376.787 124.52 377.505 124.621 378.123 124.621C378.818 124.621 379.314 124.52 379.611 124.316C379.916 124.105 380.068 123.832 380.068 123.496C380.068 123.277 380.005 123.082 379.88 122.91C379.763 122.73 379.505 122.531 379.107 122.312C378.709 122.086 378.084 121.793 377.232 121.434C376.412 121.09 375.736 120.742 375.205 120.391C374.681 120.039 374.291 119.625 374.033 119.148C373.783 118.664 373.658 118.051 373.658 117.309C373.658 116.098 374.127 115.188 375.064 114.578C376.009 113.961 377.271 113.652 378.849 113.652C379.662 113.652 380.435 113.734 381.17 113.898C381.912 114.062 382.673 114.324 383.455 114.684L382.377 117.262C381.728 116.98 381.115 116.75 380.537 116.57C379.966 116.391 379.384 116.301 378.791 116.301C378.267 116.301 377.873 116.371 377.607 116.512C377.341 116.652 377.209 116.867 377.209 117.156C377.209 117.367 377.275 117.555 377.408 117.719C377.548 117.883 377.814 118.066 378.205 118.27C378.603 118.465 379.185 118.719 379.951 119.031C380.693 119.336 381.338 119.656 381.884 119.992C382.431 120.32 382.853 120.73 383.15 121.223C383.447 121.707 383.595 122.336 383.595 123.109ZM391.184 124.387C391.575 124.387 391.953 124.348 392.321 124.27C392.696 124.191 393.067 124.094 393.434 123.977V126.637C393.051 126.809 392.575 126.949 392.004 127.059C391.442 127.176 390.825 127.234 390.153 127.234C389.371 127.234 388.668 127.109 388.043 126.859C387.426 126.602 386.938 126.16 386.578 125.535C386.227 124.902 386.051 124.023 386.051 122.898V116.582H384.34V115.07L386.309 113.875L387.34 111.109H389.625V113.898H393.293V116.582H389.625V122.898C389.625 123.398 389.766 123.773 390.047 124.023C390.336 124.266 390.715 124.387 391.184 124.387ZM400.741 113.629C402.499 113.629 403.847 114.012 404.784 114.777C405.722 115.543 406.19 116.707 406.19 118.27V127H403.694L403.003 125.219H402.909C402.534 125.688 402.151 126.07 401.761 126.367C401.37 126.664 400.921 126.883 400.413 127.023C399.905 127.164 399.288 127.234 398.562 127.234C397.788 127.234 397.093 127.086 396.476 126.789C395.866 126.492 395.386 126.039 395.034 125.43C394.683 124.812 394.507 124.031 394.507 123.086C394.507 121.695 394.995 120.672 395.972 120.016C396.948 119.352 398.413 118.984 400.366 118.914L402.64 118.844V118.27C402.64 117.582 402.46 117.078 402.101 116.758C401.741 116.438 401.241 116.277 400.601 116.277C399.968 116.277 399.347 116.367 398.737 116.547C398.128 116.727 397.519 116.953 396.909 117.227L395.726 114.812C396.421 114.445 397.198 114.156 398.058 113.945C398.925 113.734 399.819 113.629 400.741 113.629ZM402.64 120.93L401.257 120.977C400.101 121.008 399.296 121.215 398.843 121.598C398.397 121.98 398.175 122.484 398.175 123.109C398.175 123.656 398.335 124.047 398.655 124.281C398.976 124.508 399.394 124.621 399.909 124.621C400.675 124.621 401.319 124.395 401.843 123.941C402.374 123.488 402.64 122.844 402.64 122.008V120.93ZM416.603 113.652C418.002 113.652 419.127 114.035 419.978 114.801C420.83 115.559 421.256 116.777 421.256 118.457V127H417.681V119.348C417.681 118.41 417.51 117.703 417.166 117.227C416.83 116.75 416.299 116.512 415.572 116.512C414.478 116.512 413.732 116.883 413.334 117.625C412.935 118.367 412.736 119.438 412.736 120.836V127H409.162V113.898H411.892L412.373 115.574H412.572C412.853 115.121 413.201 114.754 413.615 114.473C414.037 114.191 414.502 113.984 415.01 113.852C415.525 113.719 416.056 113.652 416.603 113.652ZM428.364 127.234C426.903 127.234 425.711 126.664 424.79 125.523C423.875 124.375 423.418 122.691 423.418 120.473C423.418 118.23 423.883 116.535 424.813 115.387C425.743 114.23 426.957 113.652 428.457 113.652C429.082 113.652 429.633 113.738 430.11 113.91C430.586 114.082 430.997 114.312 431.34 114.602C431.692 114.891 431.989 115.215 432.231 115.574H432.348C432.301 115.324 432.243 114.957 432.172 114.473C432.11 113.98 432.079 113.477 432.079 112.961V108.766H435.665V127H432.922L432.231 125.301H432.079C431.852 125.66 431.567 125.988 431.223 126.285C430.887 126.574 430.485 126.805 430.016 126.977C429.547 127.148 428.997 127.234 428.364 127.234ZM429.618 124.387C430.594 124.387 431.282 124.098 431.68 123.52C432.086 122.934 432.301 122.055 432.325 120.883V120.496C432.325 119.223 432.129 118.25 431.739 117.578C431.348 116.898 430.622 116.559 429.559 116.559C428.77 116.559 428.153 116.898 427.707 117.578C427.262 118.258 427.04 119.238 427.04 120.52C427.04 121.801 427.262 122.766 427.707 123.414C428.161 124.062 428.797 124.387 429.618 124.387ZM442.322 113.898H446.236L448.709 121.27C448.787 121.504 448.853 121.742 448.908 121.984C448.963 122.227 449.01 122.477 449.049 122.734C449.088 122.992 449.119 123.262 449.143 123.543H449.213C449.26 123.121 449.322 122.727 449.4 122.359C449.486 121.992 449.592 121.629 449.717 121.27L452.143 113.898H455.975L450.432 128.676C450.096 129.582 449.658 130.336 449.119 130.938C448.58 131.547 447.959 132.004 447.256 132.309C446.56 132.613 445.795 132.766 444.959 132.766C444.553 132.766 444.201 132.742 443.904 132.695C443.607 132.656 443.353 132.613 443.143 132.566V129.73C443.307 129.77 443.514 129.805 443.764 129.836C444.014 129.867 444.275 129.883 444.549 129.883C445.049 129.883 445.478 129.777 445.838 129.566C446.197 129.355 446.498 129.07 446.74 128.711C446.982 128.359 447.174 127.973 447.314 127.551L447.525 126.906L442.322 113.898ZM469.048 120.426C469.048 121.52 468.899 122.488 468.602 123.332C468.313 124.176 467.887 124.891 467.325 125.477C466.77 126.055 466.098 126.492 465.309 126.789C464.528 127.086 463.645 127.234 462.661 127.234C461.739 127.234 460.891 127.086 460.118 126.789C459.352 126.492 458.684 126.055 458.114 125.477C457.551 124.891 457.114 124.176 456.801 123.332C456.497 122.488 456.344 121.52 456.344 120.426C456.344 118.973 456.602 117.742 457.118 116.734C457.633 115.727 458.368 114.961 459.321 114.438C460.274 113.914 461.411 113.652 462.731 113.652C463.958 113.652 465.044 113.914 465.989 114.438C466.942 114.961 467.688 115.727 468.227 116.734C468.774 117.742 469.048 118.973 469.048 120.426ZM459.989 120.426C459.989 121.285 460.083 122.008 460.27 122.594C460.458 123.18 460.751 123.621 461.149 123.918C461.548 124.215 462.067 124.363 462.708 124.363C463.34 124.363 463.852 124.215 464.243 123.918C464.641 123.621 464.93 123.18 465.11 122.594C465.298 122.008 465.391 121.285 465.391 120.426C465.391 119.559 465.298 118.84 465.11 118.27C464.93 117.691 464.641 117.258 464.243 116.969C463.844 116.68 463.325 116.535 462.684 116.535C461.739 116.535 461.051 116.859 460.622 117.508C460.2 118.156 459.989 119.129 459.989 120.426ZM483.304 113.898V127H480.562L480.081 125.324H479.894C479.613 125.77 479.261 126.133 478.839 126.414C478.417 126.695 477.952 126.902 477.445 127.035C476.937 127.168 476.41 127.234 475.863 127.234C474.925 127.234 474.109 127.07 473.413 126.742C472.718 126.406 472.175 125.887 471.785 125.184C471.402 124.48 471.21 123.566 471.21 122.441V113.898H474.785V121.551C474.785 122.488 474.952 123.195 475.288 123.672C475.624 124.148 476.16 124.387 476.894 124.387C477.62 124.387 478.191 124.223 478.605 123.895C479.019 123.559 479.308 123.07 479.472 122.43C479.644 121.781 479.73 120.992 479.73 120.062V113.898H483.304ZM493.647 113.652C493.826 113.652 494.033 113.664 494.268 113.688C494.51 113.703 494.705 113.727 494.854 113.758L494.584 117.109C494.467 117.07 494.299 117.043 494.08 117.027C493.869 117.004 493.686 116.992 493.529 116.992C493.068 116.992 492.619 117.051 492.182 117.168C491.752 117.285 491.365 117.477 491.022 117.742C490.678 118 490.404 118.344 490.201 118.773C490.006 119.195 489.908 119.715 489.908 120.332V127H486.334V113.898H489.041L489.568 116.102H489.744C490.002 115.656 490.322 115.25 490.705 114.883C491.096 114.508 491.537 114.211 492.029 113.992C492.529 113.766 493.068 113.652 493.647 113.652ZM511.167 123.109C511.167 124 510.957 124.754 510.535 125.371C510.121 125.98 509.5 126.445 508.671 126.766C507.843 127.078 506.812 127.234 505.578 127.234C504.664 127.234 503.878 127.176 503.222 127.059C502.574 126.941 501.917 126.746 501.253 126.473V123.52C501.964 123.84 502.726 124.105 503.539 124.316C504.359 124.52 505.078 124.621 505.695 124.621C506.39 124.621 506.886 124.52 507.183 124.316C507.488 124.105 507.64 123.832 507.64 123.496C507.64 123.277 507.578 123.082 507.453 122.91C507.335 122.73 507.078 122.531 506.679 122.312C506.281 122.086 505.656 121.793 504.804 121.434C503.984 121.09 503.308 120.742 502.777 120.391C502.253 120.039 501.863 119.625 501.605 119.148C501.355 118.664 501.23 118.051 501.23 117.309C501.23 116.098 501.699 115.188 502.636 114.578C503.582 113.961 504.843 113.652 506.421 113.652C507.234 113.652 508.007 113.734 508.742 113.898C509.484 114.062 510.246 114.324 511.027 114.684L509.949 117.262C509.3 116.98 508.687 116.75 508.109 116.57C507.539 116.391 506.957 116.301 506.363 116.301C505.839 116.301 505.445 116.371 505.179 116.512C504.914 116.652 504.781 116.867 504.781 117.156C504.781 117.367 504.847 117.555 504.98 117.719C505.121 117.883 505.386 118.066 505.777 118.27C506.175 118.465 506.757 118.719 507.523 119.031C508.265 119.336 508.91 119.656 509.457 119.992C510.003 120.32 510.425 120.73 510.722 121.223C511.019 121.707 511.167 122.336 511.167 123.109ZM518.756 124.387C519.147 124.387 519.526 124.348 519.893 124.27C520.268 124.191 520.639 124.094 521.006 123.977V126.637C520.623 126.809 520.147 126.949 519.576 127.059C519.014 127.176 518.397 127.234 517.725 127.234C516.944 127.234 516.24 127.109 515.615 126.859C514.998 126.602 514.51 126.16 514.151 125.535C513.799 124.902 513.623 124.023 513.623 122.898V116.582H511.912V115.07L513.881 113.875L514.912 111.109H517.197V113.898H520.865V116.582H517.197V122.898C517.197 123.398 517.338 123.773 517.619 124.023C517.908 124.266 518.287 124.387 518.756 124.387ZM530.259 113.652C530.438 113.652 530.645 113.664 530.88 113.688C531.122 113.703 531.317 113.727 531.466 113.758L531.196 117.109C531.079 117.07 530.911 117.043 530.692 117.027C530.481 117.004 530.298 116.992 530.142 116.992C529.681 116.992 529.231 117.051 528.794 117.168C528.364 117.285 527.977 117.477 527.634 117.742C527.29 118 527.017 118.344 526.813 118.773C526.618 119.195 526.52 119.715 526.52 120.332V127H522.946V113.898H525.653L526.181 116.102H526.356C526.614 115.656 526.935 115.25 527.317 114.883C527.708 114.508 528.149 114.211 528.642 113.992C529.142 113.766 529.681 113.652 530.259 113.652ZM538.527 113.652C539.738 113.652 540.781 113.887 541.656 114.355C542.531 114.816 543.207 115.488 543.683 116.371C544.16 117.254 544.398 118.332 544.398 119.605V121.34H535.949C535.988 122.348 536.289 123.141 536.851 123.719C537.422 124.289 538.211 124.574 539.218 124.574C540.054 124.574 540.82 124.488 541.515 124.316C542.211 124.145 542.925 123.887 543.66 123.543V126.309C543.011 126.629 542.332 126.863 541.621 127.012C540.918 127.16 540.062 127.234 539.054 127.234C537.742 127.234 536.578 126.992 535.562 126.508C534.554 126.023 533.761 125.285 533.183 124.293C532.613 123.301 532.328 122.051 532.328 120.543C532.328 119.012 532.586 117.738 533.101 116.723C533.625 115.699 534.351 114.934 535.281 114.426C536.211 113.91 537.293 113.652 538.527 113.652ZM538.55 116.195C537.855 116.195 537.277 116.418 536.816 116.863C536.363 117.309 536.101 118.008 536.031 118.961H541.047C541.039 118.43 540.941 117.957 540.754 117.543C540.574 117.129 540.3 116.801 539.933 116.559C539.574 116.316 539.113 116.195 538.55 116.195ZM554.026 113.652C555.424 113.652 556.549 114.035 557.401 114.801C558.252 115.559 558.678 116.777 558.678 118.457V127H555.104V119.348C555.104 118.41 554.932 117.703 554.588 117.227C554.252 116.75 553.721 116.512 552.995 116.512C551.901 116.512 551.155 116.883 550.756 117.625C550.358 118.367 550.159 119.438 550.159 120.836V127H546.584V113.898H549.315L549.795 115.574H549.995C550.276 115.121 550.623 114.754 551.038 114.473C551.459 114.191 551.924 113.984 552.432 113.852C552.948 113.719 553.479 113.652 554.026 113.652ZM565.47 132.766C563.642 132.766 562.243 132.445 561.275 131.805C560.314 131.172 559.833 130.281 559.833 129.133C559.833 128.344 560.079 127.684 560.571 127.152C561.064 126.621 561.786 126.242 562.739 126.016C562.372 125.859 562.052 125.605 561.778 125.254C561.505 124.895 561.368 124.516 561.368 124.117C561.368 123.617 561.513 123.203 561.802 122.875C562.091 122.539 562.509 122.211 563.056 121.891C562.368 121.594 561.821 121.117 561.415 120.461C561.017 119.805 560.818 119.031 560.818 118.141C560.818 117.188 561.025 116.379 561.439 115.715C561.86 115.043 562.47 114.531 563.267 114.18C564.071 113.828 565.048 113.652 566.196 113.652C566.439 113.652 566.72 113.668 567.04 113.699C567.36 113.73 567.653 113.766 567.919 113.805C568.193 113.844 568.376 113.875 568.47 113.898H573.04V115.715L570.989 116.242C571.177 116.531 571.318 116.84 571.411 117.168C571.505 117.496 571.552 117.844 571.552 118.211C571.552 119.617 571.06 120.715 570.075 121.504C569.099 122.285 567.739 122.676 565.997 122.676C565.583 122.652 565.193 122.621 564.825 122.582C564.646 122.723 564.509 122.871 564.415 123.027C564.321 123.184 564.275 123.348 564.275 123.52C564.275 123.691 564.345 123.836 564.485 123.953C564.634 124.062 564.853 124.148 565.142 124.211C565.439 124.266 565.806 124.293 566.243 124.293H568.47C569.907 124.293 571.001 124.602 571.751 125.219C572.509 125.836 572.888 126.742 572.888 127.938C572.888 129.469 572.247 130.656 570.966 131.5C569.693 132.344 567.86 132.766 565.47 132.766ZM565.622 130.434C566.474 130.434 567.204 130.352 567.814 130.188C568.431 130.031 568.903 129.805 569.232 129.508C569.56 129.219 569.724 128.871 569.724 128.465C569.724 128.137 569.626 127.875 569.431 127.68C569.243 127.492 568.954 127.359 568.564 127.281C568.181 127.203 567.689 127.164 567.087 127.164H565.235C564.798 127.164 564.403 127.234 564.052 127.375C563.708 127.516 563.435 127.711 563.232 127.961C563.028 128.219 562.927 128.516 562.927 128.852C562.927 129.344 563.161 129.73 563.63 130.012C564.107 130.293 564.771 130.434 565.622 130.434ZM566.196 120.496C566.868 120.496 567.36 120.289 567.673 119.875C567.985 119.461 568.142 118.898 568.142 118.188C568.142 117.398 567.978 116.809 567.65 116.418C567.329 116.02 566.845 115.82 566.196 115.82C565.54 115.82 565.048 116.02 564.72 116.418C564.392 116.809 564.228 117.398 564.228 118.188C564.228 118.898 564.388 119.461 564.708 119.875C565.036 120.289 565.532 120.496 566.196 120.496ZM580.008 124.387C580.398 124.387 580.777 124.348 581.144 124.27C581.519 124.191 581.89 124.094 582.258 123.977V126.637C581.875 126.809 581.398 126.949 580.828 127.059C580.265 127.176 579.648 127.234 578.976 127.234C578.195 127.234 577.492 127.109 576.867 126.859C576.25 126.602 575.762 126.16 575.402 125.535C575.051 124.902 574.875 124.023 574.875 122.898V116.582H573.164V115.07L575.133 113.875L576.164 111.109H578.449V113.898H582.117V116.582H578.449V122.898C578.449 123.398 578.59 123.773 578.871 124.023C579.16 124.266 579.539 124.387 580.008 124.387ZM587.772 108.766V112.48C587.772 113.129 587.749 113.746 587.702 114.332C587.663 114.918 587.631 115.332 587.608 115.574H587.795C588.077 115.121 588.409 114.754 588.792 114.473C589.182 114.191 589.612 113.984 590.081 113.852C590.549 113.719 591.053 113.652 591.592 113.652C592.538 113.652 593.362 113.82 594.065 114.156C594.768 114.484 595.315 115.004 595.706 115.715C596.096 116.418 596.292 117.332 596.292 118.457V127H592.717V119.348C592.717 118.41 592.545 117.703 592.202 117.227C591.858 116.75 591.327 116.512 590.608 116.512C589.889 116.512 589.323 116.68 588.909 117.016C588.495 117.344 588.202 117.832 588.03 118.48C587.858 119.121 587.772 119.906 587.772 120.836V127H584.198V108.766H587.772ZM608.392 123.109C608.392 124 608.181 124.754 607.759 125.371C607.345 125.98 606.724 126.445 605.896 126.766C605.068 127.078 604.036 127.234 602.802 127.234C601.888 127.234 601.103 127.176 600.447 127.059C599.798 126.941 599.142 126.746 598.478 126.473V123.52C599.189 123.84 599.95 124.105 600.763 124.316C601.583 124.52 602.302 124.621 602.919 124.621C603.615 124.621 604.111 124.52 604.408 124.316C604.712 124.105 604.865 123.832 604.865 123.496C604.865 123.277 604.802 123.082 604.677 122.91C604.56 122.73 604.302 122.531 603.904 122.312C603.505 122.086 602.88 121.793 602.029 121.434C601.208 121.09 600.533 120.742 600.001 120.391C599.478 120.039 599.087 119.625 598.829 119.148C598.579 118.664 598.454 118.051 598.454 117.309C598.454 116.098 598.923 115.188 599.861 114.578C600.806 113.961 602.068 113.652 603.646 113.652C604.458 113.652 605.232 113.734 605.966 113.898C606.708 114.062 607.47 114.324 608.251 114.684L607.173 117.262C606.525 116.98 605.911 116.75 605.333 116.57C604.763 116.391 604.181 116.301 603.587 116.301C603.064 116.301 602.669 116.371 602.404 116.512C602.138 116.652 602.005 116.867 602.005 117.156C602.005 117.367 602.072 117.555 602.204 117.719C602.345 117.883 602.611 118.066 603.001 118.27C603.4 118.465 603.982 118.719 604.747 119.031C605.49 119.336 606.134 119.656 606.681 119.992C607.228 120.32 607.65 120.73 607.947 121.223C608.243 121.707 608.392 122.336 608.392 123.109Z" fill="white"/>
<path d="M682.023 127H672.156V109.867H682.023V112.844H675.789V116.605H681.59V119.582H675.789V124H682.023V127ZM688.182 127H684.608V108.766H688.182V127ZM694.798 113.898V127H691.224V113.898H694.798ZM693.017 108.766C693.548 108.766 694.005 108.891 694.388 109.141C694.771 109.383 694.962 109.84 694.962 110.512C694.962 111.176 694.771 111.637 694.388 111.895C694.005 112.145 693.548 112.27 693.017 112.27C692.478 112.27 692.017 112.145 691.634 111.895C691.259 111.637 691.072 111.176 691.072 110.512C691.072 109.84 691.259 109.383 691.634 109.141C692.017 108.891 692.478 108.766 693.017 108.766ZM713.227 113.652C714.711 113.652 715.832 114.035 716.59 114.801C717.356 115.559 717.738 116.777 717.738 118.457V127H714.153V119.348C714.153 118.41 713.992 117.703 713.672 117.227C713.352 116.75 712.856 116.512 712.184 116.512C711.238 116.512 710.567 116.852 710.168 117.531C709.77 118.203 709.57 119.168 709.57 120.426V127H705.996V119.348C705.996 118.723 705.926 118.199 705.785 117.777C705.645 117.355 705.43 117.039 705.141 116.828C704.852 116.617 704.481 116.512 704.028 116.512C703.363 116.512 702.84 116.68 702.457 117.016C702.082 117.344 701.813 117.832 701.649 118.48C701.492 119.121 701.414 119.906 701.414 120.836V127H697.84V113.898H700.57L701.051 115.574H701.25C701.516 115.121 701.848 114.754 702.246 114.473C702.653 114.191 703.098 113.984 703.582 113.852C704.067 113.719 704.559 113.652 705.059 113.652C706.02 113.652 706.832 113.809 707.496 114.121C708.168 114.434 708.684 114.918 709.043 115.574H709.36C709.75 114.902 710.301 114.414 711.012 114.109C711.731 113.805 712.469 113.652 713.227 113.652ZM724.272 113.898V127H720.698V113.898H724.272ZM722.491 108.766C723.022 108.766 723.479 108.891 723.862 109.141C724.245 109.383 724.436 109.84 724.436 110.512C724.436 111.176 724.245 111.637 723.862 111.895C723.479 112.145 723.022 112.27 722.491 112.27C721.952 112.27 721.491 112.145 721.108 111.895C720.733 111.637 720.546 111.176 720.546 110.512C720.546 109.84 720.733 109.383 721.108 109.141C721.491 108.891 721.952 108.766 722.491 108.766ZM734.755 113.652C736.154 113.652 737.279 114.035 738.13 114.801C738.982 115.559 739.408 116.777 739.408 118.457V127H735.834V119.348C735.834 118.41 735.662 117.703 735.318 117.227C734.982 116.75 734.451 116.512 733.724 116.512C732.63 116.512 731.884 116.883 731.486 117.625C731.088 118.367 730.888 119.438 730.888 120.836V127H727.314V113.898H730.045L730.525 115.574H730.724C731.005 115.121 731.353 114.754 731.767 114.473C732.189 114.191 732.654 113.984 733.162 113.852C733.677 113.719 734.209 113.652 734.755 113.652ZM747.735 113.629C749.493 113.629 750.84 114.012 751.778 114.777C752.715 115.543 753.184 116.707 753.184 118.27V127H750.688L749.996 125.219H749.903C749.528 125.688 749.145 126.07 748.754 126.367C748.364 126.664 747.914 126.883 747.407 127.023C746.899 127.164 746.282 127.234 745.555 127.234C744.782 127.234 744.086 127.086 743.469 126.789C742.86 126.492 742.379 126.039 742.028 125.43C741.676 124.812 741.5 124.031 741.5 123.086C741.5 121.695 741.989 120.672 742.965 120.016C743.942 119.352 745.407 118.984 747.36 118.914L749.633 118.844V118.27C749.633 117.582 749.453 117.078 749.094 116.758C748.735 116.438 748.235 116.277 747.594 116.277C746.961 116.277 746.34 116.367 745.731 116.547C745.121 116.727 744.512 116.953 743.903 117.227L742.719 114.812C743.414 114.445 744.192 114.156 745.051 113.945C745.918 113.734 746.813 113.629 747.735 113.629ZM749.633 120.93L748.25 120.977C747.094 121.008 746.289 121.215 745.836 121.598C745.391 121.98 745.168 122.484 745.168 123.109C745.168 123.656 745.328 124.047 745.649 124.281C745.969 124.508 746.387 124.621 746.903 124.621C747.668 124.621 748.313 124.395 748.836 123.941C749.368 123.488 749.633 122.844 749.633 122.008V120.93ZM761.675 124.387C762.065 124.387 762.444 124.348 762.812 124.27C763.187 124.191 763.558 124.094 763.925 123.977V126.637C763.542 126.809 763.065 126.949 762.495 127.059C761.933 127.176 761.315 127.234 760.644 127.234C759.862 127.234 759.159 127.109 758.534 126.859C757.917 126.602 757.429 126.16 757.069 125.535C756.718 124.902 756.542 124.023 756.542 122.898V116.582H754.831V115.07L756.8 113.875L757.831 111.109H760.116V113.898H763.784V116.582H760.116V122.898C760.116 123.398 760.257 123.773 760.538 124.023C760.827 124.266 761.206 124.387 761.675 124.387ZM771.267 113.652C772.478 113.652 773.521 113.887 774.396 114.355C775.271 114.816 775.947 115.488 776.424 116.371C776.9 117.254 777.138 118.332 777.138 119.605V121.34H768.689C768.728 122.348 769.029 123.141 769.592 123.719C770.162 124.289 770.951 124.574 771.959 124.574C772.795 124.574 773.56 124.488 774.256 124.316C774.951 124.145 775.666 123.887 776.4 123.543V126.309C775.752 126.629 775.072 126.863 774.361 127.012C773.658 127.16 772.802 127.234 771.795 127.234C770.482 127.234 769.318 126.992 768.302 126.508C767.295 126.023 766.502 125.285 765.924 124.293C765.353 123.301 765.068 122.051 765.068 120.543C765.068 119.012 765.326 117.738 765.842 116.723C766.365 115.699 767.092 114.934 768.021 114.426C768.951 113.91 770.033 113.652 771.267 113.652ZM771.291 116.195C770.595 116.195 770.017 116.418 769.556 116.863C769.103 117.309 768.842 118.008 768.771 118.961H773.787C773.779 118.43 773.681 117.957 773.494 117.543C773.314 117.129 773.041 116.801 772.674 116.559C772.314 116.316 771.853 116.195 771.291 116.195ZM792.152 113.652C792.331 113.652 792.538 113.664 792.773 113.688C793.015 113.703 793.21 113.727 793.359 113.758L793.089 117.109C792.972 117.07 792.804 117.043 792.585 117.027C792.374 117.004 792.191 116.992 792.034 116.992C791.573 116.992 791.124 117.051 790.687 117.168C790.257 117.285 789.87 117.477 789.527 117.742C789.183 118 788.909 118.344 788.706 118.773C788.511 119.195 788.413 119.715 788.413 120.332V127H784.839V113.898H787.546L788.073 116.102H788.249C788.507 115.656 788.827 115.25 789.21 114.883C789.601 114.508 790.042 114.211 790.534 113.992C791.034 113.766 791.573 113.652 792.152 113.652ZM798.592 113.898V127H795.018V113.898H798.592ZM796.81 108.766C797.342 108.766 797.799 108.891 798.182 109.141C798.564 109.383 798.756 109.84 798.756 110.512C798.756 111.176 798.564 111.637 798.182 111.895C797.799 112.145 797.342 112.27 796.81 112.27C796.271 112.27 795.81 112.145 795.428 111.895C795.053 111.637 794.865 111.176 794.865 110.512C794.865 109.84 795.053 109.383 795.428 109.141C795.81 108.891 796.271 108.766 796.81 108.766ZM810.774 123.109C810.774 124 810.563 124.754 810.141 125.371C809.727 125.98 809.106 126.445 808.278 126.766C807.45 127.078 806.419 127.234 805.184 127.234C804.27 127.234 803.485 127.176 802.829 127.059C802.18 126.941 801.524 126.746 800.86 126.473V123.52C801.571 123.84 802.333 124.105 803.145 124.316C803.965 124.52 804.684 124.621 805.301 124.621C805.997 124.621 806.493 124.52 806.79 124.316C807.094 124.105 807.247 123.832 807.247 123.496C807.247 123.277 807.184 123.082 807.059 122.91C806.942 122.73 806.684 122.531 806.286 122.312C805.887 122.086 805.262 121.793 804.411 121.434C803.59 121.09 802.915 120.742 802.383 120.391C801.86 120.039 801.469 119.625 801.212 119.148C800.962 118.664 800.837 118.051 800.837 117.309C800.837 116.098 801.305 115.188 802.243 114.578C803.188 113.961 804.45 113.652 806.028 113.652C806.84 113.652 807.614 113.734 808.348 113.898C809.09 114.062 809.852 114.324 810.633 114.684L809.555 117.262C808.907 116.98 808.294 116.75 807.715 116.57C807.145 116.391 806.563 116.301 805.969 116.301C805.446 116.301 805.051 116.371 804.786 116.512C804.52 116.652 804.387 116.867 804.387 117.156C804.387 117.367 804.454 117.555 804.587 117.719C804.727 117.883 804.993 118.066 805.383 118.27C805.782 118.465 806.364 118.719 807.13 119.031C807.872 119.336 808.516 119.656 809.063 119.992C809.61 120.32 810.032 120.73 810.329 121.223C810.626 121.707 810.774 122.336 810.774 123.109ZM816.417 108.766V116.922C816.417 117.414 816.398 117.906 816.359 118.398C816.32 118.891 816.277 119.383 816.23 119.875H816.277C816.519 119.531 816.765 119.191 817.015 118.855C817.273 118.52 817.546 118.195 817.835 117.883L821.503 113.898H825.535L820.331 119.582L825.851 127H821.726L817.952 121.691L816.417 122.922V127H812.843V108.766H816.417ZM836.147 123.109C836.147 124 835.936 124.754 835.514 125.371C835.1 125.98 834.479 126.445 833.65 126.766C832.822 127.078 831.791 127.234 830.557 127.234C829.643 127.234 828.857 127.176 828.201 127.059C827.553 126.941 826.897 126.746 826.232 126.473V123.52C826.943 123.84 827.705 124.105 828.518 124.316C829.338 124.52 830.057 124.621 830.674 124.621C831.369 124.621 831.865 124.52 832.162 124.316C832.467 124.105 832.619 123.832 832.619 123.496C832.619 123.277 832.557 123.082 832.432 122.91C832.315 122.73 832.057 122.531 831.658 122.312C831.26 122.086 830.635 121.793 829.783 121.434C828.963 121.09 828.287 120.742 827.756 120.391C827.232 120.039 826.842 119.625 826.584 119.148C826.334 118.664 826.209 118.051 826.209 117.309C826.209 116.098 826.678 115.188 827.615 114.578C828.561 113.961 829.822 113.652 831.4 113.652C832.213 113.652 832.986 113.734 833.721 113.898C834.463 114.062 835.225 114.324 836.006 114.684L834.928 117.262C834.279 116.98 833.666 116.75 833.088 116.57C832.518 116.391 831.936 116.301 831.342 116.301C830.818 116.301 830.424 116.371 830.158 116.512C829.893 116.652 829.76 116.867 829.76 117.156C829.76 117.367 829.826 117.555 829.959 117.719C830.1 117.883 830.365 118.066 830.756 118.27C831.154 118.465 831.736 118.719 832.502 119.031C833.244 119.336 833.889 119.656 834.436 119.992C834.982 120.32 835.404 120.73 835.701 121.223C835.998 121.707 836.147 122.336 836.147 123.109Z" fill="white"/>
<path d="M927.156 109.867H932.488C934.77 109.867 936.496 110.188 937.668 110.828C938.84 111.469 939.426 112.594 939.426 114.203C939.426 114.852 939.32 115.438 939.109 115.961C938.906 116.484 938.609 116.914 938.219 117.25C937.828 117.586 937.352 117.805 936.789 117.906V118.023C937.359 118.141 937.875 118.344 938.336 118.633C938.797 118.914 939.164 119.328 939.438 119.875C939.719 120.414 939.859 121.133 939.859 122.031C939.859 123.07 939.605 123.961 939.098 124.703C938.59 125.445 937.863 126.016 936.918 126.414C935.98 126.805 934.863 127 933.566 127H927.156V109.867ZM930.789 116.652H932.898C933.953 116.652 934.684 116.488 935.09 116.16C935.496 115.824 935.699 115.332 935.699 114.684C935.699 114.027 935.457 113.559 934.973 113.277C934.496 112.988 933.738 112.844 932.699 112.844H930.789V116.652ZM930.789 119.535V124H933.156C934.25 124 935.012 123.789 935.441 123.367C935.871 122.945 936.086 122.379 936.086 121.668C936.086 121.246 935.992 120.875 935.805 120.555C935.617 120.234 935.301 119.984 934.855 119.805C934.418 119.625 933.812 119.535 933.039 119.535H930.789ZM954.303 113.898V127H951.561L951.081 125.324H950.893C950.612 125.77 950.26 126.133 949.839 126.414C949.417 126.695 948.952 126.902 948.444 127.035C947.936 127.168 947.409 127.234 946.862 127.234C945.925 127.234 945.108 127.07 944.413 126.742C943.717 126.406 943.175 125.887 942.784 125.184C942.401 124.48 942.21 123.566 942.21 122.441V113.898H945.784V121.551C945.784 122.488 945.952 123.195 946.288 123.672C946.624 124.148 947.159 124.387 947.893 124.387C948.62 124.387 949.19 124.223 949.604 123.895C950.018 123.559 950.307 123.07 950.471 122.43C950.643 121.781 950.729 120.992 950.729 120.062V113.898H954.303ZM960.908 113.898V127H957.333V113.898H960.908ZM959.126 108.766C959.658 108.766 960.115 108.891 960.497 109.141C960.88 109.383 961.072 109.84 961.072 110.512C961.072 111.176 960.88 111.637 960.497 111.895C960.115 112.145 959.658 112.27 959.126 112.27C958.587 112.27 958.126 112.145 957.744 111.895C957.369 111.637 957.181 111.176 957.181 110.512C957.181 109.84 957.369 109.383 957.744 109.141C958.126 108.891 958.587 108.766 959.126 108.766ZM967.524 127H963.949V108.766H967.524V127ZM974.714 127.234C973.253 127.234 972.061 126.664 971.14 125.523C970.225 124.375 969.768 122.691 969.768 120.473C969.768 118.23 970.233 116.535 971.163 115.387C972.093 114.23 973.307 113.652 974.807 113.652C975.432 113.652 975.983 113.738 976.46 113.91C976.936 114.082 977.347 114.312 977.69 114.602C978.042 114.891 978.339 115.215 978.581 115.574H978.698C978.651 115.324 978.593 114.957 978.522 114.473C978.46 113.98 978.429 113.477 978.429 112.961V108.766H982.015V127H979.272L978.581 125.301H978.429C978.202 125.66 977.917 125.988 977.573 126.285C977.237 126.574 976.835 126.805 976.366 126.977C975.897 127.148 975.347 127.234 974.714 127.234ZM975.968 124.387C976.944 124.387 977.632 124.098 978.03 123.52C978.436 122.934 978.651 122.055 978.675 120.883V120.496C978.675 119.223 978.479 118.25 978.089 117.578C977.698 116.898 976.972 116.559 975.909 116.559C975.12 116.559 974.503 116.898 974.057 117.578C973.612 118.258 973.39 119.238 973.39 120.52C973.39 121.801 973.612 122.766 974.057 123.414C974.511 124.062 975.147 124.387 975.968 124.387ZM1001.32 127L1000.31 122.418C1000.25 122.145 1000.16 121.742 1000.04 121.211C999.914 120.672 999.778 120.098 999.629 119.488C999.489 118.871 999.356 118.301 999.231 117.777C999.114 117.254 999.028 116.871 998.973 116.629H998.868C998.813 116.871 998.727 117.254 998.61 117.777C998.493 118.301 998.36 118.871 998.211 119.488C998.071 120.105 997.938 120.688 997.813 121.234C997.688 121.773 997.594 122.184 997.532 122.465L996.477 127H992.633L988.907 113.898H992.469L993.981 119.699C994.082 120.105 994.18 120.59 994.274 121.152C994.368 121.707 994.45 122.246 994.52 122.77C994.598 123.285 994.657 123.695 994.696 124H994.789C994.805 123.773 994.836 123.473 994.883 123.098C994.938 122.723 994.996 122.336 995.059 121.938C995.129 121.531 995.192 121.168 995.246 120.848C995.309 120.52 995.356 120.297 995.387 120.18L997.004 113.898H1000.94L1002.48 120.18C1002.53 120.406 1002.6 120.766 1002.69 121.258C1002.78 121.75 1002.86 122.258 1002.93 122.781C1003 123.297 1003.04 123.703 1003.05 124H1003.14C1003.18 123.734 1003.23 123.34 1003.31 122.816C1003.39 122.293 1003.48 121.746 1003.58 121.176C1003.69 120.598 1003.8 120.105 1003.91 119.699L1005.48 113.898H1008.98L1005.21 127H1001.32ZM1013.96 113.898V127H1010.38V113.898H1013.96ZM1012.17 108.766C1012.71 108.766 1013.16 108.891 1013.55 109.141C1013.93 109.383 1014.12 109.84 1014.12 110.512C1014.12 111.176 1013.93 111.637 1013.55 111.895C1013.16 112.145 1012.71 112.27 1012.17 112.27C1011.64 112.27 1011.17 112.145 1010.79 111.895C1010.42 111.637 1010.23 111.176 1010.23 110.512C1010.23 109.84 1010.42 109.383 1010.79 109.141C1011.17 108.891 1011.64 108.766 1012.17 108.766ZM1022.52 124.387C1022.91 124.387 1023.29 124.348 1023.65 124.27C1024.03 124.191 1024.4 124.094 1024.77 123.977V126.637C1024.38 126.809 1023.91 126.949 1023.34 127.059C1022.78 127.176 1022.16 127.234 1021.49 127.234C1020.7 127.234 1020 127.109 1019.38 126.859C1018.76 126.602 1018.27 126.16 1017.91 125.535C1017.56 124.902 1017.38 124.023 1017.38 122.898V116.582H1015.67V115.07L1017.64 113.875L1018.67 111.109H1020.96V113.898H1024.63V116.582H1020.96V122.898C1020.96 123.398 1021.1 123.773 1021.38 124.023C1021.67 124.266 1022.05 124.387 1022.52 124.387ZM1030.28 108.766V112.48C1030.28 113.129 1030.26 113.746 1030.21 114.332C1030.17 114.918 1030.14 115.332 1030.12 115.574H1030.31C1030.59 115.121 1030.92 114.754 1031.3 114.473C1031.69 114.191 1032.12 113.984 1032.59 113.852C1033.06 113.719 1033.56 113.652 1034.1 113.652C1035.05 113.652 1035.87 113.82 1036.57 114.156C1037.28 114.484 1037.82 115.004 1038.22 115.715C1038.61 116.418 1038.8 117.332 1038.8 118.457V127H1035.23V119.348C1035.23 118.41 1035.06 117.703 1034.71 117.227C1034.37 116.75 1033.84 116.512 1033.12 116.512C1032.4 116.512 1031.83 116.68 1031.42 117.016C1031 117.344 1030.71 117.832 1030.54 118.48C1030.37 119.121 1030.28 119.906 1030.28 120.836V127H1026.71V108.766H1030.28ZM1052.6 127.234C1051.3 127.234 1050.19 127 1049.28 126.531C1048.37 126.055 1047.67 125.32 1047.19 124.328C1046.72 123.336 1046.48 122.066 1046.48 120.52C1046.48 118.918 1046.75 117.613 1047.29 116.605C1047.83 115.59 1048.59 114.844 1049.55 114.367C1050.52 113.891 1051.64 113.652 1052.91 113.652C1053.82 113.652 1054.6 113.742 1055.26 113.922C1055.92 114.094 1056.5 114.301 1056.99 114.543L1055.94 117.309C1055.37 117.082 1054.85 116.898 1054.37 116.758C1053.88 116.609 1053.4 116.535 1052.91 116.535C1052.29 116.535 1051.77 116.684 1051.35 116.98C1050.94 117.27 1050.63 117.707 1050.43 118.293C1050.22 118.879 1050.12 119.613 1050.12 120.496C1050.12 121.363 1050.23 122.082 1050.45 122.652C1050.67 123.223 1050.99 123.648 1051.4 123.93C1051.81 124.203 1052.32 124.34 1052.91 124.34C1053.65 124.34 1054.31 124.242 1054.89 124.047C1055.47 123.844 1056.03 123.562 1056.58 123.203V126.262C1056.03 126.605 1055.46 126.852 1054.86 127C1054.26 127.156 1053.51 127.234 1052.6 127.234ZM1070.81 120.426C1070.81 121.52 1070.66 122.488 1070.37 123.332C1070.08 124.176 1069.65 124.891 1069.09 125.477C1068.54 126.055 1067.86 126.492 1067.07 126.789C1066.29 127.086 1065.41 127.234 1064.43 127.234C1063.5 127.234 1062.66 127.086 1061.88 126.789C1061.12 126.492 1060.45 126.055 1059.88 125.477C1059.32 124.891 1058.88 124.176 1058.57 123.332C1058.26 122.488 1058.11 121.52 1058.11 120.426C1058.11 118.973 1058.37 117.742 1058.88 116.734C1059.4 115.727 1060.13 114.961 1061.09 114.438C1062.04 113.914 1063.18 113.652 1064.5 113.652C1065.72 113.652 1066.81 113.914 1067.75 114.438C1068.71 114.961 1069.45 115.727 1069.99 116.734C1070.54 117.742 1070.81 118.973 1070.81 120.426ZM1061.75 120.426C1061.75 121.285 1061.85 122.008 1062.04 122.594C1062.22 123.18 1062.52 123.621 1062.91 123.918C1063.31 124.215 1063.83 124.363 1064.47 124.363C1065.11 124.363 1065.62 124.215 1066.01 123.918C1066.41 123.621 1066.7 123.18 1066.88 122.594C1067.06 122.008 1067.16 121.285 1067.16 120.426C1067.16 119.559 1067.06 118.84 1066.88 118.27C1066.7 117.691 1066.41 117.258 1066.01 116.969C1065.61 116.68 1065.09 116.535 1064.45 116.535C1063.5 116.535 1062.82 116.859 1062.39 117.508C1061.97 118.156 1061.75 119.129 1061.75 120.426ZM1080.49 113.652C1081.89 113.652 1083.01 114.035 1083.86 114.801C1084.71 115.559 1085.14 116.777 1085.14 118.457V127H1081.57V119.348C1081.57 118.41 1081.39 117.703 1081.05 117.227C1080.71 116.75 1080.18 116.512 1079.46 116.512C1078.36 116.512 1077.62 116.883 1077.22 117.625C1076.82 118.367 1076.62 119.438 1076.62 120.836V127H1073.05V113.898H1075.78L1076.26 115.574H1076.46C1076.74 115.121 1077.09 114.754 1077.5 114.473C1077.92 114.191 1078.39 113.984 1078.89 113.852C1079.41 113.719 1079.94 113.652 1080.49 113.652ZM1095.34 116.582H1092.25V127H1088.67V116.582H1086.71V114.859L1088.67 113.898V112.938C1088.67 111.82 1088.86 110.953 1089.24 110.336C1089.62 109.711 1090.15 109.273 1090.84 109.023C1091.54 108.766 1092.36 108.637 1093.3 108.637C1094 108.637 1094.63 108.695 1095.2 108.812C1095.77 108.922 1096.24 109.047 1096.6 109.188L1095.68 111.812C1095.41 111.727 1095.11 111.648 1094.79 111.578C1094.47 111.508 1094.1 111.473 1093.69 111.473C1093.19 111.473 1092.82 111.625 1092.59 111.93C1092.36 112.227 1092.25 112.609 1092.25 113.078V113.898H1095.34V116.582ZM1100.97 113.898V127H1097.39V113.898H1100.97ZM1099.19 108.766C1099.72 108.766 1100.17 108.891 1100.56 109.141C1100.94 109.383 1101.13 109.84 1101.13 110.512C1101.13 111.176 1100.94 111.637 1100.56 111.895C1100.17 112.145 1099.72 112.27 1099.19 112.27C1098.65 112.27 1098.19 112.145 1097.8 111.895C1097.43 111.637 1097.24 111.176 1097.24 110.512C1097.24 109.84 1097.43 109.383 1097.8 109.141C1098.19 108.891 1098.65 108.766 1099.19 108.766ZM1108.15 127.234C1106.68 127.234 1105.49 126.664 1104.57 125.523C1103.66 124.375 1103.2 122.691 1103.2 120.473C1103.2 118.23 1103.66 116.535 1104.59 115.387C1105.52 114.23 1106.74 113.652 1108.24 113.652C1108.86 113.652 1109.41 113.738 1109.89 113.91C1110.37 114.082 1110.78 114.312 1111.12 114.602C1111.47 114.891 1111.77 115.215 1112.01 115.574H1112.13C1112.08 115.324 1112.02 114.957 1111.95 114.473C1111.89 113.98 1111.86 113.477 1111.86 112.961V108.766H1115.45V127H1112.7L1112.01 125.301H1111.86C1111.63 125.66 1111.35 125.988 1111 126.285C1110.67 126.574 1110.27 126.805 1109.8 126.977C1109.33 127.148 1108.78 127.234 1108.15 127.234ZM1109.4 124.387C1110.38 124.387 1111.06 124.098 1111.46 123.52C1111.87 122.934 1112.08 122.055 1112.11 120.883V120.496C1112.11 119.223 1111.91 118.25 1111.52 117.578C1111.13 116.898 1110.4 116.559 1109.34 116.559C1108.55 116.559 1107.93 116.898 1107.49 117.578C1107.04 118.258 1106.82 119.238 1106.82 120.52C1106.82 121.801 1107.04 122.766 1107.49 123.414C1107.94 124.062 1108.58 124.387 1109.4 124.387ZM1123.87 113.652C1125.08 113.652 1126.12 113.887 1127 114.355C1127.87 114.816 1128.55 115.488 1129.02 116.371C1129.5 117.254 1129.74 118.332 1129.74 119.605V121.34H1121.29C1121.33 122.348 1121.63 123.141 1122.19 123.719C1122.76 124.289 1123.55 124.574 1124.56 124.574C1125.39 124.574 1126.16 124.488 1126.85 124.316C1127.55 124.145 1128.27 123.887 1129 123.543V126.309C1128.35 126.629 1127.67 126.863 1126.96 127.012C1126.26 127.16 1125.4 127.234 1124.39 127.234C1123.08 127.234 1121.92 126.992 1120.9 126.508C1119.89 126.023 1119.1 125.285 1118.52 124.293C1117.95 123.301 1117.67 122.051 1117.67 120.543C1117.67 119.012 1117.93 117.738 1118.44 116.723C1118.96 115.699 1119.69 114.934 1120.62 114.426C1121.55 113.91 1122.63 113.652 1123.87 113.652ZM1123.89 116.195C1123.19 116.195 1122.62 116.418 1122.16 116.863C1121.7 117.309 1121.44 118.008 1121.37 118.961H1126.39C1126.38 118.43 1126.28 117.957 1126.09 117.543C1125.91 117.129 1125.64 116.801 1125.27 116.559C1124.91 116.316 1124.45 116.195 1123.89 116.195ZM1139.37 113.652C1140.76 113.652 1141.89 114.035 1142.74 114.801C1143.59 115.559 1144.02 116.777 1144.02 118.457V127H1140.44V119.348C1140.44 118.41 1140.27 117.703 1139.93 117.227C1139.59 116.75 1139.06 116.512 1138.33 116.512C1137.24 116.512 1136.49 116.883 1136.1 117.625C1135.7 118.367 1135.5 119.438 1135.5 120.836V127H1131.92V113.898H1134.65L1135.13 115.574H1135.33C1135.62 115.121 1135.96 114.754 1136.38 114.473C1136.8 114.191 1137.26 113.984 1137.77 113.852C1138.29 113.719 1138.82 113.652 1139.37 113.652ZM1152.3 127.234C1151 127.234 1149.9 127 1148.98 126.531C1148.07 126.055 1147.37 125.32 1146.9 124.328C1146.42 123.336 1146.18 122.066 1146.18 120.52C1146.18 118.918 1146.45 117.613 1146.99 116.605C1147.54 115.59 1148.29 114.844 1149.25 114.367C1150.22 113.891 1151.34 113.652 1152.61 113.652C1153.52 113.652 1154.3 113.742 1154.96 113.922C1155.62 114.094 1156.2 114.301 1156.69 114.543L1155.64 117.309C1155.08 117.082 1154.55 116.898 1154.07 116.758C1153.58 116.609 1153.1 116.535 1152.61 116.535C1151.99 116.535 1151.47 116.684 1151.06 116.98C1150.64 117.27 1150.33 117.707 1150.13 118.293C1149.93 118.879 1149.83 119.613 1149.83 120.496C1149.83 121.363 1149.93 122.082 1150.15 122.652C1150.37 123.223 1150.69 123.648 1151.1 123.93C1151.52 124.203 1152.02 124.34 1152.61 124.34C1153.36 124.34 1154.02 124.242 1154.59 124.047C1155.17 123.844 1155.74 123.562 1156.28 123.203V126.262C1155.74 126.605 1155.16 126.852 1154.56 127C1153.97 127.156 1153.21 127.234 1152.3 127.234ZM1164.01 113.652C1165.22 113.652 1166.27 113.887 1167.14 114.355C1168.02 114.816 1168.69 115.488 1169.17 116.371C1169.64 117.254 1169.88 118.332 1169.88 119.605V121.34H1161.43C1161.47 122.348 1161.77 123.141 1162.34 123.719C1162.91 124.289 1163.69 124.574 1164.7 124.574C1165.54 124.574 1166.3 124.488 1167 124.316C1167.69 124.145 1168.41 123.887 1169.14 123.543V126.309C1168.5 126.629 1167.82 126.863 1167.11 127.012C1166.4 127.16 1165.55 127.234 1164.54 127.234C1163.23 127.234 1162.06 126.992 1161.05 126.508C1160.04 126.023 1159.25 125.285 1158.67 124.293C1158.1 123.301 1157.81 122.051 1157.81 120.543C1157.81 119.012 1158.07 117.738 1158.59 116.723C1159.11 115.699 1159.84 114.934 1160.77 114.426C1161.69 113.91 1162.78 113.652 1164.01 113.652ZM1164.03 116.195C1163.34 116.195 1162.76 116.418 1162.3 116.863C1161.85 117.309 1161.59 118.008 1161.52 118.961H1166.53C1166.52 118.43 1166.43 117.957 1166.24 117.543C1166.06 117.129 1165.78 116.801 1165.42 116.559C1165.06 116.316 1164.6 116.195 1164.03 116.195Z" fill="white"/>
<defs>
<linearGradient id="paint0_linear_14563_26307" x1="200" y1="118" x2="1500.63" y2="585.959" gradientUnits="userSpaceOnUse">
<stop stop-color="#1B4D7E"/>
<stop offset="0.33" stop-color="#2D80D2"/>
<stop offset="1" stop-color="#1B4D7E"/>
</linearGradient>
<linearGradient id="paint1_linear_14563_26307" x1="200" y1="235" x2="1425.77" y2="-441.025" gradientUnits="userSpaceOnUse">
<stop stop-color="#1B4D7E"/>
<stop offset="0.33" stop-color="#2D80D2"/>
<stop offset="1" stop-color="#1B4D7E"/>
</linearGradient>
</defs>
</svg>
