<?xml version="1.0" encoding="UTF-8" standalone="no" ?>
<!DOCTYPE svg PUBLIC "-//W3C//DTD SVG 1.1//EN" "http://www.w3.org/Graphics/SVG/1.1/DTD/svg11.dtd">
<svg xmlns="http://www.w3.org/2000/svg" xmlns:xlink="http://www.w3.org/1999/xlink" version="1.1" width="700" height="700" viewBox="0 0 700 700" xml:space="preserve">
<desc>Created with Fabric.js 3.6.3</desc>
<defs>
</defs>
<rect x="0" y="0" width="100%" height="100%" fill="rgba(244, 88, 0, 1)"></rect>
<g transform="matrix(32.82 0 0 32.82 838.77 432.58)"  >
<path style="stroke: none; stroke-width: 1; stroke-dasharray: none; stroke-linecap: butt; stroke-dashoffset: 0; stroke-linejoin: miter; stroke-miterlimit: 4; fill: rgb(255,255,255); fill-rule: nonzero; opacity: 1;"  transform=" translate(-24.09, -12.1)" d="M 6.547 3.125 v 6.008 c 0 0 2.117 0 3.25 -0.086 c 0.891 -0.156 1.055 -0.242 1.219 -1.133 l 0.328 -1.305 h 0.969 l -0.164 2.852 l 0.086 2.922 h -0.977 l -0.242 -1.141 c -0.242 -0.812 -0.57 -0.977 -1.219 -1.055 c -0.812 -0.086 -3.25 -0.086 -3.25 -0.086 v 5.039 c 0 0.969 0.492 1.383 1.625 1.383 h 3.414 c 1.055 0 2.109 -0.086 2.766 -1.625 l 0.883 -1.953 h 0.82 c -0.086 0.406 -0.492 3.984 -0.57 4.789 c 0 0 -3.086 -0.078 -4.383 -0.078 H 5.25 l -3.492 0.078 v -0.883 l 1.133 -0.25 c 0.82 -0.164 1.062 -0.406 1.062 -1.055 c 0 0 0.086 -2.195 0.086 -5.852 c 0 -3.648 -0.086 -5.844 -0.086 -5.844 c 0 -0.727 -0.242 -0.891 -1.062 -1.055 L 1.758 2.555 V 1.664 l 3.414 0.07 h 6.5 c 1.297 0 3.484 -0.234 3.484 -0.234 s -0.078 1.375 -0.164 4.625 h -0.891 l -0.328 -1.141 c -0.32 -1.461 -0.805 -2.188 -1.703 -2.188 H 6.961 C 6.547 2.797 6.547 2.875 6.547 3.125 z M 19.703 3.766 h 0.977 V 7.18 l 3.336 -0.164 l -0.164 1.547 l -3.25 -0.25 v 6.016 c 0 1.703 0.57 2.359 1.547 2.359 c 0.883 0 1.539 -0.492 1.781 -0.898 l 0.484 0.57 c -0.484 1.133 -1.859 1.703 -3.164 1.703 c -1.617 0 -2.93 -0.969 -2.93 -2.836 V 8.398 h -1.938 V 7.586 C 18.008 7.422 19.219 6.445 19.703 3.766 z M 26.695 14.242 l 0.648 1.547 c 0.242 0.648 0.812 1.305 2.109 1.305 c 1.383 0 1.953 -0.734 1.953 -1.625 c 0 -2.766 -5.445 -1.953 -5.445 -5.688 c 0 -2.109 1.703 -3.094 3.898 -3.094 c 0.977 0 2.438 0.164 3.172 0.492 c -0.164 0.812 -0.25 1.867 -0.25 2.68 l -0.805 0.078 l -0.57 -1.625 c -0.164 -0.398 -0.82 -0.727 -1.625 -0.727 c -0.977 0 -1.953 0.406 -1.953 1.461 c 0 2.516 5.609 1.953 5.609 5.688 c 0 2.117 -1.867 3.25 -4.148 3.25 c -1.703 0 -3.414 -0.656 -3.414 -0.656 c 0.164 -0.969 0.086 -2.023 0 -3.086 H 26.695 z M 33.031 22.039 c 0.242 -0.891 0.406 -2.023 0.57 -3.086 l 0.891 -0.078 l 0.328 1.703 c 0.078 0.406 0.32 0.734 0.969 0.734 c 1.055 0 2.438 -0.648 3.742 -2.922 c -0.578 -1.383 -2.281 -5.844 -3.828 -9.258 c -0.406 -0.898 -0.484 -0.977 -1.047 -1.141 l -0.414 -0.156 v -0.82 l 2.445 0.086 l 3 -0.164 V 7.75 l -0.734 0.164 c -0.57 0.078 -0.805 0.398 -0.805 0.727 c 0 0.086 0 0.164 0.078 0.328 c 0.156 0.492 1.461 4.141 2.438 6.578 c 0.805 -1.703 2.352 -5.523 2.594 -6.172 c 0.086 -0.328 0.164 -0.406 0.164 -0.648 c 0 -0.414 -0.242 -0.656 -0.805 -0.812 L 42.039 7.75 V 6.938 l 2.281 0.078 l 2.109 -0.078 V 7.75 l -0.406 0.32 c -0.812 0.328 -0.898 0.406 -1.219 1.062 l -3.57 8.359 c -2.117 4.797 -4.312 5.203 -5.852 5.203 C 34.406 22.695 33.672 22.445 33.031 22.039 z" stroke-linecap="round" />
</g>
<g transform="matrix(10.96 0 0 8.48 1133.03 348.2)"  >
<polygon style="stroke: rgb(244,88,0); stroke-width: 8; stroke-dasharray: none; stroke-linecap: butt; stroke-dashoffset: 0; stroke-linejoin: miter; stroke-miterlimit: 4; fill: rgb(244,88,0); fill-rule: nonzero; opacity: 1;" vector-effect="non-scaling-stroke"  points="-50,-50 -50,50 50,50 50,-50 " />
</g>
</svg>