<svg width="1869" height="235" viewBox="0 0 1869 235" fill="none" xmlns="http://www.w3.org/2000/svg">
<rect x="1469" y="44" width="400" height="147" fill="#1B4D7F"/>
<rect y="44" width="400" height="147" fill="#1B4C7E"/>
<rect y="44" width="1869" height="147" fill="#1B4D7F"/>
<path d="M200 44V191C581.94 191 626.01 235 934.5 235C1242.99 235 1287.06 191 1669 191V44C1287.06 44 1242.99 1.52588e-05 934.5 0C626.01 -1.52588e-05 581.94 44 200 44Z" fill="url(#paint0_linear_14563_26401)"/>
<mask id="mask0_14563_26401" style="mask-type:alpha" maskUnits="userSpaceOnUse" x="200" y="0" width="1469" height="235">
<path d="M200 191V44C581.94 44 626.01 0 934.5 0C1242.99 0 1287.06 44 1669 44V191C1287.06 191 1242.99 235 934.5 235C626.01 235 581.94 191 200 191Z" fill="url(#paint1_linear_14563_26401)"/>
</mask>
<g mask="url(#mask0_14563_26401)">
<path d="M957.793 -172L668.587 117.207L957.793 406.413L1247 117.207L957.793 -172Z" fill="#2D80D2"/>
<path d="M1255.79 -172L966.587 117.207L1255.79 406.413L1545 117.207L1255.79 -172Z" fill="#2466A8"/>
<path d="M1511.79 -172L1222.59 117.207L1511.79 406.413L1801 117.207L1511.79 -172Z" fill="#1B4D7E"/>
</g>
<path d="M742.168 117.051L744.195 119.078L742.168 121.105L740.141 119.078L742.168 117.051ZM742.309 129.918C743.465 129.918 744.375 129.73 745.039 129.355C745.703 128.98 746.172 128.477 746.445 127.844C746.727 127.211 746.867 126.504 746.867 125.723C746.867 124.863 746.734 123.988 746.469 123.098C746.203 122.199 745.914 121.363 745.602 120.59L748.508 119.488L749.445 122.324C749.586 122.746 749.797 123.105 750.078 123.402C750.367 123.699 750.781 123.848 751.32 123.848H751.789V127H751.367C751 127 750.684 126.969 750.418 126.906C750.16 126.836 749.918 126.719 749.691 126.555C749.559 127.867 749.191 129.008 748.59 129.977C747.996 130.945 747.176 131.695 746.129 132.227C745.082 132.758 743.809 133.023 742.309 133.023C740.621 133.023 739.238 132.703 738.16 132.062C737.09 131.43 736.297 130.566 735.781 129.473C735.273 128.387 735.02 127.16 735.02 125.793C735.02 124.879 735.117 123.938 735.312 122.969C735.516 121.992 735.801 121.027 736.168 120.074L738.828 121.105C738.555 121.91 738.324 122.707 738.137 123.496C737.949 124.277 737.855 125.012 737.855 125.699C737.855 126.465 737.988 127.168 738.254 127.809C738.527 128.449 738.988 128.961 739.637 129.344C740.285 129.727 741.176 129.918 742.309 129.918ZM751.297 123.848H752.164V127H751.297V123.848ZM754.332 116.512C754.066 116.293 753.859 116.055 753.711 115.797C753.562 115.539 753.488 115.199 753.488 114.777C753.488 114.082 753.727 113.512 754.203 113.066C754.688 112.621 755.238 112.398 755.855 112.398C756.176 112.398 756.445 112.434 756.664 112.504C756.891 112.574 757.121 112.676 757.355 112.809L757.367 114.156C757.125 114.031 756.895 113.945 756.676 113.898C756.465 113.844 756.246 113.816 756.02 113.816C755.707 113.816 755.414 113.91 755.141 114.098C754.875 114.285 754.742 114.562 754.742 114.93C754.75 115.148 754.855 115.352 755.059 115.539C755.262 115.727 755.57 115.793 755.984 115.738C756 115.738 756.016 115.738 756.031 115.738C756.047 115.73 756.062 115.723 756.078 115.715L757.742 115.105L757.93 116.43L753.301 118.258L753.102 116.98L754.332 116.512ZM755.199 119.16L757.941 118.832L758.176 122.066C758.199 122.473 758.281 122.809 758.422 123.074C758.57 123.34 758.785 123.535 759.066 123.66C759.348 123.785 759.707 123.848 760.145 123.848H760.391V127H760.121C759.59 127 759.113 126.934 758.691 126.801C758.27 126.668 757.898 126.484 757.578 126.25C757.258 126.016 756.98 125.742 756.746 125.43C756.285 125.93 755.723 126.316 755.059 126.59C754.402 126.863 753.703 127 752.961 127H751.836V123.848H752.961C753.844 123.848 754.457 123.688 754.801 123.367C755.145 123.047 755.316 122.48 755.316 121.668C755.316 121.23 755.305 120.805 755.281 120.391C755.266 119.969 755.238 119.559 755.199 119.16ZM760.438 127H759.922L759.934 123.848H760.379C760.793 123.848 761.156 123.699 761.469 123.402C761.781 123.105 762.082 122.723 762.371 122.254C762.66 121.777 762.957 121.277 763.262 120.754C763.574 120.223 763.922 119.719 764.305 119.242C764.688 118.766 765.137 118.379 765.652 118.082C766.168 117.785 766.781 117.637 767.492 117.637C768.367 117.637 769.121 117.82 769.754 118.188C770.395 118.547 770.914 119.039 771.312 119.664C771.719 120.281 771.988 120.973 772.121 121.738C772.215 122.254 772.348 122.668 772.52 122.98C772.691 123.293 772.891 123.516 773.117 123.648C773.352 123.781 773.594 123.848 773.844 123.848H774.148V127H773.832C773.332 127 772.84 126.887 772.355 126.66C771.871 126.434 771.484 126.148 771.195 125.805C770.812 126.305 770.379 126.676 769.895 126.918C769.418 127.152 768.836 127.27 768.148 127.27C767.609 127.27 767.098 127.191 766.613 127.035C766.129 126.879 765.656 126.66 765.195 126.379C764.742 126.098 764.285 125.773 763.824 125.406C763.535 125.711 763.242 125.984 762.945 126.227C762.648 126.461 762.305 126.648 761.914 126.789C761.523 126.93 761.031 127 760.438 127ZM767.586 120.637C767.25 120.637 766.945 120.75 766.672 120.977C766.406 121.203 766.168 121.48 765.957 121.809C765.754 122.129 765.582 122.441 765.441 122.746C765.684 122.973 765.918 123.172 766.145 123.344C766.371 123.516 766.586 123.656 766.789 123.766C767.062 123.914 767.312 124.02 767.539 124.082C767.773 124.145 767.98 124.176 768.16 124.176C768.605 124.176 768.926 124.027 769.121 123.73C769.324 123.434 769.426 123.074 769.426 122.652C769.426 122.098 769.262 121.625 768.934 121.234C768.605 120.836 768.156 120.637 767.586 120.637ZM783.898 119.699C783.445 119.699 782.984 119.809 782.516 120.027C782.055 120.246 781.598 120.547 781.145 120.93C780.691 121.312 780.254 121.754 779.832 122.254C779.41 122.754 779.008 123.285 778.625 123.848H779.855C780.707 123.848 781.5 123.816 782.234 123.754C782.969 123.691 783.613 123.578 784.168 123.414C784.723 123.242 785.152 123.012 785.457 122.723C785.762 122.426 785.914 122.051 785.914 121.598C785.914 121.027 785.723 120.57 785.34 120.227C784.965 119.875 784.484 119.699 783.898 119.699ZM783.828 116.605C784.797 116.605 785.652 116.812 786.395 117.227C787.145 117.633 787.73 118.199 788.152 118.926C788.582 119.645 788.797 120.465 788.797 121.387C788.797 121.762 788.75 122.172 788.656 122.617C788.57 123.062 788.43 123.438 788.234 123.742C788.359 123.766 788.5 123.785 788.656 123.801C788.82 123.816 789.012 123.828 789.23 123.836C789.449 123.844 789.703 123.848 789.992 123.848H790.344V127H790.004C789.059 127 788.254 126.883 787.59 126.648C786.934 126.406 786.363 126.113 785.879 125.77C785.098 126.137 784.184 126.434 783.137 126.66C782.098 126.887 780.969 127 779.75 127H773.68V123.848H775.414C775.531 123.66 775.648 123.477 775.766 123.297C775.891 123.117 776.012 122.938 776.129 122.758V110.629H779.07V119.02C779.445 118.637 779.816 118.297 780.184 118C780.559 117.703 780.938 117.453 781.32 117.25C781.711 117.039 782.113 116.879 782.527 116.77C782.941 116.66 783.375 116.605 783.828 116.605ZM797.539 120.637C797.203 120.637 796.898 120.75 796.625 120.977C796.359 121.203 796.121 121.48 795.91 121.809C795.707 122.129 795.535 122.441 795.395 122.746C795.621 122.965 795.84 123.156 796.051 123.32C796.27 123.477 796.473 123.609 796.66 123.719C796.949 123.883 797.215 124 797.457 124.07C797.707 124.141 797.926 124.176 798.113 124.176C798.559 124.176 798.879 124.027 799.074 123.73C799.277 123.434 799.379 123.074 799.379 122.652C799.379 122.098 799.215 121.625 798.887 121.234C798.559 120.836 798.109 120.637 797.539 120.637ZM798.102 127.27C797.562 127.27 797.051 127.191 796.566 127.035C796.082 126.879 795.609 126.66 795.148 126.379C794.695 126.098 794.238 125.773 793.777 125.406C793.488 125.711 793.195 125.984 792.898 126.227C792.602 126.461 792.258 126.648 791.867 126.789C791.477 126.93 790.984 127 790.391 127H789.875V123.848H790.332C790.746 123.848 791.109 123.699 791.422 123.402C791.734 123.105 792.035 122.723 792.324 122.254C792.613 121.777 792.91 121.277 793.215 120.754C793.527 120.223 793.875 119.719 794.258 119.242C794.641 118.766 795.09 118.379 795.605 118.082C796.121 117.785 796.734 117.637 797.445 117.637C798.406 117.637 799.238 117.867 799.941 118.328C800.652 118.781 801.199 119.383 801.582 120.133C801.965 120.883 802.156 121.703 802.156 122.594C802.156 123.5 802.004 124.305 801.699 125.008C801.395 125.711 800.941 126.266 800.34 126.672C799.746 127.07 799 127.27 798.102 127.27ZM817.496 132.906C815.809 132.906 814.426 132.586 813.348 131.945C812.277 131.312 811.484 130.449 810.969 129.355C810.461 128.27 810.207 127.043 810.207 125.676C810.207 124.762 810.305 123.82 810.5 122.852C810.703 121.875 810.988 120.91 811.355 119.957L814.016 120.988C813.742 121.793 813.512 122.59 813.324 123.379C813.137 124.16 813.043 124.895 813.043 125.582C813.043 126.348 813.176 127.051 813.441 127.691C813.715 128.332 814.176 128.844 814.824 129.227C815.473 129.609 816.363 129.801 817.496 129.801C818.371 129.801 819.145 129.719 819.816 129.555C820.496 129.398 821.062 129.191 821.516 128.934C821.969 128.684 822.312 128.418 822.547 128.137C822.781 127.855 822.898 127.598 822.898 127.363C822.898 127.223 822.859 127.105 822.781 127.012C822.703 126.926 822.562 126.883 822.359 126.883H820.461C820.023 126.883 819.59 126.84 819.16 126.754C818.738 126.66 818.352 126.484 818 126.227C817.656 125.961 817.379 125.582 817.168 125.09C816.965 124.598 816.863 123.957 816.863 123.168C816.863 122.363 816.992 121.59 817.25 120.848C817.516 120.105 817.891 119.441 818.375 118.855C818.867 118.27 819.457 117.809 820.145 117.473C820.832 117.137 821.602 116.969 822.453 116.969C823 116.969 823.547 117.051 824.094 117.215C824.641 117.371 825.148 117.617 825.617 117.953L824.621 120.707C824.223 120.496 823.844 120.348 823.484 120.262C823.125 120.176 822.785 120.133 822.465 120.133C821.887 120.133 821.387 120.266 820.965 120.531C820.551 120.797 820.234 121.156 820.016 121.609C819.797 122.062 819.688 122.578 819.688 123.156C819.688 123.391 819.754 123.547 819.887 123.625C820.027 123.703 820.223 123.742 820.473 123.742H822.242C823.102 123.742 823.777 123.883 824.27 124.164C824.762 124.438 825.109 124.82 825.312 125.312C825.516 125.797 825.617 126.355 825.617 126.988C825.617 127.793 825.438 128.551 825.078 129.262C824.727 129.973 824.203 130.602 823.508 131.148C822.82 131.703 821.973 132.133 820.965 132.438C819.957 132.75 818.801 132.906 817.496 132.906ZM835.953 127C835.578 127 835.23 126.957 834.91 126.871C834.59 126.785 834.324 126.676 834.113 126.543C833.926 127.707 833.539 128.754 832.953 129.684C832.367 130.613 831.582 131.391 830.598 132.016C829.621 132.648 828.445 133.102 827.07 133.375L825.992 130.492C827.148 130.234 828.129 129.891 828.934 129.461C829.746 129.039 830.363 128.48 830.785 127.785C831.207 127.09 831.418 126.223 831.418 125.184C831.418 124.48 831.312 123.699 831.102 122.84C830.898 121.98 830.668 121.172 830.41 120.414L833.316 119.453L833.996 122.066C834.137 122.605 834.344 123.039 834.617 123.367C834.898 123.688 835.301 123.848 835.824 123.848H836.281V127H835.953ZM835.812 123.848H837.582V127H835.812V123.848ZM840.875 128.57L842.809 130.492L840.875 132.438L838.941 130.492L840.875 128.57ZM836.914 128.57L838.871 130.492L836.914 132.438L835.004 130.492L836.914 128.57ZM840.629 119.16L843.371 118.832L843.605 122.066C843.629 122.473 843.711 122.809 843.852 123.074C844 123.34 844.215 123.535 844.496 123.66C844.777 123.785 845.137 123.848 845.574 123.848H845.82V127H845.551C845.02 127 844.543 126.934 844.121 126.801C843.699 126.668 843.328 126.484 843.008 126.25C842.688 126.016 842.41 125.742 842.176 125.43C841.715 125.93 841.152 126.316 840.488 126.59C839.832 126.863 839.133 127 838.391 127H837.266V123.848H838.391C839.273 123.848 839.887 123.688 840.23 123.367C840.574 123.047 840.746 122.48 840.746 121.668C840.746 121.23 840.734 120.805 840.711 120.391C840.695 119.969 840.668 119.559 840.629 119.16ZM846.312 112.926V111.25L855.723 107.418V109.105L846.312 112.926ZM849.324 116.066C849.934 116.449 850.516 116.824 851.07 117.191C851.625 117.559 852.133 117.938 852.594 118.328C853.055 118.711 853.457 119.113 853.801 119.535C854.145 119.957 854.41 120.406 854.598 120.883C854.785 121.359 854.879 121.871 854.879 122.418C854.879 123.598 854.609 124.523 854.07 125.195C853.531 125.859 852.762 126.328 851.762 126.602C850.77 126.867 849.586 127 848.211 127H845.352V123.848H848.199C849.066 123.848 849.781 123.809 850.344 123.73C850.914 123.645 851.34 123.496 851.621 123.285C851.902 123.074 852.043 122.77 852.043 122.371C852.043 122.129 851.918 121.863 851.668 121.574C851.418 121.285 851.09 120.984 850.684 120.672C850.277 120.359 849.832 120.047 849.348 119.734C848.871 119.422 848.395 119.113 847.918 118.809C847.449 118.504 847.027 118.215 846.652 117.941C846.348 117.707 846.113 117.406 845.949 117.039C845.785 116.672 845.703 116.301 845.703 115.926C845.703 115.512 845.801 115.121 845.996 114.754C846.199 114.387 846.508 114.121 846.922 113.957L855.852 110.312V113.418L849.324 116.066ZM867.453 122.711C867.453 122.352 867.371 122.016 867.207 121.703C867.051 121.391 866.832 121.141 866.551 120.953C866.27 120.766 865.938 120.672 865.555 120.672C865.281 120.672 865.031 120.746 864.805 120.895C864.578 121.035 864.375 121.227 864.195 121.469C864.023 121.703 863.871 121.965 863.738 122.254C863.605 122.535 863.492 122.816 863.398 123.098C863.789 123.27 864.164 123.434 864.523 123.59C864.891 123.738 865.227 123.859 865.531 123.953C865.836 124.047 866.094 124.094 866.305 124.094C866.719 124.094 867.012 123.957 867.184 123.684C867.363 123.402 867.453 123.078 867.453 122.711ZM870.137 121.609C870.191 121.953 870.297 122.297 870.453 122.641C870.609 122.984 870.805 123.273 871.039 123.508C871.273 123.734 871.543 123.848 871.848 123.848H872.164V127H871.848C871.355 127 870.867 126.887 870.383 126.66C869.906 126.426 869.52 126.133 869.223 125.781C868.895 126.25 868.496 126.602 868.027 126.836C867.566 127.07 866.977 127.188 866.258 127.188C865.828 127.188 865.371 127.113 864.887 126.965C864.41 126.816 863.941 126.648 863.48 126.461C863.027 126.266 862.613 126.094 862.238 125.945C861.863 125.797 861.562 125.723 861.336 125.723C861.133 125.723 860.965 125.82 860.832 126.016C860.707 126.203 860.605 126.48 860.527 126.848C860.457 127.207 860.406 127.641 860.375 128.148C860.352 128.656 860.34 129.223 860.34 129.848C860.34 130.488 860.352 131.105 860.375 131.699C860.398 132.301 860.426 132.84 860.457 133.316C860.496 133.793 860.523 134.176 860.539 134.465H857.562C857.516 133.645 857.477 132.852 857.445 132.086C857.414 131.328 857.398 130.59 857.398 129.871C857.398 128.871 857.434 127.957 857.504 127.129C857.574 126.301 857.715 125.574 857.926 124.949C858.145 124.316 858.469 123.801 858.898 123.402C859.336 123.004 859.914 122.742 860.633 122.617C860.836 121.938 861.086 121.301 861.383 120.707C861.688 120.113 862.043 119.586 862.449 119.125C862.855 118.664 863.312 118.305 863.82 118.047C864.336 117.781 864.898 117.648 865.508 117.648C866.328 117.648 867.059 117.812 867.699 118.141C868.348 118.461 868.883 118.918 869.305 119.512C869.727 120.098 870.004 120.797 870.137 121.609ZM871.672 123.848H872.609V127H871.672V123.848ZM875.938 128.57L877.871 130.492L875.938 132.438L874.004 130.492L875.938 128.57ZM871.977 128.57L873.934 130.492L871.977 132.438L870.066 130.492L871.977 128.57ZM875.68 119.16L878.422 118.832L878.656 122.066C878.68 122.473 878.762 122.809 878.902 123.074C879.051 123.34 879.266 123.535 879.547 123.66C879.828 123.785 880.188 123.848 880.625 123.848H880.871V127H880.602C880.07 127 879.594 126.934 879.172 126.801C878.75 126.668 878.379 126.484 878.059 126.25C877.738 126.016 877.461 125.742 877.227 125.43C876.766 125.93 876.203 126.316 875.539 126.59C874.883 126.863 874.184 127 873.441 127H872.316V123.848H873.441C874.324 123.848 874.938 123.688 875.281 123.367C875.625 123.047 875.797 122.48 875.797 121.668C875.797 121.23 875.785 120.805 875.762 120.391C875.746 119.969 875.719 119.559 875.68 119.16ZM880.93 127H880.414L880.426 123.848H880.871C881.285 123.848 881.648 123.699 881.961 123.402C882.273 123.105 882.574 122.723 882.863 122.254C883.152 121.777 883.449 121.277 883.754 120.754C884.066 120.223 884.414 119.719 884.797 119.242C885.18 118.766 885.629 118.379 886.145 118.082C886.66 117.785 887.273 117.637 887.984 117.637C888.859 117.637 889.613 117.82 890.246 118.188C890.887 118.547 891.406 119.039 891.805 119.664C892.211 120.281 892.48 120.973 892.613 121.738C892.707 122.254 892.84 122.668 893.012 122.98C893.184 123.293 893.383 123.516 893.609 123.648C893.844 123.781 894.086 123.848 894.336 123.848H894.641V127H894.324C893.824 127 893.332 126.887 892.848 126.66C892.363 126.434 891.977 126.148 891.688 125.805C891.305 126.305 890.871 126.676 890.387 126.918C889.91 127.152 889.328 127.27 888.641 127.27C888.102 127.27 887.59 127.191 887.105 127.035C886.621 126.879 886.148 126.66 885.688 126.379C885.234 126.098 884.777 125.773 884.316 125.406C884.027 125.711 883.734 125.984 883.438 126.227C883.141 126.461 882.797 126.648 882.406 126.789C882.016 126.93 881.523 127 880.93 127ZM888.078 120.637C887.742 120.637 887.438 120.75 887.164 120.977C886.898 121.203 886.66 121.48 886.449 121.809C886.246 122.129 886.074 122.441 885.934 122.746C886.176 122.973 886.41 123.172 886.637 123.344C886.863 123.516 887.078 123.656 887.281 123.766C887.555 123.914 887.805 124.02 888.031 124.082C888.266 124.145 888.473 124.176 888.652 124.176C889.098 124.176 889.418 124.027 889.613 123.73C889.816 123.434 889.918 123.074 889.918 122.652C889.918 122.098 889.754 121.625 889.426 121.234C889.098 120.836 888.648 120.637 888.078 120.637ZM908.832 119.699C908.379 119.699 907.918 119.809 907.449 120.027C906.988 120.246 906.531 120.547 906.078 120.93C905.625 121.312 905.188 121.754 904.766 122.254C904.344 122.754 903.941 123.285 903.559 123.848H904.789C905.641 123.848 906.434 123.816 907.168 123.754C907.902 123.691 908.547 123.578 909.102 123.414C909.656 123.242 910.086 123.012 910.391 122.723C910.695 122.426 910.848 122.051 910.848 121.598C910.848 121.027 910.656 120.57 910.273 120.227C909.898 119.875 909.418 119.699 908.832 119.699ZM904.684 127H904.062C903.148 127 902.336 126.949 901.625 126.848C900.914 126.738 900.293 126.566 899.762 126.332C899.238 126.098 898.797 125.797 898.438 125.43C897.992 125.93 897.473 126.316 896.879 126.59C896.293 126.863 895.551 127 894.652 127H894.172L894.184 123.848H894.652C895.621 123.848 896.262 123.688 896.574 123.367C896.895 123.039 897.055 122.473 897.055 121.668C897.055 121.23 897.043 120.809 897.02 120.402C896.996 119.988 896.969 119.578 896.938 119.172L899.68 118.844L899.891 122.055C899.922 122.414 899.992 122.723 900.102 122.98C900.219 123.23 900.387 123.375 900.605 123.414C901.168 122.477 901.754 121.598 902.363 120.777C902.973 119.957 903.613 119.234 904.285 118.609C904.957 117.984 905.66 117.496 906.395 117.145C907.137 116.785 907.922 116.605 908.75 116.605C909.719 116.605 910.578 116.812 911.328 117.227C912.078 117.633 912.664 118.199 913.086 118.926C913.516 119.645 913.73 120.465 913.73 121.387C913.73 121.762 913.684 122.172 913.59 122.617C913.504 123.062 913.363 123.438 913.168 123.742C913.293 123.766 913.438 123.785 913.602 123.801C913.766 123.816 913.953 123.828 914.164 123.836C914.383 123.844 914.637 123.848 914.926 123.848H915.277V127H914.938C913.992 127 913.203 126.883 912.57 126.648C911.938 126.406 911.379 126.113 910.895 125.77C910.105 126.137 909.176 126.434 908.105 126.66C907.043 126.887 905.902 127 904.684 127ZM914.82 123.848H915.652V127H914.82V123.848ZM920.012 112.105L921.945 114.027L920.012 115.973L918.078 114.027L920.012 112.105ZM916.051 112.105L918.008 114.027L916.051 115.973L914.141 114.027L916.051 112.105ZM917.211 127H915.336V123.848H917.211C917.844 123.848 918.273 123.656 918.5 123.273C918.734 122.891 918.852 122.402 918.852 121.809C918.852 121.285 918.789 120.715 918.664 120.098C918.547 119.473 918.426 118.859 918.301 118.258L921.172 117.52C921.32 118.23 921.438 118.938 921.523 119.641C921.609 120.336 921.652 121 921.652 121.633C921.652 122.656 921.516 123.574 921.242 124.387C920.969 125.191 920.508 125.828 919.859 126.297C919.211 126.766 918.328 127 917.211 127Z" fill="white"/>
<path d="M1028.63 110.629H1031.57V121.434C1031.57 122.316 1031.7 122.941 1031.97 123.309C1032.24 123.668 1032.77 123.848 1033.54 123.848H1033.83V127H1033.54C1031.84 127 1030.6 126.559 1029.81 125.676C1029.02 124.793 1028.63 123.453 1028.63 121.656V110.629ZM1037.86 121C1037.86 121.297 1037.95 121.582 1038.13 121.855C1038.31 122.129 1038.55 122.371 1038.84 122.582C1039.13 122.793 1039.45 122.957 1039.79 123.074C1040.05 122.996 1040.32 122.867 1040.61 122.688C1040.89 122.5 1041.12 122.277 1041.32 122.02C1041.52 121.762 1041.61 121.484 1041.61 121.188C1041.61 120.852 1041.53 120.543 1041.37 120.262C1041.2 119.973 1040.98 119.746 1040.71 119.582C1040.45 119.41 1040.14 119.324 1039.81 119.324C1039.28 119.324 1038.82 119.488 1038.44 119.816C1038.05 120.137 1037.86 120.531 1037.86 121ZM1039.28 117.262L1040.61 114.648C1042.05 115.336 1043.33 115.969 1044.44 116.547C1045.55 117.125 1046.48 117.691 1047.24 118.246C1048 118.801 1048.57 119.391 1048.95 120.016C1049.34 120.641 1049.54 121.348 1049.54 122.137C1049.54 123.684 1049.07 124.863 1048.13 125.676C1047.2 126.48 1045.96 126.883 1044.41 126.883C1043.87 126.883 1043.3 126.836 1042.7 126.742C1042.11 126.648 1041.54 126.531 1040.99 126.391C1040.45 126.25 1039.98 126.117 1039.59 125.992C1038.88 126.242 1038.08 126.473 1037.17 126.684C1036.27 126.895 1035.39 127 1034.54 127H1033.38V123.848H1034.38C1034.7 123.848 1034.98 123.844 1035.24 123.836C1035.5 123.828 1035.78 123.812 1036.06 123.789C1035.86 123.562 1035.7 123.297 1035.55 122.992C1035.41 122.68 1035.3 122.352 1035.23 122.008C1035.15 121.664 1035.11 121.336 1035.11 121.023C1035.11 120.32 1035.29 119.648 1035.64 119.008C1035.99 118.367 1036.5 117.848 1037.17 117.449C1037.85 117.043 1038.68 116.84 1039.64 116.84C1040.36 116.84 1041.05 117.012 1041.72 117.355C1042.4 117.699 1042.95 118.168 1043.38 118.762C1043.82 119.348 1044.04 120.02 1044.04 120.777C1044.04 121.199 1043.99 121.594 1043.89 121.961C1043.79 122.32 1043.66 122.656 1043.49 122.969C1043.32 123.281 1043.11 123.57 1042.87 123.836C1043.23 123.891 1043.58 123.934 1043.93 123.965C1044.29 123.996 1044.56 124.012 1044.74 124.012C1045.3 124.012 1045.78 123.883 1046.18 123.625C1046.59 123.359 1046.79 122.891 1046.79 122.219C1046.79 122.047 1046.73 121.855 1046.59 121.645C1046.47 121.434 1046.25 121.191 1045.94 120.918C1045.62 120.645 1045.19 120.332 1044.62 119.98C1044.06 119.629 1043.34 119.23 1042.46 118.785C1041.58 118.332 1040.52 117.824 1039.28 117.262ZM1063.75 127H1060.77C1059.41 127 1058.16 126.914 1057.02 126.742C1055.89 126.57 1054.91 126.273 1054.09 125.852C1053.27 125.43 1052.64 124.848 1052.2 124.105C1051.75 123.355 1051.53 122.406 1051.53 121.258C1051.53 120.586 1051.6 119.93 1051.75 119.289C1051.91 118.648 1052.1 118.051 1052.32 117.496L1054.95 118.492C1054.82 118.852 1054.69 119.266 1054.56 119.734C1054.44 120.203 1054.38 120.648 1054.38 121.07C1054.38 121.68 1054.54 122.168 1054.86 122.535C1055.18 122.902 1055.64 123.18 1056.21 123.367C1056.79 123.555 1057.47 123.684 1058.24 123.754C1059.02 123.816 1059.87 123.848 1060.77 123.848H1063.74C1064.61 123.848 1065.32 123.809 1065.88 123.73C1066.45 123.645 1066.88 123.496 1067.16 123.285C1067.44 123.074 1067.58 122.77 1067.58 122.371C1067.58 122.129 1067.46 121.863 1067.21 121.574C1066.96 121.285 1066.63 120.984 1066.22 120.672C1065.82 120.359 1065.37 120.047 1064.89 119.734C1064.41 119.422 1063.93 119.113 1063.46 118.809C1062.99 118.504 1062.57 118.215 1062.19 117.941C1061.89 117.699 1061.65 117.395 1061.49 117.027C1061.32 116.66 1061.24 116.277 1061.24 115.879C1061.24 115.457 1061.34 115.074 1061.54 114.73C1061.74 114.379 1062.05 114.121 1062.47 113.957L1071.39 110.312V113.418L1064.86 116.066C1065.47 116.449 1066.02 116.805 1066.5 117.133C1067 117.453 1067.44 117.773 1067.84 118.094C1068.24 118.406 1068.59 118.73 1068.89 119.066C1069.21 119.402 1069.48 119.762 1069.73 120.145C1069.97 120.527 1070.18 120.953 1070.37 121.422C1070.62 122.008 1070.86 122.48 1071.09 122.84C1071.31 123.191 1071.59 123.449 1071.93 123.613C1072.27 123.77 1072.73 123.848 1073.29 123.848H1073.61V127H1073.29C1072.37 127 1071.59 126.855 1070.95 126.566C1070.31 126.277 1069.77 125.801 1069.32 125.137C1068.93 125.59 1068.5 125.953 1068.03 126.227C1067.56 126.5 1066.98 126.699 1066.3 126.824C1065.62 126.941 1064.77 127 1063.75 127ZM1087.45 127C1086.74 127 1086.15 126.855 1085.66 126.566C1085.19 126.27 1084.79 125.895 1084.47 125.441C1084.06 125.91 1083.6 126.289 1083.09 126.578C1082.58 126.859 1081.99 127 1081.32 127C1080.5 127 1079.83 126.863 1079.3 126.59C1078.78 126.309 1078.35 125.934 1078.02 125.465C1077.6 125.941 1077.1 126.316 1076.51 126.59C1075.93 126.863 1075.16 127 1074.23 127H1073.15V123.848H1074.25C1074.84 123.848 1075.32 123.801 1075.68 123.707C1076.04 123.613 1076.3 123.426 1076.46 123.145C1076.64 122.855 1076.72 122.43 1076.72 121.867C1076.72 121.742 1076.71 121.547 1076.7 121.281C1076.69 121.016 1076.68 120.723 1076.65 120.402C1076.63 120.074 1076.61 119.762 1076.58 119.465L1079.32 119.125L1079.57 122.16C1079.61 122.707 1079.77 123.125 1080.05 123.414C1080.34 123.703 1080.77 123.848 1081.34 123.848C1082.03 123.848 1082.48 123.699 1082.71 123.402C1082.95 123.098 1083.06 122.586 1083.06 121.867C1083.06 121.75 1083.05 121.559 1083.04 121.293C1083.03 121.027 1083.02 120.73 1082.99 120.402C1082.97 120.074 1082.95 119.762 1082.92 119.465L1085.66 119.125L1085.91 122.16C1085.94 122.668 1086.07 123.078 1086.3 123.391C1086.52 123.695 1086.9 123.848 1087.43 123.848C1087.76 123.848 1088.02 123.773 1088.22 123.625C1088.41 123.469 1088.55 123.242 1088.64 122.945C1088.73 122.648 1088.77 122.289 1088.77 121.867C1088.77 121.586 1088.75 121.203 1088.72 120.719C1088.7 120.227 1088.67 119.738 1088.63 119.254L1091.37 118.914L1091.62 122.16C1091.66 122.77 1091.83 123.203 1092.13 123.461C1092.45 123.719 1092.91 123.848 1093.53 123.848H1093.88V127H1093.55C1092.81 127 1092.16 126.871 1091.61 126.613C1091.06 126.348 1090.64 125.984 1090.34 125.523C1090.03 125.953 1089.64 126.309 1089.17 126.59C1088.71 126.863 1088.13 127 1087.45 127ZM1093.4 123.848H1094.34V127H1093.4V123.848ZM1097.66 128.57L1099.6 130.492L1097.66 132.438L1095.73 130.492L1097.66 128.57ZM1093.7 128.57L1095.66 130.492L1093.7 132.438L1091.79 130.492L1093.7 128.57ZM1095.93 127H1094.05V123.848H1095.93C1096.56 123.848 1096.99 123.656 1097.22 123.273C1097.45 122.891 1097.57 122.402 1097.57 121.809C1097.57 121.285 1097.51 120.715 1097.38 120.098C1097.27 119.473 1097.14 118.859 1097.02 118.258L1099.89 117.52C1100.04 118.23 1100.16 118.938 1100.24 119.641C1100.33 120.336 1100.37 121 1100.37 121.633C1100.37 122.656 1100.23 123.574 1099.96 124.387C1099.69 125.191 1099.23 125.828 1098.58 126.297C1097.93 126.766 1097.05 127 1095.93 127ZM1101.93 133.375L1100.83 130.492C1101.98 130.234 1102.96 129.891 1103.77 129.461C1104.58 129.039 1105.2 128.48 1105.62 127.785C1106.04 127.09 1106.25 126.223 1106.25 125.184C1106.25 124.48 1106.15 123.699 1105.94 122.84C1105.73 121.98 1105.5 121.172 1105.25 120.414L1108.16 119.453C1108.47 120.297 1108.7 121.191 1108.86 122.137C1109.01 123.082 1109.09 123.988 1109.09 124.855C1109.09 126.434 1108.8 127.805 1108.22 128.969C1107.64 130.141 1106.82 131.094 1105.75 131.828C1104.68 132.562 1103.41 133.078 1101.93 133.375ZM1129.08 114.414L1131.02 116.336L1129.08 118.281L1127.15 116.336L1129.08 114.414ZM1125.12 114.414L1127.08 116.336L1125.12 118.281L1123.21 116.336L1125.12 114.414ZM1133.69 119.16L1136.43 118.832L1136.66 122.066C1136.7 122.684 1136.87 123.137 1137.17 123.426C1137.46 123.707 1137.95 123.848 1138.61 123.848H1138.88V127H1138.61C1137.72 127 1136.98 126.836 1136.38 126.508C1135.8 126.18 1135.31 125.711 1134.93 125.102C1134.23 125.773 1133.36 126.258 1132.34 126.555C1131.32 126.852 1129.98 127 1128.32 127H1126.36C1124.99 127 1123.73 126.914 1122.6 126.742C1121.47 126.57 1120.49 126.273 1119.67 125.852C1118.85 125.43 1118.22 124.848 1117.77 124.105C1117.33 123.355 1117.11 122.406 1117.11 121.258C1117.11 120.586 1117.18 119.934 1117.33 119.301C1117.48 118.66 1117.68 118.062 1117.9 117.508L1120.53 118.504C1120.39 118.863 1120.27 119.277 1120.14 119.746C1120.02 120.207 1119.95 120.652 1119.95 121.082C1119.95 121.684 1120.11 122.168 1120.43 122.535C1120.76 122.902 1121.21 123.18 1121.79 123.367C1122.38 123.555 1123.06 123.684 1123.83 123.754C1124.61 123.816 1125.46 123.848 1126.36 123.848H1128.32C1129.48 123.848 1130.46 123.797 1131.27 123.695C1132.09 123.594 1132.72 123.387 1133.15 123.074C1133.59 122.762 1133.8 122.289 1133.8 121.656C1133.8 121.273 1133.79 120.855 1133.77 120.402C1133.75 119.941 1133.72 119.527 1133.69 119.16ZM1138.4 123.848H1139.34V127H1138.4V123.848ZM1142.66 128.57L1144.6 130.492L1142.66 132.438L1140.73 130.492L1142.66 128.57ZM1138.7 128.57L1140.66 130.492L1138.7 132.438L1136.79 130.492L1138.7 128.57ZM1140.93 127H1139.05V123.848H1140.93C1141.56 123.848 1141.99 123.656 1142.22 123.273C1142.45 122.891 1142.57 122.402 1142.57 121.809C1142.57 121.285 1142.51 120.715 1142.38 120.098C1142.27 119.473 1142.14 118.859 1142.02 118.258L1144.89 117.52C1145.04 118.23 1145.16 118.938 1145.24 119.641C1145.33 120.336 1145.37 121 1145.37 121.633C1145.37 122.656 1145.23 123.574 1144.96 124.387C1144.69 125.191 1144.23 125.828 1143.58 126.297C1142.93 126.766 1142.05 127 1140.93 127ZM1155.79 127C1155.41 127 1155.07 126.957 1154.75 126.871C1154.43 126.785 1154.16 126.676 1153.95 126.543C1153.76 127.707 1153.38 128.754 1152.79 129.684C1152.2 130.613 1151.42 131.391 1150.43 132.016C1149.46 132.648 1148.28 133.102 1146.91 133.375L1145.83 130.492C1146.98 130.234 1147.96 129.891 1148.77 129.461C1149.58 129.039 1150.2 128.48 1150.62 127.785C1151.04 127.09 1151.25 126.223 1151.25 125.184C1151.25 124.48 1151.15 123.699 1150.94 122.84C1150.73 121.98 1150.5 121.172 1150.25 120.414L1153.15 119.453L1153.83 122.066C1153.97 122.605 1154.18 123.039 1154.45 123.367C1154.73 123.688 1155.14 123.848 1155.66 123.848H1156.12V127H1155.79ZM1155.65 123.848H1157.42V127H1155.65V123.848ZM1158.98 127H1157.1V123.848H1158.98C1159.61 123.848 1160.04 123.656 1160.27 123.273C1160.5 122.891 1160.62 122.402 1160.62 121.809C1160.62 121.285 1160.55 120.715 1160.43 120.098C1160.31 119.473 1160.19 118.859 1160.07 118.258L1162.94 117.52C1163.09 118.23 1163.2 118.938 1163.29 119.641C1163.38 120.336 1163.42 121 1163.42 121.633C1163.42 122.656 1163.28 123.574 1163.01 124.387C1162.73 125.191 1162.27 125.828 1161.62 126.297C1160.98 126.766 1160.09 127 1158.98 127ZM1160.71 128.57L1162.64 130.492L1160.71 132.438L1158.78 130.492L1160.71 128.57ZM1156.75 128.57L1158.71 130.492L1156.75 132.438L1154.84 130.492L1156.75 128.57ZM1172.11 122.09C1172.11 121.895 1172.07 121.637 1171.97 121.316C1171.89 120.996 1171.79 120.727 1171.69 120.508L1169.43 115.457L1172.03 114.203L1174.89 120.836C1175.15 121.438 1175.38 121.965 1175.58 122.418C1175.79 122.871 1176.01 123.223 1176.25 123.473C1176.49 123.723 1176.8 123.848 1177.16 123.848H1177.66V127H1177.16C1176.57 127 1176.06 126.926 1175.64 126.777C1175.23 126.621 1174.86 126.406 1174.54 126.133C1174.23 125.859 1173.93 125.539 1173.66 125.172C1173.28 125.562 1172.84 125.895 1172.34 126.168C1171.84 126.441 1171.29 126.648 1170.66 126.789C1170.04 126.922 1169.33 126.988 1168.54 126.988C1167.88 126.988 1167.32 126.965 1166.84 126.918C1166.37 126.871 1165.89 126.789 1165.41 126.672V123.531C1165.89 123.641 1166.39 123.727 1166.91 123.789C1167.43 123.852 1167.91 123.883 1168.36 123.883C1169.01 123.883 1169.62 123.828 1170.19 123.719C1170.76 123.602 1171.22 123.414 1171.57 123.156C1171.93 122.891 1172.11 122.535 1172.11 122.09ZM1184.85 120.637C1184.52 120.637 1184.21 120.75 1183.94 120.977C1183.67 121.203 1183.43 121.48 1183.22 121.809C1183.02 122.129 1182.85 122.441 1182.71 122.746C1182.93 122.965 1183.15 123.156 1183.36 123.32C1183.58 123.477 1183.79 123.609 1183.97 123.719C1184.26 123.883 1184.53 124 1184.77 124.07C1185.02 124.141 1185.24 124.176 1185.43 124.176C1185.87 124.176 1186.19 124.027 1186.39 123.73C1186.59 123.434 1186.69 123.074 1186.69 122.652C1186.69 122.098 1186.53 121.625 1186.2 121.234C1185.87 120.836 1185.42 120.637 1184.85 120.637ZM1185.41 127.27C1184.88 127.27 1184.36 127.191 1183.88 127.035C1183.39 126.879 1182.92 126.66 1182.46 126.379C1182.01 126.098 1181.55 125.773 1181.09 125.406C1180.8 125.711 1180.51 125.984 1180.21 126.227C1179.91 126.461 1179.57 126.648 1179.18 126.789C1178.79 126.93 1178.3 127 1177.7 127H1177.19V123.848H1177.64C1178.06 123.848 1178.42 123.699 1178.73 123.402C1179.05 123.105 1179.35 122.723 1179.64 122.254C1179.93 121.777 1180.22 121.277 1180.53 120.754C1180.84 120.223 1181.19 119.719 1181.57 119.242C1181.95 118.766 1182.4 118.379 1182.92 118.082C1183.43 117.785 1184.05 117.637 1184.76 117.637C1185.72 117.637 1186.55 117.867 1187.25 118.328C1187.96 118.781 1188.51 119.383 1188.89 120.133C1189.28 120.883 1189.47 121.703 1189.47 122.594C1189.47 123.5 1189.32 124.305 1189.01 125.008C1188.71 125.711 1188.25 126.266 1187.65 126.672C1187.06 127.07 1186.31 127.27 1185.41 127.27Z" fill="white"/>
<path d="M1277.63 110.629H1280.57V121.434C1280.57 122.316 1280.7 122.941 1280.97 123.309C1281.24 123.668 1281.77 123.848 1282.54 123.848H1282.83V127H1282.54C1280.84 127 1279.6 126.559 1278.81 125.676C1278.02 124.793 1277.63 123.453 1277.63 121.656V110.629ZM1286.86 121C1286.86 121.297 1286.95 121.582 1287.13 121.855C1287.31 122.129 1287.55 122.371 1287.84 122.582C1288.13 122.793 1288.45 122.957 1288.79 123.074C1289.05 122.996 1289.32 122.867 1289.61 122.688C1289.89 122.5 1290.12 122.277 1290.32 122.02C1290.52 121.762 1290.61 121.484 1290.61 121.188C1290.61 120.852 1290.53 120.543 1290.37 120.262C1290.2 119.973 1289.98 119.746 1289.71 119.582C1289.45 119.41 1289.14 119.324 1288.81 119.324C1288.28 119.324 1287.82 119.488 1287.44 119.816C1287.05 120.137 1286.86 120.531 1286.86 121ZM1288.28 117.262L1289.61 114.648C1291.05 115.336 1292.33 115.969 1293.44 116.547C1294.55 117.125 1295.48 117.691 1296.24 118.246C1297 118.801 1297.57 119.391 1297.95 120.016C1298.34 120.641 1298.54 121.348 1298.54 122.137C1298.54 123.684 1298.07 124.863 1297.13 125.676C1296.2 126.48 1294.96 126.883 1293.41 126.883C1292.87 126.883 1292.3 126.836 1291.7 126.742C1291.11 126.648 1290.54 126.531 1289.99 126.391C1289.45 126.25 1288.98 126.117 1288.59 125.992C1287.88 126.242 1287.08 126.473 1286.17 126.684C1285.27 126.895 1284.39 127 1283.54 127H1282.38V123.848H1283.38C1283.7 123.848 1283.98 123.844 1284.24 123.836C1284.5 123.828 1284.78 123.812 1285.06 123.789C1284.86 123.562 1284.7 123.297 1284.55 122.992C1284.41 122.68 1284.3 122.352 1284.23 122.008C1284.15 121.664 1284.11 121.336 1284.11 121.023C1284.11 120.32 1284.29 119.648 1284.64 119.008C1284.99 118.367 1285.5 117.848 1286.17 117.449C1286.85 117.043 1287.68 116.84 1288.64 116.84C1289.36 116.84 1290.05 117.012 1290.72 117.355C1291.4 117.699 1291.95 118.168 1292.38 118.762C1292.82 119.348 1293.04 120.02 1293.04 120.777C1293.04 121.199 1292.99 121.594 1292.89 121.961C1292.79 122.32 1292.66 122.656 1292.49 122.969C1292.32 123.281 1292.11 123.57 1291.87 123.836C1292.23 123.891 1292.58 123.934 1292.93 123.965C1293.29 123.996 1293.56 124.012 1293.74 124.012C1294.3 124.012 1294.78 123.883 1295.18 123.625C1295.59 123.359 1295.79 122.891 1295.79 122.219C1295.79 122.047 1295.73 121.855 1295.59 121.645C1295.47 121.434 1295.25 121.191 1294.94 120.918C1294.62 120.645 1294.19 120.332 1293.62 119.98C1293.06 119.629 1292.34 119.23 1291.46 118.785C1290.58 118.332 1289.52 117.824 1288.28 117.262ZM1307.84 132.906C1306.15 132.906 1304.77 132.586 1303.69 131.945C1302.62 131.312 1301.83 130.449 1301.31 129.355C1300.8 128.27 1300.55 127.043 1300.55 125.676C1300.55 124.762 1300.65 123.82 1300.84 122.852C1301.05 121.875 1301.33 120.91 1301.7 119.957L1304.36 120.988C1304.09 121.793 1303.86 122.59 1303.67 123.379C1303.48 124.16 1303.39 124.895 1303.39 125.582C1303.39 126.348 1303.52 127.051 1303.79 127.691C1304.06 128.332 1304.52 128.844 1305.17 129.227C1305.82 129.609 1306.71 129.801 1307.84 129.801C1308.71 129.801 1309.49 129.719 1310.16 129.555C1310.84 129.398 1311.41 129.191 1311.86 128.934C1312.31 128.684 1312.66 128.418 1312.89 128.137C1313.12 127.855 1313.24 127.598 1313.24 127.363C1313.24 127.223 1313.2 127.105 1313.12 127.012C1313.05 126.926 1312.91 126.883 1312.7 126.883H1310.8C1310.37 126.883 1309.93 126.84 1309.5 126.754C1309.08 126.66 1308.7 126.484 1308.34 126.227C1308 125.961 1307.72 125.582 1307.51 125.09C1307.31 124.598 1307.21 123.957 1307.21 123.168C1307.21 122.363 1307.34 121.59 1307.59 120.848C1307.86 120.105 1308.23 119.441 1308.72 118.855C1309.21 118.27 1309.8 117.809 1310.49 117.473C1311.18 117.137 1311.95 116.969 1312.8 116.969C1313.34 116.969 1313.89 117.051 1314.44 117.215C1314.98 117.371 1315.49 117.617 1315.96 117.953L1314.96 120.707C1314.57 120.496 1314.19 120.348 1313.83 120.262C1313.47 120.176 1313.13 120.133 1312.81 120.133C1312.23 120.133 1311.73 120.266 1311.31 120.531C1310.89 120.797 1310.58 121.156 1310.36 121.609C1310.14 122.062 1310.03 122.578 1310.03 123.156C1310.03 123.391 1310.1 123.547 1310.23 123.625C1310.37 123.703 1310.57 123.742 1310.82 123.742H1312.59C1313.45 123.742 1314.12 123.883 1314.61 124.164C1315.11 124.438 1315.45 124.82 1315.66 125.312C1315.86 125.797 1315.96 126.355 1315.96 126.988C1315.96 127.793 1315.78 128.551 1315.42 129.262C1315.07 129.973 1314.55 130.602 1313.85 131.148C1313.16 131.703 1312.32 132.133 1311.31 132.438C1310.3 132.75 1309.14 132.906 1307.84 132.906ZM1324.57 122.09C1324.57 121.895 1324.53 121.637 1324.43 121.316C1324.35 120.996 1324.25 120.727 1324.15 120.508L1321.89 115.457L1324.49 114.203L1327.35 120.836C1327.61 121.438 1327.84 121.965 1328.04 122.418C1328.25 122.871 1328.47 123.223 1328.71 123.473C1328.95 123.723 1329.26 123.848 1329.62 123.848H1330.12V127H1329.62C1329.03 127 1328.52 126.926 1328.1 126.777C1327.69 126.621 1327.32 126.406 1327 126.133C1326.69 125.859 1326.39 125.539 1326.12 125.172C1325.74 125.562 1325.3 125.895 1324.8 126.168C1324.3 126.441 1323.75 126.648 1323.12 126.789C1322.5 126.922 1321.79 126.988 1321 126.988C1320.34 126.988 1319.78 126.965 1319.3 126.918C1318.83 126.871 1318.36 126.789 1317.87 126.672V123.531C1318.36 123.641 1318.86 123.727 1319.37 123.789C1319.89 123.852 1320.37 123.883 1320.82 123.883C1321.47 123.883 1322.08 123.828 1322.65 123.719C1323.22 123.602 1323.68 123.414 1324.04 123.156C1324.39 122.891 1324.57 122.535 1324.57 122.09ZM1333.01 119.16L1335.75 118.832L1335.99 122.066C1336.01 122.473 1336.09 122.809 1336.23 123.074C1336.38 123.34 1336.6 123.535 1336.88 123.66C1337.16 123.785 1337.52 123.848 1337.96 123.848H1338.2V127H1337.93C1337.4 127 1336.93 126.934 1336.5 126.801C1336.08 126.668 1335.71 126.484 1335.39 126.25C1335.07 126.016 1334.79 125.742 1334.56 125.43C1334.1 125.93 1333.54 126.316 1332.87 126.59C1332.21 126.863 1331.52 127 1330.77 127H1329.65V123.848H1330.77C1331.66 123.848 1332.27 123.688 1332.61 123.367C1332.96 123.047 1333.13 122.48 1333.13 121.668C1333.13 121.23 1333.12 120.805 1333.09 120.391C1333.08 119.969 1333.05 119.559 1333.01 119.16ZM1333.57 113.031L1335.6 115.059L1333.57 117.086L1331.55 115.059L1333.57 113.031ZM1338.25 127H1337.73L1337.75 123.848H1338.19C1338.61 123.848 1338.97 123.699 1339.28 123.402C1339.59 123.105 1339.89 122.723 1340.18 122.254C1340.47 121.777 1340.77 121.277 1341.07 120.754C1341.39 120.223 1341.73 119.719 1342.12 119.242C1342.5 118.766 1342.95 118.379 1343.46 118.082C1343.98 117.785 1344.59 117.637 1345.3 117.637C1346.18 117.637 1346.93 117.82 1347.57 118.188C1348.21 118.547 1348.73 119.039 1349.12 119.664C1349.53 120.281 1349.8 120.973 1349.93 121.738C1350.03 122.254 1350.16 122.668 1350.33 122.98C1350.5 123.293 1350.7 123.516 1350.93 123.648C1351.16 123.781 1351.41 123.848 1351.66 123.848H1351.96V127H1351.64C1351.14 127 1350.65 126.887 1350.17 126.66C1349.68 126.434 1349.3 126.148 1349.01 125.805C1348.62 126.305 1348.19 126.676 1347.71 126.918C1347.23 127.152 1346.65 127.27 1345.96 127.27C1345.42 127.27 1344.91 127.191 1344.43 127.035C1343.94 126.879 1343.47 126.66 1343.01 126.379C1342.55 126.098 1342.1 125.773 1341.64 125.406C1341.35 125.711 1341.05 125.984 1340.76 126.227C1340.46 126.461 1340.12 126.648 1339.73 126.789C1339.34 126.93 1338.84 127 1338.25 127ZM1345.4 120.637C1345.06 120.637 1344.76 120.75 1344.48 120.977C1344.22 121.203 1343.98 121.48 1343.77 121.809C1343.57 122.129 1343.39 122.441 1343.25 122.746C1343.5 122.973 1343.73 123.172 1343.96 123.344C1344.18 123.516 1344.4 123.656 1344.6 123.766C1344.88 123.914 1345.12 124.02 1345.35 124.082C1345.59 124.145 1345.79 124.176 1345.97 124.176C1346.42 124.176 1346.74 124.027 1346.93 123.73C1347.14 123.434 1347.24 123.074 1347.24 122.652C1347.24 122.098 1347.07 121.625 1346.75 121.234C1346.42 120.836 1345.97 120.637 1345.4 120.637ZM1353.37 127H1351.49V123.848H1353.37C1354 123.848 1354.43 123.656 1354.66 123.273C1354.89 122.891 1355.01 122.402 1355.01 121.809C1355.01 121.285 1354.95 120.715 1354.82 120.098C1354.7 119.473 1354.58 118.859 1354.46 118.258L1357.33 117.52C1357.48 118.23 1357.59 118.938 1357.68 119.641C1357.77 120.336 1357.81 121 1357.81 121.633C1357.81 122.656 1357.67 123.574 1357.4 124.387C1357.12 125.191 1356.66 125.828 1356.02 126.297C1355.37 126.766 1354.48 127 1353.37 127ZM1354.75 112L1356.78 114.027L1354.75 116.055L1352.72 114.027L1354.75 112ZM1363.38 110.629V126.988H1360.45V110.629H1363.38ZM1370.37 117.52C1371.09 117.52 1371.73 117.684 1372.29 118.012C1372.86 118.34 1373.34 118.793 1373.73 119.371C1374.13 119.949 1374.45 120.621 1374.68 121.387C1374.92 122.152 1375.06 122.973 1375.11 123.848H1376.09V127H1374.89C1374.62 128.133 1374.16 129.117 1373.51 129.953C1372.86 130.797 1372.01 131.5 1370.95 132.062C1369.88 132.633 1368.58 133.066 1367.04 133.363L1365.98 130.48C1367 130.277 1367.93 130.012 1368.77 129.684C1369.61 129.363 1370.32 128.977 1370.89 128.523C1371.46 128.07 1371.84 127.562 1372.04 127H1370.79C1369.23 127 1368.04 126.676 1367.23 126.027C1366.42 125.379 1366.01 124.344 1366.01 122.922C1366.01 122.344 1366.1 121.742 1366.28 121.117C1366.46 120.484 1366.73 119.898 1367.09 119.359C1367.46 118.812 1367.91 118.371 1368.45 118.035C1369 117.691 1369.64 117.52 1370.37 117.52ZM1370.76 123.848H1372.36C1372.33 123.441 1372.27 123.047 1372.18 122.664C1372.08 122.281 1371.95 121.934 1371.79 121.621C1371.63 121.309 1371.43 121.066 1371.19 120.895C1370.96 120.715 1370.68 120.625 1370.35 120.625C1369.96 120.625 1369.64 120.75 1369.41 121C1369.18 121.242 1369.02 121.531 1368.93 121.867C1368.84 122.203 1368.79 122.516 1368.79 122.805C1368.79 123.242 1368.96 123.527 1369.32 123.66C1369.67 123.785 1370.15 123.848 1370.76 123.848ZM1375.63 123.848H1376.46V127H1375.63V123.848ZM1380.82 112.105L1382.76 114.027L1380.82 115.973L1378.89 114.027L1380.82 112.105ZM1376.86 112.105L1378.82 114.027L1376.86 115.973L1374.95 114.027L1376.86 112.105ZM1378.02 127H1376.15V123.848H1378.02C1378.66 123.848 1379.09 123.656 1379.31 123.273C1379.55 122.891 1379.66 122.402 1379.66 121.809C1379.66 121.285 1379.6 120.715 1379.48 120.098C1379.36 119.473 1379.24 118.859 1379.11 118.258L1381.98 117.52C1382.13 118.23 1382.25 118.938 1382.34 119.641C1382.42 120.336 1382.46 121 1382.46 121.633C1382.46 122.656 1382.33 123.574 1382.05 124.387C1381.78 125.191 1381.32 125.828 1380.67 126.297C1380.02 126.766 1379.14 127 1378.02 127ZM1402.48 114.414L1404.41 116.336L1402.48 118.281L1400.55 116.336L1402.48 114.414ZM1398.52 114.414L1400.48 116.336L1398.52 118.281L1396.61 116.336L1398.52 114.414ZM1407.09 119.16L1409.83 118.832L1410.06 122.066C1410.1 122.684 1410.27 123.137 1410.57 123.426C1410.86 123.707 1411.34 123.848 1412.01 123.848H1412.28V127H1412.01C1411.12 127 1410.38 126.836 1409.78 126.508C1409.2 126.18 1408.71 125.711 1408.33 125.102C1407.62 125.773 1406.76 126.258 1405.74 126.555C1404.72 126.852 1403.38 127 1401.72 127H1399.76C1398.39 127 1397.13 126.914 1396 126.742C1394.87 126.57 1393.89 126.273 1393.07 125.852C1392.25 125.43 1391.62 124.848 1391.17 124.105C1390.73 123.355 1390.5 122.406 1390.5 121.258C1390.5 120.586 1390.58 119.934 1390.73 119.301C1390.88 118.66 1391.07 118.062 1391.3 117.508L1393.93 118.504C1393.79 118.863 1393.66 119.277 1393.54 119.746C1393.41 120.207 1393.35 120.652 1393.35 121.082C1393.35 121.684 1393.51 122.168 1393.83 122.535C1394.16 122.902 1394.61 123.18 1395.19 123.367C1395.78 123.555 1396.46 123.684 1397.23 123.754C1398.01 123.816 1398.86 123.848 1399.76 123.848H1401.72C1402.88 123.848 1403.86 123.797 1404.67 123.695C1405.49 123.594 1406.12 123.387 1406.55 123.074C1406.98 122.762 1407.2 122.289 1407.2 121.656C1407.2 121.273 1407.19 120.855 1407.17 120.402C1407.14 119.941 1407.12 119.527 1407.09 119.16ZM1419.12 110.91L1421.15 112.938L1419.12 114.965L1417.09 112.938L1419.12 110.91ZM1411.82 123.848H1413.81C1414.6 123.848 1415.34 123.789 1416.02 123.672C1416.7 123.555 1417.38 123.383 1418.05 123.156C1418.73 122.922 1419.45 122.637 1420.19 122.301C1420.93 121.965 1421.75 121.582 1422.65 121.152C1422.05 120.934 1421.5 120.727 1421 120.531C1420.5 120.328 1420.04 120.152 1419.64 120.004C1419.24 119.848 1418.9 119.727 1418.62 119.641C1418.34 119.547 1418.12 119.5 1417.98 119.5C1417.55 119.5 1417.16 119.633 1416.81 119.898C1416.47 120.164 1416.18 120.449 1415.95 120.754L1415.38 121.457L1412.92 120.262L1413.38 119.512C1413.92 118.629 1414.57 117.898 1415.32 117.32C1416.09 116.734 1416.98 116.441 1418 116.441C1418.43 116.441 1418.93 116.543 1419.5 116.746C1420.07 116.941 1420.68 117.191 1421.35 117.496C1422.01 117.793 1422.7 118.094 1423.4 118.398C1424.11 118.703 1424.81 118.961 1425.51 119.172C1426.21 119.375 1426.88 119.484 1427.51 119.5V122.383C1426.97 122.461 1426.45 122.59 1425.95 122.77C1425.46 122.941 1424.93 123.168 1424.37 123.449C1423.81 123.73 1423.16 124.07 1422.41 124.469C1421.41 125 1420.47 125.457 1419.59 125.84C1418.71 126.215 1417.8 126.504 1416.87 126.707C1415.95 126.902 1414.92 127 1413.78 127H1411.82V123.848ZM1430 110.629H1432.94V121.434C1432.94 122.316 1433.07 122.941 1433.34 123.309C1433.61 123.668 1434.13 123.848 1434.91 123.848H1435.2V127H1434.91C1433.21 127 1431.97 126.559 1431.18 125.676C1430.39 124.793 1430 123.453 1430 121.656V110.629ZM1438.11 119.16L1440.85 118.832L1441.08 122.066C1441.11 122.473 1441.19 122.809 1441.33 123.074C1441.48 123.34 1441.69 123.535 1441.97 123.66C1442.25 123.785 1442.61 123.848 1443.05 123.848H1443.3V127H1443.03C1442.5 127 1442.02 126.934 1441.6 126.801C1441.18 126.668 1440.8 126.484 1440.48 126.25C1440.16 126.016 1439.89 125.742 1439.65 125.43C1439.19 125.93 1438.63 126.316 1437.96 126.59C1437.31 126.863 1436.61 127 1435.87 127H1434.74V123.848H1435.87C1436.75 123.848 1437.36 123.688 1437.71 123.367C1438.05 123.047 1438.22 122.48 1438.22 121.668C1438.22 121.23 1438.21 120.805 1438.19 120.391C1438.17 119.969 1438.14 119.559 1438.11 119.16ZM1438.67 113.031L1440.7 115.059L1438.67 117.086L1436.64 115.059L1438.67 113.031ZM1453.5 110.523L1455.33 112.352L1453.5 114.18L1451.68 112.352L1453.5 110.523ZM1455.54 113.512L1457.37 115.34L1455.54 117.168L1453.71 115.34L1455.54 113.512ZM1451.46 113.512L1453.29 115.34L1451.46 117.168L1449.64 115.34L1451.46 113.512ZM1451 127C1450.18 127 1449.51 126.863 1448.98 126.59C1448.46 126.309 1448.03 125.934 1447.7 125.465C1447.28 125.941 1446.78 126.316 1446.19 126.59C1445.61 126.863 1444.84 127 1443.91 127H1442.83V123.848H1443.93C1444.52 123.848 1445 123.801 1445.36 123.707C1445.72 123.613 1445.98 123.426 1446.14 123.145C1446.32 122.855 1446.4 122.43 1446.4 121.867C1446.4 121.742 1446.39 121.547 1446.38 121.281C1446.37 121.016 1446.36 120.723 1446.33 120.402C1446.31 120.074 1446.29 119.762 1446.26 119.465L1449 119.125L1449.25 122.16C1449.29 122.707 1449.45 123.125 1449.73 123.414C1450.02 123.703 1450.45 123.848 1451.02 123.848C1451.71 123.848 1452.16 123.699 1452.39 123.402C1452.62 123.098 1452.74 122.586 1452.74 121.867C1452.74 121.75 1452.73 121.559 1452.72 121.293C1452.71 121.027 1452.7 120.73 1452.67 120.402C1452.65 120.074 1452.62 119.762 1452.6 119.465L1455.34 119.125L1455.59 122.16C1455.62 122.668 1455.75 123.078 1455.98 123.391C1456.2 123.695 1456.58 123.848 1457.11 123.848C1457.44 123.848 1457.7 123.758 1457.89 123.578C1458.08 123.398 1458.22 123.16 1458.3 122.863C1458.38 122.559 1458.43 122.227 1458.43 121.867C1458.43 121.43 1458.39 120.984 1458.31 120.531C1458.24 120.07 1458.16 119.648 1458.06 119.266C1457.97 118.883 1457.9 118.598 1457.85 118.41L1460.68 117.637C1460.83 118.238 1460.96 118.879 1461.06 119.559C1461.16 120.23 1461.21 120.902 1461.21 121.574C1461.21 122.512 1461.09 123.395 1460.83 124.223C1460.58 125.051 1460.16 125.723 1459.56 126.238C1458.98 126.746 1458.16 127 1457.12 127C1456.41 127 1455.82 126.855 1455.34 126.566C1454.87 126.27 1454.47 125.895 1454.15 125.441C1453.74 125.91 1453.28 126.289 1452.77 126.578C1452.26 126.859 1451.67 127 1451 127Z" fill="white"/>
<defs>
<linearGradient id="paint0_linear_14563_26401" x1="1669" y1="118" x2="368.369" y2="585.959" gradientUnits="userSpaceOnUse">
<stop stop-color="#1B4D7E"/>
<stop offset="0.33" stop-color="#2D80D2"/>
<stop offset="1" stop-color="#1B4D7E"/>
</linearGradient>
<linearGradient id="paint1_linear_14563_26401" x1="1669" y1="235" x2="443.23" y2="-441.025" gradientUnits="userSpaceOnUse">
<stop stop-color="#1B4D7E"/>
<stop offset="0.33" stop-color="#2D80D2"/>
<stop offset="1" stop-color="#1B4D7E"/>
</linearGradient>
</defs>
</svg>
