<svg width="2269" height="235" viewBox="0 0 2269 235" fill="none" xmlns="http://www.w3.org/2000/svg">
<rect width="2269" height="147" transform="matrix(-1 0 0 1 2269 44)" fill="#1B4D7F"/>
<path d="M400 44V191C781.94 191 826.01 235 1134.5 235C1442.99 235 1487.06 191 1869 191V44C1487.06 44 1442.99 1.52588e-05 1134.5 0C826.01 -1.52588e-05 781.94 44 400 44Z" fill="url(#paint0_linear_14563_26382)"/>
<rect width="400" height="147" transform="matrix(-1 0 0 1 2269 44)" fill="#1B4C7E"/>
<rect width="400" height="147" transform="matrix(-1 0 0 1 400 44)" fill="#1B4D7F"/>
<mask id="mask0_14563_26382" style="mask-type:alpha" maskUnits="userSpaceOnUse" x="400" y="0" width="1469" height="235">
<path d="M400 191V44C781.94 44 826.01 0 1134.5 0C1442.99 0 1487.06 44 1869 44V191C1487.06 191 1442.99 235 1134.5 235C826.01 235 781.94 191 400 191Z" fill="url(#paint1_linear_14563_26382)"/>
</mask>
<g mask="url(#mask0_14563_26382)">
<path d="M1157.79 -172L868.587 117.207L1157.79 406.413L1447 117.207L1157.79 -172Z" fill="#2D80D2"/>
<path d="M1455.79 -172L1166.59 117.207L1455.79 406.413L1745 117.207L1455.79 -172Z" fill="#2466A8"/>
<path d="M1711.79 -172L1422.59 117.207L1711.79 406.413L2001 117.207L1711.79 -172Z" fill="#1B4D7E"/>
</g>
<path d="M942.168 117.051L944.195 119.078L942.168 121.105L940.141 119.078L942.168 117.051ZM942.309 129.918C943.465 129.918 944.375 129.73 945.039 129.355C945.703 128.98 946.172 128.477 946.445 127.844C946.727 127.211 946.867 126.504 946.867 125.723C946.867 124.863 946.734 123.988 946.469 123.098C946.203 122.199 945.914 121.363 945.602 120.59L948.508 119.488L949.445 122.324C949.586 122.746 949.797 123.105 950.078 123.402C950.367 123.699 950.781 123.848 951.32 123.848H951.789V127H951.367C951 127 950.684 126.969 950.418 126.906C950.16 126.836 949.918 126.719 949.691 126.555C949.559 127.867 949.191 129.008 948.59 129.977C947.996 130.945 947.176 131.695 946.129 132.227C945.082 132.758 943.809 133.023 942.309 133.023C940.621 133.023 939.238 132.703 938.16 132.062C937.09 131.43 936.297 130.566 935.781 129.473C935.273 128.387 935.02 127.16 935.02 125.793C935.02 124.879 935.117 123.938 935.312 122.969C935.516 121.992 935.801 121.027 936.168 120.074L938.828 121.105C938.555 121.91 938.324 122.707 938.137 123.496C937.949 124.277 937.855 125.012 937.855 125.699C937.855 126.465 937.988 127.168 938.254 127.809C938.527 128.449 938.988 128.961 939.637 129.344C940.285 129.727 941.176 129.918 942.309 129.918ZM951.297 123.848H952.164V127H951.297V123.848ZM954.332 116.512C954.066 116.293 953.859 116.055 953.711 115.797C953.562 115.539 953.488 115.199 953.488 114.777C953.488 114.082 953.727 113.512 954.203 113.066C954.688 112.621 955.238 112.398 955.855 112.398C956.176 112.398 956.445 112.434 956.664 112.504C956.891 112.574 957.121 112.676 957.355 112.809L957.367 114.156C957.125 114.031 956.895 113.945 956.676 113.898C956.465 113.844 956.246 113.816 956.02 113.816C955.707 113.816 955.414 113.91 955.141 114.098C954.875 114.285 954.742 114.562 954.742 114.93C954.75 115.148 954.855 115.352 955.059 115.539C955.262 115.727 955.57 115.793 955.984 115.738C956 115.738 956.016 115.738 956.031 115.738C956.047 115.73 956.062 115.723 956.078 115.715L957.742 115.105L957.93 116.43L953.301 118.258L953.102 116.98L954.332 116.512ZM955.199 119.16L957.941 118.832L958.176 122.066C958.199 122.473 958.281 122.809 958.422 123.074C958.57 123.34 958.785 123.535 959.066 123.66C959.348 123.785 959.707 123.848 960.145 123.848H960.391V127H960.121C959.59 127 959.113 126.934 958.691 126.801C958.27 126.668 957.898 126.484 957.578 126.25C957.258 126.016 956.98 125.742 956.746 125.43C956.285 125.93 955.723 126.316 955.059 126.59C954.402 126.863 953.703 127 952.961 127H951.836V123.848H952.961C953.844 123.848 954.457 123.688 954.801 123.367C955.145 123.047 955.316 122.48 955.316 121.668C955.316 121.23 955.305 120.805 955.281 120.391C955.266 119.969 955.238 119.559 955.199 119.16ZM960.438 127H959.922L959.934 123.848H960.379C960.793 123.848 961.156 123.699 961.469 123.402C961.781 123.105 962.082 122.723 962.371 122.254C962.66 121.777 962.957 121.277 963.262 120.754C963.574 120.223 963.922 119.719 964.305 119.242C964.688 118.766 965.137 118.379 965.652 118.082C966.168 117.785 966.781 117.637 967.492 117.637C968.367 117.637 969.121 117.82 969.754 118.188C970.395 118.547 970.914 119.039 971.312 119.664C971.719 120.281 971.988 120.973 972.121 121.738C972.215 122.254 972.348 122.668 972.52 122.98C972.691 123.293 972.891 123.516 973.117 123.648C973.352 123.781 973.594 123.848 973.844 123.848H974.148V127H973.832C973.332 127 972.84 126.887 972.355 126.66C971.871 126.434 971.484 126.148 971.195 125.805C970.812 126.305 970.379 126.676 969.895 126.918C969.418 127.152 968.836 127.27 968.148 127.27C967.609 127.27 967.098 127.191 966.613 127.035C966.129 126.879 965.656 126.66 965.195 126.379C964.742 126.098 964.285 125.773 963.824 125.406C963.535 125.711 963.242 125.984 962.945 126.227C962.648 126.461 962.305 126.648 961.914 126.789C961.523 126.93 961.031 127 960.438 127ZM967.586 120.637C967.25 120.637 966.945 120.75 966.672 120.977C966.406 121.203 966.168 121.48 965.957 121.809C965.754 122.129 965.582 122.441 965.441 122.746C965.684 122.973 965.918 123.172 966.145 123.344C966.371 123.516 966.586 123.656 966.789 123.766C967.062 123.914 967.312 124.02 967.539 124.082C967.773 124.145 967.98 124.176 968.16 124.176C968.605 124.176 968.926 124.027 969.121 123.73C969.324 123.434 969.426 123.074 969.426 122.652C969.426 122.098 969.262 121.625 968.934 121.234C968.605 120.836 968.156 120.637 967.586 120.637ZM983.898 119.699C983.445 119.699 982.984 119.809 982.516 120.027C982.055 120.246 981.598 120.547 981.145 120.93C980.691 121.312 980.254 121.754 979.832 122.254C979.41 122.754 979.008 123.285 978.625 123.848H979.855C980.707 123.848 981.5 123.816 982.234 123.754C982.969 123.691 983.613 123.578 984.168 123.414C984.723 123.242 985.152 123.012 985.457 122.723C985.762 122.426 985.914 122.051 985.914 121.598C985.914 121.027 985.723 120.57 985.34 120.227C984.965 119.875 984.484 119.699 983.898 119.699ZM983.828 116.605C984.797 116.605 985.652 116.812 986.395 117.227C987.145 117.633 987.73 118.199 988.152 118.926C988.582 119.645 988.797 120.465 988.797 121.387C988.797 121.762 988.75 122.172 988.656 122.617C988.57 123.062 988.43 123.438 988.234 123.742C988.359 123.766 988.5 123.785 988.656 123.801C988.82 123.816 989.012 123.828 989.23 123.836C989.449 123.844 989.703 123.848 989.992 123.848H990.344V127H990.004C989.059 127 988.254 126.883 987.59 126.648C986.934 126.406 986.363 126.113 985.879 125.77C985.098 126.137 984.184 126.434 983.137 126.66C982.098 126.887 980.969 127 979.75 127H973.68V123.848H975.414C975.531 123.66 975.648 123.477 975.766 123.297C975.891 123.117 976.012 122.938 976.129 122.758V110.629H979.07V119.02C979.445 118.637 979.816 118.297 980.184 118C980.559 117.703 980.938 117.453 981.32 117.25C981.711 117.039 982.113 116.879 982.527 116.77C982.941 116.66 983.375 116.605 983.828 116.605ZM997.539 120.637C997.203 120.637 996.898 120.75 996.625 120.977C996.359 121.203 996.121 121.48 995.91 121.809C995.707 122.129 995.535 122.441 995.395 122.746C995.621 122.965 995.84 123.156 996.051 123.32C996.27 123.477 996.473 123.609 996.66 123.719C996.949 123.883 997.215 124 997.457 124.07C997.707 124.141 997.926 124.176 998.113 124.176C998.559 124.176 998.879 124.027 999.074 123.73C999.277 123.434 999.379 123.074 999.379 122.652C999.379 122.098 999.215 121.625 998.887 121.234C998.559 120.836 998.109 120.637 997.539 120.637ZM998.102 127.27C997.562 127.27 997.051 127.191 996.566 127.035C996.082 126.879 995.609 126.66 995.148 126.379C994.695 126.098 994.238 125.773 993.777 125.406C993.488 125.711 993.195 125.984 992.898 126.227C992.602 126.461 992.258 126.648 991.867 126.789C991.477 126.93 990.984 127 990.391 127H989.875V123.848H990.332C990.746 123.848 991.109 123.699 991.422 123.402C991.734 123.105 992.035 122.723 992.324 122.254C992.613 121.777 992.91 121.277 993.215 120.754C993.527 120.223 993.875 119.719 994.258 119.242C994.641 118.766 995.09 118.379 995.605 118.082C996.121 117.785 996.734 117.637 997.445 117.637C998.406 117.637 999.238 117.867 999.941 118.328C1000.65 118.781 1001.2 119.383 1001.58 120.133C1001.96 120.883 1002.16 121.703 1002.16 122.594C1002.16 123.5 1002 124.305 1001.7 125.008C1001.39 125.711 1000.94 126.266 1000.34 126.672C999.746 127.07 999 127.27 998.102 127.27ZM1017.5 132.906C1015.81 132.906 1014.43 132.586 1013.35 131.945C1012.28 131.312 1011.48 130.449 1010.97 129.355C1010.46 128.27 1010.21 127.043 1010.21 125.676C1010.21 124.762 1010.3 123.82 1010.5 122.852C1010.7 121.875 1010.99 120.91 1011.36 119.957L1014.02 120.988C1013.74 121.793 1013.51 122.59 1013.32 123.379C1013.14 124.16 1013.04 124.895 1013.04 125.582C1013.04 126.348 1013.18 127.051 1013.44 127.691C1013.71 128.332 1014.18 128.844 1014.82 129.227C1015.47 129.609 1016.36 129.801 1017.5 129.801C1018.37 129.801 1019.14 129.719 1019.82 129.555C1020.5 129.398 1021.06 129.191 1021.52 128.934C1021.97 128.684 1022.31 128.418 1022.55 128.137C1022.78 127.855 1022.9 127.598 1022.9 127.363C1022.9 127.223 1022.86 127.105 1022.78 127.012C1022.7 126.926 1022.56 126.883 1022.36 126.883H1020.46C1020.02 126.883 1019.59 126.84 1019.16 126.754C1018.74 126.66 1018.35 126.484 1018 126.227C1017.66 125.961 1017.38 125.582 1017.17 125.09C1016.96 124.598 1016.86 123.957 1016.86 123.168C1016.86 122.363 1016.99 121.59 1017.25 120.848C1017.52 120.105 1017.89 119.441 1018.38 118.855C1018.87 118.27 1019.46 117.809 1020.14 117.473C1020.83 117.137 1021.6 116.969 1022.45 116.969C1023 116.969 1023.55 117.051 1024.09 117.215C1024.64 117.371 1025.15 117.617 1025.62 117.953L1024.62 120.707C1024.22 120.496 1023.84 120.348 1023.48 120.262C1023.12 120.176 1022.79 120.133 1022.46 120.133C1021.89 120.133 1021.39 120.266 1020.96 120.531C1020.55 120.797 1020.23 121.156 1020.02 121.609C1019.8 122.062 1019.69 122.578 1019.69 123.156C1019.69 123.391 1019.75 123.547 1019.89 123.625C1020.03 123.703 1020.22 123.742 1020.47 123.742H1022.24C1023.1 123.742 1023.78 123.883 1024.27 124.164C1024.76 124.438 1025.11 124.82 1025.31 125.312C1025.52 125.797 1025.62 126.355 1025.62 126.988C1025.62 127.793 1025.44 128.551 1025.08 129.262C1024.73 129.973 1024.2 130.602 1023.51 131.148C1022.82 131.703 1021.97 132.133 1020.96 132.438C1019.96 132.75 1018.8 132.906 1017.5 132.906ZM1035.95 127C1035.58 127 1035.23 126.957 1034.91 126.871C1034.59 126.785 1034.32 126.676 1034.11 126.543C1033.93 127.707 1033.54 128.754 1032.95 129.684C1032.37 130.613 1031.58 131.391 1030.6 132.016C1029.62 132.648 1028.45 133.102 1027.07 133.375L1025.99 130.492C1027.15 130.234 1028.13 129.891 1028.93 129.461C1029.75 129.039 1030.36 128.48 1030.79 127.785C1031.21 127.09 1031.42 126.223 1031.42 125.184C1031.42 124.48 1031.31 123.699 1031.1 122.84C1030.9 121.98 1030.67 121.172 1030.41 120.414L1033.32 119.453L1034 122.066C1034.14 122.605 1034.34 123.039 1034.62 123.367C1034.9 123.688 1035.3 123.848 1035.82 123.848H1036.28V127H1035.95ZM1035.81 123.848H1037.58V127H1035.81V123.848ZM1040.88 128.57L1042.81 130.492L1040.88 132.438L1038.94 130.492L1040.88 128.57ZM1036.91 128.57L1038.87 130.492L1036.91 132.438L1035 130.492L1036.91 128.57ZM1040.63 119.16L1043.37 118.832L1043.61 122.066C1043.63 122.473 1043.71 122.809 1043.85 123.074C1044 123.34 1044.21 123.535 1044.5 123.66C1044.78 123.785 1045.14 123.848 1045.57 123.848H1045.82V127H1045.55C1045.02 127 1044.54 126.934 1044.12 126.801C1043.7 126.668 1043.33 126.484 1043.01 126.25C1042.69 126.016 1042.41 125.742 1042.18 125.43C1041.71 125.93 1041.15 126.316 1040.49 126.59C1039.83 126.863 1039.13 127 1038.39 127H1037.27V123.848H1038.39C1039.27 123.848 1039.89 123.688 1040.23 123.367C1040.57 123.047 1040.75 122.48 1040.75 121.668C1040.75 121.23 1040.73 120.805 1040.71 120.391C1040.7 119.969 1040.67 119.559 1040.63 119.16ZM1046.31 112.926V111.25L1055.72 107.418V109.105L1046.31 112.926ZM1049.32 116.066C1049.93 116.449 1050.52 116.824 1051.07 117.191C1051.62 117.559 1052.13 117.938 1052.59 118.328C1053.05 118.711 1053.46 119.113 1053.8 119.535C1054.14 119.957 1054.41 120.406 1054.6 120.883C1054.79 121.359 1054.88 121.871 1054.88 122.418C1054.88 123.598 1054.61 124.523 1054.07 125.195C1053.53 125.859 1052.76 126.328 1051.76 126.602C1050.77 126.867 1049.59 127 1048.21 127H1045.35V123.848H1048.2C1049.07 123.848 1049.78 123.809 1050.34 123.73C1050.91 123.645 1051.34 123.496 1051.62 123.285C1051.9 123.074 1052.04 122.77 1052.04 122.371C1052.04 122.129 1051.92 121.863 1051.67 121.574C1051.42 121.285 1051.09 120.984 1050.68 120.672C1050.28 120.359 1049.83 120.047 1049.35 119.734C1048.87 119.422 1048.39 119.113 1047.92 118.809C1047.45 118.504 1047.03 118.215 1046.65 117.941C1046.35 117.707 1046.11 117.406 1045.95 117.039C1045.79 116.672 1045.7 116.301 1045.7 115.926C1045.7 115.512 1045.8 115.121 1046 114.754C1046.2 114.387 1046.51 114.121 1046.92 113.957L1055.85 110.312V113.418L1049.32 116.066ZM1067.45 122.711C1067.45 122.352 1067.37 122.016 1067.21 121.703C1067.05 121.391 1066.83 121.141 1066.55 120.953C1066.27 120.766 1065.94 120.672 1065.55 120.672C1065.28 120.672 1065.03 120.746 1064.8 120.895C1064.58 121.035 1064.38 121.227 1064.2 121.469C1064.02 121.703 1063.87 121.965 1063.74 122.254C1063.61 122.535 1063.49 122.816 1063.4 123.098C1063.79 123.27 1064.16 123.434 1064.52 123.59C1064.89 123.738 1065.23 123.859 1065.53 123.953C1065.84 124.047 1066.09 124.094 1066.3 124.094C1066.72 124.094 1067.01 123.957 1067.18 123.684C1067.36 123.402 1067.45 123.078 1067.45 122.711ZM1070.14 121.609C1070.19 121.953 1070.3 122.297 1070.45 122.641C1070.61 122.984 1070.8 123.273 1071.04 123.508C1071.27 123.734 1071.54 123.848 1071.85 123.848H1072.16V127H1071.85C1071.36 127 1070.87 126.887 1070.38 126.66C1069.91 126.426 1069.52 126.133 1069.22 125.781C1068.89 126.25 1068.5 126.602 1068.03 126.836C1067.57 127.07 1066.98 127.188 1066.26 127.188C1065.83 127.188 1065.37 127.113 1064.89 126.965C1064.41 126.816 1063.94 126.648 1063.48 126.461C1063.03 126.266 1062.61 126.094 1062.24 125.945C1061.86 125.797 1061.56 125.723 1061.34 125.723C1061.13 125.723 1060.96 125.82 1060.83 126.016C1060.71 126.203 1060.61 126.48 1060.53 126.848C1060.46 127.207 1060.41 127.641 1060.38 128.148C1060.35 128.656 1060.34 129.223 1060.34 129.848C1060.34 130.488 1060.35 131.105 1060.38 131.699C1060.4 132.301 1060.43 132.84 1060.46 133.316C1060.5 133.793 1060.52 134.176 1060.54 134.465H1057.56C1057.52 133.645 1057.48 132.852 1057.45 132.086C1057.41 131.328 1057.4 130.59 1057.4 129.871C1057.4 128.871 1057.43 127.957 1057.5 127.129C1057.57 126.301 1057.71 125.574 1057.93 124.949C1058.14 124.316 1058.47 123.801 1058.9 123.402C1059.34 123.004 1059.91 122.742 1060.63 122.617C1060.84 121.938 1061.09 121.301 1061.38 120.707C1061.69 120.113 1062.04 119.586 1062.45 119.125C1062.86 118.664 1063.31 118.305 1063.82 118.047C1064.34 117.781 1064.9 117.648 1065.51 117.648C1066.33 117.648 1067.06 117.812 1067.7 118.141C1068.35 118.461 1068.88 118.918 1069.3 119.512C1069.73 120.098 1070 120.797 1070.14 121.609ZM1071.67 123.848H1072.61V127H1071.67V123.848ZM1075.94 128.57L1077.87 130.492L1075.94 132.438L1074 130.492L1075.94 128.57ZM1071.98 128.57L1073.93 130.492L1071.98 132.438L1070.07 130.492L1071.98 128.57ZM1075.68 119.16L1078.42 118.832L1078.66 122.066C1078.68 122.473 1078.76 122.809 1078.9 123.074C1079.05 123.34 1079.27 123.535 1079.55 123.66C1079.83 123.785 1080.19 123.848 1080.62 123.848H1080.87V127H1080.6C1080.07 127 1079.59 126.934 1079.17 126.801C1078.75 126.668 1078.38 126.484 1078.06 126.25C1077.74 126.016 1077.46 125.742 1077.23 125.43C1076.77 125.93 1076.2 126.316 1075.54 126.59C1074.88 126.863 1074.18 127 1073.44 127H1072.32V123.848H1073.44C1074.32 123.848 1074.94 123.688 1075.28 123.367C1075.62 123.047 1075.8 122.48 1075.8 121.668C1075.8 121.23 1075.79 120.805 1075.76 120.391C1075.75 119.969 1075.72 119.559 1075.68 119.16ZM1080.93 127H1080.41L1080.43 123.848H1080.87C1081.29 123.848 1081.65 123.699 1081.96 123.402C1082.27 123.105 1082.57 122.723 1082.86 122.254C1083.15 121.777 1083.45 121.277 1083.75 120.754C1084.07 120.223 1084.41 119.719 1084.8 119.242C1085.18 118.766 1085.63 118.379 1086.14 118.082C1086.66 117.785 1087.27 117.637 1087.98 117.637C1088.86 117.637 1089.61 117.82 1090.25 118.188C1090.89 118.547 1091.41 119.039 1091.8 119.664C1092.21 120.281 1092.48 120.973 1092.61 121.738C1092.71 122.254 1092.84 122.668 1093.01 122.98C1093.18 123.293 1093.38 123.516 1093.61 123.648C1093.84 123.781 1094.09 123.848 1094.34 123.848H1094.64V127H1094.32C1093.82 127 1093.33 126.887 1092.85 126.66C1092.36 126.434 1091.98 126.148 1091.69 125.805C1091.3 126.305 1090.87 126.676 1090.39 126.918C1089.91 127.152 1089.33 127.27 1088.64 127.27C1088.1 127.27 1087.59 127.191 1087.11 127.035C1086.62 126.879 1086.15 126.66 1085.69 126.379C1085.23 126.098 1084.78 125.773 1084.32 125.406C1084.03 125.711 1083.73 125.984 1083.44 126.227C1083.14 126.461 1082.8 126.648 1082.41 126.789C1082.02 126.93 1081.52 127 1080.93 127ZM1088.08 120.637C1087.74 120.637 1087.44 120.75 1087.16 120.977C1086.9 121.203 1086.66 121.48 1086.45 121.809C1086.25 122.129 1086.07 122.441 1085.93 122.746C1086.18 122.973 1086.41 123.172 1086.64 123.344C1086.86 123.516 1087.08 123.656 1087.28 123.766C1087.55 123.914 1087.8 124.02 1088.03 124.082C1088.27 124.145 1088.47 124.176 1088.65 124.176C1089.1 124.176 1089.42 124.027 1089.61 123.73C1089.82 123.434 1089.92 123.074 1089.92 122.652C1089.92 122.098 1089.75 121.625 1089.43 121.234C1089.1 120.836 1088.65 120.637 1088.08 120.637ZM1108.83 119.699C1108.38 119.699 1107.92 119.809 1107.45 120.027C1106.99 120.246 1106.53 120.547 1106.08 120.93C1105.62 121.312 1105.19 121.754 1104.77 122.254C1104.34 122.754 1103.94 123.285 1103.56 123.848H1104.79C1105.64 123.848 1106.43 123.816 1107.17 123.754C1107.9 123.691 1108.55 123.578 1109.1 123.414C1109.66 123.242 1110.09 123.012 1110.39 122.723C1110.7 122.426 1110.85 122.051 1110.85 121.598C1110.85 121.027 1110.66 120.57 1110.27 120.227C1109.9 119.875 1109.42 119.699 1108.83 119.699ZM1104.68 127H1104.06C1103.15 127 1102.34 126.949 1101.62 126.848C1100.91 126.738 1100.29 126.566 1099.76 126.332C1099.24 126.098 1098.8 125.797 1098.44 125.43C1097.99 125.93 1097.47 126.316 1096.88 126.59C1096.29 126.863 1095.55 127 1094.65 127H1094.17L1094.18 123.848H1094.65C1095.62 123.848 1096.26 123.688 1096.57 123.367C1096.89 123.039 1097.05 122.473 1097.05 121.668C1097.05 121.23 1097.04 120.809 1097.02 120.402C1097 119.988 1096.97 119.578 1096.94 119.172L1099.68 118.844L1099.89 122.055C1099.92 122.414 1099.99 122.723 1100.1 122.98C1100.22 123.23 1100.39 123.375 1100.61 123.414C1101.17 122.477 1101.75 121.598 1102.36 120.777C1102.97 119.957 1103.61 119.234 1104.29 118.609C1104.96 117.984 1105.66 117.496 1106.39 117.145C1107.14 116.785 1107.92 116.605 1108.75 116.605C1109.72 116.605 1110.58 116.812 1111.33 117.227C1112.08 117.633 1112.66 118.199 1113.09 118.926C1113.52 119.645 1113.73 120.465 1113.73 121.387C1113.73 121.762 1113.68 122.172 1113.59 122.617C1113.5 123.062 1113.36 123.438 1113.17 123.742C1113.29 123.766 1113.44 123.785 1113.6 123.801C1113.77 123.816 1113.95 123.828 1114.16 123.836C1114.38 123.844 1114.64 123.848 1114.93 123.848H1115.28V127H1114.94C1113.99 127 1113.2 126.883 1112.57 126.648C1111.94 126.406 1111.38 126.113 1110.89 125.77C1110.11 126.137 1109.18 126.434 1108.11 126.66C1107.04 126.887 1105.9 127 1104.68 127ZM1114.82 123.848H1115.65V127H1114.82V123.848ZM1120.01 112.105L1121.95 114.027L1120.01 115.973L1118.08 114.027L1120.01 112.105ZM1116.05 112.105L1118.01 114.027L1116.05 115.973L1114.14 114.027L1116.05 112.105ZM1117.21 127H1115.34V123.848H1117.21C1117.84 123.848 1118.27 123.656 1118.5 123.273C1118.73 122.891 1118.85 122.402 1118.85 121.809C1118.85 121.285 1118.79 120.715 1118.66 120.098C1118.55 119.473 1118.43 118.859 1118.3 118.258L1121.17 117.52C1121.32 118.23 1121.44 118.938 1121.52 119.641C1121.61 120.336 1121.65 121 1121.65 121.633C1121.65 122.656 1121.52 123.574 1121.24 124.387C1120.97 125.191 1120.51 125.828 1119.86 126.297C1119.21 126.766 1118.33 127 1117.21 127Z" fill="white"/>
<path d="M1225.63 110.629H1228.57V121.434C1228.57 122.316 1228.7 122.941 1228.97 123.309C1229.24 123.668 1229.77 123.848 1230.54 123.848H1230.83V127H1230.54C1228.84 127 1227.6 126.559 1226.81 125.676C1226.02 124.793 1225.63 123.453 1225.63 121.656V110.629ZM1234.86 121C1234.86 121.297 1234.95 121.582 1235.13 121.855C1235.31 122.129 1235.55 122.371 1235.84 122.582C1236.13 122.793 1236.45 122.957 1236.79 123.074C1237.05 122.996 1237.32 122.867 1237.61 122.688C1237.89 122.5 1238.12 122.277 1238.32 122.02C1238.52 121.762 1238.61 121.484 1238.61 121.188C1238.61 120.852 1238.53 120.543 1238.37 120.262C1238.2 119.973 1237.98 119.746 1237.71 119.582C1237.45 119.41 1237.14 119.324 1236.81 119.324C1236.28 119.324 1235.82 119.488 1235.44 119.816C1235.05 120.137 1234.86 120.531 1234.86 121ZM1236.28 117.262L1237.61 114.648C1239.05 115.336 1240.33 115.969 1241.44 116.547C1242.55 117.125 1243.48 117.691 1244.24 118.246C1245 118.801 1245.57 119.391 1245.95 120.016C1246.34 120.641 1246.54 121.348 1246.54 122.137C1246.54 123.684 1246.07 124.863 1245.13 125.676C1244.2 126.48 1242.96 126.883 1241.41 126.883C1240.87 126.883 1240.3 126.836 1239.7 126.742C1239.11 126.648 1238.54 126.531 1237.99 126.391C1237.45 126.25 1236.98 126.117 1236.59 125.992C1235.88 126.242 1235.08 126.473 1234.17 126.684C1233.27 126.895 1232.39 127 1231.54 127H1230.38V123.848H1231.38C1231.7 123.848 1231.98 123.844 1232.24 123.836C1232.5 123.828 1232.78 123.812 1233.06 123.789C1232.86 123.562 1232.7 123.297 1232.55 122.992C1232.41 122.68 1232.3 122.352 1232.23 122.008C1232.15 121.664 1232.11 121.336 1232.11 121.023C1232.11 120.32 1232.29 119.648 1232.64 119.008C1232.99 118.367 1233.5 117.848 1234.17 117.449C1234.85 117.043 1235.68 116.84 1236.64 116.84C1237.36 116.84 1238.05 117.012 1238.72 117.355C1239.4 117.699 1239.95 118.168 1240.38 118.762C1240.82 119.348 1241.04 120.02 1241.04 120.777C1241.04 121.199 1240.99 121.594 1240.89 121.961C1240.79 122.32 1240.66 122.656 1240.49 122.969C1240.32 123.281 1240.11 123.57 1239.87 123.836C1240.23 123.891 1240.58 123.934 1240.93 123.965C1241.29 123.996 1241.56 124.012 1241.74 124.012C1242.3 124.012 1242.78 123.883 1243.18 123.625C1243.59 123.359 1243.79 122.891 1243.79 122.219C1243.79 122.047 1243.73 121.855 1243.59 121.645C1243.47 121.434 1243.25 121.191 1242.94 120.918C1242.62 120.645 1242.19 120.332 1241.62 119.98C1241.06 119.629 1240.34 119.23 1239.46 118.785C1238.58 118.332 1237.52 117.824 1236.28 117.262ZM1260.75 127H1257.77C1256.41 127 1255.16 126.914 1254.02 126.742C1252.89 126.57 1251.91 126.273 1251.09 125.852C1250.27 125.43 1249.64 124.848 1249.2 124.105C1248.75 123.355 1248.53 122.406 1248.53 121.258C1248.53 120.586 1248.6 119.93 1248.75 119.289C1248.91 118.648 1249.1 118.051 1249.32 117.496L1251.95 118.492C1251.82 118.852 1251.69 119.266 1251.56 119.734C1251.44 120.203 1251.38 120.648 1251.38 121.07C1251.38 121.68 1251.54 122.168 1251.86 122.535C1252.18 122.902 1252.64 123.18 1253.21 123.367C1253.79 123.555 1254.47 123.684 1255.24 123.754C1256.02 123.816 1256.87 123.848 1257.77 123.848H1260.74C1261.61 123.848 1262.32 123.809 1262.88 123.73C1263.45 123.645 1263.88 123.496 1264.16 123.285C1264.44 123.074 1264.58 122.77 1264.58 122.371C1264.58 122.129 1264.46 121.863 1264.21 121.574C1263.96 121.285 1263.63 120.984 1263.22 120.672C1262.82 120.359 1262.37 120.047 1261.89 119.734C1261.41 119.422 1260.93 119.113 1260.46 118.809C1259.99 118.504 1259.57 118.215 1259.19 117.941C1258.89 117.699 1258.65 117.395 1258.49 117.027C1258.32 116.66 1258.24 116.277 1258.24 115.879C1258.24 115.457 1258.34 115.074 1258.54 114.73C1258.74 114.379 1259.05 114.121 1259.47 113.957L1268.39 110.312V113.418L1261.86 116.066C1262.47 116.449 1263.02 116.805 1263.5 117.133C1264 117.453 1264.44 117.773 1264.84 118.094C1265.24 118.406 1265.59 118.73 1265.89 119.066C1266.21 119.402 1266.48 119.762 1266.73 120.145C1266.97 120.527 1267.18 120.953 1267.37 121.422C1267.62 122.008 1267.86 122.48 1268.09 122.84C1268.31 123.191 1268.59 123.449 1268.93 123.613C1269.27 123.77 1269.73 123.848 1270.29 123.848H1270.61V127H1270.29C1269.37 127 1268.59 126.855 1267.95 126.566C1267.31 126.277 1266.77 125.801 1266.32 125.137C1265.93 125.59 1265.5 125.953 1265.03 126.227C1264.56 126.5 1263.98 126.699 1263.3 126.824C1262.62 126.941 1261.77 127 1260.75 127ZM1284.45 127C1283.74 127 1283.15 126.855 1282.66 126.566C1282.19 126.27 1281.79 125.895 1281.47 125.441C1281.06 125.91 1280.6 126.289 1280.09 126.578C1279.58 126.859 1278.99 127 1278.32 127C1277.5 127 1276.83 126.863 1276.3 126.59C1275.78 126.309 1275.35 125.934 1275.02 125.465C1274.6 125.941 1274.1 126.316 1273.51 126.59C1272.93 126.863 1272.16 127 1271.23 127H1270.15V123.848H1271.25C1271.84 123.848 1272.32 123.801 1272.68 123.707C1273.04 123.613 1273.3 123.426 1273.46 123.145C1273.64 122.855 1273.72 122.43 1273.72 121.867C1273.72 121.742 1273.71 121.547 1273.7 121.281C1273.69 121.016 1273.68 120.723 1273.65 120.402C1273.63 120.074 1273.61 119.762 1273.58 119.465L1276.32 119.125L1276.57 122.16C1276.61 122.707 1276.77 123.125 1277.05 123.414C1277.34 123.703 1277.77 123.848 1278.34 123.848C1279.03 123.848 1279.48 123.699 1279.71 123.402C1279.95 123.098 1280.06 122.586 1280.06 121.867C1280.06 121.75 1280.05 121.559 1280.04 121.293C1280.03 121.027 1280.02 120.73 1279.99 120.402C1279.97 120.074 1279.95 119.762 1279.92 119.465L1282.66 119.125L1282.91 122.16C1282.94 122.668 1283.07 123.078 1283.3 123.391C1283.52 123.695 1283.9 123.848 1284.43 123.848C1284.76 123.848 1285.02 123.773 1285.22 123.625C1285.41 123.469 1285.55 123.242 1285.64 122.945C1285.73 122.648 1285.77 122.289 1285.77 121.867C1285.77 121.586 1285.75 121.203 1285.72 120.719C1285.7 120.227 1285.67 119.738 1285.63 119.254L1288.37 118.914L1288.62 122.16C1288.66 122.77 1288.83 123.203 1289.13 123.461C1289.45 123.719 1289.91 123.848 1290.53 123.848H1290.88V127H1290.55C1289.81 127 1289.16 126.871 1288.61 126.613C1288.06 126.348 1287.64 125.984 1287.34 125.523C1287.03 125.953 1286.64 126.309 1286.17 126.59C1285.71 126.863 1285.13 127 1284.45 127ZM1290.4 123.848H1291.34V127H1290.4V123.848ZM1294.66 128.57L1296.6 130.492L1294.66 132.438L1292.73 130.492L1294.66 128.57ZM1290.7 128.57L1292.66 130.492L1290.7 132.438L1288.79 130.492L1290.7 128.57ZM1292.93 127H1291.05V123.848H1292.93C1293.56 123.848 1293.99 123.656 1294.22 123.273C1294.45 122.891 1294.57 122.402 1294.57 121.809C1294.57 121.285 1294.51 120.715 1294.38 120.098C1294.27 119.473 1294.14 118.859 1294.02 118.258L1296.89 117.52C1297.04 118.23 1297.16 118.938 1297.24 119.641C1297.33 120.336 1297.37 121 1297.37 121.633C1297.37 122.656 1297.23 123.574 1296.96 124.387C1296.69 125.191 1296.23 125.828 1295.58 126.297C1294.93 126.766 1294.05 127 1292.93 127ZM1298.93 133.375L1297.83 130.492C1298.98 130.234 1299.96 129.891 1300.77 129.461C1301.58 129.039 1302.2 128.48 1302.62 127.785C1303.04 127.09 1303.25 126.223 1303.25 125.184C1303.25 124.48 1303.15 123.699 1302.94 122.84C1302.73 121.98 1302.5 121.172 1302.25 120.414L1305.16 119.453C1305.47 120.297 1305.7 121.191 1305.86 122.137C1306.01 123.082 1306.09 123.988 1306.09 124.855C1306.09 126.434 1305.8 127.805 1305.22 128.969C1304.64 130.141 1303.82 131.094 1302.75 131.828C1301.68 132.562 1300.41 133.078 1298.93 133.375ZM1326.08 114.414L1328.02 116.336L1326.08 118.281L1324.15 116.336L1326.08 114.414ZM1322.12 114.414L1324.08 116.336L1322.12 118.281L1320.21 116.336L1322.12 114.414ZM1330.69 119.16L1333.43 118.832L1333.66 122.066C1333.7 122.684 1333.87 123.137 1334.17 123.426C1334.46 123.707 1334.95 123.848 1335.61 123.848H1335.88V127H1335.61C1334.72 127 1333.98 126.836 1333.38 126.508C1332.8 126.18 1332.31 125.711 1331.93 125.102C1331.23 125.773 1330.36 126.258 1329.34 126.555C1328.32 126.852 1326.98 127 1325.32 127H1323.36C1321.99 127 1320.73 126.914 1319.6 126.742C1318.47 126.57 1317.49 126.273 1316.67 125.852C1315.85 125.43 1315.22 124.848 1314.77 124.105C1314.33 123.355 1314.11 122.406 1314.11 121.258C1314.11 120.586 1314.18 119.934 1314.33 119.301C1314.48 118.66 1314.68 118.062 1314.9 117.508L1317.53 118.504C1317.39 118.863 1317.27 119.277 1317.14 119.746C1317.02 120.207 1316.95 120.652 1316.95 121.082C1316.95 121.684 1317.11 122.168 1317.43 122.535C1317.76 122.902 1318.21 123.18 1318.79 123.367C1319.38 123.555 1320.06 123.684 1320.83 123.754C1321.61 123.816 1322.46 123.848 1323.36 123.848H1325.32C1326.48 123.848 1327.46 123.797 1328.27 123.695C1329.09 123.594 1329.72 123.387 1330.15 123.074C1330.59 122.762 1330.8 122.289 1330.8 121.656C1330.8 121.273 1330.79 120.855 1330.77 120.402C1330.75 119.941 1330.72 119.527 1330.69 119.16ZM1335.4 123.848H1336.34V127H1335.4V123.848ZM1339.66 128.57L1341.6 130.492L1339.66 132.438L1337.73 130.492L1339.66 128.57ZM1335.7 128.57L1337.66 130.492L1335.7 132.438L1333.79 130.492L1335.7 128.57ZM1337.93 127H1336.05V123.848H1337.93C1338.56 123.848 1338.99 123.656 1339.22 123.273C1339.45 122.891 1339.57 122.402 1339.57 121.809C1339.57 121.285 1339.51 120.715 1339.38 120.098C1339.27 119.473 1339.14 118.859 1339.02 118.258L1341.89 117.52C1342.04 118.23 1342.16 118.938 1342.24 119.641C1342.33 120.336 1342.37 121 1342.37 121.633C1342.37 122.656 1342.23 123.574 1341.96 124.387C1341.69 125.191 1341.23 125.828 1340.58 126.297C1339.93 126.766 1339.05 127 1337.93 127ZM1352.79 127C1352.41 127 1352.07 126.957 1351.75 126.871C1351.43 126.785 1351.16 126.676 1350.95 126.543C1350.76 127.707 1350.38 128.754 1349.79 129.684C1349.2 130.613 1348.42 131.391 1347.43 132.016C1346.46 132.648 1345.28 133.102 1343.91 133.375L1342.83 130.492C1343.98 130.234 1344.96 129.891 1345.77 129.461C1346.58 129.039 1347.2 128.48 1347.62 127.785C1348.04 127.09 1348.25 126.223 1348.25 125.184C1348.25 124.48 1348.15 123.699 1347.94 122.84C1347.73 121.98 1347.5 121.172 1347.25 120.414L1350.15 119.453L1350.83 122.066C1350.97 122.605 1351.18 123.039 1351.45 123.367C1351.73 123.688 1352.14 123.848 1352.66 123.848H1353.12V127H1352.79ZM1352.65 123.848H1354.42V127H1352.65V123.848ZM1355.98 127H1354.1V123.848H1355.98C1356.61 123.848 1357.04 123.656 1357.27 123.273C1357.5 122.891 1357.62 122.402 1357.62 121.809C1357.62 121.285 1357.55 120.715 1357.43 120.098C1357.31 119.473 1357.19 118.859 1357.07 118.258L1359.94 117.52C1360.09 118.23 1360.2 118.938 1360.29 119.641C1360.38 120.336 1360.42 121 1360.42 121.633C1360.42 122.656 1360.28 123.574 1360.01 124.387C1359.73 125.191 1359.27 125.828 1358.62 126.297C1357.98 126.766 1357.09 127 1355.98 127ZM1357.71 128.57L1359.64 130.492L1357.71 132.438L1355.78 130.492L1357.71 128.57ZM1353.75 128.57L1355.71 130.492L1353.75 132.438L1351.84 130.492L1353.75 128.57ZM1369.11 122.09C1369.11 121.895 1369.07 121.637 1368.97 121.316C1368.89 120.996 1368.79 120.727 1368.69 120.508L1366.43 115.457L1369.03 114.203L1371.89 120.836C1372.15 121.438 1372.38 121.965 1372.58 122.418C1372.79 122.871 1373.01 123.223 1373.25 123.473C1373.49 123.723 1373.8 123.848 1374.16 123.848H1374.66V127H1374.16C1373.57 127 1373.06 126.926 1372.64 126.777C1372.23 126.621 1371.86 126.406 1371.54 126.133C1371.23 125.859 1370.93 125.539 1370.66 125.172C1370.28 125.562 1369.84 125.895 1369.34 126.168C1368.84 126.441 1368.29 126.648 1367.66 126.789C1367.04 126.922 1366.33 126.988 1365.54 126.988C1364.88 126.988 1364.32 126.965 1363.84 126.918C1363.37 126.871 1362.89 126.789 1362.41 126.672V123.531C1362.89 123.641 1363.39 123.727 1363.91 123.789C1364.43 123.852 1364.91 123.883 1365.36 123.883C1366.01 123.883 1366.62 123.828 1367.19 123.719C1367.76 123.602 1368.22 123.414 1368.57 123.156C1368.93 122.891 1369.11 122.535 1369.11 122.09ZM1381.85 120.637C1381.52 120.637 1381.21 120.75 1380.94 120.977C1380.67 121.203 1380.43 121.48 1380.22 121.809C1380.02 122.129 1379.85 122.441 1379.71 122.746C1379.93 122.965 1380.15 123.156 1380.36 123.32C1380.58 123.477 1380.79 123.609 1380.97 123.719C1381.26 123.883 1381.53 124 1381.77 124.07C1382.02 124.141 1382.24 124.176 1382.43 124.176C1382.87 124.176 1383.19 124.027 1383.39 123.73C1383.59 123.434 1383.69 123.074 1383.69 122.652C1383.69 122.098 1383.53 121.625 1383.2 121.234C1382.87 120.836 1382.42 120.637 1381.85 120.637ZM1382.41 127.27C1381.88 127.27 1381.36 127.191 1380.88 127.035C1380.39 126.879 1379.92 126.66 1379.46 126.379C1379.01 126.098 1378.55 125.773 1378.09 125.406C1377.8 125.711 1377.51 125.984 1377.21 126.227C1376.91 126.461 1376.57 126.648 1376.18 126.789C1375.79 126.93 1375.3 127 1374.7 127H1374.19V123.848H1374.64C1375.06 123.848 1375.42 123.699 1375.73 123.402C1376.05 123.105 1376.35 122.723 1376.64 122.254C1376.93 121.777 1377.22 121.277 1377.53 120.754C1377.84 120.223 1378.19 119.719 1378.57 119.242C1378.95 118.766 1379.4 118.379 1379.92 118.082C1380.43 117.785 1381.05 117.637 1381.76 117.637C1382.72 117.637 1383.55 117.867 1384.25 118.328C1384.96 118.781 1385.51 119.383 1385.89 120.133C1386.28 120.883 1386.47 121.703 1386.47 122.594C1386.47 123.5 1386.32 124.305 1386.01 125.008C1385.71 125.711 1385.25 126.266 1384.65 126.672C1384.06 127.07 1383.31 127.27 1382.41 127.27Z" fill="white"/>
<path d="M1481.63 110.629H1484.57V121.434C1484.57 122.316 1484.7 122.941 1484.97 123.309C1485.24 123.668 1485.77 123.848 1486.54 123.848H1486.83V127H1486.54C1484.84 127 1483.6 126.559 1482.81 125.676C1482.02 124.793 1481.63 123.453 1481.63 121.656V110.629ZM1490.86 121C1490.86 121.297 1490.95 121.582 1491.13 121.855C1491.31 122.129 1491.55 122.371 1491.84 122.582C1492.13 122.793 1492.45 122.957 1492.79 123.074C1493.05 122.996 1493.32 122.867 1493.61 122.688C1493.89 122.5 1494.12 122.277 1494.32 122.02C1494.52 121.762 1494.61 121.484 1494.61 121.188C1494.61 120.852 1494.53 120.543 1494.37 120.262C1494.2 119.973 1493.98 119.746 1493.71 119.582C1493.45 119.41 1493.14 119.324 1492.81 119.324C1492.28 119.324 1491.82 119.488 1491.44 119.816C1491.05 120.137 1490.86 120.531 1490.86 121ZM1492.28 117.262L1493.61 114.648C1495.05 115.336 1496.33 115.969 1497.44 116.547C1498.55 117.125 1499.48 117.691 1500.24 118.246C1501 118.801 1501.57 119.391 1501.95 120.016C1502.34 120.641 1502.54 121.348 1502.54 122.137C1502.54 123.684 1502.07 124.863 1501.13 125.676C1500.2 126.48 1498.96 126.883 1497.41 126.883C1496.87 126.883 1496.3 126.836 1495.7 126.742C1495.11 126.648 1494.54 126.531 1493.99 126.391C1493.45 126.25 1492.98 126.117 1492.59 125.992C1491.88 126.242 1491.08 126.473 1490.17 126.684C1489.27 126.895 1488.39 127 1487.54 127H1486.38V123.848H1487.38C1487.7 123.848 1487.98 123.844 1488.24 123.836C1488.5 123.828 1488.78 123.812 1489.06 123.789C1488.86 123.562 1488.7 123.297 1488.55 122.992C1488.41 122.68 1488.3 122.352 1488.23 122.008C1488.15 121.664 1488.11 121.336 1488.11 121.023C1488.11 120.32 1488.29 119.648 1488.64 119.008C1488.99 118.367 1489.5 117.848 1490.17 117.449C1490.85 117.043 1491.68 116.84 1492.64 116.84C1493.36 116.84 1494.05 117.012 1494.72 117.355C1495.4 117.699 1495.95 118.168 1496.38 118.762C1496.82 119.348 1497.04 120.02 1497.04 120.777C1497.04 121.199 1496.99 121.594 1496.89 121.961C1496.79 122.32 1496.66 122.656 1496.49 122.969C1496.32 123.281 1496.11 123.57 1495.87 123.836C1496.23 123.891 1496.58 123.934 1496.93 123.965C1497.29 123.996 1497.56 124.012 1497.74 124.012C1498.3 124.012 1498.78 123.883 1499.18 123.625C1499.59 123.359 1499.79 122.891 1499.79 122.219C1499.79 122.047 1499.73 121.855 1499.59 121.645C1499.47 121.434 1499.25 121.191 1498.94 120.918C1498.62 120.645 1498.19 120.332 1497.62 119.98C1497.06 119.629 1496.34 119.23 1495.46 118.785C1494.58 118.332 1493.52 117.824 1492.28 117.262ZM1511.84 132.906C1510.15 132.906 1508.77 132.586 1507.69 131.945C1506.62 131.312 1505.83 130.449 1505.31 129.355C1504.8 128.27 1504.55 127.043 1504.55 125.676C1504.55 124.762 1504.65 123.82 1504.84 122.852C1505.05 121.875 1505.33 120.91 1505.7 119.957L1508.36 120.988C1508.09 121.793 1507.86 122.59 1507.67 123.379C1507.48 124.16 1507.39 124.895 1507.39 125.582C1507.39 126.348 1507.52 127.051 1507.79 127.691C1508.06 128.332 1508.52 128.844 1509.17 129.227C1509.82 129.609 1510.71 129.801 1511.84 129.801C1512.71 129.801 1513.49 129.719 1514.16 129.555C1514.84 129.398 1515.41 129.191 1515.86 128.934C1516.31 128.684 1516.66 128.418 1516.89 128.137C1517.12 127.855 1517.24 127.598 1517.24 127.363C1517.24 127.223 1517.2 127.105 1517.12 127.012C1517.05 126.926 1516.91 126.883 1516.7 126.883H1514.8C1514.37 126.883 1513.93 126.84 1513.5 126.754C1513.08 126.66 1512.7 126.484 1512.34 126.227C1512 125.961 1511.72 125.582 1511.51 125.09C1511.31 124.598 1511.21 123.957 1511.21 123.168C1511.21 122.363 1511.34 121.59 1511.59 120.848C1511.86 120.105 1512.23 119.441 1512.72 118.855C1513.21 118.27 1513.8 117.809 1514.49 117.473C1515.18 117.137 1515.95 116.969 1516.8 116.969C1517.34 116.969 1517.89 117.051 1518.44 117.215C1518.98 117.371 1519.49 117.617 1519.96 117.953L1518.96 120.707C1518.57 120.496 1518.19 120.348 1517.83 120.262C1517.47 120.176 1517.13 120.133 1516.81 120.133C1516.23 120.133 1515.73 120.266 1515.31 120.531C1514.89 120.797 1514.58 121.156 1514.36 121.609C1514.14 122.062 1514.03 122.578 1514.03 123.156C1514.03 123.391 1514.1 123.547 1514.23 123.625C1514.37 123.703 1514.57 123.742 1514.82 123.742H1516.59C1517.45 123.742 1518.12 123.883 1518.61 124.164C1519.11 124.438 1519.45 124.82 1519.66 125.312C1519.86 125.797 1519.96 126.355 1519.96 126.988C1519.96 127.793 1519.78 128.551 1519.42 129.262C1519.07 129.973 1518.55 130.602 1517.85 131.148C1517.16 131.703 1516.32 132.133 1515.31 132.438C1514.3 132.75 1513.14 132.906 1511.84 132.906ZM1528.57 122.09C1528.57 121.895 1528.53 121.637 1528.43 121.316C1528.35 120.996 1528.25 120.727 1528.15 120.508L1525.89 115.457L1528.49 114.203L1531.35 120.836C1531.61 121.438 1531.84 121.965 1532.04 122.418C1532.25 122.871 1532.47 123.223 1532.71 123.473C1532.95 123.723 1533.26 123.848 1533.62 123.848H1534.12V127H1533.62C1533.03 127 1532.52 126.926 1532.1 126.777C1531.69 126.621 1531.32 126.406 1531 126.133C1530.69 125.859 1530.39 125.539 1530.12 125.172C1529.74 125.562 1529.3 125.895 1528.8 126.168C1528.3 126.441 1527.75 126.648 1527.12 126.789C1526.5 126.922 1525.79 126.988 1525 126.988C1524.34 126.988 1523.78 126.965 1523.3 126.918C1522.83 126.871 1522.36 126.789 1521.87 126.672V123.531C1522.36 123.641 1522.86 123.727 1523.37 123.789C1523.89 123.852 1524.37 123.883 1524.82 123.883C1525.47 123.883 1526.08 123.828 1526.65 123.719C1527.22 123.602 1527.68 123.414 1528.04 123.156C1528.39 122.891 1528.57 122.535 1528.57 122.09ZM1537.01 119.16L1539.75 118.832L1539.99 122.066C1540.01 122.473 1540.09 122.809 1540.23 123.074C1540.38 123.34 1540.6 123.535 1540.88 123.66C1541.16 123.785 1541.52 123.848 1541.96 123.848H1542.2V127H1541.93C1541.4 127 1540.93 126.934 1540.5 126.801C1540.08 126.668 1539.71 126.484 1539.39 126.25C1539.07 126.016 1538.79 125.742 1538.56 125.43C1538.1 125.93 1537.54 126.316 1536.87 126.59C1536.21 126.863 1535.52 127 1534.77 127H1533.65V123.848H1534.77C1535.66 123.848 1536.27 123.688 1536.61 123.367C1536.96 123.047 1537.13 122.48 1537.13 121.668C1537.13 121.23 1537.12 120.805 1537.09 120.391C1537.08 119.969 1537.05 119.559 1537.01 119.16ZM1537.57 113.031L1539.6 115.059L1537.57 117.086L1535.55 115.059L1537.57 113.031ZM1542.25 127H1541.73L1541.75 123.848H1542.19C1542.61 123.848 1542.97 123.699 1543.28 123.402C1543.59 123.105 1543.89 122.723 1544.18 122.254C1544.47 121.777 1544.77 121.277 1545.07 120.754C1545.39 120.223 1545.73 119.719 1546.12 119.242C1546.5 118.766 1546.95 118.379 1547.46 118.082C1547.98 117.785 1548.59 117.637 1549.3 117.637C1550.18 117.637 1550.93 117.82 1551.57 118.188C1552.21 118.547 1552.73 119.039 1553.12 119.664C1553.53 120.281 1553.8 120.973 1553.93 121.738C1554.03 122.254 1554.16 122.668 1554.33 122.98C1554.5 123.293 1554.7 123.516 1554.93 123.648C1555.16 123.781 1555.41 123.848 1555.66 123.848H1555.96V127H1555.64C1555.14 127 1554.65 126.887 1554.17 126.66C1553.68 126.434 1553.3 126.148 1553.01 125.805C1552.62 126.305 1552.19 126.676 1551.71 126.918C1551.23 127.152 1550.65 127.27 1549.96 127.27C1549.42 127.27 1548.91 127.191 1548.43 127.035C1547.94 126.879 1547.47 126.66 1547.01 126.379C1546.55 126.098 1546.1 125.773 1545.64 125.406C1545.35 125.711 1545.05 125.984 1544.76 126.227C1544.46 126.461 1544.12 126.648 1543.73 126.789C1543.34 126.93 1542.84 127 1542.25 127ZM1549.4 120.637C1549.06 120.637 1548.76 120.75 1548.48 120.977C1548.22 121.203 1547.98 121.48 1547.77 121.809C1547.57 122.129 1547.39 122.441 1547.25 122.746C1547.5 122.973 1547.73 123.172 1547.96 123.344C1548.18 123.516 1548.4 123.656 1548.6 123.766C1548.88 123.914 1549.12 124.02 1549.35 124.082C1549.59 124.145 1549.79 124.176 1549.97 124.176C1550.42 124.176 1550.74 124.027 1550.93 123.73C1551.14 123.434 1551.24 123.074 1551.24 122.652C1551.24 122.098 1551.07 121.625 1550.75 121.234C1550.42 120.836 1549.97 120.637 1549.4 120.637ZM1557.37 127H1555.49V123.848H1557.37C1558 123.848 1558.43 123.656 1558.66 123.273C1558.89 122.891 1559.01 122.402 1559.01 121.809C1559.01 121.285 1558.95 120.715 1558.82 120.098C1558.7 119.473 1558.58 118.859 1558.46 118.258L1561.33 117.52C1561.48 118.23 1561.59 118.938 1561.68 119.641C1561.77 120.336 1561.81 121 1561.81 121.633C1561.81 122.656 1561.67 123.574 1561.4 124.387C1561.12 125.191 1560.66 125.828 1560.02 126.297C1559.37 126.766 1558.48 127 1557.37 127ZM1558.75 112L1560.78 114.027L1558.75 116.055L1556.72 114.027L1558.75 112ZM1567.38 110.629V126.988H1564.45V110.629H1567.38ZM1574.37 117.52C1575.09 117.52 1575.73 117.684 1576.29 118.012C1576.86 118.34 1577.34 118.793 1577.73 119.371C1578.13 119.949 1578.45 120.621 1578.68 121.387C1578.92 122.152 1579.06 122.973 1579.11 123.848H1580.09V127H1578.89C1578.62 128.133 1578.16 129.117 1577.51 129.953C1576.86 130.797 1576.01 131.5 1574.95 132.062C1573.88 132.633 1572.58 133.066 1571.04 133.363L1569.98 130.48C1571 130.277 1571.93 130.012 1572.77 129.684C1573.61 129.363 1574.32 128.977 1574.89 128.523C1575.46 128.07 1575.84 127.562 1576.04 127H1574.79C1573.23 127 1572.04 126.676 1571.23 126.027C1570.42 125.379 1570.01 124.344 1570.01 122.922C1570.01 122.344 1570.1 121.742 1570.28 121.117C1570.46 120.484 1570.73 119.898 1571.09 119.359C1571.46 118.812 1571.91 118.371 1572.45 118.035C1573 117.691 1573.64 117.52 1574.37 117.52ZM1574.76 123.848H1576.36C1576.33 123.441 1576.27 123.047 1576.18 122.664C1576.08 122.281 1575.95 121.934 1575.79 121.621C1575.63 121.309 1575.43 121.066 1575.19 120.895C1574.96 120.715 1574.68 120.625 1574.35 120.625C1573.96 120.625 1573.64 120.75 1573.41 121C1573.18 121.242 1573.02 121.531 1572.93 121.867C1572.84 122.203 1572.79 122.516 1572.79 122.805C1572.79 123.242 1572.96 123.527 1573.32 123.66C1573.67 123.785 1574.15 123.848 1574.76 123.848ZM1579.63 123.848H1580.46V127H1579.63V123.848ZM1584.82 112.105L1586.76 114.027L1584.82 115.973L1582.89 114.027L1584.82 112.105ZM1580.86 112.105L1582.82 114.027L1580.86 115.973L1578.95 114.027L1580.86 112.105ZM1582.02 127H1580.15V123.848H1582.02C1582.66 123.848 1583.09 123.656 1583.31 123.273C1583.55 122.891 1583.66 122.402 1583.66 121.809C1583.66 121.285 1583.6 120.715 1583.48 120.098C1583.36 119.473 1583.24 118.859 1583.11 118.258L1585.98 117.52C1586.13 118.23 1586.25 118.938 1586.34 119.641C1586.42 120.336 1586.46 121 1586.46 121.633C1586.46 122.656 1586.33 123.574 1586.05 124.387C1585.78 125.191 1585.32 125.828 1584.67 126.297C1584.02 126.766 1583.14 127 1582.02 127ZM1606.48 114.414L1608.41 116.336L1606.48 118.281L1604.55 116.336L1606.48 114.414ZM1602.52 114.414L1604.48 116.336L1602.52 118.281L1600.61 116.336L1602.52 114.414ZM1611.09 119.16L1613.83 118.832L1614.06 122.066C1614.1 122.684 1614.27 123.137 1614.57 123.426C1614.86 123.707 1615.34 123.848 1616.01 123.848H1616.28V127H1616.01C1615.12 127 1614.38 126.836 1613.78 126.508C1613.2 126.18 1612.71 125.711 1612.33 125.102C1611.62 125.773 1610.76 126.258 1609.74 126.555C1608.72 126.852 1607.38 127 1605.72 127H1603.76C1602.39 127 1601.13 126.914 1600 126.742C1598.87 126.57 1597.89 126.273 1597.07 125.852C1596.25 125.43 1595.62 124.848 1595.17 124.105C1594.73 123.355 1594.5 122.406 1594.5 121.258C1594.5 120.586 1594.58 119.934 1594.73 119.301C1594.88 118.66 1595.07 118.062 1595.3 117.508L1597.93 118.504C1597.79 118.863 1597.66 119.277 1597.54 119.746C1597.41 120.207 1597.35 120.652 1597.35 121.082C1597.35 121.684 1597.51 122.168 1597.83 122.535C1598.16 122.902 1598.61 123.18 1599.19 123.367C1599.78 123.555 1600.46 123.684 1601.23 123.754C1602.01 123.816 1602.86 123.848 1603.76 123.848H1605.72C1606.88 123.848 1607.86 123.797 1608.67 123.695C1609.49 123.594 1610.12 123.387 1610.55 123.074C1610.98 122.762 1611.2 122.289 1611.2 121.656C1611.2 121.273 1611.19 120.855 1611.17 120.402C1611.14 119.941 1611.12 119.527 1611.09 119.16ZM1623.12 110.91L1625.15 112.938L1623.12 114.965L1621.09 112.938L1623.12 110.91ZM1615.82 123.848H1617.81C1618.6 123.848 1619.34 123.789 1620.02 123.672C1620.7 123.555 1621.38 123.383 1622.05 123.156C1622.73 122.922 1623.45 122.637 1624.19 122.301C1624.93 121.965 1625.75 121.582 1626.65 121.152C1626.05 120.934 1625.5 120.727 1625 120.531C1624.5 120.328 1624.04 120.152 1623.64 120.004C1623.24 119.848 1622.9 119.727 1622.62 119.641C1622.34 119.547 1622.12 119.5 1621.98 119.5C1621.55 119.5 1621.16 119.633 1620.81 119.898C1620.47 120.164 1620.18 120.449 1619.95 120.754L1619.38 121.457L1616.92 120.262L1617.38 119.512C1617.92 118.629 1618.57 117.898 1619.32 117.32C1620.09 116.734 1620.98 116.441 1622 116.441C1622.43 116.441 1622.93 116.543 1623.5 116.746C1624.07 116.941 1624.68 117.191 1625.35 117.496C1626.01 117.793 1626.7 118.094 1627.4 118.398C1628.11 118.703 1628.81 118.961 1629.51 119.172C1630.21 119.375 1630.88 119.484 1631.51 119.5V122.383C1630.97 122.461 1630.45 122.59 1629.95 122.77C1629.46 122.941 1628.93 123.168 1628.37 123.449C1627.81 123.73 1627.16 124.07 1626.41 124.469C1625.41 125 1624.47 125.457 1623.59 125.84C1622.71 126.215 1621.8 126.504 1620.87 126.707C1619.95 126.902 1618.92 127 1617.78 127H1615.82V123.848ZM1634 110.629H1636.94V121.434C1636.94 122.316 1637.07 122.941 1637.34 123.309C1637.61 123.668 1638.13 123.848 1638.91 123.848H1639.2V127H1638.91C1637.21 127 1635.97 126.559 1635.18 125.676C1634.39 124.793 1634 123.453 1634 121.656V110.629ZM1642.11 119.16L1644.85 118.832L1645.08 122.066C1645.11 122.473 1645.19 122.809 1645.33 123.074C1645.48 123.34 1645.69 123.535 1645.97 123.66C1646.25 123.785 1646.61 123.848 1647.05 123.848H1647.3V127H1647.03C1646.5 127 1646.02 126.934 1645.6 126.801C1645.18 126.668 1644.8 126.484 1644.48 126.25C1644.16 126.016 1643.89 125.742 1643.65 125.43C1643.19 125.93 1642.63 126.316 1641.96 126.59C1641.31 126.863 1640.61 127 1639.87 127H1638.74V123.848H1639.87C1640.75 123.848 1641.36 123.688 1641.71 123.367C1642.05 123.047 1642.22 122.48 1642.22 121.668C1642.22 121.23 1642.21 120.805 1642.19 120.391C1642.17 119.969 1642.14 119.559 1642.11 119.16ZM1642.67 113.031L1644.7 115.059L1642.67 117.086L1640.64 115.059L1642.67 113.031ZM1657.5 110.523L1659.33 112.352L1657.5 114.18L1655.68 112.352L1657.5 110.523ZM1659.54 113.512L1661.37 115.34L1659.54 117.168L1657.71 115.34L1659.54 113.512ZM1655.46 113.512L1657.29 115.34L1655.46 117.168L1653.64 115.34L1655.46 113.512ZM1655 127C1654.18 127 1653.51 126.863 1652.98 126.59C1652.46 126.309 1652.03 125.934 1651.7 125.465C1651.28 125.941 1650.78 126.316 1650.19 126.59C1649.61 126.863 1648.84 127 1647.91 127H1646.83V123.848H1647.93C1648.52 123.848 1649 123.801 1649.36 123.707C1649.72 123.613 1649.98 123.426 1650.14 123.145C1650.32 122.855 1650.4 122.43 1650.4 121.867C1650.4 121.742 1650.39 121.547 1650.38 121.281C1650.37 121.016 1650.36 120.723 1650.33 120.402C1650.31 120.074 1650.29 119.762 1650.26 119.465L1653 119.125L1653.25 122.16C1653.29 122.707 1653.45 123.125 1653.73 123.414C1654.02 123.703 1654.45 123.848 1655.02 123.848C1655.71 123.848 1656.16 123.699 1656.39 123.402C1656.62 123.098 1656.74 122.586 1656.74 121.867C1656.74 121.75 1656.73 121.559 1656.72 121.293C1656.71 121.027 1656.7 120.73 1656.67 120.402C1656.65 120.074 1656.62 119.762 1656.6 119.465L1659.34 119.125L1659.59 122.16C1659.62 122.668 1659.75 123.078 1659.98 123.391C1660.2 123.695 1660.58 123.848 1661.11 123.848C1661.44 123.848 1661.7 123.758 1661.89 123.578C1662.08 123.398 1662.22 123.16 1662.3 122.863C1662.38 122.559 1662.43 122.227 1662.43 121.867C1662.43 121.43 1662.39 120.984 1662.31 120.531C1662.24 120.07 1662.16 119.648 1662.06 119.266C1661.97 118.883 1661.9 118.598 1661.85 118.41L1664.68 117.637C1664.83 118.238 1664.96 118.879 1665.06 119.559C1665.16 120.23 1665.21 120.902 1665.21 121.574C1665.21 122.512 1665.09 123.395 1664.83 124.223C1664.58 125.051 1664.16 125.723 1663.56 126.238C1662.98 126.746 1662.16 127 1661.12 127C1660.41 127 1659.82 126.855 1659.34 126.566C1658.87 126.27 1658.47 125.895 1658.15 125.441C1657.74 125.91 1657.28 126.289 1656.77 126.578C1656.26 126.859 1655.67 127 1655 127Z" fill="white"/>
<defs>
<linearGradient id="paint0_linear_14563_26382" x1="1869" y1="118" x2="568.369" y2="585.959" gradientUnits="userSpaceOnUse">
<stop stop-color="#1B4D7E"/>
<stop offset="0.33" stop-color="#2D80D2"/>
<stop offset="1" stop-color="#1B4D7E"/>
</linearGradient>
<linearGradient id="paint1_linear_14563_26382" x1="1869" y1="235" x2="643.23" y2="-441.025" gradientUnits="userSpaceOnUse">
<stop stop-color="#1B4D7E"/>
<stop offset="0.33" stop-color="#2D80D2"/>
<stop offset="1" stop-color="#1B4D7E"/>
</linearGradient>
</defs>
</svg>
