<svg width="24" height="24" viewBox="0 0 24 24" fill="none" xmlns="http://www.w3.org/2000/svg">
<path d="M23.6654 11.6667C23.6654 5.22339 18.442 4.76837e-05 11.9987 4.76837e-05C5.55537 4.76837e-05 0.332031 5.22339 0.332031 11.6667C0.332031 17.4899 4.59836 22.3164 10.1758 23.1917V15.0391H7.21354V11.6667H10.1758V9.0964C10.1758 6.17244 11.9175 4.55734 14.5825 4.55734C15.8589 4.55734 17.194 4.7852 17.194 4.7852V7.6563H15.7229C14.2736 7.6563 13.8216 8.55561 13.8216 9.47823V11.6667H17.0573L16.54 15.0391H13.8216V23.1917C19.399 22.3164 23.6654 17.4899 23.6654 11.6667Z" fill="#2466A8"/>
</svg>
