<svg width="233" height="155" viewBox="0 0 233 155" fill="none" xmlns="http://www.w3.org/2000/svg">
<g clip-path="url(#clip0_363_68)">
<path d="M167.401 111.492C164.941 125.442 131.424 147.196 100.569 129.111C86.2185 120.699 89.3935 112.999 80.0846 99.7202C74.5361 91.8061 65.5669 84.7144 64.893 74.9248C64.3095 66.4745 67.769 58.3393 73.2513 53.7975C85.5803 43.5833 106.616 39.5099 120.842 63.4078C135.068 87.3055 173.74 75.5118 167.401 111.492Z" fill="url(#paint0_linear_363_68)"/>
<path d="M180.917 61.4056C177.72 67.099 170.718 67.8812 159.501 66.7993C151.065 65.984 143.372 65.3534 134.935 60.7634C129.03 57.553 124.356 53.2094 120.944 48.9908C117.247 44.4207 112.087 39.2052 114.617 34.0233C118.093 26.9052 138.197 20.9103 157.718 30.714C179.162 41.4865 184.044 55.8413 180.917 61.4056Z" fill="url(#paint1_linear_363_68)"/>
<path d="M202.529 73.3087C196.506 76.2899 188.513 72.4565 188.513 72.4565C188.513 72.4565 190.289 63.7917 196.315 60.8147C202.338 57.8335 210.328 61.6625 210.328 61.6625C210.328 61.6625 208.551 70.3276 202.529 73.3087Z" fill="url(#paint2_linear_363_68)"/>
<path d="M31.0887 94.689C37.5099 98.5292 46.7222 94.9792 46.7222 94.9792C46.7222 94.9792 45.5176 85.2043 39.0925 81.3686C32.6713 77.5285 23.4629 81.0741 23.4629 81.0741C23.4629 81.0741 24.6675 90.8489 31.0887 94.689Z" fill="url(#paint3_linear_363_68)"/>
<path d="M190.677 50.0508C188.861 50.0508 187.389 51.5199 187.389 53.3322C187.389 55.1444 188.861 56.6135 190.677 56.6135C192.494 56.6135 193.966 55.1444 193.966 53.3322C193.966 51.5199 192.494 50.0508 190.677 50.0508Z" fill="#666AF6"/>
<path d="M90.1375 60.4236C88.6424 60.4236 87.4303 61.6331 87.4303 63.125C87.4303 64.617 88.6424 65.8264 90.1375 65.8264C91.6327 65.8264 92.8447 64.617 92.8447 63.125C92.8447 61.6331 91.6327 60.4236 90.1375 60.4236Z" fill="#666AF6"/>
<path d="M54.9208 89.5463C53.218 89.5463 51.8377 88.1689 51.8377 86.4698C51.8377 84.7707 53.218 83.3933 54.9208 83.3933C56.6236 83.3933 58.0039 84.7707 58.0039 86.4698C58.0039 88.1689 56.6236 89.5463 54.9208 89.5463Z" fill="#666AF6"/>
<path d="M184.101 71.7981C183.307 71.7981 182.663 71.1554 182.663 70.3626C182.663 69.5697 183.307 68.927 184.101 68.927C184.896 68.927 185.54 69.5697 185.54 70.3626C185.54 71.1554 184.896 71.7981 184.101 71.7981Z" fill="#666AF6"/>
<path d="M183.271 126.19C182.25 126.19 181.422 125.363 181.422 124.344C181.422 123.325 182.25 122.498 183.271 122.498C184.293 122.498 185.121 123.325 185.121 124.344C185.121 125.363 184.293 126.19 183.271 126.19Z" fill="#E1E4E5"/>
<path d="M40.186 115.897C39.4264 115.897 38.8106 115.283 38.8106 114.525C38.8106 113.767 39.4264 113.152 40.186 113.152C40.9457 113.152 41.5615 113.767 41.5615 114.525C41.5615 115.283 40.9457 115.897 40.186 115.897Z" fill="#E1E4E5"/>
<path d="M192.691 108.124C191.568 108.124 190.657 107.216 190.657 106.095C190.657 104.974 191.568 104.066 192.691 104.066C193.814 104.066 194.725 104.974 194.725 106.095C194.725 107.216 193.814 108.124 192.691 108.124Z" fill="#E1E4E5"/>
<path d="M171.111 45.6209C169.863 45.6209 168.85 44.6109 168.85 43.3649C168.85 42.1189 169.863 41.1089 171.111 41.1089C172.36 41.1089 173.372 42.1189 173.372 43.3649C173.372 44.6109 172.36 45.6209 171.111 45.6209Z" fill="#E1E4E5"/>
<path d="M49.5657 68.4423C49.8559 69.5231 49.2132 70.6339 48.1301 70.9235C47.0471 71.2131 45.9338 70.5717 45.6436 69.491C45.3534 68.4103 45.9961 67.2994 47.0792 67.0099C48.1622 66.7203 49.2755 67.3616 49.5657 68.4423Z" fill="#E1E4E5"/>
<path d="M101.161 28.7866C100.129 28.7866 99.293 27.952 99.293 26.9225C99.293 25.893 100.129 25.0583 101.161 25.0583C102.193 25.0583 103.029 25.893 103.029 26.9225C103.029 27.952 102.193 28.7866 101.161 28.7866Z" fill="#E1E4E5"/>
<path d="M185.29 96.5133C184.142 96.5133 183.212 95.7708 183.212 94.8548C183.212 93.9388 184.142 93.1963 185.29 93.1963C186.437 93.1963 187.367 93.9388 187.367 94.8548C187.367 95.7708 186.437 96.5133 185.29 96.5133Z" fill="#E1E4E5"/>
<path d="M150.185 24.7495C150.789 26.9987 149.451 29.3106 147.197 29.9133C144.943 30.516 142.626 29.1812 142.022 26.932C141.418 24.6827 142.756 22.3708 145.01 21.7681C147.264 21.1654 149.581 22.5002 150.185 24.7495Z" fill="#E1E4E5"/>
<path d="M56.8527 55.0022H56.8825C57.0578 57.4799 58.9044 57.5181 58.9044 57.5181C58.9044 57.5181 56.868 57.5579 56.868 60.421C56.868 57.5579 54.8316 57.5181 54.8316 57.5181C54.8316 57.5181 56.6774 57.4799 56.8527 55.0022ZM53.759 119.863H53.7875C53.9557 122.333 55.7286 122.371 55.7286 122.371C55.7286 122.371 53.7735 122.411 53.7735 125.266C53.7735 122.411 51.8184 122.371 51.8184 122.371C51.8184 122.371 53.5907 122.333 53.759 119.863Z" fill="#E1E4E5"/>
<path fill-rule="evenodd" clip-rule="evenodd" d="M69.5613 58.1971L59.7264 48.4271C58.4198 47.1304 56.6519 46.4025 54.809 46.4026H29.8674C26.0247 46.4026 22.9121 49.4946 22.9121 53.3122V101.679C22.9121 105.496 26.0247 108.588 29.8674 108.588H64.644C68.4867 108.588 71.599 105.496 71.599 101.679V63.0821C71.5984 62.1741 71.418 61.2751 71.0684 60.4368C70.7187 59.5985 70.2065 58.8374 69.5613 58.1971Z" fill="white" stroke="#E1E4E5" stroke-width="2"/>
<path d="M34.9551 96.8585H59.1599M34.9551 90.0662H59.1599" stroke="#E1E4E5" stroke-width="5" stroke-linecap="round" stroke-linejoin="round"/>
<path fill-rule="evenodd" clip-rule="evenodd" d="M57.9947 80.5906V82.1512C57.9947 83.0128 57.2994 83.7121 56.4424 83.7121H37.8169C36.96 83.7121 36.2646 83.0128 36.2646 82.1512V80.5656C36.2646 75.8427 41.6319 72.7745 47.1297 72.7745C52.6275 72.7745 57.9947 75.8443 57.9947 80.5656M50.8409 61.3559C52.9436 63.529 52.9436 67.0524 50.8409 69.2258C48.7382 71.3989 45.3289 71.3989 43.2262 69.2258C41.1235 67.0524 41.1235 63.529 43.2262 61.3559C45.3289 59.1828 48.7382 59.1828 50.8409 61.3559Z" fill="#666AF6"/>
<path fill-rule="evenodd" clip-rule="evenodd" d="M148.304 50.0958L134.341 36.2241C132.485 34.3831 129.975 33.3496 127.359 33.3496H91.9466C86.4905 33.3496 82.0713 37.7397 82.0713 43.1598V111.831C82.0713 117.251 86.4905 121.641 91.9466 121.641H141.322C146.778 121.641 151.197 117.251 151.197 111.831V57.0315C151.197 55.7423 150.941 54.466 150.444 53.2757C149.947 52.0855 149.22 51.0049 148.304 50.0958Z" fill="white" stroke="#E1E4E5" stroke-width="2"/>
<path d="M99.1709 95.3433H133.537" stroke="#E1E4E5" stroke-width="5" stroke-linecap="round" stroke-linejoin="round"/>
<path fill-rule="evenodd" clip-rule="evenodd" d="M131.882 81.8902V84.1062C131.882 85.3294 130.894 86.3219 129.678 86.3219H103.233C102.016 86.3219 101.029 85.3294 101.029 84.1062V81.8548C101.029 75.1492 108.65 70.7927 116.455 70.7927C124.261 70.7927 131.882 75.1516 131.882 81.8548M121.725 54.5808C124.71 57.666 124.71 62.6687 121.725 65.7542C118.739 68.8397 113.899 68.8397 110.913 65.7542C107.928 62.6687 107.928 57.666 110.913 54.5808C113.899 51.4952 118.739 51.4952 121.725 54.5808Z" fill="#666AF6"/>
<path fill-rule="evenodd" clip-rule="evenodd" d="M208.319 58.1971L198.484 48.4271C197.178 47.1304 195.41 46.4026 193.567 46.4026H168.625C164.782 46.4026 161.67 49.4946 161.67 53.3122V101.679C161.67 105.496 164.782 108.588 168.625 108.588H203.402C207.244 108.588 210.357 105.496 210.357 101.679V63.0821C210.356 62.1741 210.176 61.2751 209.826 60.4368C209.476 59.5985 208.964 58.8373 208.319 58.1971Z" fill="white" stroke="#E1E4E5" stroke-width="2"/>
<path d="M173.713 96.8585H197.918M173.713 90.0662H197.918" stroke="#E1E4E5" stroke-width="5" stroke-linecap="round" stroke-linejoin="round"/>
<path fill-rule="evenodd" clip-rule="evenodd" d="M196.752 80.5906V82.1512C196.752 83.0128 196.057 83.7121 195.2 83.7121H176.574C175.718 83.7121 175.022 83.0128 175.022 82.1512V80.5656C175.022 75.8427 180.39 72.7745 185.887 72.7745C191.385 72.7745 196.752 75.8443 196.752 80.5656M189.599 61.3559C191.701 63.529 191.701 67.0524 189.599 69.2258C187.496 71.3989 184.087 71.3989 181.984 69.2258C179.881 67.0524 179.881 63.529 181.984 61.3559C184.087 59.1828 187.496 59.1828 189.599 61.3559Z" fill="#666AF6"/>
<path d="M153.867 113.188L140.917 100.267" stroke="#666AF6" stroke-width="8" stroke-linecap="round" stroke-linejoin="round"/>
<path d="M116.444 107.851C137.068 107.851 153.787 91.1678 153.787 70.588C153.787 50.0082 137.068 33.325 116.444 33.325C95.8197 33.325 79.1006 50.0082 79.1006 70.588C79.1006 91.1678 95.8197 107.851 116.444 107.851Z" stroke="#666AF6" stroke-width="6" stroke-linecap="round" stroke-linejoin="round"/>
</g>
<defs>
<linearGradient id="paint0_linear_363_68" x1="115.904" y1="186.59" x2="118.348" y2="-52.4292" gradientUnits="userSpaceOnUse">
<stop stop-color="white"/>
<stop offset="1" stop-color="#EEEEEE"/>
</linearGradient>
<linearGradient id="paint1_linear_363_68" x1="159.38" y1="98.3038" x2="131.001" y2="-29.4921" gradientUnits="userSpaceOnUse">
<stop stop-color="white"/>
<stop offset="1" stop-color="#EEEEEE"/>
</linearGradient>
<linearGradient id="paint2_linear_363_68" x1="179.401" y1="82.6077" x2="228.994" y2="43.2949" gradientUnits="userSpaceOnUse">
<stop stop-color="white"/>
<stop offset="1" stop-color="#EEEEEE"/>
</linearGradient>
<linearGradient id="paint3_linear_363_68" x1="55.9369" y1="107.051" x2="4.37277" y2="59.0373" gradientUnits="userSpaceOnUse">
<stop stop-color="white"/>
<stop offset="1" stop-color="#EEEEEE"/>
</linearGradient>
<clipPath id="clip0_363_68">
<rect width="233" height="155" fill="white"/>
</clipPath>
</defs>
</svg>
