<svg width="52" height="52" viewBox="0 0 52 52" fill="none" xmlns="http://www.w3.org/2000/svg">
<rect width="52" height="52" rx="16" fill="#2466A8"/>
<path d="M34.4 18.8572V27.2284C34.4 27.8912 33.8627 28.4284 33.1999 28.4284H18.7998C18.1371 28.4284 17.5998 27.8912 17.5998 27.2284V12.7528C17.5998 12.09 18.1297 11.5528 18.7925 11.5528C22.4938 11.5528 33.6192 11.5528 35 11.5528L33.4439 8H17.6001C15.6117 8 13.9999 9.60478 14 11.5931C14.0003 16.0371 14.0007 23.6004 14.0003 28.393C14.0002 30.3787 15.6005 31.9846 17.5862 31.9879C22.038 31.9955 29.6293 32.0055 34.4405 31.9964C36.4153 31.9927 38 30.3903 38 28.4156V14.6855C37.55 15.6977 37.1 16.2898 34.4 18.8572Z" fill="#EAF2FB"/>
<path d="M17.5998 14.2173C17.5998 13.6451 17.5998 13.1529 17.5998 12.7528C17.5998 12.09 18.1361 11.5528 18.7988 11.5528C22.0377 11.5528 30.9691 11.5528 34.7 11.5528C34.7 11.5528 27.9499 8.88819 18.155 8H17.6216C15.6334 8 14.0216 9.61178 14.0216 11.6V14.2173H17.5998Z" fill="url(#paint0_linear_13324_2131)"/>
<path fill-rule="evenodd" clip-rule="evenodd" d="M37.5817 10.5494C36.9341 9.12777 35 8 33.5 8.00001C31.9999 8.00001 17.6001 8 17.6001 8C27.5002 9.18426 34.55 11.5528 34.55 11.5528C35.0076 11.6818 35.1453 12.2636 34.794 12.584L34.1615 13.1609L27.4784 19.8445C27.3658 19.9572 27.1847 19.9621 27.066 19.8558L25.4853 18.4389C25.4303 18.3895 25.359 18.3623 25.2851 18.3623H21.065C20.7922 18.3623 20.6615 18.6919 20.8651 18.8735C22.5348 20.3619 26.1553 23.4695 27.0662 24.2505C27.1865 24.3536 27.3632 24.3432 27.474 24.2299C30.2508 21.3926 33.7632 18.313 36.5133 15.4956C37.8952 14.0798 38.4549 12.4653 37.5817 10.5494Z" fill="#EAF2FB"/>
<path d="M12.2225 43.8875H10.4219V36H15.9736V37.5776H12.2225V39.4367H15.1734V41.0143H12.2225V43.8875Z" fill="#EAF2FB"/>
<path d="M19.2752 43.8875C18.828 43.9624 18.4031 44 17.9996 44C17.5962 44 17.2576 43.8463 16.9845 43.5381C16.7109 43.2302 16.5742 42.8209 16.5742 42.3099V36H18.3248V42.0282C18.3248 42.1411 18.358 42.235 18.4249 42.3099C18.4915 42.3853 18.5749 42.4228 18.6748 42.4228H19.2752V43.8875Z" fill="#EAF2FB"/>
<path d="M22.1727 38.1409V43.8874H20.422V39.6619H19.6719V38.1409H22.1727Z" fill="#EAF2FB"/>
<path d="M27.8757 43.7749C26.6286 43.9248 25.5283 44 24.5747 44C24.1213 44 23.7579 43.8462 23.4844 43.538C23.2109 43.2302 23.0742 42.8209 23.0742 42.3098V39.7183C23.0742 39.155 23.2157 38.7139 23.4994 38.3945C23.7826 38.0751 24.1745 37.9156 24.6748 37.9156H27.8757V39.4366H25.2248C24.958 39.4366 24.8246 39.5871 24.8246 39.8874V42.0845C24.8246 42.1973 24.858 42.2912 24.9247 42.3664C24.9913 42.4415 25.0749 42.479 25.1748 42.479C25.7751 42.479 26.6752 42.4227 27.8757 42.3098L27.8757 43.7749Z" fill="#EAF2FB"/>
<path d="M30.4304 41.5213V43.8875H28.6797V36H30.4304V40H31.2306L32.3309 37.9158H34.1814L32.681 40.789L34.1814 43.8875H32.3309L31.1805 41.5213H30.4304V41.5213Z" fill="#EAF2FB"/>
<path d="M36.8797 38.1409V43.8874H35.1292V39.6619H34.3789V38.1409H36.8797Z" fill="#EAF2FB"/>
<path d="M41.5793 43.8873C40.9325 43.9623 40.2989 43.9999 39.6788 43.9999C39.2253 43.9999 38.8618 43.8462 38.5885 43.5379C38.3149 43.2301 38.1784 42.8208 38.1784 42.3098V39.4366H37.5781V37.9156H38.1784L38.3784 36.5634H39.9289V37.9156H41.1793V39.4366H39.9289V42.0281C39.9289 42.141 39.9621 42.2349 40.029 42.3098C40.0955 42.3852 40.1789 42.4227 40.279 42.4227H41.5793V43.8873Z" fill="#EAF2FB"/>
<path d="M22.153 36.0242H20.4023V37.6017H22.153V36.0242Z" fill="#E61A5E"/>
<path d="M36.895 36.0242H35.1445V37.6017H36.895V36.0242Z" fill="#FF9100"/>
<defs>
<linearGradient id="paint0_linear_13324_2131" x1="23.1007" y1="38.4202" x2="38.7546" y2="31.4973" gradientUnits="userSpaceOnUse">
<stop offset="0.35" stop-color="#EAF2FB"/>
<stop offset="1" stop-color="#1B4D7E"/>
</linearGradient>
</defs>
</svg>
