<svg width="46" height="47" viewBox="0 0 46 47" fill="none" xmlns="http://www.w3.org/2000/svg">
<rect y="0.335693" width="46" height="46" rx="16" fill="white"/>
<path d="M33.4999 21.9072V32.3712C33.4999 33.1997 32.8284 33.8712 31.9999 33.8712H13.9998C13.1714 33.8712 12.4998 33.1997 12.4998 32.3712V14.2767C12.4998 13.4482 13.1622 12.7767 13.9906 12.7767C18.6172 12.7767 32.524 12.7767 34.25 12.7767L32.3049 8.33569H12.5001C10.0146 8.33569 7.99984 10.3417 8 12.8271C8.00035 18.3821 8.00081 27.8361 8.0004 33.827C8.00023 36.3091 10.0006 38.3164 12.4828 38.3206C18.0475 38.33 27.5366 38.3425 33.5507 38.3312C36.0191 38.3265 38 36.3236 38 33.8552V16.6926C37.4375 17.9578 36.875 18.6979 33.4999 21.9072Z" fill="#2466A8"/>
<path d="M12.4997 16.1074C12.4997 15.392 12.4998 14.7768 12.4998 14.2767C12.4998 13.4482 13.1701 12.7767 13.9985 12.7767C18.0471 12.7767 29.2114 12.7767 33.8749 12.7767C33.8749 12.7767 25.4374 9.44593 13.1938 8.33569H12.5271C10.0418 8.33569 8.02702 10.3504 8.02702 12.8357V16.1074H12.4997Z" fill="url(#paint0_linear_13269_26940)"/>
<path fill-rule="evenodd" clip-rule="evenodd" d="M37.4771 11.5224C36.6677 9.74541 34.25 8.3357 32.3749 8.3357C30.4999 8.33571 12.5001 8.33569 12.5001 8.33569C24.8752 9.81601 33.6875 12.7767 33.6875 12.7767C34.2596 12.938 34.4316 13.6652 33.9924 14.0657L33.2018 14.7868L24.848 23.1413C24.7072 23.2822 24.4809 23.2884 24.3326 23.1554L22.3567 21.3843C22.2879 21.3226 22.1988 21.2885 22.1064 21.2885H16.8312C16.4902 21.2885 16.3269 21.7006 16.5814 21.9275C18.6685 23.788 23.1941 27.6725 24.3328 28.6488C24.4832 28.7777 24.704 28.7647 24.8426 28.6231C28.3135 25.0765 32.704 21.227 36.1416 17.7052C37.8691 15.9354 38.5686 13.9173 37.4771 11.5224Z" fill="#2466A8"/>
<defs>
<linearGradient id="paint0_linear_13269_26940" x1="19.3758" y1="46.361" x2="38.9432" y2="37.7073" gradientUnits="userSpaceOnUse">
<stop offset="0.35" stop-color="#2466A8"/>
<stop offset="1" stop-color="#2B333B"/>
</linearGradient>
</defs>
</svg>
