<svg width="1440" height="701" viewBox="0 0 1440 701" fill="none" xmlns="http://www.w3.org/2000/svg">
<path d="M720 701V489.648V1H1440V701H720Z" fill="url(#paint0_radial_13501_2192)"/>
<path d="M0 701V489.648V1H720V701H0Z" fill="url(#paint1_linear_13501_2192)"/>
<path d="M725.506 589C1019.92 589 1069.48 701 1440 701H0C297.915 701 431.096 589 725.506 589Z" fill="#F9FAFB"/>
<path d="M713.262 588.074C620.155 597.249 388.751 578.258 207.991 428.9C74.214 318.363 -0.00390625 164.196 -0.00390625 0H1440C1440 0 1388.34 54.159 1369.5 144.061C1347.5 249.015 1416.5 341.136 1304 461.672C1191.5 582.209 881.686 590.062 713.262 588.074Z" fill="url(#paint2_linear_13501_2192)"/>
<g filter="url(#filter0_dd_13501_2192)">
<rect x="693.996" y="562.664" width="52" height="52" rx="16" fill="#2466A8" shape-rendering="crispEdges"/>
<path d="M728.396 581.522V589.893C728.396 590.555 727.859 591.093 727.196 591.093H712.796C712.133 591.093 711.596 590.555 711.596 589.893V575.417C711.596 574.754 712.126 574.217 712.789 574.217C716.49 574.217 727.615 574.217 728.996 574.217L727.44 570.664H711.596C709.608 570.664 707.996 572.269 707.996 574.257C707.996 578.701 707.997 586.265 707.996 591.057C707.996 593.043 709.597 594.649 711.582 594.652C716.034 594.66 723.625 594.67 728.437 594.661C730.411 594.657 731.996 593.055 731.996 591.08V577.35C731.546 578.362 731.096 578.954 728.396 581.522Z" fill="#EAF2FB"/>
<path d="M711.596 576.882C711.596 576.309 711.596 575.817 711.596 575.417C711.596 574.754 712.132 574.217 712.795 574.217C716.034 574.217 724.965 574.217 728.696 574.217C728.696 574.217 721.946 571.552 712.151 570.664H711.618C709.629 570.664 708.018 572.276 708.018 574.264V576.882H711.596Z" fill="url(#paint3_linear_13501_2192)"/>
<path fill-rule="evenodd" clip-rule="evenodd" d="M731.578 573.214C730.93 571.792 728.996 570.664 727.496 570.664C725.996 570.664 711.596 570.664 711.596 570.664C721.496 571.849 728.546 574.217 728.546 574.217C729.004 574.346 729.141 574.928 728.79 575.248L728.158 575.825L721.475 582.509C721.362 582.621 721.181 582.626 721.062 582.52L719.481 581.103C719.426 581.054 719.355 581.027 719.281 581.027H715.061C714.788 581.027 714.658 581.356 714.861 581.538C716.531 583.026 720.151 586.134 721.062 586.915C721.183 587.018 721.359 587.007 721.47 586.894C724.247 584.057 727.759 580.977 730.509 578.16C731.891 576.744 732.451 575.13 731.578 573.214Z" fill="#EAF2FB"/>
<path d="M706.219 606.552H704.418V598.664H709.97V600.242H706.219V602.101H709.169V603.679H706.219V606.552Z" fill="#EAF2FB"/>
<path d="M713.271 606.552C712.824 606.627 712.399 606.664 711.996 606.664C711.592 606.664 711.254 606.511 710.981 606.202C710.707 605.895 710.57 605.485 710.57 604.974V598.664H712.321V604.693C712.321 604.805 712.354 604.899 712.421 604.974C712.488 605.05 712.571 605.087 712.671 605.087H713.271V606.552Z" fill="#EAF2FB"/>
<path d="M716.169 600.805V606.552H714.418V602.326H713.668V600.805H716.169Z" fill="#EAF2FB"/>
<path d="M721.872 606.439C720.625 606.589 719.524 606.664 718.571 606.664C718.117 606.664 717.754 606.511 717.48 606.202C717.207 605.895 717.07 605.485 717.07 604.974V602.383C717.07 601.819 717.212 601.378 717.495 601.059C717.779 600.74 718.171 600.58 718.671 600.58H721.872V602.101H719.221C718.954 602.101 718.821 602.252 718.821 602.552V604.749C718.821 604.862 718.854 604.956 718.921 605.031C718.987 605.106 719.071 605.143 719.171 605.143C719.771 605.143 720.671 605.087 721.872 604.974L721.872 606.439Z" fill="#EAF2FB"/>
<path d="M724.426 604.186V606.552H722.676V598.664H724.426V602.664H725.227L726.327 600.58H728.178L726.677 603.453L728.178 606.552H726.327L725.177 604.186H724.426V604.186Z" fill="#EAF2FB"/>
<path d="M730.876 600.805V606.552H729.125V602.326H728.375V600.805H730.876Z" fill="#EAF2FB"/>
<path d="M735.575 606.552C734.929 606.627 734.295 606.664 733.675 606.664C733.221 606.664 732.858 606.511 732.585 606.202C732.311 605.895 732.174 605.485 732.174 604.974V602.101H731.574V600.58H732.174L732.374 599.228H733.925V600.58H735.175V602.101H733.925V604.693C733.925 604.805 733.958 604.899 734.025 604.974C734.092 605.05 734.175 605.087 734.275 605.087H735.575V606.552Z" fill="#EAF2FB"/>
<path d="M716.149 598.688H714.398V600.266H716.149V598.688Z" fill="#E61A5E"/>
<path d="M730.891 598.688H729.141V600.266H730.891V598.688Z" fill="#FF9100"/>
</g>
<defs>
<filter id="filter0_dd_13501_2192" x="629.996" y="514.664" width="180" height="180" filterUnits="userSpaceOnUse" color-interpolation-filters="sRGB">
<feFlood flood-opacity="0" result="BackgroundImageFix"/>
<feColorMatrix in="SourceAlpha" type="matrix" values="0 0 0 0 0 0 0 0 0 0 0 0 0 0 0 0 0 0 127 0" result="hardAlpha"/>
<feOffset dy="16"/>
<feGaussianBlur stdDeviation="32"/>
<feComposite in2="hardAlpha" operator="out"/>
<feColorMatrix type="matrix" values="0 0 0 0 0.105 0 0 0 0 0.3 0 0 0 0 0.495 0 0 0 0.25 0"/>
<feBlend mode="normal" in2="BackgroundImageFix" result="effect1_dropShadow_13501_2192"/>
<feColorMatrix in="SourceAlpha" type="matrix" values="0 0 0 0 0 0 0 0 0 0 0 0 0 0 0 0 0 0 127 0" result="hardAlpha"/>
<feOffset/>
<feGaussianBlur stdDeviation="8"/>
<feComposite in2="hardAlpha" operator="out"/>
<feColorMatrix type="matrix" values="0 0 0 0 1 0 0 0 0 1 0 0 0 0 1 0 0 0 0.25 0"/>
<feBlend mode="normal" in2="effect1_dropShadow_13501_2192" result="effect2_dropShadow_13501_2192"/>
<feBlend mode="normal" in="SourceGraphic" in2="effect2_dropShadow_13501_2192" result="shape"/>
</filter>
<radialGradient id="paint0_radial_13501_2192" cx="0" cy="0" r="1" gradientUnits="userSpaceOnUse" gradientTransform="translate(739.186 493.744) rotate(-55.3075) scale(598.788 547.677)">
<stop stop-color="#EAF2FB"/>
<stop offset="1" stop-color="#D5E6F6"/>
</radialGradient>
<linearGradient id="paint1_linear_13501_2192" x1="0" y1="573.321" x2="720" y2="573.321" gradientUnits="userSpaceOnUse">
<stop stop-color="#1B4D7E"/>
<stop offset="1" stop-color="#2466A8"/>
</linearGradient>
<linearGradient id="paint2_linear_13501_2192" x1="719.996" y1="0" x2="719.996" y2="590" gradientUnits="userSpaceOnUse">
<stop stop-color="#2466A8"/>
<stop offset="1" stop-color="#2D80D2"/>
</linearGradient>
<linearGradient id="paint3_linear_13501_2192" x1="717.097" y1="601.085" x2="732.751" y2="594.162" gradientUnits="userSpaceOnUse">
<stop offset="0.35" stop-color="#EAF2FB"/>
<stop offset="1" stop-color="#1B4D7E"/>
</linearGradient>
</defs>
</svg>
