<svg width="180" height="72" viewBox="0 0 180 72" fill="none" xmlns="http://www.w3.org/2000/svg">
<g clip-path="url(#clip0_1784_5115)">
<path d="M35.789 19.5722V34.3635C35.789 35.5345 34.8465 36.4838 33.6838 36.4838H8.42067C7.25797 36.4838 6.31541 35.5345 6.31541 34.3635V8.78618C6.31541 7.61517 7.24508 6.66588 8.40778 6.66588C14.9012 6.66588 34.4193 6.66588 36.8417 6.66588L34.1118 0.388428H6.31585C2.82754 0.388428 -0.000219059 3.22393 1.27281e-08 6.73716C0.000489648 14.5894 0.00114134 27.953 0.000561459 36.4212C0.000321202 39.9298 2.80786 42.7672 6.29155 42.7731C14.1016 42.7864 27.4195 42.8041 35.8602 42.7881C39.3247 42.7815 42.1048 39.9503 42.1048 36.4611V12.2012C41.3153 13.9896 40.5259 15.0358 35.789 19.5722Z" fill="#1CBEC1"/>
<path d="M6.31535 11.374C6.31535 10.3628 6.31541 9.4932 6.31541 8.78618C6.31541 7.61517 7.25623 6.66588 8.41893 6.66588C14.1011 6.66588 29.7701 6.66588 36.3153 6.66588C36.3153 6.66588 24.4732 1.95779 7.28943 0.388428H6.3537C2.86559 0.388428 0.0379167 3.2363 0.0379167 6.74933V11.374H6.31535Z" fill="url(#paint0_linear_1784_5115)"/>
<path fill-rule="evenodd" clip-rule="evenodd" d="M41.371 4.89298C40.2349 2.38111 36.8417 0.388431 34.2101 0.38844C31.5785 0.388449 6.31585 0.388428 6.31585 0.388428C23.6843 2.48091 36.0522 6.66589 36.0522 6.66589C36.8551 6.89391 37.0966 7.92181 36.4802 8.48802L35.3706 9.50735L23.6461 21.3167C23.4485 21.5158 23.1308 21.5245 22.9227 21.3366L20.1495 18.833C20.053 18.7459 19.9279 18.6977 19.7982 18.6977H12.3946C11.916 18.6977 11.6867 19.2802 12.044 19.601C14.9732 22.2308 21.3248 27.7217 22.923 29.1017C23.1341 29.2839 23.444 29.2655 23.6384 29.0654C28.5099 24.0521 34.672 18.6107 39.4965 13.6326C41.9211 11.1309 42.9028 8.2782 41.371 4.89298Z" fill="#1CBEC1"/>
<path d="M62.4658 37.2638H55.2637V5.46558H77.4699V11.8256H62.4658V19.3208H74.269V25.6807H62.4658V37.2638Z" fill="#0A2342"/>
<path d="M90.6736 37.2638C88.885 37.566 87.1855 37.7175 85.5716 37.7175C83.9578 37.7175 82.6036 37.0977 81.5112 35.8552C80.417 34.614 79.8701 32.9641 79.8701 30.9038V5.46558H86.8723V29.7683C86.8723 30.2234 87.0052 30.6018 87.2727 30.9038C87.5389 31.2078 87.8725 31.3589 88.2721 31.3589H90.6736V37.2638Z" fill="#0A2342"/>
<path d="M102.276 14.0969V37.2638H95.2737V20.2291H92.2734V14.0969H102.276Z" fill="#0A2342"/>
<path d="M125.082 36.8102C120.094 37.4147 115.693 37.7175 111.879 37.7175C110.065 37.7175 108.611 37.0978 107.518 35.8553C106.424 34.6141 105.877 32.9642 105.877 30.9039V20.4561C105.877 18.1851 106.443 16.4069 107.578 15.1191C108.711 13.8316 110.278 13.1887 112.279 13.1887H125.082V19.3206H114.479C113.412 19.3206 112.878 19.9271 112.878 21.1379V29.9953C112.878 30.4502 113.012 30.8289 113.279 31.132C113.545 31.4346 113.879 31.5857 114.279 31.5857C116.68 31.5857 120.281 31.359 125.082 30.9039L125.082 36.8102Z" fill="#0A2342"/>
<path d="M135.286 27.7245V37.2638H128.283V5.46558H135.286V21.5915H138.487L142.888 13.1889H150.29L144.288 24.7722L150.29 37.264H142.888L138.286 27.7248H135.286V27.7245Z" fill="#0A2342"/>
<path d="M161.092 14.0969V37.2638H154.09V20.2291H151.089V14.0969H161.092Z" fill="#0A2342"/>
<path d="M179.896 37.2639C177.309 37.5661 174.775 37.7176 172.294 37.7176C170.48 37.7176 169.026 37.0979 167.933 35.8553C166.839 34.6141 166.293 32.9643 166.293 30.9039V19.3206H163.892V13.1888H166.293L167.093 7.7373H173.294V13.1888H178.296V19.3206H173.294V29.7684C173.294 30.2235 173.427 30.6019 173.695 30.9039C173.961 31.2079 174.294 31.359 174.695 31.359H179.896V37.2639Z" fill="#0A2342"/>
<path d="M102.203 5.56299H95.2002V11.923H102.203V5.56299Z" fill="#D81E5B"/>
<path d="M161.149 5.56299H154.147V11.923H161.149V5.56299Z" fill="#F9A03F"/>
</g>
<path d="M20.1742 57.9231H22.1447V66.6768H20.1742V62.9631H16.8647V66.6768H14.8942V57.9231H16.8647V61.2704H20.1742V57.9231ZM26.5831 65.3631C26.7684 65.3631 26.9452 65.3589 27.1136 65.3504C27.2821 65.342 27.4168 65.3294 27.5178 65.3125V63.8852C27.4421 63.8683 27.3284 63.8515 27.1768 63.8347C27.0252 63.8178 26.8863 63.8094 26.76 63.8094C26.5831 63.8094 26.4147 63.822 26.2547 63.8473C26.1031 63.8641 25.9684 63.902 25.8505 63.961C25.7326 64.0199 25.64 64.0999 25.5726 64.201C25.5052 64.302 25.4715 64.4283 25.4715 64.5799C25.4715 64.8747 25.5684 65.081 25.7621 65.1989C25.9642 65.3083 26.2378 65.3631 26.5831 65.3631ZM26.4315 59.8557C26.9873 59.8557 27.4505 59.9189 27.821 60.0452C28.1915 60.1715 28.4863 60.3525 28.7052 60.5883C28.9326 60.8241 29.0926 61.1104 29.1852 61.4473C29.2778 61.7841 29.3242 62.1589 29.3242 62.5715V66.4873C29.0547 66.5462 28.68 66.6136 28.2 66.6894C27.72 66.7736 27.1389 66.8157 26.4568 66.8157C26.0273 66.8157 25.6357 66.7778 25.2821 66.702C24.9368 66.6262 24.6378 66.5041 24.3852 66.3357C24.1326 66.1589 23.9389 65.9315 23.8042 65.6536C23.6694 65.3757 23.6021 65.0347 23.6021 64.6304C23.6021 64.2431 23.6778 63.9147 23.8294 63.6452C23.9894 63.3757 24.2 63.161 24.461 63.001C24.7221 62.841 25.021 62.7273 25.3578 62.6599C25.6947 62.5841 26.0442 62.5462 26.4063 62.5462C26.6505 62.5462 26.8652 62.5589 27.0505 62.5841C27.2442 62.601 27.4 62.6262 27.5178 62.6599V62.4831C27.5178 62.1631 27.421 61.9062 27.2273 61.7125C27.0336 61.5189 26.6968 61.422 26.2168 61.422C25.8968 61.422 25.581 61.4473 25.2694 61.4978C24.9578 61.5399 24.6884 61.6031 24.461 61.6873L24.221 60.1715C24.3305 60.1378 24.4652 60.1041 24.6252 60.0704C24.7936 60.0283 24.9747 59.9947 25.1684 59.9694C25.3621 59.9357 25.5642 59.9104 25.7747 59.8936C25.9936 59.8683 26.2126 59.8557 26.4315 59.8557ZM32.672 66.6768C32.2426 65.8347 31.8047 64.8494 31.3583 63.721C30.9204 62.5925 30.5036 61.3631 30.1078 60.0325H32.1036C32.1878 60.361 32.2847 60.7189 32.3941 61.1062C32.512 61.4852 32.6299 61.8725 32.7478 62.2683C32.8741 62.6557 32.9962 63.0347 33.1141 63.4052C33.2404 63.7757 33.3626 64.1125 33.4804 64.4157C33.5899 64.1125 33.7078 63.7757 33.8341 63.4052C33.9604 63.0347 34.0826 62.6557 34.2004 62.2683C34.3268 61.8725 34.4447 61.4852 34.5541 61.1062C34.672 60.7189 34.7731 60.361 34.8573 60.0325H36.8026C36.4068 61.3631 35.9857 62.5925 35.5394 63.721C35.1015 64.8494 34.6678 65.8347 34.2383 66.6768H32.672ZM37.3221 63.4052C37.3221 62.8157 37.4105 62.302 37.5874 61.8641C37.7726 61.4178 38.0126 61.0473 38.3074 60.7525C38.6021 60.4578 38.939 60.2347 39.3179 60.0831C39.7053 59.9315 40.1011 59.8557 40.5053 59.8557C41.4484 59.8557 42.1937 60.1462 42.7411 60.7273C43.2884 61.2999 43.5621 62.1462 43.5621 63.2662C43.5621 63.3757 43.5579 63.4978 43.5495 63.6325C43.5411 63.7589 43.5326 63.8725 43.5242 63.9736H39.2548C39.2969 64.361 39.4779 64.6683 39.7979 64.8957C40.1179 65.1231 40.5474 65.2368 41.0863 65.2368C41.4316 65.2368 41.7684 65.2073 42.0969 65.1483C42.4337 65.081 42.7074 65.001 42.9179 64.9083L43.1705 66.4368C43.0695 66.4873 42.9348 66.5378 42.7663 66.5883C42.5979 66.6389 42.4084 66.681 42.1979 66.7147C41.9958 66.7568 41.7769 66.7904 41.5411 66.8157C41.3053 66.841 41.0695 66.8536 40.8337 66.8536C40.2358 66.8536 39.7137 66.7652 39.2674 66.5883C38.8295 66.4115 38.4632 66.1715 38.1684 65.8683C37.8821 65.5568 37.6674 65.1904 37.5242 64.7694C37.3895 64.3483 37.3221 63.8936 37.3221 63.4052ZM41.7432 62.6852C41.7348 62.5252 41.7053 62.3694 41.6548 62.2178C41.6126 62.0662 41.5411 61.9315 41.44 61.8136C41.3474 61.6957 41.2253 61.5989 41.0737 61.5231C40.9305 61.4473 40.7495 61.4094 40.5305 61.4094C40.32 61.4094 40.139 61.4473 39.9874 61.5231C39.8358 61.5904 39.7095 61.6831 39.6084 61.801C39.5074 61.9189 39.4274 62.0578 39.3684 62.2178C39.3179 62.3694 39.28 62.5252 39.2548 62.6852H41.7432ZM49.6533 63.3041C49.6533 63.8852 49.7838 64.3525 50.0449 64.7062C50.3059 65.0599 50.6933 65.2368 51.207 65.2368C51.3754 65.2368 51.5312 65.2325 51.6744 65.2241C51.8175 65.2073 51.9354 65.1904 52.028 65.1736V61.7504C51.9101 61.6747 51.7544 61.6115 51.5607 61.561C51.3754 61.5104 51.1859 61.4852 50.9923 61.4852C50.0996 61.4852 49.6533 62.0915 49.6533 63.3041ZM53.9101 66.462C53.7417 66.5125 53.548 66.5631 53.3291 66.6136C53.1101 66.6557 52.8786 66.6936 52.6344 66.7273C52.3986 66.761 52.1544 66.7862 51.9017 66.8031C51.6575 66.8283 51.4217 66.841 51.1944 66.841C50.647 66.841 50.1586 66.761 49.7291 66.601C49.2996 66.441 48.9375 66.2136 48.6428 65.9189C48.348 65.6157 48.1207 65.2536 47.9607 64.8325C47.8091 64.4031 47.7333 63.9231 47.7333 63.3925C47.7333 62.8536 47.8007 62.3694 47.9354 61.9399C48.0701 61.502 48.2638 61.1315 48.5165 60.8283C48.7691 60.5252 49.0765 60.2936 49.4386 60.1336C49.8091 59.9736 50.2301 59.8936 50.7017 59.8936C50.9628 59.8936 51.1944 59.9189 51.3965 59.9694C51.607 60.0199 51.8175 60.0915 52.028 60.1841V57.1778L53.9101 56.8747V66.462ZM61.8872 63.342C61.8872 63.8641 61.8114 64.3441 61.6598 64.782C61.5082 65.2115 61.2893 65.582 61.003 65.8936C60.7167 66.1968 60.3714 66.4325 59.9672 66.601C59.5714 66.7694 59.1251 66.8536 58.6282 66.8536C58.1398 66.8536 57.6935 66.7694 57.2893 66.601C56.8935 66.4325 56.5524 66.1968 56.2661 65.8936C55.9798 65.582 55.7567 65.2115 55.5967 64.782C55.4367 64.3441 55.3567 63.8641 55.3567 63.342C55.3567 62.8199 55.4367 62.3441 55.5967 61.9147C55.7651 61.4852 55.9924 61.1189 56.2788 60.8157C56.5735 60.5125 56.9188 60.2768 57.3146 60.1083C57.7188 59.9399 58.1567 59.8557 58.6282 59.8557C59.1082 59.8557 59.5461 59.9399 59.9419 60.1083C60.3461 60.2768 60.6914 60.5125 60.9777 60.8157C61.264 61.1189 61.4872 61.4852 61.6472 61.9147C61.8072 62.3441 61.8872 62.8199 61.8872 63.342ZM59.9672 63.342C59.9672 62.761 59.8493 62.3062 59.6135 61.9778C59.3861 61.641 59.0577 61.4725 58.6282 61.4725C58.1988 61.4725 57.8661 61.641 57.6303 61.9778C57.3946 62.3062 57.2767 62.761 57.2767 63.342C57.2767 63.9231 57.3946 64.3862 57.6303 64.7315C57.8661 65.0683 58.1988 65.2368 58.6282 65.2368C59.0577 65.2368 59.3861 65.0683 59.6135 64.7315C59.8493 64.3862 59.9672 63.9231 59.9672 63.342ZM69.0167 66.4494C68.6967 66.542 68.2841 66.6262 67.7788 66.702C67.2736 66.7862 66.743 66.8283 66.1873 66.8283C65.623 66.8283 65.1515 66.7525 64.7725 66.601C64.402 66.4494 64.1073 66.2389 63.8883 65.9694C63.6694 65.6915 63.5136 65.3631 63.4209 64.9841C63.3283 64.6052 63.282 64.1883 63.282 63.7336V60.0325H65.1641V63.5062C65.1641 64.1125 65.2441 64.5504 65.4041 64.8199C65.5641 65.0894 65.863 65.2241 66.3009 65.2241C66.4357 65.2241 66.5788 65.2199 66.7304 65.2115C66.882 65.1947 67.0167 65.1778 67.1346 65.161V60.0325H69.0167V66.4494ZM75.0403 63.3041C75.0403 62.0915 74.594 61.4852 73.7014 61.4852C73.5077 61.4852 73.314 61.5104 73.1203 61.561C72.935 61.6115 72.7835 61.6747 72.6656 61.7504V65.1736C72.7582 65.1904 72.8761 65.2073 73.0193 65.2241C73.1624 65.2325 73.3182 65.2368 73.4866 65.2368C74.0003 65.2368 74.3877 65.0599 74.6487 64.7062C74.9098 64.3525 75.0403 63.8852 75.0403 63.3041ZM76.9603 63.3547C76.9603 63.8852 76.8803 64.3652 76.7203 64.7947C76.5687 65.2241 76.3456 65.5904 76.0508 65.8936C75.7561 66.1968 75.394 66.4325 74.9645 66.601C74.535 66.761 74.0466 66.841 73.4993 66.841C73.2719 66.841 73.0319 66.8283 72.7793 66.8031C72.535 66.7862 72.2908 66.761 72.0466 66.7273C71.8108 66.6936 71.5835 66.6557 71.3645 66.6136C71.1456 66.5631 70.9519 66.5125 70.7835 66.462V57.1778L72.6656 56.8747V60.1841C72.8761 60.0915 73.095 60.0199 73.3224 59.9694C73.5498 59.9189 73.794 59.8936 74.055 59.8936C74.5266 59.8936 74.9435 59.9778 75.3056 60.1462C75.6677 60.3062 75.9708 60.5378 76.215 60.841C76.4593 61.1441 76.6445 61.5104 76.7708 61.9399C76.8972 62.361 76.9603 62.8325 76.9603 63.3547ZM78.3437 58.3778L80.2258 58.0747V60.0325H82.4868V61.5989H80.2258V63.9357C80.2258 64.3315 80.2931 64.6473 80.4279 64.8831C80.571 65.1189 80.8531 65.2368 81.2742 65.2368C81.4763 65.2368 81.6826 65.2199 81.8931 65.1862C82.1121 65.1441 82.31 65.0894 82.4868 65.022L82.7521 66.4873C82.5247 66.5799 82.2721 66.6599 81.9942 66.7273C81.7163 66.7947 81.3752 66.8283 80.971 66.8283C80.4574 66.8283 80.0321 66.761 79.6952 66.6262C79.3584 66.4831 79.0889 66.2894 78.8868 66.0452C78.6847 65.7925 78.5416 65.4894 78.4574 65.1357C78.3816 64.782 78.3437 64.3904 78.3437 63.961V58.3778ZM85.4892 59.3252C85.186 59.3252 84.8997 59.3631 84.6302 59.4389C84.3608 59.5147 84.0618 59.6368 83.7334 59.8052L83.2029 58.3778C83.5313 58.1673 83.9187 58.0073 84.365 57.8978C84.8113 57.7799 85.2492 57.721 85.6787 57.721C86.2176 57.721 86.6597 57.7925 87.005 57.9357C87.3587 58.0789 87.6366 58.2599 87.8387 58.4789C88.0408 58.6978 88.1797 58.9378 88.2555 59.1989C88.3397 59.4599 88.3818 59.7083 88.3818 59.9441C88.3818 60.1799 88.3439 60.3989 88.2681 60.601C88.2008 60.7947 88.1124 60.9757 88.0029 61.1441C87.8934 61.3125 87.7671 61.4725 87.6239 61.6241C87.4808 61.7757 87.3418 61.9189 87.2071 62.0536C87.106 62.1547 87.0008 62.2641 86.8913 62.382C86.7818 62.4915 86.6808 62.6094 86.5881 62.7357C86.5039 62.862 86.4324 62.9968 86.3734 63.1399C86.3145 63.2747 86.285 63.4136 86.285 63.5568C86.285 63.5904 86.285 63.641 86.285 63.7083C86.285 63.7757 86.2892 63.8347 86.2976 63.8852H84.6302C84.6134 63.801 84.6008 63.7083 84.5924 63.6073C84.5924 63.4978 84.5924 63.4052 84.5924 63.3294C84.5924 63.0936 84.6218 62.8831 84.6808 62.6978C84.7397 62.5041 84.8155 62.3273 84.9081 62.1673C85.0092 61.9989 85.1229 61.8431 85.2492 61.6999C85.3755 61.5568 85.506 61.4178 85.6408 61.2831C85.8345 61.0894 86.0113 60.8999 86.1713 60.7147C86.3313 60.521 86.4113 60.302 86.4113 60.0578C86.4113 59.8557 86.3313 59.6831 86.1713 59.5399C86.0197 59.3968 85.7924 59.3252 85.4892 59.3252ZM86.6639 65.6789C86.6639 66.0494 86.5418 66.3357 86.2976 66.5378C86.0618 66.7399 85.7924 66.841 85.4892 66.841C85.186 66.841 84.9124 66.7399 84.6681 66.5378C84.4324 66.3357 84.3145 66.0494 84.3145 65.6789C84.3145 65.3083 84.4324 65.022 84.6681 64.8199C84.9124 64.6178 85.186 64.5168 85.4892 64.5168C85.7924 64.5168 86.0618 64.6178 86.2976 64.8199C86.5418 65.022 86.6639 65.3083 86.6639 65.6789ZM98.5921 64.9841V66.6768H92.7437V57.9231H94.7142V64.9841H98.5921ZM99.4192 63.4052C99.4192 62.8157 99.5076 62.302 99.6844 61.8641C99.8697 61.4178 100.11 61.0473 100.404 60.7525C100.699 60.4578 101.036 60.2347 101.415 60.0831C101.802 59.9315 102.198 59.8557 102.602 59.8557C103.545 59.8557 104.291 60.1462 104.838 60.7273C105.385 61.2999 105.659 62.1462 105.659 63.2662C105.659 63.3757 105.655 63.4978 105.647 63.6325C105.638 63.7589 105.63 63.8725 105.621 63.9736H101.352C101.394 64.361 101.575 64.6683 101.895 64.8957C102.215 65.1231 102.644 65.2368 103.183 65.2368C103.529 65.2368 103.865 65.2073 104.194 65.1483C104.531 65.081 104.804 65.001 105.015 64.9083L105.268 66.4368C105.167 66.4873 105.032 66.5378 104.863 66.5883C104.695 66.6389 104.505 66.681 104.295 66.7147C104.093 66.7568 103.874 66.7904 103.638 66.8157C103.402 66.841 103.167 66.8536 102.931 66.8536C102.333 66.8536 101.811 66.7652 101.364 66.5883C100.927 66.4115 100.56 66.1715 100.265 65.8683C99.9792 65.5568 99.7644 65.1904 99.6213 64.7694C99.4865 64.3483 99.4192 63.8936 99.4192 63.4052ZM103.84 62.6852C103.832 62.5252 103.802 62.3694 103.752 62.2178C103.71 62.0662 103.638 61.9315 103.537 61.8136C103.444 61.6957 103.322 61.5989 103.171 61.5231C103.028 61.4473 102.847 61.4094 102.628 61.4094C102.417 61.4094 102.236 61.4473 102.084 61.5231C101.933 61.5904 101.807 61.6831 101.705 61.801C101.604 61.9189 101.524 62.0578 101.465 62.2178C101.415 62.3694 101.377 62.5252 101.352 62.6852H103.84ZM107.048 58.3778L108.931 58.0747V60.0325H111.192V61.5989H108.931V63.9357C108.931 64.3315 108.998 64.6473 109.133 64.8831C109.276 65.1189 109.558 65.2368 109.979 65.2368C110.181 65.2368 110.387 65.2199 110.598 65.1862C110.817 65.1441 111.015 65.0894 111.192 65.022L111.457 66.4873C111.229 66.5799 110.977 66.6599 110.699 66.7273C110.421 66.7947 110.08 66.8283 109.676 66.8283C109.162 66.8283 108.737 66.761 108.4 66.6262C108.063 66.4831 107.794 66.2894 107.592 66.0452C107.389 65.7925 107.246 65.4894 107.162 65.1357C107.086 64.782 107.048 64.3904 107.048 63.961V58.3778ZM114.328 57.0768V58.0115C114.328 58.4157 114.295 58.8578 114.227 59.3378C114.168 59.8178 114.101 60.302 114.025 60.7904H112.775C112.682 60.302 112.606 59.8178 112.547 59.3378C112.497 58.8578 112.472 58.4115 112.472 57.9989V57.0768H114.328ZM117.753 65.3252C118.098 65.3252 118.342 65.2915 118.485 65.2241C118.628 65.1568 118.7 65.0262 118.7 64.8325C118.7 64.681 118.607 64.5504 118.422 64.441C118.237 64.3231 117.955 64.1925 117.576 64.0494C117.281 63.9399 117.011 63.8262 116.767 63.7083C116.531 63.5904 116.329 63.4515 116.161 63.2915C115.993 63.1231 115.862 62.9252 115.769 62.6978C115.677 62.4704 115.63 62.1968 115.63 61.8768C115.63 61.2536 115.862 60.761 116.325 60.3989C116.788 60.0368 117.424 59.8557 118.233 59.8557C118.637 59.8557 119.024 59.8936 119.395 59.9694C119.765 60.0368 120.06 60.1125 120.279 60.1968L119.95 61.662C119.731 61.5862 119.491 61.5189 119.23 61.4599C118.978 61.401 118.691 61.3715 118.371 61.3715C117.782 61.3715 117.487 61.5357 117.487 61.8641C117.487 61.9399 117.5 62.0073 117.525 62.0662C117.55 62.1252 117.601 62.1841 117.677 62.2431C117.753 62.2936 117.854 62.3525 117.98 62.4199C118.115 62.4789 118.283 62.5462 118.485 62.622C118.898 62.7736 119.239 62.9252 119.508 63.0768C119.778 63.2199 119.988 63.3799 120.14 63.5568C120.3 63.7252 120.409 63.9147 120.468 64.1252C120.536 64.3357 120.569 64.5799 120.569 64.8578C120.569 65.5147 120.321 66.0115 119.824 66.3483C119.336 66.6852 118.641 66.8536 117.74 66.8536C117.15 66.8536 116.658 66.8031 116.262 66.702C115.875 66.601 115.605 66.5168 115.454 66.4494L115.769 64.921C116.089 65.0473 116.418 65.1483 116.755 65.2241C117.091 65.2915 117.424 65.3252 117.753 65.3252ZM127.549 65.3631C127.735 65.3631 127.911 65.3589 128.08 65.3504C128.248 65.342 128.383 65.3294 128.484 65.3125V63.8852C128.408 63.8683 128.295 63.8515 128.143 63.8347C127.991 63.8178 127.853 63.8094 127.726 63.8094C127.549 63.8094 127.381 63.822 127.221 63.8473C127.069 63.8641 126.935 63.902 126.817 63.961C126.699 64.0199 126.606 64.0999 126.539 64.201C126.471 64.302 126.438 64.4283 126.438 64.5799C126.438 64.8747 126.535 65.081 126.728 65.1989C126.93 65.3083 127.204 65.3631 127.549 65.3631ZM127.398 59.8557C127.954 59.8557 128.417 59.9189 128.787 60.0452C129.158 60.1715 129.453 60.3525 129.671 60.5883C129.899 60.8241 130.059 61.1104 130.151 61.4473C130.244 61.7841 130.29 62.1589 130.29 62.5715V66.4873C130.021 66.5462 129.646 66.6136 129.166 66.6894C128.686 66.7736 128.105 66.8157 127.423 66.8157C126.994 66.8157 126.602 66.7778 126.248 66.702C125.903 66.6262 125.604 66.5041 125.351 66.3357C125.099 66.1589 124.905 65.9315 124.77 65.6536C124.636 65.3757 124.568 65.0347 124.568 64.6304C124.568 64.2431 124.644 63.9147 124.796 63.6452C124.956 63.3757 125.166 63.161 125.427 63.001C125.688 62.841 125.987 62.7273 126.324 62.6599C126.661 62.5841 127.01 62.5462 127.373 62.5462C127.617 62.5462 127.831 62.5589 128.017 62.5841C128.21 62.601 128.366 62.6262 128.484 62.6599V62.4831C128.484 62.1631 128.387 61.9062 128.194 61.7125C128 61.5189 127.663 61.422 127.183 61.422C126.863 61.422 126.547 61.4473 126.236 61.4978C125.924 61.5399 125.655 61.6031 125.427 61.6873L125.187 60.1715C125.297 60.1378 125.431 60.1041 125.591 60.0704C125.76 60.0283 125.941 59.9947 126.135 59.9694C126.328 59.9357 126.53 59.9104 126.741 59.8936C126.96 59.8683 127.179 59.8557 127.398 59.8557ZM133.9 65.3252C134.245 65.3252 134.489 65.2915 134.632 65.2241C134.776 65.1568 134.847 65.0262 134.847 64.8325C134.847 64.681 134.754 64.5504 134.569 64.441C134.384 64.3231 134.102 64.1925 133.723 64.0494C133.428 63.9399 133.159 63.8262 132.914 63.7083C132.679 63.5904 132.477 63.4515 132.308 63.2915C132.14 63.1231 132.009 62.9252 131.917 62.6978C131.824 62.4704 131.778 62.1968 131.778 61.8768C131.778 61.2536 132.009 60.761 132.472 60.3989C132.936 60.0368 133.571 59.8557 134.38 59.8557C134.784 59.8557 135.171 59.8936 135.542 59.9694C135.912 60.0368 136.207 60.1125 136.426 60.1968L136.098 61.662C135.879 61.5862 135.639 61.5189 135.378 61.4599C135.125 61.401 134.839 61.3715 134.519 61.3715C133.929 61.3715 133.634 61.5357 133.634 61.8641C133.634 61.9399 133.647 62.0073 133.672 62.0662C133.698 62.1252 133.748 62.1841 133.824 62.2431C133.9 62.2936 134.001 62.3525 134.127 62.4199C134.262 62.4789 134.43 62.5462 134.632 62.622C135.045 62.7736 135.386 62.9252 135.656 63.0768C135.925 63.2199 136.136 63.3799 136.287 63.5568C136.447 63.7252 136.557 63.9147 136.616 64.1252C136.683 64.3357 136.717 64.5799 136.717 64.8578C136.717 65.5147 136.468 66.0115 135.971 66.3483C135.483 66.6852 134.788 66.8536 133.887 66.8536C133.298 66.8536 132.805 66.8031 132.409 66.702C132.022 66.601 131.752 66.5168 131.601 66.4494L131.917 64.921C132.237 65.0473 132.565 65.1483 132.902 65.2241C133.239 65.2915 133.571 65.3252 133.9 65.3252ZM140.03 65.3252C140.376 65.3252 140.62 65.2915 140.763 65.2241C140.906 65.1568 140.978 65.0262 140.978 64.8325C140.978 64.681 140.885 64.5504 140.7 64.441C140.515 64.3231 140.233 64.1925 139.854 64.0494C139.559 63.9399 139.289 63.8262 139.045 63.7083C138.809 63.5904 138.607 63.4515 138.439 63.2915C138.27 63.1231 138.14 62.9252 138.047 62.6978C137.955 62.4704 137.908 62.1968 137.908 61.8768C137.908 61.2536 138.14 60.761 138.603 60.3989C139.066 60.0368 139.702 59.8557 140.51 59.8557C140.915 59.8557 141.302 59.8936 141.673 59.9694C142.043 60.0368 142.338 60.1125 142.557 60.1968L142.228 61.662C142.009 61.5862 141.769 61.5189 141.508 61.4599C141.256 61.401 140.969 61.3715 140.649 61.3715C140.06 61.3715 139.765 61.5357 139.765 61.8641C139.765 61.9399 139.778 62.0073 139.803 62.0662C139.828 62.1252 139.879 62.1841 139.955 62.2431C140.03 62.2936 140.132 62.3525 140.258 62.4199C140.393 62.4789 140.561 62.5462 140.763 62.622C141.176 62.7736 141.517 62.9252 141.786 63.0768C142.056 63.2199 142.266 63.3799 142.418 63.5568C142.578 63.7252 142.687 63.9147 142.746 64.1252C142.814 64.3357 142.847 64.5799 142.847 64.8578C142.847 65.5147 142.599 66.0115 142.102 66.3483C141.614 66.6852 140.919 66.8536 140.018 66.8536C139.428 66.8536 138.936 66.8031 138.54 66.702C138.153 66.601 137.883 66.5168 137.732 66.4494L138.047 64.921C138.367 65.0473 138.696 65.1483 139.033 65.2241C139.369 65.2915 139.702 65.3252 140.03 65.3252ZM143.938 63.4052C143.938 62.8157 144.027 62.302 144.203 61.8641C144.389 61.4178 144.629 61.0473 144.923 60.7525C145.218 60.4578 145.555 60.2347 145.934 60.0831C146.321 59.9315 146.717 59.8557 147.121 59.8557C148.064 59.8557 148.81 60.1462 149.357 60.7273C149.904 61.2999 150.178 62.1462 150.178 63.2662C150.178 63.3757 150.174 63.4978 150.165 63.6325C150.157 63.7589 150.149 63.8725 150.14 63.9736H145.871C145.913 64.361 146.094 64.6683 146.414 64.8957C146.734 65.1231 147.163 65.2368 147.702 65.2368C148.048 65.2368 148.384 65.2073 148.713 65.1483C149.05 65.081 149.323 65.001 149.534 64.9083L149.787 66.4368C149.685 66.4873 149.551 66.5378 149.382 66.5883C149.214 66.6389 149.024 66.681 148.814 66.7147C148.612 66.7568 148.393 66.7904 148.157 66.8157C147.921 66.841 147.685 66.8536 147.45 66.8536C146.852 66.8536 146.33 66.7652 145.883 66.5883C145.445 66.4115 145.079 66.1715 144.784 65.8683C144.498 65.5568 144.283 65.1904 144.14 64.7694C144.005 64.3483 143.938 63.8936 143.938 63.4052ZM148.359 62.6852C148.351 62.5252 148.321 62.3694 148.271 62.2178C148.229 62.0662 148.157 61.9315 148.056 61.8136C147.963 61.6957 147.841 61.5989 147.69 61.5231C147.547 61.4473 147.365 61.4094 147.147 61.4094C146.936 61.4094 146.755 61.4473 146.603 61.5231C146.452 61.5904 146.325 61.6831 146.224 61.801C146.123 61.9189 146.043 62.0578 145.984 62.2178C145.934 62.3694 145.896 62.5252 145.871 62.6852H148.359ZM153.538 65.3252C153.883 65.3252 154.127 65.2915 154.271 65.2241C154.414 65.1568 154.485 65.0262 154.485 64.8325C154.485 64.681 154.393 64.5504 154.207 64.441C154.022 64.3231 153.74 64.1925 153.361 64.0494C153.066 63.9399 152.797 63.8262 152.553 63.7083C152.317 63.5904 152.115 63.4515 151.946 63.2915C151.778 63.1231 151.647 62.9252 151.555 62.6978C151.462 62.4704 151.416 62.1968 151.416 61.8768C151.416 61.2536 151.647 60.761 152.111 60.3989C152.574 60.0368 153.209 59.8557 154.018 59.8557C154.422 59.8557 154.809 59.8936 155.18 59.9694C155.551 60.0368 155.845 60.1125 156.064 60.1968L155.736 61.662C155.517 61.5862 155.277 61.5189 155.016 61.4599C154.763 61.401 154.477 61.3715 154.157 61.3715C153.567 61.3715 153.273 61.5357 153.273 61.8641C153.273 61.9399 153.285 62.0073 153.311 62.0662C153.336 62.1252 153.386 62.1841 153.462 62.2431C153.538 62.2936 153.639 62.3525 153.765 62.4199C153.9 62.4789 154.068 62.5462 154.271 62.622C154.683 62.7736 155.024 62.9252 155.294 63.0768C155.563 63.2199 155.774 63.3799 155.925 63.5568C156.085 63.7252 156.195 63.9147 156.254 64.1252C156.321 64.3357 156.355 64.5799 156.355 64.8578C156.355 65.5147 156.106 66.0115 155.609 66.3483C155.121 66.6852 154.426 66.8536 153.525 66.8536C152.936 66.8536 152.443 66.8031 152.047 66.702C151.66 66.601 151.391 66.5168 151.239 66.4494L151.555 64.921C151.875 65.0473 152.203 65.1483 152.54 65.2241C152.877 65.2915 153.209 65.3252 153.538 65.3252ZM159.669 65.3252C160.014 65.3252 160.258 65.2915 160.401 65.2241C160.544 65.1568 160.616 65.0262 160.616 64.8325C160.616 64.681 160.523 64.5504 160.338 64.441C160.153 64.3231 159.871 64.1925 159.492 64.0494C159.197 63.9399 158.928 63.8262 158.683 63.7083C158.448 63.5904 158.245 63.4515 158.077 63.2915C157.909 63.1231 157.778 62.9252 157.685 62.6978C157.593 62.4704 157.547 62.1968 157.547 61.8768C157.547 61.2536 157.778 60.761 158.241 60.3989C158.704 60.0368 159.34 59.8557 160.149 59.8557C160.553 59.8557 160.94 59.8936 161.311 59.9694C161.681 60.0368 161.976 60.1125 162.195 60.1968L161.867 61.662C161.648 61.5862 161.408 61.5189 161.147 61.4599C160.894 61.401 160.608 61.3715 160.288 61.3715C159.698 61.3715 159.403 61.5357 159.403 61.8641C159.403 61.9399 159.416 62.0073 159.441 62.0662C159.467 62.1252 159.517 62.1841 159.593 62.2431C159.669 62.2936 159.77 62.3525 159.896 62.4199C160.031 62.4789 160.199 62.5462 160.401 62.622C160.814 62.7736 161.155 62.9252 161.424 63.0768C161.694 63.2199 161.904 63.3799 162.056 63.5568C162.216 63.7252 162.325 63.9147 162.384 64.1252C162.452 64.3357 162.485 64.5799 162.485 64.8578C162.485 65.5147 162.237 66.0115 161.74 66.3483C161.252 66.6852 160.557 66.8536 159.656 66.8536C159.067 66.8536 158.574 66.8031 158.178 66.702C157.791 66.601 157.521 66.5168 157.37 66.4494L157.685 64.921C158.005 65.0473 158.334 65.1483 158.671 65.2241C159.008 65.2915 159.34 65.3252 159.669 65.3252ZM165.736 65.6789C165.736 66.0578 165.614 66.3483 165.37 66.5504C165.134 66.7441 164.865 66.841 164.561 66.841C164.258 66.841 163.985 66.7441 163.74 66.5504C163.505 66.3483 163.387 66.0578 163.387 65.6789C163.387 65.2999 163.505 65.0136 163.74 64.8199C163.985 64.6178 164.258 64.5168 164.561 64.5168C164.865 64.5168 165.134 64.6178 165.37 64.8199C165.614 65.0136 165.736 65.2999 165.736 65.6789Z" fill="#6C7B8E"/>
<defs>
<linearGradient id="paint0_linear_1784_5115" x1="15.9659" y1="54.1385" x2="43.4924" y2="42.0514" gradientUnits="userSpaceOnUse">
<stop stop-color="#1CBEC1"/>
<stop offset="1" stop-color="#0A2342"/>
</linearGradient>
<clipPath id="clip0_1784_5115">
<rect width="180" height="42.406" fill="white" transform="translate(0 0.388428)"/>
</clipPath>
</defs>
</svg>
