<svg width="440" height="560" viewBox="0 0 440 560" fill="none" xmlns="http://www.w3.org/2000/svg">
<g clip-path="url(#clip0_13513_2638)">
<path d="M0 568V396.503V0H440V568H0Z" fill="url(#paint0_radial_13513_2638)"/>
<path fill-rule="evenodd" clip-rule="evenodd" d="M416.675 325.257C404.688 364.973 363.605 492.403 219.063 486.631V563H0V0L440 0V138.53C435.615 217.777 422.945 304.483 416.675 325.257Z" fill="url(#paint1_radial_13513_2638)"/>
<path d="M0 561V296C16 318.707 82 487.191 218 487.191V561H0Z" fill="#1B4D7E"/>
<path d="M221.683 487C311.641 487 326.787 560.011 440 560.011V589H0V560.011C91.0292 560.011 131.725 487 221.683 487Z" fill="#F9FAFB"/>
<g filter="url(#filter0_dd_13513_2638)">
<rect x="194" y="461" width="52" height="52" rx="16" fill="#2466A8" shape-rendering="crispEdges"/>
<path d="M228.4 479.857V488.228C228.4 488.891 227.863 489.428 227.2 489.428H212.8C212.137 489.428 211.6 488.891 211.6 488.228V473.753C211.6 473.09 212.13 472.553 212.792 472.553C216.494 472.553 227.619 472.553 229 472.553L227.444 469H211.6C209.612 469 208 470.605 208 472.593C208 477.037 208.001 484.6 208 489.393C208 491.379 209.6 492.985 211.586 492.988C216.038 492.995 223.629 493.005 228.441 492.996C230.415 492.993 232 491.39 232 489.416V475.686C231.55 476.698 231.1 477.29 228.4 479.857Z" fill="#EAF2FB"/>
<path d="M211.6 475.217C211.6 474.645 211.6 474.153 211.6 473.753C211.6 473.09 212.136 472.553 212.799 472.553C216.038 472.553 224.969 472.553 228.7 472.553C228.7 472.553 221.95 469.888 212.155 469H211.622C209.633 469 208.022 470.612 208.022 472.6V475.217H211.6Z" fill="url(#paint2_linear_13513_2638)"/>
<path fill-rule="evenodd" clip-rule="evenodd" d="M231.582 471.549C230.934 470.128 229 469 227.5 469C226 469 211.6 469 211.6 469C221.5 470.184 228.55 472.553 228.55 472.553C229.008 472.682 229.145 473.264 228.794 473.584L228.161 474.161L221.478 480.845C221.366 480.957 221.185 480.962 221.066 480.856L219.485 479.439C219.43 479.39 219.359 479.362 219.285 479.362H215.065C214.792 479.362 214.661 479.692 214.865 479.873C216.535 481.362 220.155 484.469 221.066 485.25C221.187 485.354 221.363 485.343 221.474 485.23C224.251 482.393 227.763 479.313 230.513 476.496C231.895 475.08 232.455 473.465 231.582 471.549Z" fill="#EAF2FB"/>
<path d="M206.222 504.887H204.422V497H209.974V498.578H206.222V500.437H209.173V502.014H206.222V504.887Z" fill="#EAF2FB"/>
<path d="M213.275 504.887C212.828 504.962 212.403 505 212 505C211.596 505 211.258 504.846 210.984 504.538C210.711 504.23 210.574 503.821 210.574 503.31V497H212.325V503.028C212.325 503.141 212.358 503.235 212.425 503.31C212.491 503.385 212.575 503.423 212.675 503.423H213.275V504.887Z" fill="#EAF2FB"/>
<path d="M216.173 499.141V504.887H214.422V500.662H213.672V499.141H216.173Z" fill="#EAF2FB"/>
<path d="M221.876 504.775C220.629 504.925 219.528 505 218.575 505C218.121 505 217.758 504.846 217.484 504.538C217.211 504.23 217.074 503.821 217.074 503.31V500.718C217.074 500.155 217.216 499.714 217.499 499.395C217.783 499.075 218.175 498.916 218.675 498.916H221.876V500.437H219.225C218.958 500.437 218.825 500.587 218.825 500.888V503.085C218.825 503.197 218.858 503.291 218.925 503.367C218.991 503.442 219.075 503.479 219.175 503.479C219.775 503.479 220.675 503.423 221.876 503.31L221.876 504.775Z" fill="#EAF2FB"/>
<path d="M224.43 502.521V504.887H222.68V497H224.43V501H225.231L226.331 498.916H228.181L226.681 501.789L228.181 504.888H226.331L225.18 502.521H224.43V502.521Z" fill="#EAF2FB"/>
<path d="M230.88 499.141V504.887H229.129V500.662H228.379V499.141H230.88Z" fill="#EAF2FB"/>
<path d="M235.579 504.887C234.933 504.962 234.299 505 233.679 505C233.225 505 232.862 504.846 232.588 504.538C232.315 504.23 232.178 503.821 232.178 503.31V500.437H231.578V498.916H232.178L232.378 497.563H233.929V498.916H235.179V500.437H233.929V503.028C233.929 503.141 233.962 503.235 234.029 503.31C234.096 503.385 234.179 503.423 234.279 503.423H235.579V504.887Z" fill="#EAF2FB"/>
<path d="M216.153 497.024H214.402V498.602H216.153V497.024Z" fill="#E61A5E"/>
<path d="M230.895 497.024H229.145V498.602H230.895V497.024Z" fill="#FF9100"/>
</g>
</g>
<defs>
<filter id="filter0_dd_13513_2638" x="130" y="413" width="180" height="180" filterUnits="userSpaceOnUse" color-interpolation-filters="sRGB">
<feFlood flood-opacity="0" result="BackgroundImageFix"/>
<feColorMatrix in="SourceAlpha" type="matrix" values="0 0 0 0 0 0 0 0 0 0 0 0 0 0 0 0 0 0 127 0" result="hardAlpha"/>
<feOffset dy="16"/>
<feGaussianBlur stdDeviation="32"/>
<feComposite in2="hardAlpha" operator="out"/>
<feColorMatrix type="matrix" values="0 0 0 0 0.105 0 0 0 0 0.3 0 0 0 0 0.495 0 0 0 0.25 0"/>
<feBlend mode="normal" in2="BackgroundImageFix" result="effect1_dropShadow_13513_2638"/>
<feColorMatrix in="SourceAlpha" type="matrix" values="0 0 0 0 0 0 0 0 0 0 0 0 0 0 0 0 0 0 127 0" result="hardAlpha"/>
<feOffset/>
<feGaussianBlur stdDeviation="8"/>
<feComposite in2="hardAlpha" operator="out"/>
<feColorMatrix type="matrix" values="0 0 0 0 1 0 0 0 0 1 0 0 0 0 1 0 0 0 0.25 0"/>
<feBlend mode="normal" in2="effect1_dropShadow_13513_2638" result="effect2_dropShadow_13513_2638"/>
<feBlend mode="normal" in="SourceGraphic" in2="effect2_dropShadow_13513_2638" result="shape"/>
</filter>
<radialGradient id="paint0_radial_13513_2638" cx="0" cy="0" r="1" gradientUnits="userSpaceOnUse" gradientTransform="translate(11.7251 399.827) rotate(-62.4649) scale(450.527 360.951)">
<stop stop-color="#EAF2FB"/>
<stop offset="1" stop-color="#D5E6F6"/>
</radialGradient>
<radialGradient id="paint1_radial_13513_2638" cx="0" cy="0" r="1" gradientUnits="userSpaceOnUse" gradientTransform="translate(299.028 440.468) rotate(-100.854) scale(448.492 325.538)">
<stop stop-color="#2D80D2"/>
<stop offset="1" stop-color="#2466A8"/>
</radialGradient>
<linearGradient id="paint2_linear_13513_2638" x1="217.101" y1="499.42" x2="232.755" y2="492.497" gradientUnits="userSpaceOnUse">
<stop offset="0.35" stop-color="#EAF2FB"/>
<stop offset="1" stop-color="#1B4D7E"/>
</linearGradient>
<clipPath id="clip0_13513_2638">
<rect width="440" height="560" fill="white"/>
</clipPath>
</defs>
</svg>
