<svg width="390" height="79" viewBox="0 0 390 79" fill="none" xmlns="http://www.w3.org/2000/svg">
<g opacity="0.4">
<path d="M-67.9463 121.882L-69.5006 121.533C-65.5673 71.2423 -41.9991 24.9119 -3.14098 -8.91602C35.7147 -42.7593 85.84 -60.5693 137.959 -59.1088C173.374 -58.1113 209.548 -49.138 244.515 -40.469C260.874 -36.4081 277.795 -32.2104 294.423 -28.8881C359.535 -15.872 408.913 -21.429 441.17 -45.4324C466.329 -64.1447 480.278 -93.495 493.777 -121.876C505.326 -146.147 517.267 -171.265 536.213 -190.068C558.69 -212.37 591.301 -225.077 625.533 -225.014C675.527 -224.885 724.242 -199.359 771.342 -174.674C811.736 -153.507 853.495 -131.621 896.405 -125.325C944.095 -118.319 995.248 -131.167 1040.46 -161.538C1081.35 -189.007 1113.46 -226.537 1144.51 -262.835L1145.77 -261.747C1114.66 -225.387 1082.5 -187.796 1041.47 -160.234C995.992 -129.678 944.467 -116.737 896.413 -123.803C853.2 -130.16 811.307 -152.107 770.777 -173.351C723.864 -197.928 675.367 -223.347 625.775 -223.477C625.543 -223.476 625.296 -223.476 625.064 -223.475C591.397 -223.386 559.493 -210.804 537.416 -188.903C518.618 -170.239 506.72 -145.244 495.221 -121.049C481.667 -92.5302 467.644 -63.0568 442.238 -44.1441C409.664 -19.8938 359.897 -14.259 294.354 -27.3662C277.691 -30.7038 260.74 -34.9014 244.366 -38.9621C209.478 -47.616 173.386 -56.5588 138.157 -57.5568C30.6851 -60.5922 -59.8343 18.2418 -67.9439 121.898L-67.9463 121.882Z" fill="url(#paint0_linear_1827_5583)"/>
<path d="M-66.9832 121.91L-68.4911 121.561C-59.474 19.5474 30.719 -57.6256 136.81 -54.0332C171.604 -52.7573 207.056 -43.6592 241.349 -34.85C258.31 -30.4987 275.869 -25.98 293.129 -22.4749C337.797 -13.3551 399.969 -8.90834 442.52 -39.5026C467.684 -57.6922 482.406 -85.861 496.627 -113.091C509.175 -137.103 522.137 -161.917 542.256 -180.047C565.424 -200.906 599.387 -212.186 635.48 -211.006C683.789 -209.397 730.756 -184.773 776.172 -160.96C816.131 -140.007 857.47 -118.336 900.073 -111.931C958.753 -102.956 1011.23 -125.645 1044.92 -146.255C1085.92 -171.358 1119.15 -203.372 1152.38 -236.724L1153.52 -235.605C1120.24 -202.207 1086.95 -170.131 1045.85 -144.966C1011.97 -124.233 959.18 -101.42 900.07 -110.471C857.198 -116.921 815.726 -138.654 775.631 -159.683C730.383 -183.404 683.602 -207.936 635.666 -209.531C599.926 -210.727 566.301 -199.555 543.38 -178.897C523.422 -160.921 510.507 -136.2 498.007 -112.28C483.712 -84.9268 468.932 -56.6349 443.532 -38.2756C400.592 -7.40357 338 -11.8645 293.06 -21.0451C275.751 -24.5654 258.194 -29.0689 241.201 -33.4355C207.005 -42.2142 171.633 -51.2971 137.009 -52.5734C31.5966 -56.0755 -58.0061 20.5273 -66.9725 121.88L-66.9832 121.91Z" fill="url(#paint1_linear_1827_5583)"/>
<path d="M-66.0081 121.923L-67.4542 121.573C-57.5466 21.5867 31.6777 -53.2935 135.675 -48.9576C169.891 -47.5265 204.692 -38.2422 238.334 -29.2469C255.855 -24.5742 273.975 -19.7341 291.82 -16.0462C336.453 -6.7571 399.052 -2.25008 443.842 -33.5421C469.078 -51.1785 484.533 -78.2271 499.477 -104.398C513.015 -128.106 527.031 -152.614 548.254 -170.01C572.454 -189.811 606.933 -199.386 645.369 -196.967C692.016 -194.032 737.32 -170.249 781.138 -147.262C820.628 -126.539 861.465 -105.111 903.682 -98.506C948.829 -91.4471 997.83 -102.352 1049.32 -130.941C1094.22 -155.87 1130.08 -185.125 1160.2 -210.567L1161.24 -209.432C1131.09 -183.944 1095.16 -154.658 1050.17 -129.668C998.425 -100.924 949.123 -89.9723 903.657 -97.0918C861.186 -103.743 820.216 -125.231 780.605 -146.031C736.938 -168.942 691.804 -192.633 645.483 -195.553C607.389 -197.958 573.22 -188.475 549.267 -168.875C528.192 -151.618 514.24 -127.202 500.749 -103.587C485.742 -77.3234 470.229 -50.1516 444.77 -32.3609C399.619 -0.806686 336.6 -5.32799 291.695 -14.6778C273.804 -18.3656 255.669 -23.2057 238.114 -27.8936C204.554 -36.8584 169.835 -46.1122 135.789 -47.5438C32.4229 -51.8967 -56.2201 22.5516 -66.0544 121.923L-66.0081 121.923Z" fill="url(#paint2_linear_1827_5583)"/>
<path d="M-65.0321 121.936L-66.4165 121.586C-55.6381 23.7952 32.6184 -48.8843 134.554 -43.8974C168.247 -42.2497 202.441 -32.7946 235.505 -23.644C253.523 -18.6653 272.157 -13.5037 290.554 -9.64815C353.492 3.6966 408.414 -2.67444 445.223 -27.6122C470.466 -44.7107 486.638 -70.639 502.266 -95.7051C516.857 -119.108 531.956 -143.312 554.331 -159.973C579.228 -178.484 615.088 -186.649 655.336 -182.929C700.24 -178.79 743.835 -155.848 786.014 -133.656C825.091 -113.1 865.5 -91.8411 907.372 -85.0656C951.494 -77.9426 998.041 -87.6424 1053.82 -115.612C1102.35 -139.936 1140.4 -165.153 1168.13 -184.411L1169.04 -183.245C1141.28 -163.972 1103.19 -138.724 1054.6 -114.354C998.58 -86.2757 951.793 -76.5293 907.371 -83.6976C865.246 -90.5031 824.72 -111.824 785.525 -132.44C743.497 -154.556 700.038 -177.421 655.447 -181.53C615.529 -185.221 579.966 -177.134 555.302 -158.807C533.076 -142.285 518.057 -118.159 503.514 -94.8476C487.826 -69.6737 471.591 -43.653 446.153 -26.4157C409.064 -1.29275 353.783 5.15606 290.491 -8.27996C272.063 -12.1354 253.398 -17.2969 235.347 -22.2909C202.365 -31.411 168.266 -40.8509 134.73 -42.4836C33.4659 -47.4262 -54.2913 24.7908 -64.994 121.982L-65.0321 121.936Z" fill="url(#paint3_linear_1827_5583)"/>
<path d="M-64.0714 121.949L-65.4094 121.599C-53.7708 26.0344 33.5641 -44.4444 133.387 -38.8371C166.604 -36.9729 200.222 -27.3473 232.741 -18.0262C251.224 -12.7413 270.326 -7.25815 289.211 -3.25018C351.946 10.2795 407.815 3.73697 446.527 -21.6824C471.744 -38.2581 488.589 -63.0507 504.881 -87.0426C520.57 -110.141 536.784 -134.041 560.327 -149.951C593.163 -172.142 635.488 -172.516 665.221 -168.921C708.332 -163.701 750.238 -141.57 790.749 -120.157C829.436 -99.7233 869.424 -78.586 910.978 -71.6714C964.706 -62.7292 1015.56 -81.1406 1058.22 -100.314C1104.3 -121.034 1141.72 -139.456 1175.94 -158.284L1176.73 -157.118C1142.47 -138.274 1105.04 -119.852 1058.92 -99.1171C1016.1 -79.8508 965.009 -61.3926 910.949 -70.38C869.156 -77.3401 829.052 -98.5233 790.263 -119.018C749.873 -140.354 708.1 -162.425 665.256 -167.614C635.744 -171.179 593.723 -170.837 561.199 -148.831C537.824 -133.029 521.673 -109.222 506.033 -86.2002C489.692 -62.1314 472.786 -37.2309 447.385 -20.5471C408.409 5.0574 352.21 11.6624 289.12 -1.95868C270.187 -5.98192 251.054 -11.4649 232.553 -16.7652C200.116 -26.0558 166.578 -35.6663 133.518 -37.5155C34.2938 -43.0475 -52.511 26.9688 -64.0714 121.949Z" fill="url(#paint4_linear_1827_5583)"/>
<path d="M-63.0931 121.977L-64.3693 121.627C-51.8682 28.3044 34.5062 -39.9278 132.256 -33.7462C165.043 -31.6657 198.131 -21.8695 230.151 -12.378C249.054 -6.78676 268.59 -0.997374 287.934 3.17851C349.523 16.6958 407.827 9.80864 447.881 -15.7219C473.044 -31.7595 490.527 -55.447 507.438 -78.3492C524.257 -101.143 541.665 -124.723 566.377 -139.884C593.133 -156.31 630.746 -161.482 675.161 -154.852C716.458 -148.689 756.65 -127.337 795.527 -106.674C833.814 -86.3311 873.416 -65.2849 914.639 -58.2157C967.141 -49.2088 1016.55 -66.4943 1062.67 -84.97C1085.43 -94.0841 1105.87 -101.87 1125.65 -109.393C1146.2 -117.21 1165.61 -124.609 1183.83 -132.097L1184.47 -130.915C1166.23 -123.412 1146.82 -116.028 1126.26 -108.196C1106.48 -100.673 1086.03 -92.8867 1063.29 -83.7727C1017.02 -65.2351 967.424 -47.903 914.605 -56.9551C873.143 -64.0699 833.441 -85.1619 795.052 -105.566C756.295 -126.153 716.219 -147.459 675.161 -153.576C631.031 -160.161 593.704 -155.035 567.174 -138.748C542.632 -123.681 525.288 -100.193 508.533 -77.4759C491.573 -54.4968 474.04 -30.7322 448.709 -14.5866C408.401 11.0983 349.767 18.0479 287.857 4.45455C268.466 0.278774 248.896 -5.52593 229.976 -11.1325C198.038 -20.5935 165.014 -30.3744 132.399 -32.44C35.2262 -38.5924 -50.6368 29.2541 -63.0704 122.023L-63.0931 121.977Z" fill="url(#paint5_linear_1827_5583)"/>
<path d="M-62.1172 121.99L-63.3316 121.639C-49.963 30.5897 35.4589 -35.4418 131.135 -28.686C163.662 -26.3897 196.447 -16.3621 228.13 -6.65444C247.259 -0.802511 267.037 5.24753 286.637 9.57649C348.112 23.1556 407.376 16.0813 449.229 -9.80747C474.29 -25.3068 492.367 -47.8738 509.848 -69.7015C528.702 -93.2236 546.492 -115.452 572.402 -129.877C600.372 -145.461 638.279 -149.159 685.075 -140.859C724.54 -133.862 763.019 -113.274 800.236 -93.3437C838.144 -73.0462 877.363 -52.0759 918.273 -44.8368C970.659 -35.5837 1020.77 -53.3014 1064.97 -68.9437L1067.1 -69.6872C1103.27 -82.4798 1135.2 -90.9111 1163.37 -98.3641C1173.22 -100.973 1182.55 -103.426 1191.7 -105.987L1192.19 -104.82C1183.04 -102.274 1173.72 -99.8056 1163.85 -97.1971C1135.69 -89.7596 1103.79 -81.3283 1067.66 -68.5512L1065.54 -67.8077C1021.2 -52.1189 970.93 -34.3547 918.243 -43.6532C877.096 -50.9224 837.79 -71.954 799.779 -92.3126C762.665 -112.182 724.27 -132.724 685.029 -139.675C638.503 -147.929 600.854 -144.264 573.112 -128.803C547.373 -114.47 529.633 -92.3192 510.847 -68.8587C493.313 -46.9694 475.184 -24.3407 449.967 -8.74875C407.876 17.2944 348.308 24.4001 286.529 10.7603C266.88 6.41614 247.071 0.366219 227.909 -5.50098C196.293 -15.1781 163.588 -25.1905 131.202 -27.4718C36.0741 -34.183 -48.852 31.4629 -62.1327 121.99L-62.1172 121.99Z" fill="url(#paint6_linear_1827_5583)"/>
<path d="M-61.1413 122.002L-62.2939 121.652C-48.0734 32.8751 36.3879 -30.9097 129.998 -23.6257C162.142 -21.1131 194.461 -10.8999 225.708 -1.02203C245.194 5.13638 265.347 11.5083 285.342 15.9898C346.512 29.6927 406.741 22.4623 450.565 -3.86218C475.48 -18.8231 494.103 -40.2695 512.097 -61.0071C532.25 -84.2253 551.278 -106.149 578.417 -119.84C607.287 -134.412 646.504 -136.76 694.977 -126.836C732.606 -119.127 769.378 -99.2721 804.936 -80.0598C842.469 -59.7921 881.302 -38.8208 921.911 -31.4271C970.35 -22.6093 1017.45 -37.4139 1059.02 -50.4821C1063.23 -51.7999 1067.4 -53.1175 1071.53 -54.3889C1113.97 -67.4902 1150.52 -72.7365 1182.76 -77.3719C1188.48 -78.1864 1194.08 -79.0005 1199.58 -79.8298L1199.93 -78.6933C1194.43 -77.864 1188.82 -77.0652 1183.11 -76.2354C1150.9 -71.6001 1114.41 -66.3539 1072.04 -53.2835C1067.91 -52.0121 1063.74 -50.7099 1059.55 -49.3768C1017.86 -36.2775 970.628 -21.4264 921.887 -30.3049C881.072 -37.7288 842.154 -58.746 804.504 -79.0749C769.033 -98.2259 732.343 -118.05 694.906 -125.713C646.703 -135.592 607.729 -133.276 579.073 -118.812C552.108 -105.198 533.132 -83.336 513.044 -60.1949C494.998 -39.3956 476.32 -17.9031 451.279 -2.86494C407.213 23.5985 346.698 30.8758 285.238 17.0969C265.179 12.6 245.01 6.22822 225.493 0.069875C194.313 -9.77742 162.074 -19.9755 130.056 -22.473C36.9863 -29.7584 -47.0159 33.7023 -61.1592 121.987L-61.1413 122.002Z" fill="url(#paint7_linear_1827_5583)"/>
<path d="M-60.1814 122.015L-61.2852 121.68C-54.005 79.8966 -30.5806 42.482 4.65986 16.3187C40.1104 -9.98364 84.195 -22.3669 128.835 -18.5347C160.627 -15.806 192.509 -5.42253 223.336 4.64091C243.149 11.1059 263.644 17.7843 284.019 22.4185C344.853 36.2453 406.028 28.8433 451.889 2.09841C476.596 -12.3086 495.69 -32.6341 514.164 -52.2817C535.694 -75.196 556.019 -96.8314 584.433 -109.788C614.735 -123.61 654.136 -124.591 704.882 -112.797C740.658 -104.484 775.728 -85.3317 809.645 -66.8221C846.809 -46.5381 885.243 -25.5503 925.568 -18.0022C970.862 -9.51428 1013.58 -21.5557 1054.87 -33.209C1062.15 -35.2727 1069.04 -37.2124 1075.98 -39.0446C1122.87 -51.4814 1162.58 -52.4935 1197.6 -53.3703C1200.93 -53.456 1204.21 -53.5416 1207.46 -53.627L1207.66 -52.5362C1204.41 -52.4507 1201.13 -52.3651 1197.81 -52.2794C1162.82 -51.4028 1123.2 -50.3909 1076.41 -37.9851C1069.48 -36.153 1062.6 -34.1979 1055.32 -32.1496C1013.9 -20.4651 971.085 -8.3927 925.523 -16.9107C885.006 -24.5044 846.49 -45.5227 809.223 -65.868C775.39 -84.3316 740.405 -103.438 704.79 -111.706C654.287 -123.438 615.113 -122.489 585.028 -108.76C556.787 -95.8804 536.514 -74.3067 515.036 -51.4539C496.523 -31.7602 477.39 -11.3884 452.569 3.08043C406.495 29.9488 345.031 37.3824 283.941 23.4948C263.502 18.8453 242.991 12.1669 223.145 5.68665C192.385 -4.34624 160.567 -14.7145 128.916 -17.4283C37.8815 -25.2416 -45.1683 36.0185 -60.1766 122.046L-60.1814 122.015Z" fill="url(#paint8_linear_1827_5583)"/>
<path d="M-59.2055 122.028L-60.2475 121.693C-52.5355 80.9841 -29.1357 44.6915 5.65443 19.4978C40.6676 -5.85025 84.0087 -17.5552 127.699 -13.4746C159.153 -10.5297 190.616 0.0393087 221.053 10.2729C241.192 17.0444 261.998 24.0294 282.737 28.8164C343.184 42.7364 405.321 35.1628 453.238 8.02825C477.68 -5.80935 497.184 -24.9985 516.03 -43.5557C539.015 -66.1665 560.728 -87.5288 590.463 -99.7511C621.897 -112.67 662.569 -112.347 714.8 -98.774C748.74 -89.9485 782.089 -71.5143 814.355 -53.6767C851.14 -33.3455 889.195 -12.3107 929.206 -4.59265C971.944 3.65615 1012.65 -6.73517 1052 -16.7848C1061.82 -19.2856 1071.09 -21.662 1080.41 -23.7465C1131.06 -35.0865 1173.36 -31.2636 1210.68 -27.8885L1215.32 -27.4704L1215.39 -26.4253L1210.75 -26.8434C1173.5 -30.2032 1131.29 -34.0265 1080.79 -22.7176C1071.49 -20.6332 1062.21 -18.2721 1052.4 -15.7714C1012.95 -5.69073 972.141 4.71629 929.165 -3.57801C888.963 -11.3263 850.824 -32.407 813.954 -52.7841C781.758 -70.5757 748.475 -88.9794 714.681 -97.7592C662.689 -111.287 622.233 -111.61 590.988 -98.7687C561.414 -86.6084 539.753 -65.3076 516.838 -42.7431C497.95 -24.1551 478.42 -4.93517 453.865 8.96419C405.75 36.2223 343.324 43.8275 282.636 29.8466C261.851 25.0597 240.994 18.0441 220.839 11.2726C190.469 1.06954 159.07 -9.48429 127.757 -12.4141C38.7772 -20.7248 -43.3665 38.3348 -59.2007 122.059L-59.2055 122.028Z" fill="url(#paint9_linear_1827_5583)"/>
<path d="M-58.2272 122.056L-59.2074 121.721C-51.0791 82.0868 -27.6883 46.9165 6.65143 22.6923C41.2142 -1.68613 83.8094 -12.7281 126.565 -8.39901C157.698 -5.23818 188.757 5.51636 218.803 15.9201C239.238 22.9983 260.357 30.3052 281.427 35.2297C341.44 49.2432 404.555 41.4978 454.575 13.9733C478.673 0.705416 498.482 -17.3317 517.644 -34.7675C542.171 -57.1057 565.331 -78.2106 596.48 -89.6988C629.205 -101.775 671.149 -100.149 724.705 -84.7354C756.825 -75.4901 788.474 -57.7431 819.089 -40.5775C855.5 -20.1685 893.134 0.944384 932.847 8.8323C973.452 16.8869 1012.43 7.83744 1050.12 -0.901163C1062.13 -3.68448 1073.46 -6.31231 1084.83 -8.41759C1138.89 -18.3832 1183.52 -9.3247 1222.88 -1.34367L1223.18 -1.28293L1223.13 -0.31437L1222.83 -0.375073C1183.55 -8.34097 1139.05 -17.3845 1085.15 -7.45001C1073.81 -5.36018 1062.48 -2.73234 1050.49 0.0509103C1012.7 8.82053 973.612 17.901 932.796 9.78548C892.908 1.8673 855.174 -19.2914 818.694 -39.7463C788.146 -56.8814 756.548 -74.5978 724.574 -83.7974C671.229 -99.1505 629.486 -100.777 596.964 -88.7778C565.976 -77.3515 542.855 -56.2929 518.398 -34.001C499.211 -16.5343 479.378 1.54894 455.176 14.8479C404.957 42.4805 341.599 50.2573 281.36 36.183C260.226 31.2433 239.074 23.921 218.624 16.8428C188.642 6.45436 157.634 -4.26962 126.626 -7.41542C39.6527 -16.2388 -41.5208 40.6355 -58.2118 122.056L-58.2272 122.056Z" fill="url(#paint10_linear_1827_5583)"/>
<path d="M-57.2672 122.069L-58.1987 121.749C-49.654 83.1899 -26.2854 49.1572 7.60399 25.9026C41.7318 2.49367 83.5657 -7.88536 125.402 -3.3079C156.229 0.0689686 186.915 11.0089 216.586 21.5827C237.301 28.9676 258.703 36.5966 280.119 41.6586C339.665 55.7501 403.727 47.8331 455.898 19.934C479.581 7.2667 499.589 -9.60267 518.94 -25.9323C545.115 -48.0136 569.843 -68.8767 602.483 -79.631C636.637 -90.8811 679.865 -87.9675 734.596 -70.6813C764.898 -61.1083 794.862 -44.0486 823.83 -27.5242C859.843 -6.99119 897.077 14.2303 936.475 22.2728C975.25 30.1939 1012.75 22.2551 1049.02 14.5809C1062.93 11.6389 1076.06 8.85253 1089.24 6.92693C1146.51 -1.43318 1195.35 13.8088 1231.01 24.9354L1230.86 25.8274C1195.29 14.7313 1146.56 -0.480324 1089.51 7.8485C1076.35 9.77404 1063.22 12.5449 1049.33 15.487C1012.98 23.1768 975.385 31.1466 936.401 23.1799C896.827 15.0918 859.508 -6.17557 823.428 -26.7392C794.514 -43.2176 764.614 -60.2622 734.412 -69.7893C679.878 -86.9991 636.848 -89.9286 602.873 -78.725C570.38 -68.0173 545.707 -47.2005 519.601 -25.1655C500.222 -8.82044 480.175 8.09515 456.42 20.7934C404.062 48.7852 339.755 56.7182 280.001 42.5812C258.536 37.504 237.101 29.8597 216.356 22.4749C186.733 11.9163 156.113 1.00692 125.412 -2.35491C40.4827 -11.6447 -39.7716 43.0135 -57.3063 122.115L-57.2672 122.069Z" fill="url(#paint11_linear_1827_5583)"/>
<path d="M-56.2913 122.082L-57.161 121.761C-48.1976 84.2927 -24.8534 51.3821 8.60095 29.0971C42.2784 6.65777 83.3663 -3.05824 124.265 1.75223C154.786 5.34513 185.113 16.4551 214.427 27.2143C235.406 34.9059 257.09 42.857 278.806 48.0565C338.702 62.4084 402.058 54.524 457.233 25.8638C480.396 13.8281 500.493 -1.88864 519.927 -17.0964C547.869 -38.9518 574.256 -59.5887 608.495 -69.6094C644.271 -80.0799 688.757 -75.8477 744.509 -56.6889C773.04 -46.8807 801.296 -30.462 828.63 -14.5942C864.214 6.06288 901.024 27.4393 940.124 35.6516C977.34 43.4846 1013.55 36.4715 1048.56 29.6922C1064.15 26.6688 1078.88 23.8322 1093.68 22.2097C1149.25 16.1444 1195.87 33.16 1238.88 51.0921L1238.65 51.892C1195.76 34.0057 1149.25 17.0359 1093.93 23.0852C1079.15 24.6922 1064.45 27.5442 1048.87 30.5521C1013.77 37.3471 977.478 44.3604 940.072 36.4971C900.81 28.2391 863.933 6.83223 828.28 -13.8708C800.997 -29.708 772.777 -46.096 744.344 -55.8737C688.784 -74.9869 644.47 -79.2043 608.873 -68.7803C574.766 -58.8061 548.436 -38.2001 520.564 -16.391C501.101 -1.16782 480.976 14.5644 457.755 26.631C402.425 55.3839 338.84 63.2842 278.736 48.8868C256.956 43.6721 235.238 35.7057 214.241 27.9988C184.978 17.2702 154.716 6.17537 124.305 2.59756C40.0207 -7.30888 -37.632 44.0377 -56.2783 122.066L-56.2913 122.082Z" fill="url(#paint12_linear_1827_5583)"/>
<path d="M-55.3149 122.095L-56.1382 121.774C-46.7561 85.3956 -23.421 53.6071 9.58305 32.2917C42.8101 10.8221 83.1366 1.76899 123.129 6.8124C153.375 10.6212 183.329 21.9167 212.314 32.8459C233.542 40.8442 255.494 49.1174 277.527 54.4697C336.859 68.8693 401.162 60.8133 458.585 31.809C481.109 20.4205 501.16 5.88748 520.528 -8.16721C550.373 -29.8124 578.551 -50.2696 614.512 -59.557C652.108 -69.2638 697.866 -63.7284 754.415 -42.6503C781.195 -32.6683 807.784 -16.9216 833.49 -1.67975C868.637 19.1477 904.995 40.6943 943.766 49.0766C979.608 56.821 1014.68 50.6256 1048.59 44.6331C1065.69 41.6057 1081.83 38.75 1098.1 37.554C1156.25 33.2804 1205.28 55.8387 1246.71 77.3103L1246.41 78.0183C1205.09 56.6077 1156.19 34.0952 1098.29 38.3681C1082.07 39.564 1065.94 42.4197 1048.87 45.4316C1014.88 51.4397 979.74 57.666 943.721 49.8759C904.791 41.4633 868.38 19.8707 833.166 -0.987193C807.496 -16.1984 780.94 -31.9298 754.242 -41.8812C697.873 -62.8984 652.274 -68.4034 614.854 -58.7586C579.027 -49.5023 550.889 -29.0914 521.098 -7.4924C501.701 6.57777 481.64 21.1415 459.057 32.5455C401.46 61.6272 336.974 69.699 277.45 55.2539C255.37 49.9017 233.385 41.6133 212.139 33.5996C183.205 22.701 153.3 11.4208 123.164 7.62702C40.9087 -2.74591 -35.8128 46.4615 -55.3019 122.079L-55.3149 122.095Z" fill="url(#paint13_linear_1827_5583)"/>
<path d="M-54.3398 122.107L-55.0988 121.802C-34.7071 48.2879 41.4405 1.03407 121.994 11.888C151.967 15.9282 181.577 27.3937 210.233 38.4928C231.713 46.8133 253.916 55.4086 276.232 60.8832C334.964 75.2996 400.2 67.0875 459.937 37.7542C481.704 27.0595 501.523 13.7106 520.687 0.809324C552.583 -20.6722 582.702 -40.9655 620.544 -49.5047C660.163 -58.4329 707.193 -51.5943 764.332 -28.6271C789.396 -18.5483 814.323 -3.4427 838.431 11.1731C873.113 32.1862 908.977 53.9339 947.419 62.4862C982.066 70.2031 1016.13 64.6867 1049.07 59.3577C1067.52 56.3729 1084.93 53.5599 1102.53 52.8676C1163.09 50.4629 1212.76 77.7539 1254.54 103.498L1254.21 104.129C1212.55 78.4462 1163.06 51.247 1102.69 53.6358C1085.13 54.3279 1067.73 57.1409 1049.31 60.1257C1016.3 65.4702 982.174 70.9867 947.368 63.2396C908.797 54.6569 872.851 32.8786 838.116 11.8195C814.043 -2.76567 789.15 -17.8559 764.15 -27.9194C707.172 -50.841 660.286 -57.6492 620.829 -48.7676C583.107 -40.2594 553.029 -19.9971 521.19 1.45364C502.013 14.3703 482.181 27.7345 460.37 38.4448C400.491 67.8553 335.071 76.0833 276.162 61.6212C253.798 56.1313 231.562 47.5208 210.066 39.2003C181.462 28.1318 151.885 16.6816 122.022 12.6566C41.8027 1.86319 -34.0054 48.9163 -54.3243 122.107L-54.3398 122.107Z" fill="url(#paint14_linear_1827_5583)"/>
<path d="M1261.98 130.24C1220.72 100.928 1170.06 70.7194 1107.03 68.9035C1086.74 68.3117 1065.83 71.4874 1045.61 74.5385C1014.93 79.1851 983.212 83.9728 950.981 76.5877C912.771 67.8351 877.363 45.8401 843.119 24.5646C820.626 10.59 797.348 -3.85888 774.012 -13.9576C717.457 -38.4174 667.917 -46.7711 626.778 -38.7612C586.987 -31.0162 554.789 -10.8711 520.705 10.4625C501.932 22.2099 482.527 34.3587 461.635 44.3286C417.51 65.3968 349.275 86.5904 274.825 67.9577C252.071 62.3459 229.514 53.3673 207.7 44.6942C179.504 33.4709 150.338 21.8813 120.828 17.6401C42.6263 6.41097 -32.2661 51.3249 -53.3993 122.09L-54.0942 121.799C-32.8809 50.7578 42.3095 5.67395 120.825 16.933C150.427 21.1739 179.645 32.7942 207.874 44.0328C229.672 52.7059 252.196 61.6693 274.886 67.2658C349.128 85.8529 417.198 64.6906 461.222 43.6687C482.086 33.7143 501.476 21.5655 520.236 9.83353C554.36 -11.531 586.598 -31.7222 626.51 -39.483C667.786 -47.5086 717.483 -39.1399 774.186 -14.6191C797.587 -4.50516 820.885 9.97444 843.411 23.9642C877.586 45.1939 912.925 67.1429 951.009 75.8805C983.08 83.2353 1014.74 78.4478 1045.36 73.8167C1065.61 70.7502 1086.55 67.5743 1106.92 68.166C1135.26 68.9824 1163.01 75.5339 1191.78 88.2159C1213.68 97.8572 1236.08 111.033 1262.3 129.67L1261.94 130.225L1261.98 130.24Z" fill="url(#paint15_linear_1827_5583)"/>
<path d="M1269.78 156.351C1226.37 121.542 1173.62 85.7586 1111.44 84.171C1091.52 83.6704 1070.99 86.4302 1051.16 89.0958C1019.81 93.3138 987.408 97.6883 954.628 89.9511C916.793 81.0284 881.951 58.8014 848.258 37.2938C827.296 23.9147 805.632 10.0917 783.905 0.00417697C727.199 -26.2998 676.337 -35.9873 632.754 -28.7702C590.675 -21.8185 556.167 -1.71339 519.617 19.5653C501.477 30.1274 482.728 41.0448 462.934 50.2279C432.424 64.4043 401.84 73.8772 372.069 78.3985C337.891 83.5924 304.751 82.2199 273.538 74.3248C250.531 68.5754 227.755 59.2899 205.721 50.2946C177.822 38.9014 148.967 27.1265 119.686 22.6695C43.4926 11.0355 -30.4996 53.8104 -52.4056 122.118L-53.0517 121.843C-42.4264 88.7506 -19.1421 60.3746 12.5238 41.9526C44.3736 23.4225 82.4445 16.343 119.693 22.0239C149.054 26.496 177.945 38.3016 205.889 49.6946C227.89 58.6747 250.65 67.9602 273.609 73.6944C331.689 88.3893 397.048 80.0692 462.577 49.6292C482.34 40.4463 501.076 29.5443 519.201 18.9823C555.776 -2.32722 590.344 -22.4479 632.529 -29.4153C676.279 -36.6482 727.268 -26.9456 784.106 -0.580506C805.897 9.52228 827.583 23.376 848.559 36.755C882.199 58.2166 916.974 80.413 954.681 89.3054C987.315 96.9969 1019.68 92.6533 1050.97 88.4354C1070.82 85.7543 1091.38 82.9944 1111.35 83.4949C1173.74 85.0819 1226.63 120.957 1270.14 155.842L1269.77 156.32L1269.78 156.351Z" fill="url(#paint16_linear_1827_5583)"/>
<path d="M1277.57 182.462C1233.72 143.442 1180.22 103.065 1115.84 99.4386C1094.83 98.2492 1073.31 100.889 1052.51 103.434C1021.87 107.189 990.192 111.07 958.275 103.315C920.845 94.2218 886.629 71.7472 853.546 49.992C834.103 37.2238 814.003 24.0115 793.815 13.9814C738.002 -13.7238 684.378 -25.0488 638.732 -18.7639C594.099 -12.62 557.026 7.49184 517.773 28.7777C500.539 38.1231 482.707 47.7929 464.247 56.127C395.173 87.3143 330.564 95.5862 272.249 80.6767C248.988 74.7896 225.992 65.1819 203.77 55.8796C176.156 44.332 147.597 32.3719 118.558 27.6837C44.3453 15.6754 -28.7205 56.2806 -51.4148 122.13L-51.999 121.855C-40.9705 89.8535 -17.7059 62.6305 13.5251 45.178C44.9115 27.6329 82.2186 21.201 118.572 27.0841C147.69 31.7874 176.283 43.7629 203.946 55.3258C226.149 64.6128 249.115 74.2206 272.327 80.0924C330.511 94.9561 394.968 86.6999 463.944 55.5744C482.388 47.2404 500.207 37.586 517.441 28.2406C556.736 6.92387 593.853 -13.2034 638.576 -19.3629C684.328 -25.6635 738.109 -14.3235 794.042 13.4582C814.263 23.5036 834.397 36.7312 853.858 49.5147C886.902 71.2239 921.054 93.6832 958.368 102.73C990.157 110.455 1021.79 106.574 1052.36 102.835C1073.2 100.289 1094.75 97.6499 1115.82 98.8392C1180.42 102.48 1234.05 142.949 1277.99 182.061L1277.62 182.477L1277.57 182.462Z" fill="url(#paint17_linear_1827_5583)"/>
<path d="M1285.39 208.588C1243.68 167.902 1187.2 120.477 1120.23 114.706C1098.22 112.812 1075.76 115.301 1054.05 117.695C1024.06 121.017 993.038 124.451 961.922 116.678C924.947 107.43 891.398 84.6773 858.972 62.6745C840.995 50.4865 822.411 37.8697 803.711 27.9585C765.009 7.43263 706.021 -15.5912 644.711 -8.75752C597.208 -3.46683 557.275 16.7448 515.008 38.1309C498.987 46.2434 482.435 54.6186 465.546 62.0263C416.647 83.5067 371.807 94.2318 329.905 94.3429C309.602 94.3967 289.99 91.9585 270.947 87.044C247.435 81.0346 224.246 71.0892 201.804 61.4647C174.473 49.7472 146.198 37.6327 117.383 32.698C45.1523 20.3155 -27.0133 58.7816 -50.4721 122.128L-51.0076 121.868C-39.5734 90.9719 -16.3154 64.8864 14.4651 48.4035C45.3881 31.8434 81.9339 26.0745 117.389 32.1445C146.268 37.0944 174.576 49.2243 201.941 60.9571C224.35 70.5663 247.52 80.4964 270.986 86.5059C329.21 101.523 392.736 93.3463 465.234 61.5198C482.108 54.1121 498.66 45.737 514.666 37.6246C556.975 16.2076 596.935 -4.01948 644.528 -9.32579C706.007 -16.1753 765.112 6.90977 803.88 27.4662C822.616 37.408 841.217 50.0247 859.195 62.2281C891.586 84.2003 925.068 106.923 961.945 116.14C992.966 123.897 1023.93 120.464 1053.89 117.142C1075.63 114.732 1098.1 112.244 1120.17 114.138C1150.23 116.733 1179.88 127.445 1210.79 146.9C1241.27 166.08 1268.16 191.079 1285.74 208.218L1285.37 208.572L1285.39 208.588Z" fill="url(#paint18_linear_1827_5583)"/>
<path d="M1293.19 234.714C1251.03 190.125 1193.78 137.937 1124.61 129.974C1101.63 127.329 1078.31 129.651 1055.79 131.908C1026.39 134.845 995.968 137.877 965.553 130.042C929.064 120.639 896.278 97.6225 864.567 75.3565C848.009 63.7335 830.876 51.6969 813.588 41.9204C759.43 11.2749 701.559 -3.17458 650.656 1.23358C599.629 5.64207 554.286 27.1285 510.442 47.9193C496.243 54.6435 481.57 61.5996 466.831 67.9409C432.219 82.6663 401.112 92.156 371.758 96.9681C335.246 102.952 301.831 101.796 269.63 93.4113C245.864 87.2642 222.47 76.9966 199.856 67.0651C172.794 55.1932 144.817 42.9087 116.242 37.7274C44.8047 24.7895 -24.8891 60.2977 -49.4938 122.156L-49.9651 121.911C-38.1228 92.1363 -14.8869 67.1883 15.4563 51.6597C45.9029 36.0999 81.6979 30.9632 116.255 37.2201C144.908 42.4011 172.918 54.7009 199.998 66.5881C222.594 76.5043 245.972 86.772 269.689 92.9039C327.646 107.999 390.214 99.9166 466.569 67.4497C481.31 61.1237 495.982 54.1677 510.166 47.4435C554.055 26.6372 599.426 5.13535 650.53 0.726657C701.556 -3.6818 759.525 10.7981 813.768 41.4895C831.073 51.2813 848.222 63.3179 864.783 74.9563C896.442 97.1917 929.192 120.177 965.568 129.55C995.901 137.355 1026.26 134.339 1055.63 131.402C1078.2 129.144 1101.53 126.822 1124.56 129.467C1193.91 137.445 1251.28 189.725 1293.5 234.39L1293.16 234.698L1293.19 234.714Z" fill="url(#paint19_linear_1827_5583)"/>
<path d="M1301.01 260.84C1258.41 212.379 1200.35 155.443 1129.02 145.241C1105.11 141.815 1081.03 143.97 1057.72 146.06C1028.85 148.642 998.991 151.304 969.2 143.405C933.261 133.862 901.299 110.583 870.4 88.0685C855.193 76.9798 839.465 65.5236 823.517 55.9127C770.135 23.7126 710.867 7.85263 656.668 11.255C601.946 14.6742 552.886 36.5087 505.444 57.6164C493.264 63.0286 480.668 68.6419 468.164 73.8552C431.768 88.9388 401.116 98.2736 371.704 103.209C334.579 109.425 300.786 108.316 268.377 99.7936C244.373 93.5088 220.772 82.9036 197.97 72.6651C171.193 60.6388 143.486 48.1999 115.134 42.772C45.6678 29.4907 -23.1518 62.8908 -48.482 122.199L-48.9021 121.985C-23.5033 62.5228 45.4872 29.0301 115.146 42.3569C143.559 47.7847 171.285 60.2389 198.095 72.2805C220.897 82.519 244.464 93.1089 268.435 99.3784C342.749 118.918 414.097 95.7951 467.946 73.4561C480.451 68.2428 493.049 62.6449 505.226 57.2173C552.713 36.0941 601.804 14.2595 656.585 10.8248C710.877 7.42222 770.242 23.3127 823.724 55.5586C839.69 65.1849 855.436 76.6564 870.642 87.745C901.506 110.229 933.419 133.493 969.276 143.005C998.972 150.889 1028.8 148.227 1057.63 145.646C1080.95 143.555 1105.08 141.4 1129.03 144.826C1160.5 149.323 1191.42 162.999 1223.53 186.632C1248.24 204.812 1272.96 228.327 1301.35 260.608L1301.03 260.87L1301.01 260.84Z" fill="url(#paint20_linear_1827_5583)"/>
<path d="M1308.83 286.966C1269.12 238.728 1207.74 173.147 1133.42 160.509C1108.64 156.301 1083.8 158.258 1059.8 160.166C1031.41 162.424 1002.05 164.746 972.844 156.753C937.519 147.086 906.476 123.558 876.466 100.795C862.531 90.2261 848.108 79.3045 833.407 69.8592C780.985 36.1964 720.318 18.9105 662.623 21.2154C603.638 23.5699 550.347 45.9228 498.81 67.5333C489.197 71.5707 479.25 75.7473 469.439 79.7084C431.651 94.9802 400.565 104.408 371.591 109.373C333.884 115.822 299.681 114.759 267.049 106.099C242.792 99.677 219.016 88.7494 196.007 78.1734C169.499 65.9926 142.077 53.3993 113.949 47.7249C46.41 34.1157 -21.5045 65.4075 -47.5495 122.136L-47.9054 121.937C-35.2647 94.3883 -12.0706 71.7308 17.4027 58.1413C46.863 44.567 81.1614 40.7256 113.966 47.3406C142.14 53.0148 169.581 65.6236 196.121 77.8196C219.113 88.3804 242.87 99.2926 267.097 105.715C339.954 125.028 410.177 103.215 469.255 79.3246C479.05 75.3636 488.997 71.1869 498.611 67.1495C550.176 45.5236 603.495 23.1553 662.558 20.8006C691.207 19.664 720.641 23.3213 750.043 31.6976C779.462 40.074 807.57 52.8039 833.583 69.5052C848.299 78.9504 862.725 89.8874 876.662 100.472C906.637 123.204 937.629 146.702 972.871 156.338C1001.99 164.316 1031.32 161.978 1059.69 159.736C1083.72 157.828 1108.57 155.856 1133.41 160.078C1165.59 165.558 1197.12 180.707 1229.84 206.414C1255.29 226.406 1280.48 251.933 1309.11 286.704L1308.82 286.92L1308.83 286.966Z" fill="url(#paint21_linear_1827_5583)"/>
</g>
<defs>
<linearGradient id="paint0_linear_1827_5583" x1="546.638" y1="-261.25" x2="548.096" y2="288.982" gradientUnits="userSpaceOnUse">
<stop stop-color="white"/>
<stop offset="1" stop-color="#43E0E2"/>
</linearGradient>
<linearGradient id="paint1_linear_1827_5583" x1="546.638" y1="-261.25" x2="548.096" y2="288.982" gradientUnits="userSpaceOnUse">
<stop stop-color="white"/>
<stop offset="1" stop-color="#43E0E2"/>
</linearGradient>
<linearGradient id="paint2_linear_1827_5583" x1="546.638" y1="-261.25" x2="548.096" y2="288.982" gradientUnits="userSpaceOnUse">
<stop stop-color="white"/>
<stop offset="1" stop-color="#43E0E2"/>
</linearGradient>
<linearGradient id="paint3_linear_1827_5583" x1="546.638" y1="-261.25" x2="548.096" y2="288.982" gradientUnits="userSpaceOnUse">
<stop stop-color="white"/>
<stop offset="1" stop-color="#43E0E2"/>
</linearGradient>
<linearGradient id="paint4_linear_1827_5583" x1="546.638" y1="-261.25" x2="548.096" y2="288.982" gradientUnits="userSpaceOnUse">
<stop stop-color="white"/>
<stop offset="1" stop-color="#43E0E2"/>
</linearGradient>
<linearGradient id="paint5_linear_1827_5583" x1="546.638" y1="-261.25" x2="548.096" y2="288.982" gradientUnits="userSpaceOnUse">
<stop stop-color="white"/>
<stop offset="1" stop-color="#43E0E2"/>
</linearGradient>
<linearGradient id="paint6_linear_1827_5583" x1="546.638" y1="-261.25" x2="548.096" y2="288.982" gradientUnits="userSpaceOnUse">
<stop stop-color="white"/>
<stop offset="1" stop-color="#43E0E2"/>
</linearGradient>
<linearGradient id="paint7_linear_1827_5583" x1="546.638" y1="-261.25" x2="548.096" y2="288.982" gradientUnits="userSpaceOnUse">
<stop stop-color="white"/>
<stop offset="1" stop-color="#43E0E2"/>
</linearGradient>
<linearGradient id="paint8_linear_1827_5583" x1="546.638" y1="-261.25" x2="548.096" y2="288.982" gradientUnits="userSpaceOnUse">
<stop stop-color="white"/>
<stop offset="1" stop-color="#43E0E2"/>
</linearGradient>
<linearGradient id="paint9_linear_1827_5583" x1="546.638" y1="-261.25" x2="548.096" y2="288.982" gradientUnits="userSpaceOnUse">
<stop stop-color="white"/>
<stop offset="1" stop-color="#43E0E2"/>
</linearGradient>
<linearGradient id="paint10_linear_1827_5583" x1="546.638" y1="-261.25" x2="548.096" y2="288.982" gradientUnits="userSpaceOnUse">
<stop stop-color="white"/>
<stop offset="1" stop-color="#43E0E2"/>
</linearGradient>
<linearGradient id="paint11_linear_1827_5583" x1="546.638" y1="-261.25" x2="548.096" y2="288.982" gradientUnits="userSpaceOnUse">
<stop stop-color="white"/>
<stop offset="1" stop-color="#43E0E2"/>
</linearGradient>
<linearGradient id="paint12_linear_1827_5583" x1="546.638" y1="-261.25" x2="548.096" y2="288.982" gradientUnits="userSpaceOnUse">
<stop stop-color="white"/>
<stop offset="1" stop-color="#43E0E2"/>
</linearGradient>
<linearGradient id="paint13_linear_1827_5583" x1="546.638" y1="-261.25" x2="548.096" y2="288.982" gradientUnits="userSpaceOnUse">
<stop stop-color="white"/>
<stop offset="1" stop-color="#43E0E2"/>
</linearGradient>
<linearGradient id="paint14_linear_1827_5583" x1="546.638" y1="-261.25" x2="548.096" y2="288.982" gradientUnits="userSpaceOnUse">
<stop stop-color="white"/>
<stop offset="1" stop-color="#43E0E2"/>
</linearGradient>
<linearGradient id="paint15_linear_1827_5583" x1="546.638" y1="-261.25" x2="548.096" y2="288.982" gradientUnits="userSpaceOnUse">
<stop stop-color="white"/>
<stop offset="1" stop-color="#43E0E2"/>
</linearGradient>
<linearGradient id="paint16_linear_1827_5583" x1="546.638" y1="-261.25" x2="548.096" y2="288.982" gradientUnits="userSpaceOnUse">
<stop stop-color="white"/>
<stop offset="1" stop-color="#43E0E2"/>
</linearGradient>
<linearGradient id="paint17_linear_1827_5583" x1="546.638" y1="-261.25" x2="548.096" y2="288.982" gradientUnits="userSpaceOnUse">
<stop stop-color="white"/>
<stop offset="1" stop-color="#43E0E2"/>
</linearGradient>
<linearGradient id="paint18_linear_1827_5583" x1="546.638" y1="-261.25" x2="548.096" y2="288.982" gradientUnits="userSpaceOnUse">
<stop stop-color="white"/>
<stop offset="1" stop-color="#43E0E2"/>
</linearGradient>
<linearGradient id="paint19_linear_1827_5583" x1="546.638" y1="-261.25" x2="548.096" y2="288.982" gradientUnits="userSpaceOnUse">
<stop stop-color="white"/>
<stop offset="1" stop-color="#43E0E2"/>
</linearGradient>
<linearGradient id="paint20_linear_1827_5583" x1="546.638" y1="-261.25" x2="548.096" y2="288.982" gradientUnits="userSpaceOnUse">
<stop stop-color="white"/>
<stop offset="1" stop-color="#43E0E2"/>
</linearGradient>
<linearGradient id="paint21_linear_1827_5583" x1="546.638" y1="-261.25" x2="548.096" y2="288.982" gradientUnits="userSpaceOnUse">
<stop stop-color="white"/>
<stop offset="1" stop-color="#43E0E2"/>
</linearGradient>
</defs>
</svg>
