<svg width="363" height="235" viewBox="0 0 363 235" fill="none" xmlns="http://www.w3.org/2000/svg">
<path d="M21.8297 233.38C14.6796 235.703 6.94664 231.797 5.16554 224.494C-3.5565 188.727 -1.19153 151.137 11.9446 116.744C14.6271 109.721 22.7885 106.816 29.591 110.017C36.3934 113.218 39.2511 121.312 36.6618 128.37C26.3635 156.442 24.4463 186.916 31.1451 216.058C32.8293 223.385 28.9797 231.057 21.8297 233.38Z" fill="#0EA3B7"/>
<path d="M29.6445 109.902C22.8445 106.696 19.8869 98.5534 23.5933 92.0127C41.7439 59.9825 69.2193 34.2204 102.35 18.1667C109.116 14.8885 117.051 18.3635 119.814 25.3556C122.576 32.3479 119.112 40.2019 112.391 43.5695C85.6569 56.9633 63.3829 77.8485 48.2978 103.666C44.505 110.157 36.4446 113.108 29.6445 109.902Z" fill="#0EA3B7"/>
<path d="M119.88 25.3296C117.121 18.3362 120.543 10.3773 127.723 8.14958C162.885 -2.75967 200.549 -2.71537 235.685 8.27654C242.86 10.5212 246.263 18.4881 243.488 25.4748C240.711 32.4616 232.808 35.8127 225.605 33.6632C196.951 25.1142 166.417 25.0784 137.744 33.5599C130.535 35.6925 122.64 32.3228 119.88 25.3296Z" fill="#0EA3B7"/>
<path d="M243.558 25.5035C246.337 18.5179 254.281 15.062 261.038 18.3564C294.131 34.489 321.545 60.3168 339.619 92.3903C343.311 98.9399 340.334 107.075 333.526 110.265C326.718 113.455 318.665 110.484 314.888 103.984C299.863 78.1309 277.64 57.1925 250.938 43.735C244.224 40.3513 240.779 32.4891 243.558 25.5035Z" fill="#0EA3B7"/>
<path d="M333.656 110.548C340.472 107.371 348.623 110.304 351.28 117.337C364.295 151.774 366.53 189.372 357.683 225.109C355.876 232.407 348.129 236.286 340.987 233.937C333.847 231.589 330.023 223.904 331.732 216.582C338.533 187.464 336.722 156.984 326.522 128.876C323.957 121.809 326.843 113.725 333.656 110.548Z" fill="black" fill-opacity="0.1"/>
<path d="M81.7956 106.6V103.949H95.7217V106.6H90.3269V121.404H87.1905V106.6H81.7956ZM102.075 113.733V121.404H98.99V103.949H102.007V110.537H102.16C102.467 109.798 102.942 109.216 103.584 108.79C104.232 108.358 105.055 108.142 106.055 108.142C106.964 108.142 107.757 108.333 108.433 108.713C109.109 109.094 109.632 109.651 110.001 110.384C110.376 111.117 110.564 112.012 110.564 113.068V121.404H107.479V113.546C107.479 112.665 107.251 111.98 106.797 111.492C106.348 110.997 105.717 110.75 104.905 110.75C104.359 110.75 103.871 110.869 103.439 111.108C103.013 111.341 102.678 111.679 102.433 112.122C102.195 112.565 102.075 113.102 102.075 113.733ZM114.429 121.404V108.313H117.514V121.404H114.429ZM115.98 106.455C115.491 106.455 115.071 106.293 114.719 105.969C114.366 105.639 114.19 105.244 114.19 104.784C114.19 104.318 114.366 103.923 114.719 103.6C115.071 103.27 115.491 103.105 115.98 103.105C116.474 103.105 116.895 103.27 117.241 103.6C117.594 103.923 117.77 104.318 117.77 104.784C117.77 105.244 117.594 105.639 117.241 105.969C116.895 106.293 116.474 106.455 115.98 106.455ZM131.753 111.773L128.941 112.08C128.861 111.796 128.722 111.529 128.523 111.279C128.33 111.029 128.069 110.827 127.739 110.673C127.409 110.52 127.006 110.443 126.529 110.443C125.887 110.443 125.347 110.583 124.909 110.861C124.478 111.139 124.265 111.5 124.27 111.943C124.265 112.324 124.404 112.634 124.688 112.872C124.978 113.111 125.455 113.307 126.12 113.46L128.353 113.938C129.591 114.205 130.512 114.628 131.114 115.208C131.722 115.787 132.029 116.546 132.034 117.483C132.029 118.307 131.787 119.034 131.31 119.665C130.838 120.29 130.182 120.779 129.341 121.131C128.5 121.483 127.534 121.659 126.444 121.659C124.841 121.659 123.551 121.324 122.574 120.654C121.597 119.977 121.015 119.037 120.827 117.833L123.836 117.543C123.972 118.134 124.262 118.58 124.705 118.881C125.148 119.182 125.725 119.333 126.435 119.333C127.168 119.333 127.756 119.182 128.199 118.881C128.648 118.58 128.873 118.208 128.873 117.764C128.873 117.389 128.728 117.08 128.438 116.835C128.154 116.591 127.711 116.404 127.108 116.273L124.875 115.804C123.62 115.543 122.691 115.102 122.088 114.483C121.486 113.858 121.188 113.068 121.194 112.114C121.188 111.307 121.407 110.608 121.85 110.017C122.299 109.421 122.921 108.96 123.716 108.637C124.517 108.307 125.441 108.142 126.486 108.142C128.02 108.142 129.228 108.469 130.108 109.122C130.995 109.776 131.543 110.659 131.753 111.773ZM152.318 111.773L149.506 112.08C149.426 111.796 149.287 111.529 149.088 111.279C148.895 111.029 148.634 110.827 148.304 110.673C147.974 110.52 147.571 110.443 147.094 110.443C146.452 110.443 145.912 110.583 145.474 110.861C145.043 111.139 144.83 111.5 144.835 111.943C144.83 112.324 144.969 112.634 145.253 112.872C145.543 113.111 146.02 113.307 146.685 113.46L148.918 113.938C150.156 114.205 151.077 114.628 151.679 115.208C152.287 115.787 152.594 116.546 152.599 117.483C152.594 118.307 152.352 119.034 151.875 119.665C151.403 120.29 150.747 120.779 149.906 121.131C149.065 121.483 148.099 121.659 147.009 121.659C145.406 121.659 144.116 121.324 143.139 120.654C142.162 119.977 141.58 119.037 141.392 117.833L144.401 117.543C144.537 118.134 144.827 118.58 145.27 118.881C145.713 119.182 146.29 119.333 147 119.333C147.733 119.333 148.321 119.182 148.764 118.881C149.213 118.58 149.438 118.208 149.438 117.764C149.438 117.389 149.293 117.08 149.003 116.835C148.719 116.591 148.276 116.404 147.673 116.273L145.44 115.804C144.185 115.543 143.256 115.102 142.653 114.483C142.051 113.858 141.753 113.068 141.759 112.114C141.753 111.307 141.972 110.608 142.415 110.017C142.864 109.421 143.486 108.96 144.281 108.637C145.082 108.307 146.006 108.142 147.051 108.142C148.585 108.142 149.793 108.469 150.673 109.122C151.56 109.776 152.108 110.659 152.318 111.773ZM157.781 126.313C157.361 126.313 156.971 126.279 156.613 126.21C156.261 126.148 155.98 126.074 155.77 125.989L156.486 123.585C156.934 123.716 157.335 123.779 157.687 123.773C158.04 123.767 158.349 123.656 158.616 123.44C158.889 123.23 159.119 122.878 159.307 122.384L159.571 121.676L154.824 108.313H158.096L161.113 118.199H161.25L164.275 108.313H167.557L162.315 122.989C162.071 123.682 161.747 124.276 161.344 124.77C160.94 125.27 160.446 125.651 159.861 125.912C159.281 126.179 158.588 126.313 157.781 126.313ZM180.758 111.773L177.946 112.08C177.866 111.796 177.727 111.529 177.528 111.279C177.335 111.029 177.074 110.827 176.744 110.673C176.414 110.52 176.011 110.443 175.534 110.443C174.892 110.443 174.352 110.583 173.914 110.861C173.483 111.139 173.27 111.5 173.275 111.943C173.27 112.324 173.409 112.634 173.693 112.872C173.983 113.111 174.46 113.307 175.125 113.46L177.358 113.938C178.596 114.205 179.517 114.628 180.119 115.208C180.727 115.787 181.034 116.546 181.039 117.483C181.034 118.307 180.792 119.034 180.315 119.665C179.843 120.29 179.187 120.779 178.346 121.131C177.505 121.483 176.539 121.659 175.449 121.659C173.846 121.659 172.556 121.324 171.579 120.654C170.602 119.977 170.02 119.037 169.832 117.833L172.841 117.543C172.977 118.134 173.267 118.58 173.71 118.881C174.153 119.182 174.73 119.333 175.44 119.333C176.173 119.333 176.761 119.182 177.204 118.881C177.653 118.58 177.878 118.208 177.878 117.764C177.878 117.389 177.733 117.08 177.443 116.835C177.159 116.591 176.716 116.404 176.113 116.273L173.88 115.804C172.625 115.543 171.696 115.102 171.093 114.483C170.491 113.858 170.193 113.068 170.199 112.114C170.193 111.307 170.412 110.608 170.855 110.017C171.304 109.421 171.926 108.96 172.721 108.637C173.522 108.307 174.446 108.142 175.491 108.142C177.025 108.142 178.233 108.469 179.113 109.122C180 109.776 180.548 110.659 180.758 111.773ZM190.84 108.313V110.699H183.315V108.313H190.84ZM185.173 105.176H188.258V117.466C188.258 117.881 188.321 118.199 188.446 118.421C188.576 118.637 188.747 118.784 188.957 118.864C189.167 118.943 189.4 118.983 189.656 118.983C189.849 118.983 190.025 118.969 190.184 118.94C190.349 118.912 190.474 118.887 190.559 118.864L191.079 121.276C190.914 121.333 190.678 121.395 190.372 121.463C190.071 121.531 189.701 121.571 189.264 121.583C188.491 121.605 187.795 121.489 187.176 121.233C186.556 120.972 186.065 120.568 185.701 120.023C185.343 119.477 185.167 118.796 185.173 117.977V105.176ZM199.795 121.659C198.483 121.659 197.349 121.387 196.395 120.841C195.446 120.29 194.716 119.512 194.205 118.506C193.693 117.494 193.438 116.304 193.438 114.935C193.438 113.588 193.693 112.406 194.205 111.389C194.722 110.367 195.443 109.571 196.369 109.003C197.295 108.429 198.384 108.142 199.634 108.142C200.44 108.142 201.202 108.273 201.918 108.534C202.639 108.79 203.276 109.188 203.827 109.727C204.384 110.267 204.821 110.955 205.139 111.79C205.457 112.619 205.617 113.608 205.617 114.756V115.702H194.886V113.622H202.659C202.653 113.031 202.526 112.506 202.276 112.046C202.026 111.58 201.676 111.213 201.227 110.946C200.784 110.679 200.267 110.546 199.676 110.546C199.045 110.546 198.492 110.699 198.014 111.006C197.537 111.307 197.165 111.705 196.898 112.199C196.636 112.688 196.503 113.225 196.497 113.81V115.625C196.497 116.387 196.636 117.04 196.915 117.585C197.193 118.125 197.582 118.54 198.082 118.83C198.582 119.114 199.168 119.256 199.838 119.256C200.287 119.256 200.693 119.193 201.057 119.068C201.42 118.938 201.736 118.747 202.003 118.497C202.27 118.247 202.472 117.938 202.608 117.568L205.489 117.892C205.307 118.654 204.96 119.318 204.449 119.887C203.943 120.449 203.295 120.887 202.506 121.199C201.716 121.506 200.813 121.659 199.795 121.659ZM208.947 121.404V108.313H211.895V110.537H212.049C212.322 109.787 212.773 109.202 213.404 108.781C214.035 108.355 214.787 108.142 215.662 108.142C216.549 108.142 217.296 108.358 217.904 108.79C218.518 109.216 218.949 109.798 219.199 110.537H219.336C219.626 109.81 220.114 109.23 220.802 108.798C221.495 108.361 222.316 108.142 223.265 108.142C224.469 108.142 225.452 108.523 226.214 109.284C226.975 110.046 227.356 111.156 227.356 112.617V121.404H224.262V113.094C224.262 112.281 224.046 111.688 223.614 111.313C223.182 110.932 222.654 110.742 222.029 110.742C221.285 110.742 220.702 110.975 220.282 111.44C219.867 111.901 219.66 112.5 219.66 113.239V121.404H216.634V112.966C216.634 112.29 216.43 111.75 216.02 111.347C215.617 110.943 215.089 110.742 214.435 110.742C213.992 110.742 213.589 110.855 213.225 111.083C212.861 111.304 212.572 111.619 212.356 112.029C212.14 112.432 212.032 112.904 212.032 113.443V121.404H208.947ZM237.879 121.404V108.313H240.964V121.404H237.879ZM239.43 106.455C238.941 106.455 238.521 106.293 238.169 105.969C237.816 105.639 237.64 105.244 237.64 104.784C237.64 104.318 237.816 103.923 238.169 103.6C238.521 103.27 238.941 103.105 239.43 103.105C239.924 103.105 240.345 103.27 240.691 103.6C241.044 103.923 241.22 104.318 241.22 104.784C241.22 105.244 241.044 105.639 240.691 105.969C240.345 106.293 239.924 106.455 239.43 106.455ZM255.203 111.773L252.391 112.08C252.311 111.796 252.172 111.529 251.973 111.279C251.78 111.029 251.519 110.827 251.189 110.673C250.859 110.52 250.456 110.443 249.979 110.443C249.337 110.443 248.797 110.583 248.359 110.861C247.928 111.139 247.715 111.5 247.72 111.943C247.715 112.324 247.854 112.634 248.138 112.872C248.428 113.111 248.905 113.307 249.57 113.46L251.803 113.938C253.041 114.205 253.962 114.628 254.564 115.208C255.172 115.787 255.479 116.546 255.484 117.483C255.479 118.307 255.237 119.034 254.76 119.665C254.288 120.29 253.632 120.779 252.791 121.131C251.95 121.483 250.984 121.659 249.894 121.659C248.291 121.659 247.001 121.324 246.024 120.654C245.047 119.977 244.465 119.037 244.277 117.833L247.286 117.543C247.422 118.134 247.712 118.58 248.155 118.881C248.598 119.182 249.175 119.333 249.885 119.333C250.618 119.333 251.206 119.182 251.649 118.881C252.098 118.58 252.322 118.208 252.322 117.764C252.322 117.389 252.178 117.08 251.888 116.835C251.604 116.591 251.161 116.404 250.558 116.273L248.325 115.804C247.07 115.543 246.141 115.102 245.538 114.483C244.936 113.858 244.638 113.068 244.644 112.114C244.638 111.307 244.857 110.608 245.3 110.017C245.749 109.421 246.371 108.96 247.166 108.637C247.967 108.307 248.891 108.142 249.936 108.142C251.47 108.142 252.678 108.469 253.558 109.122C254.445 109.776 254.993 110.659 255.203 111.773ZM265.422 121.404V108.313H268.507V121.404H265.422ZM266.973 106.455C266.484 106.455 266.064 106.293 265.711 105.969C265.359 105.639 265.183 105.244 265.183 104.784C265.183 104.318 265.359 103.923 265.711 103.6C266.064 103.27 266.484 103.105 266.973 103.105C267.467 103.105 267.888 103.27 268.234 103.6C268.586 103.923 268.763 104.318 268.763 104.784C268.763 105.244 268.586 105.639 268.234 105.969C267.888 106.293 267.467 106.455 266.973 106.455ZM275.485 113.733V121.404H272.399V108.313H275.348V110.537H275.502C275.803 109.804 276.283 109.222 276.942 108.79C277.607 108.358 278.428 108.142 279.405 108.142C280.308 108.142 281.095 108.335 281.766 108.722C282.442 109.108 282.965 109.668 283.334 110.401C283.709 111.134 283.894 112.023 283.888 113.068V121.404H280.803V113.546C280.803 112.671 280.576 111.986 280.121 111.492C279.672 110.997 279.05 110.75 278.255 110.75C277.715 110.75 277.235 110.869 276.814 111.108C276.399 111.341 276.073 111.679 275.834 112.122C275.601 112.565 275.485 113.102 275.485 113.733ZM158.183 184.773L155.37 185.08C155.291 184.796 155.151 184.529 154.953 184.279C154.759 184.029 154.498 183.827 154.169 183.673C153.839 183.52 153.436 183.443 152.958 183.443C152.316 183.443 151.776 183.583 151.339 183.861C150.907 184.139 150.694 184.5 150.7 184.943C150.694 185.324 150.833 185.634 151.117 185.872C151.407 186.111 151.884 186.307 152.549 186.46L154.782 186.938C156.021 187.205 156.941 187.628 157.544 188.208C158.151 188.787 158.458 189.546 158.464 190.483C158.458 191.307 158.217 192.034 157.74 192.665C157.268 193.29 156.612 193.779 155.771 194.131C154.93 194.483 153.964 194.659 152.873 194.659C151.271 194.659 149.981 194.324 149.004 193.654C148.026 192.977 147.444 192.037 147.257 190.833L150.265 190.543C150.401 191.134 150.691 191.58 151.134 191.881C151.578 192.182 152.154 192.333 152.865 192.333C153.597 192.333 154.186 192.182 154.629 191.881C155.078 191.58 155.302 191.208 155.302 190.764C155.302 190.389 155.157 190.08 154.867 189.835C154.583 189.591 154.14 189.404 153.538 189.273L151.305 188.804C150.049 188.543 149.12 188.102 148.518 187.483C147.916 186.858 147.617 186.068 147.623 185.114C147.617 184.307 147.836 183.608 148.279 183.017C148.728 182.421 149.35 181.96 150.146 181.637C150.947 181.307 151.87 181.142 152.916 181.142C154.45 181.142 155.657 181.469 156.538 182.122C157.424 182.776 157.972 183.659 158.183 184.773ZM164.813 186.733V194.404H161.728V176.949H164.745V183.537H164.898C165.205 182.798 165.68 182.216 166.322 181.79C166.969 181.358 167.793 181.142 168.793 181.142C169.702 181.142 170.495 181.333 171.171 181.713C171.847 182.094 172.37 182.651 172.739 183.384C173.114 184.117 173.302 185.012 173.302 186.068V194.404H170.217V186.546C170.217 185.665 169.989 184.98 169.535 184.492C169.086 183.997 168.455 183.75 167.643 183.75C167.097 183.75 166.609 183.869 166.177 184.108C165.751 184.341 165.416 184.679 165.171 185.122C164.933 185.565 164.813 186.102 164.813 186.733ZM180.934 194.668C180.104 194.668 179.357 194.52 178.692 194.225C178.033 193.923 177.511 193.48 177.124 192.895C176.743 192.31 176.553 191.588 176.553 190.73C176.553 189.992 176.689 189.381 176.962 188.898C177.235 188.415 177.607 188.029 178.079 187.739C178.55 187.449 179.082 187.23 179.672 187.083C180.269 186.929 180.886 186.818 181.522 186.75C182.289 186.671 182.911 186.6 183.388 186.537C183.866 186.469 184.212 186.367 184.428 186.23C184.65 186.088 184.761 185.869 184.761 185.574V185.523C184.761 184.881 184.57 184.384 184.189 184.031C183.809 183.679 183.261 183.503 182.545 183.503C181.789 183.503 181.189 183.668 180.746 183.997C180.309 184.327 180.013 184.716 179.86 185.165L176.979 184.756C177.207 183.96 177.582 183.296 178.104 182.762C178.627 182.222 179.266 181.818 180.022 181.551C180.778 181.279 181.613 181.142 182.528 181.142C183.158 181.142 183.786 181.216 184.411 181.364C185.036 181.512 185.607 181.756 186.124 182.097C186.641 182.432 187.056 182.889 187.368 183.469C187.687 184.048 187.846 184.773 187.846 185.642V194.404H184.88V192.605H184.778C184.59 192.969 184.326 193.31 183.985 193.628C183.65 193.94 183.226 194.193 182.715 194.387C182.209 194.574 181.616 194.668 180.934 194.668ZM181.735 192.401C182.354 192.401 182.891 192.279 183.346 192.034C183.8 191.784 184.15 191.455 184.394 191.046C184.644 190.637 184.769 190.19 184.769 189.708V188.165C184.672 188.244 184.508 188.318 184.275 188.387C184.047 188.455 183.792 188.514 183.508 188.565C183.224 188.617 182.942 188.662 182.664 188.702C182.386 188.742 182.144 188.776 181.939 188.804C181.479 188.867 181.067 188.969 180.704 189.111C180.34 189.253 180.053 189.452 179.843 189.708C179.633 189.958 179.528 190.281 179.528 190.679C179.528 191.247 179.735 191.676 180.15 191.966C180.564 192.256 181.093 192.401 181.735 192.401ZM191.668 199.313V181.313H194.702V183.477H194.881C195.04 183.159 195.265 182.821 195.554 182.463C195.844 182.1 196.236 181.79 196.731 181.534C197.225 181.273 197.856 181.142 198.623 181.142C199.634 181.142 200.546 181.401 201.358 181.918C202.177 182.429 202.824 183.188 203.302 184.193C203.784 185.193 204.026 186.421 204.026 187.875C204.026 189.313 203.79 190.534 203.319 191.54C202.847 192.546 202.205 193.313 201.392 193.841C200.58 194.369 199.659 194.634 198.631 194.634C197.881 194.634 197.259 194.509 196.765 194.259C196.27 194.009 195.873 193.708 195.571 193.355C195.276 192.997 195.046 192.659 194.881 192.341H194.753V199.313H191.668ZM194.694 187.858C194.694 188.705 194.813 189.446 195.052 190.083C195.296 190.719 195.645 191.216 196.1 191.574C196.56 191.926 197.117 192.102 197.77 192.102C198.452 192.102 199.023 191.921 199.483 191.557C199.944 191.188 200.29 190.685 200.523 190.048C200.762 189.406 200.881 188.676 200.881 187.858C200.881 187.046 200.765 186.324 200.532 185.693C200.299 185.063 199.952 184.568 199.492 184.21C199.032 183.852 198.458 183.673 197.77 183.673C197.111 183.673 196.552 183.847 196.091 184.193C195.631 184.54 195.282 185.026 195.043 185.651C194.81 186.276 194.694 187.012 194.694 187.858ZM213.183 194.659C211.871 194.659 210.737 194.387 209.783 193.841C208.834 193.29 208.104 192.512 207.593 191.506C207.081 190.494 206.826 189.304 206.826 187.935C206.826 186.588 207.081 185.406 207.593 184.389C208.11 183.367 208.831 182.571 209.757 182.003C210.683 181.429 211.772 181.142 213.022 181.142C213.828 181.142 214.59 181.273 215.306 181.534C216.027 181.79 216.664 182.188 217.215 182.727C217.772 183.267 218.209 183.955 218.527 184.79C218.845 185.619 219.004 186.608 219.004 187.756V188.702H208.274V186.622H216.047C216.041 186.031 215.914 185.506 215.664 185.046C215.414 184.58 215.064 184.213 214.615 183.946C214.172 183.679 213.655 183.546 213.064 183.546C212.433 183.546 211.879 183.699 211.402 184.006C210.925 184.307 210.553 184.705 210.286 185.199C210.024 185.688 209.891 186.225 209.885 186.81V188.625C209.885 189.387 210.024 190.04 210.303 190.585C210.581 191.125 210.97 191.54 211.47 191.83C211.97 192.114 212.556 192.256 213.226 192.256C213.675 192.256 214.081 192.193 214.445 192.068C214.808 191.938 215.124 191.747 215.391 191.497C215.658 191.247 215.86 190.938 215.996 190.568L218.877 190.892C218.695 191.654 218.348 192.318 217.837 192.887C217.331 193.449 216.683 193.887 215.894 194.199C215.104 194.506 214.201 194.659 213.183 194.659Z" fill="#595959"/>
<path d="M144.453 147.864C144.342 147.412 144.167 147.016 143.929 146.675C143.69 146.325 143.392 146.031 143.034 145.793C142.684 145.546 142.275 145.362 141.806 145.243C141.346 145.115 140.839 145.051 140.285 145.051C139.092 145.051 138.073 145.337 137.23 145.908C136.394 146.479 135.755 147.301 135.312 148.375C134.877 149.449 134.66 150.744 134.66 152.262C134.66 153.796 134.869 155.108 135.286 156.199C135.704 157.29 136.326 158.125 137.153 158.705C137.98 159.284 139.007 159.574 140.234 159.574C141.316 159.574 142.215 159.416 142.931 159.101C143.656 158.786 144.197 158.338 144.555 157.759C144.913 157.179 145.092 156.497 145.092 155.713L146.319 155.841H140.336V150.779H151.944V154.409C151.944 156.796 151.437 158.837 150.423 160.533C149.417 162.22 148.028 163.516 146.255 164.419C144.491 165.314 142.467 165.762 140.183 165.762C137.634 165.762 135.397 165.22 133.471 164.138C131.545 163.056 130.041 161.513 128.958 159.51C127.884 157.507 127.348 155.125 127.348 152.364C127.348 150.199 127.676 148.281 128.332 146.611C128.997 144.94 129.917 143.53 131.093 142.379C132.269 141.22 133.629 140.347 135.171 139.759C136.714 139.162 138.367 138.864 140.132 138.864C141.683 138.864 143.123 139.085 144.453 139.529C145.791 139.963 146.971 140.585 147.994 141.395C149.025 142.196 149.856 143.146 150.487 144.246C151.117 145.345 151.501 146.551 151.637 147.864H144.453ZM181.702 152.313C181.702 155.227 181.135 157.686 180.002 159.689C178.868 161.683 177.338 163.196 175.412 164.227C173.486 165.25 171.338 165.762 168.969 165.762C166.583 165.762 164.426 165.246 162.5 164.215C160.583 163.175 159.057 161.658 157.924 159.664C156.799 157.661 156.236 155.21 156.236 152.313C156.236 149.398 156.799 146.943 157.924 144.949C159.057 142.946 160.583 141.433 162.5 140.411C164.426 139.379 166.583 138.864 168.969 138.864C171.338 138.864 173.486 139.379 175.412 140.411C177.338 141.433 178.868 142.946 180.002 144.949C181.135 146.943 181.702 149.398 181.702 152.313ZM174.39 152.313C174.39 150.744 174.181 149.423 173.763 148.35C173.354 147.267 172.745 146.449 171.935 145.895C171.134 145.333 170.145 145.051 168.969 145.051C167.793 145.051 166.8 145.333 165.99 145.895C165.189 146.449 164.58 147.267 164.162 148.35C163.753 149.423 163.549 150.744 163.549 152.313C163.549 153.881 163.753 155.206 164.162 156.289C164.58 157.362 165.189 158.181 165.99 158.743C166.8 159.297 167.793 159.574 168.969 159.574C170.145 159.574 171.134 159.297 171.935 158.743C172.745 158.181 173.354 157.362 173.763 156.289C174.181 155.206 174.39 153.881 174.39 152.313ZM211.434 152.313C211.434 155.227 210.868 157.686 209.734 159.689C208.601 161.683 207.071 163.196 205.145 164.227C203.218 165.25 201.071 165.762 198.701 165.762C196.315 165.762 194.159 165.246 192.233 164.215C190.315 163.175 188.789 161.658 187.656 159.664C186.531 157.661 185.968 155.21 185.968 152.313C185.968 149.398 186.531 146.943 187.656 144.949C188.789 142.946 190.315 141.433 192.233 140.411C194.159 139.379 196.315 138.864 198.701 138.864C201.071 138.864 203.218 139.379 205.145 140.411C207.071 141.433 208.601 142.946 209.734 144.949C210.868 146.943 211.434 149.398 211.434 152.313ZM204.122 152.313C204.122 150.744 203.913 149.423 203.495 148.35C203.086 147.267 202.477 146.449 201.667 145.895C200.866 145.333 199.878 145.051 198.701 145.051C197.525 145.051 196.532 145.333 195.723 145.895C194.922 146.449 194.312 147.267 193.895 148.35C193.486 149.423 193.281 150.744 193.281 152.313C193.281 153.881 193.486 155.206 193.895 156.289C194.312 157.362 194.922 158.181 195.723 158.743C196.532 159.297 197.525 159.574 198.701 159.574C199.878 159.574 200.866 159.297 201.667 158.743C202.477 158.181 203.086 157.362 203.495 156.289C203.913 155.206 204.122 153.881 204.122 152.313ZM225.877 165.404H215.803V139.222H225.775C228.468 139.222 230.795 139.746 232.755 140.794C234.724 141.834 236.241 143.334 237.306 145.294C238.38 147.246 238.917 149.585 238.917 152.313C238.917 155.04 238.384 157.384 237.319 159.344C236.253 161.296 234.745 162.796 232.793 163.844C230.841 164.884 228.536 165.404 225.877 165.404ZM222.911 159.369H225.621C226.917 159.369 228.02 159.161 228.932 158.743C229.853 158.325 230.552 157.605 231.029 156.583C231.515 155.56 231.758 154.137 231.758 152.313C231.758 150.489 231.51 149.065 231.016 148.043C230.53 147.02 229.814 146.3 228.868 145.882C227.931 145.465 226.78 145.256 225.417 145.256H222.911V159.369Z" fill="#0EA3B7"/>
</svg>
