<svg width="160" height="154" viewBox="0 0 160 154" fill="none" xmlns="http://www.w3.org/2000/svg">
<path fill-rule="evenodd" clip-rule="evenodd" d="M51.452 14.8067C49.5581 15.0644 47.6641 15.0644 45.7702 14.8067C47.6609 14.5744 49.5549 14.5744 51.452 14.8067Z" fill="#232629"/>
<path fill-rule="evenodd" clip-rule="evenodd" d="M45.7702 14.8067C47.6641 15.0644 49.5581 15.0644 51.452 14.8067C57.5143 15.7198 63.07 17.9428 68.1187 21.4755C77.224 28.3183 84.5787 36.7268 90.1831 46.701C91.6516 49.3765 93.0721 52.0827 94.4445 54.8196C104.266 49.2605 114.051 43.6548 123.801 38.0026C130.813 34.1026 137.757 30.1079 144.634 26.018C146.565 25.6349 147.701 26.4402 148.043 28.4343C148.059 29.1336 147.806 29.6812 147.285 30.0773C147.546 29.6018 147.736 29.0865 147.854 28.5309C147.801 28.1772 147.675 27.855 147.475 27.5644C147.033 27.7577 146.907 27.6288 147.096 27.1778C146.538 26.954 145.97 26.8573 145.391 26.8879C145.544 26.9474 145.671 27.0441 145.77 27.1778C145.541 27.4137 145.541 27.6392 145.77 27.8544C145.536 27.8992 145.347 27.9959 145.202 28.1443C145.053 28.0896 144.926 27.993 144.823 27.8544C144.982 27.659 145.045 27.4334 145.013 27.1778C144.71 27.126 144.457 27.1906 144.255 27.3711C119.189 41.7093 94.0626 55.949 68.8763 70.0902C68.1939 69.8673 67.6257 69.4486 67.1717 68.8338C66.8672 68.7066 66.6462 68.8032 66.5088 69.1237C66.3668 69.0027 66.2088 68.9061 66.0354 68.8338C66.3494 68.6936 66.4441 68.468 66.3195 68.1572C65.8105 67.9355 65.4632 67.6778 65.2778 67.384C66.4744 67.8025 67.4844 68.5113 68.3081 69.5103C70.3401 68.3453 72.3604 67.1855 74.3687 66.0309C76.3257 65.0327 78.2196 63.9373 80.0505 62.7448C82.2596 61.6179 84.4062 60.3938 86.4899 59.0722C88.717 58.0322 90.8634 56.8403 92.9293 55.4961C88.1151 45.1531 81.6757 36.0037 73.6111 28.0477C68.9818 23.6215 63.6787 20.2711 57.702 17.9961C44.091 13.8765 34.2742 18.3547 28.2513 31.4304C25.0357 39.9002 23.8994 48.663 24.8422 57.7191C26.9647 80.413 35.4244 100.194 50.221 117.062C55.4632 122.8 61.5554 127.342 68.4975 130.689C73.3804 133.027 78.4941 133.864 83.8384 133.202C91.8509 131.287 97.3749 126.422 100.41 118.608C100.98 117.155 101.453 115.673 101.831 114.162C102.138 113.297 102.391 112.395 102.588 111.456C104.398 101.91 104.303 92.3739 102.304 82.8479C100.686 74.9617 98.2556 67.3587 95.0126 60.0387C92.873 61.1979 90.7897 62.422 88.7626 63.7113C86.5043 64.8595 84.2946 66.0837 82.1338 67.384C81.4677 67.7559 80.7732 68.0782 80.0505 68.3505C80.5102 67.9527 81.0151 67.5984 81.5657 67.2874C81.1977 67.3463 80.8189 67.3463 80.4293 67.2874C80.8577 67.1519 81.0471 66.9263 80.9975 66.6108C80.0308 66.9242 79.9047 66.7954 80.6187 66.2242C80.3988 65.891 80.4302 65.5689 80.7134 65.2577C80.7765 65.58 80.8397 65.902 80.9028 66.2242C83.8926 64.3496 86.8598 62.6099 89.8043 61.0052C90.1596 61.3189 90.4123 61.2545 90.5619 60.8119C90.6249 60.8762 90.6882 60.9408 90.7513 61.0052C90.8143 60.8119 90.8776 60.6186 90.9407 60.4253C91.5664 60.1177 92.1662 59.7632 92.7399 59.3621C92.8708 59.1559 92.9655 58.9303 93.024 58.6856C93.0823 58.8418 93.177 58.9707 93.3081 59.0722C93.9946 58.7252 94.6575 58.3386 95.2967 57.9124C95.3598 57.9767 95.423 58.0413 95.4861 58.1057C95.6755 57.7834 95.8649 57.4614 96.0543 57.1392C96.1327 57.2275 96.2274 57.2921 96.3384 57.3325C96.8183 56.7555 97.3234 56.6911 97.8535 57.1392C97.4094 57.5372 97.5357 57.7305 98.2323 57.7191C98.8204 57.5797 99.3886 57.3864 99.9369 57.1392C98.8126 57.843 97.6763 58.5518 96.5278 59.2655C101.54 70.3827 104.507 82.045 105.429 94.2526C105.289 97.7331 105.163 101.245 105.051 104.787C105.052 105.18 105.115 105.535 105.24 105.851C104.599 112.16 102.8 118.088 99.8422 123.634C97.5285 127.606 94.4035 130.731 90.4672 133.009C86.2659 135.314 81.9098 137.247 77.399 138.808C72.5405 140.221 67.6793 140.221 62.8157 138.808C56.9759 136.96 51.6729 134.125 46.9066 130.303C35.9098 121.009 27.4818 109.701 21.6225 96.3789C15.9973 83.5945 12.9986 70.1923 12.6263 56.1727C12.6852 48.8809 14.0426 41.8577 16.6982 35.1031C19.0837 29.3192 22.8399 24.7121 27.9672 21.2822C33.6746 18.4494 39.6088 16.2909 45.7702 14.8067Z" fill="#33373B"/>
<path fill-rule="evenodd" clip-rule="evenodd" d="M144.634 26.018C137.757 30.1079 130.813 34.1026 123.801 38.0026C124.668 33.7036 125.71 29.451 126.926 25.2448C131.898 20.942 136.98 16.7861 142.172 12.7771C142.846 12.3607 143.445 12.4573 143.971 13.067C144.218 17.3838 144.439 21.7009 144.634 26.018Z" fill="#2D80D2"/>
<path fill-rule="evenodd" clip-rule="evenodd" d="M147.285 30.0773C147.006 30.4436 146.691 30.7657 146.338 31.0438C139.765 34.7843 133.2 38.5214 126.641 42.2552C119.028 46.5592 111.389 50.8117 103.725 55.0129C104.098 54.6922 104.476 54.3702 104.861 54.0464C104.467 53.9163 104.089 53.7553 103.725 53.5631C103.806 52.8342 104.185 52.5764 104.861 52.79C104.507 53.7576 104.728 53.9186 105.524 53.2732C105.582 53.4294 105.677 53.5583 105.808 53.6598C106.935 53.389 107.03 52.938 106.092 52.3067C105.913 52.385 105.787 52.5139 105.713 52.6933C105.571 52.5723 105.413 52.4756 105.24 52.4034C106.905 51.4919 108.484 50.4934 109.975 49.4072C110.086 49.4476 110.18 49.5122 110.259 49.6005C111.241 48.9706 112.251 48.3907 113.289 47.8608C113.595 48.0843 113.595 48.3419 113.289 48.634C113.07 48.3454 112.912 48.3777 112.816 48.7307C112.847 48.8273 112.879 48.924 112.91 49.0206C113.079 48.7865 113.237 48.7865 113.384 49.0206C113.115 49.3351 113.178 49.4318 113.573 49.3106C113.826 49.1816 113.826 49.0529 113.573 48.924C114.086 48.4711 114.591 48.0199 115.088 47.5709C114.816 47.5285 114.564 47.4319 114.331 47.2809C118.369 44.8898 122.315 42.5702 126.168 40.3222C126.396 40.5099 126.491 40.7032 126.452 40.9021C126.572 40.5025 126.761 40.1482 127.02 39.8389C128.485 38.9509 130 38.1777 131.566 37.5193C134.937 35.2798 138.41 33.3468 141.982 31.7204C142.765 30.9657 143.649 30.3535 144.634 29.884C144.78 29.4458 145.032 29.0915 145.391 28.8209C145.299 28.6009 145.236 28.3753 145.202 28.1443C145.347 27.9959 145.536 27.8992 145.77 27.8544C145.541 27.6392 145.541 27.4137 145.77 27.1778C145.671 27.0441 145.544 26.9474 145.391 26.8879C145.97 26.8573 146.538 26.954 147.096 27.1778C146.907 27.6288 147.033 27.7577 147.475 27.5644C147.675 27.855 147.801 28.1772 147.854 28.5309C147.736 29.0865 147.546 29.6018 147.285 30.0773Z" fill="#34383D"/>
<path fill-rule="evenodd" clip-rule="evenodd" d="M86.4899 59.0722C82.088 50.0988 76.0905 42.3992 68.4975 35.9729C64.6193 32.8666 60.2632 30.7403 55.4293 29.5941C48.1715 28.7014 42.5844 31.3753 38.6679 37.616C35.1429 44.314 33.7541 51.466 34.5013 59.0722C35.967 77.4553 42.6588 93.4991 54.577 107.204C58.9952 111.972 64.1403 115.677 70.0126 118.318C81.9623 122.143 89.8537 117.987 93.6869 105.851C93.7499 105.722 93.8132 105.593 93.8763 105.464C94.032 105.829 94.1897 106.216 94.3498 106.624C96.6187 109.359 98.923 112.065 101.263 114.742C101.51 114.469 101.668 114.147 101.736 113.776C101.824 113.891 101.856 114.02 101.831 114.162C101.453 115.673 100.98 117.155 100.41 118.608C97.3749 126.422 91.8509 131.287 83.8384 133.202C78.4941 133.864 73.3804 133.027 68.4975 130.689C61.5554 127.342 55.4632 122.8 50.221 117.062C35.4244 100.194 26.9647 80.413 24.8422 57.7191C23.8994 48.663 25.0357 39.9002 28.2513 31.4304C34.2742 18.3547 44.091 13.8765 57.702 17.9961C63.6787 20.2711 68.9818 23.6215 73.6111 28.0477C81.6757 36.0037 88.1151 45.1531 92.9293 55.4961C90.8634 56.8403 88.717 58.0322 86.4899 59.0722Z" fill="#F9F8F8"/>
<path fill-rule="evenodd" clip-rule="evenodd" d="M146.338 31.0438C150.02 33.0843 153.682 35.1783 157.323 37.326C157.626 37.9546 157.531 38.5023 157.039 38.9691C151.103 41.5144 145.137 43.9628 139.141 46.3144C135.771 45.5438 132.425 44.6739 129.104 43.7049C128.158 43.4101 127.337 42.9269 126.641 42.2552C133.2 38.5214 139.765 34.7843 146.338 31.0438Z" fill="#2D80D2"/>
<path fill-rule="evenodd" clip-rule="evenodd" d="M86.4899 59.0722C84.4062 60.3938 82.2596 61.6179 80.0505 62.7448C76.3501 55.1642 71.0471 49.011 64.1414 44.2848C55.5685 39.6953 49.4132 41.9182 45.6755 50.9536C43.8426 56.8674 43.5901 62.8597 44.9179 68.9304C47.2384 81.1121 52.6992 91.5182 61.3005 100.148C64.3077 102.953 67.7799 104.951 71.7172 106.14C77.2543 107.388 81.4526 105.552 84.3119 100.631C84.9081 99.4117 85.4446 98.1876 85.9217 96.9588C88.5102 99.9226 91.0984 102.887 93.6869 105.851C89.8537 117.987 81.9623 122.143 70.0126 118.318C64.1403 115.677 58.9952 111.972 54.577 107.204C42.6588 93.4991 35.967 77.4553 34.5013 59.0722C33.7541 51.466 35.1429 44.314 38.6679 37.616C42.5844 31.3753 48.1715 28.7014 55.4293 29.5941C60.2632 30.7403 64.6193 32.8666 68.4975 35.9729C76.0905 42.3992 82.088 50.0988 86.4899 59.0722Z" fill="#9EA3A8"/>
<path fill-rule="evenodd" clip-rule="evenodd" d="M80.0505 62.7448C78.2196 63.9373 76.3257 65.0327 74.3687 66.0309C72.4236 62.7234 69.9615 59.856 66.9823 57.4291C64.6871 55.6175 62.0988 54.9087 59.2172 55.3028C56.8547 56.1677 55.2448 57.8107 54.3876 60.232C53.3113 63.3802 53.0586 66.6019 53.6301 69.8969C54.9202 78.0425 58.5503 84.8401 64.5202 90.29C66.8121 92.2939 69.4636 93.2604 72.4748 93.1894C75.0979 92.6063 76.8655 91.0276 77.7778 88.4536C77.9041 88.1959 78.0302 87.9381 78.1566 87.6804C78.3062 87.8948 78.4009 88.1525 78.4407 88.4536C80.7785 91.1293 83.146 93.7711 85.5429 96.3789C85.7117 95.9049 85.9011 95.5827 86.1111 95.4124C85.999 95.9202 85.9359 96.4357 85.9217 96.9588C85.4446 98.1876 84.9081 99.4117 84.3119 100.631C81.4526 105.552 77.2543 107.388 71.7172 106.14C67.7799 104.951 64.3077 102.953 61.3005 100.148C52.6992 91.5182 47.2384 81.1121 44.9179 68.9304C43.5901 62.8597 43.8426 56.8674 45.6755 50.9536C49.4132 41.9182 55.5685 39.6953 64.1414 44.2848C71.0471 49.011 76.3501 55.1642 80.0505 62.7448Z" fill="#F9F9F8"/>
<path fill-rule="evenodd" clip-rule="evenodd" d="M144.255 27.3711C144.458 27.5163 144.49 27.7096 144.35 27.951C143.558 28.8199 142.643 29.5608 141.604 30.174C116.63 44.4495 91.5982 58.657 66.5088 72.7964C66.0948 72.5128 65.9687 72.1262 66.1301 71.6366C67.0785 71.1375 67.9939 70.622 68.8763 70.0902C94.0626 55.949 119.189 41.7093 144.255 27.3711Z" fill="#5E646B"/>
<path fill-rule="evenodd" clip-rule="evenodd" d="M88.7626 63.7113C92.8763 72.9029 95.149 82.5678 95.5808 92.7062C95.5253 95.9003 95.2098 99.0576 94.6338 102.178C91.9823 99.1494 89.3308 96.1212 86.6793 93.0928C86.6793 93.0284 86.6793 92.9639 86.6793 92.8995C87.4738 83.9408 85.9587 75.4357 82.1338 67.384C84.2946 66.0837 86.5043 64.8595 88.7626 63.7113Z" fill="#9CA1A7"/>
<path fill-rule="evenodd" clip-rule="evenodd" d="M144.255 27.3711C144.457 27.1906 144.71 27.126 145.013 27.1778C145.045 27.4334 144.982 27.659 144.823 27.8544C144.926 27.993 145.053 28.0896 145.202 28.1443C145.236 28.3753 145.299 28.6009 145.391 28.8209C145.032 29.0915 144.78 29.4458 144.634 29.884C143.649 30.3535 142.765 30.9657 141.982 31.7204C138.41 33.3468 134.937 35.2798 131.566 37.5193C130 38.1777 128.485 38.9509 127.02 39.8389C126.761 40.1482 126.572 40.5025 126.452 40.9021C126.491 40.7032 126.396 40.5099 126.168 40.3222C122.315 42.5702 118.369 44.8898 114.331 47.2809C114.564 47.4319 114.816 47.5285 115.088 47.5709C114.591 48.0199 114.086 48.4711 113.573 48.924C113.826 49.0529 113.826 49.1816 113.573 49.3106C113.178 49.4318 113.115 49.3351 113.384 49.0206C113.237 48.7865 113.079 48.7865 112.91 49.0206C112.879 48.924 112.847 48.8273 112.816 48.7307C112.912 48.3777 113.07 48.3454 113.289 48.634C113.595 48.3419 113.595 48.0843 113.289 47.8608C112.251 48.3907 111.241 48.9706 110.259 49.6005C110.18 49.5122 110.086 49.4476 109.975 49.4072C108.484 50.4934 106.905 51.4919 105.24 52.4034C105.413 52.4756 105.571 52.5723 105.713 52.6933C105.787 52.5139 105.913 52.385 106.092 52.3067C107.03 52.938 106.935 53.389 105.808 53.6598C105.677 53.5583 105.582 53.4294 105.524 53.2732C104.728 53.9186 104.507 53.7576 104.861 52.79C104.185 52.5764 103.806 52.8342 103.725 53.5631C104.089 53.7553 104.467 53.9163 104.861 54.0464C104.476 54.3702 104.098 54.6922 103.725 55.0129C102.559 55.8752 101.297 56.584 99.9369 57.1392C99.3886 57.3864 98.8204 57.5797 98.2323 57.7191C97.5357 57.7305 97.4094 57.5372 97.8535 57.1392C97.3234 56.6911 96.8183 56.7555 96.3384 57.3325C96.2274 57.2921 96.1327 57.2275 96.0543 57.1392C95.8649 57.4614 95.6755 57.7834 95.4861 58.1057C95.423 58.0413 95.3598 57.9767 95.2967 57.9124C94.6575 58.3386 93.9946 58.7252 93.3081 59.0722C93.177 58.9707 93.0823 58.8418 93.024 58.6856C92.9655 58.9303 92.8708 59.1559 92.7399 59.3621C92.1662 59.7632 91.5664 60.1177 90.9407 60.4253C90.8776 60.6186 90.8143 60.8119 90.7513 61.0052C90.6882 60.9408 90.6249 60.8762 90.5619 60.8119C90.4123 61.2545 90.1596 61.3189 89.8043 61.0052C86.8598 62.6099 83.8926 64.3496 80.9028 66.2242C80.8397 65.902 80.7765 65.58 80.7134 65.2577C80.4302 65.5689 80.3988 65.891 80.6187 66.2242C79.9047 66.7954 80.0308 66.9242 80.9975 66.6108C81.0471 66.9263 80.8577 67.1519 80.4293 67.2874C80.8189 67.3463 81.1977 67.3463 81.5657 67.2874C81.0151 67.5984 80.5102 67.9527 80.0505 68.3505C78.8511 69.1237 77.6515 69.8969 76.452 70.6701C74.377 71.5997 72.42 72.7272 70.5808 74.0528C70.7908 74.4485 70.9172 74.8672 70.9596 75.3093C71.0507 76.7115 70.8613 78.0646 70.3914 79.3686C69.3509 80.551 68.1515 80.7766 66.7929 80.0451C63.4607 77.205 61.9141 73.5646 62.1528 69.1237C62.6435 67.4405 63.6852 66.8606 65.2778 67.384C65.4632 67.6778 65.8105 67.9355 66.3195 68.1572C66.4441 68.468 66.3494 68.6936 66.0354 68.8338C66.2088 68.9061 66.3668 69.0027 66.5088 69.1237C66.6462 68.8032 66.8672 68.7066 67.1717 68.8338C67.6257 69.4486 68.1939 69.8673 68.8763 70.0902C67.9939 70.622 67.0785 71.1375 66.1301 71.6366C65.9687 72.1262 66.0948 72.5128 66.5088 72.7964C91.5982 58.657 116.63 44.4495 141.604 30.174C142.643 29.5608 143.558 28.8199 144.35 27.951C144.49 27.7096 144.458 27.5163 144.255 27.3711Z" fill="#373B40"/>
<path fill-rule="evenodd" clip-rule="evenodd" d="M76.452 70.6701C78.4657 75.1483 79.2865 79.8518 78.9141 84.7809C78.8511 84.7809 78.7878 84.7809 78.7248 84.7809C78.7251 84.3304 78.5674 83.9437 78.2513 83.6211C75.7761 80.8705 73.3454 78.0999 70.9596 75.3093C70.9172 74.8672 70.7908 74.4485 70.5808 74.0528C72.42 72.7272 74.377 71.5997 76.452 70.6701Z" fill="#2466A8"/>
<path fill-rule="evenodd" clip-rule="evenodd" d="M82.1338 67.384C85.9587 75.4357 87.4738 83.9408 86.6793 92.8995C84.1549 90.1618 81.6611 87.391 79.1982 84.5876C79.1352 84.7809 79.0719 84.9742 79.0088 85.1675C78.921 85.0527 78.8893 84.9238 78.9141 84.7809C79.2865 79.8518 78.4657 75.1483 76.452 70.6701C77.6515 69.8969 78.8511 69.1237 80.0505 68.3505C80.7732 68.0782 81.4677 67.7559 82.1338 67.384Z" fill="#F9F8F8"/>
<path fill-rule="evenodd" clip-rule="evenodd" d="M70.9596 75.3093C73.3454 78.0999 75.7761 80.8705 78.2513 83.6211C78.5674 83.9437 78.7251 84.3304 78.7248 84.7809C78.6079 85.7637 78.4185 86.7302 78.1566 87.6804C78.0302 87.9381 77.9041 88.1959 77.7778 88.4536C77.6965 88.1728 77.6649 87.8507 77.6831 87.4871C75.1437 84.864 72.7132 82.1579 70.3914 79.3686C70.8613 78.0646 71.0507 76.7115 70.9596 75.3093Z" fill="#1B4D7E"/>
<path fill-rule="evenodd" clip-rule="evenodd" d="M74.3687 66.0309C72.3604 67.1855 70.3401 68.3453 68.3081 69.5103C67.4844 68.5113 66.4744 67.8025 65.2778 67.384C63.6852 66.8606 62.6435 67.4405 62.1528 69.1237C61.9141 73.5646 63.4607 77.205 66.7929 80.0451C68.1515 80.7766 69.3509 80.551 70.3914 79.3686C72.7132 82.1579 75.1437 84.864 77.6831 87.4871C77.6649 87.8507 77.6965 88.1728 77.7778 88.4536C76.8655 91.0276 75.0979 92.6063 72.4748 93.1894C69.4636 93.2604 66.8121 92.2939 64.5202 90.29C58.5503 84.8401 54.9202 78.0425 53.6301 69.8969C53.0586 66.6019 53.3113 63.3802 54.3876 60.232C55.2448 57.8107 56.8547 56.1677 59.2172 55.3028C62.0988 54.9087 64.6871 55.6175 66.9823 57.4291C69.9615 59.856 72.4236 62.7234 74.3687 66.0309Z" fill="#2466A8"/>
<path fill-rule="evenodd" clip-rule="evenodd" d="M86.6793 92.8995C86.6793 92.9639 86.6793 93.0284 86.6793 93.0928C86.5443 93.9021 86.3549 94.6753 86.1111 95.4124C85.9011 95.5827 85.7117 95.9049 85.5429 96.3789C83.146 93.7711 80.7785 91.1293 78.4407 88.4536C78.4009 88.1525 78.3062 87.8948 78.1566 87.6804C78.4185 86.7302 78.6079 85.7637 78.7248 84.7809C78.7878 84.7809 78.8511 84.7809 78.9141 84.7809C78.8893 84.9238 78.921 85.0527 79.0088 85.1675C79.0719 84.9742 79.1352 84.7809 79.1982 84.5876C81.6611 87.391 84.1549 90.1618 86.6793 92.8995Z" fill="#E1E1E2"/>
<path fill-rule="evenodd" clip-rule="evenodd" d="M86.6793 93.0928C89.3308 96.1212 91.9823 99.1494 94.6338 102.178C94.6338 102.371 94.6338 102.564 94.6338 102.758C94.3501 103.629 94.0975 104.531 93.8763 105.464C93.8132 105.593 93.7499 105.722 93.6869 105.851C91.0984 102.887 88.5102 99.9226 85.9217 96.9588C85.9359 96.4357 85.999 95.9202 86.1111 95.4124C86.3549 94.6753 86.5443 93.9021 86.6793 93.0928Z" fill="#757B81"/>
<path fill-rule="evenodd" clip-rule="evenodd" d="M105.429 94.2526C105.688 98.1234 105.625 101.989 105.24 105.851C105.115 105.535 105.052 105.18 105.051 104.787C105.163 101.245 105.289 97.7331 105.429 94.2526Z" fill="#202225"/>
<path fill-rule="evenodd" clip-rule="evenodd" d="M102.588 111.456C100.013 108.536 97.4562 105.572 94.9179 102.564C94.8549 102.758 94.7916 102.951 94.7285 103.144C94.6407 103.03 94.609 102.901 94.6338 102.758C94.6338 102.564 94.6338 102.371 94.6338 102.178C95.2098 99.0576 95.5253 95.9003 95.5808 92.7062C95.149 82.5678 92.8763 72.9029 88.7626 63.7113C90.7897 62.422 92.873 61.1979 95.0126 60.0387C98.2556 67.3587 100.686 74.9617 102.304 82.8479C104.303 92.3739 104.398 101.91 102.588 111.456Z" fill="#F9F8F7"/>
<path fill-rule="evenodd" clip-rule="evenodd" d="M102.588 111.456C102.391 112.395 102.138 113.297 101.831 114.162C101.856 114.02 101.824 113.891 101.736 113.776C101.668 114.147 101.51 114.469 101.263 114.742C98.923 112.065 96.6187 109.359 94.3498 106.624C94.1897 106.216 94.032 105.829 93.8763 105.464C94.0975 104.531 94.3501 103.629 94.6338 102.758C94.609 102.901 94.6407 103.03 94.7285 103.144C94.7916 102.951 94.8549 102.758 94.9179 102.564C97.4562 105.572 100.013 108.536 102.588 111.456Z" fill="#E6E6E7"/>
<path fill-rule="evenodd" clip-rule="evenodd" d="M22.8535 52.1134C22.1302 52.6129 21.7515 52.4519 21.7172 51.6302C21.4647 51.5012 21.2121 51.5012 20.9596 51.6302C21.1391 51.7235 21.3285 51.7556 21.5278 51.7268C21.5278 52.1134 21.5278 52.5 21.5278 52.8866C21.3285 52.9154 21.1391 52.8833 20.9596 52.79C21.1757 52.6467 21.1757 52.4855 20.9596 52.3067C20.7507 52.2104 20.5613 52.1461 20.3914 52.1134C20.6518 51.7919 20.5888 51.5341 20.202 51.3402C20.3015 51.2064 20.4278 51.1098 20.5808 51.0503C20.2984 50.6594 20.3615 50.3374 20.7702 50.0838C20.5492 49.9871 20.3914 49.8261 20.2967 49.6005C20.2337 49.7938 20.1704 49.9871 20.1073 50.1804C19.6128 49.9662 19.1393 49.7086 18.6869 49.4072C18.8312 49.3278 19.0206 49.2957 19.2551 49.3106C19.3181 49.2462 19.3814 49.1816 19.4444 49.1173C19.2914 49.0577 19.1651 48.9611 19.0657 48.8273C19.2837 48.5894 19.5045 48.5894 19.7285 48.8273C19.8596 48.7258 19.9543 48.5969 20.0126 48.4407C19.8191 48.2756 19.6613 48.0823 19.5391 47.8608C19.3564 48.201 19.1354 48.2656 18.8763 48.0541C18.9757 47.9204 19.102 47.8237 19.2551 47.7642C19.1509 47.4075 18.9615 47.1176 18.6869 46.8943C18.4604 46.9612 18.4604 47.0579 18.6869 47.1843C18.2581 47.2299 17.8477 47.3265 17.4558 47.4742C17.3611 47.3776 17.2664 47.2809 17.1717 47.1843C17.539 47.0088 17.7283 46.7188 17.7399 46.3144C18.2176 46.3863 18.5963 46.2253 18.8763 45.8312C18.6965 45.7119 18.5388 45.744 18.4028 45.9278C18.2566 45.6671 18.0355 45.5061 17.7399 45.4446C17.8662 45.3802 17.9924 45.3157 18.1187 45.2513C17.2861 44.816 17.1283 45.0416 17.6452 45.9278C17.7812 45.744 17.939 45.7119 18.1187 45.8312C17.7886 46.0457 17.5361 46.3357 17.3611 46.701C17.1759 46.6088 17.0181 46.4801 16.8876 46.3144C16.7929 46.6688 16.5719 46.8943 16.2247 46.991C16.5013 47.1477 16.5643 47.309 16.4141 47.4742C16.1166 47.1176 15.9586 46.731 15.9407 46.3144C15.8935 46.5317 15.7988 46.725 15.6566 46.8943C15.5935 46.862 15.5302 46.83 15.4672 46.7977C15.716 46.2941 15.716 45.8109 15.4672 45.3479C16.7312 38.0648 19.7615 31.686 24.5581 26.2113C26.7785 23.9186 29.367 22.2112 32.3232 21.0889C32.5757 20.96 32.8284 20.96 33.0808 21.0889C29.4863 24.7827 26.9295 29.1319 25.4104 34.1366C23.6374 39.9856 22.7852 45.9779 22.8535 52.1134Z" fill="#676D74"/>
<path fill-rule="evenodd" clip-rule="evenodd" d="M22.8535 52.1134C23.2897 67.2974 26.8251 81.6659 33.4596 95.2191C33.4482 95.324 33.3852 95.3884 33.2702 95.4124C32.9314 94.4424 32.7104 94.4424 32.6073 95.4124C32.5443 95.348 32.481 95.2834 32.4179 95.2191C32.1588 95.5077 32.1272 95.7976 32.3232 96.0889C32.2238 96.2227 32.0975 96.3193 31.9444 96.3789C31.8054 95.9314 31.5528 95.5771 31.1869 95.3157C31.528 95.2544 31.591 95.1255 31.3763 94.9291C31.471 94.8325 31.5657 94.7358 31.6604 94.6392C31.8581 94.8562 31.9842 95.1139 32.0391 95.4124C32.1022 95.2191 32.1655 95.0258 32.2285 94.8325C32.2916 94.8968 32.3549 94.9614 32.4179 95.0258C32.5111 94.823 32.4797 94.6297 32.3232 94.4459C32.4496 94.3815 32.5757 94.3169 32.702 94.2526C32.4977 93.7933 32.2452 93.761 31.9444 94.1559C32.1246 94.2947 32.156 94.4557 32.0391 94.6392C31.7867 94.3815 31.534 94.3815 31.2816 94.6392C31.0679 94.9958 30.9732 95.3824 30.9975 95.799C30.1244 95.7804 30.0611 95.5871 30.8081 95.2191C30.6145 95.054 30.4568 94.8607 30.3346 94.6392C30.1884 94.8999 29.9674 95.061 29.6717 95.1224C29.798 95.1868 29.9242 95.2514 30.0505 95.3157C29.9196 95.522 29.8249 95.7476 29.7664 95.9923C29.6426 95.7611 29.5479 95.7611 29.4823 95.9923C29.8827 96.4019 30.2301 96.4019 30.524 95.9923C30.9003 96.1187 31.1528 96.3764 31.2816 96.7655C31.3446 96.7011 31.4079 96.6365 31.471 96.5722C31.5573 96.8126 31.4626 96.9737 31.1869 97.0554C31.2734 97.1354 31.3367 97.2321 31.3763 97.3454C31.0374 97.6744 30.7219 97.7066 30.4293 97.442C30.6422 97.3939 30.8316 97.2972 30.9975 97.1521C30.8509 96.918 30.6931 96.918 30.524 97.1521C30.4657 96.9959 30.371 96.8669 30.2399 96.7655C30.0598 96.9251 29.8704 96.9572 29.6717 96.8621C29.8518 96.7233 29.8833 96.5623 29.7664 96.3789C29.5147 96.571 29.2622 96.7643 29.0088 96.9588C28.6166 96.71 28.2062 96.4846 27.7778 96.2822C28.2829 96.1533 28.2829 96.0246 27.7778 95.8956C27.9573 95.8023 28.1467 95.7702 28.346 95.799C28.2738 96.271 28.4001 96.3999 28.7248 96.1856C28.8558 96.287 28.9505 96.416 29.0088 96.5722C29.1335 96.2613 29.0388 96.0358 28.7248 95.8956C28.8816 95.7188 29.071 95.59 29.2929 95.509C28.967 94.9442 28.5249 94.3643 27.9672 93.7693C28.3213 93.467 28.7001 93.467 29.1035 93.7693C29.0405 93.8337 28.9772 93.8983 28.9141 93.9626C29.2299 94.0916 29.5454 94.0916 29.8611 93.9626C29.5821 93.8254 29.4558 93.6 29.4823 93.2861C29.798 93.1572 30.1136 93.0284 30.4293 92.8995C30.4283 93.4442 30.6808 93.6698 31.1869 93.576C30.9715 93.1011 30.6874 92.6822 30.3346 92.3196C30.2715 92.4485 30.2083 92.5773 30.1452 92.7062C30.085 92.4044 29.9272 92.1789 29.6717 92.0296C30.0024 91.9386 30.3181 91.8097 30.6187 91.6431C30.4293 91.5787 30.2399 91.5141 30.0505 91.4498C30.1136 91.3854 30.1768 91.3208 30.2399 91.2564C29.824 91.0202 29.5399 90.6657 29.3876 90.1933C29.3246 90.3866 29.2613 90.5799 29.1982 90.7732C28.9867 90.4931 28.8604 90.1709 28.8194 89.8067C28.7248 90.161 28.5037 90.3866 28.1566 90.4833C28.5761 90.8588 28.5761 91.1809 28.1566 91.4498C28.2829 91.5787 28.409 91.7074 28.5354 91.8363C28.3552 91.9751 28.3238 92.1361 28.4407 92.3196C29.3977 91.5052 29.5554 91.6664 28.9141 92.8028C29.0007 92.8829 29.064 92.9795 29.1035 93.0928C28.6189 93.0709 28.1138 93.1676 27.5884 93.3827C27.295 93.6174 27.0742 93.9073 26.9255 94.2526C26.5223 93.9891 26.4276 94.0537 26.6414 94.4459C26.5467 94.5102 26.452 94.5748 26.3573 94.6392C26.0066 94.2412 25.7857 93.8223 25.6944 93.3827C26.0024 92.8846 25.8763 92.6913 25.3157 92.8028C25.1893 92.9961 25.0632 93.1894 24.9369 93.3827C25.1725 93.4709 25.3302 93.3742 25.4104 93.0928C25.4477 93.7098 25.6054 94.2897 25.8838 94.8325C25.714 94.8651 25.5246 94.9295 25.3157 95.0258C25.395 95.2523 25.5212 95.4456 25.6944 95.6057C25.5967 95.3625 25.7229 95.1692 26.0732 95.0258C26.2984 94.8462 26.5509 94.7818 26.8308 94.8325C26.7893 95.0596 26.8524 95.2529 27.0202 95.4124C27.056 94.6349 27.3086 94.6349 27.7778 95.4124C27.4655 95.5376 27.213 95.7309 27.0202 95.9923C27.2291 96.0885 27.4185 96.1529 27.5884 96.1856C27.3359 96.3145 27.0833 96.4432 26.8308 96.5722C27.0691 96.4724 27.2585 96.6012 27.399 96.9588C27.2524 97.1928 27.0946 97.1928 26.9255 96.9588C26.834 97.142 26.8026 97.3353 26.8308 97.5387C27.4761 97.4662 27.5708 97.6595 27.1149 98.1186C26.8939 97.7643 26.6098 97.4743 26.2626 97.2487C26.5384 97.167 26.6331 97.0059 26.5467 96.7655C26.2412 96.9823 26.0202 96.8857 25.8838 96.4755C25.9469 96.4111 26.0102 96.3466 26.0732 96.2822C25.5674 96.0406 25.1571 95.6863 24.8422 95.2191C24.2539 95.7075 24.2855 96.0619 24.9369 96.2822C24.6694 96.5554 24.4801 96.8776 24.3687 97.2487C24.7314 98.2794 25.1734 99.2782 25.6944 100.245C25.671 100.362 25.6079 100.427 25.5051 100.438C17.6134 85.1354 13.9833 68.8338 14.6149 51.5335C14.8064 49.4536 15.0905 47.3917 15.4672 45.3479C15.716 45.8109 15.716 46.2941 15.4672 46.7977C15.5302 46.83 15.5935 46.862 15.6566 46.8943C15.7988 46.725 15.8935 46.5317 15.9407 46.3144C15.9586 46.731 16.1166 47.1176 16.4141 47.4742C16.5643 47.309 16.5013 47.1477 16.2247 46.991C16.5719 46.8943 16.7929 46.6688 16.8876 46.3144C17.0181 46.4801 17.1759 46.6088 17.3611 46.701C17.5361 46.3357 17.7886 46.0457 18.1187 45.8312C17.939 45.7119 17.7812 45.744 17.6452 45.9278C17.1283 45.0416 17.2861 44.816 18.1187 45.2513C17.9924 45.3157 17.8662 45.3802 17.7399 45.4446C18.0355 45.5061 18.2566 45.6671 18.4028 45.9278C18.5388 45.744 18.6965 45.7119 18.8763 45.8312C18.5963 46.2253 18.2176 46.3863 17.7399 46.3144C17.7283 46.7188 17.539 47.0088 17.1717 47.1843C17.2664 47.2809 17.3611 47.3776 17.4558 47.4742C17.8477 47.3265 18.2581 47.2299 18.6869 47.1843C18.4604 47.0579 18.4604 46.9612 18.6869 46.8943C18.9615 47.1176 19.1509 47.4075 19.2551 47.7642C19.102 47.8237 18.9757 47.9204 18.8763 48.0541C19.1354 48.2656 19.3564 48.201 19.5391 47.8608C19.6613 48.0823 19.8191 48.2756 20.0126 48.4407C19.9543 48.5969 19.8596 48.7258 19.7285 48.8273C19.5045 48.5894 19.2837 48.5894 19.0657 48.8273C19.1651 48.9611 19.2914 49.0577 19.4444 49.1173C19.3814 49.1816 19.3181 49.2462 19.2551 49.3106C19.0206 49.2957 18.8312 49.3278 18.6869 49.4072C19.1393 49.7086 19.6128 49.9662 20.1073 50.1804C20.1704 49.9871 20.2337 49.7938 20.2967 49.6005C20.3914 49.8261 20.5492 49.9871 20.7702 50.0838C20.3615 50.3374 20.2984 50.6594 20.5808 51.0503C20.4278 51.1098 20.3015 51.2064 20.202 51.3402C20.5888 51.5341 20.6518 51.7919 20.3914 52.1134C20.5613 52.1461 20.7507 52.2104 20.9596 52.3067C21.1757 52.4855 21.1757 52.6467 20.9596 52.79C21.1391 52.8833 21.3285 52.9154 21.5278 52.8866C21.5278 52.5 21.5278 52.1134 21.5278 51.7268C21.3285 51.7556 21.1391 51.7235 20.9596 51.6302C21.2121 51.5012 21.4647 51.5012 21.7172 51.6302C21.7515 52.4519 22.1302 52.6129 22.8535 52.1134Z" fill="#676D74"/>
<path fill-rule="evenodd" clip-rule="evenodd" d="M33.4596 95.2191C36.1674 100.618 39.2607 105.772 42.7399 110.683C42.0533 110.462 41.3588 110.527 40.6566 110.876C40.4806 111.106 40.4176 111.364 40.4672 111.649C40.6664 111.678 40.8558 111.646 41.0354 111.553C40.7596 111.471 40.6649 111.31 40.7513 111.07C40.9407 111.199 41.1301 111.327 41.3194 111.456C41.478 111.165 41.699 111.068 41.9823 111.166C41.6299 112.044 41.0931 112.269 40.3725 111.843C40.281 112.026 40.2496 112.219 40.2778 112.423C40.6246 112.529 40.9401 112.529 41.2248 112.423C41.6666 112.713 42.1087 113.003 42.5505 113.293C42.1338 113.18 41.7234 113.212 41.3194 113.389C40.4778 112.904 40.4462 113.001 41.2248 113.679C40.6588 114.283 40.5641 114.96 40.9407 115.709C41.1462 115.555 41.3672 115.427 41.6035 115.322C41.81 115.494 41.81 115.688 41.6035 115.902C41.7299 116.031 41.856 116.16 41.9823 116.289C41.4585 116.604 40.8903 116.732 40.2778 116.675C40.2456 116.931 40.3087 117.156 40.4672 117.352C40.3204 117.59 40.131 117.654 39.899 117.545C40.5087 115.91 40.2878 115.749 39.2361 117.062C39.0308 116.837 38.873 116.579 38.7626 116.289C39.0121 116.325 39.2645 116.196 39.5202 115.902C39.4571 115.773 39.3939 115.644 39.3308 115.515C39.5801 115.263 39.7694 114.973 39.899 114.646C39.3939 114.517 39.3939 114.388 39.899 114.259C39.7096 114.195 39.5202 114.13 39.3308 114.066C39.5518 113.969 39.7096 113.808 39.8043 113.582C40.0672 113.786 40.3513 113.818 40.6566 113.679C40.2778 113.55 39.899 113.421 39.5202 113.293C39.6465 113.228 39.7727 113.164 39.899 113.099C39.6232 112.661 39.4653 112.178 39.4255 111.649C38.998 112.005 38.5246 112.263 38.0051 112.423C37.9729 112.678 38.0359 112.904 38.1944 113.099C37.942 113.164 37.6893 113.228 37.4369 113.293C37.6893 113.486 37.6893 113.679 37.4369 113.872C37.7694 113.899 38.085 113.803 38.3838 113.582C38.6104 113.649 38.6104 113.746 38.3838 113.872C38.5967 113.921 38.7861 114.017 38.952 114.162C38.5694 114.208 38.1592 114.208 37.721 114.162C37.4503 114.714 37.103 114.811 36.6793 114.452C36.7658 114.372 36.8291 114.276 36.8687 114.162C36.559 113.934 36.2433 113.934 35.9217 114.162C35.9571 113.908 35.8308 113.65 35.5429 113.389C35.4319 113.43 35.3372 113.494 35.2588 113.582C35.0846 113.04 35.2424 112.621 35.7323 112.326C35.449 112.228 35.228 112.325 35.0694 112.616C34.7693 112.447 34.5799 112.189 34.5013 111.843C33.8954 111.985 33.864 111.824 34.4066 111.36C34.0986 111.397 33.7829 111.397 33.4596 111.36C33.8007 111.298 33.8638 111.169 33.649 110.973C34.1391 110.981 34.581 110.756 34.9748 110.296C35.2367 110.794 35.3946 110.73 35.4482 110.103C35.606 110.264 35.764 110.425 35.9217 110.586C35.6372 110.699 35.3848 110.86 35.1641 111.07C35.2037 111.183 35.267 111.28 35.3535 111.36C34.9528 111.586 34.8266 111.876 34.9748 112.229C35.2056 112.082 35.395 111.889 35.5429 111.649C35.7918 111.807 36.0128 112 36.2058 112.229C36.3297 111.998 36.4244 111.998 36.4899 112.229C36.324 112.375 36.1346 112.471 35.9217 112.519C36.1816 112.597 36.434 112.694 36.6793 112.809C36.7571 112.662 36.7886 112.469 36.774 112.229C36.916 112.108 37.074 112.012 37.2475 111.939C37.0289 111.763 37.0605 111.602 37.3422 111.456C37.4782 111.64 37.6359 111.672 37.8157 111.553C37.7526 111.231 37.6893 110.909 37.6263 110.586C37.806 110.467 37.9638 110.499 38.0998 110.683C38.4662 110.246 38.9397 110.053 39.5202 110.103C39.477 109.745 39.6034 109.584 39.899 109.62C39.789 109.792 39.7257 109.986 39.7096 110.2C40.0092 110.543 40.1355 110.897 40.0884 111.263C40.2266 110.986 40.416 110.76 40.6566 110.586C40.514 110.299 40.3562 110.267 40.1831 110.49C39.8772 110.198 39.8772 109.94 40.1831 109.716C40.3783 110.088 40.6624 110.088 41.0354 109.716C40.4291 109.431 39.7346 109.206 38.952 109.04C39.2045 108.976 39.4571 108.911 39.7096 108.847C39.024 108.205 38.3297 108.205 37.6263 108.847C38.0975 109.172 38.0344 109.43 37.4369 109.62C37.6497 109.668 37.8391 109.765 38.0051 109.91C37.7005 110.053 37.3848 110.086 37.0581 110.006C37.3013 110.257 37.2696 110.483 36.9634 110.683C36.571 110.401 36.413 110.079 36.4899 109.716C36.0691 110.531 35.848 110.466 35.827 109.523C35.5746 109.652 35.3219 109.781 35.0694 109.91C35.028 109.632 34.9333 109.374 34.7854 109.137C34.6543 109.238 34.5596 109.367 34.5013 109.523C33.9647 109.298 33.8068 109.459 34.0278 110.006C33.5871 110.392 33.303 110.876 33.1755 111.456C33.0177 111.263 32.8598 111.07 32.702 110.876C32.3005 111.051 32.2372 111.309 32.5126 111.649C33.1357 111.894 33.7672 112.119 34.4066 112.326C34.1274 112.58 33.8117 112.774 33.4596 112.906C33.795 113.314 34.0791 113.282 34.3119 112.809C34.5013 112.874 34.6907 112.938 34.8801 113.003C34.9312 113.279 34.8051 113.473 34.5013 113.582C34.3869 113.16 34.166 113.128 33.8384 113.486C33.9638 113.743 34.1846 113.969 34.5013 114.162C34.7471 114.442 34.7787 114.7 34.596 114.936C31.1429 110.405 28.1126 105.573 25.5051 100.438C25.6079 100.427 25.671 100.362 25.6944 100.245C25.1734 99.2782 24.7314 98.2794 24.3687 97.2487C24.4801 96.8776 24.6694 96.5554 24.9369 96.2822C24.2855 96.0619 24.2539 95.7075 24.8422 95.2191C25.1571 95.6863 25.5674 96.0406 26.0732 96.2822C26.0102 96.3466 25.9469 96.4111 25.8838 96.4755C26.0202 96.8857 26.2412 96.9823 26.5467 96.7655C26.6331 97.0059 26.5384 97.167 26.2626 97.2487C26.6098 97.4743 26.8939 97.7643 27.1149 98.1186C27.5708 97.6595 27.4761 97.4662 26.8308 97.5387C26.8026 97.3353 26.834 97.142 26.9255 96.9588C27.0946 97.1928 27.2524 97.1928 27.399 96.9588C27.2585 96.6012 27.0691 96.4724 26.8308 96.5722C27.0833 96.4432 27.3359 96.3145 27.5884 96.1856C27.4185 96.1529 27.2291 96.0885 27.0202 95.9923C27.213 95.7309 27.4655 95.5376 27.7778 95.4124C27.3086 94.6349 27.056 94.6349 27.0202 95.4124C26.8524 95.2529 26.7893 95.0596 26.8308 94.8325C26.5509 94.7818 26.2984 94.8462 26.0732 95.0258C25.7229 95.1692 25.5967 95.3625 25.6944 95.6057C25.5212 95.4456 25.395 95.2523 25.3157 95.0258C25.5246 94.9295 25.714 94.8651 25.8838 94.8325C25.6054 94.2897 25.4477 93.7098 25.4104 93.0928C25.3302 93.3742 25.1725 93.4709 24.9369 93.3827C25.0632 93.1894 25.1893 92.9961 25.3157 92.8028C25.8763 92.6913 26.0024 92.8846 25.6944 93.3827C25.7857 93.8223 26.0066 94.2412 26.3573 94.6392C26.452 94.5748 26.5467 94.5102 26.6414 94.4459C26.4276 94.0537 26.5223 93.9891 26.9255 94.2526C27.0742 93.9073 27.295 93.6174 27.5884 93.3827C28.1138 93.1676 28.6189 93.0709 29.1035 93.0928C29.064 92.9795 29.0007 92.8829 28.9141 92.8028C29.5554 91.6664 29.3977 91.5052 28.4407 92.3196C28.3238 92.1361 28.3552 91.9751 28.5354 91.8363C28.409 91.7074 28.2829 91.5787 28.1566 91.4498C28.5761 91.1809 28.5761 90.8588 28.1566 90.4833C28.5037 90.3866 28.7248 90.161 28.8194 89.8067C28.8604 90.1709 28.9867 90.4931 29.1982 90.7732C29.2613 90.5799 29.3246 90.3866 29.3876 90.1933C29.5399 90.6657 29.824 91.0202 30.2399 91.2564C30.1768 91.3208 30.1136 91.3854 30.0505 91.4498C30.2399 91.5141 30.4293 91.5787 30.6187 91.6431C30.3181 91.8097 30.0024 91.9386 29.6717 92.0296C29.9272 92.1789 30.085 92.4044 30.1452 92.7062C30.2083 92.5773 30.2715 92.4485 30.3346 92.3196C30.6874 92.6822 30.9715 93.1011 31.1869 93.576C30.6808 93.6698 30.4283 93.4442 30.4293 92.8995C30.1136 93.0284 29.798 93.1572 29.4823 93.2861C29.4558 93.6 29.5821 93.8254 29.8611 93.9626C29.5454 94.0916 29.2299 94.0916 28.9141 93.9626C28.9772 93.8983 29.0405 93.8337 29.1035 93.7693C28.7001 93.467 28.3213 93.467 27.9672 93.7693C28.5249 94.3643 28.967 94.9442 29.2929 95.509C29.071 95.59 28.8816 95.7188 28.7248 95.8956C29.0388 96.0358 29.1335 96.2613 29.0088 96.5722C28.9505 96.416 28.8558 96.287 28.7248 96.1856C28.4001 96.3999 28.2738 96.271 28.346 95.799C28.1467 95.7702 27.9573 95.8023 27.7778 95.8956C28.2829 96.0246 28.2829 96.1533 27.7778 96.2822C28.2062 96.4846 28.6166 96.71 29.0088 96.9588C29.2622 96.7643 29.5147 96.571 29.7664 96.3789C29.8833 96.5623 29.8518 96.7233 29.6717 96.8621C29.8704 96.9572 30.0598 96.9251 30.2399 96.7655C30.371 96.8669 30.4657 96.9959 30.524 97.1521C30.6931 96.918 30.8509 96.918 30.9975 97.1521C30.8316 97.2972 30.6422 97.3939 30.4293 97.442C30.7219 97.7066 31.0374 97.6744 31.3763 97.3454C31.3367 97.2321 31.2734 97.1354 31.1869 97.0554C31.4626 96.9737 31.5573 96.8126 31.471 96.5722C31.4079 96.6365 31.3446 96.7011 31.2816 96.7655C31.1528 96.3764 30.9003 96.1187 30.524 95.9923C30.2301 96.4019 29.8827 96.4019 29.4823 95.9923C29.5479 95.7611 29.6426 95.7611 29.7664 95.9923C29.8249 95.7476 29.9196 95.522 30.0505 95.3157C29.9242 95.2514 29.798 95.1868 29.6717 95.1224C29.9674 95.061 30.1884 94.8999 30.3346 94.6392C30.4568 94.8607 30.6145 95.054 30.8081 95.2191C30.0611 95.5871 30.1244 95.7804 30.9975 95.799C30.9732 95.3824 31.0679 94.9958 31.2816 94.6392C31.534 94.3815 31.7867 94.3815 32.0391 94.6392C32.156 94.4557 32.1246 94.2947 31.9444 94.1559C32.2452 93.761 32.4977 93.7933 32.702 94.2526C32.5757 94.3169 32.4496 94.3815 32.3232 94.4459C32.4797 94.6297 32.5111 94.823 32.4179 95.0258C32.3549 94.9614 32.2916 94.8968 32.2285 94.8325C32.1655 95.0258 32.1022 95.2191 32.0391 95.4124C31.9842 95.1139 31.8581 94.8562 31.6604 94.6392C31.5657 94.7358 31.471 94.8325 31.3763 94.9291C31.591 95.1255 31.528 95.2544 31.1869 95.3157C31.5528 95.5771 31.8054 95.9314 31.9444 96.3789C32.0975 96.3193 32.2238 96.2227 32.3232 96.0889C32.1272 95.7976 32.1588 95.5077 32.4179 95.2191C32.481 95.2834 32.5443 95.348 32.6073 95.4124C32.7104 94.4424 32.9314 94.4424 33.2702 95.4124C33.3852 95.3884 33.4482 95.324 33.4596 95.2191Z" fill="#676D74"/>
<path fill-rule="evenodd" clip-rule="evenodd" d="M42.7399 110.683C45.7435 114.523 48.9632 118.196 52.399 121.701C52.2104 121.718 52.0526 121.653 51.9255 121.508C51.7234 121.852 51.4393 121.949 51.0732 121.798C51.2301 121.621 51.4194 121.492 51.6414 121.411C51.5151 121.347 51.389 121.282 51.2626 121.218C51.5151 121.089 51.5151 120.96 51.2626 120.831C51.0732 120.767 50.8838 120.702 50.6945 120.638C50.7575 120.574 50.8208 120.509 50.8838 120.445C50.6945 120.38 50.5051 120.316 50.3157 120.251C50.3929 119.698 50.2352 119.666 49.8422 120.155C49.5791 119.426 49.3897 119.426 49.274 120.155C49.2107 119.701 49.2424 119.25 49.3687 118.802C48.9929 118.824 48.6774 118.695 48.4217 118.415C48.2838 118.742 48.0944 119.032 47.8535 119.285C47.5818 119.225 47.3293 119.257 47.096 119.381C47.0329 119.349 46.9696 119.317 46.9066 119.285C47.1314 119.088 47.3208 118.862 47.4747 118.608C47.3801 118.544 47.2854 118.479 47.1907 118.415C46.9316 118.647 46.6475 118.841 46.3384 118.995C46.1632 118.774 46.0052 118.774 45.8649 118.995C45.6916 118.835 45.5655 118.642 45.4861 118.415C45.3151 118.647 45.0943 118.808 44.8232 118.898C45.0507 119.073 45.2086 119.298 45.2967 119.575C45.6505 119.348 45.9979 119.38 46.3384 119.671C46.1174 119.768 45.9596 119.929 45.8649 120.155C45.5649 119.892 45.2176 119.763 44.8232 119.768C44.9607 120.168 45.0869 120.49 45.202 120.735C45.8518 120.215 46.4831 120.248 47.096 120.831C46.8973 120.926 46.7079 120.894 46.5278 120.735C45.9384 120.899 45.8751 121.124 46.3384 121.411C45.8666 121.532 45.8666 121.693 46.3384 121.894C46.053 122.134 45.8319 122.069 45.6755 121.701C44.7221 122.583 44.3433 122.455 44.5391 121.314C44.6736 121.599 44.8944 121.728 45.202 121.701C45.2302 121.498 45.1988 121.304 45.1073 121.121C44.9066 121.074 44.6856 121.074 44.4445 121.121C44.135 121.031 43.9141 120.837 43.7816 120.541C43.6225 121.114 43.4331 121.179 43.2134 120.735C43.1503 120.863 43.0871 120.992 43.024 121.121C42.888 120.937 42.7302 120.905 42.5505 121.024C42.7399 121.347 42.9924 121.604 43.3081 121.798C43.1094 121.893 42.92 121.861 42.7399 121.701C42.4679 122.203 42.5626 122.332 43.024 122.088C43.2454 122.186 43.4032 122.347 43.4975 122.571C43.1973 122.587 42.9448 122.619 42.7399 122.668C42.8516 122.919 43.041 123.08 43.3081 123.151C42.967 123.212 42.9039 123.341 43.1187 123.537C42.8429 123.619 42.7482 123.78 42.8346 124.021C43.3988 124.435 43.9354 124.886 44.4445 125.374C44.6789 124.903 44.9946 124.709 45.3914 124.794C45.3028 125.11 45.1134 125.335 44.8232 125.47C44.9503 125.661 44.9503 125.887 44.8232 126.147C41.0825 122.716 37.6734 118.979 34.596 114.936C34.7787 114.7 34.7471 114.442 34.5013 114.162C34.1846 113.969 33.9638 113.743 33.8384 113.486C34.166 113.128 34.3869 113.16 34.5013 113.582C34.8051 113.473 34.9312 113.279 34.8801 113.003C34.6907 112.938 34.5013 112.874 34.3119 112.809C34.0791 113.282 33.795 113.314 33.4596 112.906C33.8117 112.774 34.1274 112.58 34.4066 112.326C33.7672 112.119 33.1357 111.894 32.5126 111.649C32.2372 111.309 32.3005 111.051 32.702 110.876C32.8598 111.07 33.0177 111.263 33.1755 111.456C33.303 110.876 33.5871 110.392 34.0278 110.006C33.8068 109.459 33.9647 109.298 34.5013 109.523C34.5596 109.367 34.6543 109.238 34.7854 109.137C34.9333 109.374 35.028 109.632 35.0694 109.91C35.3219 109.781 35.5746 109.652 35.827 109.523C35.848 110.466 36.0691 110.531 36.4899 109.716C36.413 110.079 36.571 110.401 36.9634 110.683C37.2696 110.483 37.3013 110.257 37.0581 110.006C37.3848 110.086 37.7005 110.053 38.0051 109.91C37.8391 109.765 37.6497 109.668 37.4369 109.62C38.0344 109.43 38.0975 109.172 37.6263 108.847C38.3297 108.205 39.024 108.205 39.7096 108.847C39.4571 108.911 39.2045 108.976 38.952 109.04C39.7346 109.206 40.4291 109.431 41.0354 109.716C40.6624 110.088 40.3783 110.088 40.1831 109.716C39.8772 109.94 39.8772 110.198 40.1831 110.49C40.3562 110.267 40.514 110.299 40.6566 110.586C40.416 110.76 40.2266 110.986 40.0884 111.263C40.1355 110.897 40.0092 110.543 39.7096 110.2C39.7257 109.986 39.789 109.792 39.899 109.62C39.6034 109.584 39.477 109.745 39.5202 110.103C38.9397 110.053 38.4662 110.246 38.0998 110.683C37.9638 110.499 37.806 110.467 37.6263 110.586C37.6893 110.909 37.7526 111.231 37.8157 111.553C37.6359 111.672 37.4782 111.64 37.3422 111.456C37.0605 111.602 37.0289 111.763 37.2475 111.939C37.074 112.012 36.916 112.108 36.774 112.229C36.7886 112.469 36.7571 112.662 36.6793 112.809C36.434 112.694 36.1816 112.597 35.9217 112.519C36.1346 112.471 36.324 112.375 36.4899 112.229C36.4244 111.998 36.3297 111.998 36.2058 112.229C36.0128 112 35.7918 111.807 35.5429 111.649C35.395 111.889 35.2056 112.082 34.9748 112.229C34.8266 111.876 34.9528 111.586 35.3535 111.36C35.267 111.28 35.2037 111.183 35.1641 111.07C35.3848 110.86 35.6372 110.699 35.9217 110.586C35.764 110.425 35.606 110.264 35.4482 110.103C35.3946 110.73 35.2367 110.794 34.9748 110.296C34.581 110.756 34.1391 110.981 33.649 110.973C33.8638 111.169 33.8007 111.298 33.4596 111.36C33.7829 111.397 34.0986 111.397 34.4066 111.36C33.864 111.824 33.8954 111.985 34.5013 111.843C34.5799 112.189 34.7693 112.447 35.0694 112.616C35.228 112.325 35.449 112.228 35.7323 112.326C35.2424 112.621 35.0846 113.04 35.2588 113.582C35.3372 113.494 35.4319 113.43 35.5429 113.389C35.8308 113.65 35.9571 113.908 35.9217 114.162C36.2433 113.934 36.559 113.934 36.8687 114.162C36.8291 114.276 36.7658 114.372 36.6793 114.452C37.103 114.811 37.4503 114.714 37.721 114.162C38.1592 114.208 38.5694 114.208 38.952 114.162C38.7861 114.017 38.5967 113.921 38.3838 113.872C38.6104 113.746 38.6104 113.649 38.3838 113.582C38.085 113.803 37.7694 113.899 37.4369 113.872C37.6893 113.679 37.6893 113.486 37.4369 113.293C37.6893 113.228 37.942 113.164 38.1944 113.099C38.0359 112.904 37.9729 112.678 38.0051 112.423C38.5246 112.263 38.998 112.005 39.4255 111.649C39.4653 112.178 39.6232 112.661 39.899 113.099C39.7727 113.164 39.6465 113.228 39.5202 113.293C39.899 113.421 40.2778 113.55 40.6566 113.679C40.3513 113.818 40.0672 113.786 39.8043 113.582C39.7096 113.808 39.5518 113.969 39.3308 114.066C39.5202 114.13 39.7096 114.195 39.899 114.259C39.3939 114.388 39.3939 114.517 39.899 114.646C39.7694 114.973 39.5801 115.263 39.3308 115.515C39.3939 115.644 39.4571 115.773 39.5202 115.902C39.2645 116.196 39.0121 116.325 38.7626 116.289C38.873 116.579 39.0308 116.837 39.2361 117.062C40.2878 115.749 40.5087 115.91 39.899 117.545C40.131 117.654 40.3204 117.59 40.4672 117.352C40.3087 117.156 40.2456 116.931 40.2778 116.675C40.8903 116.732 41.4585 116.604 41.9823 116.289C41.856 116.16 41.7299 116.031 41.6035 115.902C41.81 115.688 41.81 115.494 41.6035 115.322C41.3672 115.427 41.1462 115.555 40.9407 115.709C40.5641 114.96 40.6588 114.283 41.2248 113.679C40.4462 113.001 40.4778 112.904 41.3194 113.389C41.7234 113.212 42.1338 113.18 42.5505 113.293C42.1087 113.003 41.6666 112.713 41.2248 112.423C40.9401 112.529 40.6246 112.529 40.2778 112.423C40.2496 112.219 40.281 112.026 40.3725 111.843C41.0931 112.269 41.6299 112.044 41.9823 111.166C41.699 111.068 41.478 111.165 41.3194 111.456C41.1301 111.327 40.9407 111.199 40.7513 111.07C40.6649 111.31 40.7596 111.471 41.0354 111.553C40.8558 111.646 40.6664 111.678 40.4672 111.649C40.4176 111.364 40.4806 111.106 40.6566 110.876C41.3588 110.527 42.0533 110.462 42.7399 110.683Z" fill="#676D74"/>
<path fill-rule="evenodd" clip-rule="evenodd" d="M52.399 121.701C55.848 124.771 59.5098 127.542 63.3838 130.013C63.1624 129.969 62.9098 130.065 62.6263 130.303C62.8058 130.396 62.9952 130.428 63.1945 130.399C63.1945 130.593 63.1945 130.786 63.1945 130.979C62.9719 130.937 62.7825 131.001 62.6263 131.173C62.9132 131.568 63.0712 132.02 63.0998 132.526C63.135 132.062 63.2297 131.611 63.3838 131.173C63.6132 131.322 63.6132 131.483 63.3838 131.656C63.5102 131.914 63.6996 132.107 63.952 132.236C63.8954 132.491 63.8638 132.781 63.8573 133.106C63.5931 133.36 63.4037 133.295 63.2891 132.912C63.2261 132.977 63.1628 133.041 63.0998 133.106C62.8657 132.712 62.5185 132.486 62.0581 132.429C62.271 132.381 62.4604 132.284 62.6263 132.139C62.4102 131.96 62.4102 131.799 62.6263 131.656C62.4999 131.592 62.3738 131.527 62.2475 131.463C62.674 130.724 62.5477 130.047 61.8687 129.433C61.7908 129.58 61.7594 129.774 61.774 130.013C61.6477 129.884 61.5215 129.755 61.3952 129.626C60.9586 129.921 60.6746 130.307 60.5429 130.786C60.0073 130.6 59.5022 130.632 59.0278 130.883C59.2965 131.316 59.6753 131.766 60.1641 132.236C59.6384 132.58 59.7015 132.773 60.3535 132.816C60.1087 132.91 59.856 132.943 59.596 132.912C59.6282 133.168 59.5651 133.394 59.4066 133.589C59.8884 133.801 59.8884 134.027 59.4066 134.265C59.2755 134.164 59.1808 134.035 59.1225 133.879C58.9015 134.169 58.6806 134.459 58.4596 134.749C58.7429 134.847 58.964 134.75 59.1225 134.459C59.3835 134.79 59.6992 135.048 60.0695 135.232C60.3143 134.887 60.409 134.564 60.3535 134.265C60.4799 134.459 60.606 134.652 60.7323 134.845C61.1168 134.137 61.748 133.976 62.6263 134.362C62.5632 134.426 62.4999 134.491 62.4369 134.555C63.6996 134.684 63.6996 134.813 62.4369 134.942C62.5632 135.006 62.6893 135.071 62.8157 135.135C62.6655 135.345 62.5391 135.571 62.4369 135.812C62.6755 135.982 62.8963 136.176 63.0998 136.392C63.1628 136.327 63.2261 136.263 63.2891 136.198C63.3979 136.584 63.6189 136.873 63.952 137.068C63.8395 137.158 63.7132 137.19 63.5732 137.165C56.4259 135.012 50.1759 131.34 44.8232 126.147C44.9503 125.887 44.9503 125.661 44.8232 125.47C45.1134 125.335 45.3028 125.11 45.3914 124.794C44.9946 124.709 44.6789 124.903 44.4445 125.374C43.9354 124.886 43.3988 124.435 42.8346 124.021C42.7482 123.78 42.8429 123.619 43.1187 123.537C42.9039 123.341 42.967 123.212 43.3081 123.151C43.041 123.08 42.8516 122.919 42.7399 122.668C42.9448 122.619 43.1973 122.587 43.4975 122.571C43.4032 122.347 43.2454 122.186 43.024 122.088C42.5626 122.332 42.4679 122.203 42.7399 121.701C42.92 121.861 43.1094 121.893 43.3081 121.798C42.9924 121.604 42.7399 121.347 42.5505 121.024C42.7302 120.905 42.888 120.937 43.024 121.121C43.0871 120.992 43.1503 120.863 43.2134 120.735C43.4331 121.179 43.6225 121.114 43.7816 120.541C43.9141 120.837 44.135 121.031 44.4445 121.121C44.6856 121.074 44.9066 121.074 45.1073 121.121C45.1988 121.304 45.2302 121.498 45.202 121.701C44.8944 121.728 44.6736 121.599 44.5391 121.314C44.3433 122.455 44.7221 122.583 45.6755 121.701C45.8319 122.069 46.053 122.134 46.3384 121.894C45.8666 121.693 45.8666 121.532 46.3384 121.411C45.8751 121.124 45.9384 120.899 46.5278 120.735C46.7079 120.894 46.8973 120.926 47.096 120.831C46.4831 120.248 45.8518 120.215 45.202 120.735C45.0869 120.49 44.9607 120.168 44.8232 119.768C45.2176 119.763 45.5649 119.892 45.8649 120.155C45.9596 119.929 46.1174 119.768 46.3384 119.671C45.9979 119.38 45.6505 119.348 45.2967 119.575C45.2086 119.298 45.0507 119.073 44.8232 118.898C45.0943 118.808 45.3151 118.647 45.4861 118.415C45.5655 118.642 45.6916 118.835 45.8649 118.995C46.0052 118.774 46.1632 118.774 46.3384 118.995C46.6475 118.841 46.9316 118.647 47.1907 118.415C47.2854 118.479 47.3801 118.544 47.4747 118.608C47.3208 118.862 47.1314 119.088 46.9066 119.285C46.9696 119.317 47.0329 119.349 47.096 119.381C47.3293 119.257 47.5818 119.225 47.8535 119.285C48.0944 119.032 48.2838 118.742 48.4217 118.415C48.6774 118.695 48.9929 118.824 49.3687 118.802C49.2424 119.25 49.2107 119.701 49.274 120.155C49.3897 119.426 49.5791 119.426 49.8422 120.155C50.2352 119.666 50.3929 119.698 50.3157 120.251C50.5051 120.316 50.6945 120.38 50.8838 120.445C50.8208 120.509 50.7575 120.574 50.6945 120.638C50.8838 120.702 51.0732 120.767 51.2626 120.831C51.5151 120.96 51.5151 121.089 51.2626 121.218C51.389 121.282 51.5151 121.347 51.6414 121.411C51.4194 121.492 51.2301 121.621 51.0732 121.798C51.4393 121.949 51.7234 121.852 51.9255 121.508C52.0526 121.653 52.2104 121.718 52.399 121.701Z" fill="#676D74"/>
<path fill-rule="evenodd" clip-rule="evenodd" d="M63.3838 130.013C66.5562 131.855 69.9022 133.305 73.4217 134.362C76.1719 134.888 78.8865 135.242 81.5657 135.425C78.7035 136.667 75.7365 137.537 72.6641 138.035C69.5505 138.352 66.5202 138.062 63.5732 137.165C63.7132 137.19 63.8395 137.158 63.952 137.068C63.6189 136.873 63.3979 136.584 63.2891 136.198C63.2261 136.263 63.1628 136.327 63.0998 136.392C62.8963 136.176 62.6755 135.982 62.4369 135.812C62.5391 135.571 62.6655 135.345 62.8157 135.135C62.6893 135.071 62.5632 135.006 62.4369 134.942C63.6996 134.813 63.6996 134.684 62.4369 134.555C62.4999 134.491 62.5632 134.426 62.6263 134.362C61.748 133.976 61.1168 134.137 60.7323 134.845C60.606 134.652 60.4799 134.459 60.3535 134.265C60.409 134.564 60.3143 134.887 60.0695 135.232C59.6992 135.048 59.3835 134.79 59.1225 134.459C58.964 134.75 58.7429 134.847 58.4596 134.749C58.6806 134.459 58.9015 134.169 59.1225 133.879C59.1808 134.035 59.2755 134.164 59.4066 134.265C59.8884 134.027 59.8884 133.801 59.4066 133.589C59.5651 133.394 59.6282 133.168 59.596 132.912C59.856 132.943 60.1087 132.91 60.3535 132.816C59.7015 132.773 59.6384 132.58 60.1641 132.236C59.6753 131.766 59.2965 131.316 59.0278 130.883C59.5022 130.632 60.0073 130.6 60.5429 130.786C60.6746 130.307 60.9586 129.921 61.3952 129.626C61.5215 129.755 61.6477 129.884 61.774 130.013C61.7594 129.774 61.7908 129.58 61.8687 129.433C62.5477 130.047 62.674 130.724 62.2475 131.463C62.3738 131.527 62.4999 131.592 62.6263 131.656C62.4102 131.799 62.4102 131.96 62.6263 132.139C62.4604 132.284 62.271 132.381 62.0581 132.429C62.5185 132.486 62.8657 132.712 63.0998 133.106C63.1628 133.041 63.2261 132.977 63.2891 132.912C63.4037 133.295 63.5931 133.36 63.8573 133.106C63.8638 132.781 63.8954 132.491 63.952 132.236C63.6996 132.107 63.5102 131.914 63.3838 131.656C63.6132 131.483 63.6132 131.322 63.3838 131.173C63.2297 131.611 63.135 132.062 63.0998 132.526C63.0712 132.02 62.9132 131.568 62.6263 131.173C62.7825 131.001 62.9719 130.937 63.1945 130.979C63.1945 130.786 63.1945 130.593 63.1945 130.399C62.9952 130.428 62.8058 130.396 62.6263 130.303C62.9098 130.065 63.1624 129.969 63.3838 130.013Z" fill="#676D74"/>
<path fill-rule="evenodd" clip-rule="evenodd" d="M64.1414 141.611C80.2365 141.076 96.2719 141.817 112.247 143.834C114.986 144.225 117.637 144.934 120.202 145.96C120.932 146.271 121.121 146.786 120.77 147.506C118.116 148.757 115.338 149.595 112.437 150.019C99.4405 151.947 86.3723 152.817 73.2323 152.629C61.8128 152.896 50.4492 152.22 39.1414 150.599C35.9412 150.153 32.8477 149.316 29.8611 148.086C28.5641 147.219 28.6274 146.445 30.0505 145.767C32.9342 144.675 35.9015 143.902 38.952 143.447C47.3511 142.448 55.7475 141.836 64.1414 141.611Z" fill="#2466A8" fill-opacity="0.3"/>
</svg>
