<svg width="86" height="111" viewBox="0 0 86 111" fill="none" xmlns="http://www.w3.org/2000/svg">
<path fill-rule="evenodd" clip-rule="evenodd" d="M69.5248 47.0466C69.5248 58.4641 62.0311 70.1039 52.7742 73.0298C43.5171 75.9556 36.0234 69.0861 36.0234 57.6688C36.0234 46.2516 43.5171 34.6117 52.7742 31.6858C62.0311 28.76 69.5248 35.6293 69.5248 47.0466Z" stroke="#3D8F3D" stroke-width="4" stroke-linecap="round" stroke-linejoin="round"/>
<path fill-rule="evenodd" clip-rule="evenodd" d="M51.0801 108.024C51.0801 108.024 83.2929 72.5797 83.2929 42.1441C83.2929 20.1841 68.865 6.96983 51.0801 12.6149C33.2952 18.2601 18.8672 40.6334 18.8672 62.5934C18.8672 84.5536 51.0801 108.024 51.0801 108.024ZM52.7755 73.0249C62.0324 70.0991 69.5262 58.459 69.5262 47.0417C69.5262 35.6244 62.0324 28.7549 52.7755 31.6809C43.5185 34.6068 36.0247 46.2467 36.0247 57.664C36.0247 69.0813 43.5185 75.9508 52.7755 73.0249Z" fill="#DBF0DB" stroke="#3D8F3D" stroke-width="4" stroke-linecap="round" stroke-linejoin="round"/>
<path fill-rule="evenodd" clip-rule="evenodd" d="M68.9594 13.623L52.3523 4.82523C47.2153 2.16967 41.01 1.62909 34.3301 3.74407C16.5452 9.38901 2.11719 30.1723 2.11719 52.1325C2.11719 74.0925 36.0255 97.5632 36.0255 97.5632L51.0807 108.026C51.0807 108.026 18.8679 84.5557 18.8679 62.5957C18.8679 40.6357 33.2958 18.2621 51.0807 12.617C57.6943 10.5179 63.8436 11.0266 68.9594 13.623Z" fill="#DBF0DB" stroke="#3D8F3D" stroke-width="4" stroke-linecap="round" stroke-linejoin="round"/>
</svg>
