<svg width="139" height="111" viewBox="0 0 139 111" fill="none" xmlns="http://www.w3.org/2000/svg">
<g clip-path="url(#clip0_558_6378)">
<path d="M134.417 44.3457H108.567L109.142 93.2988L127.524 94.4506L132.694 88.1155L134.417 44.3457Z" fill="#CED3D9"/>
<path d="M90.3439 36.8281L50.6386 40.2808L31.0737 48.3369V84.5168L53.5158 108.183L69.6281 106.456L97.2492 97.8246L104.346 84.5168L107.607 46.6106L90.3439 36.8281Z" fill="#EDF4FC"/>
<path d="M83.8671 9.21472H53.9966L54.6604 35.098L75.9016 35.707L81.8757 32.3574L83.8671 9.21472Z" fill="#CED3D9"/>
<path d="M30.4447 43.7699H4.59521L5.16965 92.723L23.5515 93.8748L28.7214 87.5397L30.4447 43.7699Z" fill="#CED3D9"/>
<path d="M109.98 47.0409C109.969 47.1561 109.934 47.2713 109.9 47.375C109.866 47.4902 109.82 47.5938 109.774 47.6975C109.728 47.8933 109.693 48.1006 109.67 48.3195C109.647 48.5614 109.636 48.8148 109.636 49.1027V49.1258C109.636 49.1718 109.647 49.2179 109.647 49.2755V88.0003C109.866 88.5416 110.118 89.0139 110.383 89.4055C110.647 89.8087 110.945 90.1312 111.256 90.3731L111.267 90.3846C111.543 90.6034 111.853 90.7647 112.198 90.8683C112.542 90.972 112.933 91.0181 113.347 91.0066C116.322 90.7647 121.894 90.8107 124.881 90.995C125.651 91.0296 126.317 90.949 126.869 90.7532C127.409 90.5573 127.857 90.2579 128.213 89.8432L128.236 89.8202C128.65 89.3364 128.983 88.6914 129.235 87.9081C129.5 87.0903 129.672 86.1113 129.764 84.9825C129.764 75.307 132.154 60.1373 133.142 49.9321C133.142 49.8629 133.142 49.7938 133.153 49.7017C133.256 48.7802 133.222 48.0315 133.038 47.4441C132.866 46.8912 132.579 46.465 132.177 46.154C131.683 45.7739 131.005 45.4975 130.177 45.3132C129.316 45.1289 128.282 45.0367 127.11 45.0367L126.949 45.0483H114.438C114.404 45.0483 114.369 45.0483 114.335 45.0367C113.461 45.0483 112.715 45.1289 112.094 45.3017C111.485 45.4744 111.003 45.7163 110.635 46.0504C110.486 46.1771 110.36 46.3268 110.256 46.4996C110.153 46.6724 110.061 46.8451 109.98 47.0409ZM96.7684 90.1888C96.6191 90.039 96.4927 89.8662 96.3893 89.6819C96.2859 89.4977 96.2055 89.3018 96.1596 89.0945L78.3636 56.9813C77.4445 55.4494 76.6058 54.6661 75.8131 54.4012C75.0778 54.1593 74.3541 54.3666 73.6188 54.8043C73.0329 55.1499 72.424 55.6106 71.8036 56.1289C71.1487 56.6818 70.5168 57.2577 69.885 57.8337L69.7701 57.9373C69.0233 58.6169 68.2766 59.2965 67.6447 59.8263L64.5772 62.3604L64.5198 62.4064C63.3939 63.3049 62.199 64.0075 60.9927 64.5143C59.706 65.0442 58.3963 65.3667 57.1211 65.4703C56.3054 65.5394 55.4897 65.5164 54.6969 65.4127C53.9042 65.3091 53.1345 65.1133 52.4107 64.8368C51.6525 64.5489 50.9287 64.1688 50.2738 63.708C49.6419 63.2588 49.0675 62.7174 48.5735 62.107C48.022 61.4159 47.5625 60.6326 47.2293 59.7572C46.9076 58.9279 46.7008 58.0064 46.6089 57.0274C46.6089 56.9813 46.6089 56.9352 46.6089 56.8891C46.6089 56.6357 46.6434 56.3708 46.7238 56.1289C46.8157 55.8525 46.9536 55.5761 47.1604 55.3342L56.0411 44.7373C57.2015 45.7854 58.4308 46.753 59.7175 47.6399L51.4342 57.5227C51.5031 57.7991 51.595 58.064 51.6984 58.3059C51.8363 58.6284 52.0201 58.9164 52.2269 59.1813L52.2384 59.2043C52.4681 59.4808 52.7324 59.7227 53.0196 59.93C53.3298 60.1488 53.6745 60.3331 54.0421 60.4714C54.4327 60.6211 54.8693 60.7132 55.3173 60.7708H55.3288C55.7769 60.8169 56.2479 60.8284 56.7304 60.7939C57.5461 60.7248 58.4078 60.5174 59.2465 60.1604C60.0507 59.8263 60.8549 59.3541 61.6016 58.7436L64.6576 56.2096C65.301 55.6797 65.8639 55.1729 66.4039 54.6776L66.76 54.3551C67.4723 53.6986 68.1846 53.042 68.9084 52.4431C69.0348 52.3394 69.1612 52.2242 69.299 52.1205C71.2981 51.3373 73.2052 50.4389 75.0089 49.4137C75.6178 49.3677 76.2267 49.4137 76.8471 49.575C78.7197 50.0588 80.5579 51.5561 82.3617 54.5855C88.4047 64.6295 94.1375 75.8369 99.8704 86.1688H104.948V49.2755C104.948 49.2179 104.948 49.1603 104.96 49.0797C104.96 48.8033 104.971 48.5268 104.983 48.2389C104.994 48.0661 105.006 47.8933 105.029 47.732L99.1466 43.8158C98.733 43.5394 98.2964 43.2399 97.8484 42.9289L96.3549 41.8692C93.724 40.0263 91.0241 38.1372 88.2094 36.9393C89.0366 35.6378 89.8063 34.2671 90.5071 32.8273C91.4951 33.2765 92.4602 33.7718 93.4023 34.3247C95.3898 35.4765 97.2854 36.8011 99.1351 38.1142L99.2385 38.1948C100.031 38.7477 100.824 39.3121 101.743 39.9226C103.432 41.0168 105.109 42.1802 106.798 43.309L106.947 43.1362C107.108 42.9519 107.292 42.7676 107.499 42.5948C108.326 41.8577 109.326 41.3048 110.486 40.9362C111.612 40.5791 112.887 40.4064 114.312 40.3948C114.346 40.3833 114.381 40.3833 114.415 40.3833C118.516 40.5676 123.089 40.0954 127.11 40.3948C128.741 40.3948 130.212 40.5446 131.522 40.8671C132.877 41.2011 134.049 41.731 135.014 42.4797C136.106 43.3205 136.898 44.3802 137.369 45.6933C137.829 46.9718 137.978 48.4807 137.771 50.2546C136.301 61.6808 135.497 73.8212 134.382 85.351C134.256 86.9751 133.969 88.4149 133.532 89.6935C133.084 90.972 132.475 92.0547 131.705 92.9532C130.867 93.9207 129.856 94.6579 128.672 95.1186C127.512 95.5794 126.191 95.7867 124.686 95.7176C120.998 95.7176 117.23 95.7982 113.553 95.7176C112.554 95.7636 111.623 95.6485 110.762 95.3835C109.866 95.1071 109.05 94.6694 108.303 94.0704L108.28 94.0474C107.752 93.6097 107.269 93.1144 106.833 92.527C106.453 92.0317 106.12 91.4903 105.81 90.8914H102.134C102.317 91.6055 102.409 92.3081 102.421 92.9992C102.444 93.9668 102.294 94.8998 102.007 95.7752C101.732 96.6275 101.329 97.4223 100.824 98.1364C100.295 98.8851 99.6636 99.5417 98.9513 100.106L98.9168 100.129C98.239 100.659 97.4922 101.108 96.711 101.465C95.9183 101.811 95.0796 102.076 94.218 102.214C93.3563 102.364 92.4717 102.387 91.5985 102.295C90.8748 102.214 90.151 102.053 89.4387 101.788C88.5885 102.64 87.7154 103.354 86.8307 103.919C85.8312 104.552 84.7973 105.013 83.7518 105.312C82.7063 105.612 81.6379 105.716 80.5694 105.669C79.6159 105.623 78.6738 105.439 77.7202 105.14C76.7896 106.142 75.8131 106.96 74.7791 107.593C73.6533 108.296 72.4699 108.791 71.2291 109.056C69.9654 109.332 68.6557 109.378 67.3115 109.183C66.0822 108.998 64.807 108.618 63.5088 108.042C63.1526 108.307 62.7965 108.549 62.4173 108.768C61.9578 109.044 61.4867 109.275 60.9927 109.482C60.3034 109.77 59.6026 109.977 58.8673 110.116C58.1435 110.242 57.4083 110.3 56.65 110.277C54.8693 110.219 53.3757 109.931 52.0775 109.436C50.7793 108.941 49.6879 108.238 48.7113 107.363C47.7923 106.545 47.034 105.612 46.3332 104.587C45.6439 103.585 45.012 102.49 44.3342 101.316L36.901 88.3113H31.7771C31.6047 89.0369 31.3979 89.7165 31.1337 90.3385C30.812 91.0987 30.4214 91.8013 29.9389 92.4233C29.1347 93.4715 28.1351 94.2663 26.9288 94.7961C25.7455 95.3144 24.3554 95.5794 22.747 95.5448H12.591C11.2583 95.7521 10.006 95.6945 8.86865 95.3144C7.6968 94.9343 6.65133 94.2202 5.73224 93.1605C4.92803 92.2275 4.26169 91.0181 3.73321 89.4977C3.21622 88.0118 2.8371 86.2149 2.61881 84.0955L2.59584 83.9112L-0.000603721 50.9111C-0.264843 49.0797 -0.253354 47.5017 0.0223736 46.1655C0.298102 44.7833 0.838069 43.643 1.60781 42.71C2.38904 41.7655 3.36558 41.0859 4.50295 40.6252C5.60587 40.176 6.86962 39.9341 8.25975 39.8765L8.39761 39.865H8.53548H22.1266C22.1725 39.865 22.207 39.865 22.2415 39.8765C23.5167 39.865 24.7115 39.9687 25.7915 40.2105C26.9403 40.464 27.9628 40.8671 28.8589 41.443C29.5827 41.9153 30.2146 42.4797 30.7316 43.1593C31.1682 43.7352 31.5128 44.3917 31.7771 45.1289H32.3745H42.2777C43.6334 44.2189 44.9546 43.4011 46.2872 42.6985C47.6774 41.9729 49.0675 41.3624 50.5495 40.8901L50.5725 40.8786C51.0665 40.7289 51.572 40.5907 52.0775 40.464C53.2724 41.9729 54.5706 43.3551 55.9607 44.6106C55.4667 44.6336 54.9842 44.6912 54.5246 44.7603C53.6285 44.887 52.7783 45.0828 51.9512 45.3477C50.6874 45.7394 49.4581 46.2922 48.2288 46.9488C46.9881 47.6169 45.7243 48.4116 44.4146 49.3216C44.2193 49.4713 44.001 49.5865 43.7597 49.6671C43.5185 49.7478 43.2657 49.7938 43.0015 49.7938H33.1214H32.3285V70.5154L32.3745 83.5657H38.3601C38.7737 83.5657 39.1872 83.6809 39.5434 83.8882C39.8881 84.084 40.1753 84.3835 40.3936 84.7521L48.516 98.9312C49.102 99.9563 49.6534 100.912 50.2164 101.742C50.7678 102.559 51.3308 103.262 51.9397 103.815C52.5026 104.322 53.1575 104.736 53.9502 105.024L53.9732 105.036C54.7774 105.324 55.7309 105.497 56.8913 105.531C57.3164 105.543 57.7414 105.508 58.155 105.439C58.5571 105.37 58.9478 105.255 59.3269 105.094C59.5567 105.001 59.7979 104.875 60.0392 104.748C60.1426 104.69 60.246 104.621 60.3494 104.564C58.672 101.419 56.9602 98.2747 55.3058 95.1186C55.0071 94.5542 54.9727 93.9207 55.145 93.3563C55.3173 92.7919 55.708 92.2851 56.2709 91.9856L56.3398 91.9511C56.8913 91.6746 57.5117 91.6286 58.0631 91.8013C58.6261 91.9741 59.1201 92.3657 59.4303 92.9186C61.3144 96.4432 63.1986 99.9679 65.0712 103.492C66.0248 103.965 66.9439 104.276 67.794 104.437C68.6901 104.598 69.5403 104.598 70.3445 104.425C71.0683 104.264 71.7806 103.965 72.4699 103.527C73.0788 103.147 73.6647 102.652 74.2507 102.053L66.1856 89.4861C65.841 88.9448 65.749 88.3113 65.8754 87.7238C66.0018 87.1364 66.3579 86.6065 66.8979 86.261C67.4379 85.9154 68.0698 85.8233 68.6557 85.95C69.2301 86.0767 69.7701 86.4338 70.1147 86.9751L78.6968 100.486C79.3516 100.74 79.995 100.889 80.6154 100.947C81.2817 101.005 81.9366 100.947 82.5685 100.774L82.5914 100.763C83.2003 100.59 83.8092 100.313 84.4296 99.9103C84.9581 99.5647 85.4866 99.127 86.0265 98.6087L78.3406 84.0955C78.0534 83.5311 78.0075 82.8976 78.1798 82.3332C78.3521 81.7688 78.7427 81.262 79.2942 80.9625L79.3516 80.928C79.9146 80.64 80.5464 80.594 81.1094 80.7667C81.6723 80.9395 82.1664 81.3311 82.4765 81.884L90.5646 97.1343C90.9782 97.3532 91.4262 97.5029 91.8743 97.572C92.4142 97.6642 92.9772 97.6642 93.5172 97.572C93.9767 97.4914 94.4362 97.3532 94.8728 97.1689C95.3094 96.9731 95.7345 96.7312 96.1021 96.4432C96.4697 96.1553 96.7914 95.8212 97.0442 95.4527C97.2854 95.1186 97.4807 94.7385 97.6071 94.3584C97.745 93.9092 97.8139 93.4254 97.7794 92.9071C97.745 92.4118 97.6186 91.8935 97.4003 91.3406L96.7684 90.1888ZM15.9686 76.1824C16.7843 76.1824 17.5311 76.5165 18.0711 77.0578C18.611 77.5992 18.9442 78.3479 18.9442 79.1657C18.9442 79.9835 18.611 80.7322 18.0711 81.2735L18.0366 81.3081C17.4966 81.8264 16.7729 82.1489 15.9686 82.1489C15.1529 82.1489 14.4062 81.8149 13.8662 81.2735C13.3263 80.7322 12.9931 79.9835 12.9931 79.1657C12.9931 78.3479 13.3263 77.5992 13.8662 77.0578C14.4062 76.5049 15.1529 76.1824 15.9686 76.1824ZM121.262 76.1824C122.078 76.1824 122.825 76.5165 123.365 77.0578C123.905 77.5992 124.238 78.3479 124.238 79.1657C124.238 79.9835 123.905 80.7322 123.365 81.2735C122.825 81.8149 122.089 82.1489 121.262 82.1489C120.447 82.1489 119.7 81.8149 119.16 81.2735C118.62 80.7322 118.287 79.9835 118.287 79.1657C118.287 78.3479 118.62 77.5992 119.16 77.0578L119.194 77.0233C119.734 76.4934 120.458 76.1824 121.262 76.1824ZM27.6296 66.2075L27.5607 47.4095C27.4803 46.9142 27.3309 46.4996 27.1241 46.1655C26.9288 45.8315 26.6646 45.5666 26.3544 45.3708C25.8949 45.0713 25.3204 44.864 24.6311 44.7373C23.9303 44.599 23.1376 44.5415 22.2644 44.553C22.23 44.5645 22.184 44.5645 22.1381 44.5645C17.6 44.5645 12.9816 44.6451 8.45506 44.5645C7.68532 44.599 7.00748 44.7142 6.45603 44.91C5.92755 45.0943 5.50247 45.3593 5.21525 45.7163C4.89357 46.0964 4.67528 46.6378 4.57189 47.3635C4.457 48.1352 4.49147 49.1142 4.6638 50.3122C5.85862 59.2735 7.20279 74.6505 7.32917 83.6003C7.5015 85.2589 7.76574 86.6065 8.1104 87.6893C8.44357 88.7374 8.85716 89.5207 9.32819 90.0736C9.66137 90.4652 10.0635 90.7186 10.5115 90.8453C10.9826 90.9835 11.511 90.9835 12.097 90.8799C12.1659 90.8683 12.2348 90.8568 12.3038 90.8453L12.3842 90.8338C12.4301 90.8223 12.4646 90.8223 12.5106 90.8223H22.7125C22.7814 90.8223 22.8618 90.8223 22.9538 90.8338C23.758 90.8453 24.4473 90.7301 24.9987 90.4998C25.5387 90.2809 25.9753 89.9584 26.297 89.5207C26.7105 88.9908 27.0207 88.2997 27.2275 87.4589C27.4458 86.6181 27.5607 85.639 27.6067 84.5332L27.5952 84.4296V66.4033C27.5952 66.3342 27.6067 66.2651 27.6296 66.2075Z" fill="#3B4F68"/>
<path fill-rule="evenodd" clip-rule="evenodd" d="M69.2421 0C76.9855 4.91834 83.9706 7.24506 89.9792 6.69217C91.0246 27.9551 83.2009 40.4986 69.3225 45.7395C69.2306 45.7049 69.1502 45.6703 69.0583 45.6358C68.9664 45.6703 68.886 45.7049 68.7941 45.7395C54.9158 40.5101 47.092 27.9551 48.1374 6.69217C54.1345 7.24506 61.1311 4.91834 68.8745 0L69.0583 0.13822L69.2421 0ZM56.662 20.9519L61.1886 20.8943L61.5332 20.975C62.4523 21.5048 63.3025 22.1038 64.1182 22.7949C64.7041 23.2901 65.2556 23.82 65.7725 24.4074C67.3925 21.7928 69.1272 19.3854 70.9539 17.1739C72.953 14.755 74.2052 13.4189 76.434 11.4147L76.8706 11.2419H81.8107L80.8112 12.3477C77.7552 15.7571 75.8366 18.4179 73.3321 22.0462C70.8161 25.686 68.5758 29.441 66.5768 33.2996L65.9564 34.4975L65.3819 33.2766C64.325 31.0075 63.0727 28.9341 61.5677 27.0797C60.0627 25.2252 58.3164 23.5666 56.2714 22.1729L56.662 20.9519Z" fill="url(#paint0_linear_558_6378)"/>
</g>
<defs>
<linearGradient id="paint0_linear_558_6378" x1="90.0722" y1="-3.71077e-06" x2="58.5013" y2="35.8171" gradientUnits="userSpaceOnUse">
<stop stop-color="#1DE9EC"/>
<stop offset="1" stop-color="#218688"/>
</linearGradient>
<clipPath id="clip0_558_6378">
<rect width="138.105" height="110.484" fill="white"/>
</clipPath>
</defs>
</svg>
