<svg width="2239" height="696" viewBox="0 0 2239 696" fill="none" xmlns="http://www.w3.org/2000/svg">
<rect x="1840" width="399" height="696" fill="#D6E6F6"/>
<path d="M0 0H400V696H0V0Z" fill="#1B4D7F"/>
<path d="M1120 696V485.856V0H1840V696H1120Z" fill="url(#paint0_radial_14325_23039)"/>
<path d="M400 696V485.856V0H1120V696H400Z" fill="url(#paint1_linear_14325_23039)"/>
<path d="M1125.51 587C1419.92 587 1469.49 696 1840 696H400C697.914 696 831.099 587 1125.51 587Z" fill="#F9FAFB"/>
<path d="M1121 587.5C1028.82 587.5 788.711 567.755 607.971 421.11C474.209 312.581 523 0 400 0H1840C1785 0 1808.5 244 1656 407.5C1503.5 571 1197.32 587.5 1121 587.5Z" fill="url(#paint2_linear_14325_23039)"/>
<defs>
<radialGradient id="paint0_radial_14325_23039" cx="0" cy="0" r="1" gradientUnits="userSpaceOnUse" gradientTransform="translate(1139.19 489.929) rotate(-55.1537) scale(596.477 546.658)">
<stop stop-color="#EAF2FB"/>
<stop offset="1" stop-color="#D5E6F6"/>
</radialGradient>
<linearGradient id="paint1_linear_14325_23039" x1="400" y1="569.051" x2="1120" y2="569.051" gradientUnits="userSpaceOnUse">
<stop stop-color="#1B4D7E"/>
<stop offset="1" stop-color="#2466A8"/>
</linearGradient>
<linearGradient id="paint2_linear_14325_23039" x1="1119.92" y1="1.53677e-05" x2="1119.92" y2="579.283" gradientUnits="userSpaceOnUse">
<stop stop-color="#2466A8"/>
<stop offset="1" stop-color="#2D80D2"/>
</linearGradient>
</defs>
</svg>
