<svg width="440" height="631" viewBox="0 0 440 631" fill="none" xmlns="http://www.w3.org/2000/svg">
<path d="M0 568V396.503V0H440V568H0Z" fill="url(#paint0_radial_13925_5637)"/>
<path fill-rule="evenodd" clip-rule="evenodd" d="M416.675 325.257C404.688 364.973 363.605 492.403 219.063 486.631V563H0V0L440 0V138.53C435.615 217.777 422.945 304.483 416.675 325.257Z" fill="url(#paint1_radial_13925_5637)"/>
<path d="M0 561V296C16 318.707 82 487.191 218 487.191V561H0Z" fill="#1B4D7E"/>
<path d="M221.683 487C311.641 487 326.787 560.011 440 560.011V589H0V560.011C91.0292 560.011 131.725 487 221.683 487Z" fill="#F9FAFB"/>
<defs>
<radialGradient id="paint0_radial_13925_5637" cx="0" cy="0" r="1" gradientUnits="userSpaceOnUse" gradientTransform="translate(11.7251 399.827) rotate(-62.4649) scale(450.527 360.951)">
<stop stop-color="#EAF2FB"/>
<stop offset="1" stop-color="#D5E6F6"/>
</radialGradient>
<radialGradient id="paint1_radial_13925_5637" cx="0" cy="0" r="1" gradientUnits="userSpaceOnUse" gradientTransform="translate(299.028 440.468) rotate(-100.854) scale(448.492 325.538)">
<stop stop-color="#2D80D2"/>
<stop offset="1" stop-color="#2466A8"/>
</radialGradient>
</defs>
</svg>
