<svg width="1440" height="720" viewBox="0 0 1440 720" fill="none" xmlns="http://www.w3.org/2000/svg">
<path d="M720 720V1H1440V720H720Z" fill="url(#paint0_radial_13406_74410)"/>
<path d="M0 720V1H720V720H0Z" fill="url(#paint1_linear_13406_74410)"/>
<path d="M725.508 587.664C1019.92 587.664 1069.49 696.25 1440 696.25V719.664H0V696.25C297.914 696.25 431.099 587.664 725.508 587.664Z" fill="#F9FAFB"/>
<path d="M713.266 588.074C620.159 597.249 388.755 578.258 207.995 428.9C74.2179 318.363 0 164.196 0 0H1440C1440 0 1388.34 54.159 1369.5 144.061C1347.5 249.015 1416.5 341.136 1304 461.672C1191.5 582.209 881.69 590.062 713.266 588.074Z" fill="url(#paint2_linear_13406_74410)"/>
<defs>
<radialGradient id="paint0_radial_13406_74410" cx="0" cy="0" r="1" gradientUnits="userSpaceOnUse" gradientTransform="translate(38.373 506.823) rotate(-36.6098) scale(849.151 794.47)">
<stop stop-color="#EAF2FB"/>
<stop offset="1" stop-color="#D5E6F6"/>
</radialGradient>
<linearGradient id="paint1_linear_13406_74410" x1="0" y1="588.673" x2="1440" y2="588.673" gradientUnits="userSpaceOnUse">
<stop stop-color="#1B4D7E"/>
<stop offset="1" stop-color="#2466A8"/>
</linearGradient>
<linearGradient id="paint2_linear_13406_74410" x1="720" y1="0" x2="720" y2="590" gradientUnits="userSpaceOnUse">
<stop stop-color="#2466A8"/>
<stop offset="1" stop-color="#2D80D2"/>
</linearGradient>
</defs>
</svg>
