<svg width="2200" height="697" viewBox="0 0 2200 697" fill="none" xmlns="http://www.w3.org/2000/svg">
<rect width="2200" height="697" fill="white"/>
<rect x="1800" width="400" height="696" fill="#D6E6F6"/>
<path d="M0 0H400V696H0V0Z" fill="#1B4D7F"/>
<path d="M1100 696V485.856V0H1820V696H1100Z" fill="url(#paint0_radial_14325_23039)"/>
<path d="M380 696V485.856V0H1100V696H380Z" fill="url(#paint1_linear_14325_23039)"/>
<path d="M1105.51 587C1399.92 587 1449.49 696 1820 696V697H380V696C677.914 696 811.099 587 1105.51 587Z" fill="#F9FAFB"/>
<path d="M1101 587.5C1008.82 587.5 768.711 567.755 587.971 421.11C454.209 312.581 503 0 380 0H1820C1765 0 1788.5 244 1636 407.5C1483.5 571 1177.32 587.5 1101 587.5Z" fill="url(#paint2_linear_14325_23039)"/>
<defs>
<radialGradient id="paint0_radial_14325_23039" cx="0" cy="0" r="1" gradientUnits="userSpaceOnUse" gradientTransform="translate(1119.19 489.929) rotate(-55.1537) scale(596.477 546.658)">
<stop stop-color="#EAF2FB"/>
<stop offset="1" stop-color="#D5E6F6"/>
</radialGradient>
<linearGradient id="paint1_linear_14325_23039" x1="380" y1="569.051" x2="1100" y2="569.051" gradientUnits="userSpaceOnUse">
<stop stop-color="#1B4D7E"/>
<stop offset="1" stop-color="#2466A8"/>
</linearGradient>
<linearGradient id="paint2_linear_14325_23039" x1="1099.92" y1="1.53677e-05" x2="1099.92" y2="579.283" gradientUnits="userSpaceOnUse">
<stop stop-color="#2466A8"/>
<stop offset="1" stop-color="#2D80D2"/>
</linearGradient>
</defs>
</svg>
