<svg width="172" height="40" viewBox="0 0 172 40" fill="none" xmlns="http://www.w3.org/2000/svg">
<g clip-path="url(#clip0_512_321)">
<path d="M34.1989 18.0954V32.0474C34.1989 33.152 33.2982 34.0474 32.1872 34.0474H8.04691C6.93588 34.0474 6.03521 33.152 6.03521 32.0474V7.92129C6.03521 6.81672 6.92356 5.92128 8.03459 5.92128C14.2394 5.92128 32.89 5.92128 35.2047 5.92128L32.5962 0H6.03564C2.70236 0 0.000278958 2.67463 0.000488293 5.98852C0.000956167 13.3952 0.00157889 26.0006 0.00102479 33.9884C0.000795208 37.2979 2.68356 39.9743 6.01242 39.9799C13.4753 39.9924 26.2014 40.0091 34.2669 39.994C37.5774 39.9878 40.234 37.3172 40.234 34.026V11.1426C39.4796 12.8295 38.7252 13.8163 34.1989 18.0954Z" fill="#1CBEC1"/>
<path d="M6.03516 10.3622C6.03516 9.40843 6.03521 8.58819 6.03521 7.92129C6.03521 6.81672 6.93422 5.92128 8.04525 5.92128C13.4749 5.92128 28.4475 5.92128 34.7018 5.92128C34.7018 5.92128 23.386 1.48032 6.96595 1.19209e-07H6.07181C2.73872 1.19209e-07 0.0367198 2.68629 0.0367198 6V10.3622H6.03516Z" fill="url(#paint0_linear_512_321)"/>
<path fill-rule="evenodd" clip-rule="evenodd" d="M39.5328 4.24898C38.4472 1.87962 35.2048 3.07568e-06 32.6901 1.1484e-05C30.1755 1.98924e-05 6.03564 0 6.03564 0C22.6321 1.97376 34.4504 5.9213 34.4504 5.9213C35.2176 6.13638 35.4484 7.10595 34.8594 7.64004L33.7991 8.60153L22.5957 19.7409C22.4068 19.9286 22.1033 19.9369 21.9044 19.7596L19.2545 17.3981C19.1622 17.3159 19.0427 17.2704 18.9188 17.2704H11.8442C11.3869 17.2704 11.1678 17.8199 11.5092 18.1225C14.3082 20.6031 20.3775 25.7824 21.9047 27.0841C22.1064 27.256 22.4025 27.2387 22.5883 27.0499C27.2433 22.3211 33.1315 17.1884 37.7416 12.4927C40.0584 10.133 40.9965 7.44212 39.5328 4.24898Z" fill="#1CBEC1"/>
<path d="M59.6892 34.7831H52.8071V4.78906H74.0264V10.7882H59.6892V17.8581H70.9678V23.8573H59.6892V34.7831Z" fill="#0A2342"/>
<path d="M86.6436 34.7831C84.9346 35.0682 83.3105 35.211 81.7684 35.211C80.2263 35.211 78.9323 34.6265 77.8884 33.4544C76.8429 32.2837 76.3203 30.7274 76.3203 28.784V4.78906H83.0113V27.7129C83.0113 28.1422 83.1383 28.4991 83.3939 28.784C83.6483 29.0707 83.967 29.2133 84.3489 29.2133H86.6436V34.7831Z" fill="#0A2342"/>
<path d="M97.7308 12.9307V34.7831H91.0393V18.7149H88.1724V12.9307H97.7308Z" fill="#0A2342"/>
<path d="M119.523 34.3552C114.756 34.9254 110.551 35.2111 106.906 35.2111C105.173 35.2111 103.784 34.6265 102.739 33.4545C101.693 32.2837 101.171 30.7275 101.171 28.784V18.929C101.171 16.7868 101.712 15.1096 102.796 13.8949C103.879 12.6804 105.376 12.074 107.288 12.074H119.523V17.8579H109.391C108.371 17.8579 107.861 18.43 107.861 19.5721V27.927C107.861 28.3561 107.989 28.7133 108.244 28.9992C108.498 29.2846 108.818 29.4271 109.199 29.4271C111.494 29.4271 114.934 29.2133 119.523 28.784L119.523 34.3552Z" fill="#0A2342"/>
<path d="M129.272 25.7851V34.7831H122.581V4.78906H129.272V20.0001H132.331L136.536 12.0742H143.609L137.875 23.0003L143.609 34.7834H136.536L132.139 25.7853H129.272V25.7851Z" fill="#0A2342"/>
<path d="M153.932 12.9307V34.7831H147.241V18.7149H144.374V12.9307H153.932Z" fill="#0A2342"/>
<path d="M171.901 34.7832C169.429 35.0683 167.007 35.2111 164.637 35.2111C162.904 35.2111 161.514 34.6266 160.47 33.4545C159.424 32.2838 158.902 30.7275 158.902 28.7841V17.858H156.608V12.074H158.902L159.667 6.93188H165.593V12.074H170.372V17.858H165.593V27.713C165.593 28.1423 165.72 28.4992 165.975 28.7841C166.23 29.0708 166.548 29.2134 166.931 29.2134H171.901V34.7832Z" fill="#0A2342"/>
<path d="M97.6605 4.88086H90.9692V10.88H97.6605V4.88086Z" fill="#D81E5B"/>
<path d="M153.987 4.88086H147.296V10.88H153.987V4.88086Z" fill="#F9A03F"/>
</g>
<defs>
<linearGradient id="paint0_linear_512_321" x1="15.2568" y1="50.7004" x2="41.4488" y2="39.0494" gradientUnits="userSpaceOnUse">
<stop stop-color="#1CBEC1"/>
<stop offset="1" stop-color="#0A2342"/>
</linearGradient>
<clipPath id="clip0_512_321">
<rect width="172" height="40" fill="white"/>
</clipPath>
</defs>
</svg>
