<svg width="173" height="60" viewBox="0 0 173 60" fill="none" xmlns="http://www.w3.org/2000/svg">
<path d="M38.4638 28.2144V41.2944C38.4638 42.33 37.6238 43.1694 36.5875 43.1694H14.0714C13.0352 43.1694 12.1951 42.33 12.1951 41.2944V18.6762C12.1951 17.6407 13.0237 16.8012 14.06 16.8012C19.8473 16.8012 37.243 16.8012 39.402 16.8012L36.969 11.25H12.1955C9.08649 11.25 6.56621 13.7575 6.56641 16.8642C6.56684 23.808 6.56742 35.6256 6.56691 43.1141C6.56669 46.2168 9.06895 48.7259 12.1738 48.7311C19.1346 48.7429 31.0044 48.7586 38.5273 48.7444C41.615 48.7385 44.0929 46.2349 44.0929 43.1494V21.6962C43.3892 23.2776 42.6856 24.2028 38.4638 28.2144Z" fill="#EAF2FB"/>
<path d="M12.195 20.9646C12.195 20.0704 12.1951 19.3014 12.1951 18.6762C12.1951 17.6407 13.0336 16.8012 14.0699 16.8012C19.1342 16.8012 33.0994 16.8012 38.9329 16.8012C38.9329 16.8012 28.3785 12.6378 13.0632 11.25H12.2292C9.1204 11.25 6.6002 13.7684 6.6002 16.875V20.9646H12.195Z" fill="#EAF2FB"/>
<path fill-rule="evenodd" clip-rule="evenodd" d="M43.4389 15.2334C42.4263 13.0121 39.402 11.25 37.0566 11.25C34.7112 11.25 12.1955 11.25 12.1955 11.25C27.6753 13.1004 38.6984 16.8012 38.6984 16.8012C39.414 17.0029 39.6292 17.9118 39.0799 18.4125L38.0909 19.3139L27.6413 29.7571C27.4652 29.9331 27.182 29.9408 26.9965 29.7747L24.5249 27.5607C24.4389 27.4836 24.3274 27.441 24.2118 27.441H17.6132C17.1867 27.441 16.9823 27.9562 17.3008 28.2398C19.9115 30.5654 25.5724 35.421 26.9968 36.6414C27.1849 36.8025 27.4612 36.7862 27.6345 36.6093C31.9762 32.176 37.4683 27.3641 41.7682 22.9619C43.9291 20.7497 44.8041 18.227 43.4389 15.2334Z" fill="#EAF2FB"/>
<path d="M38.6513 29.1519V42.2319C38.6513 43.2675 37.8113 44.1069 36.775 44.1069H14.2589C13.2227 44.1069 12.3826 43.2675 12.3826 42.2319V19.6137C12.3826 18.5782 13.2112 17.7387 14.2475 17.7387C20.0348 17.7387 37.4305 17.7387 39.5895 17.7387L37.1565 12.1875H12.383C9.27399 12.1875 6.75371 14.695 6.75391 17.8017C6.75434 24.7455 6.75492 36.5631 6.75441 44.0516C6.75419 47.1543 9.25645 49.6634 12.3613 49.6686C19.3221 49.6804 31.1919 49.696 38.7148 49.6819C41.8025 49.676 44.2804 47.1724 44.2804 44.0869V22.6337C43.5767 24.2151 42.8731 25.1403 38.6513 29.1519Z" fill="#EAF2FB"/>
<path d="M12.3825 21.9021C12.3825 21.0079 12.3826 20.2389 12.3826 19.6137C12.3826 18.5782 13.2211 17.7387 14.2574 17.7387C19.3217 17.7387 33.2869 17.7387 39.1204 17.7387C39.1204 17.7387 28.566 13.5753 13.2507 12.1875H12.4167C9.3079 12.1875 6.7877 14.7059 6.7877 17.8125V21.9021H12.3825Z" fill="url(#paint0_linear_13248_1633)"/>
<path fill-rule="evenodd" clip-rule="evenodd" d="M43.6264 16.1709C42.6138 13.9496 39.5895 12.1875 37.2441 12.1875C34.8987 12.1875 12.383 12.1875 12.383 12.1875C27.8628 14.0379 38.8859 17.7387 38.8859 17.7387C39.6015 17.9404 39.8167 18.8493 39.2674 19.35L38.2784 20.2514L27.8288 30.6946C27.6527 30.8706 27.3695 30.8783 27.184 30.7122L24.7124 28.4982C24.6264 28.4211 24.5149 28.3785 24.3993 28.3785H17.8007C17.3742 28.3785 17.1698 28.8937 17.4882 29.1773C20.099 31.5029 25.7599 36.3585 27.1843 37.5789C27.3724 37.74 27.6487 37.7237 27.822 37.5468C32.1637 33.1135 37.6558 28.3016 41.9557 23.8994C44.1166 21.6872 44.9916 19.1645 43.6264 16.1709Z" fill="#EAF2FB"/>
<path d="M61.7706 43.8592H55.3516V15.7397H75.1432V21.3639H61.7706V27.992H72.2903V33.6162H61.7706V43.8592Z" fill="#EAF2FB"/>
<path d="M86.91 43.859C85.3159 44.1263 83.8012 44.2602 82.3628 44.2602C80.9244 44.2602 79.7175 43.7122 78.7439 42.6134C77.7686 41.5159 77.2812 40.0568 77.2812 38.2348V15.7396H83.5221V37.2307C83.5221 37.6332 83.6405 37.9678 83.8789 38.2348C84.1162 38.5037 84.4135 38.6373 84.7696 38.6373H86.91V43.859Z" fill="#EAF2FB"/>
<path d="M97.2512 23.3724V43.8591H91.01V28.7951H88.3359V23.3724H97.2512Z" fill="#EAF2FB"/>
<path d="M117.578 43.4578C113.132 43.9924 109.21 44.2603 105.81 44.2603C104.194 44.2603 102.898 43.7122 101.923 42.6134C100.948 41.5159 100.461 40.0569 100.461 38.2349V28.9958C100.461 26.9875 100.965 25.4151 101.977 24.2763C102.986 23.1377 104.383 22.5692 106.167 22.5692H117.578V27.9917H108.128C107.177 27.9917 106.701 28.528 106.701 29.5987V37.4314C106.701 37.8337 106.82 38.1685 107.058 38.4366C107.295 38.7042 107.593 38.8378 107.949 38.8378C110.089 38.8378 113.298 38.6373 117.578 38.2349L117.578 43.4578Z" fill="#EAF2FB"/>
<path d="M126.671 35.4235V43.8591H120.43V15.7397H126.671V30H129.524L133.446 22.5696H140.043L134.694 32.8128L140.043 43.8594H133.446L129.345 35.4238H126.671V35.4235Z" fill="#EAF2FB"/>
<path d="M149.673 23.3724V43.8591H143.433V28.7951H140.758V23.3724H149.673Z" fill="#EAF2FB"/>
<path d="M166.432 43.8591C164.126 44.1264 161.868 44.2603 159.657 44.2603C158.04 44.2603 156.744 43.7123 155.77 42.6135C154.795 41.516 154.308 40.0569 154.308 38.235V27.9917H152.168V22.5693H154.308L155.021 17.7485H160.548V22.5693H165.006V27.9917H160.548V37.2308C160.548 37.6333 160.667 37.9679 160.905 38.235C161.142 38.5038 161.44 38.6374 161.796 38.6374H166.432V43.8591Z" fill="#EAF2FB"/>
<path d="M97.1864 15.8258H90.9453V21.45H97.1864V15.8258Z" fill="#E61A5E"/>
<path d="M149.725 15.8258H143.484V21.45H149.725V15.8258Z" fill="#FF9100"/>
<defs>
<linearGradient id="paint0_linear_13248_1633" x1="20.9838" y1="59.7191" x2="45.4546" y2="48.8893" gradientUnits="userSpaceOnUse">
<stop offset="0.35" stop-color="#EAF2FB"/>
<stop offset="1" stop-color="#668099"/>
</linearGradient>
</defs>
</svg>
