<svg width="145" height="50" viewBox="0 0 145 50" fill="none" xmlns="http://www.w3.org/2000/svg">
<path d="M32.028 23.512V34.412C32.028 35.275 31.3285 35.9745 30.4657 35.9745H11.7178C10.8549 35.9745 10.1555 35.275 10.1555 34.412V15.5635C10.1555 14.7006 10.8454 14.001 11.7082 14.001C16.527 14.001 31.0115 14.001 32.8092 14.001L30.7833 9.375H10.1558C7.56708 9.375 5.46859 11.4646 5.46875 14.0535C5.46911 19.84 5.4696 29.688 5.46917 35.9284C5.46899 38.514 7.55248 40.6049 10.1377 40.6093C15.9336 40.6191 25.817 40.6321 32.0808 40.6203C34.6518 40.6154 36.715 38.5291 36.715 35.9578V18.0801C36.1291 19.398 35.5432 20.169 32.028 23.512Z" fill="#1CBEC1"/>
<path d="M10.1554 17.4705C10.1554 16.7253 10.1555 16.0845 10.1555 15.5635C10.1555 14.7006 10.8536 14.001 11.7165 14.001C15.9333 14.001 27.5613 14.001 32.4186 14.001C32.4186 14.001 23.6305 10.5315 10.8783 9.375H10.1839C7.59532 9.375 5.49689 11.4737 5.49689 14.0625V17.4705H10.1554Z" fill="url(#paint0_linear_2825_6110)"/>
<path fill-rule="evenodd" clip-rule="evenodd" d="M36.1704 12.6945C35.3273 10.8435 32.8092 9.375 30.8563 9.37501C28.9034 9.37502 10.1558 9.375 10.1558 9.375C23.045 10.917 32.2233 14.001 32.2233 14.001C32.8192 14.169 32.9984 14.9265 32.541 15.3438L31.7175 16.0949L23.0167 24.7975C22.87 24.9443 22.6343 24.9507 22.4798 24.8122L20.4218 22.9673C20.3502 22.903 20.2573 22.8675 20.1611 22.8675H14.6669C14.3117 22.8675 14.1415 23.2968 14.4067 23.5332C16.5804 25.4712 21.294 29.5175 22.4801 30.5345C22.6367 30.6688 22.8667 30.6552 23.011 30.5077C26.6261 26.8133 31.199 22.8034 34.7794 19.1349C36.5786 17.2914 37.3072 15.1892 36.1704 12.6945Z" fill="#1CBEC1"/>
<path d="M51.4327 36.5493H46.0879V13.1165H62.5673V17.8033H51.4327V23.3267H60.1918V28.0135H51.4327V36.5493Z" fill="#EBF2FA"/>
<path d="M72.3669 36.5493C71.0396 36.772 69.7784 36.8836 68.5807 36.8836C67.3831 36.8836 66.3782 36.4269 65.5675 35.5113C64.7554 34.5966 64.3496 33.3808 64.3496 31.8625V13.1165H69.546V31.0257C69.546 31.3611 69.6446 31.6399 69.8431 31.8625C70.0407 32.0865 70.2882 32.1979 70.5848 32.1979H72.3669V36.5493Z" fill="#EBF2FA"/>
<path d="M80.976 19.4771V36.5493H75.7792V23.996H73.5527V19.4771H80.976Z" fill="#EBF2FA"/>
<path d="M97.9009 36.2151C94.1989 36.6606 90.9329 36.8837 88.1024 36.8837C86.7564 36.8837 85.6778 36.427 84.8659 35.5114C84.0541 34.5967 83.6484 33.3809 83.6484 31.8626V24.1634C83.6484 22.4898 84.0683 21.1794 84.9104 20.2304C85.7513 19.2816 86.9145 18.8079 88.3993 18.8079H97.9008V23.3266H90.0322C89.2402 23.3266 88.8443 23.7735 88.8443 24.6658V31.1931C88.8443 31.5282 88.9434 31.8073 89.1414 32.0307C89.339 32.2537 89.5871 32.365 89.8836 32.365C91.6654 32.365 94.3374 32.198 97.9008 31.8626L97.9009 36.2151Z" fill="#EBF2FA"/>
<path d="M105.472 29.5196V36.5493H100.275V13.1165H105.472V25H107.847L111.113 18.808H116.606L112.153 27.344L116.606 36.5495H111.113L107.698 29.5198H105.472V29.5196Z" fill="#EBF2FA"/>
<path d="M124.624 19.4771V36.5493H119.428V23.996H117.201V19.4771H124.624Z" fill="#EBF2FA"/>
<path d="M138.578 36.5494C136.658 36.7721 134.777 36.8837 132.937 36.8837C131.591 36.8837 130.512 36.427 129.7 35.5113C128.888 34.5967 128.483 33.3809 128.483 31.8625V23.3265H126.701V18.8078H128.483L129.077 14.7905H133.679V18.8078H137.391V23.3265H133.679V31.0258C133.679 31.3611 133.778 31.64 133.976 31.8625C134.174 32.0866 134.421 32.1979 134.718 32.1979H138.578V36.5494Z" fill="#EBF2FA"/>
<path d="M80.9212 13.1882H75.7246V17.8751H80.9212V13.1882Z" fill="#D81E5B"/>
<path d="M124.667 13.1882H119.471V17.8751H124.667V13.1882Z" fill="#F9A03F"/>
<defs>
<linearGradient id="paint0_linear_2825_6110" x1="17.3172" y1="48.9847" x2="37.6982" y2="39.9723" gradientUnits="userSpaceOnUse">
<stop offset="0.38" stop-color="#1CBEC1"/>
<stop offset="1" stop-color="#0A2342"/>
</linearGradient>
</defs>
</svg>
