<svg width="160" height="160" viewBox="0 0 160 160" fill="none" xmlns="http://www.w3.org/2000/svg">
<path fill-rule="evenodd" clip-rule="evenodd" d="M123.51 50.2901C123.717 50.6069 123.79 50.9788 123.728 51.4062C123.917 61.4948 121.701 71.0187 117.078 79.9776C115.659 82.2879 114.133 84.5201 112.5 86.6741C112.349 86.8832 112.385 87.0319 112.609 87.1205C112.536 87.3437 112.391 87.4926 112.173 87.5669C111.999 87.3486 111.854 87.423 111.737 87.7901C111.885 88.0937 112.03 88.3913 112.173 88.683C112.127 89.0004 112.018 89.298 111.846 89.5759C111.703 89.3089 111.594 89.3089 111.519 89.5759C112.807 91.2174 114.115 93.0031 115.443 94.933C115.416 95.0685 115.344 95.1428 115.225 95.1562C113.85 93.1522 112.324 91.2922 110.647 89.5759C108.897 91.1448 107.153 92.7073 105.414 94.2634C106.899 96.1933 108.425 98.0906 109.993 99.9553C112.109 100.263 113.708 99.4821 114.789 97.6116C115.058 97.6609 115.276 97.8098 115.443 98.058C115.861 97.6781 116.188 97.2317 116.424 96.7187C116.525 96.8513 116.562 97.0002 116.533 97.1651C115.847 99.0988 114.611 100.512 112.827 101.406C111.325 101.085 110.38 101.681 109.993 103.192C110.546 104.847 111.382 106.335 112.5 107.656C114.545 110.158 116.543 112.688 118.496 115.246C118.361 115.27 118.252 115.345 118.169 115.469C117.786 114.901 117.35 114.38 116.86 113.906C116.713 114.442 116.822 114.926 117.187 115.357C117.172 115.528 117.1 115.639 116.969 115.692C116.362 114.962 115.708 114.292 115.007 113.683C114.552 113.441 114.262 113.069 114.135 112.567C112.626 110.312 111.063 108.08 109.448 105.87C108.837 104.58 108.51 103.241 108.466 101.853C108.466 101.778 108.466 101.704 108.466 101.629C108.69 101.541 108.726 101.392 108.575 101.183C106.731 99.3326 104.951 97.4725 103.234 95.6026C98.9218 98.033 94.4888 100.228 89.9345 102.187C86.7051 103.285 83.7256 104.215 80.9955 104.978C80.841 105.179 80.6229 105.254 80.3415 105.201C76.8195 105.192 73.2585 105.155 69.6583 105.089C62.6726 104.602 56.2045 102.482 50.2543 98.7276C50.1219 98.7553 50.0493 98.8297 50.0362 98.9509C48.0666 101.116 46.1772 103.348 44.3676 105.647C44.1337 105.815 44.0973 106.038 44.2586 106.317C45.6239 109.187 47.041 112.015 48.5101 114.799C46.7157 118.932 44.8987 123.062 43.0595 127.187C44.6746 129.448 46.3462 131.68 48.074 133.884C57.8855 133.982 67.6966 133.945 77.5072 133.772C88.6623 133.958 99.8541 134.07 111.083 134.107C111.35 134.44 111.35 134.775 111.083 135.112C91.5319 135.033 71.9827 135.145 52.4345 135.446C51.8683 135.62 51.8683 135.732 52.4345 135.781C52.3434 135.942 52.1982 136.054 51.9984 136.116C52.1982 136.178 52.3434 136.29 52.4345 136.451C52.6124 136.813 52.9756 137.148 53.5246 137.455C53.7854 137.601 53.7854 137.713 53.5246 137.79C52.4345 137.232 51.3444 136.674 50.2543 136.116C49.9819 135.951 49.7639 135.988 49.6002 136.228C49.3364 136.131 49.1184 135.982 48.9461 135.781C47.0334 135.061 44.9258 134.503 42.6234 134.107C42.0784 133.995 41.5333 133.884 40.9883 133.772C40.755 133.779 40.5734 133.853 40.4432 133.995C38.9925 133.699 37.5391 133.401 36.0827 133.103C35.8464 133.144 35.6284 133.218 35.4287 133.326C35.4156 133.205 35.343 133.13 35.2107 133.103C33.8931 134 32.5122 134.782 31.0682 135.446C21.3298 135.595 11.5915 135.595 1.85309 135.446C1.6233 135.137 1.58711 134.802 1.74408 134.442C10.6311 134.257 19.5339 134.145 28.4519 134.107C30.3348 133.218 32.2244 132.325 34.1205 131.429C35.6476 130.349 37.2463 129.381 38.917 128.527C39.187 128.373 39.187 128.261 38.917 128.192C38.917 128.043 38.9897 127.969 39.1351 127.969C39.2696 127.944 39.3786 127.87 39.4621 127.746C40.8936 122.85 42.4924 118.014 44.2586 113.237C44.42 112.958 44.3835 112.735 44.1496 112.567C44.1496 112.493 44.1496 112.418 44.1496 112.344C44.268 112.33 44.3406 112.256 44.3676 112.12C42.8768 110.004 41.7141 107.698 40.8793 105.201C42.9082 102.64 45.052 100.185 47.3109 97.8348C47.4618 97.6256 47.4254 97.477 47.2019 97.3884C47.2019 97.2395 47.2019 97.0908 47.2019 96.9419C44.1625 94.1683 41.1466 91.1919 38.154 88.0134C24.8831 71.6375 21.6128 53.3339 28.3429 33.1026C29.7407 29.868 31.3032 26.743 33.0304 23.7276C33.601 22.6977 34.2551 21.7305 34.9926 20.8259C37.124 18.7352 39.3043 16.5401 41.5333 14.241C56.3548 0.368494 73.1426 -2.75651 91.8967 4.86604C102.149 9.38747 110.107 16.5676 115.77 26.4062C120.33 34.0111 122.873 42.2701 123.401 51.183C123.508 50.8944 123.544 50.5966 123.51 50.2901Z" fill="#364750"/>
<path fill-rule="evenodd" clip-rule="evenodd" d="M79.4699 3.19196C82.8789 3.76741 86.2219 4.69754 89.499 5.98214C94.7721 8.49286 99.6412 11.6179 104.107 15.3571C106.474 18.004 108.909 20.571 111.41 23.058C115.819 29.7022 118.907 36.9194 120.676 44.7098C121.291 48.556 121.655 52.425 121.766 56.317C120.726 70.7605 114.84 82.7025 104.107 92.1429C99.6504 95.2775 94.781 97.5096 89.499 98.8393C86.732 99.5324 83.9703 100.09 81.2141 100.513C77.7778 100.593 74.3621 100.37 70.967 99.8438C70.8924 99.6567 70.7472 99.5821 70.531 99.6205C67.5366 98.921 64.6297 97.9538 61.81 96.7188C58.5211 95.1469 55.3962 93.2866 52.435 91.1384C52.4481 91.0172 52.5207 90.9429 52.653 90.9152C53.1617 91.2127 53.6706 91.5105 54.1792 91.808C54.7275 91.3141 55.0546 90.7931 55.1603 90.2455C55.444 90.379 55.6258 90.6022 55.7054 90.9152C55.8379 91.4027 55.6925 91.8491 55.2693 92.2545C55.3419 92.3288 55.4147 92.4034 55.4874 92.4777C55.8072 92.4279 56.1342 92.3536 56.4685 92.2545C56.7778 92.4688 57.1049 92.6547 57.4496 92.8125C57.1777 93.146 57.1777 93.4808 57.4496 93.817C57.5392 93.6469 57.5754 93.4237 57.5586 93.1473C57.7402 93.3705 57.922 93.5938 58.1036 93.817C58.311 93.6326 58.529 93.5955 58.7577 93.7054C58.536 93.9395 58.4996 94.2 58.6487 94.4866C58.9666 94.2083 59.2936 94.2083 59.6298 94.4866C60.1321 94.9328 60.6408 95.3792 61.156 95.8259C61.3197 95.6304 61.4287 95.4071 61.483 95.1562C61.8072 95.3243 61.8436 95.5103 61.592 95.7143C61.7987 95.8221 62.0167 95.8592 62.2461 95.8259C62.2155 96.1884 62.361 96.4487 62.6821 96.6071C64.1276 97.3464 65.6538 97.8301 67.2606 98.058C67.2035 97.7281 67.2761 97.4306 67.4786 97.1652C67.5155 97.3654 67.5881 97.5886 67.6967 97.8348C67.8244 97.7882 67.9334 97.7136 68.0237 97.6116C68.4656 98.3783 69.0835 98.6759 69.8769 98.5045C70.0278 98.6217 70.1368 98.7705 70.2039 98.9509C70.5562 98.7176 70.9197 98.4944 71.294 98.2812C71.3666 98.5788 71.4395 98.8766 71.5121 99.1741C71.8077 98.9777 72.1347 98.9031 72.4932 98.9509C72.4932 99.1741 72.4932 99.3973 72.4932 99.6205C73.0803 99.6045 73.6618 99.5301 74.2374 99.3973C75.5599 99.9475 76.9406 100.171 78.3798 100.067C79.5569 100.079 80.7198 99.9674 81.8682 99.7321C82.713 99.4315 82.713 99.171 81.8682 98.9509C82.7627 98.1031 82.6901 97.9542 81.6501 98.5045C81.1123 98.1978 80.7124 98.3467 80.451 98.9509C80.0843 98.6462 80.0479 98.3114 80.342 97.9464C80.8367 97.7772 81.3092 97.8145 81.7592 98.058C81.8004 96.7393 82.0184 96.6647 82.4132 97.8348C82.5552 97.4475 82.519 97.0754 82.3042 96.7188C82.7237 96.7038 83.1597 96.6295 83.6124 96.4955C82.7706 96.2505 82.7706 96.0645 83.6124 95.9375C83.202 95.8933 82.8388 95.7817 82.5222 95.6027C83.025 95.4926 83.5336 95.4183 84.0484 95.3795C94.3905 93.9576 102.784 89.1212 109.23 80.8705C111.157 78.4154 112.756 75.7368 114.027 72.8348C114.593 70.4855 115.284 68.1788 116.098 65.9152C117.287 61.1583 117.723 56.3221 117.406 51.4063C116.949 46.779 116.04 42.2404 114.681 37.7902C111.381 29.5772 106.476 22.546 99.9641 16.6964C89.3409 8.56473 77.4951 5.73728 64.4263 8.21429C63.2038 8.51964 62.0409 8.92879 60.9379 9.44196C49.3125 13.7176 41.4272 21.8279 37.2824 33.7723C36.6802 35.2857 36.2806 36.8482 36.0833 38.4598C33.8091 49.0002 34.972 59.1192 39.5717 68.817C41.2816 72.769 43.5344 76.3404 46.3304 79.5312C47.5581 81.1603 48.9388 82.6484 50.4728 83.9955C54.4387 87.6806 58.8719 90.6569 63.7722 92.9241C63.7788 93.1467 63.6698 93.2955 63.4452 93.3705C58.7001 90.8942 54.3035 87.8808 50.2548 84.3304C49.8015 84.15 49.3655 84.1873 48.9467 84.442C49.2717 84.608 49.5988 84.7567 49.9278 84.8884C50.0732 85.1116 50.0732 85.3348 49.9278 85.558C49.5887 85.1906 49.2255 85.1163 48.8376 85.3348C48.6037 84.8779 48.3495 84.4315 48.0746 83.9955C47.6128 84.3183 47.1041 84.4672 46.5484 84.442C46.4788 83.9397 46.5879 83.4933 46.8754 83.1027C46.9685 83.7708 47.223 83.8824 47.6385 83.4375C47.7192 83.0781 47.5738 82.7433 47.2025 82.433C47.4937 82.0145 47.3847 81.717 46.8754 81.5402C46.7701 81.7518 46.7339 81.975 46.7664 82.2098C46.5102 82.2587 46.2922 82.1844 46.1124 81.9866C46.3711 81.7592 46.5892 81.4987 46.7664 81.2054C46.3474 80.8884 46.0568 80.4792 45.8943 79.9777C45.2592 80.2565 45.1138 80.0703 45.4583 79.4196C44.0381 77.4067 42.6573 75.3605 41.3158 73.2812C40.6075 72.8969 40.2078 73.1201 40.1167 73.9509C39.8629 73.4712 39.6087 72.9877 39.3536 72.5C40.2253 72.39 40.4071 71.9808 39.8987 71.2723C39.8313 71.5549 39.7223 71.8154 39.5717 72.0536C39.1042 72.3094 38.7046 72.6442 38.3725 73.058C38.2042 73.0257 38.0588 72.9513 37.9365 72.8348C37.7479 73.3679 37.9295 73.7027 38.4815 73.8393C38.2179 74.5145 38.327 75.1471 38.8086 75.7366C40.6646 77.9868 42.3362 80.3679 43.8231 82.8795C46.3025 85.5705 49.0278 87.9143 51.999 89.9107C51.7293 89.9625 51.5113 90.0741 51.3449 90.2455C49.8586 88.9272 48.3325 87.6623 46.7664 86.4509C41.4453 80.9913 37.3755 74.667 34.5571 67.4777C30.6859 56.4589 30.2499 45.2982 33.249 33.9955C34.4553 28.5507 36.7081 23.64 40.0077 19.2634C45.5605 12.4319 52.4647 7.55826 60.7199 4.64286C63.5368 3.8654 66.3711 3.3817 69.2228 3.19196C72.6371 2.90737 76.0528 2.90737 79.4699 3.19196Z" fill="#AAAFB3"/>
<path fill-rule="evenodd" clip-rule="evenodd" d="M123.51 50.2902C123.544 50.5967 123.507 50.8944 123.401 51.1831C122.873 42.2701 120.329 34.0112 115.77 26.4063C110.106 16.5677 102.149 9.38752 91.8963 4.86609C73.1421 -2.75645 56.3543 0.36855 41.5329 14.2411C39.3038 16.5402 37.1236 18.7353 34.9922 20.8259C39.8166 14.9563 45.4124 10.0083 51.78 5.98217C62.8019 0.118773 74.2843 -1.07185 86.2277 2.41074C99.4495 6.50069 109.515 14.648 116.424 26.8527C119.184 31.6835 121.219 36.8174 122.529 42.2545C123.119 44.8998 123.446 47.5784 123.51 50.2902Z" fill="#13171A"/>
<path fill-rule="evenodd" clip-rule="evenodd" d="M79.47 3.19198C76.0529 2.90738 72.6372 2.90738 69.2229 3.19198C68.8525 3.22769 68.4891 3.19064 68.1328 3.08037C72.1327 2.64443 76.1297 2.64443 80.1241 3.08037C79.9174 3.18818 79.6994 3.22524 79.47 3.19198Z" fill="#0E1C24"/>
<path fill-rule="evenodd" clip-rule="evenodd" d="M117.404 51.4063C117.375 56.1525 116.867 60.8773 115.878 65.5804C115.893 65.7512 115.966 65.8628 116.096 65.9152C115.282 68.1788 114.592 70.4855 114.025 72.8349C112.755 75.7369 111.156 78.4154 109.228 80.8706C102.783 89.1212 94.389 93.9576 84.0468 95.3795C83.7649 95.2326 83.4379 95.1581 83.0657 95.1563C80.1601 95.2862 77.2894 95.4351 74.4538 95.6027C72.494 95.4543 70.6044 95.0822 68.7852 94.4866C62.2421 92.4971 56.2829 88.963 50.9073 83.884C50.703 83.7295 50.5578 83.7668 50.4712 83.9956C48.9372 82.6485 47.5565 81.1603 46.3288 79.5313C44.9986 77.5099 43.5815 75.4266 42.0773 73.2813C41.3507 71.7931 40.6238 70.3052 39.8971 68.817C39.7467 68.5407 39.6377 68.5407 39.5701 68.817C34.9704 59.1192 33.8075 49.0003 36.0817 38.4599C38.3014 30.0076 42.5893 22.6786 48.9451 16.4732C49.9626 15.7293 50.9799 14.9851 51.9974 14.2411C55.1044 12.5793 58.0842 10.9795 60.9363 9.44199C62.0393 8.92882 63.2023 8.51967 64.4247 8.21432C77.4935 5.73731 89.3393 8.56476 99.9625 16.6965C106.474 22.546 111.38 29.5773 114.679 37.7902C116.038 42.2404 116.947 46.779 117.404 51.4063Z" fill="#374750"/>
<path fill-rule="evenodd" clip-rule="evenodd" d="M77.7266 12.567C77.8175 12.4277 77.9629 12.3533 78.1626 12.3438C82.9724 13.452 87.5509 15.2004 91.8981 17.5893C92.4423 17.8864 92.8783 18.2955 93.2062 18.817C88.4215 15.8114 83.2617 13.7281 77.7266 12.567Z" fill="#131619"/>
<path fill-rule="evenodd" clip-rule="evenodd" d="M76.8517 12.3437C76.7062 12.3437 76.561 12.3437 76.4156 12.3437C68.7665 11.1687 61.4991 12.3594 54.6133 15.9152C59.4719 12.867 64.7771 11.4533 70.529 11.6741C72.8729 11.6286 75.1986 11.8147 77.5057 12.2321C77.299 12.3399 77.081 12.377 76.8517 12.3437Z" fill="#0E1215"/>
<path fill-rule="evenodd" clip-rule="evenodd" d="M76.4178 12.3437C76.0304 12.6964 75.6307 13.0683 75.2187 13.4598C74.8681 13.1027 74.4685 12.8051 74.0195 12.5669C72.8895 13.0455 71.7994 13.0828 70.7492 12.6785C70.9672 12.6042 71.1852 12.5297 71.4033 12.4553C71.0398 12.4181 70.6766 12.381 70.3132 12.3437C69.767 12.6732 68.8949 12.8964 67.6969 13.0134C67.6297 13.1937 67.5207 13.3426 67.3698 13.4598C67.0459 12.996 66.6098 12.6984 66.0617 12.5669C65.6444 12.8294 65.6806 13.0527 66.1707 13.2366C65.4783 13.5707 64.897 13.4219 64.4265 12.7902C64.3539 12.939 64.2811 13.0877 64.2085 13.2366C63.707 13.1544 63.2346 13.1544 62.7913 13.2366C62.686 13.4482 62.6499 13.6714 62.6823 13.9062C62.3917 13.9062 62.1009 13.9062 61.8102 13.9062C61.8102 14.1294 61.8102 14.3527 61.8102 14.5759C61.4078 14.5138 61.1169 14.6627 60.9382 15.0223C61.0836 15.0966 61.2288 15.1712 61.3742 15.2455C61.2288 15.3944 61.0836 15.5431 60.9382 15.6919C61.1403 16.1364 61.1767 16.5828 61.0472 17.0312C62.1966 16.6922 63.3231 16.7665 64.4265 17.2544C72.4051 16.6486 79.8179 18.4716 86.6649 22.7232C87.3355 23.308 88.0258 23.866 88.7361 24.3973C88.8815 24.6205 88.8815 24.8437 88.7361 25.0669C87.024 26.6616 85.3162 28.2241 83.6126 29.7544C82.3149 30.1397 81.1158 30.735 80.0152 31.5402C79.0483 34.6591 77.9943 37.7469 76.8538 40.8036C76.4671 41.3377 75.9584 41.7096 75.3277 41.9196C74.1076 42.3605 72.9085 42.8442 71.7303 43.3705C71.0599 45.0221 70.3694 46.6589 69.6591 48.2812C69.4764 48.3576 69.4036 48.5062 69.4411 48.7277C68.7187 50.3556 67.8831 51.9181 66.9338 53.4152C67.007 54.9471 67.3341 56.435 67.9149 57.8794C67.292 58.3835 66.6379 58.8299 65.9527 59.2187C64.2371 60.2076 62.5655 61.2493 60.9382 62.3437C58.7505 63.5569 56.5339 64.7475 54.2884 65.9152C54.4864 67.7103 54.8134 69.496 55.2695 71.2723C55.5384 72.879 56.047 74.4042 56.7957 75.8482C56.5448 76.3984 56.3267 76.9565 56.1416 77.5223C55.1259 79.2326 54.1084 80.9437 53.0893 82.6562C52.9439 82.7306 52.7987 82.8051 52.6533 82.8794C45.1184 75.9716 40.3219 67.4152 38.2637 57.2098C38.3154 56.9216 38.2428 56.6984 38.0457 56.5402C36.0456 43.8225 38.9161 32.4386 46.6576 22.3884C49.0999 19.9212 51.7526 17.7636 54.6155 15.9152C61.5013 12.3594 68.7687 11.1687 76.4178 12.3437Z" fill="#E8EEF4"/>
<path fill-rule="evenodd" clip-rule="evenodd" d="M60.9367 9.44202C58.0845 10.9795 55.1048 12.5793 51.9977 14.2411C50.9802 14.9851 49.9629 15.7293 48.9454 16.4733C42.5896 22.6786 38.3017 30.0076 36.082 38.4599C36.2793 36.8483 36.679 35.2858 37.2812 33.7724C41.426 21.828 49.3112 13.7177 60.9367 9.44202Z" fill="#1C2C34"/>
<path fill-rule="evenodd" clip-rule="evenodd" d="M76.4172 12.3438C76.5626 12.3438 76.7078 12.3438 76.8532 12.3438C77.086 12.5522 77.3767 12.6268 77.7253 12.567C83.2605 13.7281 88.4202 15.8114 93.2049 18.817C96.6874 21.9359 99.9578 25.2842 103.016 28.8616C102.665 28.771 102.374 28.771 102.144 28.8616C102.503 29.1179 102.83 29.4154 103.125 29.7545C103.706 30.7962 104.288 31.8377 104.869 32.8795C105.826 33.3408 106.298 34.0475 106.286 35C106.679 35.0708 106.752 35.2196 106.504 35.4464C106.917 35.6922 107.063 35.9897 106.94 36.3393C107.343 36.6781 107.67 37.0873 107.922 37.567C107.974 38.8408 108.447 39.8826 109.339 40.692C109.293 40.8228 109.22 40.9344 109.121 41.0268C109.734 41.9908 110.17 42.958 110.429 43.9286C110.283 44.0029 110.138 44.0775 109.993 44.1518C110.17 44.4451 110.388 44.7056 110.647 44.933C110.315 45.3027 110.388 45.5632 110.865 45.7143C110.765 45.8067 110.692 45.9183 110.647 46.0491C111.078 47.1091 111.442 48.1879 111.737 49.2857C111.755 49.6132 111.682 49.9853 111.519 50.4018C111.758 51.0989 111.976 51.8056 112.173 52.5223C112.01 52.8652 111.792 53.1627 111.519 53.4152C112.337 53.7257 112.592 54.3208 112.282 55.2009C112.203 54.7304 112.058 54.2839 111.846 53.8616C111.737 53.9732 111.628 54.0848 111.519 54.1964C112.073 54.6594 112.073 55.1431 111.519 55.6473C111.76 55.9955 111.76 56.3304 111.519 56.6518C111.753 57.4388 112.043 58.0339 112.391 58.4375C112.246 59.3625 112.137 60.2926 112.064 61.2277C111.907 61.0154 111.726 60.9783 111.519 61.1161C111.769 61.4741 111.769 61.846 111.519 62.2321C111.607 62.5609 111.752 62.8585 111.955 63.125C111.81 63.1993 111.664 63.2739 111.519 63.3482C111.779 64.2629 111.488 65.0815 110.647 65.8036C110.877 66.1134 110.913 66.4482 110.756 66.808C110.581 67.3536 110.253 67.7629 109.775 68.0357C110.102 68.8681 109.956 69.6864 109.339 70.4911C109.557 70.5654 109.775 70.64 109.993 70.7143C109.183 70.7656 109.038 71.0261 109.557 71.4955C109.361 71.5333 109.143 71.6076 108.903 71.7188C108.975 71.8676 109.048 72.0163 109.121 72.1652C108.363 72.9737 107.963 73.9411 107.922 75.067C107.135 75.7672 106.408 76.7344 105.741 77.9688C105.164 77.0444 105.128 76.04 105.632 74.9554C105.614 74.7083 105.541 74.485 105.414 74.2857C106.517 74.0879 106.662 73.6788 105.85 73.058C107.62 64.3705 107.365 55.6652 105.087 46.942C102.381 38.3114 97.5484 31.2058 90.5887 25.625C90.3706 25.4761 90.1526 25.4761 89.9346 25.625C89.3727 26.173 88.8639 26.7683 88.4084 27.4107C87.2621 28.1371 86.2448 29.0299 85.3561 30.0893C84.8782 30.296 84.4422 30.5565 84.048 30.8705C84.1402 30.3614 83.9948 29.9893 83.6119 29.7545C85.3156 28.2241 87.0233 26.6616 88.7355 25.067C88.8809 24.8438 88.8809 24.6205 88.7355 24.3973C88.0251 23.8661 87.3349 23.308 86.6642 22.7232C79.8172 18.4717 72.4044 16.6487 64.4259 17.2545C63.3225 16.7665 62.1959 16.6922 61.0465 17.0312C61.176 16.5828 61.1396 16.1364 60.9375 15.692C61.0829 15.5431 61.2281 15.3944 61.3735 15.2455C61.2281 15.1712 61.0829 15.0967 60.9375 15.0223C61.1163 14.6627 61.4071 14.5138 61.8096 14.5759C61.8096 14.3527 61.8096 14.1295 61.8096 13.9062C62.1002 13.9062 62.3911 13.9062 62.6817 13.9062C62.6492 13.6714 62.6854 13.4482 62.7907 13.2366C63.2339 13.1545 63.7064 13.1545 64.2078 13.2366C64.2805 13.0877 64.3533 12.9391 64.4259 12.7902C64.8964 13.4219 65.4776 13.5708 66.1701 13.2366C65.6799 13.0527 65.6438 12.8295 66.061 12.567C66.6092 12.6984 67.0452 12.996 67.3692 13.4598C67.5201 13.3426 67.6291 13.1938 67.6962 13.0134C68.8943 12.8964 69.7664 12.6732 70.3125 12.3438C70.6759 12.381 71.0392 12.4181 71.4026 12.4554C71.1846 12.5297 70.9666 12.6042 70.7485 12.6786C71.7988 13.0828 72.8889 13.0455 74.0189 12.567C74.4678 12.8051 74.8674 13.1027 75.218 13.4598C75.6301 13.0683 76.0297 12.6964 76.4172 12.3438Z" fill="#CBD9E6"/>
<path fill-rule="evenodd" clip-rule="evenodd" d="M40.0087 19.2634C36.7092 23.6399 34.4563 28.5507 33.25 33.9955C34.044 29.2375 35.8244 24.8475 38.5916 20.8259C38.6988 20.5917 38.6626 20.3685 38.4826 20.1562C39.1011 19.9707 39.5735 19.5986 39.8997 19.0402C39.9867 19.0911 40.0229 19.1656 40.0087 19.2634Z" fill="#1B2A32"/>
<path fill-rule="evenodd" clip-rule="evenodd" d="M103.017 28.8616C109.165 36.877 112.436 46.0288 112.828 56.3169C112.916 70.689 107.03 81.5895 95.1685 89.0178C88.603 92.5957 81.6262 93.9723 74.2383 93.1473C74.0837 92.9455 73.8657 92.8712 73.5842 92.9241C69.1607 92.481 65.0183 91.1417 61.1569 88.9062C60.9846 88.7051 60.7666 88.5562 60.5028 88.4598C58.7115 87.5073 57.0402 86.3913 55.4883 85.1116C56.8782 83.6805 58.1137 82.118 59.1947 80.4241C60.1906 79.0924 60.9899 77.6415 61.5929 76.0714C61.3311 75.0776 60.9679 74.1475 60.5028 73.2812C60.0173 71.1611 59.4722 69.0779 58.8676 67.0312C61.6518 65.5509 64.3771 63.9884 67.0435 62.3437C68.4243 61.4509 69.8052 60.558 71.186 59.6651C71.6172 59.4828 71.8352 59.148 71.84 58.6607C71.3994 57.056 70.8182 55.5308 70.0958 54.0848C70.9071 51.1118 71.9608 48.21 73.2572 45.3794C75.043 44.4656 76.7872 43.4984 78.4897 42.4776C79.3952 39.5888 80.2673 36.687 81.106 33.7723C81.4878 32.1535 82.4689 31.1864 84.0493 30.8705C84.4435 30.5564 84.8796 30.296 85.3575 30.0893C86.2461 29.0299 87.2634 28.137 88.4098 27.4107C88.8652 26.7683 89.3741 26.173 89.936 25.625C90.154 25.4761 90.372 25.4761 90.59 25.625C97.5498 31.2058 102.383 38.3114 105.089 46.9419C107.367 55.6651 107.621 64.3705 105.852 73.058C106.664 73.6788 106.518 74.0879 105.416 74.2857C105.542 74.485 105.615 74.7082 105.634 74.9553C105.129 76.0399 105.166 77.0444 105.743 77.9687C106.409 76.7343 107.136 75.7672 107.923 75.0669C107.964 73.941 108.364 72.9736 109.122 72.1651C109.049 72.0163 108.977 71.8676 108.904 71.7187C109.144 71.6076 109.362 71.5332 109.558 71.4955C109.039 71.0261 109.185 70.7656 109.994 70.7142C109.776 70.6399 109.558 70.5654 109.34 70.491C109.958 69.6863 110.103 68.868 109.776 68.0357C110.255 67.7629 110.582 67.3535 110.757 66.808C110.914 66.4482 110.878 66.1134 110.648 65.8035C111.489 65.0814 111.78 64.2629 111.52 63.3482C111.666 63.2738 111.811 63.1993 111.956 63.125C111.754 62.8584 111.608 62.5609 111.52 62.2321C111.771 61.8459 111.771 61.4741 111.52 61.116C111.727 60.9783 111.909 61.0154 112.065 61.2276C112.139 60.2926 112.248 59.3625 112.392 58.4375C112.045 58.0339 111.754 57.4388 111.52 56.6518C111.762 56.3303 111.762 55.9955 111.52 55.6473C112.075 55.143 112.075 54.6593 111.52 54.1964C111.629 54.0848 111.738 53.9732 111.847 53.8616C112.059 54.2839 112.205 54.7303 112.283 55.2009C112.593 54.3207 112.339 53.7256 111.52 53.4151C111.793 53.1627 112.011 52.8651 112.174 52.5223C111.977 51.8055 111.759 51.0989 111.52 50.4018C111.683 49.9852 111.756 49.6131 111.738 49.2857C111.443 48.1879 111.08 47.1091 110.648 46.0491C110.694 45.9183 110.767 45.8067 110.866 45.7143C110.389 45.5631 110.316 45.3026 110.648 44.933C110.389 44.7055 110.171 44.4451 109.994 44.1518C110.14 44.0774 110.285 44.0029 110.43 43.9285C110.171 42.958 109.735 41.9908 109.122 41.0268C109.222 40.9343 109.294 40.8227 109.34 40.6919C108.448 39.8826 107.976 38.8408 107.923 37.5669C107.672 37.0872 107.345 36.6781 106.942 36.3393C107.064 35.9897 106.919 35.6922 106.506 35.4464C106.753 35.2196 106.68 35.0707 106.288 35C106.299 34.0475 105.827 33.3408 104.871 32.8794C104.289 31.8377 103.708 30.7962 103.126 29.7544C102.832 29.4154 102.505 29.1178 102.145 28.8616C102.376 28.771 102.667 28.771 103.017 28.8616Z" fill="#E8EEF4"/>
<path fill-rule="evenodd" clip-rule="evenodd" d="M71.6204 9.44197C82.9955 9.21652 92.734 13.1228 100.835 21.1607C108.434 28.4252 113.121 37.3167 114.898 47.8348C115.703 52.923 115.557 57.9824 114.462 63.0134C114.655 60.0435 114.728 57.0672 114.68 54.0848C114.305 51.0248 113.869 47.9741 113.372 44.933C111.49 38.6248 108.656 32.8212 104.869 27.5223C100.952 23.2882 96.7005 19.4563 92.1146 16.0268C86.9921 13.3292 81.6141 11.3949 75.9808 10.2232C74.4619 10.0004 72.9357 9.85179 71.4023 9.77679C71.5236 9.6913 71.5962 9.57969 71.6204 9.44197Z" fill="#656B74"/>
<path fill-rule="evenodd" clip-rule="evenodd" d="M83.6136 29.7545C83.9965 29.9893 84.1419 30.3614 84.0497 30.8706C82.4692 31.1864 81.4881 32.1536 81.1064 33.7724C80.2676 36.6871 79.3955 39.5889 78.4901 42.4777C76.7876 43.4985 75.0434 44.4657 73.2575 45.3795C71.9612 48.2101 70.9075 51.1119 70.0962 54.0849C69.8501 53.6099 69.8136 53.0891 69.9872 52.5224C71.0313 49.9351 72.085 47.3309 73.1485 44.7099C73.0541 43.8242 72.8361 43.7126 72.4945 44.3751C72.1953 44.4648 71.9047 44.5764 71.6224 44.7099C71.0187 45.8715 70.4736 47.0619 69.9872 48.2813C69.8368 48.5576 69.7277 48.5576 69.6602 48.2813C70.3705 46.659 71.061 45.0222 71.7314 43.3706C72.9096 42.8442 74.1087 42.3605 75.3288 41.9197C75.9595 41.7097 76.4682 41.3378 76.8549 40.8036C77.9954 37.7469 79.0493 34.6592 80.0163 31.5402C81.1168 30.7351 82.316 30.1398 83.6136 29.7545Z" fill="#8B949A"/>
<path fill-rule="evenodd" clip-rule="evenodd" d="M121.766 56.317C121.654 52.425 121.291 48.556 120.676 44.7098C120.966 45.1123 121.148 45.7074 121.221 46.4956C121.595 49.2429 121.922 51.996 122.202 54.7545C122.14 55.5795 122.031 56.398 121.875 57.2098C121.768 56.9212 121.732 56.6235 121.766 56.317Z" fill="#18272F"/>
<path fill-rule="evenodd" clip-rule="evenodd" d="M54.6139 15.9152C51.751 17.7636 49.0983 19.9212 46.656 22.3884C38.9145 32.4386 36.044 43.8225 38.0441 56.5402C38.0727 56.7051 38.0363 56.854 37.9351 56.9866C35.6297 44.1547 38.3914 32.6219 46.22 22.3884C48.6703 19.7078 51.4682 17.55 54.6139 15.9152Z" fill="#0C1114"/>
<path fill-rule="evenodd" clip-rule="evenodd" d="M70.0938 54.0848C70.8162 55.5307 71.3974 57.056 71.838 58.6607C71.8332 59.1479 71.6152 59.4828 71.184 59.6651C71.1709 59.5439 71.0983 59.4696 70.9659 59.4419C70.1084 59.9361 69.2728 60.4571 68.4587 61.0044C68.221 60.6437 67.9666 60.4948 67.6956 60.558C67.81 60.4035 67.9555 60.2919 68.1316 60.2232C67.642 59.7816 67.1333 59.5584 66.6055 59.5535C67.1852 59.0428 67.7667 58.5218 68.3497 57.991C67.6134 56.5502 67.2864 55.0249 67.3686 53.4151C68.2707 52.0062 69.0338 50.518 69.6578 48.9508C69.6308 48.8153 69.5582 48.741 69.4398 48.7276C69.4023 48.5062 69.4751 48.3575 69.6578 48.2812C69.7254 48.5575 69.8344 48.5575 69.9848 48.2812C70.4712 47.0618 71.0163 45.8714 71.62 44.7098C71.9023 44.5763 72.193 44.4647 72.4921 44.3749C72.8337 43.7124 73.0518 43.8241 73.1462 44.7098C72.0826 47.3307 71.0289 49.935 69.9848 52.5223C69.8113 53.089 69.8477 53.6098 70.0938 54.0848Z" fill="#9DA4A8"/>
<path fill-rule="evenodd" clip-rule="evenodd" d="M33.2482 26.183C26.4527 43.7553 27.5792 60.8685 36.6276 77.5223C42.8225 87.512 51.2164 94.841 61.8093 99.5089C67.7641 101.874 73.9416 103.064 80.3413 103.08C71.9192 104.616 63.8524 103.5 56.1407 99.7321C51.9163 97.4966 47.9918 94.818 44.3674 91.6964C42.0143 89.354 39.725 86.9357 37.4997 84.4419C31.9597 77.6328 28.4713 69.8203 27.0346 61.0044C25.3469 50.8839 26.5098 41.1368 30.5229 31.7633C31.4308 29.9042 32.3393 28.0441 33.2482 26.183Z" fill="#626871"/>
<path fill-rule="evenodd" clip-rule="evenodd" d="M117.405 51.4062C117.722 56.3221 117.286 61.1583 116.097 65.9152C115.967 65.8627 115.894 65.7511 115.879 65.5804C116.867 60.8772 117.376 56.1525 117.405 51.4062Z" fill="#121F26"/>
<path fill-rule="evenodd" clip-rule="evenodd" d="M123.73 51.4062C124.384 64.7969 120.677 76.7018 112.61 87.1205C112.387 87.0319 112.35 86.8833 112.501 86.6741C114.135 84.5201 115.661 82.2879 117.08 79.9777C121.702 71.0187 123.919 61.4949 123.73 51.4062Z" fill="#0F1316"/>
<path fill-rule="evenodd" clip-rule="evenodd" d="M69.4394 48.7277C69.5578 48.7411 69.6304 48.8154 69.6574 48.9509C69.0334 50.5181 68.2704 52.0062 67.3682 53.4152C67.286 55.025 67.613 56.5502 68.3493 57.9911C67.7663 58.5219 67.1848 59.0428 66.6051 59.5536C67.1329 59.5585 67.6416 59.7817 68.1313 60.2232C67.9551 60.2919 67.8097 60.4036 67.6952 60.558C67.9662 60.4948 68.2207 60.6437 68.4583 61.0044C69.2724 60.4571 70.1081 59.9361 70.9656 59.4419C71.0979 59.4696 71.1705 59.544 71.1836 59.6652C69.8029 60.558 68.4219 61.4509 67.0412 62.3437C67.0281 62.2225 66.9555 62.1482 66.8231 62.1205C66.0236 62.5669 65.2244 63.0134 64.4249 63.4598C64.2795 63.3855 64.1342 63.3109 63.9888 63.2366C63.4697 63.6589 62.8885 63.7705 62.2446 63.5714C62.481 63.0826 62.3356 62.7107 61.8086 62.4553C62.0796 62.1978 62.2976 61.9 62.4627 61.5625C63.6254 60.8928 64.7883 60.2232 65.951 59.5536C66.2209 59.3995 66.2209 59.2879 65.951 59.2187C66.6363 58.8299 67.2904 58.3835 67.9132 57.8794C67.3324 56.435 67.0054 54.9471 66.9321 53.4152C67.8814 51.9181 68.7171 50.3556 69.4394 48.7277Z" fill="#7F8A92"/>
<path fill-rule="evenodd" clip-rule="evenodd" d="M60.9388 62.3438C58.9715 63.7433 56.9003 65.0083 54.7251 66.1384C54.6165 66.5908 54.6529 67.0373 54.8341 67.4777C55.0995 67.8609 55.3175 68.2701 55.4882 68.7054C55.3463 69.5953 55.2737 70.4511 55.2702 71.2723C54.8141 69.496 54.487 67.7103 54.2891 65.9152C56.5345 64.7475 58.7511 63.5569 60.9388 62.3438Z" fill="#3F5563"/>
<path fill-rule="evenodd" clip-rule="evenodd" d="M33.0308 23.7277C31.3036 26.7431 29.741 29.8681 28.3433 33.1027C21.6131 53.3339 24.8834 71.6375 38.1543 88.0134C41.1469 91.1919 44.1628 94.1683 47.2023 96.9419C38.9137 90.6875 32.7 82.7261 28.5613 73.058C23.9876 61.3073 23.3335 49.3283 26.5991 37.1205C27.842 33.2364 29.441 29.5161 31.3956 25.9598C31.827 25.1116 32.3721 24.3674 33.0308 23.7277Z" fill="#101316"/>
<path fill-rule="evenodd" clip-rule="evenodd" d="M65.9533 59.2188C66.2232 59.2879 66.2232 59.3996 65.9533 59.5536C64.7905 60.2232 63.6276 60.8929 62.4649 61.5625C62.2998 61.9 62.0818 62.1978 61.8108 62.4554C62.3378 62.7107 62.4832 63.0826 62.2469 63.5714C62.8907 63.7705 63.4719 63.6589 63.991 63.2366C64.1365 63.3109 64.2817 63.3855 64.4271 63.4598C65.2266 63.0134 66.0259 62.567 66.8253 62.1205C66.9577 62.1482 67.0303 62.2225 67.0434 62.3438C64.3769 63.9884 61.6517 65.5509 58.8675 67.0312C59.4721 69.0779 60.0171 71.1612 60.5027 73.2812C59.9733 72.496 59.5009 71.5288 59.0855 70.3795C58.7395 70.6533 58.4487 70.579 58.2134 70.1562C58.0026 70.4192 57.8936 70.7167 57.8864 71.0491C57.5938 70.7132 57.2306 70.5643 56.7963 70.6027C56.8019 71.3187 56.5839 71.7652 56.1422 71.942C56.0312 73.3536 56.3947 74.6556 57.2323 75.8482C56.9463 76.4748 56.5828 77.0328 56.1422 77.5223C56.3273 76.9565 56.5453 76.3984 56.7963 75.8482C56.0476 74.4042 55.5389 72.879 55.2701 71.2723C55.2736 70.4511 55.3462 69.5953 55.4881 68.7054C55.3174 68.2701 55.0994 67.8609 54.8341 67.4777C54.6529 67.0373 54.6165 66.5908 54.7251 66.1384C56.9003 65.0083 58.9715 63.7433 60.9387 62.3438C62.566 61.2493 64.2376 60.2076 65.9533 59.2188Z" fill="#647784"/>
<path fill-rule="evenodd" clip-rule="evenodd" d="M93.2049 18.817C109.437 31.2335 115.578 47.6771 111.628 68.1474C107.064 82.4909 97.5075 90.9358 82.9578 93.4822C79.8965 93.6804 76.8442 93.6059 73.8008 93.259C73.9303 93.1554 74.0757 93.1181 74.2368 93.1474C81.6248 93.9724 88.6015 92.5958 95.1671 89.0179C107.028 81.5896 112.915 70.6891 112.827 56.317C112.434 46.0288 109.164 36.8771 103.016 28.8617C99.9577 25.2842 96.6873 21.936 93.2049 18.817Z" fill="#101518"/>
<path fill-rule="evenodd" clip-rule="evenodd" d="M60.5026 73.2812C60.9677 74.1475 61.3309 75.0777 61.5928 76.0714C60.9897 77.6415 60.1904 79.0924 59.1945 80.4241C59.0761 80.4107 59.0035 80.3364 58.9765 80.2009C59.3035 79.6801 59.6305 79.1592 59.9576 78.6384C59.965 78.2634 60.0014 77.9286 60.0666 77.6339C59.5355 77.3882 59.063 77.0533 58.6494 76.6295C58.3346 76.9989 57.9348 77.1478 57.4503 77.0759C57.4178 77.3107 57.454 77.5339 57.5593 77.7455C57.754 77.4752 57.9356 77.4752 58.1044 77.7455C57.3712 78.2337 57.2986 78.7917 57.8864 79.4196C57.553 80.0304 57.226 80.0674 56.9053 79.5312C56.4206 79.8703 55.9119 80.1681 55.3791 80.4241C54.5033 81.0605 53.7402 81.8047 53.0898 82.6562C54.1089 80.9438 55.1264 79.2326 56.1422 77.5223C56.5828 77.0328 56.9462 76.4748 57.2323 75.8482C56.3946 74.6556 56.0312 73.3536 56.1422 71.942C56.5839 71.7652 56.8019 71.3188 56.7962 70.6027C57.2305 70.5643 57.5938 70.7132 57.8864 71.0491C57.8935 70.7167 58.0026 70.4192 58.2134 70.1562C58.4486 70.579 58.7395 70.6533 59.0855 70.3795C59.5008 71.5288 59.9733 72.496 60.5026 73.2812Z" fill="#869098"/>
<path fill-rule="evenodd" clip-rule="evenodd" d="M46.329 79.5313C43.5331 76.3404 41.2803 72.769 39.5703 68.817C39.6379 68.5407 39.7469 68.5407 39.8973 68.817C40.624 70.3052 41.3509 71.7931 42.0776 73.2813C43.5817 75.4266 44.9989 77.5099 46.329 79.5313Z" fill="#17252D"/>
<path fill-rule="evenodd" clip-rule="evenodd" d="M38.2649 57.2098C40.323 67.4152 45.1195 75.9717 52.6544 82.8795C53.4738 83.7929 54.4185 84.5371 55.4887 85.1116C57.0406 86.3913 58.712 87.5074 60.5033 88.4598C60.4902 88.581 60.4176 88.6554 60.2852 88.6831C53.4308 85.0511 48.0166 79.8429 44.0425 73.0581C41.1289 68.3893 39.1302 63.3297 38.0469 57.8795C38.0512 57.6058 38.1238 57.3826 38.2649 57.2098Z" fill="#151A1E"/>
<path fill-rule="evenodd" clip-rule="evenodd" d="M59.193 80.424C58.1121 82.118 56.8765 83.6805 55.4866 85.1115C54.4164 84.537 53.4717 83.7928 52.6523 82.8794C52.7978 82.8051 52.943 82.7305 53.0884 82.6562C53.7388 81.8046 54.5018 81.0604 55.3776 80.424C55.9105 80.168 56.4191 79.8702 56.9038 79.5312C57.2245 80.0673 57.5515 80.0303 57.8849 79.4196C57.2971 78.7917 57.3697 78.2336 58.1029 77.7455C57.9342 77.4752 57.7526 77.4752 57.5579 77.7455C57.4526 77.5339 57.4164 77.3106 57.4489 77.0758C57.9333 77.1477 58.3332 76.9988 58.648 76.6294C59.0616 77.0533 59.534 77.3881 60.0651 77.6339C59.9999 77.9285 59.9635 78.2633 59.9561 78.6383C59.6291 79.1591 59.3021 79.6801 58.975 80.2008C59.0021 80.3363 59.0747 80.4106 59.193 80.424Z" fill="#9AA0A6"/>
<path fill-rule="evenodd" clip-rule="evenodd" d="M34.5579 67.4777C37.3763 74.6669 41.4461 80.9913 46.7672 86.4509C45.4063 85.3937 44.1343 84.2033 42.9518 82.8794C39.3679 78.3098 36.4972 73.2875 34.3398 67.8125C34.3551 67.6417 34.4277 67.5301 34.5579 67.4777Z" fill="#1C2C35"/>
<path fill-rule="evenodd" clip-rule="evenodd" d="M63.7711 92.9241C65.4019 93.5799 67.0735 94.1007 68.7856 94.4866C70.6048 95.0822 72.4944 95.4543 74.4542 95.6027C77.1396 95.8786 79.8287 95.8786 82.5211 95.6027C82.8377 95.7817 83.2009 95.8933 83.6112 95.9375C82.7694 96.0645 82.7694 96.2505 83.6112 96.4956C83.1586 96.6295 82.7225 96.7038 82.3031 96.7188C82.5178 97.0755 82.554 97.4476 82.4121 97.8348C82.0172 96.6647 81.7992 96.7393 81.758 98.0581C81.308 97.8145 80.8355 97.7772 80.3409 97.9464C80.0467 98.3114 80.0831 98.6462 80.4499 98.9509C80.7113 98.3467 81.1111 98.1978 81.649 98.5045C82.689 97.9543 82.7616 98.1031 81.867 98.9509C82.7119 99.171 82.7119 99.4315 81.867 99.7322C80.7187 99.9674 79.5558 100.079 78.3786 100.067C76.9395 100.171 75.5587 99.9476 74.2362 99.3973C73.6606 99.5302 73.0792 99.6045 72.492 99.6206C72.492 99.3973 72.492 99.1741 72.492 98.9509C72.1336 98.9031 71.8066 98.9777 71.5109 99.1741C71.4383 98.8766 71.3655 98.5788 71.2929 98.2813C70.9185 98.4944 70.5551 98.7177 70.2028 98.9509C70.1356 98.7706 70.0266 98.6217 69.8757 98.5045C69.0823 98.6759 68.4645 98.3784 68.0225 97.6116C67.9323 97.7136 67.8233 97.7882 67.6955 97.8348C67.5869 97.5886 67.5143 97.3654 67.4775 97.1652C67.2749 97.4306 67.2023 97.7281 67.2595 98.0581C65.6526 97.8302 64.1265 97.3464 62.681 96.6072C62.3598 96.4487 62.2144 96.1884 62.2449 95.8259C62.0156 95.8592 61.7975 95.8221 61.5909 95.7143C61.8425 95.5103 61.806 95.3243 61.4818 95.1563C61.4276 95.4072 61.3185 95.6304 61.1548 95.8259C60.6396 95.3793 60.131 94.9328 59.6286 94.4866C59.2925 94.2083 58.9654 94.2083 58.6475 94.4866C58.4984 94.2 58.5348 93.9395 58.7566 93.7054C58.5278 93.5956 58.3098 93.6326 58.1025 93.817C57.9209 93.5938 57.739 93.3706 57.5574 93.1473C57.5742 93.4237 57.538 93.6469 57.4484 93.817C57.1765 93.4808 57.1765 93.146 57.4484 92.8125C57.1037 92.6547 56.7767 92.4688 56.4673 92.2545C56.1331 92.3536 55.806 92.4279 55.4862 92.4777C55.4136 92.4034 55.3408 92.3288 55.2682 92.2545C55.6914 91.8491 55.8368 91.4027 55.7042 90.9152C55.6246 90.6022 55.4428 90.379 55.1592 90.2456C55.0534 90.7931 54.7264 91.3141 54.1781 91.8081C53.6694 91.5105 53.1605 91.2127 52.6519 90.9152C52.5196 90.9429 52.447 91.0172 52.4339 91.1384C52.0652 90.8339 51.7018 90.5364 51.3438 90.2456C51.5101 90.0741 51.7281 89.9625 51.9978 89.9107C49.0266 87.9143 46.3013 85.5706 43.822 82.8795C42.335 80.3679 40.6635 77.9868 38.8074 75.7366C38.3258 75.1471 38.2168 74.5145 38.4804 73.8393C37.9284 73.7027 37.7467 73.3679 37.9353 72.8348C38.0576 72.9514 38.2031 73.0257 38.3714 73.0581C38.7034 72.6442 39.1031 72.3094 39.5705 72.0536C39.7212 71.8154 39.8302 71.5549 39.8975 71.2723C40.406 71.9808 40.2241 72.39 39.3525 72.5C39.6076 72.9877 39.8618 73.4712 40.1156 73.9509C40.2067 73.1201 40.6063 72.8969 41.3147 73.2813C42.6562 75.3605 44.0369 77.4067 45.4571 79.4197C45.1127 80.0703 45.2581 80.2565 45.8932 79.9777C46.0556 80.4793 46.3462 80.8884 46.7653 81.2054C46.588 81.4987 46.37 81.7592 46.1112 81.9866C46.2911 82.1844 46.5091 82.2587 46.7653 82.2098C46.7328 81.975 46.769 81.7518 46.8743 81.5402C47.3836 81.717 47.4926 82.0145 47.2013 82.4331C47.5726 82.7433 47.718 83.0781 47.6374 83.4375C47.2218 83.8824 46.9674 83.7708 46.8743 83.1027C46.5867 83.4933 46.4777 83.9397 46.5472 84.442C47.103 84.4672 47.6116 84.3183 48.0734 83.9956C48.3483 84.4315 48.6026 84.8779 48.8365 85.3348C49.2244 85.1163 49.5876 85.1906 49.9266 85.5581C50.072 85.3348 50.072 85.1116 49.9266 84.8884C49.5976 84.7567 49.2706 84.6081 48.9455 84.442C49.3643 84.1873 49.8004 84.15 50.2536 84.3304C54.3023 87.8808 58.699 90.8942 63.4441 93.3706C63.6686 93.2956 63.7776 93.1467 63.7711 92.9241Z" fill="#A6ABAF"/>
<path fill-rule="evenodd" clip-rule="evenodd" d="M112.174 87.567C112.22 87.8844 112.329 88.1819 112.501 88.4598C113.982 90.1582 115.326 91.944 116.535 93.817C115.034 92.1634 113.58 90.4522 112.174 88.683C112.032 88.3913 111.887 88.0937 111.738 87.7902C111.855 87.423 112.001 87.3486 112.174 87.567Z" fill="#13171B"/>
<path fill-rule="evenodd" clip-rule="evenodd" d="M61.1556 88.9062C65.017 91.1417 69.1594 92.481 73.5829 92.9241C71.3826 93.0489 69.2024 92.7141 67.0422 91.9196C65.0028 91.2107 63.0406 90.3179 61.1556 89.2411C60.8856 89.0871 60.8856 88.9754 61.1556 88.9062Z" fill="#0B0F13"/>
<path fill-rule="evenodd" clip-rule="evenodd" d="M50.4727 83.9955C50.5592 83.7667 50.7044 83.7294 50.9087 83.8839C56.2843 88.9629 62.2435 92.497 68.7866 94.4865C67.0745 94.1006 65.4029 93.5799 63.7721 92.924C58.8718 90.6569 54.4385 87.6805 50.4727 83.9955Z" fill="#1A2830"/>
<path fill-rule="evenodd" clip-rule="evenodd" d="M132.451 106.094C132.451 106.168 132.451 106.243 132.451 106.317C128.788 102.679 125.155 98.9959 121.55 95.2678C120.968 94.8957 120.387 94.5238 119.806 94.1517C118.675 94.1129 117.585 94.0013 116.535 93.8169C118.365 93.3368 120.037 93.6716 121.55 94.8214C125.227 98.5493 128.861 102.307 132.451 106.094Z" fill="#060C10"/>
<path fill-rule="evenodd" clip-rule="evenodd" d="M84.0461 95.3795C83.5314 95.4183 83.0227 95.4926 82.52 95.6027C79.8276 95.8786 77.1385 95.8786 74.4531 95.6027C77.2887 95.435 80.1594 95.2862 83.065 95.1562C83.4372 95.158 83.7642 95.2326 84.0461 95.3795Z" fill="#1D2B33"/>
<path fill-rule="evenodd" clip-rule="evenodd" d="M108.467 101.63C106.654 99.7724 104.909 97.8378 103.234 95.826C97.4756 99.4064 91.3709 102.197 84.9205 104.197C83.6235 104.529 82.3154 104.789 80.9961 104.978C83.7262 104.216 86.7057 103.285 89.935 102.188C94.4893 100.228 98.9224 98.0331 103.234 95.6028C104.951 97.4726 106.732 99.3327 108.576 101.183C108.727 101.392 108.69 101.541 108.467 101.63Z" fill="#101416"/>
<path fill-rule="evenodd" clip-rule="evenodd" d="M115.225 95.1563C115.281 96.0206 115.136 96.8391 114.789 97.6116C113.708 99.4822 112.109 100.263 109.993 99.9554C108.425 98.0907 106.899 96.1933 105.414 94.2634C107.153 92.7074 108.897 91.1449 110.647 89.5759C112.323 91.2922 113.85 93.1523 115.225 95.1563Z" fill="#60666F"/>
<path fill-rule="evenodd" clip-rule="evenodd" d="M61.8086 96.7188C64.6283 97.9538 67.5352 98.921 70.5295 99.6205C70.4386 99.7598 70.2932 99.8342 70.0935 99.8438C67.0263 99.2482 64.2646 98.2065 61.8086 96.7188Z" fill="#192831"/>
<path fill-rule="evenodd" clip-rule="evenodd" d="M70.9657 99.8438C74.3608 100.37 77.7766 100.593 81.2128 100.513C79.7689 100.77 77.8793 100.807 75.5442 100.625C74.1569 100.538 72.776 100.389 71.4018 100.179C71 100.143 70.8548 100.031 70.9657 99.8438Z" fill="#0E1B22"/>
<path fill-rule="evenodd" clip-rule="evenodd" d="M145.529 122.165C141.314 117.924 137.099 113.683 132.884 109.442C128.713 104.763 124.352 100.261 119.802 95.9375C118.779 95.4337 117.834 95.5453 116.968 96.2723C116.873 96.2868 116.8 96.2498 116.75 96.1607C117.676 94.9772 118.766 94.8286 120.02 95.7143C120.393 96.1703 120.829 96.5424 121.328 96.8304C128.891 104.666 136.449 112.441 144.003 120.156C144.605 120.771 145.114 121.44 145.529 122.165Z" fill="#213541"/>
<path fill-rule="evenodd" clip-rule="evenodd" d="M47.2012 97.3884C47.4247 97.477 47.4611 97.6257 47.3102 97.8349C45.0513 100.185 42.9075 102.64 40.8785 105.201C41.7134 107.698 42.8761 110.004 44.3669 112.121C44.3399 112.256 44.2673 112.33 44.1489 112.344C42.3666 110.109 41.2402 107.579 40.7695 104.754C42.8841 102.256 45.028 99.8005 47.2012 97.3884Z" fill="#111619"/>
<path fill-rule="evenodd" clip-rule="evenodd" d="M50.0352 98.951C50.0482 98.8298 50.1208 98.7555 50.2532 98.7278C56.2035 102.482 62.6716 104.603 69.6572 105.089C73.2575 105.155 76.8184 105.193 80.3404 105.201C69.5147 106.67 59.413 104.586 50.0352 98.951Z" fill="#101416"/>
<path fill-rule="evenodd" clip-rule="evenodd" d="M108.466 101.853C108.51 103.241 108.837 104.58 109.447 105.871C111.063 108.08 112.625 110.312 114.135 112.567C112.157 110.355 110.377 107.974 108.793 105.424C108.252 104.27 108.143 103.079 108.466 101.853Z" fill="#121619"/>
<path fill-rule="evenodd" clip-rule="evenodd" d="M132.886 109.442C133.584 110.494 134.42 111.461 135.394 112.344C135.475 113.093 135.293 113.168 134.848 112.567C134.312 112.714 134.167 113.012 134.412 113.46C134.705 113.147 134.887 113.221 134.957 113.683C135.108 113.492 135.289 113.343 135.503 113.237C136.157 113.646 136.811 114.055 137.465 114.464C139.459 116.469 141.421 118.515 143.351 120.603C143.082 120.652 142.864 120.801 142.697 121.049C142.546 120.932 142.437 120.783 142.37 120.603C141.946 120.622 141.51 120.697 141.062 120.826C140.855 120.709 140.673 120.56 140.517 120.379C140.265 120.954 139.902 121.437 139.427 121.83C139.604 122.251 139.895 122.4 140.299 122.277C140.086 121.88 140.158 121.508 140.517 121.161C141.419 121.208 141.564 121.58 140.953 122.277C141.171 122.351 141.389 122.426 141.607 122.5C141.457 122.738 141.348 122.999 141.28 123.281C141.056 122.773 140.729 122.624 140.299 122.835C140.585 123.004 140.694 123.227 140.626 123.504C140.106 123.132 139.597 122.76 139.1 122.388C138.29 123.154 137.381 123.75 136.375 124.174C136.308 123.865 136.308 123.492 136.375 123.058C136.87 122.782 137.27 122.857 137.574 123.281C137.683 123.17 137.792 123.058 137.901 122.946C137.683 122.574 137.392 122.277 137.029 122.054C137.405 122.145 137.768 122.108 138.119 121.942C138.004 121.787 137.859 121.676 137.683 121.607C137.894 120.996 137.676 120.55 137.029 120.268C137.428 120.305 137.828 120.342 138.228 120.379C138.379 120.262 138.488 120.113 138.555 119.933C137.622 119.374 137.513 118.704 138.228 117.924C138.373 117.701 138.373 117.478 138.228 117.254C137.859 116.914 137.459 116.616 137.029 116.362C137.045 116.766 136.972 117.212 136.811 117.701C136.518 118.014 136.336 117.94 136.266 117.478C136.108 117.96 136.254 118.332 136.702 118.594C136.815 117.926 137.142 117.703 137.683 117.924C137.424 118.372 137.133 118.781 136.811 119.152C136.847 119.263 136.883 119.375 136.92 119.487C137.25 118.917 137.432 118.992 137.465 119.71C137.209 119.661 136.991 119.735 136.811 119.933C136.679 120.186 136.607 120.41 136.593 120.603C136.415 120.097 136.306 119.576 136.266 119.04C136.064 119.321 135.883 119.619 135.721 119.933C135.444 119.726 135.153 119.689 134.848 119.821C135.358 120.117 135.831 120.452 136.266 120.826C136.32 121.257 136.429 121.667 136.593 122.054C136.386 122.161 136.168 122.198 135.939 122.165C135.976 121.87 135.903 121.61 135.721 121.384C135.866 121.31 136.011 121.235 136.157 121.161C135.635 121.097 135.127 120.985 134.63 120.826C134.37 120.903 134.37 121.015 134.63 121.161C134.177 121.341 133.741 121.304 133.322 121.049C133.641 121.146 133.859 120.96 133.976 120.491C133.69 120.011 133.291 119.676 132.777 119.487C132.737 118.951 132.628 118.43 132.45 117.924C130.89 118.508 130.817 118.396 132.232 117.589C131.234 117.605 131.016 117.27 131.578 116.585C131.269 116.222 131.341 116.11 131.796 116.25C132.128 116.985 132.419 116.948 132.668 116.138C133.053 116.463 133.343 116.388 133.54 115.915C133.314 114.94 132.733 114.345 131.796 114.129C131.83 114.436 131.794 114.734 131.687 115.022C131.364 114.446 130.892 114.26 130.27 114.464C130.384 114.59 130.456 114.738 130.488 114.911C129.919 115.353 129.955 115.762 130.597 116.138C130.651 115.887 130.76 115.664 130.924 115.469C130.997 115.58 131.069 115.692 131.142 115.804C130.84 116.511 130.368 117.218 129.725 117.924C129.616 117.812 129.507 117.701 129.398 117.589C130.238 117.061 130.166 116.615 129.18 116.25C129.414 115.971 129.414 115.673 129.18 115.357C129.286 115.004 129.504 114.743 129.834 114.576C129.64 114.333 129.422 114.333 129.18 114.576C128.922 114.921 128.704 115.293 128.526 115.692C128.453 115.58 128.38 115.469 128.308 115.357C128.568 115.015 128.568 114.68 128.308 114.353C128.44 113.91 128.658 113.836 128.962 114.129C129.387 113.773 129.823 113.662 130.27 113.795C129.947 113.576 129.656 113.315 129.398 113.013C129.205 113.198 129.132 113.421 129.18 113.683C128.924 113.732 128.706 113.658 128.526 113.46C128.763 113.212 128.763 112.989 128.526 112.79C128.308 113.385 128.09 113.385 127.872 112.79C128.088 112.53 128.306 112.27 128.526 112.009C128.395 111.66 128.213 111.697 127.981 112.121C127.824 111.908 127.643 111.871 127.436 112.009C127.7 112.208 127.7 112.394 127.436 112.567C127.03 112.189 126.594 111.854 126.128 111.562C126.569 111.251 126.642 110.879 126.346 110.446C125.86 110.393 125.788 110.579 126.128 111.004C125.349 111.376 125.349 111.823 126.128 112.344C126.024 112.562 125.878 112.748 125.691 112.902C126.032 112.973 126.286 113.159 126.455 113.46C126.494 113.03 126.53 112.658 126.564 112.344C126.978 112.664 127.051 113.036 126.782 113.46C126.891 113.534 127 113.609 127.109 113.683C127.329 113.596 127.438 113.447 127.436 113.237C127.945 113.588 127.945 113.885 127.436 114.129C127.627 114.76 127.845 115.392 128.09 116.027C128.017 116.138 127.944 116.25 127.872 116.362C127.669 115.856 127.378 115.409 127 115.022C126.927 115.134 126.854 115.246 126.782 115.357C127.025 115.668 127.134 116.003 127.109 116.362C126.821 115.918 126.421 115.658 125.91 115.58C126.224 115.342 126.515 115.082 126.782 114.799C127.072 114.502 127.072 114.204 126.782 113.906C126.631 114.023 126.522 114.172 126.455 114.353C126.285 114.079 126.067 113.855 125.801 113.683C125.489 114.167 125.162 114.204 124.819 113.795C125.374 113.446 125.374 113.111 124.819 112.79C125.552 112.269 125.407 111.859 124.383 111.562C124.456 111.488 124.529 111.414 124.601 111.339C124.402 111.256 124.22 111.144 124.056 111.004C124.006 110.496 123.824 110.049 123.511 109.665C123.36 109.782 123.251 109.931 123.184 110.112C122.964 109.925 122.709 109.85 122.421 109.888C122.618 109.053 122.327 108.607 121.549 108.549C121.488 107.999 121.27 107.516 120.895 107.098C121.74 106.798 121.74 106.537 120.895 106.317C121.215 105.875 121.143 105.503 120.677 105.201C121.134 104.981 121.57 105.056 121.985 105.424C121.339 106.069 121.485 106.366 122.421 106.317C122.324 105.677 122.47 105.119 122.857 104.643C122.451 104.227 122.161 104.339 121.985 104.978C121.457 104.481 121.457 103.96 121.985 103.415C121.805 103.217 121.587 103.143 121.331 103.192C121.401 103.694 121.292 104.141 121.004 104.531C120.999 103.962 121.108 103.404 121.331 102.857C121.929 102.678 122.511 102.455 123.075 102.187C123.429 101.506 123.574 101.617 123.511 102.522C123.293 102.522 123.075 102.522 122.857 102.522C122.82 102.817 122.893 103.078 123.075 103.304C122.785 103.452 122.567 103.676 122.421 103.973C122.802 104.078 123.165 104.227 123.511 104.42C122.968 104.698 123.004 104.959 123.62 105.201C123.777 104.989 123.958 104.952 124.165 105.089C123.767 105.338 123.585 105.673 123.62 106.094C124.129 105.79 124.529 105.381 124.819 104.866C124.639 104.662 124.421 104.513 124.165 104.42C124.238 104.345 124.311 104.271 124.383 104.196C123.749 103.902 123.495 103.418 123.62 102.746C123.984 102.894 124.347 103.043 124.71 103.192C125.151 102.854 125.115 102.557 124.601 102.299C125.115 102.042 125.151 101.744 124.71 101.406C124.423 101.735 124.205 102.107 124.056 102.522C123.879 102.09 123.77 101.644 123.729 101.183C123.274 101.172 122.983 101.395 122.857 101.853C122.456 102.016 122.056 102.165 121.658 102.299C121.585 102.15 121.513 102.002 121.44 101.853C121.009 102.06 120.61 102.32 120.241 102.634C120.374 103.093 120.592 103.279 120.895 103.192C120.815 103.505 120.634 103.728 120.35 103.862C120.111 103.664 120.002 103.441 120.023 103.192C119.82 103.789 119.784 104.384 119.914 104.978C119.261 105.422 118.643 105.422 118.061 104.978C118.106 104.847 118.179 104.735 118.279 104.643C117.93 104.582 117.603 104.47 117.298 104.308C117.222 103.925 117.113 103.552 116.971 103.192C117.043 103.118 117.116 103.043 117.189 102.969C117.532 103.281 117.895 103.467 118.279 103.527C118.107 103.649 117.889 103.798 117.625 103.973C117.907 104.083 118.197 104.12 118.497 104.085C118.497 104.308 118.497 104.531 118.497 104.754C119.793 104.948 119.865 104.688 118.715 103.973C118.997 103.864 119.287 103.827 119.587 103.862C119.598 103.4 119.453 102.99 119.151 102.634C119.265 102.422 119.41 102.236 119.587 102.076C119.322 101.943 119.031 101.906 118.715 101.964C119.051 101.582 119.415 101.247 119.805 100.96C119.95 100.997 120.095 101.034 120.241 101.071C119.985 101.165 119.767 101.314 119.587 101.518C119.841 101.629 120.023 101.815 120.132 102.076C120.294 101.696 120.476 101.324 120.677 100.96C120.21 99.8275 119.665 99.8275 119.042 100.96C118.486 100.438 118.377 100.587 118.715 101.406C118.59 101.754 118.444 102.089 118.279 102.411C118.497 102.485 118.715 102.56 118.933 102.634C118.86 102.708 118.787 102.783 118.715 102.857C118.302 102.687 117.866 102.501 117.407 102.299C117.355 101.496 117.573 101.421 118.061 102.076C118.304 101.803 118.34 101.505 118.17 101.183C117.787 100.792 117.315 100.644 116.753 100.737C116.706 100.37 116.779 100.035 116.971 99.7321C116.804 99.5214 116.586 99.4098 116.316 99.3973C115.718 99.7234 115.209 100.17 114.79 100.737C114.202 101.04 113.621 101.338 113.046 101.629C112.901 101.629 112.828 101.555 112.828 101.406C114.612 100.512 115.848 99.0989 116.535 97.1652C116.79 96.9388 116.936 96.6413 116.971 96.2723C117.837 95.5453 118.781 95.4337 119.805 95.9375C124.355 100.261 128.715 104.762 132.886 109.442Z" fill="#2466A8"/>
<path fill-rule="evenodd" clip-rule="evenodd" d="M143.352 120.603C144.232 121.503 145.031 122.47 145.75 123.504C145.165 123.837 145.237 123.985 145.968 123.951C145.936 124.186 145.972 124.409 146.077 124.62C146.22 124.353 146.329 124.353 146.404 124.62C146.114 124.769 145.823 124.918 145.532 125.067C145.782 125.377 145.782 125.675 145.532 125.96C144.633 126.07 143.834 126.07 143.134 125.96C142.843 127.15 142.553 127.15 142.262 125.96C142 126.465 141.637 126.874 141.172 127.187C141.477 127.32 141.768 127.283 142.044 127.076C142.335 127.448 142.335 127.82 142.044 128.192C141.893 128.075 141.784 127.926 141.717 127.745C141.522 128.016 141.341 128.016 141.172 127.745C141.009 127.47 140.937 127.172 140.954 126.853C140.372 127.001 139.791 127.15 139.21 127.299C139.175 127.605 139.212 127.903 139.319 128.192C139.531 127.661 139.676 127.736 139.755 128.415C139.932 128.089 140.113 128.015 140.3 128.192C140.078 128.494 139.787 128.717 139.428 128.862C139.596 129.132 139.778 129.132 139.973 128.862C140.082 129.122 140.263 129.308 140.518 129.42C140.295 129.725 140.404 129.911 140.845 129.978C141.542 129.874 141.688 129.576 141.281 129.085C141.208 129.234 141.135 129.382 141.063 129.531C140.914 129.245 140.95 128.984 141.172 128.75C140.62 128.613 140.438 128.278 140.627 127.745C141.027 128.238 141.536 128.536 142.153 128.638C142.441 128.248 142.55 127.801 142.48 127.299C143.069 126.829 143.686 126.531 144.333 126.406C144.347 126.938 144.529 127.087 144.878 126.853C145.161 126.984 145.343 127.207 145.423 127.522C145.569 127.299 145.569 127.076 145.423 126.853C144.565 126.451 144.529 126.265 145.314 126.295C145.573 126.522 145.791 126.782 145.968 127.076C145.678 127.373 145.678 127.671 145.968 127.969C145.694 128.166 145.439 128.389 145.205 128.638C145.098 128.404 145.134 128.181 145.314 127.969C144.899 127.766 144.499 127.543 144.115 127.299C144.006 127.373 143.897 127.448 143.788 127.522C143.934 128.118 144.079 128.713 144.224 129.308C144.152 129.457 144.079 129.605 144.006 129.754C144.082 130.021 144.191 130.021 144.333 129.754C144.49 129.395 144.454 129.06 144.224 128.75C144.333 128.638 144.442 128.527 144.551 128.415C144.849 129.099 144.958 129.769 144.878 130.424C145.071 130.143 145.289 129.882 145.532 129.643C145.051 129.429 145.087 129.169 145.641 128.862C145.78 129.189 145.962 129.487 146.186 129.754C145.366 130.164 145.438 130.499 146.404 130.759C145.944 131.081 145.472 131.044 144.987 130.647C144.659 130.872 144.405 131.169 144.224 131.54C143.928 131.016 143.564 130.979 143.134 131.428C143.01 132.028 142.792 132.586 142.48 133.103C142.262 132.507 142.044 131.912 141.826 131.317C141.417 131.608 141.053 131.943 140.736 132.321C140.518 132.47 140.3 132.47 140.082 132.321C140.329 131.98 140.547 131.682 140.736 131.428C140.464 131.103 140.464 130.768 140.736 130.424C140.393 130.172 140.029 130.134 139.646 130.312C139.891 130.368 140.109 130.48 140.3 130.647C139.918 131.139 139.482 131.139 138.992 130.647C139.287 130.419 139.432 130.121 139.428 129.754C139.105 129.813 138.815 129.739 138.556 129.531C138.775 129.331 138.775 129.182 138.556 129.085C138.405 129.202 138.296 129.351 138.229 129.531C138.13 128.959 138.385 128.624 138.992 128.527C139.009 127.868 138.936 127.198 138.774 126.518C138.888 126.363 139.034 126.252 139.21 126.183C139.299 126.353 139.335 126.576 139.319 126.853C139.864 126.398 140.445 126.324 141.063 126.629C141.284 126.049 141.684 125.639 142.262 125.402C141.971 125.178 141.971 124.955 142.262 124.732C141.947 124.558 141.657 124.595 141.39 124.844C141.676 125.013 141.785 125.236 141.717 125.513C141.304 125.698 140.832 125.698 140.3 125.513C140.127 125.704 140.199 125.89 140.518 126.071C140.311 126.179 140.093 126.216 139.864 126.183C139.807 125.518 140.098 125.109 140.736 124.955C140.245 124.763 139.846 124.874 139.537 125.29C139.304 124.892 138.977 124.78 138.556 124.955C138.292 125.155 138.292 125.341 138.556 125.513C138.735 125.012 138.953 124.974 139.21 125.402C139.093 125.872 138.875 125.984 138.556 125.737C138.186 126.134 137.75 126.245 137.247 126.071C137.804 125.733 137.731 125.547 137.029 125.513C136.877 126.051 136.659 126.572 136.375 127.076C136.235 126.34 135.981 126.265 135.612 126.853C135.576 126.778 135.54 126.704 135.503 126.629C135.987 126.127 136.496 125.643 137.029 125.178C136.905 124.909 136.76 124.649 136.593 124.397C136.443 124.514 136.334 124.663 136.266 124.844C135.962 124.391 135.599 124.317 135.176 124.62C135.305 123.815 135.124 123.778 134.631 124.509C135.143 125.054 135.724 125.278 136.375 125.178C136.008 125.836 135.609 125.873 135.176 125.29C135.093 125.633 134.911 125.931 134.631 126.183C134.696 125.651 134.587 125.13 134.304 124.62C133.965 124.988 133.602 125.062 133.214 124.844C133.153 125.048 133.044 125.197 132.887 125.29C131.407 123.753 130.026 122.116 128.745 120.379C128.236 119.933 127.727 119.487 127.218 119.04C123.712 114.598 120.187 110.208 116.644 105.87C115.407 104.902 114.317 103.786 113.374 102.522C113.285 102.209 113.176 101.912 113.047 101.629C113.622 101.338 114.203 101.04 114.791 100.737C115.21 100.17 115.719 99.7233 116.317 99.3972C116.587 99.4097 116.805 99.5213 116.971 99.732C116.779 100.035 116.707 100.37 116.753 100.737C117.316 100.643 117.788 100.792 118.17 101.183C118.341 101.505 118.304 101.803 118.061 102.076C117.573 101.421 117.355 101.496 117.407 102.299C117.867 102.501 118.303 102.687 118.715 102.857C118.788 102.783 118.861 102.708 118.934 102.634C118.715 102.559 118.497 102.485 118.279 102.411C118.445 102.089 118.59 101.754 118.715 101.406C118.378 100.587 118.487 100.438 119.043 100.96C119.666 99.8274 120.211 99.8274 120.678 100.96C120.477 101.324 120.295 101.696 120.133 102.076C120.024 101.815 119.842 101.629 119.588 101.518C119.768 101.314 119.986 101.165 120.242 101.071C120.096 101.034 119.951 100.997 119.806 100.96C119.415 101.247 119.052 101.582 118.715 101.964C119.032 101.905 119.322 101.943 119.588 102.076C119.411 102.236 119.265 102.422 119.152 102.634C119.453 102.99 119.599 103.399 119.588 103.862C119.288 103.826 118.997 103.864 118.715 103.973C119.866 104.688 119.794 104.948 118.497 104.754C118.497 104.531 118.497 104.308 118.497 104.085C118.198 104.12 117.907 104.082 117.625 103.973C117.889 103.797 118.107 103.649 118.279 103.527C117.896 103.467 117.533 103.281 117.189 102.969C117.117 103.043 117.044 103.118 116.971 103.192C117.114 103.552 117.223 103.924 117.298 104.308C117.603 104.47 117.93 104.582 118.279 104.643C118.18 104.735 118.107 104.847 118.061 104.978C118.644 105.422 119.261 105.422 119.915 104.978C119.784 104.384 119.82 103.789 120.024 103.192C120.002 103.441 120.111 103.664 120.351 103.862C120.634 103.728 120.816 103.505 120.896 103.192C120.592 103.279 120.374 103.093 120.242 102.634C120.61 102.32 121.01 102.06 121.441 101.853C121.513 102.001 121.586 102.15 121.659 102.299C122.057 102.164 122.457 102.016 122.858 101.853C122.984 101.395 123.274 101.172 123.73 101.183C123.771 101.644 123.88 102.09 124.057 102.522C124.206 102.107 124.424 101.735 124.711 101.406C125.152 101.744 125.116 102.041 124.602 102.299C125.116 102.557 125.152 102.854 124.711 103.192C124.348 103.043 123.984 102.894 123.621 102.745C123.496 103.418 123.75 103.901 124.384 104.196C124.311 104.271 124.239 104.345 124.166 104.42C124.422 104.513 124.64 104.662 124.82 104.866C124.53 105.381 124.13 105.79 123.621 106.094C123.585 105.672 123.767 105.338 124.166 105.089C123.959 104.951 123.778 104.989 123.621 105.201C123.005 104.959 122.969 104.698 123.512 104.42C123.166 104.227 122.803 104.078 122.422 103.973C122.567 103.676 122.785 103.452 123.076 103.303C122.893 103.078 122.821 102.817 122.858 102.522C123.076 102.522 123.294 102.522 123.512 102.522C123.575 101.617 123.43 101.506 123.076 102.187C122.511 102.455 121.93 102.678 121.332 102.857C121.109 103.404 121 103.962 121.005 104.531C121.292 104.141 121.401 103.694 121.332 103.192C121.588 103.143 121.806 103.217 121.986 103.415C121.458 103.96 121.458 104.481 121.986 104.978C122.162 104.339 122.452 104.227 122.858 104.643C122.47 105.119 122.325 105.677 122.422 106.317C121.485 106.366 121.34 106.069 121.986 105.424C121.571 105.055 121.135 104.981 120.678 105.201C121.143 105.503 121.216 105.874 120.896 106.317C121.741 106.537 121.741 106.797 120.896 107.098C121.27 107.516 121.489 107.999 121.55 108.549C122.328 108.607 122.618 109.053 122.422 109.888C122.71 109.85 122.965 109.925 123.185 110.112C123.252 109.931 123.361 109.782 123.512 109.665C123.825 110.049 124.006 110.495 124.057 111.004C124.221 111.144 124.402 111.256 124.602 111.339C124.53 111.414 124.457 111.488 124.384 111.562C125.407 111.859 125.553 112.268 124.82 112.79C125.375 113.111 125.375 113.446 124.82 113.795C125.162 114.204 125.489 114.167 125.801 113.683C126.067 113.855 126.285 114.078 126.455 114.353C126.522 114.172 126.631 114.023 126.782 113.906C127.073 114.204 127.073 114.501 126.782 114.799C126.515 115.082 126.225 115.342 125.91 115.58C126.422 115.657 126.822 115.918 127.109 116.362C127.134 116.003 127.025 115.668 126.782 115.357C126.855 115.245 126.928 115.134 127 115.022C127.378 115.409 127.669 115.856 127.872 116.362C127.945 116.25 128.018 116.138 128.09 116.027C127.846 115.392 127.628 114.759 127.436 114.129C127.946 113.885 127.946 113.588 127.436 113.237C127.439 113.447 127.33 113.595 127.109 113.683C127 113.609 126.891 113.534 126.782 113.46C127.051 113.036 126.979 112.664 126.564 112.344C126.531 112.658 126.494 113.03 126.455 113.46C126.287 113.159 126.033 112.973 125.692 112.902C125.879 112.748 126.024 112.562 126.128 112.344C125.35 111.822 125.35 111.376 126.128 111.004C125.789 110.579 125.861 110.393 126.346 110.446C126.643 110.879 126.57 111.251 126.128 111.562C126.595 111.854 127.031 112.189 127.436 112.567C127.7 112.394 127.7 112.208 127.436 112.009C127.643 111.871 127.825 111.908 127.981 112.12C128.214 111.697 128.395 111.66 128.527 112.009C128.307 112.27 128.089 112.53 127.872 112.79C128.09 113.385 128.309 113.385 128.527 112.79C128.764 112.989 128.764 113.212 128.527 113.46C128.706 113.657 128.924 113.732 129.181 113.683C129.133 113.421 129.205 113.197 129.399 113.013C129.657 113.315 129.948 113.576 130.271 113.795C129.824 113.662 129.388 113.773 128.963 114.129C128.658 113.836 128.44 113.91 128.309 114.353C128.569 114.68 128.569 115.015 128.309 115.357C128.381 115.469 128.454 115.58 128.527 115.692C128.704 115.293 128.922 114.921 129.181 114.576C129.422 114.332 129.64 114.332 129.835 114.576C129.505 114.743 129.287 115.003 129.181 115.357C129.415 115.673 129.415 115.971 129.181 116.25C130.166 116.615 130.239 117.061 129.399 117.589C129.508 117.701 129.617 117.812 129.726 117.924C130.368 117.218 130.841 116.511 131.143 115.803C131.07 115.692 130.997 115.58 130.925 115.469C130.761 115.664 130.652 115.887 130.598 116.138C129.956 115.762 129.919 115.353 130.489 114.911C130.457 114.738 130.385 114.589 130.271 114.464C130.893 114.26 131.365 114.446 131.688 115.022C131.795 114.734 131.831 114.436 131.797 114.129C132.734 114.345 133.315 114.94 133.541 115.915C133.344 116.388 133.053 116.463 132.669 116.138C132.42 116.947 132.129 116.984 131.797 116.25C131.342 116.11 131.269 116.222 131.579 116.585C131.017 117.27 131.235 117.605 132.233 117.589C130.818 118.396 130.891 118.507 132.451 117.924C132.628 118.43 132.737 118.951 132.778 119.487C133.291 119.676 133.691 120.011 133.977 120.491C133.86 120.96 133.642 121.146 133.323 121.049C133.742 121.304 134.178 121.341 134.631 121.161C134.37 121.015 134.37 120.903 134.631 120.826C135.127 120.985 135.636 121.097 136.157 121.161C136.012 121.235 135.867 121.309 135.721 121.384C135.904 121.609 135.976 121.87 135.939 122.165C136.169 122.198 136.387 122.161 136.593 122.053C136.43 121.666 136.321 121.257 136.266 120.826C135.831 120.451 135.359 120.117 134.849 119.821C135.154 119.689 135.445 119.726 135.721 119.933C135.883 119.619 136.065 119.321 136.266 119.04C136.307 119.576 136.416 120.097 136.593 120.603C136.607 120.409 136.68 120.186 136.811 119.933C136.991 119.735 137.209 119.661 137.465 119.71C137.433 118.991 137.251 118.917 136.92 119.487C136.884 119.375 136.848 119.263 136.811 119.152C137.134 118.781 137.425 118.372 137.684 117.924C137.143 117.703 136.816 117.926 136.702 118.594C136.254 118.332 136.109 117.96 136.266 117.478C136.337 117.939 136.519 118.014 136.811 117.701C136.973 117.212 137.046 116.766 137.029 116.362C137.46 116.616 137.859 116.914 138.229 117.254C138.374 117.478 138.374 117.701 138.229 117.924C137.514 118.704 137.623 119.374 138.556 119.933C138.488 120.113 138.379 120.262 138.229 120.379C137.829 120.342 137.429 120.305 137.029 120.268C137.677 120.55 137.895 120.996 137.684 121.607C137.86 121.676 138.005 121.787 138.12 121.942C137.769 122.107 137.406 122.145 137.029 122.053C137.393 122.277 137.684 122.574 137.902 122.946C137.793 123.058 137.684 123.17 137.574 123.281C137.271 122.857 136.871 122.782 136.375 123.058C136.308 123.492 136.308 123.864 136.375 124.174C137.382 123.749 138.29 123.154 139.101 122.388C139.598 122.759 140.106 123.132 140.627 123.504C140.695 123.227 140.586 123.004 140.3 122.835C140.729 122.624 141.056 122.773 141.281 123.281C141.348 122.999 141.457 122.738 141.608 122.5C141.39 122.426 141.172 122.351 140.954 122.277C141.565 121.58 141.42 121.208 140.518 121.161C140.159 121.508 140.086 121.88 140.3 122.277C139.896 122.4 139.605 122.251 139.428 121.83C139.903 121.437 140.266 120.954 140.518 120.379C140.674 120.56 140.856 120.709 141.063 120.826C141.511 120.697 141.947 120.622 142.371 120.603C142.438 120.783 142.547 120.932 142.698 121.049C142.865 120.801 143.083 120.652 143.352 120.603Z" fill="#2466A8"/>
<path fill-rule="evenodd" clip-rule="evenodd" d="M115.008 113.683C115.708 114.292 116.362 114.962 116.97 115.692C124.073 124.491 131.305 133.197 138.663 141.808C139.935 143.11 141.207 144.412 142.479 145.714C143.981 146.818 145.652 147.487 147.493 147.723C147.287 147.831 147.069 147.868 146.839 147.835C145.169 147.575 143.643 146.943 142.261 145.938C140.989 144.636 139.717 143.333 138.445 142.031C132.495 134.823 126.463 127.68 120.349 120.603C118.517 118.32 116.737 116.013 115.008 113.683Z" fill="#121518"/>
<path fill-rule="evenodd" clip-rule="evenodd" d="M132.887 109.442C137.102 113.683 141.317 117.924 145.532 122.165C147.78 124.69 150.033 127.22 152.291 129.754C152.518 130.325 152.882 130.809 153.381 131.205C153.133 131.372 152.915 131.335 152.727 131.094C150.771 128.199 148.446 125.669 145.75 123.504C145.031 122.47 144.232 121.503 143.352 120.603C141.422 118.515 139.46 116.469 137.465 114.464C136.811 114.055 136.157 113.646 135.503 113.237C135.29 113.343 135.108 113.492 134.958 113.683C134.887 113.221 134.705 113.147 134.413 113.46C134.167 113.012 134.313 112.714 134.849 112.567C135.293 113.168 135.475 113.093 135.394 112.344C134.421 111.461 133.585 110.494 132.887 109.442Z" fill="#2466A8"/>
<path fill-rule="evenodd" clip-rule="evenodd" d="M132.449 106.094C139.82 113.385 146.942 120.899 153.815 128.638C153.038 128.179 152.347 127.584 151.744 126.853C145.45 119.815 139.018 112.97 132.449 106.317C132.449 106.243 132.449 106.168 132.449 106.094Z" fill="#1A1E22"/>
<path fill-rule="evenodd" clip-rule="evenodd" d="M44.1513 112.567C44.3852 112.735 44.4216 112.958 44.2603 113.237C42.4941 118.014 40.8953 122.85 39.4638 127.745C39.3803 127.87 39.2712 127.944 39.1367 127.969C40.592 122.755 42.2636 117.621 44.1513 112.567Z" fill="#0E1316"/>
<path fill-rule="evenodd" clip-rule="evenodd" d="M44.3667 105.647C45.7163 108.783 47.2425 111.833 48.9452 114.799C47.0837 118.945 45.1941 123.075 43.2766 127.187C44.9482 129.345 46.6196 131.503 48.2912 133.661C69.0021 133.566 89.7143 133.529 110.428 133.549C99.4909 133.772 88.5171 133.846 77.5063 133.772C67.6957 133.945 57.8846 133.982 48.0731 133.884C46.3453 131.68 44.6737 129.448 43.0586 127.187C44.8978 123.062 46.7148 118.932 48.5092 114.799C47.0401 112.015 45.623 109.187 44.2577 106.317C44.0964 106.038 44.1328 105.815 44.3667 105.647Z" fill="#0D1114"/>
<path fill-rule="evenodd" clip-rule="evenodd" d="M38.918 128.192C39.1879 128.261 39.1879 128.373 38.918 128.527C37.2473 129.381 35.6485 130.349 34.1215 131.429C32.2253 132.325 30.3357 133.218 28.4529 134.107C19.5348 134.145 10.6321 134.257 1.74502 134.442C1.58804 134.802 1.62424 135.137 1.85403 135.446C11.5925 135.595 21.3307 135.595 31.0691 135.446C32.5131 134.782 33.8941 134 35.2116 133.103C35.3439 133.13 35.4165 133.205 35.4296 133.326C33.9723 134.295 32.4462 135.151 30.8511 135.893C21.2581 136.042 11.6651 136.042 2.07205 135.893C1.29044 135.329 1.21784 134.659 1.85403 133.884C10.793 133.81 19.7319 133.735 28.6709 133.661C32.2138 132.07 35.6295 130.247 38.918 128.192Z" fill="#0C1216"/>
<path fill-rule="evenodd" clip-rule="evenodd" d="M110.429 133.549C111.205 133.413 111.642 133.748 111.737 134.554C111.67 134.879 111.525 135.14 111.301 135.335C111.301 135.186 111.229 135.112 111.083 135.112C111.351 134.775 111.351 134.44 111.083 134.107C99.8548 134.07 88.663 133.958 77.5078 133.772C88.5186 133.847 99.4924 133.772 110.429 133.549Z" fill="#202F36"/>
<path fill-rule="evenodd" clip-rule="evenodd" d="M40.4414 133.995C40.5716 133.853 40.7532 133.778 40.9865 133.772C41.5315 133.884 42.0766 133.995 42.6216 134.107C44.924 134.503 47.0316 135.061 48.9443 135.781C46.0969 135.243 43.2626 134.647 40.4414 133.995Z" fill="#111417"/>
<path fill-rule="evenodd" clip-rule="evenodd" d="M111.085 135.112C111.23 135.112 111.303 135.186 111.303 135.335C91.7165 135.506 72.0944 135.654 52.4364 135.781C51.8702 135.732 51.8702 135.62 52.4364 135.446C71.9846 135.145 91.5338 135.033 111.085 135.112Z" fill="#232526"/>
<path fill-rule="evenodd" clip-rule="evenodd" d="M49.6016 136.228C49.7653 135.988 49.9833 135.951 50.2556 136.116C51.3457 136.674 52.4359 137.232 53.526 137.79C53.7867 137.713 53.7867 137.601 53.526 137.455C52.977 137.148 52.6138 136.813 52.4359 136.451C54.6763 137.972 56.9293 139.497 59.1946 141.027C59.4553 141.173 59.4553 141.284 59.1946 141.362C56.054 139.531 52.8562 137.819 49.6016 136.228Z" fill="#13191D"/>
<path fill-rule="evenodd" clip-rule="evenodd" d="M112.826 101.406C112.826 101.555 112.899 101.629 113.045 101.629C113.173 101.912 113.282 102.21 113.372 102.522C114.315 103.786 115.405 104.902 116.642 105.871C120.185 110.208 123.71 114.598 127.216 119.04C127.725 119.487 128.234 119.933 128.742 120.379C130.024 122.116 131.405 123.753 132.885 125.29C135.573 128.341 138.189 131.466 140.733 134.665C140.913 134.863 141.131 134.937 141.388 134.888C141.34 135.151 141.412 135.374 141.606 135.558C142.908 136.742 144.143 138.007 145.312 139.353C145.59 139.608 145.881 139.608 146.184 139.353C146.599 139.676 146.962 140.048 147.274 140.469C147.973 140.618 148.554 140.953 149.018 141.473C149.778 141.805 150.504 141.842 151.199 141.585C151.459 141.662 151.459 141.774 151.199 141.92C150.981 141.994 150.763 142.069 150.545 142.143C150.872 142.254 151.199 142.366 151.526 142.478C152.055 142.191 152.6 141.967 153.161 141.808C153.89 141.879 154.617 141.954 155.341 142.031C155.283 142.388 155.355 142.686 155.559 142.924C153.317 145.529 150.483 146.534 147.056 145.938C145.59 145.686 144.282 145.091 143.132 144.152C134.711 134.677 126.499 125.042 118.495 115.246C116.543 112.688 114.545 110.158 112.499 107.656C111.382 106.335 110.546 104.847 109.992 103.192C110.379 101.681 111.324 101.085 112.826 101.406Z" fill="#1B4D7E"/>
<path fill-rule="evenodd" clip-rule="evenodd" d="M156.212 130.871C159.092 133.93 159.855 137.501 158.501 141.585C158.02 142.854 157.33 143.97 156.43 144.933C156.206 144.844 156.17 144.696 156.321 144.487C158.676 141.58 159.331 138.307 158.283 134.665C157.719 133.434 156.992 132.318 156.103 131.317C155.952 131.108 155.988 130.959 156.212 130.871Z" fill="#0D1014"/>
<path fill-rule="evenodd" clip-rule="evenodd" d="M112.174 88.6831C113.579 90.4523 115.033 92.1635 116.534 93.817C117.584 94.0014 118.674 94.113 119.804 94.1519C120.386 94.524 120.967 94.8958 121.549 95.2679C125.154 98.9961 128.787 102.679 132.45 106.317C139.019 112.97 145.45 119.815 151.745 126.853C152.348 127.584 153.038 128.179 153.816 128.638C154.747 129.219 155.546 129.963 156.214 130.871C155.991 130.959 155.954 131.108 156.105 131.317C156.994 132.318 157.721 133.434 158.286 134.665C159.333 138.307 158.679 141.58 156.323 144.487C156.172 144.696 156.209 144.844 156.432 144.933C156.287 145.231 156.069 145.454 155.778 145.603C155.765 145.482 155.693 145.407 155.56 145.38C153.193 147.1 150.577 147.993 147.711 148.058C147.363 148.118 147.072 148.043 146.839 147.835C147.069 147.868 147.287 147.831 147.493 147.723C145.652 147.487 143.981 146.818 142.479 145.714C141.207 144.412 139.935 143.11 138.663 141.808C131.305 133.197 124.074 124.491 116.97 115.692C117.1 115.64 117.173 115.528 117.188 115.357C116.822 114.926 116.713 114.442 116.861 113.906C117.351 114.38 117.787 114.901 118.169 115.469C118.253 115.345 118.362 115.27 118.496 115.246C126.5 125.042 134.713 134.677 143.133 144.152C144.283 145.091 145.591 145.686 147.057 145.938C150.484 146.534 153.319 145.53 155.56 142.924C157.706 139.862 157.815 136.737 155.887 133.549C154.796 132.172 153.597 130.907 152.29 129.755C150.032 127.22 147.779 124.69 145.531 122.165C145.116 121.44 144.607 120.771 144.005 120.156C136.451 112.441 128.893 104.666 121.331 96.8304C120.831 96.5425 120.395 96.1704 120.022 95.7144C118.768 94.8286 117.678 94.9773 116.752 96.1608C116.802 96.2498 116.875 96.2869 116.97 96.2724C116.935 96.6414 116.79 96.9389 116.534 97.1652C116.563 97.0003 116.526 96.8514 116.425 96.7188C116.188 97.2318 115.861 97.6782 115.444 98.0581C115.277 97.8099 115.059 97.661 114.79 97.6117C115.137 96.8391 115.282 96.0206 115.226 95.1563C115.344 95.1429 115.417 95.0686 115.444 94.9331C114.116 93.0032 112.807 91.2175 111.52 89.576C111.595 89.309 111.704 89.309 111.847 89.576C112.019 89.2981 112.128 89.0005 112.174 88.6831Z" fill="#324651"/>
<path fill-rule="evenodd" clip-rule="evenodd" d="M145.75 123.504C148.446 125.669 150.771 128.199 152.727 131.094C152.915 131.335 153.133 131.372 153.381 131.205C152.882 130.809 152.518 130.325 152.291 129.754C153.598 130.907 154.797 132.172 155.888 133.549C157.815 136.737 157.706 139.862 155.561 142.924C155.358 142.686 155.285 142.388 155.343 142.031C154.619 141.954 153.892 141.879 153.163 141.808C152.603 141.967 152.058 142.191 151.528 142.478C151.201 142.366 150.874 142.254 150.547 142.143C150.765 142.068 150.983 141.994 151.201 141.92C151.461 141.774 151.461 141.662 151.201 141.585C150.506 141.842 149.78 141.805 149.02 141.473C148.556 140.953 147.975 140.618 147.276 140.469C146.964 140.048 146.601 139.676 146.186 139.353C145.883 139.608 145.592 139.608 145.314 139.353C144.145 138.007 142.91 136.742 141.608 135.558C141.414 135.374 141.342 135.151 141.39 134.888C141.133 134.937 140.915 134.863 140.736 134.665C138.191 131.466 135.575 128.341 132.887 125.29C133.044 125.197 133.153 125.048 133.214 124.844C133.602 125.062 133.965 124.988 134.304 124.62C134.587 125.13 134.696 125.651 134.631 126.183C134.911 125.931 135.092 125.633 135.176 125.29C135.608 125.873 136.008 125.836 136.375 125.179C135.724 125.278 135.143 125.054 134.631 124.509C135.123 123.778 135.305 123.815 135.176 124.62C135.598 124.317 135.962 124.391 136.266 124.844C136.333 124.663 136.442 124.514 136.593 124.397C136.759 124.649 136.905 124.91 137.029 125.179C136.496 125.643 135.987 126.127 135.503 126.629C135.539 126.704 135.576 126.778 135.612 126.853C135.981 126.265 136.235 126.34 136.375 127.076C136.658 126.572 136.876 126.051 137.029 125.513C137.731 125.547 137.803 125.733 137.247 126.071C137.75 126.245 138.186 126.134 138.555 125.737C138.875 125.984 139.093 125.872 139.209 125.402C138.953 124.974 138.735 125.012 138.555 125.513C138.291 125.341 138.291 125.155 138.555 124.955C138.977 124.781 139.304 124.892 139.536 125.29C139.846 124.874 140.245 124.763 140.736 124.955C140.098 125.109 139.807 125.518 139.863 126.183C140.093 126.216 140.311 126.179 140.518 126.071C140.199 125.89 140.127 125.704 140.3 125.513C140.832 125.698 141.304 125.698 141.717 125.513C141.784 125.236 141.675 125.013 141.39 124.844C141.656 124.595 141.947 124.558 142.262 124.732C141.971 124.955 141.971 125.179 142.262 125.402C141.684 125.639 141.284 126.049 141.063 126.629C140.445 126.324 139.863 126.398 139.318 126.853C139.335 126.576 139.299 126.353 139.209 126.183C139.033 126.252 138.888 126.363 138.773 126.518C138.936 127.198 139.008 127.868 138.991 128.527C138.384 128.624 138.13 128.959 138.228 129.531C138.295 129.351 138.404 129.202 138.555 129.085C138.775 129.183 138.775 129.331 138.555 129.531C138.815 129.739 139.105 129.813 139.427 129.754C139.432 130.121 139.286 130.419 138.991 130.647C139.482 131.139 139.918 131.139 140.3 130.647C140.109 130.48 139.89 130.368 139.645 130.312C140.029 130.134 140.392 130.172 140.736 130.424C140.464 130.768 140.464 131.103 140.736 131.429C140.547 131.682 140.329 131.98 140.081 132.321C140.3 132.47 140.518 132.47 140.736 132.321C141.053 131.943 141.416 131.608 141.826 131.317C142.044 131.912 142.262 132.507 142.48 133.103C142.792 132.586 143.01 132.028 143.134 131.429C143.564 130.979 143.927 131.016 144.224 131.54C144.404 131.169 144.658 130.872 144.987 130.647C145.471 131.044 145.944 131.081 146.404 130.759C145.438 130.499 145.365 130.164 146.186 129.754C145.961 129.487 145.78 129.189 145.641 128.862C145.087 129.169 145.05 129.429 145.532 129.643C145.288 129.883 145.07 130.143 144.878 130.424C144.958 129.769 144.849 129.099 144.551 128.415C144.442 128.527 144.333 128.638 144.224 128.75C144.454 129.06 144.49 129.395 144.333 129.754C144.19 130.021 144.081 130.021 144.006 129.754C144.079 129.606 144.151 129.457 144.224 129.308C144.079 128.713 143.933 128.118 143.788 127.522C143.897 127.448 144.006 127.373 144.115 127.299C144.499 127.543 144.899 127.766 145.314 127.969C145.134 128.181 145.098 128.404 145.205 128.638C145.439 128.389 145.693 128.166 145.968 127.969C145.677 127.671 145.677 127.373 145.968 127.076C145.791 126.783 145.573 126.522 145.314 126.295C144.529 126.265 144.565 126.451 145.423 126.853C145.568 127.076 145.568 127.299 145.423 127.522C145.343 127.208 145.161 126.984 144.878 126.853C144.529 127.087 144.347 126.938 144.333 126.406C143.686 126.531 143.068 126.829 142.48 127.299C142.549 127.801 142.44 128.248 142.153 128.638C141.535 128.536 141.027 128.238 140.627 127.745C140.438 128.279 140.62 128.613 141.172 128.75C140.95 128.984 140.913 129.245 141.063 129.531C141.135 129.382 141.208 129.234 141.281 129.085C141.687 129.576 141.542 129.874 140.845 129.978C140.403 129.911 140.294 129.725 140.518 129.42C140.263 129.308 140.081 129.122 139.972 128.862C139.778 129.132 139.596 129.132 139.427 128.862C139.787 128.717 140.078 128.494 140.3 128.192C140.113 128.015 139.931 128.089 139.754 128.415C139.676 127.736 139.531 127.661 139.318 128.192C139.212 127.903 139.175 127.606 139.209 127.299C139.791 127.15 140.372 127.001 140.954 126.853C140.936 127.172 141.009 127.47 141.172 127.745C141.34 128.016 141.522 128.016 141.717 127.745C141.784 127.926 141.893 128.075 142.044 128.192C142.334 127.82 142.334 127.448 142.044 127.076C141.767 127.283 141.477 127.32 141.172 127.187C141.637 126.874 142 126.465 142.262 125.96C142.552 127.15 142.843 127.15 143.134 125.96C143.833 126.07 144.633 126.07 145.532 125.96C145.782 125.675 145.782 125.377 145.532 125.067C145.823 124.918 146.114 124.769 146.404 124.62C146.329 124.354 146.22 124.354 146.077 124.62C145.972 124.409 145.936 124.186 145.968 123.951C145.237 123.985 145.164 123.837 145.75 123.504Z" fill="#2466A8"/>
<path fill-rule="evenodd" clip-rule="evenodd" d="M155.778 145.603C153.437 147.541 150.748 148.36 147.711 148.058C150.576 147.993 153.193 147.1 155.56 145.379C155.692 145.407 155.765 145.481 155.778 145.603Z" fill="#101315"/>
<path fill-rule="evenodd" clip-rule="evenodd" d="M65.7331 147.388C84.4996 147.093 103.25 147.503 121.983 148.616C126.952 149.08 131.894 149.75 136.809 150.625C138.573 150.983 140.244 151.578 141.823 152.411C142.136 152.917 142.063 153.363 141.605 153.75C139.932 154.551 138.187 155.146 136.373 155.536C124.37 157.296 112.306 158.337 100.181 158.661C79.0576 159.497 57.9821 158.828 36.954 156.652C34.4001 156.268 31.8566 155.821 29.3232 155.312C27.7375 154.97 26.2113 154.449 24.7447 153.75C24.1632 153.229 24.1632 152.708 24.7447 152.187C25.7827 151.61 26.8728 151.164 28.015 150.848C34.3595 149.637 40.755 148.819 47.2011 148.393C53.411 148.023 59.5885 147.688 65.7331 147.388Z" fill="#2466A8" fill-opacity="0.3"/>
</svg>
