<svg width="38" height="30" viewBox="0 0 38 30" fill="none" xmlns="http://www.w3.org/2000/svg">
<path d="M4.57358 29.6343C3.56748 29.6343 2.7062 29.276 1.98973 28.5596C1.27327 27.8431 0.915039 26.9818 0.915039 25.9757V4.0245C0.915039 3.01841 1.27327 2.15713 1.98973 1.44066C2.7062 0.724198 3.56748 0.365967 4.57358 0.365967H33.8419C34.848 0.365967 35.7092 0.724198 36.4257 1.44066C37.1422 2.15713 37.5004 3.01841 37.5004 4.0245V25.9757C37.5004 26.9818 37.1422 27.8431 36.4257 28.5596C35.7092 29.276 34.848 29.6343 33.8419 29.6343H4.57358ZM33.8419 7.68304L20.1681 16.2349C20.0156 16.3263 19.8556 16.3949 19.6879 16.4407C19.5202 16.4864 19.3602 16.5093 19.2077 16.5093C19.0553 16.5093 18.8952 16.4864 18.7275 16.4407C18.5599 16.3949 18.3998 16.3263 18.2474 16.2349L4.57358 7.68304V25.9757H33.8419V7.68304ZM19.2077 13.1708L33.8419 4.0245H4.57358L19.2077 13.1708ZM4.57358 8.14036V5.44219V5.48792V5.46505V8.14036Z" fill="#1CC2C4"/>
</svg>
