<svg width="1357" height="1987" viewBox="0 0 1357 1987" fill="none" xmlns="http://www.w3.org/2000/svg">
<g filter="url(#filter0_ii_835_1726)">
<path d="M131.5 37.6188C136.45 34.7607 142.55 34.7607 147.5 37.6188L178.698 55.6312C183.649 58.4893 186.698 63.7714 186.698 69.4876V105.512C186.698 111.229 183.649 116.511 178.698 119.369L147.5 137.381C142.55 140.239 136.45 140.239 131.5 137.381L100.302 119.369C95.3512 116.511 92.3016 111.229 92.3016 105.512V69.4876C92.3016 63.7714 95.3512 58.4893 100.302 55.6312L131.5 37.6188Z" fill="#D81E5B"/>
<path d="M1246 9.23761C1255.9 3.52136 1268.1 3.52135 1278 9.2376L1321.34 34.2624C1331.25 39.9786 1337.34 50.5427 1337.34 61.9752V112.025C1337.34 123.457 1331.25 134.021 1321.34 139.738L1278 164.762C1268.1 170.479 1255.9 170.479 1246 164.762L1202.66 139.738C1192.75 134.021 1186.66 123.457 1186.66 112.025V61.9752C1186.66 50.5427 1192.75 39.9786 1202.66 34.2624L1246 9.23761Z" fill="#D81E5B"/>
<path d="M481 101.238C490.901 95.5214 503.099 95.5214 513 101.238L805.76 270.262C815.66 275.979 821.76 286.543 821.76 297.975V636.025C821.76 647.457 815.66 658.021 805.76 663.738L513 832.762C503.099 838.479 490.901 838.479 481 832.762L188.24 663.738C178.34 658.021 172.24 647.457 172.24 636.025V297.975C172.24 286.543 178.34 275.979 188.24 270.262L481 101.238Z" fill="#1CC2C4"/>
<path d="M985.5 22.2376C995.401 16.5214 1007.6 16.5214 1017.5 22.2376L1097.65 68.5124C1107.55 74.2286 1113.65 84.7927 1113.65 96.2252V188.775C1113.65 200.207 1107.55 210.771 1097.65 216.488L1017.5 262.762C1007.6 268.479 995.401 268.479 985.5 262.762L905.35 216.488C895.449 210.771 889.35 200.207 889.35 188.775V96.2252C889.35 84.7927 895.449 74.2286 905.35 68.5124L985.5 22.2376Z" fill="#1CC2C4"/>
<path d="M1023.5 851.238C1033.4 845.521 1045.6 845.521 1055.5 851.238L1168.56 916.512C1178.46 922.229 1184.56 932.793 1184.56 944.225V1074.77C1184.56 1086.21 1178.46 1096.77 1168.56 1102.49L1055.5 1167.76C1045.6 1173.48 1033.4 1173.48 1023.5 1167.76L910.441 1102.49C900.54 1096.77 894.441 1086.21 894.441 1074.77V944.225C894.441 932.793 900.54 922.229 910.441 916.512L1023.5 851.238Z" fill="#D81E5B"/>
<path d="M151.5 1280.24C161.401 1274.52 173.599 1274.52 183.5 1280.24L296.559 1345.51C306.46 1351.23 312.559 1361.79 312.559 1373.23V1503.77C312.559 1515.21 306.46 1525.77 296.559 1531.49L183.5 1596.76C173.599 1602.48 161.401 1602.48 151.5 1596.76L38.4407 1531.49C28.5399 1525.77 22.4407 1515.21 22.4407 1503.77V1373.23C22.4407 1361.79 28.5399 1351.23 38.4407 1345.51L151.5 1280.24Z" fill="#F9A03F"/>
<path d="M1095 399.238C1104.9 393.521 1117.1 393.521 1127 399.238L1272.54 483.262C1282.44 488.979 1288.54 499.543 1288.54 510.975V679.025C1288.54 690.457 1282.44 701.021 1272.54 706.738L1127 790.762C1117.1 796.479 1104.9 796.479 1095 790.762L949.465 706.738C939.564 701.021 933.465 690.457 933.465 679.025V510.975C933.465 499.543 939.564 488.979 949.465 483.262L1095 399.238Z" fill="#F9A03F"/>
<path d="M763.311 809.238C773.212 803.521 785.41 803.521 795.311 809.238L843.255 836.918C853.155 842.634 859.255 853.198 859.255 864.631V919.991C859.255 931.424 853.155 941.988 843.255 947.704L795.311 975.384C785.41 981.1 773.212 981.1 763.311 975.384L715.367 947.704C705.466 941.988 699.367 931.424 699.367 919.991V864.631C699.367 853.198 705.466 842.634 715.367 836.918L763.311 809.238Z" fill="#D81E5B"/>
<path d="M1241.5 1813.24C1251.4 1807.52 1263.6 1807.52 1273.5 1813.24L1316.41 1838.01C1326.31 1843.73 1332.41 1854.29 1332.41 1865.73V1915.27C1332.41 1926.71 1326.31 1937.27 1316.41 1942.99L1273.5 1967.76C1263.6 1973.48 1251.4 1973.48 1241.5 1967.76L1198.59 1942.99C1188.69 1937.27 1182.59 1926.71 1182.59 1915.27V1865.73C1182.59 1854.29 1188.69 1843.73 1198.59 1838.01L1241.5 1813.24Z" fill="#1CC2C4"/>
<path d="M406.5 843.238C416.401 837.521 428.599 837.521 438.5 843.238L595.727 934.012C605.627 939.729 611.727 950.293 611.727 961.725V1143.27C611.727 1154.71 605.627 1165.27 595.727 1170.99L438.5 1261.76C428.599 1267.48 416.401 1267.48 406.5 1261.76L249.273 1170.99C239.373 1165.27 233.273 1154.71 233.273 1143.27L233.273 961.725C233.273 950.293 239.373 939.729 249.273 934.012L406.5 843.238Z" fill="#F9A03F"/>
<path d="M238 1730.24C247.901 1724.52 260.099 1724.52 270 1730.24L353.181 1778.26C363.082 1783.98 369.181 1794.54 369.181 1805.98V1902.02C369.181 1913.46 363.082 1924.02 353.181 1929.74L270 1977.76C260.099 1983.48 247.901 1983.48 238 1977.76L154.819 1929.74C144.918 1924.02 138.819 1913.46 138.819 1902.02V1805.98C138.819 1794.54 144.918 1783.98 154.819 1778.26L238 1730.24Z" fill="#1CC2C4"/>
<path d="M1248.31 1095.24C1258.21 1089.52 1270.41 1089.52 1280.31 1095.24L1328.25 1122.92C1338.16 1128.63 1344.25 1139.2 1344.25 1150.63V1205.99C1344.25 1217.42 1338.16 1227.99 1328.25 1233.7L1280.31 1261.38C1270.41 1267.1 1258.21 1267.1 1248.31 1261.38L1200.37 1233.7C1190.47 1227.99 1184.37 1217.42 1184.37 1205.99V1150.63C1184.37 1139.2 1190.47 1128.63 1200.37 1122.92L1248.31 1095.24Z" fill="#0A2342"/>
<path d="M106 742.238C115.901 736.521 128.099 736.521 138 742.238L164.024 757.262C173.925 762.979 180.024 773.543 180.024 784.975V815.025C180.024 826.457 173.925 837.021 164.024 842.738L138 857.762C128.099 863.479 115.901 863.479 106 857.762L79.9763 842.738C70.0755 837.021 63.9763 826.457 63.9763 815.025L63.9763 784.975C63.9763 773.543 70.0755 762.979 79.9763 757.262L106 742.238Z" fill="#0A2342"/>
<path d="M778 1095.24C787.901 1089.52 800.099 1089.52 810 1095.24L1134.8 1282.76C1144.7 1288.48 1150.8 1299.04 1150.8 1310.48V1685.52C1150.8 1696.96 1144.7 1707.52 1134.8 1713.24L810 1900.76C800.099 1906.48 787.901 1906.48 778 1900.76L453.198 1713.24C443.297 1707.52 437.198 1696.96 437.198 1685.52L437.198 1310.48C437.198 1299.04 443.297 1288.48 453.198 1282.76L778 1095.24Z" fill="#1CC2C4"/>
</g>
<defs>
<filter id="filter0_ii_835_1726" x="0" y="0" width="1356.62" height="1991" filterUnits="userSpaceOnUse" color-interpolation-filters="sRGB">
<feFlood flood-opacity="0" result="BackgroundImageFix"/>
<feBlend mode="normal" in="SourceGraphic" in2="BackgroundImageFix" result="shape"/>
<feColorMatrix in="SourceAlpha" type="matrix" values="0 0 0 0 0 0 0 0 0 0 0 0 0 0 0 0 0 0 127 0" result="hardAlpha"/>
<feOffset dy="4"/>
<feGaussianBlur stdDeviation="8"/>
<feComposite in2="hardAlpha" operator="arithmetic" k2="-1" k3="1"/>
<feColorMatrix type="matrix" values="0 0 0 0 1 0 0 0 0 1 0 0 0 0 1 0 0 0 1 0"/>
<feBlend mode="normal" in2="shape" result="effect1_innerShadow_835_1726"/>
<feColorMatrix in="SourceAlpha" type="matrix" values="0 0 0 0 0 0 0 0 0 0 0 0 0 0 0 0 0 0 127 0" result="hardAlpha"/>
<feOffset/>
<feGaussianBlur stdDeviation="2"/>
<feComposite in2="hardAlpha" operator="arithmetic" k2="-1" k3="1"/>
<feColorMatrix type="matrix" values="0 0 0 0 0 0 0 0 0 0 0 0 0 0 0 0 0 0 0.25 0"/>
<feBlend mode="normal" in2="effect1_innerShadow_835_1726" result="effect2_innerShadow_835_1726"/>
</filter>
</defs>
</svg>
