<svg width="360" height="952" viewBox="0 0 360 952" fill="none" xmlns="http://www.w3.org/2000/svg">
<g filter="url(#filter0_ii_929_395)">
<path d="M34.8961 9.98263C36.2098 9.22418 37.8283 9.22418 39.142 9.98263L47.4209 14.7625C48.7346 15.5209 49.5438 16.9226 49.5438 18.4395V27.9992C49.5438 29.5161 48.7346 30.9178 47.4209 31.6762L39.142 36.4561C37.8283 37.2145 36.2098 37.2145 34.8961 36.4561L26.6172 31.6762C25.3035 30.9178 24.4942 29.5161 24.4942 27.9992V18.4395C24.4942 16.9226 25.3035 15.5209 26.6172 14.7625L34.8961 9.98263Z" fill="#D81E5B"/>
<path d="M36.8961 536.983C38.2098 536.224 39.8283 536.224 41.142 536.983L49.4209 541.762C50.7346 542.521 51.5438 543.923 51.5438 545.439V554.999C51.5438 556.516 50.7346 557.918 49.4209 558.676L41.142 563.456C39.8283 564.215 38.2098 564.215 36.8961 563.456L28.6172 558.676C27.3035 557.918 26.4942 556.516 26.4942 554.999V545.439C26.4942 543.923 27.3035 542.521 28.6172 541.762L36.8961 536.983Z" fill="#D81E5B"/>
<path d="M330.646 2.45134C333.273 0.934447 336.51 0.934444 339.137 2.45134L350.639 9.09204C353.267 10.6089 354.885 13.4123 354.885 16.4461V29.7275C354.885 32.7612 353.267 35.5646 350.639 37.0815L339.137 43.7222C336.51 45.2391 333.273 45.2391 330.646 43.7222L319.144 37.0815C316.516 35.5646 314.898 32.7612 314.898 29.7275V16.4461C314.898 13.4123 316.516 10.6089 319.144 9.09204L330.646 2.45134Z" fill="#D81E5B"/>
<path d="M312.646 579.451C315.273 577.934 318.51 577.934 321.137 579.451L332.639 586.092C335.267 587.609 336.885 590.412 336.885 593.446V606.727C336.885 609.761 335.267 612.565 332.639 614.081L321.137 620.722C318.51 622.239 315.273 622.239 312.646 620.722L301.144 614.081C298.516 612.565 296.898 609.761 296.898 606.727V593.446C296.898 590.412 298.516 587.609 301.144 586.092L312.646 579.451Z" fill="#D81E5B"/>
<path d="M127.64 26.8648C130.267 25.3479 133.504 25.3479 136.132 26.8648L213.82 71.7181C216.447 73.235 218.066 76.0383 218.066 79.0721V168.779C218.066 171.812 216.447 174.616 213.82 176.133L136.132 220.986C133.504 222.503 130.267 222.503 127.64 220.986L49.9519 176.133C47.3246 174.616 45.7061 171.812 45.7061 168.779V79.0721C45.7061 76.0383 47.3246 73.235 49.9519 71.7181L127.64 26.8648Z" fill="#1CC2C4"/>
<path d="M129.64 553.865C132.267 552.348 135.504 552.348 138.132 553.865L215.82 598.718C218.447 600.235 220.066 603.038 220.066 606.072V695.779C220.066 698.812 218.447 701.616 215.82 703.133L138.132 747.986C135.504 749.503 132.267 749.503 129.64 747.986L51.9519 703.133C49.3246 701.616 47.7061 698.812 47.7061 695.779V606.072C47.7061 603.038 49.3246 600.235 51.9519 598.718L129.64 553.865Z" fill="#1CC2C4"/>
<path d="M261.517 5.90092C264.145 4.38403 267.382 4.38403 270.009 5.90092L291.278 18.1806C293.905 19.6975 295.524 22.5009 295.524 25.5346V50.0941C295.524 53.1279 293.905 55.9312 291.278 57.4481L270.009 69.7278C267.382 71.2447 264.145 71.2447 261.517 69.7278L240.248 57.4481C237.621 55.9312 236.002 53.1279 236.002 50.0941V25.5346C236.002 22.5009 237.621 19.6975 240.248 18.1806L261.517 5.90092Z" fill="#1CC2C4"/>
<path d="M263.517 532.901C266.145 531.384 269.382 531.384 272.009 532.901L293.278 545.181C295.905 546.698 297.524 549.501 297.524 552.535V577.094C297.524 580.128 295.905 582.931 293.278 584.448L272.009 596.728C269.382 598.245 266.145 598.245 263.517 596.728L242.248 584.448C239.621 582.931 238.002 580.128 238.002 577.094V552.535C238.002 549.501 239.621 546.698 242.248 545.181L263.517 532.901Z" fill="#1CC2C4"/>
<path d="M271.601 225.889C274.229 224.372 277.466 224.372 280.093 225.889L310.095 243.21C312.722 244.727 314.341 247.53 314.341 250.564V285.208C314.341 288.241 312.722 291.045 310.095 292.562L280.093 309.883C277.466 311.4 274.229 311.4 271.601 309.883L241.599 292.562C238.972 291.045 237.353 288.241 237.353 285.208V250.564C237.353 247.53 238.972 244.727 241.599 243.21L271.601 225.889Z" fill="#D81E5B"/>
<path d="M273.601 752.889C276.229 751.372 279.466 751.372 282.093 752.889L312.095 770.21C314.722 771.727 316.341 774.53 316.341 777.564V812.208C316.341 815.241 314.722 818.045 312.095 819.562L282.093 836.883C279.466 838.4 276.229 838.4 273.601 836.883L243.599 819.562C240.972 818.045 239.353 815.241 239.353 812.208V777.564C239.353 774.53 240.972 771.727 243.599 770.21L273.601 752.889Z" fill="#D81E5B"/>
<path d="M60.2028 339.73C62.8301 338.213 66.0671 338.213 68.6945 339.73L98.6965 357.052C101.324 358.569 102.942 361.372 102.942 364.406V399.049C102.942 402.083 101.324 404.886 98.6965 406.403L68.6945 423.725C66.0672 425.242 62.8301 425.242 60.2028 423.725L30.2008 406.403C27.5735 404.886 25.955 402.083 25.955 399.049V364.406C25.955 361.372 27.5735 358.569 30.2008 357.052L60.2028 339.73Z" fill="#F9A03F"/>
<path d="M42.2028 866.73C44.8301 865.213 48.0671 865.213 50.6945 866.73L80.6965 884.052C83.3238 885.569 84.9423 888.372 84.9423 891.406V926.049C84.9423 929.083 83.3238 931.886 80.6965 933.403L50.6945 950.725C48.0672 952.242 44.8301 952.242 42.2028 950.725L12.2008 933.403C9.5735 931.886 7.95499 929.083 7.95499 926.049V891.406C7.95499 888.372 9.5735 885.569 12.2008 884.052L42.2028 866.73Z" fill="#F9A03F"/>
<path d="M290.576 105.944C293.203 104.427 296.44 104.427 299.068 105.944L337.688 128.241C340.315 129.758 341.933 132.561 341.933 135.595V180.19C341.933 183.223 340.315 186.027 337.688 187.544L299.068 209.841C296.44 211.358 293.203 211.358 290.576 209.841L251.956 187.544C249.329 186.027 247.71 183.223 247.71 180.19V135.595C247.71 132.561 249.329 129.758 251.956 128.241L290.576 105.944Z" fill="#F9A03F"/>
<path d="M292.576 632.944C295.203 631.427 298.44 631.427 301.068 632.944L339.688 655.241C342.315 656.758 343.933 659.561 343.933 662.595V707.19C343.933 710.223 342.315 713.027 339.688 714.544L301.068 736.841C298.44 738.358 295.203 738.358 292.576 736.841L253.956 714.544C251.329 713.027 249.71 710.223 249.71 707.19V662.595C249.71 659.561 251.329 656.758 253.956 655.241L292.576 632.944Z" fill="#F9A03F"/>
<path d="M202.557 214.743C205.184 213.226 208.421 213.226 211.049 214.743L223.771 222.089C226.398 223.606 228.017 226.409 228.017 229.443V244.133C228.017 247.167 226.398 249.971 223.771 251.487L211.049 258.833C208.421 260.35 205.184 260.35 202.557 258.833L189.834 251.487C187.207 249.971 185.588 247.167 185.588 244.133V229.443C185.588 226.409 187.207 223.606 189.834 222.089L202.557 214.743Z" fill="#D81E5B"/>
<path d="M204.557 741.743C207.184 740.226 210.421 740.226 213.049 741.743L225.771 749.089C228.398 750.606 230.017 753.409 230.017 756.443V771.133C230.017 774.167 228.398 776.971 225.771 778.487L213.049 785.833C210.421 787.35 207.184 787.35 204.557 785.833L191.834 778.487C189.207 776.971 187.588 774.167 187.588 771.133V756.443C187.588 753.409 189.207 750.606 191.834 749.089L204.557 741.743Z" fill="#D81E5B"/>
<path d="M329.449 481.17C332.077 479.653 335.314 479.653 337.941 481.17L349.328 487.744C351.956 489.261 353.574 492.065 353.574 495.098V508.247C353.574 511.281 351.956 514.084 349.328 515.601L337.941 522.175C335.314 523.692 332.077 523.692 329.449 522.175L318.062 515.601C315.435 514.084 313.816 511.281 313.816 508.247V495.098C313.816 492.065 315.435 489.261 318.062 487.744L329.449 481.17Z" fill="#1CC2C4"/>
<path d="M107.872 223.766C110.5 222.249 113.737 222.249 116.364 223.766L158.086 247.854C160.714 249.371 162.332 252.174 162.332 255.208V303.385C162.332 306.419 160.714 309.222 158.086 310.739L116.364 334.828C113.737 336.344 110.499 336.344 107.872 334.828L66.1497 310.739C63.5224 309.222 61.9039 306.419 61.9039 303.385L61.9039 255.208C61.9039 252.174 63.5224 249.371 66.1497 247.854L107.872 223.766Z" fill="#F9A03F"/>
<path d="M109.872 750.766C112.5 749.249 115.737 749.249 118.364 750.766L160.086 774.854C162.714 776.371 164.332 779.174 164.332 782.208V830.385C164.332 833.419 162.714 836.222 160.086 837.739L118.364 861.828C115.737 863.344 112.499 863.344 109.872 861.828L68.1497 837.739C65.5224 836.222 63.9039 833.419 63.9039 830.385L63.9039 782.208C63.9039 779.174 65.5224 776.371 68.1497 774.854L109.872 750.766Z" fill="#F9A03F"/>
<path d="M63.1571 459.144C65.7844 457.628 69.0214 457.628 71.6488 459.144L93.7222 471.889C96.3495 473.405 97.968 476.209 97.968 479.243V504.731C97.968 507.765 96.3495 510.568 93.7222 512.085L71.6488 524.829C69.0214 526.346 65.7844 526.346 63.1571 524.829L41.0837 512.085C38.4563 510.568 36.8378 507.765 36.8378 504.731V479.243C36.8378 476.209 38.4563 473.405 41.0837 471.889L63.1571 459.144Z" fill="#1CC2C4"/>
<path d="M331.258 290.638C333.885 289.121 337.122 289.121 339.75 290.638L352.472 297.983C355.1 299.5 356.718 302.303 356.718 305.337V320.028C356.718 323.062 355.1 325.865 352.472 327.382L339.75 334.727C337.122 336.244 333.885 336.244 331.258 334.727L318.536 327.382C315.908 325.865 314.29 323.062 314.29 320.028V305.337C314.29 302.303 315.908 299.5 318.536 297.983L331.258 290.638Z" fill="#0A2342"/>
<path d="M313.258 848.638C315.885 847.121 319.122 847.121 321.75 848.638L334.472 855.983C337.1 857.5 338.718 860.303 338.718 863.337V878.028C338.718 881.062 337.1 883.865 334.472 885.382L321.75 892.727C319.122 894.244 315.885 894.244 313.258 892.727L300.536 885.382C297.908 883.865 296.29 881.062 296.29 878.028V863.337C296.29 860.303 297.908 857.5 300.536 855.983L313.258 848.638Z" fill="#0A2342"/>
<path d="M28.1283 196.964C30.7557 195.447 33.9927 195.447 36.62 196.964L43.5258 200.951C46.1531 202.468 47.7716 205.271 47.7716 208.305V216.279C47.7716 219.313 46.1531 222.116 43.5258 223.633L36.62 227.62C33.9927 229.137 30.7557 229.137 28.1283 227.62L21.2226 223.633C18.5952 222.116 16.9767 219.313 16.9767 216.279V208.305C16.9767 205.271 18.5952 202.468 21.2226 200.951L28.1283 196.964Z" fill="#0A2342"/>
<path d="M30.1283 723.964C32.7557 722.447 35.9927 722.447 38.62 723.964L45.5258 727.951C48.1531 729.468 49.7716 732.271 49.7716 735.305V743.279C49.7716 746.313 48.1531 749.116 45.5258 750.633L38.62 754.62C35.9927 756.137 32.7557 756.137 30.1283 754.62L23.2226 750.633C20.5952 749.116 18.9767 746.313 18.9767 743.279V735.305C18.9767 732.271 20.5952 729.468 23.2226 727.951L30.1283 723.964Z" fill="#0A2342"/>
<path d="M206.454 290.638C209.081 289.121 212.318 289.121 214.945 290.638L301.137 340.4C303.764 341.917 305.382 344.72 305.382 347.754V447.279C305.382 450.313 303.764 453.116 301.137 454.633L214.945 504.396C212.318 505.913 209.081 505.913 206.454 504.396L120.262 454.633C117.635 453.116 116.017 450.313 116.017 447.279L116.017 347.754C116.017 344.72 117.635 341.917 120.262 340.4L206.454 290.638Z" fill="#1CC2C4"/>
</g>
<defs>
<filter id="filter0_ii_929_395" x="0" y="0" width="360" height="952.924" filterUnits="userSpaceOnUse" color-interpolation-filters="sRGB">
<feFlood flood-opacity="0" result="BackgroundImageFix"/>
<feBlend mode="normal" in="SourceGraphic" in2="BackgroundImageFix" result="shape"/>
<feColorMatrix in="SourceAlpha" type="matrix" values="0 0 0 0 0 0 0 0 0 0 0 0 0 0 0 0 0 0 127 0" result="hardAlpha"/>
<feOffset dy="1.06146"/>
<feGaussianBlur stdDeviation="2.12292"/>
<feComposite in2="hardAlpha" operator="arithmetic" k2="-1" k3="1"/>
<feColorMatrix type="matrix" values="0 0 0 0 1 0 0 0 0 1 0 0 0 0 1 0 0 0 1 0"/>
<feBlend mode="normal" in2="shape" result="effect1_innerShadow_929_395"/>
<feColorMatrix in="SourceAlpha" type="matrix" values="0 0 0 0 0 0 0 0 0 0 0 0 0 0 0 0 0 0 127 0" result="hardAlpha"/>
<feOffset/>
<feGaussianBlur stdDeviation="0.53073"/>
<feComposite in2="hardAlpha" operator="arithmetic" k2="-1" k3="1"/>
<feColorMatrix type="matrix" values="0 0 0 0 0 0 0 0 0 0 0 0 0 0 0 0 0 0 0.25 0"/>
<feBlend mode="normal" in2="effect1_innerShadow_929_395" result="effect2_innerShadow_929_395"/>
</filter>
</defs>
</svg>
