<svg width="442" height="717" viewBox="0 0 442 717" fill="none" xmlns="http://www.w3.org/2000/svg">
<g clip-path="url(#clip0_15219_14219)">
<path fill-rule="evenodd" clip-rule="evenodd" d="M1548.93 863.725L1047.95 509.884C1030.74 497.724 1007.98 498.235 991.344 511.153L715.003 725.473C684.098 749.453 647.058 762.541 607.89 763.336C568.722 764.151 531.187 752.559 499.314 729.867L195.943 513.786C171.624 496.46 155.609 463.148 152.218 434C151.665 438.714 152.122 450.795 152.216 455.64C152.862 488.755 168.799 518.796 195.943 538.05L499.314 753.184C531.187 775.776 568.722 787.317 607.89 786.506C647.058 785.714 684.098 772.683 715.003 748.809L991.344 535.429C1007.98 522.567 1030.74 522.058 1047.95 534.165L1548.93 894.482" fill="#E2E6E9"/>
<path d="M1548.93 863.725L1047.95 509.884C1030.74 497.724 1007.98 498.235 991.344 511.153L715.003 725.473C684.098 749.453 647.058 762.541 607.89 763.336C568.722 764.151 531.187 752.559 499.314 729.867L195.943 513.786C171.624 496.46 155.609 463.148 152.218 434C151.665 438.714 152.122 450.795 152.216 455.64C152.862 488.755 168.799 518.796 195.943 538.05L499.314 753.184C531.187 775.776 568.722 787.317 607.89 786.506C647.058 785.714 684.098 772.683 715.003 748.809L991.344 535.429C1007.98 522.567 1030.74 522.058 1047.95 534.165L1548.93 894.482" stroke="#6C8093" stroke-width="2" stroke-linecap="round" stroke-linejoin="round"/>
<path fill-rule="evenodd" clip-rule="evenodd" d="M210.846 442.177C213.482 432.365 219.279 423.629 227.653 417.186L292.313 367.494C313.91 350.899 325.991 325.818 325.44 298.7C325.365 295.021 325.06 291.389 324.533 287.818C321.345 309.391 310.032 328.804 292.313 342.479L227.653 392.389C215.667 401.651 208.962 415.63 209.247 430.745C209.321 434.671 209.865 438.502 210.846 442.177Z" fill="#E2E6E9" stroke="#6C8093" stroke-width="2" stroke-linecap="round" stroke-linejoin="round"/>
<path d="M269.483 273.682C269.582 278.384 268.547 282.904 266.526 286.942C264.479 282.856 261.424 279.278 257.517 276.52L0 94.4071V68.1884L257.517 251.104C264.944 256.37 269.294 264.609 269.483 273.682ZM269.483 273.682C269.673 282.755 265.646 291.146 258.447 296.714L193.788 346.625C167.404 366.986 152.645 397.747 153.29 431.008C153.936 464.269 169.873 494.442 197.017 513.781L500.388 729.863C532.262 752.554 569.796 764.146 608.964 763.332C648.132 762.536 685.172 749.448 716.077 725.468L992.418 511.148C1009.06 498.23 1031.81 497.719 1049.02 509.879L1550 863.72M263.307 220.755L274.75 228.893C278.584 231.615 281.978 234.688 284.927 238.03M297.273 261.945C299.404 270.239 299.578 278.955 297.779 287.329M260.214 332.665L276.379 320.187C279.868 317.493 282.926 314.491 285.555 311.26M198.842 382.777C202.559 378.208 206.877 373.972 211.795 370.173L227.961 357.696M184.252 413.998C181.708 425.82 181.946 438.123 184.947 449.838M1032.82 474.947C1024.59 473.817 1016.23 474.004 1008.06 475.5M226.991 501.396L214.351 492.393C209.289 488.787 204.81 484.719 200.919 480.298M1056.5 482.17C1060.18 483.974 1063.75 486.085 1067.18 488.504L1079.7 497.351M962.831 499.511L974.345 490.581C977.658 488.011 981.131 485.742 984.725 483.775M711.852 695.173L700.338 704.103C695.976 707.486 691.475 710.604 686.856 713.457M530.308 716.641C525.577 713.978 520.952 711.045 516.456 707.843L503.815 698.839M625.394 735.182C636.213 733.805 646.911 731.28 657.296 727.61M560.422 729.582C570.949 732.826 581.742 734.914 592.608 735.849M215.9 187.626L241.882 206.102M170.122 155.072L196.104 173.548M124.343 122.518L150.326 140.994M78.5653 89.9639L104.548 108.44M32.7871 57.4099L58.7693 75.8865M0 34.0942L12.9909 43.3326M250.565 518.023L278.937 538.232M301.126 554.037L329.498 574.245M351.688 590.05L380.06 610.259M402.25 626.064L430.622 646.273M452.812 662.078L481.184 682.286M758.242 658.689L732.215 678.875M804.299 622.969L778.272 643.155M850.355 587.249L824.328 607.435M896.412 551.529L870.385 571.715M942.469 515.809L916.442 535.995M1102.11 513.601L1130.26 533.485M1152.21 548.989L1180.36 568.873M1202.31 584.377L1230.46 604.261M1252.41 619.765L1280.56 639.649M1302.51 655.153L1330.66 675.036M1352.61 690.541L1380.76 710.425M1402.72 725.929L1430.87 745.812M1452.82 761.317L1480.97 781.2M1502.92 796.705L1531.07 816.588M0 0L290.637 205.645C312.899 221.442 325.968 246.141 326.519 273.379C327.069 300.616 314.989 325.808 293.391 342.476L228.732 392.387C216.746 401.649 210.041 415.628 210.326 430.743C210.611 445.858 217.867 459.571 230.194 468.36L254.537 485.698L318.522 531.273L459.696 631.827C459.686 632.246 459.681 632.665 459.681 633.086C459.681 656.723 496.18 681.987 496.18 681.987L512.385 693.249C512.385 693.249 517.848 687.238 524.437 677.94L533.565 684.441C577.672 715.846 638.361 714.615 681.138 681.449L813.758 578.594C814.738 579.317 815.298 579.704 815.298 579.704L831.503 590.966C831.503 590.966 853.146 567.152 862.233 540.998L957.479 467.129C994.101 438.717 1044.15 437.618 1082.01 464.344L1177.73 532.084C1179 555.344 1214.19 579.704 1214.19 579.704L1230.4 590.966C1230.4 590.966 1235.29 585.588 1241.39 577.136L1550 795.532" stroke="#6C8093" stroke-width="2" stroke-linecap="round" stroke-linejoin="round"/>
<path d="M257.517 276.52L0 94.4071V68.1885L257.517 251.104C264.944 256.37 269.293 264.609 269.483 273.682C269.582 278.384 268.547 282.904 266.526 286.942C264.479 282.856 261.424 279.278 257.517 276.52Z" fill="#E2E6E9" stroke="#6C8093" stroke-width="2" stroke-linecap="round" stroke-linejoin="round"/>
</g>
<defs>
<clipPath id="clip0_15219_14219">
<rect width="442" height="717" fill="white"/>
</clipPath>
</defs>
</svg>
