<svg width="65" height="65" viewBox="0 0 65 65" fill="none" xmlns="http://www.w3.org/2000/svg">
<path d="M30.7221 3.45093C31.4667 2.00557 33.5333 2.00557 34.2779 3.45093L39.1871 12.9796C39.6345 13.8481 40.644 14.2662 41.5745 13.9685L51.7836 10.702C53.3322 10.2065 54.7935 11.6678 54.298 13.2164L51.0315 23.4255C50.7338 24.356 51.1519 25.3655 52.0204 25.8129L61.5491 30.7221C62.9944 31.4667 62.9944 33.5333 61.5491 34.2779L52.0204 39.1871C51.1519 39.6345 50.7338 40.644 51.0315 41.5745L54.298 51.7836C54.7935 53.3322 53.3322 54.7935 51.7836 54.298L41.5745 51.0315C40.644 50.7338 39.6345 51.1519 39.1871 52.0204L34.2779 61.5491C33.5333 62.9944 31.4667 62.9944 30.7221 61.5491L25.8129 52.0204C25.3655 51.1519 24.356 50.7338 23.4255 51.0315L13.2164 54.298C11.6678 54.7935 10.2065 53.3322 10.702 51.7836L13.9685 41.5745C14.2662 40.644 13.8481 39.6345 12.9796 39.1871L3.45093 34.2779C2.00557 33.5333 2.00557 31.4667 3.45093 30.7221L12.9796 25.8129C13.8481 25.3655 14.2662 24.356 13.9685 23.4255L10.702 13.2164C10.2065 11.6678 11.6678 10.2065 13.2164 10.702L23.4255 13.9685C24.356 14.2662 25.3655 13.8481 25.8129 12.9796L30.7221 3.45093Z" fill="#FCE8EF"/>
</svg>
