<svg width="86" height="111" viewBox="0 0 86 111" fill="none" xmlns="http://www.w3.org/2000/svg">
<path fill-rule="evenodd" clip-rule="evenodd" d="M69.9388 47.0466C69.9388 58.4641 62.4452 70.1039 53.1883 73.0298C43.9311 75.9556 36.4375 69.0861 36.4375 57.6688C36.4375 46.2516 43.9311 34.6117 53.1883 31.6858C62.4452 28.76 69.9388 35.6293 69.9388 47.0466Z" stroke="#CC7400" stroke-width="4" stroke-linecap="round" stroke-linejoin="round"/>
<path fill-rule="evenodd" clip-rule="evenodd" d="M51.4903 108.024C51.4903 108.024 83.703 72.5797 83.703 42.1441C83.703 20.1841 69.2751 6.96983 51.4903 12.6149C33.7054 18.2601 19.2773 40.6334 19.2773 62.5934C19.2773 84.5536 51.4903 108.024 51.4903 108.024ZM53.1856 73.0249C62.4426 70.0991 69.9364 58.459 69.9364 47.0417C69.9364 35.6244 62.4426 28.7549 53.1856 31.6809C43.9287 34.6068 36.4349 46.2467 36.4349 57.664C36.4349 69.0813 43.9287 75.9508 53.1856 73.0249Z" fill="#F4E7D7" stroke="#CC7400" stroke-width="4" stroke-linecap="round" stroke-linejoin="round"/>
<path fill-rule="evenodd" clip-rule="evenodd" d="M69.3696 13.623L52.7625 4.82523C47.6254 2.16967 41.4202 1.62909 34.7403 3.74407C16.9554 9.38901 2.52734 30.1723 2.52734 52.1325C2.52734 74.0925 36.4356 97.5632 36.4356 97.5632L51.4908 108.026C51.4908 108.026 19.2781 84.5557 19.2781 62.5957C19.2781 40.6357 33.706 18.2621 51.4908 12.617C58.1044 10.5179 64.2537 11.0266 69.3696 13.623Z" fill="#F4E7D7" stroke="#CC7400" stroke-width="4" stroke-linecap="round" stroke-linejoin="round"/>
</svg>
