<svg width="144" height="120" viewBox="0 0 144 120" fill="none" xmlns="http://www.w3.org/2000/svg">
<g filter="url(#filter0_d_1520_4787)">
<path d="M43.5743 43.8515C45.5227 42.7162 47.9231 42.7162 49.8715 43.8515L66.2972 53.4235C68.2456 54.5589 69.4458 56.6572 69.4458 58.928V78.072C69.4458 80.3428 68.2456 82.4411 66.2972 83.5765L49.8715 93.1485C47.9231 94.2838 45.5227 94.2838 43.5743 93.1485L27.1486 83.5765C25.2002 82.4411 24 80.3428 24 78.072V58.928C24 56.6572 25.2002 54.5589 27.1486 53.4235L43.5743 43.8515Z" fill="#D81E5B"/>
</g>
<g filter="url(#filter1_d_1520_4787)">
<path d="M93.9601 43.8515C95.9084 42.7162 98.3089 42.7162 100.257 43.8515L116.683 53.4235C118.631 54.5589 119.832 56.6572 119.832 58.928V78.072C119.832 80.3428 118.631 82.4411 116.683 83.5765L100.257 93.1485C98.3089 94.2838 95.9084 94.2838 93.9601 93.1485L77.5343 83.5765C75.586 82.4411 74.3857 80.3428 74.3857 78.072V58.928C74.3857 56.6572 75.586 54.5589 77.5343 53.4235L93.9601 43.8515Z" fill="#D81E5B"/>
</g>
<path d="M68.8353 0.85154C70.7413 -0.283847 73.0896 -0.283847 74.9956 0.851541L91.0642 10.4235C92.9702 11.5589 94.1444 13.6572 94.1444 15.928V35.072C94.1444 37.3428 92.9702 39.4411 91.0642 40.5765L74.9956 50.1485C73.0896 51.2838 70.7413 51.2838 68.8353 50.1485L52.7667 40.5765C50.8607 39.4411 49.6865 37.3428 49.6865 35.072V15.928C49.6865 13.6572 50.8607 11.5589 52.7667 10.4235L68.8353 0.85154Z" fill="#D81E5B"/>
<defs>
<filter id="filter0_d_1520_4787" x="0" y="21" width="93.4458" height="99" filterUnits="userSpaceOnUse" color-interpolation-filters="sRGB">
<feFlood flood-opacity="0" result="BackgroundImageFix"/>
<feColorMatrix in="SourceAlpha" type="matrix" values="0 0 0 0 0 0 0 0 0 0 0 0 0 0 0 0 0 0 127 0" result="hardAlpha"/>
<feOffset dy="2"/>
<feGaussianBlur stdDeviation="12"/>
<feComposite in2="hardAlpha" operator="out"/>
<feColorMatrix type="matrix" values="0 0 0 0 0 0 0 0 0 0 0 0 0 0 0 0 0 0 0.15 0"/>
<feBlend mode="normal" in2="BackgroundImageFix" result="effect1_dropShadow_1520_4787"/>
<feBlend mode="normal" in="SourceGraphic" in2="effect1_dropShadow_1520_4787" result="shape"/>
</filter>
<filter id="filter1_d_1520_4787" x="50.3857" y="21" width="93.4458" height="99" filterUnits="userSpaceOnUse" color-interpolation-filters="sRGB">
<feFlood flood-opacity="0" result="BackgroundImageFix"/>
<feColorMatrix in="SourceAlpha" type="matrix" values="0 0 0 0 0 0 0 0 0 0 0 0 0 0 0 0 0 0 127 0" result="hardAlpha"/>
<feOffset dy="2"/>
<feGaussianBlur stdDeviation="12"/>
<feComposite in2="hardAlpha" operator="out"/>
<feColorMatrix type="matrix" values="0 0 0 0 0 0 0 0 0 0 0 0 0 0 0 0 0 0 0.15 0"/>
<feBlend mode="normal" in2="BackgroundImageFix" result="effect1_dropShadow_1520_4787"/>
<feBlend mode="normal" in="SourceGraphic" in2="effect1_dropShadow_1520_4787" result="shape"/>
</filter>
</defs>
</svg>
