<svg width="187" height="428" viewBox="0 0 187 428" fill="none" xmlns="http://www.w3.org/2000/svg">
<line x1="94.5" y1="261" x2="94.5" y2="370" stroke="white" stroke-width="3"/>
<path d="M54.1763 81.9486C49.922 79.4924 44.6805 79.4924 40.4263 81.9486L9.125 100.02C4.87074 102.477 2.25 107.016 2.25 111.928V148.072C2.25 152.984 4.87073 157.523 9.125 159.98L40.4263 178.051C44.6805 180.508 49.922 180.508 54.1763 178.051L85.4775 159.98C89.7318 157.523 92.3525 152.984 92.3525 148.072V111.928C92.3525 107.016 89.7318 102.477 85.4775 100.02L54.1763 81.9486Z" fill="#1CC2C4" stroke="#EBF4FB" stroke-width="3.5"/>
<path d="M146.478 81.9486C142.223 79.4924 136.982 79.4924 132.728 81.9486L101.426 100.02C97.172 102.477 94.5513 107.016 94.5513 111.928V148.072C94.5513 152.984 97.172 157.523 101.426 159.98L132.728 178.051C136.982 180.508 142.223 180.508 146.478 178.051L177.779 159.98C182.033 157.523 184.654 152.984 184.654 148.072V111.928C184.654 107.016 182.033 102.477 177.779 100.02L146.478 81.9486Z" fill="#1CC2C4" stroke="#EBF4FB" stroke-width="3.5"/>
<path d="M100.478 161.092C96.2233 158.636 90.9818 158.636 86.7275 161.092L55.4263 179.164C51.172 181.62 48.5513 186.159 48.5513 191.072V227.215C48.5513 232.128 51.172 236.667 55.4263 239.123L86.7275 257.195C90.9818 259.651 96.2233 259.651 100.478 257.195L131.779 239.123C136.033 236.667 138.654 232.128 138.654 227.215V191.072C138.654 186.159 136.033 181.62 131.779 179.164L100.478 161.092Z" fill="#1CC2C4" stroke="#EBF4FB" stroke-width="3.5"/>
<g filter="url(#filter0_i_843_2125)">
<path d="M90.6745 371.885C92.7323 370.705 95.2677 370.705 97.3255 371.885L114.674 381.832C116.732 383.012 118 385.193 118 387.553V407.447C118 409.807 116.732 411.988 114.674 413.168L97.3255 423.115C95.2677 424.295 92.7323 424.295 90.6745 423.115L73.3255 413.168C71.2677 411.988 70 409.807 70 407.447V387.553C70 385.193 71.2677 383.012 73.3255 381.832L90.6745 371.885Z" fill="#EDFCFC"/>
</g>
<path d="M98.196 370.367C95.599 368.878 92.401 368.878 89.804 370.367L72.4551 380.314C69.8567 381.804 68.25 384.562 68.25 387.553V407.447C68.25 410.438 69.8567 413.196 72.4551 414.686L89.804 424.633C92.401 426.122 95.599 426.122 98.196 424.633L115.545 414.686C118.143 413.196 119.75 410.438 119.75 407.447V387.553C119.75 384.562 118.143 381.804 115.545 380.314L98.196 370.367Z" stroke="#EBF4FB" stroke-width="3.5"/>
<g filter="url(#filter1_i_843_2125)">
<path d="M87.6025 5.60769C91.3154 3.4641 95.8897 3.4641 99.6025 5.6077L130.904 23.6795C134.617 25.8231 136.904 29.7846 136.904 34.0718V70.2154C136.904 74.5026 134.617 78.4641 130.904 80.6077L99.6025 98.6795C95.8897 100.823 91.3154 100.823 87.6025 98.6795L56.3013 80.6077C52.5885 78.4641 50.3013 74.5026 50.3013 70.2154V34.0718C50.3013 29.7846 52.5885 25.8231 56.3013 23.6795L87.6025 5.60769Z" fill="#1CC2C4"/>
</g>
<path d="M100.478 4.09215C96.2233 1.63595 90.9818 1.63595 86.7275 4.09215L55.4263 22.1639C51.172 24.6201 48.5513 29.1594 48.5513 34.0718V70.2154C48.5513 75.1278 51.172 79.667 55.4263 82.1232L86.7275 100.195C90.9818 102.651 96.2233 102.651 100.478 100.195L131.779 82.1232C136.033 79.667 138.654 75.1278 138.654 70.2154V34.0718C138.654 29.1594 136.033 24.6201 131.779 22.1639L100.478 4.09215Z" stroke="#EBF4FB" stroke-width="3.5"/>
<defs>
<filter id="filter0_i_843_2125" x="66.5" y="367.5" width="55" height="64" filterUnits="userSpaceOnUse" color-interpolation-filters="sRGB">
<feFlood flood-opacity="0" result="BackgroundImageFix"/>
<feBlend mode="normal" in="SourceGraphic" in2="BackgroundImageFix" result="shape"/>
<feColorMatrix in="SourceAlpha" type="matrix" values="0 0 0 0 0 0 0 0 0 0 0 0 0 0 0 0 0 0 127 0" result="hardAlpha"/>
<feOffset dy="4"/>
<feGaussianBlur stdDeviation="4"/>
<feComposite in2="hardAlpha" operator="arithmetic" k2="-1" k3="1"/>
<feColorMatrix type="matrix" values="0 0 0 0 0 0 0 0 0 0 0 0 0 0 0 0 0 0 0.25 0"/>
<feBlend mode="normal" in2="shape" result="effect1_innerShadow_843_2125"/>
</filter>
<filter id="filter1_i_843_2125" x="46.8013" y="0.5" width="93.6025" height="107.287" filterUnits="userSpaceOnUse" color-interpolation-filters="sRGB">
<feFlood flood-opacity="0" result="BackgroundImageFix"/>
<feBlend mode="normal" in="SourceGraphic" in2="BackgroundImageFix" result="shape"/>
<feColorMatrix in="SourceAlpha" type="matrix" values="0 0 0 0 0 0 0 0 0 0 0 0 0 0 0 0 0 0 127 0" result="hardAlpha"/>
<feOffset dy="4"/>
<feGaussianBlur stdDeviation="2"/>
<feComposite in2="hardAlpha" operator="arithmetic" k2="-1" k3="1"/>
<feColorMatrix type="matrix" values="0 0 0 0 0 0 0 0 0 0 0 0 0 0 0 0 0 0 0.25 0"/>
<feBlend mode="normal" in2="shape" result="effect1_innerShadow_843_2125"/>
</filter>
</defs>
</svg>
