<svg width="221" height="26" viewBox="0 0 221 26" fill="none" xmlns="http://www.w3.org/2000/svg">
<path d="M4.64706 6.784C6.3004 6.784 7.56973 7.07733 8.45506 7.664C9.3404 8.24 9.78306 9.18933 9.78306 10.512C9.78306 11.8453 9.33506 12.8107 8.43906 13.408C7.54306 13.9947 6.26306 14.288 4.59906 14.288H3.81506V18H1.31906V7.072C1.86306 6.96533 2.43906 6.89067 3.04706 6.848C3.65506 6.80533 4.1884 6.784 4.64706 6.784ZM4.80706 8.912C4.62573 8.912 4.4444 8.91733 4.26306 8.928C4.0924 8.93867 3.94306 8.94933 3.81506 8.96V12.16H4.59906C5.46306 12.16 6.11373 12.0427 6.55106 11.808C6.9884 11.5733 7.20706 11.136 7.20706 10.496C7.20706 10.1867 7.1484 9.93067 7.03106 9.728C6.9244 9.52533 6.7644 9.36533 6.55106 9.248C6.3484 9.12 6.09773 9.03467 5.79906 8.992C5.5004 8.93867 5.16973 8.912 4.80706 8.912ZM19.0936 13.776C19.0936 14.4373 18.9976 15.0453 18.8056 15.6C18.6136 16.144 18.3362 16.6133 17.9736 17.008C17.6109 17.392 17.1736 17.6907 16.6616 17.904C16.1602 18.1173 15.5949 18.224 14.9656 18.224C14.3469 18.224 13.7816 18.1173 13.2696 17.904C12.7682 17.6907 12.3362 17.392 11.9736 17.008C11.6109 16.6133 11.3282 16.144 11.1256 15.6C10.9229 15.0453 10.8216 14.4373 10.8216 13.776C10.8216 13.1147 10.9229 12.512 11.1256 11.968C11.3389 11.424 11.6269 10.96 11.9896 10.576C12.3629 10.192 12.8002 9.89333 13.3016 9.68C13.8136 9.46667 14.3682 9.36 14.9656 9.36C15.5736 9.36 16.1282 9.46667 16.6296 9.68C17.1416 9.89333 17.5789 10.192 17.9416 10.576C18.3042 10.96 18.5869 11.424 18.7896 11.968C18.9922 12.512 19.0936 13.1147 19.0936 13.776ZM16.6616 13.776C16.6616 13.04 16.5122 12.464 16.2136 12.048C15.9256 11.6213 15.5096 11.408 14.9656 11.408C14.4216 11.408 14.0002 11.6213 13.7016 12.048C13.4029 12.464 13.2536 13.04 13.2536 13.776C13.2536 14.512 13.4029 15.0987 13.7016 15.536C14.0002 15.9627 14.4216 16.176 14.9656 16.176C15.5096 16.176 15.9256 15.9627 16.2136 15.536C16.5122 15.0987 16.6616 14.512 16.6616 13.776ZM25.8728 13.168C25.6595 13.9787 25.4301 14.784 25.1848 15.584C24.9501 16.384 24.6995 17.1893 24.4328 18H22.5768C22.3848 17.552 22.1768 17.0187 21.9528 16.4C21.7288 15.7813 21.4941 15.1093 21.2488 14.384C21.0141 13.648 20.7688 12.8747 20.5128 12.064C20.2675 11.2427 20.0275 10.416 19.7928 9.584H22.3048C22.3901 9.968 22.4808 10.3893 22.5768 10.848C22.6835 11.296 22.7901 11.76 22.8968 12.24C23.0141 12.72 23.1315 13.2053 23.2488 13.696C23.3768 14.176 23.5048 14.64 23.6328 15.088C23.7715 14.6187 23.9048 14.1387 24.0328 13.648C24.1715 13.1573 24.2995 12.6773 24.4168 12.208C24.5448 11.728 24.6621 11.2693 24.7688 10.832C24.8861 10.384 24.9875 9.968 25.0728 9.584H26.8008C26.8861 9.968 26.9821 10.384 27.0888 10.832C27.1955 11.2693 27.3075 11.728 27.4248 12.208C27.5421 12.6773 27.6648 13.1573 27.7928 13.648C27.9208 14.1387 28.0541 14.6187 28.1928 15.088C28.3208 14.64 28.4488 14.176 28.5768 13.696C28.7048 13.2053 28.8221 12.72 28.9288 12.24C29.0461 11.76 29.1528 11.296 29.2488 10.848C29.3555 10.3893 29.4515 9.968 29.5368 9.584H32.0168C31.7821 10.416 31.5368 11.2427 31.2808 12.064C31.0355 12.8747 30.7901 13.648 30.5448 14.384C30.3101 15.1093 30.0755 15.7813 29.8408 16.4C29.6168 17.0187 29.4088 17.552 29.2168 18H27.3608C27.0941 17.1893 26.8328 16.384 26.5768 15.584C26.3208 14.784 26.0861 13.9787 25.8728 13.168ZM32.7122 13.856C32.7122 13.1093 32.8242 12.4587 33.0482 11.904C33.2829 11.3387 33.5869 10.8693 33.9602 10.496C34.3335 10.1227 34.7602 9.84 35.2402 9.648C35.7309 9.456 36.2322 9.36 36.7442 9.36C37.9389 9.36 38.8829 9.728 39.5762 10.464C40.2695 11.1893 40.6162 12.2613 40.6162 13.68C40.6162 13.8187 40.6109 13.9733 40.6002 14.144C40.5895 14.304 40.5789 14.448 40.5682 14.576H35.1602C35.2135 15.0667 35.4429 15.456 35.8482 15.744C36.2535 16.032 36.7975 16.176 37.4802 16.176C37.9175 16.176 38.3442 16.1387 38.7602 16.064C39.1869 15.9787 39.5335 15.8773 39.8002 15.76L40.1202 17.696C39.9922 17.76 39.8215 17.824 39.6082 17.888C39.3949 17.952 39.1549 18.0053 38.8882 18.048C38.6322 18.1013 38.3549 18.144 38.0562 18.176C37.7575 18.208 37.4589 18.224 37.1602 18.224C36.4029 18.224 35.7415 18.112 35.1762 17.888C34.6215 17.664 34.1575 17.36 33.7842 16.976C33.4215 16.5813 33.1495 16.1173 32.9682 15.584C32.7975 15.0507 32.7122 14.4747 32.7122 13.856ZM38.3122 12.944C38.3015 12.7413 38.2642 12.544 38.2002 12.352C38.1469 12.16 38.0562 11.9893 37.9282 11.84C37.8109 11.6907 37.6562 11.568 37.4642 11.472C37.2829 11.376 37.0535 11.328 36.7762 11.328C36.5095 11.328 36.2802 11.376 36.0882 11.472C35.8962 11.5573 35.7362 11.6747 35.6082 11.824C35.4802 11.9733 35.3789 12.1493 35.3042 12.352C35.2402 12.544 35.1922 12.7413 35.1602 12.944H38.3122ZM47.5279 11.696C47.3146 11.6427 47.0639 11.5893 46.7759 11.536C46.4879 11.472 46.1786 11.44 45.8479 11.44C45.6986 11.44 45.5173 11.456 45.3039 11.488C45.1013 11.5093 44.9466 11.536 44.8399 11.568V18H42.4559V10.032C42.8826 9.88267 43.3839 9.744 43.9599 9.616C44.5466 9.47733 45.1973 9.408 45.9119 9.408C46.0399 9.408 46.1946 9.41867 46.3759 9.44C46.5573 9.45067 46.7386 9.472 46.9199 9.504C47.1013 9.52533 47.2826 9.55733 47.4639 9.6C47.6453 9.632 47.7999 9.67467 47.9279 9.728L47.5279 11.696ZM48.6497 13.856C48.6497 13.1093 48.7617 12.4587 48.9857 11.904C49.2204 11.3387 49.5244 10.8693 49.8977 10.496C50.271 10.1227 50.6977 9.84 51.1777 9.648C51.6684 9.456 52.1697 9.36 52.6817 9.36C53.8764 9.36 54.8204 9.728 55.5137 10.464C56.207 11.1893 56.5537 12.2613 56.5537 13.68C56.5537 13.8187 56.5484 13.9733 56.5377 14.144C56.527 14.304 56.5164 14.448 56.5057 14.576H51.0977C51.151 15.0667 51.3804 15.456 51.7857 15.744C52.191 16.032 52.735 16.176 53.4177 16.176C53.855 16.176 54.2817 16.1387 54.6977 16.064C55.1244 15.9787 55.471 15.8773 55.7377 15.76L56.0577 17.696C55.9297 17.76 55.759 17.824 55.5457 17.888C55.3324 17.952 55.0924 18.0053 54.8257 18.048C54.5697 18.1013 54.2924 18.144 53.9937 18.176C53.695 18.208 53.3964 18.224 53.0977 18.224C52.3404 18.224 51.679 18.112 51.1137 17.888C50.559 17.664 50.095 17.36 49.7217 16.976C49.359 16.5813 49.087 16.1173 48.9057 15.584C48.735 15.0507 48.6497 14.4747 48.6497 13.856ZM54.2497 12.944C54.239 12.7413 54.2017 12.544 54.1377 12.352C54.0844 12.16 53.9937 11.9893 53.8657 11.84C53.7484 11.6907 53.5937 11.568 53.4017 11.472C53.2204 11.376 52.991 11.328 52.7137 11.328C52.447 11.328 52.2177 11.376 52.0257 11.472C51.8337 11.5573 51.6737 11.6747 51.5457 11.824C51.4177 11.9733 51.3164 12.1493 51.2417 12.352C51.1777 12.544 51.1297 12.7413 51.0977 12.944H54.2497ZM60.4254 13.728C60.4254 14.464 60.5908 15.056 60.9214 15.504C61.2521 15.952 61.7428 16.176 62.3934 16.176C62.6068 16.176 62.8041 16.1707 62.9854 16.16C63.1668 16.1387 63.3161 16.1173 63.4334 16.096V11.76C63.2841 11.664 63.0868 11.584 62.8414 11.52C62.6068 11.456 62.3668 11.424 62.1214 11.424C60.9908 11.424 60.4254 12.192 60.4254 13.728ZM65.8174 17.728C65.6041 17.792 65.3588 17.856 65.0814 17.92C64.8041 17.9733 64.5108 18.0213 64.2014 18.064C63.9028 18.1067 63.5934 18.1387 63.2734 18.16C62.9641 18.192 62.6654 18.208 62.3774 18.208C61.6841 18.208 61.0654 18.1067 60.5214 17.904C59.9774 17.7013 59.5188 17.4133 59.1454 17.04C58.7721 16.656 58.4841 16.1973 58.2814 15.664C58.0894 15.12 57.9934 14.512 57.9934 13.84C57.9934 13.1573 58.0788 12.544 58.2494 12C58.4201 11.4453 58.6654 10.976 58.9854 10.592C59.3054 10.208 59.6948 9.91467 60.1534 9.712C60.6228 9.50933 61.1561 9.408 61.7534 9.408C62.0841 9.408 62.3774 9.44 62.6334 9.504C62.9001 9.568 63.1668 9.65867 63.4334 9.776V5.968L65.8174 5.584V17.728ZM77.2854 13.728C77.2854 12.192 76.7201 11.424 75.5894 11.424C75.3441 11.424 75.0988 11.456 74.8534 11.52C74.6188 11.584 74.4268 11.664 74.2774 11.76V16.096C74.3948 16.1173 74.5441 16.1387 74.7254 16.16C74.9068 16.1707 75.1041 16.176 75.3174 16.176C75.9681 16.176 76.4588 15.952 76.7894 15.504C77.1201 15.056 77.2854 14.464 77.2854 13.728ZM79.7174 13.792C79.7174 14.464 79.6161 15.072 79.4134 15.616C79.2214 16.16 78.9388 16.624 78.5654 17.008C78.1921 17.392 77.7334 17.6907 77.1894 17.904C76.6454 18.1067 76.0268 18.208 75.3334 18.208C75.0454 18.208 74.7414 18.192 74.4214 18.16C74.1121 18.1387 73.8028 18.1067 73.4934 18.064C73.1948 18.0213 72.9068 17.9733 72.6294 17.92C72.3521 17.856 72.1068 17.792 71.8934 17.728V5.968L74.2774 5.584V9.776C74.5441 9.65867 74.8214 9.568 75.1094 9.504C75.3974 9.44 75.7068 9.408 76.0374 9.408C76.6348 9.408 77.1628 9.51467 77.6214 9.728C78.0801 9.93067 78.4641 10.224 78.7734 10.608C79.0828 10.992 79.3174 11.456 79.4774 12C79.6374 12.5333 79.7174 13.1307 79.7174 13.792ZM88.8029 9.584C88.3229 11.2053 87.8216 12.7253 87.2989 14.144C86.7763 15.5627 86.2056 16.9387 85.5869 18.272C85.3629 18.752 85.1389 19.1573 84.9149 19.488C84.6909 19.8293 84.4456 20.1067 84.1789 20.32C83.9123 20.544 83.6083 20.704 83.2669 20.8C82.9363 20.9067 82.5469 20.96 82.0989 20.96C81.7256 20.96 81.3789 20.9227 81.0589 20.848C80.7496 20.784 80.4936 20.7093 80.2909 20.624L80.7069 18.72C80.9523 18.8053 81.1709 18.864 81.3629 18.896C81.5549 18.928 81.7576 18.944 81.9709 18.944C82.3976 18.944 82.7229 18.8267 82.9469 18.592C83.1816 18.368 83.3789 18.0533 83.5389 17.648C82.9949 16.5813 82.4509 15.3867 81.9069 14.064C81.3629 12.7307 80.8509 11.2373 80.3709 9.584H82.8989C83.0056 10 83.1283 10.4533 83.2669 10.944C83.4163 11.424 83.5709 11.9147 83.7309 12.416C83.8909 12.9067 84.0509 13.3867 84.2109 13.856C84.3816 14.3253 84.5416 14.752 84.6909 15.136C84.8296 14.752 84.9736 14.3253 85.1229 13.856C85.2723 13.3867 85.4163 12.9067 85.5549 12.416C85.7043 11.9147 85.8429 11.424 85.9709 10.944C86.1096 10.4533 86.2323 10 86.3389 9.584H88.8029Z" fill="#CED3D9"/>
<path opacity="0.5" d="M95.5413 12.1876C95.3015 11.4688 95.1665 10.7469 95.1665 10.0321C95.1665 3.62862 101.125 0.717857 106 5.957C110.875 0.717857 116.833 3.62842 116.833 10.0321C116.833 10.7469 116.698 11.4688 116.458 12.1876H113.189L113.068 12.1875C112.476 12.1865 111.951 12.1857 111.474 12.3984C110.996 12.6112 110.645 13.0022 110.25 13.4424L110.169 13.5328L109.054 14.7717C108.943 14.8954 108.749 14.8918 108.643 14.7633L104.796 10.1001C104.645 9.91674 104.483 9.72054 104.325 9.57493C104.141 9.40537 103.868 9.21463 103.488 9.19176C103.107 9.16889 102.813 9.32565 102.61 9.47194C102.436 9.59758 102.252 9.773 102.08 9.93696L100.423 11.5152C99.9114 12.0019 99.8048 12.0849 99.6933 12.1294C99.5817 12.1741 99.4473 12.1876 98.7415 12.1876H95.5413Z" fill="#E8789D"/>
<path d="M116.458 12.1873H113.189L113.067 12.1871C112.476 12.1862 111.951 12.1854 111.473 12.3981C110.996 12.6109 110.645 13.0019 110.25 13.4421L110.169 13.5324L109.054 14.7714C108.942 14.8951 108.749 14.8915 108.643 14.763L104.796 10.0998C104.645 9.91642 104.483 9.72023 104.325 9.57462C104.141 9.40505 103.868 9.21432 103.487 9.19145C103.106 9.16857 102.813 9.32534 102.61 9.47163C102.435 9.59725 102.251 9.77268 102.079 9.93664L100.422 11.5149C99.9112 12.0016 99.8046 12.0845 99.693 12.1291C99.5815 12.1738 99.447 12.1873 98.7413 12.1873H95.541C96.6633 15.5509 100.082 18.843 102.708 20.9846C104.151 22.1613 104.873 22.7497 106 22.7497C107.127 22.7497 107.848 22.1613 109.291 20.9846C111.917 18.843 115.336 15.5509 116.458 12.1873Z" fill="#E8789D"/>
<path d="M127.484 16.336C127.719 16.336 127.943 16.3307 128.156 16.32C128.37 16.3093 128.54 16.2933 128.668 16.272V14.464C128.572 14.4427 128.428 14.4213 128.236 14.4C128.044 14.3787 127.868 14.368 127.708 14.368C127.484 14.368 127.271 14.384 127.068 14.416C126.876 14.4373 126.706 14.4853 126.556 14.56C126.407 14.6347 126.29 14.736 126.204 14.864C126.119 14.992 126.076 15.152 126.076 15.344C126.076 15.7173 126.199 15.9787 126.444 16.128C126.7 16.2667 127.047 16.336 127.484 16.336ZM127.292 9.36C127.996 9.36 128.583 9.44 129.052 9.6C129.522 9.76 129.895 9.98933 130.172 10.288C130.46 10.5867 130.663 10.9493 130.78 11.376C130.898 11.8027 130.956 12.2773 130.956 12.8V17.76C130.615 17.8347 130.14 17.92 129.532 18.016C128.924 18.1227 128.188 18.176 127.324 18.176C126.78 18.176 126.284 18.128 125.836 18.032C125.399 17.936 125.02 17.7813 124.7 17.568C124.38 17.344 124.135 17.056 123.964 16.704C123.794 16.352 123.708 15.92 123.708 15.408C123.708 14.9173 123.804 14.5013 123.996 14.16C124.199 13.8187 124.466 13.5467 124.796 13.344C125.127 13.1413 125.506 12.9973 125.932 12.912C126.359 12.816 126.802 12.768 127.26 12.768C127.57 12.768 127.842 12.784 128.076 12.816C128.322 12.8373 128.519 12.8693 128.668 12.912V12.688C128.668 12.2827 128.546 11.9573 128.3 11.712C128.055 11.4667 127.628 11.344 127.02 11.344C126.615 11.344 126.215 11.376 125.82 11.44C125.426 11.4933 125.084 11.5733 124.796 11.68L124.492 9.76C124.631 9.71733 124.802 9.67467 125.004 9.632C125.218 9.57867 125.447 9.536 125.692 9.504C125.938 9.46133 126.194 9.42933 126.46 9.408C126.738 9.376 127.015 9.36 127.292 9.36ZM133.112 9.872C133.518 9.75467 134.04 9.648 134.68 9.552C135.32 9.44533 135.992 9.392 136.696 9.392C137.411 9.392 138.003 9.488 138.472 9.68C138.952 9.86133 139.331 10.1227 139.608 10.464C139.886 10.8053 140.083 11.2107 140.2 11.68C140.318 12.1493 140.376 12.672 140.376 13.248V18H137.992V13.536C137.992 12.768 137.891 12.224 137.688 11.904C137.486 11.584 137.107 11.424 136.552 11.424C136.382 11.424 136.2 11.4347 136.008 11.456C135.816 11.4667 135.646 11.4827 135.496 11.504V18H133.112V9.872ZM144.566 13.728C144.566 14.464 144.731 15.056 145.062 15.504C145.393 15.952 145.883 16.176 146.534 16.176C146.747 16.176 146.945 16.1707 147.126 16.16C147.307 16.1387 147.457 16.1173 147.574 16.096V11.76C147.425 11.664 147.227 11.584 146.982 11.52C146.747 11.456 146.507 11.424 146.262 11.424C145.131 11.424 144.566 12.192 144.566 13.728ZM149.958 17.728C149.745 17.792 149.499 17.856 149.222 17.92C148.945 17.9733 148.651 18.0213 148.342 18.064C148.043 18.1067 147.734 18.1387 147.414 18.16C147.105 18.192 146.806 18.208 146.518 18.208C145.825 18.208 145.206 18.1067 144.662 17.904C144.118 17.7013 143.659 17.4133 143.286 17.04C142.913 16.656 142.625 16.1973 142.422 15.664C142.23 15.12 142.134 14.512 142.134 13.84C142.134 13.1573 142.219 12.544 142.39 12C142.561 11.4453 142.806 10.976 143.126 10.592C143.446 10.208 143.835 9.91467 144.294 9.712C144.763 9.50933 145.297 9.408 145.894 9.408C146.225 9.408 146.518 9.44 146.774 9.504C147.041 9.568 147.307 9.65867 147.574 9.776V5.968L149.958 5.584V17.728ZM161.426 13.856C161.426 13.12 161.261 12.5333 160.93 12.096C160.599 11.648 160.109 11.424 159.458 11.424C159.245 11.424 159.047 11.4347 158.866 11.456C158.685 11.4667 158.535 11.4827 158.418 11.504V15.808C158.567 15.904 158.759 15.984 158.994 16.048C159.239 16.112 159.485 16.144 159.73 16.144C160.861 16.144 161.426 15.3813 161.426 13.856ZM163.858 13.792C163.858 14.4427 163.778 15.0347 163.618 15.568C163.458 16.1013 163.223 16.56 162.914 16.944C162.605 17.328 162.221 17.6267 161.762 17.84C161.303 18.0533 160.775 18.16 160.178 18.16C159.847 18.16 159.538 18.128 159.25 18.064C158.962 18 158.685 17.9093 158.418 17.792V20.96H156.034V9.872C156.247 9.808 156.493 9.74933 156.77 9.696C157.047 9.632 157.335 9.57867 157.634 9.536C157.943 9.49333 158.253 9.46133 158.562 9.44C158.882 9.408 159.186 9.392 159.474 9.392C160.167 9.392 160.786 9.49867 161.33 9.712C161.874 9.91467 162.333 10.208 162.706 10.592C163.079 10.9653 163.362 11.424 163.554 11.968C163.757 12.512 163.858 13.12 163.858 13.792ZM168.906 16.336C169.141 16.336 169.365 16.3307 169.578 16.32C169.792 16.3093 169.962 16.2933 170.09 16.272V14.464C169.994 14.4427 169.85 14.4213 169.658 14.4C169.466 14.3787 169.29 14.368 169.13 14.368C168.906 14.368 168.693 14.384 168.49 14.416C168.298 14.4373 168.128 14.4853 167.978 14.56C167.829 14.6347 167.712 14.736 167.626 14.864C167.541 14.992 167.498 15.152 167.498 15.344C167.498 15.7173 167.621 15.9787 167.866 16.128C168.122 16.2667 168.469 16.336 168.906 16.336ZM168.714 9.36C169.418 9.36 170.005 9.44 170.474 9.6C170.944 9.76 171.317 9.98933 171.594 10.288C171.882 10.5867 172.085 10.9493 172.202 11.376C172.32 11.8027 172.378 12.2773 172.378 12.8V17.76C172.037 17.8347 171.562 17.92 170.954 18.016C170.346 18.1227 169.61 18.176 168.746 18.176C168.202 18.176 167.706 18.128 167.258 18.032C166.821 17.936 166.442 17.7813 166.122 17.568C165.802 17.344 165.557 17.056 165.386 16.704C165.216 16.352 165.13 15.92 165.13 15.408C165.13 14.9173 165.226 14.5013 165.418 14.16C165.621 13.8187 165.888 13.5467 166.218 13.344C166.549 13.1413 166.928 12.9973 167.354 12.912C167.781 12.816 168.224 12.768 168.682 12.768C168.992 12.768 169.264 12.784 169.498 12.816C169.744 12.8373 169.941 12.8693 170.09 12.912V12.688C170.09 12.2827 169.968 11.9573 169.722 11.712C169.477 11.4667 169.05 11.344 168.442 11.344C168.037 11.344 167.637 11.376 167.242 11.44C166.848 11.4933 166.506 11.5733 166.218 11.68L165.914 9.76C166.053 9.71733 166.224 9.67467 166.426 9.632C166.64 9.57867 166.869 9.536 167.114 9.504C167.36 9.46133 167.616 9.42933 167.882 9.408C168.16 9.376 168.437 9.36 168.714 9.36ZM174.454 7.488L176.838 7.104V9.584H179.702V11.568H176.838V14.528C176.838 15.0293 176.923 15.4293 177.094 15.728C177.275 16.0267 177.633 16.176 178.166 16.176C178.422 16.176 178.683 16.1547 178.95 16.112C179.227 16.0587 179.478 15.9893 179.702 15.904L180.038 17.76C179.75 17.8773 179.43 17.9787 179.078 18.064C178.726 18.1493 178.294 18.192 177.782 18.192C177.131 18.192 176.593 18.1067 176.166 17.936C175.739 17.7547 175.398 17.5093 175.142 17.2C174.886 16.88 174.705 16.496 174.598 16.048C174.502 15.6 174.454 15.104 174.454 14.56V7.488ZM184.027 18H181.643V9.584H184.027V18ZM184.251 7.152C184.251 7.58933 184.107 7.936 183.819 8.192C183.542 8.43733 183.211 8.56 182.827 8.56C182.443 8.56 182.107 8.43733 181.819 8.192C181.542 7.936 181.403 7.58933 181.403 7.152C181.403 6.71467 181.542 6.37333 181.819 6.128C182.107 5.872 182.443 5.744 182.827 5.744C183.211 5.744 183.542 5.872 183.819 6.128C184.107 6.37333 184.251 6.71467 184.251 7.152ZM185.868 13.856C185.868 13.1093 185.98 12.4587 186.204 11.904C186.439 11.3387 186.743 10.8693 187.116 10.496C187.49 10.1227 187.916 9.84 188.396 9.648C188.887 9.456 189.388 9.36 189.9 9.36C191.095 9.36 192.039 9.728 192.732 10.464C193.426 11.1893 193.772 12.2613 193.772 13.68C193.772 13.8187 193.767 13.9733 193.756 14.144C193.746 14.304 193.735 14.448 193.724 14.576H188.316C188.37 15.0667 188.599 15.456 189.004 15.744C189.41 16.032 189.954 16.176 190.636 16.176C191.074 16.176 191.5 16.1387 191.916 16.064C192.343 15.9787 192.69 15.8773 192.956 15.76L193.276 17.696C193.148 17.76 192.978 17.824 192.764 17.888C192.551 17.952 192.311 18.0053 192.044 18.048C191.788 18.1013 191.511 18.144 191.212 18.176C190.914 18.208 190.615 18.224 190.316 18.224C189.559 18.224 188.898 18.112 188.332 17.888C187.778 17.664 187.314 17.36 186.94 16.976C186.578 16.5813 186.306 16.1173 186.124 15.584C185.954 15.0507 185.868 14.4747 185.868 13.856ZM191.468 12.944C191.458 12.7413 191.42 12.544 191.356 12.352C191.303 12.16 191.212 11.9893 191.084 11.84C190.967 11.6907 190.812 11.568 190.62 11.472C190.439 11.376 190.21 11.328 189.932 11.328C189.666 11.328 189.436 11.376 189.244 11.472C189.052 11.5573 188.892 11.6747 188.764 11.824C188.636 11.9733 188.535 12.1493 188.46 12.352C188.396 12.544 188.348 12.7413 188.316 12.944H191.468ZM195.612 9.872C196.018 9.75467 196.54 9.648 197.18 9.552C197.82 9.44533 198.492 9.392 199.196 9.392C199.911 9.392 200.503 9.488 200.972 9.68C201.452 9.86133 201.831 10.1227 202.108 10.464C202.386 10.8053 202.583 11.2107 202.7 11.68C202.818 12.1493 202.876 12.672 202.876 13.248V18H200.492V13.536C200.492 12.768 200.391 12.224 200.188 11.904C199.986 11.584 199.607 11.424 199.052 11.424C198.882 11.424 198.7 11.4347 198.508 11.456C198.316 11.4667 198.146 11.4827 197.996 11.504V18H195.612V9.872ZM204.634 13.792C204.634 13.184 204.73 12.6133 204.922 12.08C205.125 11.536 205.413 11.0667 205.786 10.672C206.159 10.2667 206.613 9.94667 207.146 9.712C207.679 9.47733 208.287 9.36 208.97 9.36C209.418 9.36 209.829 9.40267 210.202 9.488C210.575 9.56267 210.938 9.67467 211.29 9.824L210.794 11.728C210.57 11.6427 210.325 11.568 210.058 11.504C209.791 11.44 209.493 11.408 209.162 11.408C208.458 11.408 207.93 11.6267 207.578 12.064C207.237 12.5013 207.066 13.0773 207.066 13.792C207.066 14.5493 207.226 15.136 207.546 15.552C207.877 15.968 208.447 16.176 209.258 16.176C209.546 16.176 209.855 16.1493 210.186 16.096C210.517 16.0427 210.821 15.9573 211.098 15.84L211.434 17.792C211.157 17.9093 210.81 18.0107 210.394 18.096C209.978 18.1813 209.519 18.224 209.018 18.224C208.25 18.224 207.589 18.112 207.034 17.888C206.479 17.6533 206.021 17.3387 205.658 16.944C205.306 16.5493 205.045 16.0853 204.874 15.552C204.714 15.008 204.634 14.4213 204.634 13.792ZM212.228 13.856C212.228 13.1093 212.34 12.4587 212.564 11.904C212.798 11.3387 213.102 10.8693 213.476 10.496C213.849 10.1227 214.276 9.84 214.756 9.648C215.246 9.456 215.748 9.36 216.26 9.36C217.454 9.36 218.398 9.728 219.092 10.464C219.785 11.1893 220.132 12.2613 220.132 13.68C220.132 13.8187 220.126 13.9733 220.116 14.144C220.105 14.304 220.094 14.448 220.084 14.576H214.676C214.729 15.0667 214.958 15.456 215.364 15.744C215.769 16.032 216.313 16.176 216.996 16.176C217.433 16.176 217.86 16.1387 218.276 16.064C218.702 15.9787 219.049 15.8773 219.316 15.76L219.636 17.696C219.508 17.76 219.337 17.824 219.124 17.888C218.91 17.952 218.67 18.0053 218.404 18.048C218.148 18.1013 217.87 18.144 217.572 18.176C217.273 18.208 216.974 18.224 216.676 18.224C215.918 18.224 215.257 18.112 214.692 17.888C214.137 17.664 213.673 17.36 213.3 16.976C212.937 16.5813 212.665 16.1173 212.484 15.584C212.313 15.0507 212.228 14.4747 212.228 13.856ZM217.828 12.944C217.817 12.7413 217.78 12.544 217.716 12.352C217.662 12.16 217.572 11.9893 217.444 11.84C217.326 11.6907 217.172 11.568 216.98 11.472C216.798 11.376 216.569 11.328 216.292 11.328C216.025 11.328 215.796 11.376 215.604 11.472C215.412 11.5573 215.252 11.6747 215.124 11.824C214.996 11.9733 214.894 12.1493 214.82 12.352C214.756 12.544 214.708 12.7413 214.676 12.944H217.828Z" fill="#CED3D9"/>
</svg>
