<svg width="279" height="186" viewBox="0 0 279 186" fill="none" xmlns="http://www.w3.org/2000/svg">
<g opacity="0.35" clip-path="url(#clip0_162_663)">
<path fill-rule="evenodd" clip-rule="evenodd" d="M179.639 151.507H94.0548C88.9789 151.507 84.8643 146.945 84.8643 141.317C84.8643 135.689 88.9789 131.126 94.0548 131.126H126.322C129.944 131.126 132.882 127.871 132.883 123.854L132.884 123.511C132.885 119.677 130.083 116.568 126.626 116.568H126.345C117.227 116.568 109.874 108.332 109.997 98.2244C110.013 96.8623 110.013 95.5011 109.998 94.1383C109.88 84.0351 117.231 75.8049 126.316 75.8049H166.037C170.1 75.8049 173.394 72.1531 173.394 67.6485C173.394 60.6667 178.498 55.0076 184.794 55.0076H193.505C199.801 55.0076 204.905 60.6667 204.905 67.6485V90.6635C204.905 97.1599 209.654 102.426 215.513 102.426H220.66C228.74 102.426 235.29 109.689 235.29 118.648C235.29 127.607 228.74 134.87 220.66 134.87H194.032C190.32 134.87 187.422 138.235 187.528 142.35L187.533 142.572C187.642 147.476 184.063 151.507 179.639 151.507Z" fill="url(#paint0_linear_162_663)"/>
<path fill-rule="evenodd" clip-rule="evenodd" d="M99.3612 50.7504H184.945C190.021 50.7504 194.136 55.3297 194.136 60.9786C194.136 66.6274 190.021 71.2067 184.945 71.2067H152.678C149.055 71.2067 146.118 74.4738 146.117 78.505L146.116 78.8504C146.115 82.6978 148.917 85.8182 152.374 85.8182H152.655C161.773 85.8182 169.125 94.0844 169.003 104.229C168.987 105.596 168.987 106.963 169.002 108.33C169.12 118.471 161.769 126.731 152.684 126.731H112.962C108.9 126.731 105.606 130.397 105.606 134.918C105.606 141.925 100.502 147.605 94.2062 147.605H85.4949C79.1991 147.605 74.0952 141.925 74.0952 134.918V111.818C74.0952 105.298 69.3457 100.013 63.4873 100.013H58.3398C50.2599 100.013 43.71 92.7229 43.71 83.731C43.71 74.7391 50.2599 67.4495 58.3398 67.4495H84.9676C88.6801 67.4495 91.5774 64.072 91.4723 59.9419L91.467 59.7187C91.3582 54.7962 94.9365 50.7504 99.3612 50.7504Z" fill="url(#paint1_linear_162_663)"/>
<path d="M202.74 100.15C199.189 107.73 189.052 112.516 189.052 112.516C189.052 112.516 184.875 101.018 188.426 93.4383C191.983 85.8588 198.063 81.2157 202.016 83.0719C205.97 84.9223 206.292 92.5706 202.74 100.15ZM180.846 109.103C184.806 116.476 182.593 127.463 182.593 127.463C182.593 127.463 170.876 123.958 166.917 116.579C162.958 109.201 162.866 101.552 166.716 99.4892C170.56 97.4265 176.887 101.731 180.846 109.103ZM176.536 151.655C176.416 153.103 176.255 154.098 176.215 154.35C176.209 154.379 176.209 154.402 176.203 154.413V154.419C176.203 154.419 176.198 154.419 176.198 154.413L176.157 154.408C176.031 154.368 175.652 154.253 175.083 154.063C172.043 153.034 163.653 149.753 160.326 143.829C156.229 136.531 155.999 128.877 159.803 126.744C163.607 124.607 170.014 128.79 174.112 136.088C175.945 139.358 176.559 143.369 176.669 146.811C176.732 148.661 176.651 150.345 176.536 151.655ZM200.85 130.118C192.747 132.215 182.594 127.469 182.594 127.469C182.594 127.469 188.782 116.912 196.885 114.815C204.987 112.718 212.44 114.441 213.538 118.665C214.635 122.895 208.952 128.02 200.85 130.118Z" fill="#80BB9C"/>
<path d="M193.707 154.793C185.869 157.723 175.278 154.057 175.278 154.057C175.278 154.057 180.335 142.915 188.173 139.984C196.011 137.053 203.608 137.99 205.137 142.082C206.665 146.173 201.551 151.862 193.707 154.793Z" fill="#80BB9C"/>
<path d="M191.322 109.62C191.253 109.724 185.19 119.889 178.766 148.15C178.294 150.219 177.823 152.391 177.352 154.655L177.214 154.626L176.203 154.413V154.408H176.197L176.157 154.402C176.03 154.362 175.651 154.247 175.082 154.057C175.585 151.634 176.113 149.217 176.668 146.805C183.104 118.734 189.058 108.827 189.322 108.385L191.322 109.62ZM71.4294 42.5366C74.9807 50.1161 85.1174 54.9029 85.1174 54.9029C85.1174 54.9029 89.295 43.4043 85.7436 35.8248C82.1867 28.2453 76.107 23.6025 72.1535 25.4584C68.2001 27.3088 67.8783 34.9571 71.4294 42.5366ZM78.9658 128.794C85.831 133.583 97.0031 132.66 97.0031 132.66C97.0031 132.66 94.8716 120.613 88.0066 115.825C81.1364 111.039 73.5498 110.058 71.054 113.642C68.555 117.221 72.1008 124.006 78.9658 128.794ZM104.84 158.051C113.846 156.446 121.767 147.098 121.767 147.098C121.767 147.098 110.81 139.436 101.803 141.04C92.7955 142.651 86.1739 147.757 87.0149 152.456C87.8501 157.153 95.8338 159.656 104.84 158.051ZM93.3241 51.4894C89.3647 58.8622 91.5769 69.8492 91.5769 69.8492C91.5769 69.8492 103.294 66.3437 107.253 58.9654C111.212 51.5871 111.304 43.9388 107.454 41.8757C103.61 39.813 97.2831 44.117 93.3241 51.4894ZM97.6334 94.0413C97.754 95.4893 97.9148 96.4835 97.9551 96.7364C97.961 96.7653 97.961 96.7882 97.9666 96.7997V96.8052C97.9666 96.8052 97.9725 96.8052 97.9725 96.7997L98.0128 96.7938C98.139 96.7538 98.5184 96.6388 99.0873 96.4491C102.127 95.4205 110.517 92.1394 113.844 86.2147C117.941 78.917 118.171 71.2628 114.367 69.1309C110.563 66.9932 104.155 71.1766 100.058 78.4743C98.2252 81.7442 97.6104 85.755 97.5013 89.1972C97.4381 91.0476 97.5184 92.7312 97.6334 94.0413ZM73.3207 72.504C81.4231 74.6015 91.5769 69.8548 91.5769 69.8548C91.5769 69.8548 85.388 59.2987 77.2856 57.2015C69.1834 55.104 61.7304 56.828 60.6327 61.0514C59.5353 65.2807 65.2182 70.4066 73.3207 72.504Z" fill="#80BB9C"/>
<path d="M80.4634 97.1788C88.3014 100.11 98.8919 96.4435 98.8919 96.4435C98.8919 96.4435 93.8352 85.3012 85.9972 82.3704C78.1592 79.44 70.5623 80.3765 69.0337 84.4679C67.5054 88.5593 72.6195 94.2484 80.4634 97.1788Z" fill="#80BB9C"/>
<path d="M82.8486 52.0065C82.9175 52.1101 88.9801 62.2753 95.4046 90.5361C95.8758 92.6048 96.347 94.7769 96.8182 97.0409L96.9561 97.0123L97.9673 96.7997V96.7938H97.9732L98.0132 96.7882C98.1397 96.7479 98.5191 96.6329 99.088 96.4435C98.5856 94.0204 98.0569 91.6029 97.502 89.1913C91.0658 61.1205 85.1126 51.2136 84.8484 50.7712L82.8486 52.0065ZM199.603 38.7227C195.706 47.0419 184.58 52.2955 184.58 52.2955C184.58 52.2955 179.995 39.675 183.893 31.3562C187.797 23.0373 194.469 17.9413 198.809 19.9786C203.148 22.0091 203.501 30.4039 199.603 38.7227ZM175.573 48.5491C179.919 56.641 177.491 68.7 177.491 68.7C177.491 68.7 164.631 64.8526 160.285 56.7545C155.94 48.6564 155.839 40.2619 160.064 37.9976C164.284 35.7334 171.228 40.4572 175.573 48.5491ZM170.843 95.2525C170.711 96.8418 170.534 97.933 170.49 98.2105C170.484 98.2418 170.484 98.2672 170.478 98.2799V98.2861C170.478 98.2861 170.471 98.2861 170.471 98.2799L170.427 98.2734C170.288 98.2294 169.872 98.1032 169.248 97.8952C165.911 96.7662 156.703 93.1649 153.051 86.6624C148.554 78.6523 148.302 70.2516 152.477 67.9117C156.653 65.5653 163.685 70.157 168.182 78.1668C170.194 81.7554 170.868 86.1577 170.988 89.9357C171.047 91.7092 170.998 93.4847 170.843 95.2525ZM197.528 71.6137C188.635 73.9158 177.49 68.7062 177.49 68.7062C177.49 68.7062 184.283 57.1203 193.176 54.8182C202.069 52.5162 210.249 54.4084 211.453 59.0438C212.658 63.6858 206.421 69.3117 197.528 71.6137Z" fill="#80BB9C"/>
<path d="M189.688 98.6959C181.085 101.913 169.461 97.8887 169.461 97.8887C169.461 97.8887 175.011 85.6595 183.614 82.443C192.217 79.2264 200.555 80.2544 202.232 84.745C203.91 89.2357 198.297 95.4794 189.688 98.6959Z" fill="#80BB9C"/>
<path d="M187.071 49.1167C186.995 49.2302 180.341 60.3874 173.29 91.4051C172.751 93.7801 172.233 96.16 171.738 98.5447L171.587 98.513L170.477 98.2799V98.2734H170.471L170.427 98.2672C170.288 98.2229 169.871 98.097 169.247 97.8887C169.798 95.2294 170.379 92.5761 170.988 89.9294C178.052 59.1198 184.586 48.2465 184.876 47.7608L187.071 49.1167Z" fill="#80BB9C"/>
<path d="M139.5 157.539C171.634 157.539 197.684 131.489 197.684 99.355C197.684 67.2211 171.634 41.1714 139.5 41.1714C107.366 41.1714 81.3164 67.2211 81.3164 99.355C81.3164 131.489 107.366 157.539 139.5 157.539Z" fill="#666AF6"/>
<path d="M139.5 111.772V102C146.75 102 152.627 96.166 152.627 88.9697C152.627 81.7734 146.75 75.9398 139.5 75.9398C132.25 75.9398 126.373 81.7734 126.373 88.9697M139.5 127.932C139.324 127.932 139.181 128.083 139.181 128.269C139.181 128.456 139.324 128.606 139.5 128.606C139.676 128.606 139.819 128.456 139.819 128.269C139.819 128.083 139.676 127.932 139.5 127.932Z" stroke="white" stroke-width="6.03" stroke-linecap="round" stroke-linejoin="round"/>
<path d="M78.5181 157.454C80.3035 155.737 83.089 155.737 84.7399 157.454C86.3907 159.171 86.2817 161.954 84.4963 163.671C82.711 165.388 79.9254 165.388 78.2746 163.671C76.6237 161.954 76.7328 159.171 78.5181 157.454Z" fill="#666AF6"/>
<path d="M219.537 77.2295C217.06 77.181 215.091 75.2114 215.137 72.8301C215.184 70.4489 217.229 68.5578 219.706 68.6063C222.182 68.6547 224.152 70.6244 224.105 73.0056C224.058 75.3868 222.013 77.2779 219.537 77.2295Z" fill="#666AF6"/>
<path d="M62.764 128.363C61.8713 129.221 61.8435 130.641 62.702 131.534C63.5605 132.426 64.9801 132.454 65.8728 131.596C66.7656 130.737 66.7933 129.318 65.9349 128.425C65.0764 127.532 63.6568 127.504 62.764 128.363Z" fill="#80BB9C"/>
<path d="M219.428 113.76C220.666 113.785 221.69 112.8 221.714 111.562C221.738 110.324 220.754 109.3 219.516 109.276C218.277 109.252 217.254 110.236 217.23 111.474C217.205 112.713 218.19 113.736 219.428 113.76Z" fill="#80BB9C"/>
<path d="M54.6388 76.9402C58.1272 75.0161 62.5149 76.2843 64.4389 79.7727C66.363 83.2611 65.0948 87.6488 61.6064 89.5728C58.118 91.4969 53.7303 90.2287 51.8063 86.7403C49.8822 83.2519 51.1504 78.8642 54.6388 76.9402Z" fill="#666AF6"/>
<path d="M186.874 162.758C183.047 161.651 180.841 157.652 181.947 153.825C183.053 149.998 187.053 147.792 190.88 148.898C194.707 150.004 196.913 154.004 195.807 157.831C194.7 161.658 190.701 163.864 186.874 162.758Z" fill="#666AF6"/>
</g>
<defs>
<linearGradient id="paint0_linear_162_663" x1="156.87" y1="0.904582" x2="158.778" y2="256.503" gradientUnits="userSpaceOnUse">
<stop stop-color="white"/>
<stop offset="1" stop-color="#EEEEEE"/>
</linearGradient>
<linearGradient id="paint1_linear_162_663" x1="122.13" y1="201.907" x2="120.207" y2="-54.631" gradientUnits="userSpaceOnUse">
<stop stop-color="white"/>
<stop offset="1" stop-color="#EEEEEE"/>
</linearGradient>
<clipPath id="clip0_162_663">
<rect width="279" height="186" fill="white"/>
</clipPath>
</defs>
</svg>
