<svg width="84" height="110" viewBox="0 0 84 110" fill="none" xmlns="http://www.w3.org/2000/svg">
<path fill-rule="evenodd" clip-rule="evenodd" d="M67.8802 46.8151C67.8802 58.2326 60.3866 69.8725 51.1297 72.7983C41.8725 75.7242 34.3789 68.8547 34.3789 57.4374C34.3789 46.0201 41.8725 34.3802 51.1297 31.4544C60.3866 28.5285 67.8802 35.3979 67.8802 46.8151Z" stroke="#B8144B" stroke-width="4" stroke-linecap="round" stroke-linejoin="round"/>
<path fill-rule="evenodd" clip-rule="evenodd" d="M49.4317 107.792C49.4317 107.792 81.6444 72.3473 81.6444 41.9117C81.6444 19.9517 67.2165 6.73741 49.4317 12.3825C31.6468 18.0276 17.2188 40.401 17.2188 62.361C17.2188 84.3212 49.4317 107.792 49.4317 107.792ZM51.127 72.7925C60.384 69.8667 67.8778 58.2266 67.8778 46.8093C67.8778 35.392 60.384 28.5225 51.127 31.4485C41.8701 34.3744 34.3763 46.0143 34.3763 57.4316C34.3763 68.8488 41.8701 75.7184 51.127 72.7925Z" fill="#FAD1DF" stroke="#B8144B" stroke-width="4" stroke-linecap="round" stroke-linejoin="round"/>
<path fill-rule="evenodd" clip-rule="evenodd" d="M69.311 13.3906L52.7039 4.59281C47.5668 1.93724 41.3616 1.39666 34.6817 3.51165C16.8968 9.15659 2.46875 29.9399 2.46875 51.9001C2.46875 73.8601 36.377 97.3308 36.377 97.3308L51.4322 107.794C51.4322 107.794 19.2195 84.3232 19.2195 62.3632C19.2195 40.4032 33.6474 18.0297 51.4322 12.3846C58.0458 10.2854 64.1951 10.7942 69.311 13.3906Z" fill="#FAD1DF" stroke="#B8144B" stroke-width="4" stroke-linecap="round" stroke-linejoin="round"/>
</svg>
