<svg width="219" height="146" viewBox="0 0 219 146" fill="none" xmlns="http://www.w3.org/2000/svg">
<g opacity="0.35" clip-path="url(#clip0_162_797)">
<path d="M87.1191 134.776L109.743 123.465V106.497M132.367 134.777L109.743 123.465" stroke="#80BB9C" stroke-width="10" stroke-miterlimit="10" stroke-linecap="round" stroke-linejoin="round"/>
<path d="M75.242 101.872H144.188C154.934 101.872 160.59 96.2164 160.59 85.4701V17.0333H58.7832V85.4701C58.8399 96.2164 64.4959 101.872 75.242 101.872Z" fill="#666AF6" stroke="#666AF6" stroke-width="10" stroke-miterlimit="10" stroke-linecap="round" stroke-linejoin="round"/>
<path d="M53.1836 17.0333H166.302" stroke="#666AF6" stroke-width="12" stroke-miterlimit="10" stroke-linecap="round" stroke-linejoin="round"/>
<path d="M86.7598 88.7213V79.6873M109.627 88.7213V70.371M132.494 88.7213V61.0548M132.494 33.9525L130.44 36.362C119.051 49.6592 103.776 59.074 86.7598 63.3131" stroke="white" stroke-width="8" stroke-linecap="round"/>
<path d="M119.508 33.9525H132.494V46.939" stroke="white" stroke-width="8" stroke-linecap="round" stroke-linejoin="round"/>
<path d="M182.198 77.1695C177.568 79.4659 171.424 76.5132 171.424 76.5132C171.424 76.5132 172.789 69.8384 177.421 67.545C182.051 65.2486 188.193 68.1983 188.193 68.1983C188.193 68.1983 186.827 74.8729 182.198 77.1695Z" fill="url(#paint0_linear_162_797)"/>
<path d="M36.4175 80.0014C40.7425 82.5937 46.9475 80.1973 46.9475 80.1973C46.9475 80.1973 46.1363 73.5993 41.8086 71.0103C37.4836 68.418 31.2812 70.8115 31.2812 70.8115C31.2812 70.8115 32.0925 77.4094 36.4175 80.0014Z" fill="url(#paint1_linear_162_797)"/>
<path d="M146.959 121.018C145.218 121.018 143.807 119.607 143.807 117.866C143.807 116.125 145.218 114.714 146.959 114.714C148.7 114.714 150.111 116.125 150.111 117.866C150.111 119.607 148.7 121.018 146.959 121.018Z" fill="#80BB9C"/>
<path d="M46.4446 115.351C43.9297 115.351 41.8911 113.313 41.8911 110.798C41.8911 108.283 43.9297 106.244 46.4446 106.244C48.9594 106.244 50.998 108.283 50.998 110.798C50.998 113.313 48.9594 115.351 46.4446 115.351Z" fill="#80BB9C"/>
<path d="M176.068 105.553C174.154 105.553 172.602 104.001 172.602 102.087C172.602 100.173 174.154 98.6218 176.068 98.6218C177.982 98.6218 179.533 100.173 179.533 102.087C179.533 104.001 177.982 105.553 176.068 105.553Z" fill="#80BB9C"/>
<path d="M176.455 34.0557C174.327 34.0557 172.602 32.3307 172.602 30.2028C172.602 28.0749 174.327 26.3498 176.455 26.3498C178.583 26.3498 180.308 28.0749 180.308 30.2028C180.308 32.3307 178.583 34.0557 176.455 34.0557Z" fill="#80BB9C"/>
<path d="M36.0498 46.0671C36.5444 47.9129 35.4491 49.8101 33.6033 50.3047C31.7575 50.7993 29.8603 49.7039 29.3657 47.8581C28.8711 46.0124 29.9665 44.1152 31.8123 43.6206C33.658 43.126 35.5553 44.2214 36.0498 46.0671Z" fill="#80BB9C"/>
<path d="M47.848 31.7706C47.0527 31.7706 46.408 31.1258 46.408 30.3305C46.408 29.5352 47.0527 28.8905 47.848 28.8905C48.6434 28.8905 49.2881 29.5352 49.2881 30.3305C49.2881 31.1258 48.6434 31.7706 47.848 31.7706Z" fill="#80BB9C"/>
<path d="M71.969 120.943C70.0135 120.943 68.4283 119.675 68.4283 118.111C68.4283 116.546 70.0135 115.278 71.969 115.278C73.9245 115.278 75.5098 116.546 75.5098 118.111C75.5098 119.675 73.9245 120.943 71.969 120.943Z" fill="#80BB9C"/>
</g>
<defs>
<linearGradient id="paint0_linear_162_797" x1="164.42" y1="84.3328" x2="202.604" y2="54.1293" gradientUnits="userSpaceOnUse">
<stop stop-color="white"/>
<stop offset="1" stop-color="#80BB9C"/>
</linearGradient>
<linearGradient id="paint1_linear_162_797" x1="53.154" y1="88.3453" x2="18.3537" y2="56.0112" gradientUnits="userSpaceOnUse">
<stop stop-color="white"/>
<stop offset="1" stop-color="#80BB9C"/>
</linearGradient>
<clipPath id="clip0_162_797">
<rect width="219" height="146" fill="white"/>
</clipPath>
</defs>
</svg>
