<svg width="233" height="155" viewBox="0 0 233 155" fill="none" xmlns="http://www.w3.org/2000/svg">
<g clip-path="url(#clip0_363_98)">
<path d="M187.941 79.4816C182.499 82.1752 175.276 78.7118 175.276 78.7118C175.276 78.7118 176.882 70.8825 182.326 68.1927C187.768 65.4991 194.988 68.9587 194.988 68.9587C194.988 68.9587 193.383 76.788 187.941 79.4816Z" fill="url(#paint0_linear_363_98)"/>
<path d="M45.2868 102.732C51.0885 106.201 59.4126 102.994 59.4126 102.994C59.4126 102.994 58.3242 94.1618 52.5186 90.6958C46.7169 87.2261 38.3965 90.4297 38.3965 90.4297C38.3965 90.4297 39.4849 99.2618 45.2868 102.732Z" fill="url(#paint1_linear_363_98)"/>
<path d="M175.65 60.7084C174.009 60.7084 172.679 62.0358 172.679 63.6733C172.679 65.3108 174.009 66.6382 175.65 66.6382C177.291 66.6382 178.621 65.3108 178.621 63.6733C178.621 62.0358 177.291 60.7084 175.65 60.7084Z" fill="#666AF6"/>
<path d="M90.8743 64.2116C89.5235 64.2116 88.4283 65.3043 88.4283 66.6523C88.4283 68.0003 89.5235 69.093 90.8743 69.093C92.2252 69.093 93.3203 68.0003 93.3203 66.6523C93.3203 65.3043 92.2252 64.2116 90.8743 64.2116Z" fill="#666AF6"/>
<path d="M84.2683 120.642C83.1959 120.642 82.3266 119.774 82.3266 118.704C82.3266 117.634 83.1959 116.767 84.2683 116.767C85.3406 116.767 86.21 117.634 86.21 118.704C86.21 119.774 85.3406 120.642 84.2683 120.642Z" fill="#666AF6"/>
<path d="M169.319 71.5693C168.601 71.5693 168.019 70.9886 168.019 70.2722C168.019 69.5558 168.601 68.9751 169.319 68.9751C170.037 68.9751 170.619 69.5558 170.619 70.2722C170.619 70.9886 170.037 71.5693 169.319 71.5693Z" fill="#666AF6"/>
<path d="M175.026 123.635C174.103 123.635 173.354 122.888 173.354 121.967C173.354 121.046 174.103 120.3 175.026 120.3C175.949 120.3 176.697 121.046 176.697 121.967C176.697 122.888 175.949 123.635 175.026 123.635Z" fill="#E1E4E5"/>
<path d="M65.0654 114.093C63.7321 114.093 62.6512 113.014 62.6512 111.684C62.6512 110.353 63.7321 109.275 65.0654 109.275C66.3986 109.275 67.4795 110.353 67.4795 111.684C67.4795 113.014 66.3986 114.093 65.0654 114.093Z" fill="#E1E4E5"/>
<path d="M184.095 109.584C183.081 109.584 182.258 108.763 182.258 107.75C182.258 106.738 183.081 105.917 184.095 105.917C185.11 105.917 185.933 106.738 185.933 107.75C185.933 108.763 185.11 109.584 184.095 109.584Z" fill="#E1E4E5"/>
<path d="M164.038 50.8365C162.91 50.8365 161.995 49.9239 161.995 48.798C161.995 47.6722 162.91 46.7595 164.038 46.7595C165.166 46.7595 166.081 47.6722 166.081 48.798C166.081 49.9239 165.166 50.8365 164.038 50.8365Z" fill="#E1E4E5"/>
<path d="M49.3244 71.0015C49.5866 71.9781 49.0059 72.9818 48.0272 73.2435C47.0486 73.5051 46.0427 72.9256 45.7805 71.9491C45.5182 70.9725 46.099 69.9688 47.0776 69.7071C48.0563 69.4455 49.0622 70.025 49.3244 71.0015Z" fill="#E1E4E5"/>
<path d="M99.8498 38.539C98.502 38.539 97.4095 37.4488 97.4095 36.104C97.4095 34.7592 98.502 33.6689 99.8498 33.6689C101.197 33.6689 102.29 34.7592 102.29 36.104C102.29 37.4488 101.197 38.539 99.8498 38.539Z" fill="#E1E4E5"/>
<path d="M178.698 94.7054C177.661 94.7054 176.821 94.0345 176.821 93.2068C176.821 92.3792 177.661 91.7083 178.698 91.7083C179.735 91.7083 180.575 92.3792 180.575 93.2068C180.575 94.0345 179.735 94.7054 178.698 94.7054Z" fill="#E1E4E5"/>
<path d="M145.13 31.9778C145.676 34.0102 144.467 36.0991 142.431 36.6437C140.394 37.1882 138.3 35.9822 137.755 33.9499C137.209 31.9175 138.418 29.8286 140.454 29.284C142.491 28.7395 144.584 29.9455 145.13 31.9778Z" fill="#E1E4E5"/>
<path d="M60.7998 59.313H60.8265C60.9849 61.5517 62.6535 61.5863 62.6535 61.5863C62.6535 61.5863 60.8136 61.6222 60.8136 64.2092C60.8136 61.6222 58.9736 61.5863 58.9736 61.5863C58.9736 61.5863 60.6414 61.5517 60.7998 59.313ZM70.8766 122.708H70.9022C71.0542 124.941 72.6562 124.975 72.6562 124.975C72.6562 124.975 70.8898 125.011 70.8898 127.59C70.8898 125.011 69.1231 124.975 69.1231 124.975C69.1231 124.975 70.7246 124.941 70.8766 122.708Z" fill="#E1E4E5"/>
<path d="M111.66 23.5083H166.633C172.819 23.5083 177.856 30.4257 177.856 38.9192V48.989C177.856 53.367 175.242 56.957 172.053 56.957H125.18C121.991 56.957 119.377 53.367 119.377 48.989V38.0437C119.377 33.9282 118.293 29.8129 116.252 26.7481C115.04 24.9092 113.51 23.5083 111.66 23.5083Z" fill="url(#paint2_linear_363_98)"/>
<path fill-rule="evenodd" clip-rule="evenodd" d="M90.0003 23.5083H166.026C163.468 23.5083 161.351 24.9092 159.676 26.7481C156.853 29.8127 155.354 33.9282 155.354 38.0437V48.989C155.354 49.2298 155.343 49.4682 155.322 49.7038V109.52H74.4775V38.9192C74.4775 30.4257 81.445 23.5083 90.0003 23.5083Z" fill="#E1E4E5"/>
<path d="M92 77H140M92.2542 64.4235H140M92.2542 54H140" stroke="white" stroke-width="16.871" stroke-linecap="round" stroke-linejoin="round"/>
<path d="M111.484 131.426H166.457C172.643 131.426 177.681 124.509 177.681 116.015V105.946C177.681 101.568 175.066 97.9775 171.877 97.9775H125.004C121.816 97.9775 119.201 101.568 119.201 105.946V116.891C119.201 121.006 118.117 125.122 116.076 128.187C114.864 130.025 113.334 131.426 111.484 131.426Z" fill="url(#paint3_linear_363_98)"/>
<path fill-rule="evenodd" clip-rule="evenodd" d="M89.8235 131.426H165.849C163.292 131.426 161.175 130.025 159.499 128.187C156.677 125.122 155.177 121.006 155.177 116.891V105.946C155.177 105.705 155.166 105.466 155.145 105.231V45.415H74.3008V116.015C74.3008 124.509 81.2685 131.426 89.8235 131.426Z" fill="#E1E4E5"/>
<path d="M91.666 87.8572H140.014M91.666 47.8401H140.014M91.9218 102.042H140.014M91.9218 62.0247H140.014M91.9218 113.615H140.014M91.9218 73.598H140.014" stroke="white" stroke-width="6" stroke-linecap="round" stroke-linejoin="round"/>
<path fill-rule="evenodd" clip-rule="evenodd" d="M75.6297 43.5033L78.8992 41.9078C80.4077 41.1721 82.2319 41.7616 83.0189 43.2444L84.7257 46.4529C84.9484 46.8706 85.2636 47.2322 85.6472 47.5102C86.0309 47.7882 86.473 47.9752 86.94 48.0572L90.5254 48.6849C92.1805 48.9753 93.3056 50.5212 93.071 52.1817L92.5615 55.7772C92.495 56.2457 92.5366 56.7231 92.6832 57.1731C92.8297 57.6231 93.0773 58.0337 93.4071 58.3737L95.9372 60.9837C97.105 62.1875 97.105 64.1002 95.9372 65.3061L93.4071 67.916C93.0773 68.2561 92.8297 68.6668 92.6832 69.1168C92.5367 69.5668 92.4951 70.0443 92.5615 70.5128L93.071 74.1083C93.3056 75.7689 92.1805 77.3147 90.5254 77.6048L86.94 78.2326C86.4731 78.3146 86.031 78.5017 85.6473 78.7796C85.2636 79.0576 84.9485 79.4192 84.7257 79.8368L83.0189 83.0453C82.2319 84.5261 80.4101 85.1177 78.8992 84.382L75.6297 82.7867C75.2038 82.5791 74.7361 82.4711 74.2621 82.4711C73.7881 82.4711 73.3204 82.5791 72.8945 82.7867L69.6248 84.382C68.1162 85.1177 66.2921 84.5282 65.5051 83.0453L63.7982 79.8348C63.5755 79.4171 63.2604 79.0555 62.8767 78.7775C62.493 78.4994 62.0509 78.3123 61.5839 78.2303L57.9986 77.6025C56.3435 77.3124 55.2184 75.7665 55.4529 74.106L55.9624 70.5105C56.0289 70.042 55.9873 69.5646 55.8408 69.1146C55.6943 68.6646 55.4467 68.254 55.1169 67.914L52.587 65.3038C51.4189 64.1002 51.4189 62.1875 52.587 60.9816L55.1169 58.3714C55.4467 58.0314 55.6943 57.6208 55.8408 57.1708C55.9873 56.7208 56.0289 56.2434 55.9624 55.7749L55.4552 52.1794C55.2184 50.5212 56.3458 48.973 58.0009 48.6849L61.5863 48.0572C62.0528 47.9749 62.4944 47.7877 62.8777 47.5097C63.2609 47.2317 63.5757 46.8703 63.7982 46.4529L65.5051 43.2444C66.2921 41.7639 68.1141 41.1721 69.6248 41.9078L72.8945 43.5033C73.3204 43.7108 73.7881 43.8187 74.2621 43.8187C74.7361 43.8187 75.2038 43.7108 75.6297 43.5033Z" fill="#666AF6" stroke="#666AF6" stroke-width="7.464" stroke-linecap="round" stroke-linejoin="round"/>
<path d="M74.3097 76.8998C81.8638 76.8998 87.9876 70.7892 87.9876 63.2513C87.9876 55.7134 81.8638 49.6028 74.3097 49.6028C66.7556 49.6028 60.6318 55.7134 60.6318 63.2513C60.6318 70.7892 66.7556 76.8998 74.3097 76.8998Z" fill="white"/>
<path fill-rule="evenodd" clip-rule="evenodd" d="M74.1259 68.0591L77.6445 69.9034C78.3297 70.263 79.1307 69.6828 78.9995 68.9207L78.3279 65.0111L81.1749 62.2446C81.729 61.7052 81.4235 60.7654 80.6579 60.654L76.7244 60.0836L74.966 56.5256C74.6232 55.832 73.6345 55.832 73.2918 56.5256L71.5334 60.0836L67.5978 60.6561C66.8322 60.7674 66.5267 61.7072 67.081 62.2464L69.928 65.0131L69.2562 68.9227C69.1252 69.6846 69.926 70.265 70.6112 69.9054L74.1298 68.0609H74.1259V68.0591Z" fill="#666AF6"/>
<path d="M172.161 93.1293C172.161 82.9281 163.873 74.6584 153.65 74.6584C143.427 74.6584 135.14 82.9281 135.14 93.1293C135.14 103.33 143.427 111.6 153.65 111.6C163.873 111.6 172.161 103.33 172.161 93.1293Z" fill="#666AF6"/>
<path d="M159.734 89.8999L151.644 97.9082L146.79 93.1032" stroke="white" stroke-width="6" stroke-linecap="round" stroke-linejoin="round"/>
</g>
<defs>
<linearGradient id="paint0_linear_363_98" x1="167.044" y1="87.8839" x2="211.854" y2="52.3629" gradientUnits="userSpaceOnUse">
<stop stop-color="white"/>
<stop offset="1" stop-color="#EEEEEE"/>
</linearGradient>
<linearGradient id="paint1_linear_363_98" x1="67.7384" y1="113.901" x2="21.1472" y2="70.5185" gradientUnits="userSpaceOnUse">
<stop stop-color="white"/>
<stop offset="1" stop-color="#EEEEEE"/>
</linearGradient>
<linearGradient id="paint2_linear_363_98" x1="143.347" y1="4.75511" x2="143.868" y2="93.3526" gradientUnits="userSpaceOnUse">
<stop stop-color="white"/>
<stop offset="1" stop-color="#EEEEEE"/>
</linearGradient>
<linearGradient id="paint3_linear_363_98" x1="143.171" y1="150.179" x2="143.693" y2="61.582" gradientUnits="userSpaceOnUse">
<stop stop-color="white"/>
<stop offset="1" stop-color="#EEEEEE"/>
</linearGradient>
<clipPath id="clip0_363_98">
<rect width="233" height="155" fill="white"/>
</clipPath>
</defs>
</svg>
