<svg width="290" height="233" viewBox="0 0 290 233" fill="none" xmlns="http://www.w3.org/2000/svg">
<rect width="290" height="200" fill="white" fill-opacity="0.01"/>
<rect width="290" height="200" rx="10.1818" fill="#E1EAF2"/>
<rect x="26" y="23" width="97.0518" height="9.57821" rx="4.7891" fill="#3B4F68"/>
<rect x="196" y="115" width="63.2307" height="5.47326" rx="2.73663" fill="#6C7B8E"/>
<rect x="32" y="111" width="63.2307" height="5.47326" rx="2.73663" fill="#6C7B8E"/>
<rect x="209" y="82" width="43" height="7" rx="3.5" fill="#1CC2C4"/>
<rect x="196" y="133" width="26.4687" height="4.10495" rx="2.05247" fill="#9DA7B3"/>
<rect x="36" y="51" width="77" height="4" rx="2" fill="#9DA7B3"/>
<rect x="36" y="60" width="77" height="4" rx="2" fill="#9DA7B3"/>
<rect x="36" y="69" width="77" height="4" rx="2" fill="#9DA7B3"/>
<rect x="36" y="78" width="38" height="4" rx="2" fill="#9DA7B3"/>
<rect x="233" y="133" width="26.4687" height="4.10495" rx="2.05247" fill="#9DA7B3"/>
<rect x="90" y="137" width="26" height="2" rx="1" fill="#CED3D9"/>
<rect x="90" y="165" width="16" height="2" rx="1" fill="#CED3D9"/>
<rect x="47" y="181" width="16" height="2" rx="1" fill="#CED3D9"/>
<rect x="69" y="123" width="16" height="2" rx="1" fill="#CED3D9"/>
<rect x="14" y="164" width="22" height="2" rx="1" fill="#CED3D9"/>
<rect x="20" y="137" width="16" height="2" rx="1" fill="#CED3D9"/>
<rect x="220" y="163" width="26.4687" height="4.10495" rx="2.05247" fill="#1CC2C4"/>
<g clip-path="url(#clip0_686_335)">
<g filter="url(#filter0_d_686_335)">
<path d="M255.482 225.495C254.551 225.906 253.62 225.952 252.688 225.632C251.757 225.313 251.071 224.72 250.63 223.853L241.292 205.244L232.616 216.533C231.979 217.354 231.158 217.605 230.153 217.286C229.148 216.966 228.646 216.305 228.646 215.302V176.715C228.646 175.848 229.063 175.233 229.896 174.868C230.729 174.503 231.513 174.571 232.249 175.073L264.82 198.882C265.653 199.52 265.886 200.296 265.518 201.208C265.151 202.12 264.452 202.576 263.423 202.576H248.13L257.247 220.98C257.688 221.847 257.737 222.713 257.394 223.58C257.051 224.446 256.414 225.085 255.482 225.495Z" fill="#1CC2C4"/>
</g>
</g>
<path d="M194.585 81.2187C192.623 81.8569 190.497 80.7847 190.038 78.7725C188.261 70.9715 188.773 62.819 191.513 55.3024C192.22 53.3631 194.464 52.5656 196.332 53.4451C198.197 54.3238 198.976 56.5435 198.308 58.4944C196.33 64.2713 195.94 70.4774 197.179 76.457C197.598 78.4762 196.546 80.5809 194.585 81.2187Z" fill="#1CC2C4"/>
<path d="M196.339 53.417C194.474 52.5369 193.661 50.3016 194.703 48.5225C198.747 41.6209 204.7 36.0331 211.84 32.4357C213.685 31.5064 215.867 32.4635 216.625 34.3846C217.383 36.3041 216.429 38.4564 214.605 39.4209C209.213 42.2716 204.684 46.5223 201.495 51.7244C200.416 53.4843 198.206 54.298 196.339 53.417Z" fill="#1CC2C4"/>
<path d="M216.638 34.3744C215.881 32.4546 216.82 30.2672 218.8 29.6849C226.469 27.429 234.63 27.4386 242.294 29.7125C244.272 30.2995 245.206 32.4891 244.444 34.4071C243.682 36.3267 241.511 37.243 239.52 36.6951C233.643 35.0781 227.438 35.0708 221.558 36.6739C219.565 37.2172 217.396 36.2958 216.638 34.3744Z" fill="#1CC2C4"/>
<path d="M244.459 34.4179C245.222 32.4986 247.406 31.5468 249.248 32.4805C256.38 36.0949 262.319 41.6969 266.347 48.6082C267.385 50.3898 266.566 52.6231 264.699 53.4988C262.831 54.3752 260.622 53.5563 259.548 51.7939C256.371 46.5841 251.852 42.3226 246.467 39.459C244.645 38.4901 243.697 36.3355 244.459 34.4179Z" fill="#1CC2C4"/>
<path d="M264.724 53.5646C266.595 52.6916 268.836 53.4969 269.536 55.4387C272.25 62.9648 272.734 71.119 270.929 78.9137C270.464 80.9243 268.334 81.9891 266.374 81.344C264.415 80.6994 263.371 78.5911 263.796 76.5733C265.057 70.5981 264.688 64.3907 262.73 58.6069C262.069 56.6537 262.856 54.4368 264.724 53.5646Z" fill="#CED3D9"/>
<path d="M64 125L87.3827 138.5V165.5L64 179L40.6173 165.5V138.5L64 125Z" fill="#CED3D9"/>
<defs>
<filter id="filter0_d_686_335" x="223.555" y="174.637" width="47.2228" height="61.3863" filterUnits="userSpaceOnUse" color-interpolation-filters="sRGB">
<feFlood flood-opacity="0" result="BackgroundImageFix"/>
<feColorMatrix in="SourceAlpha" type="matrix" values="0 0 0 0 0 0 0 0 0 0 0 0 0 0 0 0 0 0 127 0" result="hardAlpha"/>
<feOffset dy="5.09091"/>
<feGaussianBlur stdDeviation="2.54545"/>
<feComposite in2="hardAlpha" operator="out"/>
<feColorMatrix type="matrix" values="0 0 0 0 0 0 0 0 0 0 0 0 0 0 0 0 0 0 0.33 0"/>
<feBlend mode="normal" in2="BackgroundImageFix" result="effect1_dropShadow_686_335"/>
<feBlend mode="normal" in="SourceGraphic" in2="effect1_dropShadow_686_335" result="shape"/>
</filter>
<clipPath id="clip0_686_335">
<rect width="70.5831" height="65.6791" fill="white" transform="translate(211 167)"/>
</clipPath>
</defs>
</svg>
