<svg width="200" height="200" viewBox="0 0 200 200" fill="none" xmlns="http://www.w3.org/2000/svg">
<g filter="url(#filter0_d_1702_493)">
<path fill-rule="evenodd" clip-rule="evenodd" d="M60.4444 88.879H68.0494V95.5141H60.4444V88.879ZM42.7612 98.3896C41.3349 92.5305 31.1823 94.1073 27.6338 94.8488C27.5317 94.8713 27.425 94.8623 27.3281 94.823C27.2312 94.7838 27.1486 94.716 27.0912 94.6288C27.0319 94.543 27 94.4412 27 94.337C27 94.2327 27.0317 94.1309 27.0911 94.0451C32.7931 85.587 42.7612 86.0033 42.7612 86.0033L45.6201 91.6781L42.7612 98.3896Z" fill="#6C7B8E"/>
<path fill-rule="evenodd" clip-rule="evenodd" d="M49.689 93.7189H55.2655V139.469H49.689V93.7189Z" fill="#E1EAF2"/>
<path fill-rule="evenodd" clip-rule="evenodd" d="M48.7669 128.65H56.1875C56.9818 128.65 57.6297 129.296 57.6297 130.088V153.563C57.6297 154.354 56.9818 155 56.1875 155H48.7669C47.9727 155 47.3248 154.354 47.3248 153.563V130.088C47.325 129.296 47.9728 128.65 48.7669 128.65ZM48.0459 92.0299H56.9087C57.7029 92.0299 58.3506 92.676 58.3506 93.4672V101.13C58.3506 101.921 57.7024 102.567 56.9087 102.567H48.0459C47.2522 102.567 46.604 101.922 46.604 101.13V93.4672C46.6038 92.6755 47.2517 92.0299 48.0459 92.0299Z" fill="#6C7B8E"/>
<path fill-rule="evenodd" clip-rule="evenodd" d="M42.7612 86.0033H60.7515C61.5458 86.0033 62.1936 86.6491 62.1936 87.4408V96.9523C62.1936 97.744 61.5458 98.3897 60.7515 98.3897H42.7612V86.0033ZM67.8496 86.0033H71.558C72.3523 86.0033 73.0001 86.6491 73.0001 87.4408V96.9523C73.0001 97.744 72.3523 98.3897 71.558 98.3897H67.8496C67.0554 98.3897 66.4075 97.744 66.4075 96.9523V87.4408C66.4075 86.6491 67.0554 86.0033 67.8496 86.0033Z" fill="#9DA7B3"/>
</g>
<path fill-rule="evenodd" clip-rule="evenodd" d="M128.551 84.4568L124.201 78.1304C124.14 78.0445 124.099 77.9461 124.082 77.8423C124.064 77.7385 124.069 77.632 124.098 77.5307L126.346 69.1433C126.417 68.8749 126.34 68.6073 126.135 68.4196C125.93 68.2319 125.656 68.1774 125.395 68.2726C121.41 69.7236 118.171 73.0302 116.99 77.438C115.578 82.708 117.499 88.085 121.461 91.333C121.57 91.4204 121.652 91.5382 121.694 91.6715C121.737 91.8049 121.74 91.9479 121.702 92.0828L106.589 148.487C106.539 148.673 106.566 148.871 106.662 149.038C106.758 149.204 106.917 149.326 107.103 149.376L115.578 151.647C115.764 151.697 115.962 151.671 116.129 151.574C116.296 151.478 116.418 151.32 116.468 151.134L131.581 94.7302C131.616 94.5944 131.69 94.4719 131.793 94.3779C131.897 94.2838 132.026 94.2225 132.165 94.2015C137.22 93.3693 141.572 89.6733 142.984 84.4033C144.165 79.9955 143.014 75.5126 140.288 72.2634C140.109 72.0505 139.845 71.9609 139.574 72.021C139.303 72.081 139.101 72.2738 139.029 72.5421L136.782 80.9293C136.756 81.0315 136.708 81.1265 136.641 81.2075C136.573 81.2885 136.489 81.3533 136.393 81.3972L129.463 84.7012C129.307 84.7764 129.129 84.7932 128.961 84.7483C128.794 84.7035 128.649 84.6 128.551 84.4568ZM148.923 114.786L154.78 112.554C154.88 112.518 154.971 112.459 155.045 112.383C155.119 112.307 155.175 112.214 155.208 112.113L159.928 98.4998C159.985 98.3403 159.983 98.166 159.924 98.0075C159.865 97.8489 159.752 97.7162 159.605 97.6325L152.528 93.5468C152.382 93.4613 152.211 93.4299 152.044 93.458C151.877 93.4861 151.725 93.572 151.615 93.7006L142.186 104.595C142.115 104.675 142.063 104.769 142.034 104.871C142.005 104.974 142 105.081 142.018 105.186L143.014 111.374C143.043 111.539 143.012 111.709 142.926 111.853L111.446 166.377C111.35 166.544 111.324 166.743 111.374 166.929C111.424 167.115 111.546 167.273 111.712 167.37L116.08 169.892C116.247 169.988 116.445 170.014 116.631 169.964C116.817 169.914 116.976 169.793 117.072 169.626L148.552 115.102C148.634 114.955 148.766 114.843 148.923 114.786Z" fill="#CED3D9"/>
<path fill-rule="evenodd" clip-rule="evenodd" d="M149.703 184.125H38.2969C36.9629 184.125 35.875 183.037 35.875 181.703V140.449C35.875 139.115 36.9629 138.027 38.2969 138.027H149.703C151.037 138.027 152.125 139.115 152.125 140.449V181.703C152.125 183.037 151.037 184.125 149.703 184.125Z" fill="#A4E7E7"/>
<path fill-rule="evenodd" clip-rule="evenodd" d="M53.5278 138.027H64.8879V146.902C64.8879 148.236 63.8 149.324 62.466 149.324H55.9495C54.6155 149.324 53.5276 148.236 53.5276 146.902L53.5278 138.027ZM53.5278 156.667C53.0782 156.667 52.647 156.488 52.3291 156.17C52.0111 155.852 51.8325 155.421 51.8325 154.971C51.8325 154.522 52.0111 154.091 52.3291 153.773C52.647 153.455 53.0782 153.276 53.5278 153.276H64.8879C65.3375 153.276 65.7687 153.455 66.0866 153.773C66.4046 154.091 66.5832 154.522 66.5832 154.971C66.5832 155.421 66.4046 155.852 66.0866 156.17C65.7687 156.488 65.3375 156.667 64.8879 156.667H53.5278ZM139.113 138.027H150.473V146.902C150.473 148.236 149.385 149.324 148.051 149.324H141.534C140.2 149.324 139.113 148.236 139.113 146.902V138.027ZM139.113 156.667C138.663 156.667 138.232 156.488 137.914 156.17C137.596 155.852 137.417 155.421 137.417 154.971C137.417 154.522 137.596 154.091 137.914 153.773C138.232 153.455 138.663 153.276 139.113 153.276H150.473C150.922 153.276 151.353 153.455 151.671 153.773C151.989 154.091 152.168 154.522 152.168 154.971C152.168 155.421 151.989 155.852 151.671 156.17C151.353 156.488 150.922 156.667 150.473 156.667H139.113Z" fill="#FAB365"/>
<g clip-path="url(#clip0_1702_493)">
<path d="M91.2801 73.4131L91.3622 89.2972L99.419 89.2553L99.3743 80.7885L122.993 78.0141L122.963 72.1908L92.3319 72.3503C92.0515 72.3518 91.7832 72.4646 91.5859 72.6639C91.3887 72.8632 91.2787 73.1327 91.2801 73.4131Z" fill="#9296A8"/>
<path d="M123.554 78.5691C123.701 78.4203 123.783 78.2192 123.782 78.0099L123.752 72.1867C123.751 71.9774 123.667 71.7772 123.518 71.6301C123.369 71.4829 123.168 71.4008 122.959 71.4018L92.3279 71.5613C91.8415 71.5744 91.3789 71.7748 91.0366 72.1206C90.6943 72.4665 90.4987 72.9312 90.4907 73.4177L90.574 89.3007C90.5751 89.5099 90.6592 89.7101 90.808 89.8573C90.9567 90.0045 91.1578 90.0866 91.367 90.0855L99.4226 90.0436C99.5263 90.0431 99.6289 90.0222 99.7245 89.982C99.8201 89.9419 99.9068 89.8833 99.9798 89.8096C100.053 89.7359 100.11 89.6485 100.15 89.5525C100.189 89.4565 100.209 89.3537 100.208 89.25L100.168 81.489L123.085 78.7975C123.262 78.7768 123.428 78.6962 123.554 78.5691ZM122.176 72.9866L122.197 77.3157L99.2827 80.005C99.09 80.0275 98.9124 80.1203 98.7837 80.2656C98.6551 80.4109 98.5845 80.5985 98.5855 80.7925L98.626 88.4693L92.1505 88.5063L92.0691 73.4089C92.0613 73.3722 92.0627 73.3341 92.0733 73.298C92.0839 73.262 92.1032 73.2291 92.1297 73.2024C92.1561 73.1757 92.1887 73.156 92.2247 73.145C92.2606 73.1341 92.2987 73.1323 92.3356 73.1397L122.176 72.9866Z" fill="#2B375C"/>
<path d="M64.0018 64.4335L78.221 64.3589L78.263 72.4234L80.0227 72.4143L80.1109 89.3557L78.3545 89.3659L78.6949 154.757L93.3007 154.681L92.9604 89.2899L91.3663 89.2988L91.2803 73.413C91.2788 73.1326 91.3888 72.8631 91.5861 72.6638C91.7833 72.4645 92.0517 72.3517 92.3321 72.3502L92.8683 72.348L92.8241 63.8572L122.918 63.7005L122.892 58.6188L103.748 52.3588L78.1587 52.492L78.194 59.1678L69.167 59.2142C68.4851 59.2176 67.8106 59.3554 67.1819 59.6195C66.5533 59.8837 65.9828 60.2691 65.5031 60.7538C65.0235 61.2385 64.644 61.8129 64.3864 62.4443C64.1288 63.0757 63.9981 63.7516 64.0018 64.4335Z" fill="#B9C2D2"/>
<path d="M93.858 155.233C94.0052 155.084 94.0872 154.883 94.0861 154.674L93.7457 89.2825C93.7446 89.0733 93.6604 88.8731 93.5117 88.7259C93.363 88.5787 93.1619 88.4966 92.9527 88.4977L92.1481 88.5019L92.069 73.4089C92.061 73.3721 92.0623 73.3338 92.0729 73.2977C92.0834 73.2615 92.1028 73.2285 92.1293 73.2017C92.1559 73.1749 92.1886 73.1551 92.2247 73.1442C92.2608 73.1333 92.299 73.1316 92.336 73.1392L92.8721 73.1369C93.0814 73.1358 93.2816 73.0516 93.4288 72.9029C93.5759 72.7542 93.658 72.5531 93.657 72.3439L93.6169 64.6443L122.922 64.4895C123.132 64.4884 123.332 64.4042 123.479 64.2555C123.626 64.1068 123.708 63.9057 123.707 63.6965L123.681 58.6147C123.68 58.4491 123.627 58.288 123.53 58.1541C123.432 58.0202 123.295 57.9204 123.138 57.8687L103.994 51.6088C103.913 51.5826 103.829 51.5695 103.744 51.5699L78.1549 51.7025C77.9457 51.7037 77.7454 51.7878 77.5983 51.9366C77.4511 52.0853 77.369 52.2864 77.3701 52.4956L77.4007 58.383L69.1627 58.4253C67.5771 58.4354 66.0602 59.074 64.9448 60.201C63.8295 61.328 63.2067 62.8515 63.2132 64.4371C63.2143 64.6463 63.2985 64.8465 63.4472 64.9937C63.5959 65.1409 63.797 65.223 64.0062 65.2219L77.4359 65.152L77.4738 72.4276C77.4749 72.6368 77.5591 72.837 77.7078 72.9842C77.8565 73.1314 78.0576 73.2135 78.2668 73.2124L79.2371 73.2079L79.3171 88.5703L78.3468 88.5748C78.1394 88.5817 77.9426 88.6677 77.7966 88.8152C77.6507 88.9627 77.5667 89.1604 77.562 89.3679L77.9024 154.759C77.9035 154.968 77.9877 155.168 78.1364 155.316C78.2851 155.463 78.4862 155.545 78.6954 155.544L93.3013 155.467C93.5105 155.466 93.7108 155.381 93.858 155.233ZM92.1703 90.0813L92.5035 153.892L79.4756 153.96L79.1445 90.148L80.1148 90.1435C80.3222 90.1368 80.5192 90.0509 80.6652 89.9034C80.8112 89.7559 80.8951 89.558 80.8996 89.3505L80.812 72.4119C80.8109 72.2026 80.7267 72.0024 80.578 71.8553C80.4293 71.7081 80.2282 71.626 80.019 71.627L79.0487 71.6315L79.0108 64.356C79.0097 64.1467 78.9255 63.9465 78.7768 63.7993C78.6281 63.6522 78.427 63.5701 78.2178 63.5711L64.8572 63.6396C65.0383 62.625 65.5689 61.7059 66.3568 61.0417C67.1447 60.3775 68.1403 60.0101 69.1709 60.0032L78.1978 59.9568C78.4052 59.9499 78.6021 59.8639 78.7481 59.7164C78.894 59.5689 78.978 59.3712 78.9827 59.1637L78.952 53.2763L103.625 53.1484L122.106 59.192L122.125 62.9157L92.8197 63.0683C92.6105 63.0694 92.4103 63.1536 92.2631 63.3023C92.1159 63.451 92.0339 63.6521 92.0349 63.8613L92.0728 71.5777C91.6348 71.6489 91.2358 71.8722 90.9461 72.2084C90.6564 72.5447 90.4945 72.9723 90.4889 73.416L90.5738 89.3007C90.5749 89.5099 90.6591 89.7101 90.8078 89.8573C90.9565 90.0045 91.1576 90.0866 91.3668 90.0855L92.1703 90.0813Z" fill="#2B375C"/>
<path d="M65.101 72.492C65.1083 73.7977 65.6338 75.047 66.5619 75.9655C67.49 76.884 68.7447 77.3964 70.0504 77.3902L73.8858 77.3702L73.9477 89.3878L80.1108 89.3557L80.0226 72.4143L65.101 72.492Z" fill="#9296A8"/>
<path d="M80.671 89.9102C80.7441 89.8367 80.8019 89.7495 80.8411 89.6535C80.8803 89.5575 80.9 89.4547 80.8991 89.3511L80.8121 72.4119C80.8109 72.2027 80.7268 72.0024 80.578 71.8553C80.4293 71.7081 80.2282 71.626 80.019 71.6271L65.0974 71.7036C64.8881 71.7047 64.6879 71.7889 64.5407 71.9376C64.3936 72.0864 64.3115 72.2874 64.3125 72.4967C64.322 74.0111 64.9319 75.46 66.0084 76.5253C67.0849 77.5907 68.54 78.1854 70.0545 78.1792L73.1003 78.1627L73.1588 89.3919C73.1599 89.6012 73.2441 89.8014 73.3928 89.9485C73.5415 90.0957 73.7426 90.1778 73.9518 90.1768L80.1143 90.1441C80.2179 90.1439 80.3205 90.1231 80.4161 90.083C80.5117 90.0428 80.5983 89.9841 80.671 89.9102ZM79.2372 73.2079L79.3171 88.5704L74.7325 88.5948L74.6746 77.3662C74.6741 77.2625 74.6532 77.1599 74.6131 77.0643C74.5729 76.9687 74.5143 76.8819 74.4406 76.809C74.3669 76.736 74.2795 76.6783 74.1835 76.6392C74.0875 76.6 73.9847 76.5802 73.881 76.5808L70.0463 76.6013C69.0869 76.6047 68.1562 76.2751 67.4127 75.6688C66.6693 75.0624 66.1593 74.2169 65.9698 73.2764L79.2372 73.2079ZM93.5692 100.373C93.6789 100.263 93.7533 100.122 93.7829 99.9683C93.8125 99.8151 93.7961 99.6566 93.7356 99.5128C93.6751 99.3689 93.5734 99.2462 93.4432 99.1602C93.313 99.0742 93.1602 99.0287 93.0042 99.0295L89.7452 99.0459C89.544 99.0579 89.3549 99.1465 89.217 99.2936C89.079 99.4406 89.0025 99.6349 89.0033 99.8365C89.0041 100.038 89.082 100.232 89.2211 100.378C89.3602 100.524 89.5499 100.611 89.7512 100.622L93.0102 100.605C93.114 100.605 93.2168 100.585 93.3127 100.545C93.4087 100.505 93.4958 100.447 93.5692 100.373ZM93.6089 108.003C93.7186 107.892 93.793 107.751 93.8226 107.598C93.8522 107.444 93.8358 107.286 93.7753 107.142C93.7148 106.998 93.6131 106.876 93.4829 106.79C93.3527 106.703 93.1999 106.658 93.0439 106.659L87.604 106.687C87.3971 106.692 87.2004 106.778 87.0561 106.926C86.9119 107.074 86.8316 107.273 86.8327 107.48C86.8338 107.687 86.9161 107.885 87.0619 108.032C87.2077 108.179 87.4053 108.262 87.6122 108.265L93.0499 108.239C93.154 108.238 93.2571 108.217 93.353 108.177C93.4489 108.136 93.5359 108.077 93.6089 108.003ZM93.6486 115.633C93.7583 115.522 93.8327 115.381 93.8623 115.228C93.892 115.075 93.8755 114.916 93.815 114.773C93.7546 114.629 93.6528 114.506 93.5226 114.42C93.3924 114.334 93.2397 114.288 93.0836 114.289L89.8247 114.306C89.6178 114.31 89.4211 114.396 89.2768 114.544C89.1326 114.693 89.0524 114.892 89.0534 115.099C89.0545 115.306 89.1368 115.504 89.2826 115.651C89.4284 115.797 89.626 115.881 89.8329 115.884L93.0918 115.867C93.3011 115.866 93.5014 115.782 93.6486 115.633ZM93.6877 123.262C93.7975 123.151 93.8719 123.01 93.9015 122.857C93.9311 122.704 93.9146 122.545 93.8542 122.401C93.7937 122.257 93.692 122.135 93.5618 122.049C93.4316 121.963 93.2788 121.917 93.1228 121.918L87.6828 121.946C87.5792 121.947 87.4767 121.968 87.3811 122.008C87.2856 122.048 87.1989 122.107 87.1261 122.181C87.0532 122.254 86.9955 122.342 86.9564 122.438C86.9173 122.534 86.8974 122.636 86.898 122.74C86.8986 122.844 86.9196 122.946 86.9598 123.042C87 123.137 87.0586 123.224 87.1323 123.297C87.2059 123.37 87.2933 123.427 87.3892 123.466C87.4852 123.505 87.588 123.525 87.6916 123.525L93.1316 123.496C93.3407 123.495 93.5407 123.411 93.6877 123.262ZM93.7286 130.891C93.8372 130.78 93.9105 130.639 93.9392 130.486C93.968 130.333 93.9509 130.175 93.8901 130.032C93.8293 129.889 93.7275 129.767 93.5976 129.681C93.4676 129.596 93.3153 129.55 93.1597 129.551L89.9013 129.567C89.6919 129.568 89.4916 129.652 89.3443 129.801C89.197 129.95 89.1149 130.151 89.1159 130.361C89.117 130.57 89.2013 130.77 89.3501 130.918C89.4989 131.065 89.7002 131.147 89.9095 131.146L93.1679 131.129C93.2725 131.129 93.3759 131.107 93.4721 131.066C93.5684 131.026 93.6555 130.966 93.7286 130.891ZM93.7655 138.519C93.8752 138.408 93.9496 138.267 93.9792 138.114C94.0089 137.961 93.9924 137.802 93.9319 137.658C93.8715 137.514 93.7697 137.392 93.6395 137.306C93.5093 137.22 93.3566 137.174 93.2005 137.175L87.7606 137.203C87.6569 137.204 87.5544 137.225 87.4588 137.265C87.3633 137.305 87.2766 137.364 87.2036 137.437C87.1307 137.511 87.073 137.598 87.0338 137.694C86.9946 137.79 86.9747 137.893 86.9752 137.996C86.9757 138.1 86.9966 138.203 87.0367 138.298C87.0769 138.394 87.1354 138.48 87.209 138.553C87.2827 138.626 87.37 138.684 87.4659 138.723C87.5619 138.762 87.6646 138.782 87.7682 138.782L93.2082 138.753C93.3119 138.753 93.4145 138.732 93.5102 138.692C93.6058 138.651 93.6926 138.593 93.7655 138.519ZM93.8074 146.152C93.9172 146.041 93.9916 145.9 94.0212 145.747C94.0508 145.593 94.0343 145.435 93.9739 145.291C93.9134 145.147 93.8117 145.024 93.6815 144.938C93.5513 144.852 93.3985 144.807 93.2425 144.808L89.9835 144.824C89.7767 144.829 89.58 144.914 89.4357 145.063C89.2915 145.211 89.2112 145.41 89.2123 145.617C89.2134 145.824 89.2957 146.022 89.4415 146.169C89.5872 146.316 89.7849 146.399 89.9917 146.402L93.2507 146.386C93.3544 146.385 93.4569 146.365 93.5525 146.324C93.6481 146.284 93.7347 146.225 93.8074 146.152Z" fill="#2B375C"/>
</g>
<g clip-path="url(#clip1_1702_493)">
<g filter="url(#filter1_d_1702_493)">
<path d="M114.5 148.409C113.694 148.791 112.888 148.833 112.082 148.536C111.276 148.239 110.682 147.688 110.3 146.882L102.218 129.573L94.7093 140.073C94.1578 140.836 93.4472 141.07 92.5775 140.773C91.7078 140.476 91.2729 139.861 91.2729 138.927V103.036C91.2729 102.23 91.6336 101.658 92.3548 101.318C93.076 100.979 93.7548 101.042 94.3911 101.509L122.582 123.654C123.303 124.248 123.505 124.97 123.187 125.818C122.868 126.667 122.264 127.091 121.373 127.091H108.137L116.027 144.209C116.409 145.015 116.452 145.821 116.155 146.627C115.858 147.433 115.306 148.027 114.5 148.409Z" fill="#1CC2C4"/>
</g>
</g>
<defs>
<filter id="filter0_d_1702_493" x="23" y="86" width="54" height="77" filterUnits="userSpaceOnUse" color-interpolation-filters="sRGB">
<feFlood flood-opacity="0" result="BackgroundImageFix"/>
<feColorMatrix in="SourceAlpha" type="matrix" values="0 0 0 0 0 0 0 0 0 0 0 0 0 0 0 0 0 0 127 0" result="hardAlpha"/>
<feOffset dy="4"/>
<feGaussianBlur stdDeviation="2"/>
<feComposite in2="hardAlpha" operator="out"/>
<feColorMatrix type="matrix" values="0 0 0 0 0 0 0 0 0 0 0 0 0 0 0 0 0 0 0.25 0"/>
<feBlend mode="normal" in2="BackgroundImageFix" result="effect1_dropShadow_1702_493"/>
<feBlend mode="normal" in="SourceGraphic" in2="effect1_dropShadow_1702_493" result="shape"/>
</filter>
<filter id="filter1_d_1702_493" x="86.182" y="101.104" width="42.2414" height="57.8093" filterUnits="userSpaceOnUse" color-interpolation-filters="sRGB">
<feFlood flood-opacity="0" result="BackgroundImageFix"/>
<feColorMatrix in="SourceAlpha" type="matrix" values="0 0 0 0 0 0 0 0 0 0 0 0 0 0 0 0 0 0 127 0" result="hardAlpha"/>
<feOffset dy="5.09091"/>
<feGaussianBlur stdDeviation="2.54545"/>
<feComposite in2="hardAlpha" operator="out"/>
<feColorMatrix type="matrix" values="0 0 0 0 0 0 0 0 0 0 0 0 0 0 0 0 0 0 0.33 0"/>
<feBlend mode="normal" in2="BackgroundImageFix" result="effect1_dropShadow_1702_493"/>
<feBlend mode="normal" in="SourceGraphic" in2="effect1_dropShadow_1702_493" result="shape"/>
</filter>
<clipPath id="clip0_1702_493">
<rect width="101" height="101" fill="white" transform="translate(40 46)"/>
</clipPath>
<clipPath id="clip1_1702_493">
<rect width="61.0909" height="61.0909" fill="white" transform="translate(76 94)"/>
</clipPath>
</defs>
</svg>
