<svg width="293" height="224" viewBox="0 0 293 224" fill="none" xmlns="http://www.w3.org/2000/svg">
<g filter="url(#filter0_d_1553_4873)">
<rect x="93.3638" y="41.0182" width="101.818" height="152.727" rx="10.1818" fill="#E1EAF2"/>
</g>
<rect x="101" y="51.2001" width="84" height="8.90909" rx="4.45454" fill="#3B4F68"/>
<rect x="101" y="77.9274" width="54.7273" height="5.09091" rx="2.54545" fill="#6C7B8E"/>
<rect x="101" y="118.655" width="54.7273" height="5.09091" rx="2.54545" fill="#6C7B8E"/>
<rect x="101" y="159.382" width="54.7273" height="5.09091" rx="2.54545" fill="#6C7B8E"/>
<rect x="101" y="90.6547" width="22.9091" height="3.81818" rx="1.90909" fill="#1CC2C4"/>
<rect x="101" y="131.382" width="22.9091" height="3.81818" rx="1.90909" fill="#9DA7B3"/>
<rect x="101" y="172.109" width="22.9091" height="3.81818" rx="1.90909" fill="#9DA7B3"/>
<rect x="130.273" y="90.6547" width="22.9091" height="3.81818" rx="1.90909" fill="#9DA7B3"/>
<rect x="130.273" y="131.382" width="22.9091" height="3.81818" rx="1.90909" fill="#1CC2C4"/>
<rect x="130.273" y="172.109" width="22.9091" height="3.81818" rx="1.90909" fill="#9DA7B3"/>
<rect x="160.818" y="90.6547" width="22.9091" height="3.81818" rx="1.90909" fill="#9DA7B3"/>
<rect x="160.818" y="131.382" width="22.9091" height="3.81818" rx="1.90909" fill="#9DA7B3"/>
<rect x="160.818" y="172.109" width="22.9091" height="3.81818" rx="1.90909" fill="#9DA7B3"/>
<rect x="101" y="98.291" width="22.9091" height="3.81818" rx="1.90909" fill="#9DA7B3"/>
<rect x="101" y="139.018" width="22.9091" height="3.81818" rx="1.90909" fill="#9DA7B3"/>
<rect x="101" y="179.745" width="22.9091" height="3.81818" rx="1.90909" fill="#1CC2C4"/>
<g clip-path="url(#clip0_1553_4873)">
<g filter="url(#filter1_d_1553_4873)">
<path d="M191.682 207.427C190.876 207.809 190.07 207.852 189.264 207.555C188.458 207.258 187.864 206.706 187.482 205.9L179.4 188.591L171.891 199.091C171.339 199.855 170.629 200.088 169.759 199.791C168.889 199.494 168.455 198.879 168.455 197.946V162.055C168.455 161.249 168.815 160.676 169.536 160.336C170.258 159.997 170.936 160.061 171.573 160.527L199.764 182.673C200.485 183.267 200.686 183.988 200.368 184.836C200.05 185.685 199.445 186.109 198.555 186.109H185.318L193.209 203.227C193.591 204.033 193.633 204.839 193.336 205.646C193.039 206.452 192.488 207.046 191.682 207.427Z" fill="#1CC2C4"/>
</g>
</g>
<g filter="url(#filter2_f_1553_4873)">
<rect x="206.636" y="41.0182" width="76.3636" height="114.545" fill="#CED3D9"/>
<rect x="216.818" y="51.2001" width="57.2727" height="6.36364" rx="3.18182" fill="#EDF4FC"/>
<rect x="216.818" y="69.0183" width="36.9091" height="3.81818" rx="1.90909" fill="#EDF4FC"/>
<rect x="216.818" y="97.0183" width="36.9091" height="3.81818" rx="1.90909" fill="#EDF4FC"/>
<rect x="216.818" y="125.018" width="36.9091" height="3.81818" rx="1.90909" fill="#EDF4FC"/>
<rect x="216.818" y="77.9274" width="15.2727" height="2.54545" rx="1.27273" fill="#E1EAF2"/>
<rect x="216.818" y="105.927" width="15.2727" height="2.54545" rx="1.27273" fill="#E1EAF2"/>
<rect x="216.818" y="133.927" width="15.2727" height="2.54545" rx="1.27273" fill="#E1EAF2"/>
<rect x="237.182" y="77.9274" width="15.2727" height="2.54545" rx="1.27273" fill="#E1EAF2"/>
<rect x="237.182" y="105.927" width="15.2727" height="2.54545" rx="1.27273" fill="#E1EAF2"/>
<rect x="237.182" y="133.927" width="15.2727" height="2.54545" rx="1.27273" fill="#E1EAF2"/>
<rect x="257.545" y="77.9274" width="15.2727" height="2.54545" rx="1.27273" fill="#E1EAF2"/>
<rect x="257.545" y="105.927" width="15.2727" height="2.54545" rx="1.27273" fill="#E1EAF2"/>
<rect x="257.545" y="133.927" width="15.2727" height="2.54545" rx="1.27273" fill="#E1EAF2"/>
<rect x="216.818" y="83.0183" width="15.2727" height="2.54545" rx="1.27273" fill="#E1EAF2"/>
<rect x="216.818" y="111.018" width="15.2727" height="2.54545" rx="1.27273" fill="#E1EAF2"/>
<rect x="216.818" y="139.018" width="15.2727" height="2.54545" rx="1.27273" fill="#E1EAF2"/>
</g>
<g filter="url(#filter3_f_1553_4873)">
<rect x="3" y="41.0182" width="76.3636" height="114.545" fill="#CED3D9"/>
<rect x="13.1816" y="51.2001" width="57.2727" height="6.36364" rx="3.18182" fill="#EDF4FC"/>
<rect x="13.1816" y="69.0183" width="36.9091" height="3.81818" rx="1.90909" fill="#EDF4FC"/>
<rect x="13.1816" y="97.0183" width="36.9091" height="3.81818" rx="1.90909" fill="#EDF4FC"/>
<rect x="13.1816" y="125.018" width="36.9091" height="3.81818" rx="1.90909" fill="#EDF4FC"/>
<rect x="13.1816" y="77.9274" width="15.2727" height="2.54545" rx="1.27273" fill="#E1EAF2"/>
<rect x="13.1816" y="105.927" width="15.2727" height="2.54545" rx="1.27273" fill="#E1EAF2"/>
<rect x="13.1816" y="133.927" width="15.2727" height="2.54545" rx="1.27273" fill="#E1EAF2"/>
<rect x="33.5454" y="77.9274" width="15.2727" height="2.54545" rx="1.27273" fill="#E1EAF2"/>
<rect x="33.5454" y="105.927" width="15.2727" height="2.54545" rx="1.27273" fill="#E1EAF2"/>
<rect x="33.5454" y="133.927" width="15.2727" height="2.54545" rx="1.27273" fill="#E1EAF2"/>
<rect x="53.9092" y="77.9274" width="15.2727" height="2.54545" rx="1.27273" fill="#E1EAF2"/>
<rect x="53.9092" y="105.927" width="15.2727" height="2.54545" rx="1.27273" fill="#E1EAF2"/>
<rect x="53.9092" y="133.927" width="15.2727" height="2.54545" rx="1.27273" fill="#E1EAF2"/>
<rect x="13.1816" y="83.0183" width="15.2727" height="2.54545" rx="1.27273" fill="#E1EAF2"/>
<rect x="13.1816" y="111.018" width="15.2727" height="2.54545" rx="1.27273" fill="#E1EAF2"/>
<rect x="13.1816" y="139.018" width="15.2727" height="2.54545" rx="1.27273" fill="#E1EAF2"/>
</g>
<defs>
<filter id="filter0_d_1553_4873" x="88.2729" y="41.0182" width="112" height="162.909" filterUnits="userSpaceOnUse" color-interpolation-filters="sRGB">
<feFlood flood-opacity="0" result="BackgroundImageFix"/>
<feColorMatrix in="SourceAlpha" type="matrix" values="0 0 0 0 0 0 0 0 0 0 0 0 0 0 0 0 0 0 127 0" result="hardAlpha"/>
<feOffset dy="5.09091"/>
<feGaussianBlur stdDeviation="2.54545"/>
<feComposite in2="hardAlpha" operator="out"/>
<feColorMatrix type="matrix" values="0 0 0 0 0 0 0 0 0 0 0 0 0 0 0 0 0 0 0.25 0"/>
<feBlend mode="normal" in2="BackgroundImageFix" result="effect1_dropShadow_1553_4873"/>
<feBlend mode="normal" in="SourceGraphic" in2="effect1_dropShadow_1553_4873" result="shape"/>
</filter>
<filter id="filter1_d_1553_4873" x="163.364" y="160.122" width="42.2414" height="57.8093" filterUnits="userSpaceOnUse" color-interpolation-filters="sRGB">
<feFlood flood-opacity="0" result="BackgroundImageFix"/>
<feColorMatrix in="SourceAlpha" type="matrix" values="0 0 0 0 0 0 0 0 0 0 0 0 0 0 0 0 0 0 127 0" result="hardAlpha"/>
<feOffset dy="5.09091"/>
<feGaussianBlur stdDeviation="2.54545"/>
<feComposite in2="hardAlpha" operator="out"/>
<feColorMatrix type="matrix" values="0 0 0 0 0 0 0 0 0 0 0 0 0 0 0 0 0 0 0.33 0"/>
<feBlend mode="normal" in2="BackgroundImageFix" result="effect1_dropShadow_1553_4873"/>
<feBlend mode="normal" in="SourceGraphic" in2="effect1_dropShadow_1553_4873" result="shape"/>
</filter>
<filter id="filter2_f_1553_4873" x="204.091" y="38.4727" width="81.4547" height="119.636" filterUnits="userSpaceOnUse" color-interpolation-filters="sRGB">
<feFlood flood-opacity="0" result="BackgroundImageFix"/>
<feBlend mode="normal" in="SourceGraphic" in2="BackgroundImageFix" result="shape"/>
<feGaussianBlur stdDeviation="1.27273" result="effect1_foregroundBlur_1553_4873"/>
</filter>
<filter id="filter3_f_1553_4873" x="0.454545" y="38.4727" width="81.4547" height="119.636" filterUnits="userSpaceOnUse" color-interpolation-filters="sRGB">
<feFlood flood-opacity="0" result="BackgroundImageFix"/>
<feBlend mode="normal" in="SourceGraphic" in2="BackgroundImageFix" result="shape"/>
<feGaussianBlur stdDeviation="1.27273" result="effect1_foregroundBlur_1553_4873"/>
</filter>
<clipPath id="clip0_1553_4873">
<rect width="61.0909" height="61.0909" fill="white" transform="translate(153.182 153.018)"/>
</clipPath>
</defs>
</svg>
