<svg width="448" height="370" viewBox="0 0 448 370" fill="none" xmlns="http://www.w3.org/2000/svg">
<path d="M404.243 93.6396C383.908 40.1968 338.045 15.54 283.411 29.378C238.719 40.7 217.472 78.44 193.73 91.9894C159.29 111.696 107.456 104.177 62.5042 144.115C33.9982 169.438 37.317 227.483 64.1266 269.175C85.3135 302.083 139.273 334.598 188.581 304.466C255.772 263.366 231.622 203.752 261.832 183.283C295.168 160.691 333.348 189.706 383.123 165.19C402.91 155.4 415.696 123.735 404.243 93.6396Z" fill="#1CC2C4"/>
<path opacity="0.7" d="M404.243 93.6396C383.908 40.1968 338.045 15.54 283.411 29.378C238.719 40.7 217.472 78.44 193.73 91.9894C159.29 111.696 107.456 104.177 62.5042 144.115C33.9982 169.438 37.317 227.483 64.1266 269.175C85.3135 302.083 139.273 334.598 188.581 304.466C255.772 263.366 231.622 203.752 261.832 183.283C295.168 160.691 333.348 189.706 383.123 165.19C402.91 155.4 415.696 123.735 404.243 93.6396Z" fill="white"/>
<path d="M134.414 348.732C171.972 348.732 202.419 346.509 202.419 343.767C202.419 341.025 171.972 338.802 134.414 338.802C96.8553 338.802 66.4082 341.025 66.4082 343.767C66.4082 346.509 96.8553 348.732 134.414 348.732Z" fill="#1CC2C4"/>
<path d="M29.5459 333.814H415.266" stroke="#263238" stroke-width="1.25903" stroke-linecap="round" stroke-linejoin="round"/>
<path d="M380.952 245.51H368.262V244.385C368.261 243.861 368.368 243.342 368.575 242.86C368.781 242.378 369.084 241.944 369.465 241.583C369.846 241.222 370.296 240.943 370.788 240.761C371.281 240.58 371.805 240.501 372.329 240.53L377.3 240.803C378.286 240.856 379.214 241.285 379.893 242.001C380.573 242.716 380.952 243.665 380.952 244.651V245.51Z" fill="#1CC2C4"/>
<mask id="mask0_692_1403" style="mask-type:luminance" maskUnits="userSpaceOnUse" x="368" y="240" width="13" height="6">
<path d="M380.952 245.51H368.262V244.385C368.261 243.861 368.368 243.342 368.575 242.86C368.781 242.378 369.084 241.944 369.465 241.583C369.846 241.222 370.296 240.943 370.788 240.761C371.281 240.58 371.805 240.501 372.329 240.53L377.3 240.803C378.286 240.856 379.214 241.285 379.893 242.001C380.573 242.716 380.952 243.665 380.952 244.651V245.51Z" fill="white"/>
</mask>
<g mask="url(#mask0_692_1403)">
<path opacity="0.8" d="M380.952 245.51H368.262V244.385C368.261 243.861 368.368 243.342 368.575 242.86C368.781 242.378 369.084 241.944 369.465 241.583C369.846 241.222 370.296 240.943 370.788 240.761C371.281 240.58 371.805 240.501 372.329 240.53L377.3 240.803C378.286 240.856 379.214 241.285 379.893 242.001C380.573 242.716 380.952 243.665 380.952 244.651V245.51Z" fill="white"/>
</g>
<path d="M380.952 245.51H368.262V244.385C368.261 243.861 368.368 243.342 368.575 242.86C368.781 242.378 369.084 241.944 369.465 241.583C369.846 241.222 370.296 240.943 370.788 240.761C371.281 240.58 371.805 240.501 372.329 240.53L377.3 240.803C378.286 240.856 379.214 241.285 379.893 242.001C380.573 242.716 380.952 243.665 380.952 244.651V245.51Z" stroke="#263238" stroke-width="1.25903" stroke-linecap="round" stroke-linejoin="round"/>
<path d="M346.69 219.306C346.667 218.825 346.46 218.372 346.11 218.04C345.761 217.707 345.298 217.522 344.816 217.523H331.992C331.511 217.524 331.048 217.71 330.7 218.042C330.351 218.373 330.143 218.826 330.118 219.306L333.178 246.006H352.32L346.69 219.306Z" fill="#1CC2C4" stroke="#263238" stroke-width="1.25903" stroke-linecap="round" stroke-linejoin="round"/>
<path d="M381.515 178.266H376.737L371.374 228.66H376.144C376.538 228.651 376.915 228.501 377.207 228.237C377.5 227.974 377.687 227.614 377.737 227.224L382.812 179.694C382.837 179.512 382.821 179.327 382.767 179.151C382.713 178.976 382.62 178.814 382.497 178.678C382.373 178.542 382.221 178.434 382.052 178.363C381.882 178.292 381.699 178.259 381.515 178.266Z" fill="#1CC2C4" stroke="#263238" stroke-width="1.25903" stroke-linecap="round" stroke-linejoin="round"/>
<path d="M374.13 228.66H302.516C302.333 228.664 302.152 228.628 301.984 228.555C301.816 228.482 301.666 228.374 301.544 228.237C301.423 228.101 301.332 227.939 301.278 227.765C301.225 227.59 301.21 227.406 301.235 227.224L306.302 179.672C306.35 179.283 306.537 178.925 306.828 178.663C307.119 178.4 307.495 178.252 307.887 178.244H379.5C379.683 178.239 379.864 178.274 380.032 178.346C380.2 178.418 380.35 178.526 380.472 178.662C380.594 178.798 380.685 178.958 380.738 179.133C380.792 179.307 380.807 179.491 380.782 179.672L375.715 227.224C375.667 227.614 375.48 227.973 375.189 228.237C374.898 228.5 374.522 228.651 374.13 228.66Z" fill="#1CC2C4"/>
<mask id="mask1_692_1403" style="mask-type:luminance" maskUnits="userSpaceOnUse" x="301" y="178" width="80" height="51">
<path d="M374.13 228.66H302.516C302.333 228.664 302.152 228.628 301.984 228.555C301.816 228.482 301.666 228.374 301.544 228.237C301.423 228.101 301.332 227.939 301.278 227.765C301.225 227.59 301.21 227.406 301.235 227.224L306.302 179.672C306.35 179.283 306.537 178.925 306.828 178.663C307.119 178.4 307.495 178.252 307.887 178.244H379.5C379.683 178.239 379.864 178.274 380.032 178.346C380.2 178.418 380.35 178.526 380.472 178.662C380.594 178.798 380.685 178.958 380.738 179.133C380.792 179.307 380.807 179.491 380.782 179.672L375.715 227.224C375.667 227.614 375.48 227.973 375.189 228.237C374.898 228.5 374.522 228.651 374.13 228.66Z" fill="white"/>
</mask>
<g mask="url(#mask1_692_1403)">
<path opacity="0.4" d="M374.13 228.66H302.516C302.333 228.664 302.152 228.628 301.984 228.555C301.816 228.482 301.666 228.374 301.544 228.237C301.423 228.101 301.332 227.939 301.278 227.765C301.225 227.59 301.21 227.406 301.235 227.224L306.302 179.672C306.35 179.283 306.537 178.925 306.828 178.663C307.119 178.4 307.495 178.252 307.887 178.244H379.5C379.683 178.239 379.864 178.274 380.032 178.346C380.2 178.418 380.35 178.526 380.472 178.662C380.594 178.798 380.685 178.958 380.738 179.133C380.792 179.307 380.807 179.491 380.782 179.672L375.715 227.224C375.667 227.614 375.48 227.973 375.189 228.237C374.898 228.5 374.522 228.651 374.13 228.66Z" fill="white"/>
</g>
<path d="M374.13 228.66H302.516C302.333 228.664 302.152 228.628 301.984 228.555C301.816 228.482 301.666 228.374 301.544 228.237C301.423 228.101 301.332 227.939 301.278 227.765C301.225 227.59 301.21 227.406 301.235 227.224L306.302 179.672C306.35 179.283 306.537 178.925 306.828 178.663C307.119 178.4 307.495 178.252 307.887 178.244H379.5C379.683 178.239 379.864 178.274 380.032 178.346C380.2 178.418 380.35 178.526 380.472 178.662C380.594 178.798 380.685 178.958 380.738 179.133C380.792 179.307 380.807 179.491 380.782 179.672L375.715 227.224C375.667 227.614 375.48 227.973 375.189 228.237C374.898 228.5 374.522 228.651 374.13 228.66Z" stroke="#263238" stroke-width="1.25903" stroke-linecap="round" stroke-linejoin="round"/>
<path d="M353.024 243.926H329.474C329.199 243.926 328.935 244.035 328.741 244.23C328.546 244.424 328.437 244.687 328.437 244.962C328.437 245.238 328.546 245.502 328.74 245.697C328.935 245.893 329.198 246.004 329.474 246.006H353.017C353.293 246.004 353.556 245.893 353.751 245.697C353.945 245.502 354.054 245.238 354.054 244.962C354.054 244.689 353.946 244.426 353.753 244.232C353.56 244.038 353.298 243.928 353.024 243.926Z" fill="#1CC2C4" stroke="#263238" stroke-width="1.25903" stroke-linecap="round" stroke-linejoin="round"/>
<path d="M372.788 224.028H305.257C305.098 224.031 304.939 224 304.793 223.937C304.646 223.873 304.515 223.779 304.409 223.66C304.303 223.541 304.224 223.401 304.177 223.248C304.13 223.096 304.117 222.935 304.138 222.777L308.583 181.285C308.624 180.945 308.787 180.631 309.042 180.401C309.296 180.171 309.625 180.041 309.969 180.035H377.478C377.637 180.032 377.795 180.064 377.941 180.128C378.086 180.192 378.217 180.286 378.323 180.405C378.429 180.524 378.508 180.663 378.555 180.815C378.603 180.967 378.617 181.127 378.596 181.285L374.152 222.777C374.11 223.113 373.95 223.423 373.7 223.652C373.45 223.881 373.127 224.014 372.788 224.028Z" fill="#1CC2C4"/>
<mask id="mask2_692_1403" style="mask-type:luminance" maskUnits="userSpaceOnUse" x="304" y="180" width="75" height="45">
<path d="M372.788 224.028H305.257C305.098 224.031 304.939 224 304.793 223.937C304.646 223.873 304.515 223.779 304.409 223.66C304.303 223.541 304.224 223.401 304.177 223.248C304.13 223.096 304.117 222.935 304.138 222.777L308.583 181.285C308.624 180.945 308.787 180.631 309.042 180.401C309.296 180.171 309.625 180.041 309.969 180.035H377.478C377.637 180.032 377.795 180.064 377.941 180.128C378.086 180.192 378.217 180.286 378.323 180.405C378.429 180.524 378.508 180.663 378.555 180.815C378.603 180.967 378.617 181.127 378.596 181.285L374.152 222.777C374.11 223.113 373.95 223.423 373.7 223.652C373.45 223.881 373.127 224.014 372.788 224.028Z" fill="white"/>
</mask>
<g mask="url(#mask2_692_1403)">
<path opacity="0.8" d="M372.788 224.028H305.257C305.098 224.031 304.939 224 304.793 223.937C304.646 223.873 304.515 223.779 304.409 223.66C304.303 223.541 304.224 223.401 304.177 223.248C304.13 223.096 304.117 222.935 304.138 222.777L308.583 181.285C308.624 180.945 308.787 180.631 309.042 180.401C309.296 180.171 309.625 180.041 309.969 180.035H377.478C377.637 180.032 377.795 180.064 377.941 180.128C378.086 180.192 378.217 180.286 378.323 180.405C378.429 180.524 378.508 180.663 378.555 180.815C378.603 180.967 378.617 181.127 378.596 181.285L374.152 222.777C374.11 223.113 373.95 223.423 373.7 223.652C373.45 223.881 373.127 224.014 372.788 224.028Z" fill="white"/>
</g>
<path d="M372.788 224.028H305.257C305.098 224.031 304.939 224 304.793 223.937C304.646 223.873 304.515 223.779 304.409 223.66C304.303 223.541 304.224 223.401 304.177 223.248C304.13 223.096 304.117 222.935 304.138 222.777L308.583 181.285C308.624 180.945 308.787 180.631 309.042 180.401C309.296 180.171 309.625 180.041 309.969 180.035H377.478C377.637 180.032 377.795 180.064 377.941 180.128C378.086 180.192 378.217 180.286 378.323 180.405C378.429 180.524 378.508 180.663 378.555 180.815C378.603 180.967 378.617 181.127 378.596 181.285L374.152 222.777C374.11 223.113 373.95 223.423 373.7 223.652C373.45 223.881 373.127 224.014 372.788 224.028Z" stroke="#263238" stroke-width="1.25903" stroke-linecap="round" stroke-linejoin="round"/>
<path d="M220.443 252.717H225.962V332.704C225.962 332.996 225.846 333.277 225.639 333.484C225.432 333.69 225.151 333.807 224.858 333.807H221.554C221.261 333.807 220.981 333.69 220.774 333.484C220.567 333.277 220.45 332.996 220.45 332.704V252.717H220.443Z" fill="#1CC2C4" stroke="#263238" stroke-width="1.25903" stroke-linecap="round" stroke-linejoin="round"/>
<path d="M391.309 245.51H343.468V252.717H391.309V245.51Z" fill="#1CC2C4"/>
<mask id="mask3_692_1403" style="mask-type:luminance" maskUnits="userSpaceOnUse" x="343" y="245" width="49" height="8">
<path d="M391.309 245.51H343.468V252.717H391.309V245.51Z" fill="white"/>
</mask>
<g mask="url(#mask3_692_1403)">
<path opacity="0.4" d="M391.309 245.51H343.468V252.717H391.309V245.51Z" fill="white"/>
</g>
<path d="M391.309 245.51H343.468V252.717H391.309V245.51Z" stroke="#263238" stroke-width="1.25903" stroke-linecap="round" stroke-linejoin="round"/>
<path d="M254.653 252.717H260.172V332.704C260.172 332.996 260.056 333.277 259.848 333.484C259.641 333.69 259.361 333.807 259.068 333.807H255.764C255.618 333.808 255.474 333.78 255.339 333.725C255.205 333.67 255.082 333.589 254.979 333.486C254.875 333.384 254.793 333.262 254.738 333.128C254.682 332.993 254.653 332.849 254.653 332.704V252.717Z" fill="#1CC2C4" stroke="#263238" stroke-width="1.25903" stroke-linecap="round" stroke-linejoin="round"/>
<path d="M382.604 252.717H388.123V332.704C388.123 332.996 388.007 333.277 387.8 333.484C387.593 333.69 387.312 333.807 387.019 333.807H383.715C383.422 333.807 383.142 333.69 382.935 333.484C382.728 333.277 382.611 332.996 382.611 332.704V252.717H382.604Z" fill="#1CC2C4" stroke="#263238" stroke-width="1.25903" stroke-linecap="round" stroke-linejoin="round"/>
<path d="M357.113 245.51H217.25V252.717H357.113V245.51Z" fill="#1CC2C4"/>
<mask id="mask4_692_1403" style="mask-type:luminance" maskUnits="userSpaceOnUse" x="217" y="245" width="141" height="8">
<path d="M357.113 245.51H217.25V252.717H357.113V245.51Z" fill="white"/>
</mask>
<g mask="url(#mask4_692_1403)">
<path opacity="0.7" d="M357.113 245.51H217.25V252.717H357.113V245.51Z" fill="white"/>
</g>
<path d="M357.113 245.51H217.25V252.717H357.113V245.51Z" stroke="#263238" stroke-width="1.25903" stroke-linecap="round" stroke-linejoin="round"/>
<path d="M348.409 252.717H353.92V332.704C353.92 332.996 353.804 333.277 353.597 333.484C353.39 333.69 353.109 333.807 352.816 333.807H349.475C349.183 333.807 348.902 333.69 348.695 333.484C348.488 333.277 348.372 332.996 348.372 332.704V252.717H348.409Z" fill="#1CC2C4" stroke="#263238" stroke-width="1.25903" stroke-linecap="round" stroke-linejoin="round"/>
<path d="M345.912 242.542H305.983V245.51H345.912V242.542Z" fill="#1CC2C4"/>
<mask id="mask5_692_1403" style="mask-type:luminance" maskUnits="userSpaceOnUse" x="305" y="242" width="41" height="4">
<path d="M345.912 242.542H305.983V245.51H345.912V242.542Z" fill="white"/>
</mask>
<g mask="url(#mask5_692_1403)">
<path opacity="0.4" d="M345.912 242.542H305.983V245.51H345.912V242.542Z" fill="white"/>
</g>
<path d="M345.912 242.542H305.983V245.51H345.912V242.542Z" stroke="#263238" stroke-width="1.25903" stroke-linecap="round" stroke-linejoin="round"/>
<path d="M48.762 333.814H115.301L115.301 245.369H48.762L48.762 333.814Z" fill="#1CC2C4"/>
<mask id="mask6_692_1403" style="mask-type:luminance" maskUnits="userSpaceOnUse" x="48" y="245" width="68" height="89">
<path d="M48.762 333.814H115.301L115.301 245.369H48.762L48.762 333.814Z" fill="white"/>
</mask>
<g mask="url(#mask6_692_1403)">
<path opacity="0.7" d="M48.762 333.814H115.301L115.301 245.369H48.762L48.762 333.814Z" fill="white"/>
</g>
<path d="M48.762 333.814H115.301L115.301 245.369H48.762L48.762 333.814Z" stroke="#263238" stroke-width="1.25903" stroke-linecap="round" stroke-linejoin="round"/>
<path d="M36.0649 333.814H48.7622L48.7622 245.369H36.0649L36.0649 333.814Z" fill="#1CC2C4"/>
<mask id="mask7_692_1403" style="mask-type:luminance" maskUnits="userSpaceOnUse" x="36" y="245" width="13" height="89">
<path d="M36.0649 333.814H48.7622L48.7622 245.369H36.0649L36.0649 333.814Z" fill="white"/>
</mask>
<g mask="url(#mask7_692_1403)">
<path opacity="0.3" d="M36.0649 333.814H48.7622L48.7622 245.369H36.0649L36.0649 333.814Z" fill="white"/>
</g>
<path d="M36.0649 333.814H48.7622L48.7622 245.369H36.0649L36.0649 333.814Z" stroke="#263238" stroke-width="1.25903" stroke-linecap="round" stroke-linejoin="round"/>
<path d="M53.0814 273.408H110.642V251.926H53.0814V273.408Z" fill="white" stroke="#263238" stroke-width="1.25903" stroke-linecap="round" stroke-linejoin="round"/>
<path d="M53.0814 297.228H110.642V275.746H53.0814V297.228Z" fill="white" stroke="#263238" stroke-width="1.25903" stroke-linecap="round" stroke-linejoin="round"/>
<path d="M53.0814 321.056H110.642V299.574H53.0814V321.056Z" fill="white" stroke="#263238" stroke-width="1.25903" stroke-linecap="round" stroke-linejoin="round"/>
<path d="M79.4609 262.7C79.4609 263.174 79.6017 263.638 79.8655 264.032C80.1292 264.426 80.504 264.734 80.9426 264.915C81.3812 265.097 81.8638 265.144 82.3294 265.052C82.795 264.959 83.2227 264.731 83.5583 264.395C83.894 264.06 84.1226 263.633 84.2152 263.168C84.3078 262.703 84.2603 262.221 84.0786 261.782C83.897 261.344 83.5893 260.97 83.1946 260.706C82.7999 260.443 82.3359 260.302 81.8611 260.302C81.5459 260.302 81.2338 260.364 80.9426 260.485C80.6514 260.605 80.3868 260.782 80.1639 261.005C79.9411 261.227 79.7643 261.492 79.6437 261.782C79.523 262.073 79.4609 262.385 79.4609 262.7Z" fill="#1CC2C4" stroke="#263238" stroke-width="1.25903" stroke-linecap="round" stroke-linejoin="round"/>
<path d="M79.4609 286.491C79.4595 286.965 79.599 287.43 79.8619 287.825C80.1247 288.22 80.499 288.529 80.9375 288.711C81.3759 288.894 81.8588 288.942 82.3248 288.851C82.7909 288.759 83.2193 288.531 83.5557 288.196C83.8921 287.861 84.1214 287.434 84.2147 286.969C84.3079 286.504 84.2608 286.021 84.0793 285.583C83.8979 285.144 83.5903 284.769 83.1954 284.505C82.8005 284.242 82.3362 284.101 81.8611 284.101C81.2259 284.101 80.6165 284.352 80.1666 284.8C79.7167 285.248 79.4629 285.856 79.4609 286.491Z" fill="#1CC2C4" stroke="#263238" stroke-width="1.25903" stroke-linecap="round" stroke-linejoin="round"/>
<path d="M79.4609 310.319C79.4609 310.793 79.6017 311.257 79.8655 311.651C80.1292 312.045 80.504 312.353 80.9426 312.534C81.3812 312.716 81.8638 312.763 82.3294 312.671C82.795 312.578 83.2227 312.35 83.5583 312.014C83.894 311.679 84.1226 311.252 84.2152 310.787C84.3078 310.322 84.2603 309.84 84.0786 309.401C83.897 308.963 83.5893 308.589 83.1946 308.325C82.7999 308.062 82.3359 307.921 81.8611 307.921C81.5459 307.921 81.2338 307.983 80.9426 308.104C80.6514 308.224 80.3868 308.401 80.1639 308.624C79.9411 308.846 79.7643 309.111 79.6437 309.401C79.523 309.692 79.4609 310.004 79.4609 310.319Z" fill="#1CC2C4" stroke="#263238" stroke-width="1.25903" stroke-linecap="round" stroke-linejoin="round"/>
<path d="M337.015 80.438H314.658V217.382H337.015C338.634 217.383 340.238 217.066 341.735 216.447C343.231 215.829 344.591 214.922 345.736 213.778C346.882 212.635 347.79 211.277 348.41 209.783C349.03 208.288 349.349 206.686 349.349 205.069V92.7516C349.349 91.1339 349.03 89.5321 348.41 88.0377C347.79 86.5432 346.882 85.1855 345.736 84.0419C344.591 82.8984 343.231 81.9916 341.735 81.3732C340.238 80.7548 338.634 80.437 337.015 80.438Z" fill="#263238" stroke="#263238" stroke-width="1.25903" stroke-linecap="round" stroke-linejoin="round"/>
<path d="M332.356 80.438H144.615C137.807 80.438 132.288 85.951 132.288 92.7516V205.076C132.288 211.877 137.807 217.39 144.615 217.39H332.356C339.164 217.39 344.683 211.877 344.683 205.076V92.7516C344.683 85.951 339.164 80.438 332.356 80.438Z" fill="#1CC2C4" stroke="#263238" stroke-width="1.25903" stroke-linecap="round" stroke-linejoin="round"/>
<path d="M328.03 85.0778H326.126C324.326 85.0778 322.866 86.5356 322.866 88.3338V90.2356C322.866 92.0339 324.326 93.4916 326.126 93.4916H328.03C329.83 93.4916 331.289 92.0339 331.289 90.2356V88.3338C331.289 86.5356 329.83 85.0778 328.03 85.0778Z" fill="#999999" stroke="#263238" stroke-width="1.25903" stroke-linecap="round" stroke-linejoin="round"/>
<mask id="mask8_692_1403" style="mask-type:luminance" maskUnits="userSpaceOnUse" x="143" y="85" width="9" height="9">
<path d="M151.904 89.2884C151.904 90.1215 151.657 90.9359 151.193 91.6285C150.73 92.3211 150.071 92.8607 149.3 93.1792C148.529 93.4977 147.682 93.5806 146.864 93.4176C146.046 93.2545 145.295 92.8527 144.706 92.2631C144.116 91.6735 143.716 90.9226 143.554 90.1053C143.392 89.2881 143.476 88.4412 143.797 87.672C144.117 86.9027 144.658 86.2456 145.352 85.7838C146.047 85.3221 146.862 85.0764 147.696 85.0778C148.249 85.0778 148.797 85.1868 149.308 85.3985C149.819 85.6102 150.283 85.9204 150.674 86.3115C151.065 86.7026 151.375 87.1668 151.586 87.6777C151.797 88.1885 151.905 88.7358 151.904 89.2884Z" fill="white"/>
</mask>
<g mask="url(#mask8_692_1403)">
<path opacity="0.5" d="M151.904 89.2884C151.904 90.1215 151.657 90.9359 151.193 91.6285C150.73 92.3211 150.071 92.8607 149.3 93.1792C148.529 93.4977 147.682 93.5806 146.864 93.4176C146.046 93.2545 145.295 92.8527 144.706 92.2631C144.116 91.6735 143.716 90.9226 143.554 90.1053C143.392 89.2881 143.476 88.4412 143.797 87.672C144.117 86.9027 144.658 86.2456 145.352 85.7838C146.047 85.3221 146.862 85.0764 147.696 85.0778C148.249 85.0778 148.797 85.1868 149.308 85.3985C149.819 85.6102 150.283 85.9204 150.674 86.3115C151.065 86.7026 151.375 87.1668 151.586 87.6777C151.797 88.1885 151.905 88.7358 151.904 89.2884Z" fill="black"/>
</g>
<path d="M151.904 89.2884C151.904 90.1215 151.657 90.9359 151.193 91.6285C150.73 92.3211 150.071 92.8607 149.3 93.1792C148.529 93.4977 147.682 93.5806 146.864 93.4176C146.046 93.2545 145.295 92.8527 144.706 92.2631C144.116 91.6735 143.716 90.9226 143.554 90.1053C143.392 89.2881 143.476 88.4412 143.797 87.672C144.117 86.9027 144.658 86.2456 145.352 85.7838C146.047 85.3221 146.862 85.0764 147.696 85.0778C148.249 85.0778 148.797 85.1868 149.308 85.3985C149.819 85.6102 150.283 85.9204 150.674 86.3115C151.065 86.7026 151.375 87.1668 151.586 87.6777C151.797 88.1885 151.905 88.7358 151.904 89.2884Z" stroke="#263238" stroke-width="1.25903" stroke-linecap="round" stroke-linejoin="round"/>
<mask id="mask9_692_1403" style="mask-type:luminance" maskUnits="userSpaceOnUse" x="169" y="85" width="10" height="9">
<path d="M173.869 93.499C176.197 93.499 178.084 91.6139 178.084 89.2884C178.084 86.963 176.197 85.0778 173.869 85.0778C171.541 85.0778 169.654 86.963 169.654 89.2884C169.654 91.6139 171.541 93.499 173.869 93.499Z" fill="white"/>
</mask>
<g mask="url(#mask9_692_1403)">
<path opacity="0.5" d="M173.869 93.499C176.197 93.499 178.084 91.6139 178.084 89.2884C178.084 86.963 176.197 85.0778 173.869 85.0778C171.541 85.0778 169.654 86.963 169.654 89.2884C169.654 91.6139 171.541 93.499 173.869 93.499Z" fill="white" stroke="#263238" stroke-width="1.25903" stroke-linecap="round" stroke-linejoin="round"/>
</g>
<path d="M173.869 93.499C176.197 93.499 178.084 91.6139 178.084 89.2884C178.084 86.963 176.197 85.0778 173.869 85.0778C171.541 85.0778 169.654 86.963 169.654 89.2884C169.654 91.6139 171.541 93.499 173.869 93.499Z" stroke="#263238" stroke-width="1.25903" stroke-linecap="round" stroke-linejoin="round"/>
<path d="M160.779 93.499C163.107 93.499 164.994 91.6139 164.994 89.2884C164.994 86.963 163.107 85.0778 160.779 85.0778C158.451 85.0778 156.563 86.963 156.563 89.2884C156.563 91.6139 158.451 93.499 160.779 93.499Z" stroke="#263238" stroke-width="1.25903" stroke-linecap="round" stroke-linejoin="round"/>
<path d="M332.356 98.1388H144.622C140.903 98.1388 137.888 101.15 137.888 104.865V205.069C137.888 208.784 140.903 211.795 144.622 211.795H332.356C336.075 211.795 339.09 208.784 339.09 205.069V104.865C339.09 101.15 336.075 98.1388 332.356 98.1388Z" fill="#1CC2C4"/>
<mask id="mask10_692_1403" style="mask-type:luminance" maskUnits="userSpaceOnUse" x="137" y="98" width="203" height="114">
<path d="M332.356 98.1388H144.622C140.903 98.1388 137.888 101.15 137.888 104.865V205.069C137.888 208.784 140.903 211.795 144.622 211.795H332.356C336.075 211.795 339.09 208.784 339.09 205.069V104.865C339.09 101.15 336.075 98.1388 332.356 98.1388Z" fill="white"/>
</mask>
<g mask="url(#mask10_692_1403)">
<path opacity="0.3" d="M332.356 98.1388H144.622C140.903 98.1388 137.888 101.15 137.888 104.865V205.069C137.888 208.784 140.903 211.795 144.622 211.795H332.356C336.075 211.795 339.09 208.784 339.09 205.069V104.865C339.09 101.15 336.075 98.1388 332.356 98.1388Z" fill="black"/>
</g>
<path d="M332.356 98.1388H144.622C140.903 98.1388 137.888 101.15 137.888 104.865V205.069C137.888 208.784 140.903 211.795 144.622 211.795H332.356C336.075 211.795 339.09 208.784 339.09 205.069V104.865C339.09 101.15 336.075 98.1388 332.356 98.1388Z" stroke="#263238" stroke-width="1.25903" stroke-linecap="round" stroke-linejoin="round"/>
<path d="M195.537 102.793H144.615C143.473 102.793 142.548 103.718 142.548 104.858V205.069C142.548 206.209 143.473 207.133 144.615 207.133H195.537C196.679 207.133 197.604 206.209 197.604 205.069V104.858C197.604 103.718 196.679 102.793 195.537 102.793Z" fill="#999999" stroke="#263238" stroke-width="1.25903" stroke-linecap="round" stroke-linejoin="round"/>
<path d="M266.891 102.793H209.434C208.293 102.793 207.368 103.718 207.368 104.858V205.069C207.368 206.209 208.293 207.133 209.434 207.133H266.891C268.032 207.133 268.958 206.209 268.958 205.069V104.858C268.958 103.718 268.032 102.793 266.891 102.793Z" fill="#1CC2C4"/>
<mask id="mask11_692_1403" style="mask-type:luminance" maskUnits="userSpaceOnUse" x="207" y="102" width="62" height="106">
<path d="M266.891 102.793H209.434C208.293 102.793 207.368 103.718 207.368 104.858V205.069C207.368 206.209 208.293 207.133 209.434 207.133H266.891C268.032 207.133 268.958 206.209 268.958 205.069V104.858C268.958 103.718 268.032 102.793 266.891 102.793Z" fill="white"/>
</mask>
<g mask="url(#mask11_692_1403)">
<path opacity="0.8" d="M266.891 102.793H209.434C208.293 102.793 207.368 103.718 207.368 104.858V205.069C207.368 206.209 208.293 207.133 209.434 207.133H266.891C268.032 207.133 268.958 206.209 268.958 205.069V104.858C268.958 103.718 268.032 102.793 266.891 102.793Z" fill="white"/>
</g>
<path d="M266.891 102.793H209.434C208.293 102.793 207.368 103.718 207.368 104.858V205.069C207.368 206.209 208.293 207.133 209.434 207.133H266.891C268.032 207.133 268.958 206.209 268.958 205.069V104.858C268.958 103.718 268.032 102.793 266.891 102.793Z" stroke="#263238" stroke-width="1.25903" stroke-linecap="round" stroke-linejoin="round"/>
<path d="M329.407 102.793H282.967C282.467 102.795 281.988 102.995 281.636 103.349C281.283 103.702 281.085 104.181 281.085 104.68V110.364H331.289V104.68C331.289 104.181 331.091 103.702 330.738 103.349C330.386 102.995 329.907 102.795 329.407 102.793Z" fill="#1CC2C4" stroke="#263238" stroke-width="1.25903" stroke-linecap="round" stroke-linejoin="round"/>
<path d="M324.955 105.08H329.43" stroke="#263238" stroke-width="1.25903" stroke-linecap="round" stroke-linejoin="round"/>
<path d="M324.955 106.575H329.43" stroke="#263238" stroke-width="1.25903" stroke-linecap="round" stroke-linejoin="round"/>
<path d="M329.43 108.062H324.955" stroke="#263238" stroke-width="1.25903" stroke-linecap="round" stroke-linejoin="round"/>
<path d="M306.191 110.364L305.028 105.65C304.826 104.835 304.356 104.11 303.694 103.593C303.033 103.075 302.216 102.794 301.376 102.793H282.967C282.467 102.795 281.988 102.995 281.636 103.349C281.283 103.702 281.085 104.181 281.085 104.68V133.074C281.085 133.573 281.283 134.051 281.636 134.403C281.989 134.756 282.468 134.954 282.967 134.954H329.407C329.906 134.954 330.385 134.756 330.738 134.403C331.091 134.051 331.289 133.573 331.289 133.074V110.364H306.191Z" fill="#999999" stroke="#263238" stroke-width="1.25903" stroke-linecap="round" stroke-linejoin="round"/>
<path d="M141.762 200.984H161.112C161.549 200.984 161.897 200.799 161.897 200.57V180.516C161.897 180.286 161.549 180.101 161.112 180.101H141.762C141.333 180.101 140.977 180.286 140.977 180.516V200.54C140.977 200.799 141.31 200.984 141.762 200.984Z" fill="#1CC2C4"/>
<mask id="mask12_692_1403" style="mask-type:luminance" maskUnits="userSpaceOnUse" x="140" y="180" width="22" height="21">
<path d="M141.762 200.984H161.112C161.549 200.984 161.897 200.799 161.897 200.57V180.516C161.897 180.286 161.549 180.101 161.112 180.101H141.762C141.333 180.101 140.977 180.286 140.977 180.516V200.54C140.977 200.799 141.31 200.984 141.762 200.984Z" fill="white"/>
</mask>
<g mask="url(#mask12_692_1403)">
<path opacity="0.3" d="M141.762 200.984H161.112C161.549 200.984 161.897 200.799 161.897 200.57V180.516C161.897 180.286 161.549 180.101 161.112 180.101H141.762C141.333 180.101 140.977 180.286 140.977 180.516V200.54C140.977 200.799 141.31 200.984 141.762 200.984Z" fill="black"/>
</g>
<path d="M141.762 200.984H161.112C161.549 200.984 161.897 200.799 161.897 200.57V180.516C161.897 180.286 161.549 180.101 161.112 180.101H141.762C141.333 180.101 140.977 180.286 140.977 180.516V200.54C140.977 200.799 141.31 200.984 141.762 200.984Z" stroke="#263238" stroke-width="1.25903" stroke-linecap="round" stroke-linejoin="round"/>
<path d="M165.986 200.984H185.336C185.766 200.984 186.121 200.799 186.121 200.57V180.516C186.121 180.286 185.766 180.101 185.336 180.101H165.986C165.549 180.101 165.201 180.286 165.201 180.516V200.54C165.201 200.799 165.549 200.984 165.986 200.984Z" fill="#1CC2C4" stroke="#263238" stroke-width="1.25903" stroke-linecap="round" stroke-linejoin="round"/>
<path d="M151.089 176.653H170.439C170.876 176.653 171.224 176.468 171.224 176.238V156.184C171.224 155.955 170.876 155.77 170.439 155.77H151.089C150.659 155.77 150.304 155.955 150.304 156.184V176.238C150.304 176.468 150.659 176.653 151.089 176.653Z" fill="#1CC2C4" stroke="#263238" stroke-width="1.25903" stroke-linecap="round" stroke-linejoin="round"/>
<path d="M175.313 176.653H194.648C195.078 176.653 195.433 176.468 195.433 176.238V156.184C195.433 155.955 195.078 155.77 194.648 155.77H175.313C174.876 155.77 174.528 155.955 174.528 156.184V176.238C174.528 176.468 174.876 176.653 175.313 176.653Z" fill="#1CC2C4" stroke="#263238" stroke-width="1.25903" stroke-linecap="round" stroke-linejoin="round"/>
<path d="M149.222 152.322H168.572C169.009 152.322 169.365 152.137 169.365 151.907V131.853C169.365 131.624 169.009 131.439 168.572 131.439H149.222C148.793 131.439 148.437 131.624 148.437 131.853V151.907C148.437 152.137 148.793 152.322 149.222 152.322Z" fill="#1CC2C4"/>
<mask id="mask13_692_1403" style="mask-type:luminance" maskUnits="userSpaceOnUse" x="148" y="131" width="22" height="22">
<path d="M149.222 152.322H168.572C169.009 152.322 169.365 152.137 169.365 151.907V131.853C169.365 131.624 169.009 131.439 168.572 131.439H149.222C148.793 131.439 148.437 131.624 148.437 131.853V151.907C148.437 152.137 148.793 152.322 149.222 152.322Z" fill="white"/>
</mask>
<g mask="url(#mask13_692_1403)">
<path opacity="0.5" d="M149.222 152.322H168.572C169.009 152.322 169.365 152.137 169.365 151.907V131.853C169.365 131.624 169.009 131.439 168.572 131.439H149.222C148.793 131.439 148.437 131.624 148.437 131.853V151.907C148.437 152.137 148.793 152.322 149.222 152.322Z" fill="white"/>
</g>
<path d="M149.222 152.322H168.572C169.009 152.322 169.365 152.137 169.365 151.907V131.853C169.365 131.624 169.009 131.439 168.572 131.439H149.222C148.793 131.439 148.437 131.624 148.437 131.853V151.907C148.437 152.137 148.793 152.322 149.222 152.322Z" stroke="#263238" stroke-width="1.25903" stroke-linecap="round" stroke-linejoin="round"/>
<path d="M173.446 152.322H192.796C193.233 152.322 193.581 152.137 193.581 151.907V131.853C193.581 131.624 193.233 131.439 192.796 131.439H173.446C173.009 131.439 172.661 131.624 172.661 131.853V151.907C172.661 152.137 173.009 152.322 173.446 152.322Z" fill="#1CC2C4" stroke="#263238" stroke-width="1.25903" stroke-linecap="round" stroke-linejoin="round"/>
<path d="M149.222 128.02H168.572C169.009 128.02 169.365 127.835 169.365 127.606V107.522C169.365 107.293 169.009 107.108 168.572 107.108H149.222C148.793 107.108 148.437 107.293 148.437 107.522V127.576C148.437 127.805 148.793 128.02 149.222 128.02Z" fill="#1CC2C4" stroke="#263238" stroke-width="1.25903" stroke-linecap="round" stroke-linejoin="round"/>
<path d="M173.446 128.02H192.796C193.233 128.02 193.581 127.835 193.581 127.606V107.522C193.581 107.293 193.233 107.108 192.796 107.108H173.446C173.009 107.108 172.661 107.293 172.661 107.522V127.576C172.661 127.805 173.009 128.02 173.446 128.02Z" fill="#1CC2C4"/>
<mask id="mask14_692_1403" style="mask-type:luminance" maskUnits="userSpaceOnUse" x="172" y="107" width="22" height="22">
<path d="M173.446 128.02H192.796C193.233 128.02 193.581 127.835 193.581 127.606V107.522C193.581 107.293 193.233 107.108 192.796 107.108H173.446C173.009 107.108 172.661 107.293 172.661 107.522V127.576C172.661 127.805 173.009 128.02 173.446 128.02Z" fill="white"/>
</mask>
<g mask="url(#mask14_692_1403)">
<path opacity="0.7" d="M173.446 128.02H192.796C193.233 128.02 193.581 127.835 193.581 127.606V107.522C193.581 107.293 193.233 107.108 192.796 107.108H173.446C173.009 107.108 172.661 107.293 172.661 107.522V127.576C172.661 127.805 173.009 128.02 173.446 128.02Z" fill="white"/>
</g>
<path d="M173.446 128.02H192.796C193.233 128.02 193.581 127.835 193.581 127.606V107.522C193.581 107.293 193.233 107.108 192.796 107.108H173.446C173.009 107.108 172.661 107.293 172.661 107.522V127.576C172.661 127.805 173.009 128.02 173.446 128.02Z" stroke="#263238" stroke-width="1.25903" stroke-linecap="round" stroke-linejoin="round"/>
<path d="M325.303 182.78H278.87C278.37 182.784 277.892 182.984 277.539 183.337C277.185 183.69 276.985 184.168 276.981 184.667V213.12C276.981 213.368 277.03 213.613 277.125 213.842C277.22 214.071 277.359 214.279 277.534 214.454C277.71 214.63 277.918 214.769 278.147 214.863C278.376 214.958 278.622 215.007 278.87 215.007H325.303C325.804 215.005 326.283 214.806 326.637 214.452C326.991 214.099 327.19 213.62 327.192 213.12V184.689C327.194 184.44 327.147 184.192 327.053 183.961C326.959 183.73 326.82 183.52 326.645 183.343C326.469 183.165 326.26 183.024 326.03 182.928C325.8 182.831 325.553 182.781 325.303 182.78Z" fill="#263238" stroke="#263238" stroke-width="1.25903" stroke-linecap="round" stroke-linejoin="round"/>
<path d="M322.177 181.877H275.744C275.244 181.877 274.764 182.075 274.41 182.427C274.056 182.78 273.856 183.258 273.854 183.757V189.44H324.066V183.757C324.064 183.258 323.864 182.78 323.51 182.427C323.156 182.075 322.677 181.877 322.177 181.877Z" fill="#1CC2C4" stroke="#263238" stroke-width="1.25903" stroke-linecap="round" stroke-linejoin="round"/>
<path d="M317.725 184.171H322.2" stroke="#263238" stroke-width="1.25903" stroke-linecap="round" stroke-linejoin="round"/>
<path d="M317.725 185.659H322.2" stroke="#263238" stroke-width="1.25903" stroke-linecap="round" stroke-linejoin="round"/>
<path d="M322.2 187.146H317.725" stroke="#263238" stroke-width="1.25903" stroke-linecap="round" stroke-linejoin="round"/>
<path d="M298.96 189.44L297.805 184.734C297.603 183.918 297.133 183.194 296.471 182.677C295.809 182.159 294.993 181.877 294.152 181.877H275.744C275.244 181.877 274.764 182.075 274.41 182.427C274.056 182.78 273.856 183.258 273.854 183.757V212.151C273.856 212.65 274.056 213.129 274.41 213.483C274.764 213.836 275.243 214.036 275.744 214.038H322.177C322.678 214.038 323.158 213.839 323.513 213.485C323.867 213.131 324.066 212.651 324.066 212.151V189.44H298.96Z" fill="#999999" stroke="#263238" stroke-width="1.25903" stroke-linecap="round" stroke-linejoin="round"/>
<path d="M323.429 139.801H276.988C276.678 139.793 276.37 139.862 276.092 140.001C275.814 140.14 275.575 140.346 275.396 140.6C275.188 140.914 275.077 141.282 275.077 141.658V170.045C275.077 170.544 275.275 171.023 275.628 171.376C275.98 171.73 276.459 171.93 276.959 171.932H323.4C323.899 171.93 324.378 171.73 324.731 171.376C325.083 171.023 325.281 170.544 325.281 170.045V141.688C325.281 141.194 325.087 140.719 324.741 140.366C324.395 140.014 323.924 139.81 323.429 139.801Z" fill="#263238" stroke="#263238" stroke-width="1.25903" stroke-linecap="round" stroke-linejoin="round"/>
<path d="M322.177 138.439H275.744C275.244 138.439 274.764 138.637 274.41 138.989C274.056 139.342 273.856 139.82 273.854 140.319V146.002H324.066V140.319C324.064 139.82 323.864 139.342 323.51 138.989C323.156 138.637 322.677 138.439 322.177 138.439Z" fill="#1CC2C4" stroke="#263238" stroke-width="1.25903" stroke-linecap="round" stroke-linejoin="round"/>
<path d="M317.725 140.733H322.2" stroke="#263238" stroke-width="1.25903" stroke-linecap="round" stroke-linejoin="round"/>
<path d="M317.725 142.221H322.2" stroke="#263238" stroke-width="1.25903" stroke-linecap="round" stroke-linejoin="round"/>
<path d="M322.2 143.708H317.725" stroke="#263238" stroke-width="1.25903" stroke-linecap="round" stroke-linejoin="round"/>
<path d="M298.96 146.002L297.805 141.296C297.603 140.48 297.133 139.756 296.471 139.239C295.809 138.721 294.993 138.439 294.152 138.439H275.744C275.244 138.439 274.764 138.637 274.41 138.989C274.056 139.342 273.856 139.82 273.854 140.319V168.72C273.854 169.22 274.054 169.7 274.408 170.054C274.762 170.408 275.243 170.607 275.744 170.607H322.177C322.678 170.607 323.158 170.408 323.513 170.054C323.867 169.7 324.066 169.22 324.066 168.72V146.002H298.96Z" fill="#999999" stroke="#263238" stroke-width="1.25903" stroke-linecap="round" stroke-linejoin="round"/>
<path d="M148.089 225.922H167.439C167.876 225.922 168.224 225.737 168.224 225.508V205.454C168.224 205.224 167.876 205.039 167.439 205.039H148.089C147.659 205.039 147.304 205.224 147.304 205.454V225.508C147.304 225.737 147.659 225.922 148.089 225.922Z" fill="#1CC2C4" stroke="#263238" stroke-width="1.25903" stroke-linecap="round" stroke-linejoin="round"/>
<path d="M297.079 206.889H250.638C250.137 206.889 249.657 207.088 249.302 207.442C248.948 207.796 248.749 208.276 248.749 208.776V214.452H298.961V208.776C298.961 208.277 298.762 207.798 298.41 207.445C298.057 207.091 297.579 206.891 297.079 206.889Z" fill="#1CC2C4" stroke="#263238" stroke-width="1.25903" stroke-linecap="round" stroke-linejoin="round"/>
<path d="M292.619 209.183H297.094" stroke="#263238" stroke-width="1.25903" stroke-linecap="round" stroke-linejoin="round"/>
<path d="M292.619 210.671H297.094" stroke="#263238" stroke-width="1.25903" stroke-linecap="round" stroke-linejoin="round"/>
<path d="M297.094 212.158H292.619" stroke="#263238" stroke-width="1.25903" stroke-linecap="round" stroke-linejoin="round"/>
<path d="M273.855 214.452L272.699 209.746C272.497 208.93 272.028 208.206 271.366 207.689C270.704 207.171 269.888 206.889 269.047 206.889H250.638C250.137 206.889 249.657 207.088 249.302 207.442C248.948 207.796 248.749 208.276 248.749 208.776V237.163C248.749 237.663 248.948 238.143 249.302 238.497C249.657 238.851 250.137 239.05 250.638 239.05H297.079C297.579 239.048 298.057 238.848 298.41 238.494C298.762 238.141 298.961 237.662 298.961 237.163V214.452H273.855Z" fill="#999999" stroke="#263238" stroke-width="1.25903" stroke-linecap="round" stroke-linejoin="round"/>
<path d="M331.289 75.1322H334.786" stroke="#263238" stroke-width="1.25903" stroke-linecap="round" stroke-linejoin="round"/>
<path d="M317.725 75.1322H327.193" stroke="#263238" stroke-width="1.25903" stroke-linecap="round" stroke-linejoin="round"/>
<path d="M215.879 75.1322H309.457" stroke="#263238" stroke-width="1.25903" stroke-linecap="round" stroke-linejoin="round"/>
<path d="M205.308 75.1322H210.901" stroke="#263238" stroke-width="1.25903" stroke-linecap="round" stroke-linejoin="round"/>
<path d="M258.135 188.552C258.194 187.812 258.231 187.072 258.231 186.332C258.231 185.592 258.194 184.852 258.135 184.112L251.245 183.224C250.883 180.61 250.063 178.08 248.823 175.75L253.912 170.94C253.121 169.664 252.234 168.449 251.26 167.307L245.156 170.629C243.322 168.731 241.171 167.166 238.8 166.004L240.081 159.181C238.692 158.61 237.261 158.147 235.8 157.798L232.836 164.073C230.237 163.609 227.576 163.609 224.976 164.073L222.013 157.798C220.552 158.147 219.121 158.61 217.731 159.181L219.013 166.004C216.642 167.166 214.491 168.731 212.657 170.629L206.501 167.292C205.518 168.437 204.627 169.657 203.834 170.94L208.886 175.706C207.641 178.034 206.818 180.564 206.456 183.18L199.567 184.068C199.508 184.808 199.471 185.548 199.471 186.288C199.471 187.028 199.508 187.768 199.567 188.508L206.456 189.403C206.819 192.016 207.642 194.543 208.886 196.87L203.834 201.643C204.62 202.92 205.504 204.135 206.479 205.276L212.583 201.946C214.415 203.847 216.566 205.412 218.939 206.571L217.657 213.394C219.046 213.968 220.478 214.433 221.939 214.785L224.902 208.502C227.502 208.966 230.163 208.966 232.762 208.502L235.725 214.785C237.187 214.433 238.618 213.968 240.007 213.394L238.726 206.571C241.099 205.412 243.25 203.847 245.082 201.946L251.186 205.276C252.16 204.133 253.047 202.919 253.838 201.643L248.786 196.87C250.033 194.555 250.866 192.041 251.245 189.44L258.135 188.552ZM228.851 169.534C231.424 169.538 233.961 170.135 236.266 171.277C238.57 172.419 240.581 174.076 242.141 176.12L231.34 181.1C230.562 180.73 229.712 180.538 228.851 180.538C227.99 180.538 227.139 180.73 226.362 181.1L215.561 176.12C217.122 174.077 219.132 172.421 221.437 171.279C223.741 170.137 226.278 169.54 228.851 169.534ZM212.064 186.302C212.064 184.138 212.484 181.994 213.301 179.99L223.073 186.872C223.154 187.7 223.414 188.501 223.833 189.22C224.252 189.939 224.822 190.559 225.502 191.038L226.584 202.878C222.567 202.335 218.883 200.356 216.214 197.309C213.545 194.262 212.071 190.352 212.064 186.302ZM231.118 202.901L232.199 191.061C232.881 190.583 233.452 189.963 233.871 189.243C234.291 188.524 234.549 187.723 234.629 186.894L244.4 180.012C245.371 182.381 245.785 184.939 245.611 187.492C245.437 190.045 244.679 192.525 243.397 194.74C242.114 196.955 240.341 198.847 238.212 200.271C236.083 201.694 233.657 202.612 231.118 202.952V202.901Z" fill="#263238" stroke="#263238" stroke-width="1.25903" stroke-linecap="round" stroke-linejoin="round"/>
<path d="M231.296 186.302C231.297 186.786 231.155 187.259 230.887 187.661C230.619 188.064 230.238 188.378 229.792 188.564C229.345 188.75 228.853 188.799 228.379 188.706C227.904 188.612 227.468 188.38 227.125 188.039C226.782 187.698 226.549 187.263 226.454 186.789C226.359 186.315 226.407 185.824 226.592 185.377C226.776 184.93 227.09 184.549 227.492 184.28C227.894 184.011 228.367 183.868 228.851 183.868C229.498 183.868 230.119 184.124 230.577 184.58C231.035 185.037 231.294 185.656 231.296 186.302Z" fill="white" stroke="#263238" stroke-width="1.25903" stroke-linecap="round" stroke-linejoin="round"/>
<path d="M258.039 137.958C258.083 137.425 258.105 136.893 258.105 136.345C258.105 135.797 258.105 135.272 258.039 134.739L253.112 134.103C252.854 132.234 252.267 130.425 251.379 128.76L254.994 125.349C254.428 124.436 253.795 123.568 253.097 122.751L248.727 125.134C247.417 123.773 245.877 122.654 244.178 121.826L245.097 116.942C244.11 116.539 243.095 116.21 242.06 115.958L239.926 120.442C238.067 120.107 236.163 120.107 234.303 120.442L232.177 115.958C231.127 116.2 230.097 116.521 229.096 116.92L230.014 121.804C228.318 122.631 226.78 123.751 225.473 125.112L221.11 122.729C220.41 123.544 219.776 124.412 219.213 125.326L222.799 128.76C221.914 130.426 221.327 132.235 221.065 134.103L216.139 134.739C216.102 135.272 216.072 135.805 216.072 136.345C216.072 136.885 216.072 137.425 216.139 137.958L221.065 138.595C221.327 140.463 221.914 142.271 222.799 143.937L219.191 147.349C219.756 148.259 220.39 149.125 221.087 149.939L225.451 147.563C226.762 148.92 228.298 150.039 229.992 150.871L229.073 155.748C230.068 156.159 231.093 156.491 232.14 156.739L234.266 152.255C236.126 152.58 238.029 152.58 239.889 152.255L242.023 156.739C243.067 156.489 244.09 156.158 245.082 155.748L244.163 150.871C245.859 150.039 247.398 148.92 248.712 147.563L253.075 149.939C253.771 149.123 254.404 148.258 254.972 147.349L251.357 143.937C252.245 142.272 252.832 140.464 253.09 138.595L258.039 137.958ZM237.104 124.357C238.94 124.358 240.752 124.781 242.399 125.593C244.046 126.405 245.483 127.585 246.601 129.041L238.882 132.601C238.326 132.337 237.719 132.201 237.104 132.201C236.489 132.201 235.881 132.337 235.326 132.601L227.599 129.041C228.717 127.584 230.156 126.404 231.805 125.592C233.453 124.78 235.266 124.357 237.104 124.357ZM225.095 136.345C225.095 134.797 225.397 133.264 225.984 131.831L232.97 136.752C233.03 137.342 233.216 137.911 233.517 138.422C233.817 138.933 234.224 139.373 234.711 139.712L235.452 148.192C232.586 147.796 229.959 146.379 228.056 144.202C226.153 142.026 225.102 139.235 225.095 136.345ZM238.719 148.185L239.496 139.705C239.981 139.363 240.387 138.923 240.687 138.412C240.987 137.902 241.175 137.333 241.237 136.745L248.216 131.824C248.907 133.516 249.202 135.344 249.077 137.168C248.951 138.991 248.409 140.762 247.492 142.344C246.575 143.926 245.308 145.277 243.787 146.293C242.266 147.309 240.532 147.964 238.719 148.207V148.185Z" fill="#757575" stroke="#263238" stroke-width="1.25903" stroke-linecap="round" stroke-linejoin="round"/>
<path d="M237.103 138.091C238.069 138.091 238.852 137.31 238.852 136.345C238.852 135.381 238.069 134.599 237.103 134.599C236.138 134.599 235.355 135.381 235.355 136.345C235.355 137.31 236.138 138.091 237.103 138.091Z" fill="white" stroke="#263238" stroke-width="1.25903" stroke-linecap="round" stroke-linejoin="round"/>
<path d="M204.33 208.11C204.33 207.755 204.382 207.37 204.382 207.045C204.382 206.719 204.382 206.305 204.33 205.972L201.049 205.542C200.878 204.297 200.487 203.092 199.893 201.983L202.301 199.711C201.926 199.103 201.505 198.524 201.041 197.98L198.13 199.563C197.256 198.654 196.231 197.903 195.1 197.343L195.707 194.095C195.047 193.819 194.366 193.596 193.67 193.429L192.248 196.389C191.63 196.275 191.002 196.218 190.374 196.218C189.745 196.219 189.118 196.276 188.499 196.389L187.085 193.429C186.387 193.597 185.703 193.82 185.04 194.095L185.655 197.343C184.523 197.901 183.497 198.652 182.625 199.563L179.714 197.98C179.248 198.522 178.827 199.101 178.454 199.711L180.862 201.983C180.266 203.091 179.872 204.296 179.699 205.542L176.417 205.972C176.417 206.327 176.373 206.712 176.373 207.045C176.373 207.378 176.373 207.785 176.417 208.11L179.699 208.539C179.872 209.785 180.266 210.991 180.862 212.099L178.447 214.371C178.824 214.979 179.248 215.558 179.714 216.102L182.625 214.519C183.495 215.432 184.521 216.184 185.655 216.739L185.04 219.987C185.703 220.262 186.387 220.485 187.085 220.653L188.499 217.656C189.118 217.769 189.745 217.826 190.374 217.826C191.002 217.827 191.63 217.77 192.248 217.656L193.67 220.653C194.366 220.486 195.047 220.263 195.707 219.987L195.1 216.739C196.232 216.182 197.258 215.43 198.13 214.519L201.041 216.102C201.505 215.558 201.926 214.979 202.301 214.371L199.893 212.099C200.487 210.99 200.878 209.785 201.049 208.539L204.33 208.11ZM190.374 199.06C191.599 199.059 192.807 199.341 193.906 199.882C195.004 200.424 195.963 201.211 196.708 202.183L191.559 204.558C191.189 204.381 190.784 204.29 190.374 204.292C189.964 204.292 189.559 204.383 189.188 204.558L184.04 202.183C184.786 201.212 185.745 200.426 186.843 199.885C187.941 199.343 189.149 199.061 190.374 199.06ZM182.373 207.059C182.374 206.027 182.575 205.004 182.966 204.048L187.618 207.326C187.658 207.721 187.783 208.104 187.983 208.447C188.184 208.79 188.456 209.087 188.781 209.316L189.3 214.97C187.38 214.71 185.62 213.764 184.347 212.306C183.073 210.849 182.372 208.979 182.373 207.045V207.059ZM191.455 214.97L191.974 209.316C192.298 209.086 192.569 208.79 192.768 208.446C192.967 208.103 193.091 207.721 193.129 207.326L197.789 204.048C198.247 205.176 198.441 206.394 198.356 207.609C198.271 208.824 197.909 210.003 197.298 211.057C196.687 212.111 195.843 213.011 194.83 213.689C193.818 214.368 192.663 214.806 191.455 214.97Z" fill="white" stroke="#263238" stroke-width="1.25903" stroke-linecap="round" stroke-linejoin="round"/>
<path d="M191.537 207.045C191.537 207.274 191.468 207.499 191.341 207.69C191.213 207.881 191.031 208.03 190.819 208.118C190.606 208.206 190.372 208.229 190.147 208.184C189.921 208.139 189.714 208.029 189.551 207.866C189.388 207.704 189.278 207.497 189.233 207.271C189.188 207.046 189.211 206.812 189.299 206.6C189.387 206.388 189.536 206.206 189.727 206.079C189.919 205.951 190.143 205.883 190.374 205.883C190.682 205.883 190.978 206.005 191.196 206.223C191.414 206.441 191.537 206.736 191.537 207.045Z" stroke="#263238" stroke-width="1.25903" stroke-linecap="round" stroke-linejoin="round"/>
<path d="M102.67 213.682L137.081 210.841L119.138 282.103L91.9881 324.653L81.0391 318.94C81.0391 318.94 93.7957 287.594 103.122 276.101C103.122 276.101 105.108 253.346 106.915 241.432C106.915 241.432 103.53 224.79 102.67 213.682Z" fill="#858585"/>
<mask id="mask15_692_1403" style="mask-type:luminance" maskUnits="userSpaceOnUse" x="81" y="210" width="57" height="115">
<path d="M102.67 213.682L137.081 210.841L119.138 282.103L91.9881 324.653L81.0391 318.94C81.0391 318.94 93.7957 287.594 103.122 276.101C103.122 276.101 105.108 253.346 106.915 241.432C106.915 241.432 103.53 224.79 102.67 213.682Z" fill="white"/>
</mask>
<g mask="url(#mask15_692_1403)">
<path d="M126.576 211.707L111.679 212.935C111.679 212.935 110.493 228.349 121.916 240.078L127.235 249.928L132.532 228.882L126.576 211.707Z" fill="#263238" stroke="#263238" stroke-width="1.25903" stroke-linecap="round" stroke-linejoin="round"/>
</g>
<path d="M102.67 213.682L137.081 210.841L119.138 282.103L91.9881 324.653L81.0391 318.94C81.0391 318.94 93.7957 287.594 103.122 276.101C103.122 276.101 105.108 253.346 106.915 241.432C106.915 241.432 103.53 224.79 102.67 213.682Z" stroke="#263238" stroke-width="1.25903" stroke-linecap="round" stroke-linejoin="round"/>
<path d="M102.789 281.237C102.145 281.589 101.554 282.03 101.034 282.547" stroke="#263238" stroke-width="1.25903" stroke-linecap="round" stroke-linejoin="round"/>
<path d="M105.456 275.791C105.456 275.791 112.168 274.621 113.553 279.283C114.642 282.932 109.753 279.498 104.923 280.482" stroke="#263238" stroke-width="1.25903" stroke-linecap="round" stroke-linejoin="round"/>
<path d="M113.56 213.631L141.059 209.642L159.001 265.986L174.01 316.72L161.668 321.53C161.668 321.53 147.133 290.139 143.785 273.038C143.785 273.038 130.369 250.216 125.606 239.257C121.826 236.141 118.785 232.226 116.702 227.795C114.619 223.364 113.546 218.526 113.56 213.631Z" fill="#999999" stroke="#263238" stroke-width="1.25903" stroke-linecap="round" stroke-linejoin="round"/>
<path d="M138.962 238.805C140.163 238.941 141.31 239.379 142.296 240.078" stroke="#263238" stroke-width="1.25903" stroke-linecap="round" stroke-linejoin="round"/>
<path d="M136.392 232.308C134.406 233.988 126.443 234.654 128.31 237.903C129.421 239.834 132.517 239.02 135.829 238.776" stroke="#263238" stroke-width="1.25903" stroke-linecap="round" stroke-linejoin="round"/>
<path d="M145.622 271.832C145.622 271.832 149.682 269.264 152.949 271.832" stroke="#263238" stroke-width="1.25903" stroke-linecap="round" stroke-linejoin="round"/>
<path d="M95.5069 341.451L71.8457 328.057L72.4976 326.51L73.4384 326.791C73.4384 326.791 74.9719 324.571 78.7796 319.924C79.8387 316.622 81.422 313.512 83.4689 310.711C83.4689 310.711 98.4849 315.469 96.0625 321.123L92.8548 326.71C94.3225 329.189 95.9302 331.583 97.67 333.881C97.67 333.881 101.196 336.145 102.115 336.337C102.534 336.4 102.934 336.551 103.289 336.781C103.645 337.011 103.946 337.314 104.175 337.67C104.403 338.026 104.552 338.427 104.612 338.846C104.672 339.264 104.641 339.691 104.522 340.097L105.434 340.289L104.856 341.902L95.5069 341.451Z" fill="#1CC2C4" stroke="#263238" stroke-width="1.25903" stroke-linecap="round" stroke-linejoin="round"/>
<path d="M88.7141 312.805C87.0044 312.003 85.248 311.303 83.4544 310.711C81.4075 313.512 79.8242 316.622 78.7651 319.924C85.099 323.846 88.7141 312.805 88.7141 312.805Z" fill="#1CC2C4"/>
<mask id="mask16_692_1403" style="mask-type:luminance" maskUnits="userSpaceOnUse" x="78" y="310" width="11" height="11">
<path d="M88.7141 312.805C87.0044 312.003 85.248 311.303 83.4544 310.711C81.4075 313.512 79.8242 316.622 78.7651 319.924C85.099 323.846 88.7141 312.805 88.7141 312.805Z" fill="white"/>
</mask>
<g mask="url(#mask16_692_1403)">
<path opacity="0.5" d="M88.7141 312.805C87.0044 312.003 85.248 311.303 83.4544 310.711C81.4075 313.512 79.8242 316.622 78.7651 319.924C85.099 323.846 88.7141 312.805 88.7141 312.805Z" fill="black"/>
</g>
<path d="M88.7141 312.805C87.0044 312.003 85.248 311.303 83.4544 310.711C81.4075 313.512 79.8243 316.622 78.7651 319.924C85.099 323.846 88.7141 312.805 88.7141 312.805Z" stroke="#263238" stroke-width="1.25903" stroke-linecap="round" stroke-linejoin="round"/>
<path d="M93.685 327.975C93.303 328.534 92.7775 328.98 92.1636 329.267C91.5498 329.553 90.8701 329.669 90.1958 329.603" stroke="#263238" stroke-width="1.25903" stroke-linecap="round" stroke-linejoin="round"/>
<path d="M95.0254 329.988C95.0254 329.988 94.6772 331.609 92.1362 332.319" stroke="#263238" stroke-width="1.25903" stroke-linecap="round" stroke-linejoin="round"/>
<path d="M96.3813 332.016C96.3813 332.016 96.8332 333.599 94.0996 335.065" stroke="#263238" stroke-width="1.25903" stroke-linecap="round" stroke-linejoin="round"/>
<path d="M98.2261 339.512L102.819 339.845" stroke="#263238" stroke-width="1.25903" stroke-linecap="round" stroke-linejoin="round"/>
<path d="M77.7871 329.263L95.6108 339.32L97.2183 337.277" stroke="#263238" stroke-width="1.25903" stroke-linecap="round" stroke-linejoin="round"/>
<path d="M75.0684 327.731L76.2981 328.427" stroke="#263238" stroke-width="1.25903" stroke-linecap="round" stroke-linejoin="round"/>
<path d="M159.712 319.761C159.712 319.761 173.047 311.414 175.832 316.898L178.01 322.958C178.01 322.958 188.737 324.586 192.004 323.883C192.41 323.774 192.834 323.753 193.248 323.82C193.663 323.887 194.059 324.042 194.409 324.274C194.759 324.505 195.056 324.809 195.28 325.164C195.504 325.519 195.65 325.917 195.708 326.333L196.619 326.14L196.752 327.85L165.394 339.845L164.654 338.365L165.476 337.832C165.476 337.832 164.802 335.242 163.698 329.315C161.864 326.365 160.518 323.139 159.712 319.761Z" fill="#1CC2C4" stroke="#263238" stroke-width="1.25903" stroke-linecap="round" stroke-linejoin="round"/>
<path d="M164.713 317.12C162.994 317.899 161.325 318.781 159.712 319.761C160.522 323.134 161.871 326.355 163.705 329.3C170.787 327.028 164.713 317.12 164.713 317.12Z" fill="#1CC2C4"/>
<mask id="mask17_692_1403" style="mask-type:luminance" maskUnits="userSpaceOnUse" x="159" y="317" width="9" height="13">
<path d="M164.713 317.12C162.994 317.899 161.325 318.781 159.712 319.761C160.522 323.134 161.871 326.355 163.705 329.3C170.787 327.028 164.713 317.12 164.713 317.12Z" fill="white"/>
</mask>
<g mask="url(#mask17_692_1403)">
<path opacity="0.5" d="M164.713 317.12C162.994 317.899 161.325 318.781 159.712 319.761C160.522 323.134 161.871 326.355 163.705 329.3C170.787 327.028 164.713 317.12 164.713 317.12Z" fill="black"/>
</g>
<path d="M164.713 317.12C162.994 317.899 161.325 318.781 159.712 319.761C160.522 323.134 161.871 326.355 163.705 329.3C170.787 327.028 164.713 317.12 164.713 317.12Z" stroke="#263238" stroke-width="1.25903" stroke-linecap="round" stroke-linejoin="round"/>
<path d="M192.989 327.435L194.456 326.873" stroke="#263238" stroke-width="1.25903" stroke-linecap="round" stroke-linejoin="round"/>
<path d="M172.928 335.102L191.13 328.146" stroke="#263238" stroke-width="1.25903" stroke-linecap="round" stroke-linejoin="round"/>
<path d="M166.765 337.455L169.365 336.463" stroke="#263238" stroke-width="1.25903" stroke-linecap="round" stroke-linejoin="round"/>
<path d="M179.499 323.165C179.677 323.817 179.675 324.504 179.495 325.155C179.316 325.806 178.964 326.397 178.477 326.865" stroke="#263238" stroke-width="1.25903" stroke-linecap="round" stroke-linejoin="round"/>
<path d="M181.899 323.447C181.899 323.447 182.907 324.764 181.811 327.147" stroke="#263238" stroke-width="1.25903" stroke-linecap="round" stroke-linejoin="round"/>
<path d="M184.329 323.728C184.329 323.728 185.811 324.409 185.174 327.428" stroke="#263238" stroke-width="1.25903" stroke-linecap="round" stroke-linejoin="round"/>
<path d="M94.4183 137.277C91.7143 140.432 89.9397 144.275 89.292 148.377C88.1289 155.363 82.6248 170.259 84.3953 171.369C86.1658 172.479 102.819 184.689 102.819 184.689L110.123 177.933L99.7521 164.731L104.893 142.295L94.4183 137.277Z" fill="#1CC2C4"/>
<mask id="mask18_692_1403" style="mask-type:luminance" maskUnits="userSpaceOnUse" x="84" y="137" width="27" height="48">
<path d="M94.4183 137.277C91.7143 140.432 89.9397 144.275 89.292 148.377C88.1289 155.363 82.6248 170.259 84.3953 171.369C86.1658 172.479 102.819 184.689 102.819 184.689L110.123 177.933L99.7521 164.731L104.893 142.295L94.4183 137.277Z" fill="white"/>
</mask>
<g mask="url(#mask18_692_1403)">
<path opacity="0.3" d="M94.4183 137.277C91.7143 140.432 89.9397 144.275 89.292 148.377C88.1289 155.363 82.6248 170.259 84.3953 171.369C86.1658 172.479 102.819 184.689 102.819 184.689L110.123 177.933L99.7521 164.731L104.893 142.295L94.4183 137.277Z" fill="black"/>
</g>
<path d="M94.4183 137.277C91.7143 140.432 89.9397 144.275 89.292 148.377C88.1289 155.363 82.6248 170.259 84.3953 171.369C86.1658 172.479 102.819 184.689 102.819 184.689L110.123 177.933L99.7521 164.731L104.893 142.295L94.4183 137.277Z" stroke="#263238" stroke-width="1.25903" stroke-linecap="round" stroke-linejoin="round"/>
<path d="M87.3882 168.431C88.5048 167.369 89.8884 166.629 91.3922 166.289C92.896 165.949 94.4639 166.022 95.9296 166.5" stroke="#263238" stroke-width="1.25903" stroke-linecap="round" stroke-linejoin="round"/>
<path d="M72.1348 201.687C74.1433 203.57 76.6162 204.886 79.3008 205.502C81.9854 206.117 84.7854 206.01 87.4148 205.19C90.0442 204.371 92.4086 202.868 94.2664 200.837C96.1242 198.806 97.4087 196.318 97.9888 193.628L217.924 152.285C220.042 154.045 222.589 155.212 225.305 155.667C228.022 156.121 230.811 155.847 233.387 154.873C235.963 153.898 238.233 152.258 239.967 150.119C241.7 147.981 242.834 145.421 243.252 142.702V140.837L231.689 144.825L225.644 139.579L226.94 132.919L238.504 128.938V127.073C236.496 125.188 234.022 123.87 231.337 123.253C228.651 122.637 225.85 122.744 223.219 123.563C220.588 124.383 218.223 125.886 216.365 127.919C214.506 129.951 213.222 132.44 212.643 135.131L92.7069 176.475C90.5897 174.715 88.0427 173.548 85.326 173.093C82.6094 172.638 79.8206 172.912 77.2447 173.887C74.6688 174.862 72.3981 176.502 70.6647 178.64C68.9314 180.779 67.7975 183.339 67.3789 186.058V187.96L78.9428 183.971L84.9877 189.211L83.6987 195.871L72.1348 199.8V201.687Z" fill="#CBF2D6" stroke="#263238" stroke-width="1.25903" stroke-linecap="round" stroke-linejoin="round"/>
<path d="M225.34 139.312L226.94 131.069L238.504 127.08C236.496 125.195 234.022 123.877 231.337 123.261C228.651 122.644 225.85 122.751 223.219 123.571C220.588 124.39 218.223 125.893 216.365 127.926C214.506 129.958 213.222 132.448 212.643 135.139L92.7069 176.483C90.5897 174.722 88.0427 173.555 85.326 173.101C82.6094 172.646 79.8206 172.92 77.2447 173.894C74.6688 174.869 72.3981 176.509 70.6647 178.648C68.9314 180.786 67.7975 183.346 67.3789 186.066L78.9428 182.084L85.2989 187.59L83.6987 195.841L72.1348 199.8C74.1433 201.683 76.6162 202.999 79.3008 203.615C81.9854 204.23 84.7854 204.123 87.4148 203.303C90.0442 202.484 92.4086 200.981 94.2664 198.95C96.1242 196.919 97.4087 194.431 97.9888 191.741L217.924 150.398C220.044 152.158 222.594 153.325 225.313 153.778C228.033 154.23 230.823 153.953 233.4 152.974C235.977 151.996 238.247 150.351 239.978 148.208C241.709 146.064 242.839 143.5 243.252 140.778L231.689 144.825L225.34 139.312Z" fill="#858585" stroke="#263238" stroke-width="1.25903" stroke-linecap="round" stroke-linejoin="round"/>
<path d="M134.644 113.546C134.644 113.546 132.325 108.943 131.984 107.27C131.74 106.086 132.221 103.615 131.984 102.431C131.414 99.6558 127.539 92.0116 127.539 92.0116C127.381 91.683 127.141 91.4002 126.843 91.1902L124.532 93.98H118.346L108.908 106.442L113.553 117.66L112.19 119.273C113.027 120.095 113.553 120.568 113.553 120.568L112.19 128.708L125.524 130.055L125.873 124.875H129.925C130.47 124.873 130.993 124.656 131.379 124.27C131.765 123.885 131.982 123.363 131.984 122.818V115.766L133.844 115.24C134.015 115.193 134.175 115.109 134.311 114.994C134.447 114.88 134.557 114.737 134.633 114.576C134.709 114.415 134.749 114.24 134.751 114.062C134.753 113.884 134.716 113.708 134.644 113.546Z" fill="white" stroke="#263238" stroke-width="1.25903" stroke-linecap="round" stroke-linejoin="round"/>
<path d="M113.553 120.546L115.82 116.106C115.82 116.106 110.931 114.367 111.946 110.001C112.961 105.635 117.042 109.342 117.042 109.342H118.346L119.502 104.296C119.502 104.296 122.339 101.254 122.139 100.189C121.986 99.4141 121.783 98.6504 121.532 97.902C121.532 97.902 130.703 96.5033 129.51 91.1161C128.317 85.7289 116.013 87.7714 116.013 87.7714C116.013 87.7714 112.383 81.3038 103.056 93.8763C103.056 93.8763 96.2555 97.754 101.226 105.894C104.685 111.289 108.828 116.214 113.553 120.546Z" fill="#263238" stroke="#263238" stroke-width="1.25903" stroke-linecap="round" stroke-linejoin="round"/>
<path d="M118.346 99.3524C118.346 99.3524 111.219 113.56 105.152 114.611L103.174 111.932C103.174 111.932 103.522 109.661 107.367 109.342C107.367 109.342 110.997 107.744 115.294 100.189L118.346 99.3524Z" fill="#858585" stroke="#263238" stroke-width="1.25903" stroke-linecap="round" stroke-linejoin="round"/>
<path d="M125.502 114.611C126 115.162 126.623 115.585 127.32 115.842C128.017 116.1 128.765 116.185 129.502 116.091" stroke="#263238" stroke-width="1.25903" stroke-linecap="round" stroke-linejoin="round"/>
<path d="M129.502 105.894C129.502 106.523 129.258 107.041 128.962 107.041C128.665 107.041 128.428 106.523 128.428 105.894C128.428 105.265 128.673 104.747 128.962 104.747C129.251 104.747 129.502 105.258 129.502 105.894Z" fill="#263238"/>
<path d="M129.502 101.543C128.763 101.382 127.991 101.487 127.322 101.841C126.654 102.194 126.132 102.773 125.85 103.474" stroke="#263238" stroke-width="1.25903" stroke-linecap="round" stroke-linejoin="round"/>
<path d="M103.034 109.587C102.909 109.753 102.744 109.884 102.554 109.97C102.365 110.055 102.157 110.09 101.949 110.073C101.742 110.056 101.543 109.987 101.37 109.872C101.197 109.757 101.055 109.601 100.959 109.416C98.6036 104.91 93.7736 92.8034 106.73 86.8242C122.131 79.7202 130.384 89.3994 130.384 89.3994L134.481 89.836L135.57 91.7378L104.752 107.3L103.034 109.587Z" fill="#1CC2C4" stroke="#263238" stroke-width="1.25903" stroke-linecap="round" stroke-linejoin="round"/>
<path d="M106.612 130.913C107.261 129.617 108.249 128.52 109.471 127.739C110.693 126.957 112.103 126.52 113.553 126.473C118.672 126.237 126.532 126.94 128.547 131.831C128.547 131.831 139.592 135.02 142.141 142.857C144.689 150.694 141.059 186.798 141.059 186.798C141.059 186.798 144.319 201.243 142.296 210.87C142.296 210.87 131.11 214.704 100.811 215.31C100.811 215.31 98.589 196.611 99.8558 189.973C99.8558 189.973 91.0181 143.286 94.4331 137.226C97.8482 131.165 106.612 130.913 106.612 130.913Z" fill="#263238" stroke="#263238" stroke-width="1.25903" stroke-miterlimit="10"/>
<path d="M112.375 165.997C103.33 165.79 98.6331 168.017 96.4033 169.697C96.8478 172.657 97.2997 175.484 97.7293 178.051C99.1221 176.897 102.789 175.617 112.145 175.432C122.156 175.258 132.132 176.638 141.718 179.524C141.926 177.015 142.155 174.033 142.363 170.859C137.303 169.512 123.709 166.248 112.375 165.997Z" fill="#1CC2C4" stroke="#263238" stroke-width="1.25903" stroke-linecap="round" stroke-linejoin="round"/>
<path d="M141.059 186.813C141.059 186.813 141.126 186.125 141.237 184.919C136.999 183.86 125.065 181.145 113.62 180.886C104.226 180.671 100.33 182.684 98.7593 184.068C99.4038 187.723 99.8409 190.025 99.8409 190.025C99.752 190.476 99.6853 190.987 99.626 191.505C101.404 190.483 105.234 189.492 113.39 189.329C123.125 189.166 132.829 190.466 142.178 193.184C141.652 189.44 141.059 186.813 141.059 186.813Z" fill="#1CC2C4" stroke="#263238" stroke-width="1.25903" stroke-linecap="round" stroke-linejoin="round"/>
<path d="M123.532 131.158C124.169 131.313 124.813 131.491 125.473 131.69" stroke="#7F7F7F" stroke-width="0.944269" stroke-linecap="round" stroke-linejoin="round"/>
<path d="M110.123 130.292C113.92 129.796 117.774 129.939 121.524 130.714" stroke="#7F7F7F" stroke-width="0.944269" stroke-linecap="round" stroke-linejoin="round"/>
<path d="M132.08 160.58C131.603 153.874 132.895 147.161 135.829 141.111C140.748 130.751 144.718 151.604 144.718 151.604C144.718 151.604 150.356 160.484 151.712 166.833C151.712 166.833 156.549 162.134 176.38 160.58L178.706 168.912C178.706 168.912 151.378 182.321 145.622 181.3C141.363 180.604 132.08 160.58 132.08 160.58Z" fill="#1CC2C4" stroke="#263238" stroke-width="1.25903" stroke-linecap="round" stroke-linejoin="round"/>
<path d="M141.874 163.54C141.865 164.369 141.935 165.196 142.081 166.012" stroke="#263238" stroke-width="1.25903" stroke-linecap="round" stroke-linejoin="round"/>
<path d="M136.777 160.58C136.777 160.58 140.763 151.848 142.852 152.44C144.334 152.877 142.748 156.347 142.111 160.58" stroke="#263238" stroke-width="1.25903" stroke-linecap="round" stroke-linejoin="round"/>
<path d="M174.01 159.766C174.01 159.766 177.217 165.331 177.062 171.14L180.951 169.031C180.951 169.031 180.566 161.949 177.847 159.566L174.01 159.766Z" fill="#263238" stroke="#263238" stroke-width="1.25903" stroke-linecap="round" stroke-linejoin="round"/>
<path d="M177.062 160.802L183.418 159.766C183.913 158.757 184.685 157.91 185.644 157.322C186.602 156.735 187.709 156.433 188.833 156.451C191.006 156.514 193.172 156.183 195.226 155.474C195.287 155.449 195.353 155.44 195.418 155.447C195.484 155.455 195.546 155.478 195.6 155.516C195.653 155.553 195.697 155.603 195.726 155.662C195.756 155.721 195.77 155.786 195.767 155.851C195.767 156.754 195.086 158.478 190.648 158.878C190.648 158.878 194.656 161.313 195.767 160.358C196.061 160.072 196.428 159.873 196.829 159.783C197.229 159.693 197.646 159.715 198.034 159.847C198.034 159.847 198.167 162.963 195.96 163.089C195.96 163.089 195.441 165.109 193.737 165.072C193.737 165.072 192.567 166.715 191.663 166.456C190.764 166.646 189.836 166.646 188.937 166.456C187.255 166.167 185.44 165.804 185.44 165.804L179.514 167.654L177.062 160.802Z" fill="#263238" stroke="#263238" stroke-width="1.25903" stroke-linecap="round" stroke-linejoin="round"/>
<path d="M195.226 161.549C195.226 161.549 195.308 162.822 194.374 163.029C193.441 163.237 194.611 164.354 191.411 165.323" stroke="#7F7F7F" stroke-width="0.944269" stroke-linecap="round" stroke-linejoin="round"/>
<path d="M151.779 169.364C151.837 171.061 151.627 172.757 151.156 174.388" stroke="#263238" stroke-width="1.25903" stroke-linecap="round" stroke-linejoin="round"/>
<path d="M180.166 164.11C179.886 162.966 179.452 161.866 178.877 160.839" stroke="#7F7F7F" stroke-width="0.944269" stroke-linecap="round" stroke-linejoin="round"/>
<path d="M180.625 166.293C180.566 165.938 180.499 165.553 180.418 165.19" stroke="#7F7F7F" stroke-width="0.944269" stroke-linecap="round" stroke-linejoin="round"/>
</svg>
