<svg width="222" height="128" viewBox="0 0 222 128" fill="none" xmlns="http://www.w3.org/2000/svg">
<path fill-rule="evenodd" clip-rule="evenodd" d="M27.6394 9.06586C27.819 9.52641 28.0045 9.99003 28.1956 10.4564C28.0727 10.801 27.8872 11.0791 27.6394 11.2908C27.1947 10.7056 26.6849 10.1494 26.1097 9.62209C22.7348 11.3739 20.2782 13.9696 18.7397 17.4093C18.7578 17.2875 18.7116 17.1946 18.6006 17.1312C18.1117 17.4007 17.9726 17.7253 18.1835 18.1046C17.8875 18.5248 17.5168 18.571 17.071 18.2437C14.4906 16.8598 11.9876 15.3301 9.56187 13.6548C6.17943 10.7396 5.20603 7.1705 6.64166 2.94731C9.01693 0.349994 11.9373 -0.53052 15.4023 0.305217C20.3847 2.00144 24.4639 4.92166 27.6394 9.06586Z" fill="#2B333B"/>
<path fill-rule="evenodd" clip-rule="evenodd" d="M56.5628 15.1846C69.2563 15.325 81.957 15.5567 94.6646 15.8799C81.8641 16.203 69.0708 16.4347 56.2847 16.5751C55.5046 15.9477 55.5972 15.4841 56.5628 15.1846Z" fill="#2B333B"/>
<path fill-rule="evenodd" clip-rule="evenodd" d="M56.5633 15.1844C69.2643 15.138 81.965 15.1844 94.6651 15.3235C95.0358 15.6942 95.0358 16.0652 94.6651 16.4359C81.8721 16.575 69.0787 16.6214 56.2852 16.575C69.0712 16.4345 81.8646 16.2029 94.6651 15.8797C81.9574 15.5565 69.2567 15.3249 56.5633 15.1844Z" fill="#2B333B"/>
<path fill-rule="evenodd" clip-rule="evenodd" d="M27.6406 9.06592C29.2192 10.5992 30.656 12.2679 31.9514 14.072C35.9502 21.3183 40.9101 27.854 46.8306 33.6791C55.201 40.0332 64.3788 41.4238 74.364 37.8509C79.7787 35.7664 84.7847 32.9852 89.3823 29.5074C95.7278 25.7548 102.588 23.6225 109.963 23.1108C118.98 22.4647 127.88 23.2064 136.662 25.3357C141.575 26.7263 146.489 28.1168 151.402 29.5074C152.838 29.6556 154.275 29.7947 155.713 29.9246C161.067 29.281 166.304 29.6518 171.426 31.037C170.929 30.9578 170.465 31.0504 170.036 31.3152C169.844 31.692 169.566 31.9701 169.201 32.1495C165.674 31.3191 162.151 31.1338 158.633 31.5933C155.336 31.7763 152.091 31.4517 148.899 30.6199C141.978 28.3435 134.933 26.5822 127.762 25.3357C119.769 24.3197 111.796 24.4123 103.844 25.6138C99.8405 26.454 96.0395 27.8446 92.4415 29.7855C88.1772 32.3812 83.9126 34.9771 79.6482 37.5728C63.3704 45.0391 49.7892 41.7481 38.9043 27.6997C35.2844 22.1254 31.5298 16.6557 27.6406 11.2908C27.8884 11.0792 28.0739 10.8011 28.1969 10.4565C28.0058 9.9901 27.8203 9.52648 27.6406 9.06592Z" fill="#2B333B"/>
<path fill-rule="evenodd" clip-rule="evenodd" d="M89.3807 23.5278C89.7397 23.8176 89.7397 24.1419 89.3807 24.5012C83.9563 24.7318 78.5793 24.6853 73.25 24.3622C78.4499 24.4014 83.7341 24.3552 89.1026 24.2231C89.3117 24.0365 89.4046 23.8048 89.3807 23.5278Z" fill="#2B333B"/>
<path fill-rule="evenodd" clip-rule="evenodd" d="M73.2507 23.5278C78.5424 23.534 83.9195 23.534 89.3814 23.5278C89.4053 23.8048 89.3124 24.0365 89.1033 24.2231C83.7348 24.3552 78.4506 24.4014 73.2507 24.3622C72.88 24.0841 72.88 23.8059 73.2507 23.5278Z" fill="#2B333B"/>
<path fill-rule="evenodd" clip-rule="evenodd" d="M89.3807 23.528C83.9188 23.5342 78.5417 23.5342 73.25 23.528C78.6268 23.1573 84.0039 23.1573 89.3807 23.528Z" fill="#2B333B"/>
<path fill-rule="evenodd" clip-rule="evenodd" d="M184.496 60.2389C184.434 59.6371 184.156 59.1738 183.661 58.8484C190.633 53.7427 198.049 53.0474 205.911 56.7625C207.101 57.1085 208.306 57.2011 209.526 57.0406C206.876 56.434 205.81 54.8118 206.328 52.1736C207.255 50.5049 208.182 48.8362 209.109 47.1675C209.629 45.8275 209.907 44.437 209.943 42.9958C210.407 42.625 210.87 42.625 211.334 42.9958C211.519 44.0156 211.519 45.0352 211.334 46.055C210.207 48.5406 209.048 50.9972 207.858 53.4251C208.059 54.5031 208.708 55.1519 209.804 55.3719C212.325 55.9128 214.504 55.3102 216.34 53.5642C217.194 52.2089 217.889 50.7722 218.426 49.2534C217.175 48.2802 216.016 47.2142 214.949 46.055C214.764 45.6843 214.764 45.3133 214.949 44.9426C216.198 44.6442 217.45 44.5977 218.704 44.8035C217.183 43.0044 215.561 41.2893 213.837 39.6584C213.651 39.2877 213.466 38.9166 213.281 38.5459C213.156 37.147 212.971 35.7564 212.725 34.3742C212.533 33.6244 212.115 33.0217 211.473 32.5664C206.325 29.4718 200.763 28.0348 194.786 28.2556C195.075 28.8183 195.353 29.3745 195.62 29.9243C195.376 30.6027 194.913 30.8343 194.23 30.6196C193.249 28.3789 191.858 26.432 190.058 24.7792C187.392 23.2034 185.028 23.528 182.966 25.7526C181.97 28.7894 182.804 31.1998 185.469 32.9836C186.057 34.0658 185.732 34.5755 184.496 34.5132C183.684 33.5601 182.757 32.772 181.715 32.1493C180.079 32.6432 178.411 32.9213 176.709 32.9836C176.776 32.32 176.59 31.7638 176.152 31.3149C177.861 31.4765 179.484 31.1984 181.019 30.4806C179.992 25.1171 182.17 22.2895 187.555 21.998C188.953 22.2809 190.251 22.791 191.449 23.5277C193.415 22.7378 195.455 22.5062 197.567 22.8324C199.363 23.7018 200.568 25.0924 201.183 27.0041C205.24 27.6886 209.041 29.0791 212.585 31.1759C213.31 31.7148 213.82 32.4101 214.115 33.2617C214.509 35.025 214.88 36.7866 215.228 38.5459C217.578 40.6162 219.617 42.9338 221.346 45.4988C221.532 46.1477 221.532 46.7968 221.346 47.4456C220.204 50.0427 218.906 52.5457 217.452 54.9547C215.519 56.2227 213.526 57.3816 211.473 58.4312C209.921 58.8531 208.345 58.946 206.745 58.7093C204.095 58.0326 201.499 57.1983 198.958 56.2063C193.637 55.7707 188.816 57.1149 184.496 60.2389Z" fill="#2B333B"/>
<path fill-rule="evenodd" clip-rule="evenodd" d="M183.661 58.8485C182.95 58.5584 182.348 58.0948 181.853 57.4579C176.114 50.3192 174.214 42.2539 176.152 33.2619C176.279 33.0399 176.465 32.9473 176.708 32.9837C178.41 32.9215 180.079 32.6433 181.714 32.1494C182.756 32.7721 183.683 33.5603 184.495 34.5134C185.732 34.5757 186.056 34.0659 185.469 32.9837C182.804 31.1999 181.97 28.7895 182.966 25.7527C185.028 23.5281 187.392 23.2035 190.058 24.7793C191.858 26.4322 193.248 28.379 194.229 30.6198C194.912 30.8345 195.376 30.6028 195.62 29.9245C195.353 29.3746 195.075 28.8184 194.786 28.2558C200.762 28.035 206.324 29.472 211.473 32.5666C212.115 33.0219 212.532 33.6245 212.724 34.3743C212.971 35.7566 213.156 37.1471 213.28 38.5461C213.466 38.9168 213.651 39.2878 213.837 39.6585C215.561 41.2894 217.183 43.0045 218.704 44.8037C217.45 44.5979 216.198 44.6443 214.949 44.9427C214.764 45.3134 214.764 45.6845 214.949 46.0552C216.016 47.2144 217.175 48.2804 218.426 49.2535C217.889 50.7723 217.194 52.209 216.34 53.5643C214.503 55.3103 212.324 55.913 209.804 55.372C208.708 55.1521 208.059 54.5032 207.857 53.4252C209.047 50.9973 210.206 48.5407 211.334 46.0552C211.519 45.0353 211.519 44.0158 211.334 42.9959C210.87 42.6252 210.407 42.6252 209.943 42.9959C209.907 44.4371 209.628 45.8277 209.109 47.1676C208.182 48.8363 207.254 50.505 206.327 52.1737C205.81 54.8119 206.876 56.4342 209.526 57.0407C208.305 57.2012 207.1 57.1086 205.91 56.7626C198.049 53.0476 190.633 53.7428 183.661 58.8485Z" fill="#E2E6E9"/>
<path fill-rule="evenodd" clip-rule="evenodd" d="M193.676 41.8835C195.434 41.8334 196.129 42.6678 195.762 44.3865C195.163 45.9184 194.328 46.1039 193.259 44.9427C193.012 43.8575 193.151 42.8377 193.676 41.8835Z" fill="#2B333B"/>
<path fill-rule="evenodd" clip-rule="evenodd" d="M203.967 35.4868C206.275 35.2787 208.5 35.603 210.641 36.4602C211.533 38.2098 211.069 38.627 209.251 37.7117C209.069 38.7504 208.838 39.77 208.556 40.7709C207.608 41.2501 206.959 40.972 206.609 39.9366C206.403 39.085 206.449 38.2507 206.748 37.4336C205.834 37.2044 204.907 37.0653 203.967 37.0164C203.266 36.513 203.266 36.0032 203.967 35.4868Z" fill="#2B333B"/>
<path fill-rule="evenodd" clip-rule="evenodd" d="M186.444 28.812C187.852 29.1221 189.104 29.7712 190.199 30.7588C190.523 31.9177 190.106 32.3349 188.947 32.0103C188.113 31.5006 187.279 30.9905 186.444 30.4807C186.112 29.92 186.112 29.3638 186.444 28.812Z" fill="#2B333B"/>
<path fill-rule="evenodd" clip-rule="evenodd" d="M27.638 11.2908C31.5271 16.6556 35.2817 22.1253 38.9017 27.6996C49.7865 41.748 63.3678 45.039 79.6456 37.5727C83.9099 34.977 88.1745 32.3811 92.4389 29.7854C96.0369 27.8445 99.8379 26.4539 103.842 25.6137C111.794 24.4123 119.767 24.3196 127.76 25.3356C134.93 26.5821 141.976 28.3434 148.896 30.6198C152.089 31.4516 155.333 31.7762 158.63 31.5932C160.024 31.547 161.415 31.5935 162.802 31.7323C160.199 31.7932 157.603 31.9322 155.015 32.1494C153.824 32.8183 153.453 33.6991 153.902 34.7915C153.448 34.9417 153.077 34.8027 152.79 34.3744C152.604 34.5599 152.419 34.7451 152.234 34.9306C151.302 34.5607 151.21 34.6997 151.956 35.3478C151.692 35.5194 151.46 35.4732 151.26 35.2087C151.225 35.5639 151.364 35.8881 151.677 36.1821C151.407 36.2792 151.175 36.5108 150.982 36.8774C150.89 36.7848 150.797 36.6919 150.704 36.5993C150.151 37.0409 149.549 37.2726 148.896 37.2946C149.095 36.9211 149.002 36.5503 148.618 36.1821C149.147 36.1268 149.564 35.8948 149.87 35.4868C150.172 36.1632 150.311 36.0703 150.287 35.2087C149.842 35.2832 149.471 35.1903 149.174 34.9306C150.764 33.4794 150.579 32.2279 148.618 31.176C147.113 30.4921 145.768 30.7238 144.586 31.8713C143.96 33.0299 144.191 34.0033 145.281 34.7915C146.125 35.3494 147.052 35.5814 148.062 35.4868C148.268 35.4504 148.453 35.4968 148.618 35.6259C146.72 36.1668 145.191 35.657 144.029 34.0962C143.827 33.337 143.873 32.5952 144.168 31.8713C143.75 31.5245 143.332 31.5245 142.917 31.8713C142.606 31.4683 142.421 31.0047 142.361 30.4807C142.04 31.1641 141.669 31.1641 141.248 30.4807C141.156 30.7589 141.063 31.037 140.97 31.3151C140.366 30.7038 139.809 30.0549 139.301 29.3683C139.072 29.8981 138.747 29.991 138.328 29.6464C138.461 29.3744 138.646 29.1427 138.884 28.9511C138.629 28.8471 138.397 28.708 138.189 28.5339C138.128 28.9339 137.989 29.3046 137.772 29.6464C136.896 28.9102 136.896 28.354 137.772 27.9777C136.668 27.1692 135.694 27.2621 134.852 28.2558C134.759 27.9777 134.666 27.6996 134.573 27.4215C134.249 27.9313 133.832 28.3484 133.322 28.673C133.852 28.9027 133.945 29.2273 133.6 29.6464C133.247 29.3883 132.877 29.3419 132.488 29.5073C134.28 30.5453 135.16 32.0749 135.13 34.0962C135.071 33.6629 134.932 33.2922 134.712 32.9838C134.347 31.4578 133.42 30.3917 131.931 29.7854C130.49 29.0026 129.007 28.9099 127.481 29.5073C126.187 30.313 125.77 31.4717 126.23 32.9838C127.025 34.3827 128.184 35.3099 129.706 35.7649C129.641 35.931 129.502 36.0236 129.289 36.043C128.67 35.803 128.067 35.5249 127.481 35.2087C126.949 35.4515 126.439 35.7296 125.952 36.043C125.661 35.7307 125.476 35.36 125.396 34.9306C125.21 35.3013 125.025 35.3013 124.839 34.9306C124.286 35.8089 123.776 36.6894 123.31 37.5727C123.94 37.8733 123.987 38.2905 123.449 38.8242C123.158 38.5119 122.973 38.1411 122.893 37.7117C122.8 38.0825 122.707 38.4535 122.614 38.8242C122.556 38.3909 122.417 38.0202 122.197 37.7117C121.136 35.7997 119.56 35.197 117.469 35.904C115.736 37.9957 116.2 39.4792 118.86 40.3538C120.274 40.6712 121.387 40.254 122.197 39.1023C122.388 39.4772 122.666 39.8018 123.032 40.0757C121.596 40.5755 120.113 40.8536 118.582 40.9101C118.947 41.298 118.855 41.5762 118.304 41.7444C118.796 42.3321 119.213 42.2859 119.555 41.6054C119.833 42.1616 120.111 42.7178 120.39 43.2741C120.704 42.967 120.936 43.0596 121.085 43.5522C120.524 43.8111 119.921 43.9963 119.277 44.1084C118.426 43.4401 118.472 42.9765 119.416 42.7178C119.259 42.4978 119.027 42.4978 118.721 42.7178C118.27 42.6552 117.945 42.4236 117.747 42.0225C118.058 41.6791 118.058 41.3545 117.747 41.0491C117.893 40.8567 118.079 40.7176 118.304 40.632C117.75 40.145 117.101 39.8669 116.357 39.7976C116.397 39.2647 116.258 38.755 115.94 38.268C115.144 38.3814 115.098 38.1498 115.801 37.5727C115.248 37.2058 114.923 36.6961 114.827 36.043C114.71 36.448 114.478 36.587 114.132 36.4602C114.469 35.1976 115.21 34.2706 116.357 33.6791C115.63 33.0808 115.63 32.8489 116.357 32.9838C117.711 32.6795 118.823 32.2623 119.694 31.7323C119.229 31.2194 118.673 31.0342 118.026 31.176C118.633 31.344 118.68 31.6683 118.165 32.1494C117.717 31.9695 117.3 31.7378 116.913 31.4541C117.284 31.176 117.655 30.8979 118.026 30.6198C117.361 30.4276 117.361 30.1495 118.026 29.7854C117.856 29.5435 117.625 29.4044 117.33 29.3683C117.049 29.4773 116.91 29.6628 116.913 29.9245C116.707 29.41 116.429 29.2248 116.079 29.3683C116.285 29.1494 116.517 28.9642 116.774 28.812C117.066 29.0949 117.39 29.1413 117.747 28.9511C118.275 28.7008 118.739 28.3765 119.138 27.9777C118.823 27.6707 118.591 27.7633 118.443 28.2558C118.257 27.1433 118.072 27.1433 117.886 28.2558C117.794 28.0703 117.701 27.8851 117.608 27.6996C117.516 28.0703 117.423 28.4413 117.33 28.812C116.917 27.8523 116.36 27.667 115.662 28.2558C115.48 27.9232 115.341 27.9232 115.244 28.2558C115.586 28.473 115.957 28.6121 116.357 28.673C115.986 28.8585 115.615 29.0437 115.244 29.2292C115.649 29.8594 115.881 30.5547 115.94 31.3151C116.139 31.0506 116.371 31.0044 116.635 31.176C116.403 31.4077 116.171 31.6396 115.94 31.8713C115.582 31.8441 115.258 31.8441 114.966 31.8713C115.35 29.3257 114.191 27.9351 111.49 27.6996C108.612 28.1379 108.102 29.482 109.96 31.7323C111.325 32.6909 112.809 32.9229 114.41 32.4275C114.532 32.4095 114.625 32.4556 114.688 32.5666C113.702 32.8931 112.682 33.0783 111.629 33.1228C112.304 33.2483 112.351 33.4802 111.768 33.8181C111.675 33.7255 111.582 33.6326 111.49 33.54C111.397 33.9107 111.304 34.2817 111.212 34.6525C111.019 34.5065 110.88 34.321 110.795 34.0962C111.02 33.6593 111.112 33.1957 111.073 32.7057C110.53 32.7816 110.113 32.5964 109.821 32.1494C109.631 32.5065 109.677 32.8311 109.96 33.1228C109.589 33.1228 109.218 33.1228 108.848 33.1228C109.104 33.913 109.382 34.7009 109.682 35.4868C109.035 36.3048 109.313 36.629 110.516 36.4602C110.046 36.0706 109.86 35.5608 109.96 34.9306C110.561 35.0212 111.071 35.2994 111.49 35.7649C111.568 36.4338 111.383 36.4338 110.934 35.7649C110.799 36.0286 110.753 36.3067 110.795 36.5993C111.24 36.547 111.611 36.6861 111.907 37.0165C111.721 37.1091 111.536 37.202 111.351 37.2946C111.818 37.304 112.235 37.3505 112.602 37.4336C112.695 37.0629 112.788 36.6919 112.88 36.3212C113.713 36.8913 114.409 37.4011 114.966 37.8508C114.625 38.2922 114.718 38.6632 115.244 38.9633C115.052 39.26 114.913 39.5846 114.827 39.9367C114.612 39.5615 114.288 39.3298 113.854 39.2414C114.079 39.1557 114.264 39.0167 114.41 38.8242C114.124 38.8809 113.846 38.7419 113.576 38.407C114.602 38.2891 114.648 38.0572 113.715 37.7117C113.459 37.8313 113.227 37.9242 113.019 37.9899C113.39 38.268 113.39 38.5461 113.019 38.8242C113.751 39.2428 113.658 39.428 112.741 39.3804C112.688 40.4787 112.549 40.4787 112.324 39.3804C112.22 39.6352 112.081 39.8671 111.907 40.0757C113.062 41.07 114.267 41.9972 115.522 42.8569C116.251 43.4426 116.807 44.1379 117.191 44.9427C112.887 40.7034 107.788 37.8297 101.895 36.3212C100.776 36.559 100.59 37.0687 101.339 37.8508C111.125 40.6826 118.309 46.6621 122.893 55.7892C123.959 58.574 124.33 61.4478 124.005 64.4108C123.453 69.4431 122.387 74.3565 120.807 79.151C120.641 79.0856 120.548 78.9465 120.529 78.7338C120.955 77.5454 121.326 76.3403 121.641 75.1183C121.548 74.9792 121.456 74.8402 121.363 74.7011C121.156 75.1158 120.971 75.533 120.807 75.9526C120.461 76.0391 120.183 75.9001 119.972 75.5355C119.693 75.6573 119.693 75.8425 119.972 76.0917C119.602 76.3698 119.231 76.6479 118.86 76.926C119.231 77.1115 119.602 77.2968 119.972 77.4823C119.662 77.455 119.384 77.5941 119.138 77.8994C119.268 78.5074 119.36 79.1098 119.416 79.7072C118.019 80.4879 117.833 80.3488 118.86 79.29C118.478 78.3416 118.292 78.3881 118.304 79.4291C118.011 79.4705 117.733 79.4243 117.469 79.29C117.734 79.0903 117.78 78.8587 117.608 78.5947C117.08 79.3262 116.571 79.4188 116.079 78.8728C115.634 79.1468 115.171 79.1929 114.688 79.0119C115.032 78.9474 115.31 78.8083 115.522 78.5947C116.232 78.4879 116.602 78.0708 116.635 77.3432C116.357 75.9515 115.523 75.4882 114.132 75.9526C113.371 76.9238 113.464 77.8043 114.41 78.5947C113.953 79.2372 113.396 79.2836 112.741 78.7338C112.941 78.0493 113.127 77.354 113.298 76.6479C113.205 76.5553 113.112 76.4624 113.019 76.3698C112.57 76.5517 112.107 76.6907 111.629 76.787C111.955 76.9035 112.233 77.0887 112.463 77.3432C112.185 77.6213 111.907 77.8994 111.629 78.1776C111.941 78.2468 112.22 78.3859 112.463 78.5947C112.417 78.6873 112.371 78.7802 112.324 78.8728C111.655 78.6576 110.96 78.5185 110.238 78.4557C110.559 78.2015 110.513 77.9698 110.099 77.7604C110.02 78.424 109.742 78.6092 109.265 78.3166C109.079 78.5021 108.894 78.6873 108.709 78.8728C108.769 79.9886 108.954 81.1011 109.265 82.2102C109.45 83.6934 109.45 85.1769 109.265 86.6601C109.216 85.3109 109.077 84.013 108.848 82.7665C108.359 77.8727 105.763 74.6744 101.06 73.1715C95.6228 71.75 90.6167 69.4325 86.0422 66.2186C79.316 60.458 76.6277 53.1805 77.9769 44.3865C77.4298 44.32 76.9198 44.4127 76.4473 44.6646C76.2501 45.964 75.9255 47.2155 75.4738 48.4192C59.7498 53.9314 46.2611 50.5476 35.008 38.268C30.7003 32.6186 26.5286 26.8711 22.4928 21.0248C21.2263 19.7788 19.9748 18.5738 18.7383 17.4093C20.2768 13.9696 22.7334 11.3739 26.1083 9.62207C26.6835 10.1494 27.1933 10.7056 27.638 11.2908Z" fill="#E2E6E9"/>
<path fill-rule="evenodd" clip-rule="evenodd" d="M88.824 42.4399C92.9351 42.5084 94.2795 44.4552 92.8567 48.2804C90.785 50.3262 88.6527 50.4188 86.46 48.5585C85.1579 45.6953 85.9458 43.6559 88.824 42.4399Z" fill="#2B333B"/>
<path fill-rule="evenodd" clip-rule="evenodd" d="M51.8378 42.1616C53.0345 41.9658 54.0079 42.3368 54.758 43.274C54.9182 44.5061 54.3619 45.1552 53.0893 45.2208C50.8694 44.9116 50.4522 43.8917 51.8378 42.1616Z" fill="#2B333B"/>
<path fill-rule="evenodd" clip-rule="evenodd" d="M39.5997 34.0961C40.7255 34.0797 41.6063 34.5433 42.2418 35.4867C42.4968 36.9941 41.8479 37.7355 40.2949 37.7116C38.6199 37.5192 38.0636 36.5919 38.6263 34.9305C38.9447 34.6145 39.2693 34.3364 39.5997 34.0961Z" fill="#2B333B"/>
<path fill-rule="evenodd" clip-rule="evenodd" d="M94.6671 30.2026C96.0872 30.0427 97.3387 30.4137 98.4217 31.3151C99.0477 32.4737 98.8158 33.4471 97.7264 34.2353C96.5552 34.6619 95.3502 34.7545 94.1109 34.5134C92.6853 33.8034 92.3607 32.7374 93.1375 31.3151C93.6414 30.9043 94.1512 30.5336 94.6671 30.2026Z" fill="#2B333B"/>
<path fill-rule="evenodd" clip-rule="evenodd" d="M149.178 34.9306C148.762 35.0666 148.391 35.2519 148.065 35.4869C147.055 35.5814 146.128 35.3495 145.284 34.7916C144.195 34.0034 143.963 33.03 144.589 31.8714C145.772 30.7239 147.116 30.4922 148.621 31.1761C150.582 32.2279 150.768 33.4794 149.178 34.9306Z" fill="#2B333B"/>
<path fill-rule="evenodd" clip-rule="evenodd" d="M114.967 31.8714C114.689 31.9641 114.503 32.1496 114.411 32.4277C112.809 32.923 111.326 32.691 109.961 31.7324C108.103 29.4821 108.612 28.138 111.49 27.6997C114.191 27.9353 115.35 29.3258 114.967 31.8714Z" fill="#2B333B"/>
<path fill-rule="evenodd" clip-rule="evenodd" d="M29.5869 26.3088C31.9022 25.8897 32.8756 26.8169 32.5071 29.0899C31.2189 30.2575 30.0138 30.1646 28.8916 28.8118C28.5932 27.8106 28.8249 26.9763 29.5869 26.3088Z" fill="#2B333B"/>
<path fill-rule="evenodd" clip-rule="evenodd" d="M25.6928 16.2969C28.4181 16.0021 29.2524 17.0681 28.1959 19.4953C25.9426 20.3004 24.8765 19.5125 24.9975 17.1313C25.2882 16.8885 25.5198 16.6104 25.6928 16.2969Z" fill="#2B333B"/>
<path fill-rule="evenodd" clip-rule="evenodd" d="M184.497 43.5521C184.954 43.4926 185.371 43.5855 185.748 43.8302C186.72 46.976 188.574 49.479 191.311 51.3393C191.659 52.3436 191.335 52.7608 190.337 52.5909C187.349 50.6224 185.31 47.9341 184.219 44.5255C184.355 44.209 184.447 43.8845 184.497 43.5521Z" fill="#2B333B"/>
<path fill-rule="evenodd" clip-rule="evenodd" d="M171.424 31.0372C172.998 31.1504 174.575 31.243 176.152 31.3153C176.59 31.7642 176.775 32.3204 176.708 32.984C176.465 32.9476 176.279 33.0402 176.152 33.2621C174.214 42.2541 176.114 50.3195 181.853 57.4582C182.348 58.095 182.95 58.5587 183.661 58.8487C184.156 59.1741 184.434 59.6375 184.495 60.2393C183.298 61.344 182.092 62.4564 180.88 63.5767C180.093 64.3638 179.444 64.2711 178.933 63.2986C177.365 61.9155 175.881 60.4323 174.483 58.8487C168.975 50.7709 167.214 41.8712 169.199 32.1496C169.564 31.9703 169.842 31.6921 170.033 31.3153C170.463 31.0505 170.927 30.9579 171.424 31.0372Z" fill="#2466A8"/>
<path fill-rule="evenodd" clip-rule="evenodd" d="M105.789 48.5581C108.361 48.7689 109.427 50.1595 108.987 52.7298C108.333 54.2859 107.174 54.7957 105.511 54.2595C104.183 53.243 103.766 51.8988 104.259 50.2268C104.637 49.5251 105.147 48.9689 105.789 48.5581Z" fill="#2B333B"/>
<path fill-rule="evenodd" clip-rule="evenodd" d="M122.197 39.1022C122.197 38.6386 122.197 38.1753 122.197 37.7117C122.417 38.0201 122.556 38.3908 122.614 38.8241C122.707 38.4534 122.8 38.0824 122.892 37.7117C122.973 38.1411 123.158 38.5118 123.449 38.8241C123.987 38.2904 123.94 37.8732 123.31 37.5726C123.776 36.6893 124.286 35.8088 124.839 34.9305C125.025 35.3012 125.21 35.3012 125.396 34.9305C125.476 35.3599 125.661 35.7306 125.952 36.043C126.439 35.7295 126.949 35.4514 127.481 35.2086C128.067 35.5248 128.67 35.803 129.289 36.043C129.502 36.0235 129.641 35.9309 129.706 35.7649C131.007 36.1456 132.304 36.0991 133.6 35.6258C134.468 34.9561 134.838 34.0756 134.712 32.9837C134.932 33.2921 135.071 33.6629 135.13 34.0962C135.16 32.0748 134.28 30.5452 132.487 29.5073C132.877 29.3418 133.247 29.3882 133.6 29.6463C133.945 29.2272 133.852 28.9026 133.322 28.6729C133.832 28.3483 134.249 27.9312 134.573 27.4214C134.666 27.6995 134.759 27.9776 134.851 28.2557C135.694 27.262 136.668 27.1691 137.772 27.9776C136.896 28.3539 136.896 28.9101 137.772 29.6463C137.989 29.3045 138.128 28.9338 138.189 28.5338C138.397 28.7079 138.629 28.847 138.884 28.951C138.646 29.1426 138.461 29.3743 138.328 29.6463C138.747 29.9909 139.072 29.898 139.301 29.3682C139.809 30.0549 140.366 30.7037 140.97 31.315C141.063 31.0369 141.156 30.7588 141.248 30.4807C141.669 31.164 142.04 31.164 142.361 30.4807C142.421 31.0046 142.606 31.4682 142.917 31.8712C143.332 31.5244 143.749 31.5244 144.168 31.8712C143.873 32.5952 143.827 33.3369 144.029 34.0962C145.191 35.6569 146.72 36.1667 148.618 35.6258C148.453 35.4967 148.267 35.4503 148.062 35.4867C148.388 35.2517 148.759 35.0665 149.174 34.9305C149.471 35.1903 149.842 35.2832 150.287 35.2086C150.311 36.0702 150.172 36.1631 149.87 35.4867C149.564 35.8947 149.147 36.1267 148.618 36.182C149.002 36.5503 149.095 36.921 148.896 37.2945C149.549 37.2725 150.151 37.0408 150.704 36.5992C150.797 36.6918 150.89 36.7847 150.982 36.8773C151.175 36.5108 151.407 36.2791 151.677 36.182C151.364 35.8881 151.225 35.5638 151.26 35.2086C151.46 35.4731 151.692 35.5193 151.956 35.3477C151.21 34.6997 151.302 34.5606 152.234 34.9305C152.419 34.745 152.604 34.5598 152.79 34.3743C153.077 34.8026 153.448 34.9416 153.902 34.7914C153.453 33.699 153.824 32.8182 155.015 32.1494C157.603 31.9321 160.199 31.7931 162.802 31.7322C161.415 31.5934 160.024 31.547 158.63 31.5931C162.149 31.1337 165.672 31.3189 169.199 32.1494C167.214 41.8709 168.975 50.7706 174.483 58.8484C174.263 59.1569 174.124 59.5276 174.066 59.9609C170.867 62.9737 167.669 65.9868 164.471 68.9997C163.296 68.9919 162.277 69.3626 161.411 70.1121C161.475 70.2231 161.568 70.2693 161.69 70.2512C159.055 72.6527 156.366 75.0167 153.624 77.3431C143.968 84.6053 134.002 91.4191 123.727 97.7846C121.972 96.908 120.488 95.7026 119.277 94.1691C118.703 92.3411 118.889 90.5798 119.833 88.8849C127.77 81.4142 135.001 73.3488 141.526 64.6889C142.792 62.8533 143.95 60.9529 145.003 58.9875C144.503 58.1125 143.9 58.0661 143.195 58.8484C140.192 63.7063 136.762 68.249 132.905 72.4761C130.125 72.094 127.483 71.2596 124.978 69.9731C127.161 61.9236 125.631 54.6926 120.389 48.2801C119.267 47.204 118.201 46.0916 117.191 44.9427C116.807 44.1378 116.251 43.4425 115.522 42.8568C114.267 41.9971 113.062 41.0699 111.907 40.0756C112.081 39.8671 112.22 39.6351 112.324 39.3804C112.549 40.4786 112.688 40.4786 112.741 39.3804C113.658 39.4279 113.751 39.2427 113.019 38.8241C113.39 38.546 113.39 38.2679 113.019 37.9898C113.227 37.9241 113.459 37.8313 113.715 37.7117C114.648 38.0571 114.602 38.289 113.576 38.4069C113.846 38.7418 114.124 38.8809 114.41 38.8241C114.264 39.0166 114.078 39.1556 113.854 39.2413C114.288 39.3297 114.612 39.5614 114.827 39.9366C114.913 39.5845 115.052 39.2599 115.244 38.9632C114.718 38.6631 114.625 38.2921 114.966 37.8507C114.409 37.401 113.713 36.8912 112.88 36.3211C112.788 36.6918 112.695 37.0628 112.602 37.4335C112.235 37.3504 111.818 37.3039 111.351 37.2945C111.536 37.2019 111.721 37.109 111.907 37.0164C111.611 36.686 111.24 36.5469 110.794 36.5992C110.753 36.3066 110.799 36.0285 110.934 35.7649C111.383 36.4337 111.568 36.4337 111.49 35.7649C111.071 35.2993 110.561 35.0212 109.96 34.9305C109.86 35.5607 110.046 36.0705 110.516 36.4601C109.313 36.629 109.035 36.3047 109.682 35.4867C109.382 34.7008 109.104 33.9129 108.848 33.1228C109.218 33.1228 109.589 33.1228 109.96 33.1228C109.677 32.831 109.631 32.5065 109.821 32.1494C110.113 32.5963 110.53 32.7815 111.073 32.7056C111.112 33.1956 111.019 33.6592 110.794 34.0962C110.88 34.3209 111.019 34.5064 111.212 34.6524C111.304 34.2817 111.397 33.9107 111.49 33.5399C111.582 33.6325 111.675 33.7254 111.768 33.818C112.351 33.4801 112.304 33.2482 111.629 33.1228C112.682 33.0783 113.702 32.893 114.688 32.5665C114.625 32.4556 114.532 32.4094 114.41 32.4275C114.503 32.1494 114.688 31.9638 114.966 31.8712C115.258 31.844 115.582 31.844 115.94 31.8712C116.171 31.6396 116.403 31.4076 116.635 31.1759C116.371 31.0043 116.139 31.0505 115.94 31.315C115.881 30.5546 115.649 29.8593 115.244 29.2291C115.615 29.0436 115.986 28.8584 116.357 28.6729C115.957 28.612 115.586 28.4729 115.244 28.2557C115.341 27.9231 115.48 27.9231 115.661 28.2557C116.36 27.667 116.917 27.8522 117.33 28.812C117.423 28.4412 117.516 28.0702 117.608 27.6995C117.701 27.885 117.794 28.0702 117.886 28.2557C118.072 27.1433 118.257 27.1433 118.443 28.2557C118.591 27.7632 118.823 27.6706 119.138 27.9776C118.739 28.3764 118.275 28.7007 117.747 28.951C117.39 29.1413 117.066 29.0948 116.774 28.812C116.517 28.9641 116.285 29.1493 116.079 29.3682C116.429 29.2247 116.707 29.4099 116.913 29.9244C116.91 29.6627 117.049 29.4772 117.33 29.3682C117.625 29.4044 117.856 29.5434 118.025 29.7854C117.36 30.1494 117.36 30.4275 118.025 30.6197C117.655 30.8978 117.284 31.1759 116.913 31.4541C117.3 31.7377 117.717 31.9694 118.165 32.1494C118.68 31.6682 118.633 31.3439 118.025 31.1759C118.673 31.0341 119.229 31.2193 119.694 31.7322C118.823 32.2623 117.711 32.6794 116.357 32.9837C115.63 32.8488 115.63 33.0808 116.357 33.679C115.21 34.2705 114.469 35.1975 114.132 36.4601C114.478 36.587 114.709 36.4479 114.827 36.043C114.923 36.696 115.248 37.2058 115.801 37.5726C115.097 38.1497 115.144 38.3814 115.94 38.2679C116.258 38.7549 116.397 39.2647 116.357 39.7975C117.101 39.8668 117.75 40.1449 118.304 40.6319C118.079 40.7175 117.893 40.8566 117.747 41.049C118.057 41.3544 118.057 41.679 117.747 42.0225C117.945 42.4235 118.27 42.6552 118.721 42.7177C119.027 42.4978 119.259 42.4978 119.416 42.7177C118.472 42.9764 118.426 43.44 119.277 44.1083C119.921 43.9962 120.524 43.811 121.085 43.5521C120.936 43.0595 120.704 42.9669 120.389 43.274C120.111 42.7177 119.833 42.1615 119.555 41.6053C119.213 42.2858 118.796 42.332 118.304 41.7443C118.855 41.5761 118.947 41.298 118.582 40.91C120.113 40.8535 121.596 40.5754 123.032 40.0756C122.666 39.8017 122.388 39.4771 122.197 39.1022Z" fill="#E2E6E9"/>
<path fill-rule="evenodd" clip-rule="evenodd" d="M150.289 48.8365C152.913 48.6329 154.071 49.838 153.765 52.452C152.953 53.9886 151.702 54.4984 150.011 53.9817C148.075 52.1219 148.167 50.407 150.289 48.8365Z" fill="#2B333B"/>
<path fill-rule="evenodd" clip-rule="evenodd" d="M126.65 44.3867C129.067 44.4251 129.808 45.4914 128.875 47.585C126.779 48.586 125.621 47.9836 125.398 45.7773C125.684 45.1691 126.101 44.7054 126.65 44.3867Z" fill="#2B333B"/>
<path fill-rule="evenodd" clip-rule="evenodd" d="M138.886 39.6587C143.031 39.3094 145.024 41.1633 144.866 45.221C142.33 47.5366 139.92 47.3514 137.635 44.6648C136.415 42.5545 136.832 40.8858 138.886 39.6587Z" fill="#2B333B"/>
<path fill-rule="evenodd" clip-rule="evenodd" d="M156.964 35.7649C161.251 35.6681 162.271 37.4759 160.023 41.1882C158.487 42.2959 156.911 42.3888 155.295 41.4663C154.383 40.3032 154.244 39.0517 154.878 37.7117C155.545 36.9978 156.24 36.349 156.964 35.7649Z" fill="#2B333B"/>
<path fill-rule="evenodd" clip-rule="evenodd" d="M122.199 37.7117C122.199 38.1753 122.199 38.6386 122.199 39.1022C121.388 40.2539 120.276 40.6711 118.861 40.3538C116.201 39.4791 115.738 37.9956 117.471 35.9039C119.561 35.1969 121.137 35.7996 122.199 37.7117Z" fill="#2B333B"/>
<path fill-rule="evenodd" clip-rule="evenodd" d="M134.714 32.984C134.84 34.0758 134.47 34.9564 133.602 35.6261C132.306 36.0994 131.009 36.1459 129.708 35.7651C128.186 35.3101 127.027 34.3829 126.232 32.984C125.772 31.4718 126.189 30.3132 127.483 29.5075C129.009 28.9101 130.492 29.0027 131.933 29.7856C133.422 30.3919 134.349 31.4579 134.714 32.984Z" fill="#2B333B"/>
<path fill-rule="evenodd" clip-rule="evenodd" d="M134.438 53.5643C136.747 53.5025 137.396 54.4759 136.385 56.4845C133.518 56.883 132.869 55.9096 134.438 53.5643Z" fill="#2B333B"/>
<path fill-rule="evenodd" clip-rule="evenodd" d="M161.969 52.4521C165.04 52.1381 166.106 53.4358 165.167 56.3457C164.191 57.8303 162.847 58.3404 161.135 57.8754C159.76 56.9114 159.436 55.6599 160.161 54.1208C160.735 53.4995 161.337 52.9433 161.969 52.4521Z" fill="#2B333B"/>
<path fill-rule="evenodd" clip-rule="evenodd" d="M92.9983 56.902C94.8984 56.5396 96.5207 57.0032 97.8654 58.2925C98.5242 60.6946 97.5973 61.9 95.0842 61.908C91.8189 61.2239 91.1236 59.5552 92.9983 56.902Z" fill="#2B333B"/>
<path fill-rule="evenodd" clip-rule="evenodd" d="M18.739 17.4095C19.9755 18.5739 21.227 19.779 22.4936 21.025C26.5293 26.8712 30.701 32.6188 35.0088 38.2681C46.2619 50.5478 59.7505 53.9316 75.4746 48.4193C75.9262 47.2157 76.2508 45.9641 76.448 44.6648C76.9205 44.4128 77.4306 44.3202 77.9776 44.3867C76.6285 53.1807 79.3167 60.4581 86.043 66.2187C90.6174 69.4326 95.6235 71.7502 101.061 73.1716C105.764 74.6746 108.36 77.8729 108.848 82.7666C108.905 84.912 108.766 87.0443 108.431 89.1633C107.872 91.6794 107.269 94.1824 106.624 96.6724C106.696 97.7709 107.021 98.7908 107.597 99.7317C109.746 101.525 112.017 103.147 114.411 104.599C119.231 107.472 124.052 110.346 128.873 113.22C131.797 114.828 134.856 116.079 138.051 116.975C138.096 116.135 138.05 115.301 137.911 114.472C137.479 113.778 136.97 113.175 136.382 112.664C136.778 111.636 137.428 111.451 138.329 112.108C138.917 112.589 139.335 113.192 139.58 113.916C139.635 115.191 139.774 116.443 139.997 117.67C142.735 118.452 143.708 117.478 142.918 114.75C142.265 114.136 142.126 113.441 142.5 112.664C143.645 112.505 144.34 113.015 144.586 114.194C144.725 115.302 144.771 116.415 144.725 117.531C145.661 117.705 146.217 117.335 146.394 116.419C146.187 114.775 145.445 113.431 144.169 112.386C137.077 108.051 129.938 103.787 122.754 99.5926C122.125 99.1429 121.569 98.6331 121.086 98.063C122.325 99.045 123.715 99.7403 125.257 100.149C125.706 100.349 126.123 100.303 126.509 100.01C126.877 100.657 127.248 101.306 127.621 101.957C127.876 101.726 128.061 101.448 128.177 101.122C128.266 101.623 128.451 101.716 128.734 101.4C129.03 101.593 129.355 101.732 129.707 101.818C129.021 102.076 129.068 102.308 129.846 102.513C129.985 102.466 130.124 102.42 130.263 102.374C129.893 102.096 129.893 101.818 130.263 101.539C130.894 101.329 131.497 101.375 132.071 101.678C132.21 101.539 132.349 101.4 132.488 101.261C132.255 100.98 132.163 100.656 132.21 100.288C132.733 100.213 133.104 100.398 133.323 100.844C132.824 101.483 132.267 102.085 131.654 102.652C136.243 105.363 140.786 108.144 145.282 110.995C146.56 112.254 147.487 113.737 148.063 115.445C152.125 117.342 156.389 118.269 160.856 118.226C161.374 117.832 161.513 117.322 161.273 116.697C161.088 116.326 160.902 115.955 160.717 115.584C159.931 115.03 159.235 114.381 158.631 113.637C158.845 113.145 159.216 112.866 159.744 112.803C162.047 113.79 163.159 115.552 163.081 118.087C164.841 118.319 165.629 117.577 165.445 115.862C162.805 111.781 159.05 109.417 154.181 108.77C149.055 106.719 144.327 104.031 139.997 100.705C138.919 99.6738 137.9 98.6075 136.938 97.5067C136.469 97.8841 136.006 98.2549 135.548 98.6192C136.048 97.9717 136.373 97.23 136.521 96.3943C136.997 97.3513 137.507 97.3977 138.051 96.5333C137.841 96.3467 137.749 96.115 137.772 95.838C140.571 99.1448 143.908 101.787 147.785 103.764C151.495 105.805 155.388 107.381 159.465 108.492C162.916 109.904 165.466 112.268 167.114 115.584C167.763 117.67 167.068 119.014 165.028 119.617C159.229 120.521 153.621 119.826 148.202 117.531C147.049 118.739 145.612 119.341 143.891 119.339C142.018 119.569 140.164 119.477 138.329 119.061C135.05 118.07 131.898 116.772 128.873 115.167C123.473 112.074 118.142 108.875 112.881 105.572C104.163 109.646 95.3095 109.971 86.3211 106.545C83.7635 105.017 83.1609 102.931 84.5133 100.288C87.0158 97.7607 90.0289 96.5091 93.5521 96.5333C94.9346 97.3187 96.4178 97.7359 98.0019 97.7848C100.334 97.4681 102.606 96.9118 104.816 96.1161C106.566 91.4427 107.308 86.6221 107.041 81.6541C106.55 79.1414 105.206 77.241 103.008 75.9528C98.1454 74.3319 93.4175 72.3851 88.8241 70.1124C81.0903 65.7276 76.733 59.0993 75.7527 50.2271C58.2687 55.8484 43.6676 51.584 31.9495 37.4338C28.2656 32.3838 24.6501 27.2851 21.103 22.1374C19.7113 20.8673 18.3669 19.5693 17.0703 18.2438C17.5161 18.5712 17.8869 18.525 18.1828 18.1048C17.972 17.7254 18.111 17.4008 18.5999 17.1313C18.7109 17.1948 18.7571 17.2876 18.739 17.4095Z" fill="#2B333B"/>
<path fill-rule="evenodd" clip-rule="evenodd" d="M62.9603 44.3867C64.0246 44.3552 64.998 44.6334 65.8805 45.221C66.6348 47.071 65.9859 48.0909 63.9337 48.2803C62.1415 48.1593 61.3998 47.2323 61.7088 45.4991C62.0973 45.0625 62.5145 44.6915 62.9603 44.3867Z" fill="#2B333B"/>
<path fill-rule="evenodd" clip-rule="evenodd" d="M114.69 59.6831C116.486 59.537 117.738 60.2788 118.445 61.908C118.704 64.8032 117.452 65.8692 114.69 65.1063C112.848 63.2991 112.848 61.4914 114.69 59.6831Z" fill="#2B333B"/>
<path fill-rule="evenodd" clip-rule="evenodd" d="M104.402 64.1327C107.269 63.8894 108.103 65.0483 106.905 67.6092C105.045 68.3479 103.839 67.7452 103.289 65.8014C103.548 65.1715 103.919 64.6153 104.402 64.1327Z" fill="#2B333B"/>
<path fill-rule="evenodd" clip-rule="evenodd" d="M152.514 62.4642C153.594 62.3555 154.614 62.541 155.573 63.0205C156.769 64.5178 156.584 65.862 155.017 67.0531C152.782 68.3558 151.206 67.846 150.289 65.5235C150.603 64.1899 151.345 63.1701 152.514 62.4642Z" fill="#2B333B"/>
<path fill-rule="evenodd" clip-rule="evenodd" d="M27.3631 66.636C40.8531 66.498 54.3881 66.6371 67.968 67.0532C54.5186 67.3763 41.0764 67.608 27.6412 67.7485C27.0797 67.4598 26.9868 67.0888 27.3631 66.636Z" fill="#2B333B"/>
<path fill-rule="evenodd" clip-rule="evenodd" d="M27.6414 67.7481C41.0766 67.6077 54.5188 67.376 67.9681 67.0528C54.3883 66.6368 40.8533 66.4977 27.3633 66.6357C40.8513 66.3117 54.3864 66.2652 67.9681 66.4966C68.3389 66.8673 68.3389 67.2383 67.9681 67.6091C54.5263 67.7481 41.0838 67.7946 27.6414 67.7481Z" fill="#2B333B"/>
<path fill-rule="evenodd" clip-rule="evenodd" d="M174.485 58.8486C175.883 60.4322 177.366 61.9154 178.935 63.2985C174.128 69.3169 167.917 72.8862 160.301 74.0059C161.695 72.9827 162.9 71.7777 163.916 70.3904C163.272 69.5199 162.53 69.4735 161.691 70.2514C161.57 70.2694 161.477 70.2233 161.413 70.1123C162.278 69.3628 163.298 68.9921 164.473 68.9999C167.671 65.987 170.869 62.9739 174.067 59.9611C174.126 59.5278 174.265 59.1571 174.485 58.8486Z" fill="#F3F5F6"/>
<path fill-rule="evenodd" clip-rule="evenodd" d="M50.7249 74.701C58.9763 74.6546 67.2269 74.701 75.4772 74.8401C75.8479 75.2108 75.8479 75.5818 75.4772 75.9525C67.2263 76.138 58.9757 76.138 50.7249 75.9525C50.3834 75.5381 50.3834 75.121 50.7249 74.701Z" fill="#2B333B"/>
<path fill-rule="evenodd" clip-rule="evenodd" d="M51 74.9795C59.1991 74.8429 67.3571 74.982 75.4742 75.3966C67.3571 75.8113 59.1991 75.9504 51 75.8138C51 75.5357 51 75.2576 51 74.9795Z" fill="#2B333B"/>
<path fill-rule="evenodd" clip-rule="evenodd" d="M115.524 78.5948C115.153 78.5948 114.782 78.5948 114.412 78.5948C113.466 77.8044 113.373 76.9239 114.134 75.9527C115.524 75.4882 116.359 75.9516 116.637 77.3433C116.604 78.0708 116.233 78.488 115.524 78.5948Z" fill="#2B333B"/>
<path fill-rule="evenodd" clip-rule="evenodd" d="M117.193 44.9429C118.203 46.0918 119.269 47.2042 120.391 48.2803C125.633 54.6928 127.163 61.9238 124.98 69.9733C127.485 71.2598 130.127 72.0942 132.907 72.4763C136.764 68.2492 140.194 63.7065 143.197 58.8486C143.902 58.0663 144.505 58.1128 145.005 58.9877C143.952 60.9531 142.794 62.8535 141.528 64.6891C135.002 73.349 127.771 81.4144 119.835 88.8851C118.891 90.58 118.705 92.3413 119.279 94.1693C120.49 95.7028 121.974 96.9082 123.729 97.7848C134.003 91.4193 143.969 84.6055 153.626 77.3433C156.368 75.0169 159.057 72.6529 161.692 70.2514C162.53 69.4735 163.272 69.5199 163.916 70.3904C162.9 71.7777 161.695 72.9828 160.301 74.0059C167.917 72.8862 174.128 69.3169 178.935 63.2985C179.445 64.2711 180.094 64.3637 180.881 63.5766C177.999 67.1573 175.265 70.8655 172.677 74.7012C171.117 76.7718 169.402 78.7186 167.532 80.5417C171.726 82.2401 175.991 83.7697 180.325 85.1306C184.601 87.4792 185.852 90.9557 184.08 95.5599C182.978 98.0907 181.264 100.084 178.935 101.539C175.872 103.858 172.442 105.341 168.644 105.989C163.382 107.056 161.018 104.97 161.552 99.7316C161.924 98.0627 162.897 96.9037 164.473 96.2552C166.418 95.7918 168.365 95.3282 170.313 94.8646C170.947 94.7331 171.503 94.4549 171.982 94.0303C164.879 92.6147 157.741 91.4096 150.567 90.4148C148 89.7331 145.96 88.2963 144.448 86.104C141.831 87.9924 139.189 89.8463 136.522 91.6663C136.766 93.088 137.183 94.4786 137.774 95.838C137.75 96.115 137.843 96.3467 138.052 96.5333C137.508 97.3977 136.998 97.3512 136.522 96.3942C136.374 97.23 136.049 97.9717 135.549 98.6192C134.9 99.4535 134.158 100.195 133.324 100.844C133.105 100.398 132.734 100.212 132.211 100.288C132.164 100.656 132.257 100.98 132.489 101.261C132.35 101.4 132.211 101.539 132.072 101.678C131.498 101.375 130.896 101.329 130.264 101.539C129.894 101.817 129.894 102.096 130.264 102.374C130.125 102.42 129.986 102.466 129.847 102.513C129.069 102.308 129.022 102.076 129.708 101.817C129.356 101.732 129.032 101.592 128.735 101.4C128.452 101.716 128.267 101.623 128.179 101.122C128.062 101.448 127.877 101.726 127.622 101.957C127.249 101.306 126.878 100.657 126.51 100.01C126.124 100.303 125.707 100.349 125.258 100.149C123.717 99.7402 122.326 99.045 121.087 98.0629C118.653 96.9541 117.355 95.0534 117.193 92.3616C118.199 87.9059 119.404 83.5025 120.809 79.1511C122.389 74.3566 123.455 69.4432 124.007 64.411C124.332 61.4479 123.961 58.5741 122.894 55.7894C118.311 46.6622 111.127 40.6827 101.34 37.8509C100.592 37.0689 100.778 36.5591 101.897 36.3213C107.79 37.8298 112.889 40.7036 117.193 44.9429Z" fill="#2B333B"/>
<path fill-rule="evenodd" clip-rule="evenodd" d="M136.383 79.707C138.576 79.8466 139.225 80.8665 138.33 82.7663C136.112 83.3759 135.324 82.5416 135.966 80.2633C136.165 80.112 136.304 79.9265 136.383 79.707Z" fill="#2B333B"/>
<path fill-rule="evenodd" clip-rule="evenodd" d="M143.891 72.7545C146.159 72.5657 147.132 73.5856 146.811 75.8138C145.709 77.178 144.503 77.2709 143.195 76.0919C142.506 74.7484 142.738 73.6359 143.891 72.7545Z" fill="#2B333B"/>
<path fill-rule="evenodd" clip-rule="evenodd" d="M169.202 75.2576C169.408 75.2212 169.593 75.2676 169.759 75.3967C168.419 77.0606 166.936 78.5903 165.309 79.9856C164.938 80.4492 164.938 80.9125 165.309 81.3762C166.005 81.8637 166.747 82.2809 167.534 82.6277C171.829 84.0258 176.093 85.5092 180.327 87.0775C183.2 89.1036 183.895 91.7457 182.413 95.0038C181.588 96.8878 180.336 98.4174 178.658 99.5927C175.103 102.494 171.024 104.116 166.421 104.46C163.527 104.333 162.461 102.85 163.223 100.01C163.469 99.2862 163.886 98.6836 164.474 98.2021C167.326 97.6034 170.107 96.769 172.818 95.6991C174.102 95.117 174.751 94.1436 174.765 92.7789C166.53 91.2526 158.279 89.8156 150.012 88.4681C149.361 88.2353 148.804 87.8643 148.344 87.3556C150.657 85.5498 153.068 83.8811 155.575 82.3496C160.213 80.1235 164.756 77.7595 169.202 75.2576Z" fill="#E2E6E9"/>
<path fill-rule="evenodd" clip-rule="evenodd" d="M120.809 79.151C119.405 83.5024 118.2 87.9058 117.193 92.3615C117.356 95.0534 118.653 96.954 121.087 98.0629C121.57 98.633 122.126 99.1428 122.756 99.5925C129.94 103.787 137.078 108.051 144.171 112.386C145.447 113.431 146.188 114.775 146.396 116.418C146.219 117.335 145.662 117.705 144.727 117.531C144.773 116.415 144.727 115.302 144.588 114.194C144.342 113.015 143.646 112.505 142.502 112.664C142.128 113.441 142.267 114.136 142.919 114.75C143.709 117.478 142.736 118.452 139.999 117.67C139.776 116.442 139.636 115.191 139.582 113.915C139.336 113.192 138.919 112.589 138.33 112.108C137.429 111.451 136.78 111.636 136.383 112.664C136.971 113.175 137.481 113.778 137.913 114.472C138.051 115.301 138.098 116.135 138.052 116.975C134.857 116.079 131.798 114.828 128.874 113.22C124.054 110.346 119.233 107.472 114.412 104.599C112.018 103.147 109.747 101.525 107.598 99.7316C107.022 98.7907 106.698 97.7709 106.625 96.6723C107.271 94.1823 107.873 91.6793 108.433 89.1632C108.768 87.0442 108.907 84.9119 108.85 82.7665C109.08 84.013 109.219 85.311 109.267 86.6601C109.453 85.1769 109.453 83.6935 109.267 82.2103C108.956 81.1012 108.771 79.9887 108.711 78.8729C108.896 78.6874 109.082 78.5022 109.267 78.3167C109.744 78.6093 110.022 78.424 110.101 77.7604C110.515 77.9699 110.561 78.2015 110.241 78.4557C110.962 78.5186 111.658 78.6576 112.326 78.8729C112.373 78.7803 112.419 78.6874 112.465 78.5948C112.222 78.3859 111.944 78.2469 111.631 78.1776C111.909 77.8995 112.187 77.6214 112.465 77.3433C112.235 77.0888 111.957 76.9036 111.631 76.787C112.109 76.6908 112.573 76.5518 113.022 76.3699C113.114 76.4625 113.207 76.5554 113.3 76.648C113.129 77.3541 112.943 78.0494 112.744 78.7338C113.399 79.2837 113.955 79.2372 114.412 78.5948C114.783 78.5948 115.154 78.5948 115.525 78.5948C115.312 78.8084 115.034 78.9474 114.69 79.012C115.173 79.193 115.636 79.1468 116.081 78.8729C116.573 79.4188 117.083 79.3262 117.611 78.5948C117.782 78.8587 117.736 79.0904 117.472 79.2901C117.735 79.4244 118.013 79.4706 118.306 79.4291C118.294 78.3881 118.48 78.3417 118.862 79.2901C117.835 80.3489 118.021 80.4879 119.418 79.7073C119.362 79.1099 119.27 78.5075 119.14 77.8995C119.386 77.5941 119.664 77.4551 119.975 77.4823C119.604 77.2968 119.233 77.1116 118.862 76.9261C119.233 76.648 119.604 76.3699 119.975 76.0917C119.695 75.8426 119.695 75.6573 119.975 75.5355C120.185 75.9001 120.463 76.0392 120.809 75.9527C120.973 75.533 121.158 75.1158 121.365 74.7012C121.458 74.8402 121.551 74.9793 121.643 75.1183C121.329 76.3404 120.958 77.5455 120.531 78.7338C120.55 78.9466 120.643 79.0857 120.809 79.151Z" fill="#E2E6E9"/>
<path fill-rule="evenodd" clip-rule="evenodd" d="M91.3293 98.063C92.8734 98.2218 94.3566 98.639 95.7792 99.3145C97.2623 99.5 98.7458 99.5 100.229 99.3145C101.786 98.8106 103.363 98.3934 104.957 98.063C104.897 98.8793 104.711 99.6674 104.401 100.427C104.882 102.499 105.995 104.167 107.738 105.433C104.7 106.77 101.502 107.373 98.1431 107.241C94.2153 107.267 90.4607 106.479 86.8795 104.877C85.6093 104.145 85.1921 103.078 85.6279 101.678C86.2873 100.926 87.0288 100.277 87.8529 99.7317C89.0641 101.265 90.5475 102.471 92.3027 103.347C93.0823 103.178 93.3604 102.714 93.1371 101.957C91.851 101.18 90.6921 100.253 89.6606 99.1755C90.1387 98.6604 90.6949 98.2894 91.3293 98.063Z" fill="#E2E6E9"/>
<path fill-rule="evenodd" clip-rule="evenodd" d="M133.325 100.844C134.159 100.195 134.901 99.4536 135.55 98.6193C136.008 98.255 136.472 97.8842 136.94 97.5068C137.902 98.6076 138.921 99.6739 140 100.705C144.33 104.031 149.058 106.719 154.184 108.771C159.052 109.417 162.807 111.781 165.447 115.862C165.632 117.578 164.844 118.319 163.083 118.087C163.161 115.552 162.049 113.79 159.746 112.803C159.218 112.867 158.848 113.145 158.633 113.638C159.238 114.381 159.933 115.03 160.719 115.584C160.905 115.955 161.09 116.326 161.276 116.697C161.516 117.322 161.377 117.832 160.858 118.226C156.392 118.269 152.127 117.342 148.065 115.445C147.49 113.737 146.562 112.254 145.284 110.995C140.788 108.144 136.245 105.363 131.656 102.652C132.27 102.085 132.826 101.483 133.325 100.844Z" fill="#E2E6E9"/>
<path fill-rule="evenodd" clip-rule="evenodd" d="M51.0595 125.109C50.1834 125.928 49.2173 126.601 48.1584 127.129C47.7348 127.11 47.349 127.206 46.9979 127.418C46.8238 127.233 46.5831 127.137 46.2726 127.129C33.7513 127.293 23.5479 127.485 15.6655 127.706C10.5885 128.042 5.46504 128.09 0.28939 127.851C-0.0964633 126.985 -0.0964633 126.119 0.28939 125.253C4.77747 123.887 8.83908 121.771 12.4742 118.904C8.1167 110.92 9.56727 104.185 16.826 98.7003C23.339 94.9169 29.7216 95.1091 35.9735 99.2776C40.2266 102.979 42.5969 107.644 43.0814 113.275C44.0387 113.889 44.5697 114.755 44.677 115.873C46.3655 113.866 47.7667 111.653 48.8837 109.235C49.8585 108.073 50.8274 106.919 51.7848 105.771C52.9279 103.321 53.1716 100.82 52.5101 98.2674C52.8437 96.6538 53.8098 96.1244 55.4113 96.68C56.6268 97.9491 56.4818 99.0553 54.9761 99.9991C54.6308 101.954 54.1957 103.878 53.6706 105.771C54.3726 105.711 55.0486 105.808 55.7014 106.06C56.7052 104.149 57.767 102.273 58.8926 100.432C58.3182 98.4042 59.0928 97.5384 61.2136 97.8345C62.5307 99.4666 62.1941 100.669 60.1982 101.442C59.2437 103.103 58.324 104.786 57.4421 106.493C60.1778 108.329 61.289 110.879 60.7784 114.141C59.7021 115.694 58.3472 116.945 56.7168 117.893C55.3126 120.683 53.4269 123.088 51.0595 125.109Z" fill="#2B333B"/>
<path fill-rule="evenodd" clip-rule="evenodd" d="M23.497 97.6904C34.4982 97.7155 40.4455 103.199 41.3391 114.142C41.9106 114.374 42.3458 114.759 42.6446 115.296C40.0858 117.882 37.0889 119.854 33.651 121.213C32.5051 121.595 31.3446 121.787 30.1697 121.79C34.0862 118.179 35.0059 113.898 32.9257 108.946C29.9289 103.486 25.5278 101.899 19.7255 104.184C15.2635 108.128 15.1678 112.168 19.4354 116.306C21.7998 117.734 24.0714 117.59 26.2531 115.873C27.811 113.499 27.5673 111.334 25.5278 109.379C24.6952 108.959 23.8248 108.863 22.9168 109.091C22.7659 109.253 22.6673 109.445 22.6267 109.668C23.4245 110.389 24.2455 111.111 25.0926 111.833C25.4785 114.623 24.2687 115.729 21.4662 115.152C18.5708 113.574 17.6512 111.217 18.7101 108.081C21.6809 104.342 25.1129 103.909 29.0092 106.782C32.0119 109.893 32.7372 113.501 31.1851 117.605C29.8708 120.16 27.7907 121.748 24.9476 122.367C17.393 122.843 12.9948 119.331 11.7473 111.833C11.4717 105.984 13.9377 101.702 19.1453 98.9892C20.6423 98.5941 22.0928 98.1612 23.497 97.6904Z" fill="#6C8093"/>
<path fill-rule="evenodd" clip-rule="evenodd" d="M53.6696 107.503C57.4904 107.792 59.2804 109.812 59.0368 113.564C58.0591 114.727 56.8986 115.689 55.5554 116.451C53.5826 120.627 50.5364 123.753 46.4167 125.831C31.8124 126.008 17.2109 126.105 2.60938 126.119C6.58685 124.742 10.309 122.866 13.7788 120.491C15.3686 122.317 17.3501 123.52 19.7262 124.099C23.3091 124.241 26.8862 124.144 30.4604 123.81C34.8644 123.062 38.7316 121.234 42.065 118.327C43.3937 118.164 44.6529 117.78 45.8365 117.172C47.8296 114.989 49.4252 112.536 50.6234 109.812C51.488 108.788 52.5034 108.019 53.6696 107.503Z" fill="#E2E6E9"/>
<path fill-rule="evenodd" clip-rule="evenodd" d="M54.5388 111.255C56.2243 111.129 56.7088 111.85 55.9893 113.42C54.3328 113.536 53.8483 112.814 54.5388 111.255Z" fill="#2B333B"/>
<path fill-rule="evenodd" clip-rule="evenodd" d="M51.0574 125.109C52.6588 125.357 54.3009 125.597 55.9894 125.83C56.7495 125.997 56.9438 126.382 56.5696 126.985C53.7874 127.487 50.982 127.679 48.1562 127.562C48.516 127.363 48.516 127.219 48.1562 127.129C49.2152 126.602 50.1813 125.928 51.0574 125.109Z" fill="#E2E6E9"/>
<path fill-rule="evenodd" clip-rule="evenodd" d="M46.9965 127.418C36.5611 127.702 26.1169 127.798 15.6641 127.707C23.5465 127.486 33.7498 127.293 46.2712 127.129C46.5816 127.137 46.8224 127.234 46.9965 127.418Z" fill="#2B333B"/>
</svg>
