<svg width="32" height="32" viewBox="0 0 32 32" fill="none" xmlns="http://www.w3.org/2000/svg">
<g id="Splus Logo 3" clip-path="url(#clip0_78_95)">
<g id="Layer 2">
<g id="Layer 1">
<path id="Vector" d="M19.2668 1.22977C19.2331 1.22977 19.1994 1.22977 19.1665 1.22977C18.5568 1.15433 17.9418 1.13079 17.3282 1.15941C16.5249 1.18804 15.7291 1.3232 14.9614 1.56135C14.1065 1.82131 13.3109 2.24679 12.6201 2.8136C12.3722 3.02244 12.1384 3.24748 11.9203 3.48725C11.4996 3.94384 11.192 4.47303 10.9292 5.02991C10.7878 5.32932 10.6605 5.63695 10.5273 5.94084C10.5093 5.98351 10.4944 6.02692 10.4801 6.07108C10.4345 6.21554 10.3941 6.3615 10.3447 6.50447C10.2065 6.93664 10.0982 7.3778 10.0206 7.82482C9.94065 8.23766 9.88715 8.65518 9.86037 9.07482C9.83867 9.38096 9.8222 9.68785 9.82145 9.99473C9.82119 10.5245 9.85168 11.0538 9.91277 11.5801C9.98762 12.2612 10.1171 12.9341 10.2578 13.6048C10.4173 14.3675 10.6545 15.107 10.8858 15.8503C11.1171 16.5935 11.3858 17.3128 11.65 18.0396C11.8634 18.6287 12.061 19.2223 12.2226 19.8278C12.3203 20.1846 12.3899 20.5485 12.4307 20.9161C12.494 21.4389 12.4722 21.9684 12.3664 22.4842C12.3514 22.5501 12.3357 22.6152 12.3162 22.6796C12.238 22.9413 12.1445 23.1983 12.0363 23.4491C11.9622 23.6189 11.8717 23.7811 11.7661 23.9333C11.3905 24.4831 10.9282 24.9682 10.3971 25.3697C9.77417 25.8328 9.05066 26.1421 8.28553 26.2724C7.9626 26.3305 7.63533 26.361 7.30723 26.3637C6.20336 26.38 5.12975 26.0027 4.2788 25.2994C4.08979 25.1514 3.91444 24.9869 3.75484 24.8076C3.73314 24.7821 3.70694 24.7604 3.67999 24.7372C3.65305 24.714 3.6493 24.7305 3.63433 24.7372C3.60589 24.723 3.59616 24.6931 3.58044 24.6691C3.3791 24.354 3.16652 24.0464 2.97715 23.723C2.6995 23.2524 2.44642 22.7677 2.21892 22.2709C1.95115 21.6815 1.7209 21.0758 1.52955 20.4573C1.37063 19.9436 1.23994 19.4216 1.13808 18.8937C1.06997 18.5441 1.01383 18.1916 0.974158 17.8368C0.94347 17.5613 0.915775 17.2859 0.899308 17.0089C0.885087 16.8031 0.885087 16.5973 0.873859 16.3922C0.86338 16.2193 0.858889 16.0471 0.862632 15.875C0.867871 15.6272 0.872362 15.3787 0.888081 15.1317C0.906045 14.8465 0.9285 14.5613 0.962931 14.2784C1.0677 13.3599 1.25636 12.4529 1.52655 11.5688C1.69994 11.0067 1.90511 10.455 2.14107 9.91614C2.52272 9.04548 2.98639 8.21313 3.5258 7.43036C4.16746 6.49716 4.91134 5.63855 5.74361 4.87048C6.82117 3.87758 8.03658 3.04562 9.35214 2.40043C10.3093 1.92889 11.3146 1.56224 12.3506 1.30686C12.7997 1.19758 13.2488 1.10552 13.7084 1.03591C13.9405 1.00048 14.1737 0.971035 14.4083 0.947582C14.659 0.922133 14.9105 0.90866 15.1613 0.884708C15.2488 0.876474 15.3379 0.877971 15.4262 0.876474C15.8753 0.865995 16.3177 0.865995 16.7631 0.881714C16.9352 0.887702 17.1066 0.90866 17.278 0.921385C17.3783 0.92887 17.4786 0.9386 17.5774 0.948331C17.9377 0.982762 18.295 1.03266 18.6493 1.09803C18.8304 1.13171 19.0116 1.16764 19.1934 1.20207C19.2204 1.20212 19.2465 1.21196 19.2668 1.22977Z" fill="#196FF0"/>
<path id="Vector_2" d="M7.01154 28.1564C7.03962 28.1626 7.06549 28.1763 7.08639 28.1961C7.51031 28.4852 7.9529 28.746 8.41123 28.9768C9.23804 29.42 10.1084 29.7767 11.0085 30.0411C11.5733 30.2046 12.1485 30.3296 12.7301 30.4154C13.5257 30.5302 14.3306 30.5685 15.1335 30.5299C15.6335 30.5072 16.1315 30.453 16.6245 30.3675C16.9022 30.3203 17.1777 30.2634 17.4524 30.2021C18.2061 30.027 18.9435 29.7881 19.6567 29.488C20.267 29.236 20.8586 28.9409 21.4269 28.6048C22.128 28.1923 22.7566 27.6676 23.2877 27.0516C23.8224 26.4457 24.3 25.7918 24.7144 25.098C25.3491 24.0143 25.7998 22.8329 26.0482 21.6018C26.1303 21.1978 26.1891 20.7895 26.2241 20.3787C26.2647 19.9178 26.2777 19.4549 26.263 18.9925C26.2162 17.5943 25.9317 16.2143 25.4217 14.9117C25.3221 14.6572 25.2174 14.4049 25.1133 14.1519C25.0924 14.1018 25.0677 14.0531 25.0422 14.0022C24.5335 13.0381 23.9047 12.1423 23.1709 11.3361C22.6949 10.8069 22.1777 10.3196 21.6597 9.83307C21.2855 9.48427 20.888 9.16915 20.4876 8.85478C20.2069 8.63023 19.9172 8.42439 19.6485 8.18786C19.5609 8.10291 19.4674 8.02436 19.3686 7.95283C19.3376 7.93114 19.3093 7.90603 19.284 7.87798C19.162 7.75074 19.037 7.62574 18.9195 7.49475C18.5396 7.07917 18.2843 6.56506 18.1829 6.01122C18.0797 5.39991 18.1399 4.77218 18.3573 4.19161C18.7129 3.28068 19.3611 2.6714 20.275 2.34281C20.883 2.11834 21.5433 2.07671 22.1747 2.22305C22.2114 2.23128 22.2495 2.23577 22.2862 2.24176C22.2878 2.2443 22.29 2.24646 22.2925 2.24809C22.2951 2.24972 22.2979 2.25078 22.3009 2.25121C22.3039 2.25164 22.3069 2.25141 22.3098 2.25056C22.3127 2.2497 22.3154 2.24823 22.3177 2.24625C22.4051 2.2747 22.489 2.31312 22.5677 2.36077C23.479 2.80114 24.3441 3.33147 25.15 3.94385C25.4913 4.20333 25.8211 4.47778 26.1395 4.76721C26.4768 5.0716 26.7999 5.39071 27.1088 5.72454C28.7751 7.52009 29.9783 9.69497 30.6141 12.0606C30.7308 12.4955 30.8266 12.9341 30.9067 13.3765C30.9531 13.637 30.991 13.8987 31.0205 14.1617C31.0512 14.4416 31.0781 14.7215 31.0953 15.0022C31.1081 15.1781 31.1126 15.3548 31.1185 15.5314C31.123 15.6811 31.1343 15.8248 31.132 15.9723C31.1283 16.2664 31.1253 16.5614 31.1066 16.8548C31.0861 17.1811 31.0567 17.5072 31.0182 17.8331C30.7975 19.6862 30.2335 21.4821 29.3551 23.1287C29.1126 23.5856 28.8444 24.0284 28.5519 24.4551C28.5274 24.4887 28.5099 24.5269 28.5004 24.5674C28.4909 24.6078 28.4896 24.6498 28.4965 24.6908C28.5287 24.9027 28.5579 25.1145 28.5871 25.3271C28.6163 25.5396 28.6447 25.7597 28.6732 25.976C28.7039 26.2088 28.7346 26.4423 28.7645 26.6751C28.7847 26.8383 28.8019 27.0007 28.8221 27.1632C28.8438 27.3428 28.8678 27.5217 28.8895 27.7006C28.9112 27.8795 28.9299 28.0426 28.9501 28.2133C28.9703 28.384 28.9883 28.5389 29.0085 28.7013C29.0295 28.8765 29.0519 29.0516 29.0736 29.2253C29.0976 29.4169 29.1208 29.6093 29.144 29.8009C29.1642 29.9678 29.1829 30.134 29.2024 30.3009C29.2129 30.3884 29.2241 30.476 29.2346 30.5636C29.245 30.6512 29.2241 30.6751 29.1283 30.6512C29.0467 30.631 28.9658 30.6078 28.885 30.5861L26.998 30.0816C26.3992 29.9221 25.8049 29.7642 25.2091 29.6033C24.7548 29.4813 24.3012 29.3555 23.8476 29.229C23.763 29.2058 23.6769 29.1841 23.5931 29.1542C23.5696 29.1459 23.5445 29.143 23.5197 29.1459C23.4949 29.1487 23.4711 29.1572 23.4501 29.1706C23.1298 29.3563 22.7989 29.5232 22.4651 29.6826C21.9905 29.9079 21.5043 30.1077 21.0085 30.2814C20.4812 30.4664 19.9439 30.6218 19.3992 30.747C19.0677 30.8218 18.7346 30.8914 18.3977 30.9386C18.1859 30.9685 17.9748 31.0067 17.7623 31.0299C17.5287 31.0546 17.2945 31.0763 17.0594 31.092C16.6231 31.1205 16.1859 31.1392 15.7488 31.131C15.5257 31.1265 15.3032 31.118 15.0811 31.1055C14.8798 31.0935 14.6784 31.0786 14.4778 31.0561C14.1904 31.0232 13.903 30.988 13.6171 30.9423C13.2892 30.8899 12.9636 30.8293 12.644 30.756C11.7997 30.5636 10.9733 30.2994 10.174 29.9663C9.71987 29.7762 9.276 29.5646 8.84237 29.3316C8.23144 29.0026 7.64373 28.6322 7.08339 28.223C7.0527 28.2073 7.01977 28.1931 7.01154 28.1564Z" fill="#196FF0"/>
<path id="Vector_3" d="M22.3143 2.24544C22.3017 2.2573 22.2928 2.24544 22.2832 2.241L22.3143 2.24544Z" fill="#FEFEFE"/>
</g>
</g>
</g>
<defs>
<clipPath id="clip0_78_95">
<rect width="32.0007" height="32" fill="white"/>
</clipPath>
</defs>
</svg>
