<svg width="1442" height="839" viewBox="0 0 1442 839" fill="none" xmlns="http://www.w3.org/2000/svg">
<path fill-rule="evenodd" clip-rule="evenodd" d="M1440 808.426L974.576 479.696C958.587 468.399 937.446 468.874 921.987 480.875L665.258 679.986C636.546 702.263 602.135 714.423 565.746 715.162C529.358 715.919 494.488 705.149 464.876 684.068L183.035 483.321C160.442 467.225 146.206 443.049 143.056 415.97C142.542 420.349 142.324 424.801 142.411 429.302C143.011 460.067 157.817 487.976 183.035 505.864L464.876 705.73C494.488 726.719 529.358 737.441 565.746 736.687C602.135 735.952 636.546 723.845 665.258 701.665L921.987 503.428C937.446 491.48 958.587 491.007 974.576 502.255L1440 837" fill="#E2E6E9"/>
<path d="M1440 808.426L974.576 479.696C958.587 468.399 937.446 468.874 921.987 480.875L665.258 679.986C636.546 702.263 602.135 714.423 565.746 715.162C529.358 715.919 494.488 705.149 464.876 684.068L183.035 483.321C160.442 467.225 146.206 443.049 143.056 415.97C142.542 420.349 142.324 424.801 142.411 429.302C143.011 460.067 157.817 487.976 183.035 505.864L464.876 705.73C494.488 726.719 529.358 737.441 565.746 736.687C602.135 735.952 636.546 723.845 665.258 701.665L921.987 503.428C937.446 491.48 958.587 491.007 974.576 502.255L1440 837" stroke="#6C8093" stroke-width="2" stroke-linecap="round" stroke-linejoin="round"/>
<path fill-rule="evenodd" clip-rule="evenodd" d="M197.482 417C199.909 407.846 205.246 399.697 212.956 393.686L272.486 347.329C292.37 331.848 303.492 308.45 302.985 283.151C302.917 279.719 302.636 276.331 302.15 273C299.216 293.125 288.8 311.235 272.486 323.992L212.956 370.553C201.921 379.194 195.748 392.235 196.01 406.336C196.078 409.998 196.579 413.572 197.482 417Z" fill="#E2E6E9" stroke="#6C8093" stroke-width="2" stroke-linecap="round" stroke-linejoin="round"/>
<path d="M251.359 260.259C251.45 264.628 250.489 268.827 248.611 272.578C246.71 268.782 243.871 265.458 240.241 262.896L1 93.7072V69.3492L240.241 239.284C247.141 244.175 251.182 251.83 251.359 260.259ZM251.359 260.259C251.535 268.688 247.794 276.484 241.106 281.657L181.035 328.025C156.523 346.942 142.812 375.52 143.412 406.42C144.012 437.32 158.818 465.352 184.035 483.319L465.876 684.065C495.488 705.147 530.358 715.916 566.747 715.159C603.135 714.42 637.547 702.261 666.258 679.983L922.988 480.873C938.446 468.872 959.588 468.397 975.576 479.694L1441 808.423M245.62 211.088L256.252 218.649C259.813 221.177 262.966 224.032 265.706 227.137M277.176 249.355C279.156 257.061 279.317 265.158 277.646 272.937M242.747 315.056L257.765 303.464C261.007 300.961 263.847 298.172 266.29 295.17M185.731 361.612C189.184 357.367 193.195 353.431 197.765 349.903L212.783 338.31M172.176 390.618C169.813 401.6 170.034 413.03 172.821 423.914M960.521 447.241C952.878 446.191 945.108 446.364 937.519 447.755M211.882 471.813L200.139 463.448C195.436 460.098 191.275 456.32 187.66 452.212M982.524 453.951C985.942 455.627 989.26 457.588 992.442 459.835L1004.08 468.054M895.501 470.061L906.198 461.765C909.276 459.377 912.501 457.269 915.841 455.443M662.333 651.838L651.636 660.134C647.584 663.277 643.402 666.173 639.111 668.824M493.673 671.782C489.278 669.308 484.981 666.583 480.803 663.608L469.06 655.244M582.01 689.007C592.062 687.728 602.001 685.382 611.649 681.973M521.65 683.804C531.43 686.819 541.457 688.758 551.552 689.627M201.578 180.31L225.716 197.475M159.049 150.067L183.187 167.232M116.519 119.823L140.657 136.988M73.9896 89.5793L98.1279 106.745M31.4602 59.3356L55.5986 76.501M1 37.6746L13.069 46.2574M233.782 487.26L260.141 506.034M280.756 520.718L307.115 539.492M327.729 554.175L354.088 572.95M374.703 587.633L401.062 606.408M421.676 621.091L448.035 639.865M705.431 617.943L681.251 636.696M748.219 584.758L724.039 603.511M791.007 551.573L766.827 570.326M833.795 518.388L809.615 537.141M876.583 485.203L852.403 503.956M1024.89 483.152L1051.04 501.624M1071.44 516.028L1097.59 534.501M1117.98 548.905L1144.14 567.377M1164.53 581.781L1190.68 600.254M1211.07 614.658L1237.23 633.13M1257.62 647.534L1283.77 666.007M1304.17 680.411L1330.32 698.883M1350.71 713.287L1376.87 731.76M1397.26 746.164L1423.41 764.636M1 6L271.011 197.051C291.693 211.727 303.834 234.673 304.346 259.978C304.858 285.282 293.634 308.686 273.57 324.171L213.499 370.54C202.364 379.144 196.134 392.131 196.399 406.174C196.664 420.216 203.405 432.956 214.858 441.121L237.473 457.229L296.917 499.57L428.072 592.987C428.072 592.987 479.704 629.93 488.218 635.827L496.699 641.868C537.675 671.044 594.058 669.9 633.799 639.087L757.007 543.532L802.042 508.604L890.528 439.977C924.552 413.582 971.051 412.561 1006.22 437.391L1095.15 500.323L1154.29 542.178L1441 745.074" stroke="#6C8093" stroke-width="2" stroke-linecap="round" stroke-linejoin="round"/>
<path d="M240.241 262.896L1 93.7066V69.3486L240.241 239.283C247.141 244.175 251.182 251.83 251.359 260.259C251.45 264.627 250.489 268.826 248.611 272.578C246.71 268.781 243.871 265.458 240.241 262.896Z" fill="#E2E6E9" stroke="#6C8093" stroke-width="2" stroke-linecap="round" stroke-linejoin="round"/>
<path d="M1441 738L1441 838" stroke="#6C8093" stroke-width="2" stroke-linecap="round"/>
<path d="M1 1L1 101" stroke="#6C8093" stroke-width="2" stroke-linecap="round"/>
</svg>
