<svg width="1440" height="833" viewBox="0 0 1440 833" fill="none" xmlns="http://www.w3.org/2000/svg">
<path fill-rule="evenodd" clip-rule="evenodd" d="M1439 803.427L973.578 474.697C957.589 463.4 936.448 463.875 920.989 475.876L664.26 674.987C635.548 697.264 601.137 709.424 564.748 710.163C528.36 710.92 493.49 700.15 463.878 679.069L182.037 478.322C159.444 462.226 145.208 438.05 142.058 410.971C141.544 415.35 141.326 419.802 141.413 424.303C142.013 455.068 156.819 482.977 182.037 500.865L463.878 700.731C493.49 721.72 528.36 732.442 564.748 731.688C601.137 730.953 635.548 718.846 664.26 696.666L920.989 498.429C936.448 486.481 957.589 486.008 973.578 497.256L1439 832.001" fill="#E2E6E9"/>
<path d="M1439 803.427L973.578 474.697C957.589 463.4 936.448 463.875 920.989 475.876L664.26 674.987C635.548 697.264 601.137 709.424 564.748 710.163C528.36 710.92 493.49 700.15 463.878 679.069L182.037 478.322C159.444 462.226 145.208 438.05 142.058 410.971C141.544 415.35 141.326 419.802 141.413 424.303C142.013 455.068 156.819 482.977 182.037 500.865L463.878 700.731C493.49 721.72 528.36 732.442 564.748 731.688C601.137 730.953 635.548 718.846 664.26 696.666L920.989 498.429C936.448 486.481 957.589 486.008 973.578 497.256L1439 832.001" stroke="#6C8093" stroke-width="2" stroke-linecap="round" stroke-linejoin="round"/>
<path fill-rule="evenodd" clip-rule="evenodd" d="M195.881 411.795C198.329 402.68 203.715 394.564 211.495 388.578L271.565 342.413C291.63 326.996 302.854 303.695 302.342 278.501C302.272 275.083 301.989 271.708 301.499 268.392C298.538 288.433 288.027 306.468 271.565 319.173L211.495 365.541C200.36 374.146 194.13 387.133 194.395 401.175C194.463 404.822 194.969 408.381 195.881 411.795Z" fill="#E2E6E9" stroke="#6C8093" stroke-width="2" stroke-linecap="round" stroke-linejoin="round"/>
<path d="M250.359 255.259C250.45 259.628 249.489 263.827 247.611 267.578C245.71 263.782 242.871 260.458 239.241 257.896L0 88.7072V64.3492L239.241 234.284C246.141 239.175 250.182 246.83 250.359 255.259ZM250.359 255.259C250.535 263.688 246.794 271.484 240.106 276.657L180.035 323.025C155.523 341.942 141.812 370.52 142.412 401.42C143.012 432.32 157.818 460.352 183.035 478.319L464.876 679.065C494.488 700.147 529.358 710.916 565.747 710.159C602.135 709.42 636.547 697.261 665.258 674.983L921.988 475.873C937.446 463.872 958.588 463.397 974.576 474.694L1440 803.423M244.62 206.088L255.252 213.649C258.813 216.177 261.966 219.032 264.706 222.137M276.176 244.355C278.156 252.061 278.317 260.158 276.646 267.937M241.747 310.056L256.765 298.464C260.007 295.961 262.847 293.172 265.29 290.17M184.731 356.612C188.184 352.367 192.195 348.431 196.765 344.903L211.783 333.31M171.176 385.618C168.813 396.6 169.034 408.03 171.821 418.914M959.521 442.241C951.878 441.191 944.108 441.364 936.519 442.755M210.882 466.813L199.139 458.448C194.436 455.098 190.275 451.32 186.66 447.212M981.524 448.951C984.942 450.627 988.26 452.588 991.442 454.835L1003.08 463.054M894.501 465.061L905.198 456.765C908.276 454.377 911.501 452.269 914.841 450.443M661.333 646.838L650.636 655.134C646.584 658.276 642.402 661.173 638.111 663.824M492.673 666.782C488.278 664.308 483.981 661.583 479.803 658.608L468.06 650.244M581.01 684.007C591.062 682.728 601.001 680.382 610.649 676.973M520.65 678.804C530.43 681.819 540.457 683.758 550.552 684.627M200.578 175.31L224.716 192.475M158.049 145.067L182.187 162.232M115.519 114.823L139.657 131.988M72.9896 84.5793L97.1279 101.745M30.4602 54.3356L54.5986 71.501M0 32.6746L12.069 41.2574M232.782 482.26L259.141 501.034M279.756 515.718L306.114 534.492M326.729 549.175L353.088 567.95M373.703 582.633L400.062 601.408M420.676 616.091L447.035 634.865M704.431 612.943L680.251 631.696M747.219 579.758L723.039 598.511M790.007 546.573L765.827 565.326M832.795 513.388L808.615 532.141M875.583 480.203L851.403 498.956M1023.89 478.152L1050.04 496.624M1070.44 511.028L1096.59 529.501M1116.98 543.905L1143.14 562.377M1163.53 576.781L1189.68 595.254M1210.07 609.658L1236.23 628.13M1256.62 642.534L1282.77 661.007M1303.17 675.411L1329.32 693.883M1349.71 708.287L1375.87 726.76M1396.26 741.164L1422.41 759.636M0 1L270.011 192.051C290.693 206.727 302.834 229.673 303.346 254.978C303.858 280.282 292.634 303.686 272.57 319.171L212.499 365.54C201.364 374.145 195.134 387.131 195.399 401.174C195.664 415.216 202.405 427.956 213.858 436.121L236.473 452.229C236.809 474.094 270.379 497.331 270.379 497.331L285.434 507.793C285.434 507.793 290.12 502.637 295.917 494.57L427.072 587.987C427.063 588.376 427.059 588.766 427.059 589.157C427.059 611.117 460.967 634.587 460.967 634.587L476.022 645.05C476.022 645.05 481.097 639.466 487.218 630.827L495.699 636.868C536.675 666.044 593.058 664.9 632.799 634.087L756.007 538.532C756.918 539.204 757.437 539.563 757.437 539.563L772.493 550.026C772.493 550.026 792.599 527.903 801.042 503.604L889.528 434.977C923.552 408.582 970.052 407.561 1005.22 432.391L1094.15 495.323C1095.33 516.932 1128.03 539.563 1128.03 539.563L1143.08 550.026C1143.08 550.026 1147.62 545.03 1153.29 537.178L1440 740.074" stroke="#6C8093" stroke-width="2" stroke-linecap="round" stroke-linejoin="round"/>
<path d="M239.241 257.896L0 88.7066V64.3486L239.241 234.283C246.141 239.175 250.182 246.83 250.359 255.259C250.45 259.627 249.489 263.826 247.611 267.578C245.71 263.781 242.871 260.458 239.241 257.896Z" fill="#E2E6E9" stroke="#6C8093" stroke-width="2" stroke-linecap="round" stroke-linejoin="round"/>
</svg>
