<svg width="1000" height="219" viewBox="0 0 1000 219" fill="none" xmlns="http://www.w3.org/2000/svg">
<path d="M500 219C676.026 219 701.173 177.937 919.11 177.938H1000V41.0625H919.11C701.173 41.0625 676.026 -1.52588e-05 500 0C323.974 1.52588e-05 298.827 41.0625 80.8898 41.0625H0V177.938H80.8898C298.827 177.938 323.974 219 500 219Z" fill="url(#paint0_linear_15217_14183)"/>
<mask id="mask0_15217_14183" style="mask-type:alpha" maskUnits="userSpaceOnUse" x="0" y="0" width="1000" height="219">
<path d="M500 0C676.026 0 701.173 41.0625 919.11 41.0625H1000V177.938H919.11C701.173 177.938 676.026 219 500 219C323.974 219 298.827 177.938 80.8898 177.938H0V41.0625H80.8898C298.827 41.0625 323.974 0 500 0Z" fill="url(#paint1_linear_15217_14183)"/>
</mask>
<g mask="url(#mask0_15217_14183)">
<path d="M1007 397L1343 109.563L1007 -177.875L671 109.563L1007 397Z" fill="#2D80D2"/>
<path d="M357 109.562L21 -177.875L-315 109.562L21 397L357 109.562Z" fill="#1B4D7E"/>
</g>
<defs>
<linearGradient id="paint0_linear_15217_14183" x1="80.8899" y1="109.966" x2="880.313" y2="286.079" gradientUnits="userSpaceOnUse">
<stop stop-color="#1B4D7E"/>
<stop offset="0.33" stop-color="#2D80D2"/>
<stop offset="1" stop-color="#1B4D7E"/>
</linearGradient>
<linearGradient id="paint1_linear_15217_14183" x1="80.8899" y1="109.034" x2="880.313" y2="-67.079" gradientUnits="userSpaceOnUse">
<stop stop-color="#1B4D7E"/>
<stop offset="0.33" stop-color="#2D80D2"/>
<stop offset="1" stop-color="#1B4D7E"/>
</linearGradient>
</defs>
</svg>
