<svg width="1000" height="219" viewBox="0 0 1000 219" fill="none" xmlns="http://www.w3.org/2000/svg">
<g clip-path="url(#clip0_14453_99937)">
<path d="M800 25H200V194H800V25Z" fill="url(#paint0_linear_14453_99937)"/>
<path d="M497.705 0C375.035 0 354.381 25 200 25H800C675.869 25 620.376 0 497.705 0Z" fill="url(#paint1_linear_14453_99937)"/>
<path d="M497.705 219C375.035 219 354.381 194 200 194H800C675.869 194 620.376 219 497.705 219Z" fill="url(#paint2_linear_14453_99937)"/>
<mask id="mask0_14453_99937" style="mask-type:alpha" maskUnits="userSpaceOnUse" x="200" y="0" width="600" height="219">
<path d="M800 25H200V194H800V25Z" fill="url(#paint3_linear_14453_99937)"/>
<path d="M497.705 0C375.035 0 354.381 25 200 25H800C675.869 25 620.376 0 497.705 0Z" fill="url(#paint4_linear_14453_99937)"/>
<path d="M497.705 219C375.035 219 354.381 194 200 194H800C675.869 194 620.376 219 497.705 219Z" fill="url(#paint5_linear_14453_99937)"/>
</mask>
<g mask="url(#mask0_14453_99937)">
<path d="M996 -224L1332 112L996 448L660 112L996 -224Z" fill="#2D80D2"/>
<path d="M346 112L10 448L-326 112L10 -224L346 112Z" fill="#1B4D7E"/>
</g>
</g>
<path d="M0 25H200V194H0V25Z" fill="#1B4C7E"/>
<rect x="800" y="25" width="200" height="169" fill="#2D80D2"/>
<defs>
<linearGradient id="paint0_linear_14453_99937" x1="800" y1="219" x2="183.107" y2="69.8866" gradientUnits="userSpaceOnUse">
<stop stop-color="#1B4D7E"/>
<stop offset="0.33" stop-color="#2D80D2"/>
<stop offset="1" stop-color="#1B4D7E"/>
</linearGradient>
<linearGradient id="paint1_linear_14453_99937" x1="800" y1="219" x2="183.107" y2="69.8866" gradientUnits="userSpaceOnUse">
<stop stop-color="#1B4D7E"/>
<stop offset="0.33" stop-color="#2D80D2"/>
<stop offset="1" stop-color="#1B4D7E"/>
</linearGradient>
<linearGradient id="paint2_linear_14453_99937" x1="800" y1="219" x2="183.107" y2="69.8866" gradientUnits="userSpaceOnUse">
<stop stop-color="#1B4D7E"/>
<stop offset="0.33" stop-color="#2D80D2"/>
<stop offset="1" stop-color="#1B4D7E"/>
</linearGradient>
<linearGradient id="paint3_linear_14453_99937" x1="800" y1="219" x2="183.107" y2="69.8866" gradientUnits="userSpaceOnUse">
<stop stop-color="#1B4D7E"/>
<stop offset="0.33" stop-color="#2D80D2"/>
<stop offset="1" stop-color="#1B4D7E"/>
</linearGradient>
<linearGradient id="paint4_linear_14453_99937" x1="800" y1="219" x2="183.107" y2="69.8866" gradientUnits="userSpaceOnUse">
<stop stop-color="#1B4D7E"/>
<stop offset="0.33" stop-color="#2D80D2"/>
<stop offset="1" stop-color="#1B4D7E"/>
</linearGradient>
<linearGradient id="paint5_linear_14453_99937" x1="800" y1="219" x2="183.107" y2="69.8866" gradientUnits="userSpaceOnUse">
<stop stop-color="#1B4D7E"/>
<stop offset="0.33" stop-color="#2D80D2"/>
<stop offset="1" stop-color="#1B4D7E"/>
</linearGradient>
<clipPath id="clip0_14453_99937">
<rect width="600" height="219" fill="white" transform="translate(200)"/>
</clipPath>
</defs>
</svg>
