<svg width="800" height="219" viewBox="0 0 800 219" fill="none" xmlns="http://www.w3.org/2000/svg">
<path d="M400 219C540.821 219 560.938 177.937 735.288 177.938H800V41.0625H735.288C560.938 41.0625 540.821 -1.52588e-05 400 0C259.179 1.52588e-05 239.062 41.0625 64.7118 41.0625H0V177.938H64.7118C239.062 177.938 259.179 219 400 219Z" fill="url(#paint0_linear_15217_14190)"/>
<mask id="mask0_15217_14190" style="mask-type:alpha" maskUnits="userSpaceOnUse" x="0" y="0" width="800" height="219">
<path d="M400 0C540.821 0 560.938 41.0625 735.288 41.0625H800V177.938H735.288C560.938 177.938 540.821 219 400 219C259.179 219 239.062 177.938 64.7118 177.938H0V41.0625H64.7118C239.062 41.0625 259.179 0 400 0Z" fill="url(#paint1_linear_15217_14190)"/>
</mask>
<g mask="url(#mask0_15217_14190)">
<path d="M907 446L1243 110L907 -226L571 110L907 446Z" fill="#2D80D2"/>
<path d="M257 110L-79 -226L-415 110L-79 446L257 110Z" fill="#1B4D7E"/>
</g>
<defs>
<linearGradient id="paint0_linear_15217_14190" x1="64.7119" y1="109.966" x2="715.088" y2="224.588" gradientUnits="userSpaceOnUse">
<stop stop-color="#1B4D7E"/>
<stop offset="0.33" stop-color="#2D80D2"/>
<stop offset="1" stop-color="#1B4D7E"/>
</linearGradient>
<linearGradient id="paint1_linear_15217_14190" x1="64.7119" y1="109.034" x2="715.088" y2="-5.58823" gradientUnits="userSpaceOnUse">
<stop stop-color="#1B4D7E"/>
<stop offset="0.33" stop-color="#2D80D2"/>
<stop offset="1" stop-color="#1B4D7E"/>
</linearGradient>
</defs>
</svg>
