<svg width="800" height="219" viewBox="0 0 800 219" fill="none" xmlns="http://www.w3.org/2000/svg">
<g clip-path="url(#clip0_14453_99938)">
<path d="M700 25H100V194H700V25Z" fill="url(#paint0_linear_14453_99938)"/>
<path d="M397.705 0C275.035 0 254.381 25 100 25H700C575.869 25 520.376 0 397.705 0Z" fill="url(#paint1_linear_14453_99938)"/>
<path d="M397.705 219C275.035 219 254.381 194 100 194H700C575.869 194 520.376 219 397.705 219Z" fill="url(#paint2_linear_14453_99938)"/>
<mask id="mask0_14453_99938" style="mask-type:alpha" maskUnits="userSpaceOnUse" x="100" y="0" width="600" height="219">
<path d="M700 25H100V194H700V25Z" fill="url(#paint3_linear_14453_99938)"/>
<path d="M397.705 0C275.035 0 254.381 25 100 25H700C575.869 25 520.376 0 397.705 0Z" fill="url(#paint4_linear_14453_99938)"/>
<path d="M397.705 219C275.035 219 254.381 194 100 194H700C575.869 194 520.376 219 397.705 219Z" fill="url(#paint5_linear_14453_99938)"/>
</mask>
<g mask="url(#mask0_14453_99938)">
<path d="M896 -224L1232 112L896 448L560 112L896 -224Z" fill="#2D80D2"/>
<path d="M246 112L-90 448L-426 112L-90 -224L246 112Z" fill="#1B4D7E"/>
</g>
</g>
<path d="M0 25H100V194H0V25Z" fill="#1B4C7E"/>
<rect x="700" y="25" width="100" height="169" fill="#2D80D2"/>
<defs>
<linearGradient id="paint0_linear_14453_99938" x1="700" y1="219" x2="83.1072" y2="69.8866" gradientUnits="userSpaceOnUse">
<stop stop-color="#1B4D7E"/>
<stop offset="0.33" stop-color="#2D80D2"/>
<stop offset="1" stop-color="#1B4D7E"/>
</linearGradient>
<linearGradient id="paint1_linear_14453_99938" x1="700" y1="219" x2="83.1072" y2="69.8866" gradientUnits="userSpaceOnUse">
<stop stop-color="#1B4D7E"/>
<stop offset="0.33" stop-color="#2D80D2"/>
<stop offset="1" stop-color="#1B4D7E"/>
</linearGradient>
<linearGradient id="paint2_linear_14453_99938" x1="700" y1="219" x2="83.1072" y2="69.8866" gradientUnits="userSpaceOnUse">
<stop stop-color="#1B4D7E"/>
<stop offset="0.33" stop-color="#2D80D2"/>
<stop offset="1" stop-color="#1B4D7E"/>
</linearGradient>
<linearGradient id="paint3_linear_14453_99938" x1="700" y1="219" x2="83.1072" y2="69.8866" gradientUnits="userSpaceOnUse">
<stop stop-color="#1B4D7E"/>
<stop offset="0.33" stop-color="#2D80D2"/>
<stop offset="1" stop-color="#1B4D7E"/>
</linearGradient>
<linearGradient id="paint4_linear_14453_99938" x1="700" y1="219" x2="83.1072" y2="69.8866" gradientUnits="userSpaceOnUse">
<stop stop-color="#1B4D7E"/>
<stop offset="0.33" stop-color="#2D80D2"/>
<stop offset="1" stop-color="#1B4D7E"/>
</linearGradient>
<linearGradient id="paint5_linear_14453_99938" x1="700" y1="219" x2="83.1072" y2="69.8866" gradientUnits="userSpaceOnUse">
<stop stop-color="#1B4D7E"/>
<stop offset="0.33" stop-color="#2D80D2"/>
<stop offset="1" stop-color="#1B4D7E"/>
</linearGradient>
<clipPath id="clip0_14453_99938">
<rect width="600" height="219" fill="white" transform="translate(100)"/>
</clipPath>
</defs>
</svg>
