<svg width="1840" height="235" viewBox="0 0 1840 235" fill="none" xmlns="http://www.w3.org/2000/svg">
<path d="M200 49L920 48.5L1640 49V195H200V49Z" fill="url(#paint0_linear_14453_99916)"/>
<path d="M925.508 0C1219.92 0 1269.49 49 1640 49L920 48.5L200 49C497.914 49 631.099 0 925.508 0Z" fill="url(#paint1_linear_14453_99916)"/>
<path d="M925.508 235C1219.92 235 1269.49 195 1640 195H200C497.914 195 631.099 235 925.508 235Z" fill="url(#paint2_linear_14453_99916)"/>
<mask id="mask0_14453_99916" style="mask-type:alpha" maskUnits="userSpaceOnUse" x="200" y="0" width="1440" height="235">
<path d="M200 49L1640 48.5V195.5L200 195V49Z" fill="url(#paint3_linear_14453_99916)"/>
<path d="M925.508 0C1219.92 0 1269.49 48.5 1640 48.5L200 49C497.914 49 631.099 0 925.508 0Z" fill="url(#paint4_linear_14453_99916)"/>
<path d="M925.508 235C1219.92 235 1269.49 195.5 1640 195.5L200 195C497.914 195 631.099 235 925.508 235Z" fill="url(#paint5_linear_14453_99916)"/>
</mask>
<g mask="url(#mask0_14453_99916)">
<rect x="877.207" y="-171" width="409" height="409" transform="rotate(45 877.207 -171)" fill="#2D80D2"/>
<rect x="579.207" y="-171" width="409" height="409" transform="rotate(45 579.207 -171)" fill="#2466A8"/>
<rect x="323.207" y="-171" width="409" height="409" transform="rotate(45 323.207 -171)" fill="#1B4D7E"/>
</g>
<rect y="49" width="200" height="146" fill="#1B4C7E"/>
<rect x="1640" y="49" width="200" height="146" fill="#1C5084"/>
<defs>
<linearGradient id="paint0_linear_14453_99916" x1="200" y1="235" x2="1412.63" y2="-420.574" gradientUnits="userSpaceOnUse">
<stop stop-color="#1B4D7E"/>
<stop offset="0.33" stop-color="#2D80D2"/>
<stop offset="1" stop-color="#1B4D7E"/>
</linearGradient>
<linearGradient id="paint1_linear_14453_99916" x1="200" y1="235" x2="1412.63" y2="-420.574" gradientUnits="userSpaceOnUse">
<stop stop-color="#1B4D7E"/>
<stop offset="0.33" stop-color="#2D80D2"/>
<stop offset="1" stop-color="#1B4D7E"/>
</linearGradient>
<linearGradient id="paint2_linear_14453_99916" x1="200" y1="235" x2="1412.63" y2="-420.574" gradientUnits="userSpaceOnUse">
<stop stop-color="#1B4D7E"/>
<stop offset="0.33" stop-color="#2D80D2"/>
<stop offset="1" stop-color="#1B4D7E"/>
</linearGradient>
<linearGradient id="paint3_linear_14453_99916" x1="200" y1="235" x2="1412.63" y2="-420.574" gradientUnits="userSpaceOnUse">
<stop stop-color="#1B4D7E"/>
<stop offset="0.33" stop-color="#2D80D2"/>
<stop offset="1" stop-color="#1B4D7E"/>
</linearGradient>
<linearGradient id="paint4_linear_14453_99916" x1="200" y1="235" x2="1412.63" y2="-420.574" gradientUnits="userSpaceOnUse">
<stop stop-color="#1B4D7E"/>
<stop offset="0.33" stop-color="#2D80D2"/>
<stop offset="1" stop-color="#1B4D7E"/>
</linearGradient>
<linearGradient id="paint5_linear_14453_99916" x1="200" y1="235" x2="1412.63" y2="-420.574" gradientUnits="userSpaceOnUse">
<stop stop-color="#1B4D7E"/>
<stop offset="0.33" stop-color="#2D80D2"/>
<stop offset="1" stop-color="#1B4D7E"/>
</linearGradient>
</defs>
</svg>
